<svg width="153" height="153" viewBox="0 0 153 153" fill="none" xmlns="http://www.w3.org/2000/svg">
    <path d="M153 117.014H0V117.09H153V117.014Z" fill="#EBEBEB"/>
    <path d="M137.67 121.938H127.535V122.014H137.67V121.938Z" fill="#EBEBEB"/>
    <path d="M101.354 122.77H98.6953V122.846H101.354V122.77Z" fill="#EBEBEB"/>
    <path d="M127.228 119.098H121.355V119.174H127.228V119.098Z" fill="#EBEBEB"/>
    <path d="M29.2708 119.613H16.0547V119.69H29.2708V119.613Z" fill="#EBEBEB"/>
    <path d="M33.9331 119.613H31.9961V119.69H33.9331V119.613Z" fill="#EBEBEB"/>
    <path d="M68.8965 120.904H40.2305V120.981H68.8965V120.904Z" fill="#EBEBEB"/>
    <path d="M72.5211 103.367H13.4356C12.9727 103.366 12.5291 103.182 12.2021 102.854C11.8751 102.526 11.6914 102.082 11.6914 101.62V18.562C11.6954 18.1018 11.8809 17.6618 12.2075 17.3375C12.534 17.0132 12.9754 16.8309 13.4356 16.8301H72.5211C72.9846 16.8301 73.429 17.0142 73.7566 17.3418C74.0843 17.6695 74.2684 18.1139 74.2684 18.5773V101.62C74.2684 102.083 74.0843 102.527 73.7566 102.855C73.429 103.183 72.9846 103.367 72.5211 103.367ZM13.4356 16.8913C12.993 16.8921 12.5688 17.0685 12.2562 17.3817C11.9435 17.695 11.7679 18.1195 11.7679 18.562V101.62C11.7679 102.062 11.9435 102.487 12.2562 102.8C12.5688 103.113 12.993 103.29 13.4356 103.29H72.5211C72.964 103.29 73.3885 103.113 73.7017 102.8C74.0148 102.487 74.1911 102.062 74.1919 101.62V18.562C74.1911 18.1192 74.0148 17.6947 73.7017 17.3815C73.3885 17.0684 72.964 16.8921 72.5211 16.8913H13.4356Z" fill="#EBEBEB"/>
    <path d="M138.715 103.367H79.6262C79.163 103.366 78.7191 103.182 78.3916 102.854C78.0641 102.527 77.8797 102.083 77.8789 101.62V18.562C77.8837 18.1015 78.0699 17.6615 78.3969 17.3373C78.724 17.0131 79.1656 16.8309 79.6262 16.8301H138.715C139.174 16.8317 139.615 17.0144 139.941 17.3386C140.267 17.6628 140.452 18.1024 140.456 18.562V101.62C140.456 102.082 140.273 102.525 139.946 102.853C139.62 103.18 139.177 103.365 138.715 103.367ZM79.6262 16.8913C79.1833 16.8921 78.7588 17.0684 78.4457 17.3815C78.1325 17.6947 77.9562 18.1192 77.9554 18.562V101.62C77.9562 102.062 78.1325 102.487 78.4457 102.8C78.7588 103.113 79.1833 103.29 79.6262 103.29H138.715C139.158 103.29 139.582 103.113 139.895 102.8C140.208 102.487 140.385 102.062 140.386 101.62V18.562C140.385 18.1192 140.208 17.6947 139.895 17.3815C139.582 17.0684 139.158 16.8921 138.715 16.8913H79.6262Z" fill="#EBEBEB"/>
    <path d="M14.9336 117.014H78.8325L36.7483 91.123L14.9336 117.014Z" fill="#F0F0F0"/>
    <path d="M43.7264 95.4162L36.7466 91.123L31.8047 96.9891L35.5685 95.8875L37.7656 98.3171L39.5281 95.8875L41.4406 96.8667L42.1352 95.8875L44.828 97.0411L43.7264 95.4162Z" fill="#FAFAFA"/>
    <path d="M27.2148 117.015H107.414L70.2935 74.7598L27.2148 117.015Z" fill="#E6E6E6"/>
    <path d="M59.5039 85.3443L70.2935 74.7598L79.5897 85.3443L75.1895 83.0768L73.4789 86.7152L70.0028 84.1417L67.9464 86.3358L66.4256 84.8578L63.3411 87.266L62.6894 84.1325L59.5039 85.3443Z" fill="#F0F0F0"/>
    <path d="M76.5508 86.1914L79.7668 90.3805V87.2655L76.5508 86.1914Z" fill="#F0F0F0"/>
    <path d="M59.9853 90.1387L52.6719 95.8884L54.8934 90.8241L59.9853 90.1387Z" fill="#F0F0F0"/>
    <path d="M57.1445 117.015H130.462L96.4502 85.3438L57.1445 117.015Z" fill="#F5F5F5"/>
    <path d="M87.5312 92.5317L96.4512 85.3438L105.992 94.2269L100.625 91.8769L100.016 95.4173L96.7602 92.8071L92.2804 94.6645L92.1947 92.1094L89.4988 93.2722L89.5876 91.9931L87.5312 92.5317Z" fill="#FAFAFA"/>
    <path d="M101.945 93.8535L103.781 97.8376L105.128 96.0353L101.945 93.8535Z" fill="#FAFAFA"/>
    <path d="M80.2344 101.571L85.672 99.5209L82.7466 99.0312L80.2344 101.571Z" fill="#FAFAFA"/>
    <path d="M93.8047 117.015H136.036L118.352 95.418L93.8047 117.015Z" fill="#F5F5F5"/>
    <path d="M113.711 99.5061L118.353 95.418L124.045 102.367L118.353 99.2185L117.833 101.18L116.398 99.7693L113.711 99.5061Z" fill="#FAFAFA"/>
    <path d="M95.2447 64.4464C104.016 64.4464 111.126 57.3361 111.126 48.565C111.126 39.7939 104.016 32.6836 95.2447 32.6836C86.4736 32.6836 79.3633 39.7939 79.3633 48.565C79.3633 57.3361 86.4736 64.4464 95.2447 64.4464Z" fill="#FAFAFA"/>
    <path d="M34.9527 65.1167C37.9117 61.9251 41.9662 59.6699 45.1241 59.6699C47.104 59.6699 48.3677 60.5634 48.8206 62.02C50.1946 61.1907 51.6205 60.692 52.8445 60.692C54.9865 60.692 55.9045 62.222 55.3568 64.3976C56.4796 63.9272 57.6731 63.648 58.888 63.5714C61.079 63.4735 62.3978 64.3578 62.6549 65.793C63.126 65.5582 63.6385 65.4179 64.1635 65.3799C65.4242 65.3248 65.8465 66.2153 65.1059 67.3689C65.06 67.4423 65.0111 67.5127 64.9621 67.5831H30.0781C30.4912 66.4356 33.389 65.1779 34.9527 65.1167Z" fill="#F5F5F5"/>
    <path d="M116.477 65.1782C117.851 63.6972 119.73 62.6445 121.196 62.6445C122.114 62.6445 122.701 63.0607 122.909 63.7339C123.467 63.3697 124.111 63.1586 124.776 63.1219C125.776 63.1219 126.205 63.8349 125.945 64.8416C126.466 64.6244 127.019 64.4941 127.582 64.4561C128.598 64.4132 129.21 64.8232 129.329 65.4873C129.548 65.3794 129.786 65.315 130.03 65.2976C130.614 65.27 130.81 65.6831 130.467 66.2156L130.4 66.3165H114.219C114.408 65.7902 115.752 65.218 116.477 65.1782Z" fill="#FAFAFA"/>
    <path d="M100.705 36.6337C104.025 33.0535 108.572 30.5137 112.116 30.5137C114.337 30.5137 115.754 31.5174 116.259 33.1483C117.804 32.2303 119.402 31.6612 120.776 31.6612C123.19 31.6612 124.224 33.384 123.594 35.8167C124.854 35.2941 126.192 34.9839 127.554 34.8987C130.002 34.7885 131.495 35.7799 131.782 37.3926C132.31 37.1297 132.884 36.9717 133.472 36.9274C134.888 36.8662 135.36 37.8638 134.53 39.1612C134.478 39.2408 134.423 39.3204 134.368 39.3969H95.2461C95.699 38.1117 98.9487 36.6979 100.705 36.6337Z" fill="#F0F0F0"/>
    <path d="M22.0301 40.6093C22.1195 40.5984 22.2094 40.5933 22.2994 40.594C23.5418 39.6026 24.8331 38.9692 25.7909 38.9692C26.4824 38.9692 26.8894 39.2996 27.0149 39.8596C29.3282 37.9379 31.7854 36.6895 33.5786 36.6895C35.0259 36.6895 35.7756 37.5004 35.8215 38.8315C36.9843 38.0787 38.1196 37.6258 39.0162 37.6258C40.589 37.6258 40.9654 39.0212 40.1331 40.9918C40.9932 40.5779 41.921 40.3229 42.8718 40.2391C44.4905 40.1503 45.2831 40.952 45.1913 42.2587C45.5544 42.0521 45.9568 41.9239 46.3724 41.8823C47.2568 41.8364 47.4251 42.5555 46.7947 43.5194H16.8281C18.0705 42.0536 20.3349 40.7715 22.0301 40.6093Z" fill="#F5F5F5"/>
    <path d="M76.4983 130.834C109.266 130.834 135.829 129.283 135.829 127.37C135.829 125.457 109.266 123.906 76.4983 123.906C43.7311 123.906 17.168 125.457 17.168 127.37C17.168 129.283 43.7311 130.834 76.4983 130.834Z" fill="#F5F5F5"/>
    <path d="M86.1514 70.4119H74.9457C74.427 70.4152 73.9132 70.3123 73.4358 70.1095C72.9585 69.9067 72.5277 69.6084 72.1699 69.2329C71.8122 68.8574 71.5351 68.4126 71.3557 67.926C71.1763 67.4394 71.0984 66.9212 71.1268 66.4033L72.1121 45.6289C72.1747 44.5532 72.6427 43.5413 73.4217 42.7968C74.2008 42.0524 75.233 41.6309 76.3104 41.6173H87.5162C88.0345 41.6136 88.5482 41.7161 89.0254 41.9185C89.5026 42.121 89.9332 42.4191 90.2908 42.7944C90.6483 43.1697 90.9252 43.6143 91.1043 44.1008C91.2833 44.5873 91.3608 45.1053 91.332 45.6228L90.3467 66.4033C90.2833 67.4779 89.8155 68.4887 89.0372 69.2324C88.2588 69.9761 87.2278 70.3975 86.1514 70.4119Z" fill="#2F27CE"/>
    <path opacity="0.3" d="M86.1514 70.4119H74.9457C74.427 70.4152 73.9132 70.3123 73.4358 70.1095C72.9585 69.9067 72.5277 69.6084 72.1699 69.2329C71.8122 68.8574 71.5351 68.4126 71.3557 67.926C71.1763 67.4394 71.0984 66.9212 71.1268 66.4033L72.1121 45.6289C72.1747 44.5532 72.6427 43.5413 73.4217 42.7968C74.2008 42.0524 75.233 41.6309 76.3104 41.6173H87.5162C88.0345 41.6136 88.5482 41.7161 89.0254 41.9185C89.5026 42.121 89.9332 42.4191 90.2908 42.7944C90.6483 43.1697 90.9252 43.6143 91.1043 44.1008C91.2833 44.5873 91.3608 45.1053 91.332 45.6228L90.3467 66.4033C90.2833 67.4779 89.8155 68.4887 89.0372 69.2324C88.2588 69.9761 87.2278 70.3975 86.1514 70.4119Z" fill="black"/>
    <path d="M74.9044 37.9453H88.4816C89.0405 37.9477 89.5759 38.1711 89.9708 38.5666C90.3658 38.9621 90.5883 39.4978 90.5899 40.0567C90.5891 40.6159 90.3668 41.152 89.9717 41.5477C89.5766 41.9434 89.0408 42.1665 88.4816 42.1681H74.9044C74.3449 42.1665 73.8088 41.9435 73.4132 41.5479C73.0176 41.1523 72.7946 40.6162 72.793 40.0567C72.7954 39.4975 73.0186 38.9618 73.4141 38.5664C73.8095 38.171 74.3451 37.9477 74.9044 37.9453Z" fill="#2F27CE"/>
    <path d="M76.8518 25.4902C70.025 30.4413 70.2698 35.0925 72.3444 37.2498C74.2539 39.2358 78.4247 40.8637 83.2748 39.0399C87.1702 37.5742 84.2356 31.2614 84.1928 29.5815C84.1499 27.9015 76.8518 25.4902 76.8518 25.4902Z" fill="#263238"/>
    <path d="M74.8183 27.1484C71.5747 28.6448 69.9223 32.8278 69.9376 34.6546C70.9413 31.9006 72.8262 28.8712 75.161 28.0297C74.9897 27.6319 74.8183 27.1484 74.8183 27.1484Z" fill="#263238"/>
    <path d="M73.5676 25.839C73.2279 26.809 75.6362 27.88 77.0315 28.287C78.4269 28.6939 78.5217 26.145 78.5217 26.145C78.5217 26.145 73.895 24.8995 73.5676 25.839Z" fill="#2F27CE"/>
    <path opacity="0.3" d="M73.5676 25.839C73.2279 26.809 75.6362 27.88 77.0315 28.287C78.4269 28.6939 78.5217 26.145 78.5217 26.145C78.5217 26.145 73.895 24.8995 73.5676 25.839Z" fill="black"/>
    <path d="M65.0419 121.3C65.25 121.954 64.9043 124.002 64.332 125.519L67.9704 121.541C67.9704 121.541 67.3522 120.587 65.0419 121.3Z" fill="#2F27CE"/>
    <path d="M83.5675 121.681C83.7787 122.338 84.0479 124.282 83.4727 125.796C86.4041 126.264 86.245 124.266 86.4959 121.925C86.4959 121.925 85.8778 120.971 83.5675 121.681Z" fill="#2F27CE"/>
    <path d="M67.9477 100.166L74.3737 101.47C73.3303 112.131 68.422 124.56 68.422 124.56H65.5977C65.5977 124.56 67.8468 102.106 67.9477 100.166Z" fill="#FF8B7B"/>
    <path d="M65.7113 121.942C66.0899 119.947 66.3139 117.925 66.3814 115.895C66.3631 115.54 65.9561 114.558 67.1617 114.977C68.3674 115.396 71.9078 115.393 71.8741 115.975C71.8405 116.556 71.3907 116.477 71.1306 117.309C70.8705 118.141 69.163 124.007 68.6275 124.959C66.5283 125.782 65.1513 124.558 65.7113 121.942Z" fill="#E6E6E6"/>
    <path opacity="0.2" d="M67.9508 100.166C67.9324 100.5 67.8498 101.445 67.7305 102.776C69.2605 102.969 72.6969 102.651 74.3217 101.889C74.337 101.748 74.3523 101.61 74.3646 101.47L67.9508 100.166Z" fill="black"/>
    <path d="M83.3242 101.158L90.0776 101.571C91.1211 112.232 87.6908 124.561 87.6908 124.561H84.8665C84.8665 124.561 84.8665 110.978 83.3242 101.158Z" fill="#FF8B7B"/>
    <path d="M84.6523 122.556C84.7233 120.525 84.6363 118.492 84.3922 116.475C84.3218 116.13 83.7802 115.221 85.0256 115.456C86.271 115.692 89.7625 115.15 89.8329 115.71C89.9032 116.27 89.432 116.28 89.3035 117.143C89.175 118.005 88.3855 124.061 87.9969 125.099C86.0476 126.225 84.4993 125.224 84.6523 122.556Z" fill="#E6E6E6"/>
    <path opacity="0.2" d="M90.0776 101.571L83.3242 101.158C83.465 102.046 83.5935 102.964 83.7067 103.912C85.9105 103.756 88.0816 103.292 90.1572 102.535C90.1358 102.205 90.1082 101.899 90.0776 101.571Z" fill="black"/>
    <path d="M83.2695 126.161C84.7995 125.044 83.9091 121.758 83.9091 121.758C84.7668 121.559 85.6598 121.568 86.5131 121.785C87.4128 123.624 86.1949 126.7 83.2695 126.161Z" fill="#2F27CE"/>
    <path opacity="0.2" d="M83.2695 126.161C84.7995 125.044 83.9091 121.758 83.9091 121.758C84.7668 121.559 85.6598 121.568 86.5131 121.785C87.4128 123.624 86.1949 126.7 83.2695 126.161Z" fill="black"/>
    <path d="M88.5092 126.859H80.7368C79.4394 126.859 80.7123 124.717 83.2674 125.467C85.8225 126.217 86.257 123.594 85.7736 121.553C88.0533 121.015 89.1396 121.804 89.1396 121.804C88.6163 123.726 88.2766 125.513 88.5092 126.859Z" fill="#2F27CE"/>
    <path d="M88.3634 126.605H80.4717C80.3449 126.605 80.2422 126.708 80.2422 126.835V127.193C80.2422 127.32 80.3449 127.422 80.4717 127.422H88.3634C88.4902 127.422 88.5929 127.32 88.5929 127.193V126.835C88.5929 126.708 88.4902 126.605 88.3634 126.605Z" fill="#2F27CE"/>
    <path opacity="0.5" d="M88.3634 126.605H80.4717C80.3449 126.605 80.2422 126.708 80.2422 126.835V127.193C80.2422 127.32 80.3449 127.422 80.4717 127.422H88.3634C88.4902 127.422 88.5929 127.32 88.5929 127.193V126.835C88.5929 126.708 88.4902 126.605 88.3634 126.605Z" fill="white"/>
    <path d="M63.8164 125.653C65.4841 124.695 65.4841 121.421 65.4841 121.421C65.4841 121.421 66.0961 121.115 67.6261 121.626C68.336 123.557 66.7662 126.482 63.8164 125.653Z" fill="#2F27CE"/>
    <path opacity="0.2" d="M63.8164 125.653C65.4841 124.695 65.4841 121.421 65.4841 121.421C65.4841 121.421 66.0961 121.115 67.6261 121.626C68.336 123.557 66.7662 126.482 63.8164 125.653Z" fill="black"/>
    <path d="M69.1247 126.874L61.1443 126.091C59.8101 125.959 61.3432 123.949 63.8983 124.962C66.4534 125.975 67.6131 123.432 67.3285 121.363C69.7245 121.057 70.3028 121.908 70.3028 121.908C69.5593 123.768 69.0268 125.513 69.1247 126.874Z" fill="#2F27CE"/>
    <path d="M68.9158 127.425L60.8098 126.626C60.7787 126.625 60.7482 126.617 60.72 126.604C60.6918 126.591 60.6666 126.572 60.6457 126.549C60.6249 126.526 60.6089 126.499 60.5988 126.47C60.5886 126.44 60.5844 126.409 60.5865 126.378L60.6262 126.017C60.6331 125.956 60.6641 125.9 60.7123 125.861C60.7605 125.823 60.822 125.805 60.8833 125.812L68.9892 126.611C69.0498 126.616 69.1059 126.645 69.1454 126.691C69.1849 126.738 69.2046 126.798 69.2003 126.859L69.1606 127.22C69.1536 127.279 69.1244 127.333 69.0789 127.371C69.0334 127.409 68.975 127.428 68.9158 127.425Z" fill="#2F27CE"/>
    <path opacity="0.5" d="M68.9158 127.425L60.8098 126.626C60.7787 126.625 60.7482 126.617 60.72 126.604C60.6918 126.591 60.6666 126.572 60.6457 126.549C60.6249 126.526 60.6089 126.499 60.5988 126.47C60.5886 126.44 60.5844 126.409 60.5865 126.378L60.6262 126.017C60.6331 125.956 60.6641 125.9 60.7123 125.861C60.7605 125.823 60.822 125.805 60.8833 125.812L68.9892 126.611C69.0498 126.616 69.1059 126.645 69.1454 126.691C69.1849 126.738 69.2046 126.798 69.2003 126.859L69.1606 127.22C69.1536 127.279 69.1244 127.333 69.0789 127.371C69.0334 127.409 68.975 127.428 68.9158 127.425Z" fill="white"/>
    <path d="M78.2234 80.576C77.3513 83.4371 76.2589 86.5828 74.8819 89.9764C75.1186 93.9257 74.9834 97.8885 74.478 101.812C72.4155 102.556 67.2105 102.118 66.9688 101.485C67.2747 97.3204 67.5808 93.1924 67.85 89.9764C67.6542 78.9604 70.448 61.5918 70.448 61.5918H81.5588C81.5588 61.5918 81.8373 68.6604 78.2234 80.576Z" fill="#2F27CE"/>
    <path opacity="0.2" d="M79.5829 75.6098C79.0321 77.8712 78.3222 80.3804 77.4195 83.1068C77.1533 77.5988 75.6692 70.2548 75.6172 70.0039L79.5829 75.6098Z" fill="black"/>
    <path d="M90.2671 102.555C87.0082 103.241 82.5681 102.962 82.3111 102.265C82.1703 98.3358 81.3319 94.4281 80.5791 90.8082C79.9916 87.9991 79.1471 84.3454 78.2413 80.5755C76.0412 71.4231 73.4922 61.6035 73.4922 61.6035H83.2842C83.2842 61.6035 89.5939 67.3196 87.5927 91.2549C89.3491 94.3669 90.0468 98.449 90.2671 102.555Z" fill="#2F27CE"/>
    <path d="M74.7305 45.6986C74.6631 45.9649 74.6081 46.1607 74.5469 46.3871C74.4857 46.6136 74.4214 46.8155 74.3541 47.0267C74.2225 47.449 74.0818 47.8682 73.9288 48.2813C73.6228 49.1105 73.2984 49.9184 72.9434 50.7293C72.219 52.3465 71.3677 53.9038 70.3975 55.3866C70.1435 55.7569 69.8895 56.1241 69.6233 56.4851L69.2102 57.0206C69.0405 57.2569 68.8555 57.4817 68.6564 57.6938C68.3353 58.0266 67.9556 58.2973 67.5364 58.4925C67.1139 58.6776 66.6602 58.7814 66.1992 58.7985C65.4882 58.8246 64.7814 58.6776 64.1398 58.3701C63.2213 57.92 62.392 57.3073 61.6918 56.5616C61.366 56.2349 61.0595 55.8896 60.7738 55.5274C60.4877 55.1679 60.223 54.7919 59.9813 54.4013C59.8385 54.1744 59.7776 53.9056 59.8087 53.6393C59.8398 53.3731 59.9609 53.1255 60.152 52.9376C60.3431 52.7497 60.5928 52.6328 60.8595 52.6062C61.1262 52.5797 61.394 52.6451 61.6184 52.7917L61.7071 52.8499L62.6741 53.4833C63.0015 53.6914 63.3258 53.8933 63.6502 54.0739C64.2078 54.4148 64.8132 54.6706 65.4464 54.8327C65.6821 54.8725 65.8565 54.8511 65.8228 54.8083C65.7755 54.7901 65.7232 54.7901 65.6759 54.8083C65.6086 54.8236 65.5566 54.8542 65.5382 54.8542C65.474 54.9154 65.6362 54.6767 65.728 54.5298L66.034 54.0494L66.6153 53.061C67.3676 51.706 68.0379 50.3071 68.6227 48.8719C68.9185 48.1497 69.198 47.4214 69.4612 46.687C69.5897 46.3168 69.7182 45.9496 69.8406 45.5824L70.0181 45.0346L70.1772 44.5267L70.2047 44.4379C70.3913 43.862 70.7935 43.3806 71.327 43.0946C71.8605 42.8085 72.484 42.74 73.067 42.9033C73.6499 43.0667 74.147 43.4492 74.4543 43.9708C74.7615 44.4924 74.855 45.1127 74.7152 45.7017L74.7305 45.6986Z" fill="#FF8B7B"/>
    <path d="M72.5432 41.6172C70.1502 42.2965 69.0456 44.4813 67.0352 49.0163C67.739 50.5769 71.6619 51.7703 71.6619 51.7703C71.6619 51.7703 76.8455 44.4018 72.5432 41.6172Z" fill="#263238"/>
    <path d="M69.2573 45.6901C69.1849 47.5916 69.2145 49.4957 69.3461 51.394C69.4471 53.8695 70.6741 57.6058 70.6527 61.6848C71.9226 62.6028 79.1105 62.413 83.5047 61.8469C83.2385 58.3341 83.4374 52.8536 85.8181 44.9527C86.3689 43.1167 85.1387 41.3603 83.1742 41.1736C82.651 41.1246 82.094 41.0818 81.5218 41.0543C79.5177 40.9194 77.5069 40.9194 75.5028 41.0543C74.851 41.1093 74.1717 41.1858 73.523 41.2715C71.176 41.5806 69.3308 43.4961 69.2573 45.6901Z" fill="#263238"/>
    <path d="M79.2243 46.6986C77.2567 47.4483 73.6582 47.3412 71.1367 46.4141V47.0444C75.179 49.012 79.2243 47.3963 79.2243 47.3963C79.2243 47.3963 79.9465 47.3229 79.2243 46.6986Z" fill="#2F27CE"/>
    <path d="M73.0963 46.5928C72.7597 46.6876 72.5088 48.0004 73.133 48.187C73.7573 48.3737 75.5259 48.6674 76.5939 48.3217C77.1783 48.135 77.2395 46.9569 76.7499 46.7917C75.8319 46.4336 73.6991 46.4275 73.0963 46.5928Z" fill="#2F27CE"/>
    <path d="M81.0889 34.2734C80.5657 36.2104 79.9231 39.757 81.1807 41.0513C81.1807 41.0513 80.3729 43.1199 75.7707 42.8414C72.4047 42.6364 75.1587 41.0513 75.1587 41.0513C77.3557 40.5342 77.42 38.9338 77.1568 37.4283L81.0889 34.2734Z" fill="#FF8B7B"/>
    <path opacity="0.2" d="M79.4897 35.5723L77.1641 37.4358C77.2302 37.789 77.265 38.1474 77.2681 38.5068C78.1035 38.3875 79.303 37.4817 79.456 36.6157C79.5294 36.2727 79.5408 35.9193 79.4897 35.5723Z" fill="black"/>
    <path d="M82.7425 30.399C82.155 33.5263 81.9745 34.8574 80.1905 36.3568C77.5069 38.612 73.8196 37.4217 73.4585 34.2331C73.1525 31.3629 74.1562 26.7331 77.3753 25.7019C80.5944 24.6706 83.3301 27.2747 82.7425 30.399Z" fill="#FF8B7B"/>
    <path d="M80.3771 29.0123C79.3948 30.3128 79.8385 32.2651 81.8428 32.4395C83.8471 32.6139 84.095 30.1812 83.7768 29.3091C83.4585 28.437 80.3771 29.0123 80.3771 29.0123Z" fill="#263238"/>
    <path d="M77.166 25.5304C74.6018 26.6442 76.0338 27.6448 76.7866 28.0488C76.8249 27.7555 76.9075 27.4697 77.0314 27.2011C77.0314 27.2011 78.4574 29.4288 80.8778 29.6767C83.9378 29.9827 83.5064 28.8841 83.5064 28.8841C83.5064 28.8841 81.8999 24.2084 77.166 25.5304Z" fill="#263238"/>
    <path d="M77.4173 25.332C75.9974 25.5065 73.7453 26.0358 73.5586 27.5995C74.2624 27.2048 76.0066 27.0854 76.0066 27.0854L77.4173 25.332Z" fill="#263238"/>
    <path d="M81.8702 30.8828C81.0746 31.3173 79.8751 32.1497 80.1229 33.1136C80.4473 32.7188 81.4357 32.2445 81.4357 32.2445L81.8702 30.8828Z" fill="#263238"/>
    <path d="M77.7943 30.9223C77.7545 31.1854 77.5893 31.3905 77.4179 31.3782C77.2466 31.366 77.1425 31.1395 77.1792 30.8764C77.216 30.6132 77.3873 30.4082 77.5556 30.4204C77.7239 30.4327 77.831 30.6561 77.7943 30.9223Z" fill="#263238"/>
    <path d="M74.5967 30.7328C74.56 30.996 74.3917 31.201 74.2234 31.1888C74.0551 31.1765 73.9449 30.9532 73.9847 30.6869C74.0245 30.4207 74.1897 30.2188 74.3611 30.231C74.5324 30.2432 74.6365 30.4697 74.5967 30.7328Z" fill="#263238"/>
    <path d="M74.4335 30.251L73.8398 30.0215C73.8398 30.0215 74.0877 30.5417 74.4335 30.251Z" fill="#263238"/>
    <path d="M75.4237 31.2305C75.1059 31.8186 74.714 32.3636 74.2578 32.8523C74.5638 33.2011 75.1575 33.0971 75.1575 33.0971L75.4237 31.2305Z" fill="#FF5652"/>
    <path d="M76.4982 34.1839C76.3516 34.1978 76.2041 34.1978 76.0575 34.1839C76.0477 34.1832 76.0381 34.1804 76.0294 34.1758C76.0207 34.1711 76.0131 34.1647 76.007 34.1569C76.0009 34.1491 75.9966 34.1401 75.9942 34.1306C75.9919 34.121 75.9916 34.111 75.9933 34.1013C75.9956 34.0805 76.0057 34.0613 76.0216 34.0477C76.0375 34.034 76.058 34.0269 76.079 34.0278C76.4109 34.0545 76.7445 34.0058 77.055 33.8855C77.3654 33.7653 77.6448 33.5765 77.8721 33.3332C77.8868 33.3199 77.9059 33.3125 77.9257 33.3125C77.9455 33.3125 77.9646 33.3199 77.9792 33.3332C77.9866 33.3404 77.9925 33.3489 77.9965 33.3584C78.0006 33.3678 78.0026 33.378 78.0026 33.3883C78.0026 33.3986 78.0006 33.4088 77.9965 33.4182C77.9925 33.4277 77.9866 33.4362 77.9792 33.4434C77.5933 33.8638 77.0661 34.1274 76.4982 34.1839Z" fill="#263238"/>
    <path d="M83.0347 33.21C82.8849 33.4745 82.6815 33.7047 82.4375 33.886C82.1936 34.0672 81.9144 34.1955 81.618 34.2626C80.8774 34.3973 80.6296 33.5405 80.9386 32.7326C81.214 32.0043 81.9331 31.0527 82.6278 31.2914C83.3224 31.53 83.4601 32.5092 83.0347 33.21Z" fill="#FF8B7B"/>
    <path d="M78.6223 29.5776C78.602 29.5754 78.5825 29.5687 78.5651 29.5581C78.5476 29.5476 78.5327 29.5333 78.5213 29.5164C78.4207 29.3562 78.282 29.2235 78.1175 29.13C77.953 29.0366 77.7679 28.9853 77.5788 28.9809C77.5589 28.9822 77.539 28.9793 77.5202 28.9725C77.5015 28.9656 77.4844 28.955 77.47 28.9412C77.4556 28.9273 77.4443 28.9107 77.4366 28.8923C77.429 28.8738 77.4254 28.854 77.4258 28.8341C77.428 28.7918 77.4458 28.7518 77.4758 28.7218C77.5057 28.6919 77.5457 28.6741 77.588 28.6719C77.8271 28.6736 78.0619 28.7354 78.2709 28.8514C78.4799 28.9674 78.6565 29.134 78.7845 29.3359C78.7996 29.3622 78.8071 29.3921 78.8061 29.4224C78.805 29.4527 78.7955 29.4821 78.7786 29.5073C78.7618 29.5324 78.7382 29.5524 78.7105 29.5648C78.6829 29.5772 78.6523 29.5817 78.6223 29.5776Z" fill="#263238"/>
    <path d="M73.9922 28.6763C73.9728 28.6778 73.9533 28.6753 73.9349 28.669C73.9165 28.6627 73.8995 28.6527 73.8851 28.6396C73.8708 28.6254 73.8594 28.6085 73.8516 28.5898C73.8438 28.5712 73.8398 28.5512 73.8398 28.531C73.8398 28.5108 73.8438 28.4908 73.8516 28.4722C73.8594 28.4535 73.8708 28.4366 73.8851 28.4224C74.047 28.2329 74.2499 28.0827 74.4784 27.983C74.7068 27.8834 74.9549 27.8369 75.204 27.8471C75.2236 27.8496 75.2424 27.8562 75.2594 27.8663C75.2763 27.8765 75.291 27.89 75.3025 27.9061C75.314 27.9222 75.322 27.9405 75.3261 27.9598C75.3302 27.9791 75.3303 27.9991 75.3264 28.0184C75.3189 28.0598 75.2962 28.0968 75.2628 28.1223C75.2294 28.1478 75.1877 28.1599 75.1458 28.1561C74.9475 28.1513 74.7507 28.1918 74.5704 28.2745C74.3901 28.3572 74.2311 28.48 74.1054 28.6335C74.0739 28.6606 74.0338 28.6758 73.9922 28.6763Z" fill="#263238"/>
    <path d="M77.6279 30.4385L77.0312 30.209C77.0312 30.209 77.2791 30.7292 77.6279 30.4385Z" fill="#263238"/>
    <path d="M59.3125 50.2632L60.2887 50.4131C60.4694 50.4398 60.6412 50.5093 60.7897 50.6157C60.9382 50.7222 61.0591 50.8625 61.1424 51.0251L61.9258 52.5735C62.0835 52.878 62.1659 53.2159 62.1659 53.5588C62.1659 53.9017 62.0835 54.2396 61.9258 54.5441L61.7269 54.9236C60.0867 54.7889 58.416 53.4333 58.416 53.4333L57.8988 53.1029C57.7914 53.0363 57.6981 52.9491 57.6245 52.8464C57.5509 52.7436 57.4983 52.6273 57.4699 52.5041C57.4414 52.3809 57.4376 52.2533 57.4588 52.1287C57.4799 52.0041 57.5254 51.8848 57.5928 51.7779L58.2385 50.7406C58.3544 50.568 58.5168 50.4316 58.7068 50.3472C58.8968 50.2627 59.1067 50.2336 59.3125 50.2632Z" fill="#FF8B7B"/>
    <path d="M70.4242 62.5382C74.8473 63.0248 79.311 63.0155 83.7321 62.5107C83.7777 62.5028 83.821 62.4848 83.8586 62.4579C83.8962 62.4309 83.9272 62.3958 83.9493 62.3552C83.9714 62.3145 83.984 62.2694 83.9861 62.2232C83.9882 62.177 83.9799 62.1309 83.9616 62.0884C83.8545 61.8344 83.7444 61.5774 83.6403 61.3234C83.6185 61.2663 83.5785 61.2181 83.5265 61.186C83.4745 61.1539 83.4135 61.1398 83.3527 61.1459C79.1009 61.6141 74.8106 61.6141 70.5588 61.1459C70.483 61.1409 70.4083 61.166 70.3509 61.2159C70.2936 61.2658 70.2583 61.3363 70.2528 61.4121C70.2284 61.6783 70.2008 61.9415 70.1733 62.2077C70.1659 62.2843 70.1877 62.3608 70.2342 62.422C70.2807 62.4832 70.3485 62.5247 70.4242 62.5382Z" fill="#263238"/>
    <path d="M70.4319 59.1813C74.8318 59.6725 79.2727 59.6725 83.6725 59.1813C83.8653 59.1599 83.9418 58.9487 83.8225 58.7651C83.6633 58.5142 83.9326 58.2082 83.7766 57.9542C83.7431 57.8987 83.6954 57.8532 83.6383 57.8225C83.5812 57.7919 83.517 57.7771 83.4522 57.7798C79.0784 58.2422 74.668 58.2422 70.2942 57.7798C70.2586 57.7745 70.2222 57.7778 70.188 57.7892C70.1538 57.8006 70.1229 57.8199 70.0975 57.8455C70.0722 57.8711 70.0533 57.9024 70.0422 57.9367C70.0312 57.971 70.0284 58.0074 70.0341 58.043L70.1076 58.8263C70.1117 58.914 70.1464 58.9975 70.2057 59.0623C70.2649 59.1272 70.3449 59.1692 70.4319 59.1813Z" fill="#2F27CE"/>
    <path d="M73.5452 64.2599H73.3861C73.2927 64.2557 73.201 64.2327 73.1167 64.1922C73.0323 64.1517 72.957 64.0946 72.8953 64.0243C72.8336 63.954 72.7867 63.872 72.7575 63.7831C72.7282 63.6942 72.7172 63.6004 72.7252 63.5071C72.664 61.9465 75.1211 58.5102 76.847 58.2011C76.8644 58.1972 76.8827 58.1994 76.8988 58.2071C76.9149 58.2149 76.9279 58.2279 76.9357 58.2439C76.9459 58.2577 76.9514 58.2743 76.9514 58.2914C76.9514 58.3085 76.9459 58.3251 76.9357 58.3388C75.8861 59.4496 75.4883 60.8694 75.1701 62.0108C74.806 63.247 74.5244 64.2599 73.5452 64.2599ZM76.6052 58.4275C74.9926 58.9998 72.8323 62.0995 72.8843 63.4918C72.8762 63.5651 72.8834 63.6393 72.9053 63.7097C72.9273 63.78 72.9635 63.8451 73.0118 63.9009C73.06 63.9566 73.1193 64.0017 73.1858 64.0335C73.2523 64.0653 73.3247 64.083 73.3984 64.0855C74.3623 64.1834 74.6224 63.2501 74.9896 61.9435C75.3017 60.8572 75.675 59.52 76.6114 58.4184L76.6052 58.4275Z" fill="white"/>
    <path d="M97.7394 124.561L96.9928 124.785L78.5195 64.7688L79.9057 64.3496L97.7394 124.561Z" fill="#2F27CE"/>
    <path opacity="0.7" d="M97.7394 124.561L96.9928 124.785L78.5195 64.7688L79.9057 64.3496L97.7394 124.561Z" fill="white"/>
    <path d="M78.4789 58.1858L78.43 58.0297C78.4174 57.9881 78.3967 57.9494 78.3691 57.9157C78.3415 57.8821 78.3075 57.8543 78.2692 57.8338C78.2308 57.8133 78.1887 57.8006 78.1454 57.7965C78.1021 57.7923 78.0585 57.7967 78.0169 57.8094L76.4869 58.2745C76.4027 58.3 76.332 58.3577 76.2901 58.4351C76.2483 58.5125 76.2387 58.6032 76.2635 58.6876L76.3124 58.8437C76.325 58.8853 76.3457 58.9241 76.3733 58.9577C76.4009 58.9913 76.4349 59.0191 76.4733 59.0396C76.5116 59.0601 76.5537 59.0728 76.597 59.077C76.6403 59.0811 76.684 59.0767 76.7255 59.064L76.7837 59.0487C76.7823 59.0547 76.7823 59.061 76.7837 59.0671L78.433 64.52L78.3779 64.5383C78.2943 64.5645 78.2244 64.6225 78.1831 64.6997C78.1419 64.777 78.1327 64.8675 78.1576 64.9514L78.2035 65.1075C78.2297 65.1911 78.2876 65.2611 78.3649 65.3023C78.4422 65.3436 78.5326 65.3527 78.6166 65.3278L80.1466 64.8627C80.1883 64.8501 80.227 64.8294 80.2606 64.8018C80.2942 64.7742 80.3221 64.7403 80.3425 64.7019C80.363 64.6635 80.3757 64.6215 80.3799 64.5782C80.3841 64.5349 80.3797 64.4912 80.367 64.4496L80.321 64.2935C80.2955 64.2094 80.2378 64.1387 80.1605 64.0968C80.0831 64.055 79.9923 64.0454 79.9079 64.0702L79.8437 64.0916L78.1913 58.6356C78.19 58.6296 78.19 58.6233 78.1913 58.6172L78.2555 58.5989C78.3397 58.5734 78.4104 58.5157 78.4523 58.4383C78.4941 58.3609 78.5037 58.2702 78.4789 58.1858Z" fill="#2F27CE"/>
    <path opacity="0.3" d="M78.4789 58.1858L78.43 58.0297C78.4174 57.9881 78.3967 57.9494 78.3691 57.9157C78.3415 57.8821 78.3075 57.8543 78.2692 57.8338C78.2308 57.8133 78.1887 57.8006 78.1454 57.7965C78.1021 57.7923 78.0585 57.7967 78.0169 57.8094L76.4869 58.2745C76.4027 58.3 76.332 58.3577 76.2901 58.4351C76.2483 58.5125 76.2387 58.6032 76.2635 58.6876L76.3124 58.8437C76.325 58.8853 76.3457 58.9241 76.3733 58.9577C76.4009 58.9913 76.4349 59.0191 76.4733 59.0396C76.5116 59.0601 76.5537 59.0728 76.597 59.077C76.6403 59.0811 76.684 59.0767 76.7255 59.064L76.7837 59.0487C76.7823 59.0547 76.7823 59.061 76.7837 59.0671L78.433 64.52L78.3779 64.5383C78.2943 64.5645 78.2244 64.6225 78.1831 64.6997C78.1419 64.777 78.1327 64.8675 78.1576 64.9514L78.2035 65.1075C78.2297 65.1911 78.2876 65.2611 78.3649 65.3023C78.4422 65.3436 78.5326 65.3527 78.6166 65.3278L80.1466 64.8627C80.1883 64.8501 80.227 64.8294 80.2606 64.8018C80.2942 64.7742 80.3221 64.7403 80.3425 64.7019C80.363 64.6635 80.3757 64.6215 80.3799 64.5782C80.3841 64.5349 80.3797 64.4912 80.367 64.4496L80.321 64.2935C80.2955 64.2094 80.2378 64.1387 80.1605 64.0968C80.0831 64.055 79.9923 64.0454 79.9079 64.0702L79.8437 64.0916L78.1913 58.6356C78.19 58.6296 78.19 58.6233 78.1913 58.6172L78.2555 58.5989C78.3397 58.5734 78.4104 58.5157 78.4523 58.4383C78.4941 58.3609 78.5037 58.2702 78.4789 58.1858Z" fill="black"/>
    <path d="M55.0327 53.5132C54.8346 53.5098 54.6403 53.4583 54.4666 53.3633C54.381 53.3249 54.3041 53.2696 54.2404 53.2008C54.1767 53.1319 54.1275 53.051 54.0958 52.9627C54.0641 52.8744 54.0505 52.7807 54.0558 52.6871C54.0612 52.5934 54.0853 52.5018 54.1269 52.4178C54.641 50.9428 58.1845 48.6448 59.9042 48.9875C59.9214 48.9906 59.9372 48.9991 59.9493 49.0117C59.9614 49.0244 59.9692 49.0405 59.9715 49.0579C59.9732 49.0755 59.9694 49.0931 59.9606 49.1085C59.9518 49.1238 59.9385 49.1361 59.9225 49.1436C58.5425 49.7923 57.652 50.9796 56.939 51.9129C56.2781 52.785 55.7303 53.5132 55.0327 53.5132ZM59.5309 49.1191C57.8081 49.1191 54.7389 51.1723 54.286 52.4851C54.2511 52.55 54.2301 52.6214 54.2242 52.6948C54.2184 52.7683 54.2278 52.8422 54.252 52.9118C54.2762 52.9814 54.3145 53.0452 54.3646 53.0992C54.4147 53.1532 54.4755 53.1963 54.5431 53.2256C55.409 53.6724 55.9935 52.8982 56.8044 51.8241C57.4868 50.9245 58.3344 49.8168 59.5982 49.1313L59.5309 49.1191Z" fill="#E0E0E0"/>
    <path d="M55.0936 118.406L54.3164 118.345L59.0563 55.7285L60.4976 55.8448L55.0936 118.406Z" fill="#2F27CE"/>
    <path opacity="0.7" d="M55.0936 118.406L54.3164 118.345L59.0563 55.7285L60.4976 55.8448L55.0936 118.406Z" fill="white"/>
    <path d="M61.417 49.5716L61.4323 49.4094C61.4383 49.3216 61.4096 49.2349 61.3524 49.168C61.2952 49.101 61.214 49.0592 61.1263 49.0514L59.5229 48.9229C59.4349 48.9161 59.3477 48.9445 59.2806 49.0019C59.2135 49.0592 59.1719 49.1409 59.1649 49.2289V49.3941C59.1615 49.4375 59.1668 49.4812 59.1804 49.5225C59.194 49.5639 59.2156 49.6022 59.2441 49.6352C59.2725 49.6682 59.3072 49.6952 59.3461 49.7148C59.385 49.7343 59.4274 49.746 59.4709 49.7491H59.5321C59.5321 49.7491 59.5321 49.7491 59.5321 49.7674L59.0547 55.4621H58.9966C58.9531 55.4587 58.9095 55.464 58.8681 55.4776C58.8267 55.4912 58.7885 55.5128 58.7555 55.5413C58.7225 55.5697 58.6954 55.6044 58.6759 55.6433C58.6564 55.6822 58.6447 55.7246 58.6416 55.7681V55.9303C58.6348 56.0183 58.6633 56.1054 58.7206 56.1725C58.778 56.2396 58.8596 56.2812 58.9476 56.2883L60.551 56.4168C60.6391 56.4236 60.7262 56.3951 60.7933 56.3378C60.8604 56.2804 60.902 56.1988 60.9091 56.1108V55.9486C60.9158 55.8606 60.8874 55.7735 60.8301 55.7064C60.7727 55.6393 60.6911 55.5976 60.6031 55.5906H60.5357L60.9917 49.9112V49.8776H61.0621C61.1055 49.8809 61.1491 49.8756 61.1905 49.862C61.2319 49.8484 61.2702 49.8268 61.3032 49.7984C61.3362 49.7699 61.3632 49.7353 61.3827 49.6963C61.4023 49.6574 61.4139 49.615 61.417 49.5716Z" fill="#2F27CE"/>
    <path opacity="0.3" d="M61.417 49.5716L61.4323 49.4094C61.4383 49.3216 61.4096 49.2349 61.3524 49.168C61.2952 49.101 61.214 49.0592 61.1263 49.0514L59.5229 48.9229C59.4349 48.9161 59.3477 48.9445 59.2806 49.0019C59.2135 49.0592 59.1719 49.1409 59.1649 49.2289V49.3941C59.1615 49.4375 59.1668 49.4812 59.1804 49.5225C59.194 49.5639 59.2156 49.6022 59.2441 49.6352C59.2725 49.6682 59.3072 49.6952 59.3461 49.7148C59.385 49.7343 59.4274 49.746 59.4709 49.7491H59.5321C59.5321 49.7491 59.5321 49.7491 59.5321 49.7674L59.0547 55.4621H58.9966C58.9531 55.4587 58.9095 55.464 58.8681 55.4776C58.8267 55.4912 58.7885 55.5128 58.7555 55.5413C58.7225 55.5697 58.6954 55.6044 58.6759 55.6433C58.6564 55.6822 58.6447 55.7246 58.6416 55.7681V55.9303C58.6348 56.0183 58.6633 56.1054 58.7206 56.1725C58.778 56.2396 58.8596 56.2812 58.9476 56.2883L60.551 56.4168C60.6391 56.4236 60.7262 56.3951 60.7933 56.3378C60.8604 56.2804 60.902 56.1988 60.9091 56.1108V55.9486C60.9158 55.8606 60.8874 55.7735 60.8301 55.7064C60.7727 55.6393 60.6911 55.5976 60.6031 55.5906H60.5357L60.9917 49.9112V49.8776H61.0621C61.1055 49.8809 61.1491 49.8756 61.1905 49.862C61.2319 49.8484 61.2702 49.8268 61.3032 49.7984C61.3362 49.7699 61.3632 49.7353 61.3827 49.6963C61.4023 49.6574 61.4139 49.615 61.417 49.5716Z" fill="black"/>
    <path d="M62.1581 53.305C62.3172 52.133 61.3656 51.163 61.1605 50.2205C61.1238 50.0644 60.8851 50.0553 60.7842 50.1777C60.5883 50.4133 60.7321 51.1538 60.827 51.3588C60.9647 51.6434 59.5602 52.8031 61.338 53.8772C61.6638 53.7756 61.9503 53.5757 62.1581 53.305Z" fill="#FF8B7B"/>
    <path d="M76.6395 60.7238L77.2117 59.919C77.3182 59.7699 77.4586 59.6482 77.6215 59.5641C77.7843 59.48 77.9648 59.436 78.1481 59.4355H79.8861C80.2288 59.435 80.5666 59.5167 80.8712 59.6738C81.1758 59.8309 81.4382 60.0587 81.6365 60.3382L81.8843 60.6902C81.0245 62.0886 79.063 62.9699 79.063 62.9699L78.5336 63.2759C78.4268 63.3437 78.3076 63.3896 78.1828 63.4109C78.0581 63.4322 77.9304 63.4285 77.8071 63.4001C77.6838 63.3716 77.5674 63.3189 77.4647 63.245C77.362 63.1712 77.2749 63.0776 77.2086 62.9699L76.5722 61.9264C76.4658 61.7409 76.4156 61.5286 76.4275 61.3151C76.4395 61.1017 76.5131 60.8962 76.6395 60.7238Z" fill="#FF8B7B"/>
    <path d="M87.0842 44.6003C87.2005 44.8574 87.2831 45.041 87.3719 45.2552C87.4606 45.4694 87.5371 45.6683 87.6167 45.8672C87.7758 46.2803 87.9227 46.6965 88.0451 47.1126C88.3071 47.9491 88.5247 48.799 88.6968 49.6585C88.7856 50.0869 88.859 50.5245 88.9294 50.959C88.9998 51.3935 89.0457 51.8372 89.0763 52.284C89.1581 53.1812 89.1785 54.0829 89.1375 54.9829V55.1298C89.1346 55.2331 89.1203 55.3357 89.0946 55.4358C88.9382 56.0381 88.6647 56.6037 88.2899 57.1005C87.9979 57.4866 87.6689 57.8432 87.3076 58.1653C86.9895 58.4542 86.6522 58.721 86.2978 58.964C85.9581 59.1996 85.6215 59.4199 85.2758 59.6158C84.6034 60.0028 83.9074 60.3472 83.1919 60.647C82.4858 60.948 81.7611 61.2035 81.0224 61.412C80.7588 61.4876 80.4772 61.4686 80.2262 61.3584C79.9751 61.2482 79.7705 61.0537 79.6478 60.8086C79.5251 60.5635 79.4919 60.2831 79.554 60.0161C79.6162 59.7491 79.7697 59.5122 79.9881 59.3465L80.0401 59.3098C80.5695 58.8997 81.1448 58.4744 81.6772 58.049C82.2096 57.6237 82.7421 57.1922 83.2072 56.7485C83.6671 56.3457 84.092 55.9045 84.4771 55.4297C84.6274 55.2451 84.7576 55.0451 84.8657 54.833C84.9483 54.6616 84.9698 54.527 84.9422 54.5423L84.8963 54.989C84.8351 54.2761 84.7617 53.5661 84.6301 52.847C84.4985 52.1279 84.3486 51.4119 84.1619 50.705C83.9753 49.9982 83.7702 49.276 83.5346 48.563C83.4183 48.2081 83.2929 47.8593 83.1705 47.5135L82.9808 46.9994L82.8033 46.5343L82.7574 46.4149C82.5478 45.8485 82.5651 45.223 82.8055 44.6689C83.0458 44.1148 83.4908 43.6749 84.0476 43.4409C84.6044 43.2069 85.2301 43.1968 85.7941 43.4129C86.3581 43.6289 86.817 44.0543 87.075 44.6003H87.0842Z" fill="#FF8B7B"/>
    <path d="M83.2901 41.2031C85.4474 41.5367 86.3103 42.1915 88.0729 46.5275C87.2742 48.1432 83.5288 49.6916 83.5288 49.6916C83.5288 49.6916 81.0471 44.0642 83.2901 41.2031Z" fill="#263238"/>
    <path d="M81.2839 40.7941C79.9957 40.9348 78.4565 44.9312 78.8359 48.9214C79.2154 52.9117 83.1566 55.3015 83.7656 54.561C83.8515 54.2882 83.8878 54.0021 83.8727 53.7164C83.3984 53.5481 81.593 52.2415 81.3329 49.4967C81.0728 46.7519 83.9339 41.6019 83.7656 41.2041C83.5973 40.8063 82.055 40.6992 81.2839 40.7941Z" fill="#2F27CE"/>
    <path d="M74.9498 40.9531C73.4749 41.0174 72.5569 41.1979 72.2233 41.6233C71.8898 42.0486 68.3065 46.1704 69.2184 52.2598C69.3072 52.8473 69.5642 54.4232 69.7784 54.4844C70.0844 54.5671 69.5673 50.9716 71.5532 46.6998C73.5391 42.428 75.3813 41.1551 74.9498 40.9531Z" fill="#2F27CE"/>
    <path d="M75.793 25.4903C78.5867 26.191 82.219 28.4218 84.361 30.5026C84.7618 29.3949 85.0678 26.6225 82.3536 25.0252C81.349 24.4062 80.1754 24.1182 78.9984 24.2016C77.8214 24.2851 76.7002 24.7358 75.793 25.4903Z" fill="#2F27CE"/>
    <path d="M82.2507 28.7452C79.5824 28.6045 79.105 27.5579 78.1166 26.6644C77.4891 26.1548 76.743 25.8118 75.9475 25.6674C75.1521 25.5229 74.3331 25.5817 73.5664 25.8382C73.6766 25.1344 77.7402 24.2134 82.2507 28.7452Z" fill="#2F27CE"/>
</svg>
