<svg width="153" height="153" viewBox="0 0 153 153" fill="none" xmlns="http://www.w3.org/2000/svg">
    <path d="M23.5825 136.357C23.8487 135.304 23.1541 134.251 22.3768 133.492C21.5996 132.734 20.6693 132.057 20.2624 131.044C19.6014 129.413 20.4643 127.29 19.3444 125.934C18.6865 125.136 17.5084 124.872 16.927 124.019C16.6564 123.546 16.4759 123.027 16.3945 122.489C15.7607 119.778 14.41 117.288 12.4838 115.279C12.3694 117.699 12.9074 120.106 14.0414 122.247C14.4973 123.104 15.0542 123.936 15.2103 124.891C15.4612 126.445 14.5983 128.049 14.993 129.573C15.4398 131.317 17.4074 132.473 17.5114 134.27C17.5971 135.8 16.2874 137.128 16.3884 138.645C16.4696 139.294 16.7046 139.914 17.0738 140.454C18.2611 142.4 19.9931 143.734 22.6063 143.676L25.8101 143.771L23.5825 136.357Z" fill="#F5F5F5"/>
    <path d="M26.4572 143.837C26.7501 143.881 27.0484 143.873 27.3385 143.813C27.6931 143.758 28.0416 143.669 28.3789 143.546C28.8427 143.381 29.2759 143.14 29.661 142.833C29.8901 142.644 30.0697 142.401 30.1843 142.127C30.2795 141.816 30.328 141.493 30.3281 141.169C30.3323 140.822 30.3558 140.476 30.3985 140.132C30.4592 139.766 30.5901 139.416 30.784 139.1C31.1573 138.433 31.7816 137.803 31.9774 136.9C32.1733 135.997 32.0294 135.064 31.8764 134.094C31.7234 133.124 31.5704 132.09 31.9346 131.086C32.2987 130.082 32.9689 129.174 33.3116 128.041C33.6543 126.909 33.486 125.676 33.5533 124.464C33.5725 123.85 33.7107 123.245 33.9603 122.683C34.2173 122.114 34.5723 121.579 34.8508 120.982C35.4107 119.758 35.5025 118.402 35.6525 117.062C35.7239 116.387 35.7963 115.705 35.8697 115.015C35.914 114.322 36.0299 113.634 36.2155 112.965C36.4267 112.288 36.6781 111.625 36.9683 110.979C37.1193 110.644 37.2422 110.297 37.3355 109.942C37.3874 109.576 37.4201 109.209 37.4334 108.84C37.4634 108.099 37.4307 107.357 37.3355 106.621C37.2437 105.884 37.106 105.153 37.0295 104.412C37.0295 104.366 37.0295 104.323 37.0295 104.284L37.0111 104.137L36.8795 104.204C36.2025 104.553 35.6151 105.054 35.1629 105.667C34.7242 106.267 34.3719 106.927 34.1164 107.625C33.59 109.005 33.4034 110.446 33.1433 111.826C32.8832 113.207 32.5313 114.559 31.8489 115.707C31.5001 116.279 31.0808 116.802 30.7106 117.359C30.3163 117.905 30.0487 118.532 29.9272 119.195C29.7436 120.551 30.4994 121.738 30.3495 122.937C30.2784 123.527 30.0823 124.094 29.7742 124.602C29.4866 125.116 29.1622 125.593 28.8256 126.071C28.4972 126.538 28.2125 127.035 27.9749 127.555C27.7521 128.063 27.6215 128.607 27.5894 129.161C27.519 130.242 27.6781 131.267 27.6047 132.221C27.5204 133.143 27.2564 134.039 26.8274 134.859C26.4449 135.649 26.0196 136.362 25.6616 137.056C25.4839 137.388 25.3236 137.729 25.1812 138.078C25.0551 138.407 24.9628 138.747 24.9058 139.094C24.8179 139.703 24.8179 140.321 24.9058 140.93C24.9919 141.775 25.3096 142.58 25.8238 143.256C25.9012 143.357 25.9883 143.45 26.0839 143.534C26.1473 143.601 26.2182 143.661 26.295 143.712C26.4143 143.8 26.4786 143.84 26.4786 143.84C26.254 143.658 26.0489 143.453 25.8666 143.228C25.3698 142.552 25.0652 141.753 24.9853 140.918C24.909 140.319 24.9193 139.712 25.0159 139.116C25.072 138.776 25.1654 138.443 25.2944 138.124C25.4368 137.779 25.5972 137.442 25.7748 137.114C26.1359 136.429 26.5673 135.716 26.959 134.92C27.4008 134.087 27.6732 133.175 27.7607 132.237C27.8403 131.248 27.6842 130.223 27.7607 129.177C27.7804 128.635 27.8964 128.102 28.1035 127.601C28.3403 127.092 28.6219 126.606 28.945 126.147C29.2663 125.673 29.609 125.196 29.9058 124.669C30.2312 124.142 30.4399 123.552 30.5178 122.937C30.6647 121.658 29.9058 120.465 30.1016 119.204C30.221 118.571 30.4803 117.973 30.8605 117.454C31.2216 116.906 31.6469 116.383 32.005 115.795C32.7241 114.614 33.0698 113.234 33.3269 111.851C33.5839 110.468 33.7767 109.036 34.2938 107.686C34.543 107.006 34.887 106.364 35.3159 105.78C35.747 105.19 36.3096 104.709 36.9591 104.375L36.8122 104.293C36.8122 104.336 36.8122 104.378 36.8122 104.424C36.8948 105.171 37.0325 105.905 37.1182 106.634C37.2133 107.358 37.246 108.089 37.2161 108.819C37.1978 109.173 37.1764 109.55 37.1243 109.886C37.033 110.229 36.9143 110.564 36.7694 110.887C36.4768 111.541 36.2224 112.211 36.0074 112.894C35.8203 113.575 35.7034 114.274 35.6586 114.978C35.5882 115.67 35.5148 116.352 35.4444 117.028C35.2975 118.375 35.2057 119.721 34.6641 120.89C34.3979 121.472 34.0521 122.01 33.7798 122.595C33.5232 123.174 33.3808 123.797 33.3605 124.431C33.2963 125.655 33.4646 126.879 33.1372 127.971C32.8097 129.063 32.1182 129.975 31.7693 131.01C31.4205 132.044 31.5613 133.136 31.7204 134.094C31.8795 135.052 32.0417 135.994 31.8397 136.848C31.6378 137.702 31.0533 138.335 30.6708 139.018C30.472 139.355 30.3429 139.728 30.2914 140.116C30.2495 140.465 30.2281 140.815 30.2271 141.166C30.2287 141.476 30.1854 141.786 30.0986 142.084C29.9921 142.347 29.8217 142.579 29.6029 142.76C29.2285 143.065 28.8068 143.307 28.3544 143.476C28.0222 143.602 27.679 143.698 27.3293 143.761C27.1142 143.8 26.8962 143.822 26.6775 143.825L26.4572 143.837Z" fill="#E0E0E0"/>
    <path d="M36.3651 106.053C36.3492 106.082 36.3388 106.114 36.3345 106.148C36.3161 106.224 36.2947 106.319 36.2641 106.438C36.2029 106.689 36.1294 107.072 36.0132 107.546C35.8969 108.02 35.6031 108.562 35.3583 109.223C35.1135 109.884 34.8442 110.643 34.6086 111.5C34.373 112.356 34.1588 113.305 33.9385 114.321C33.7484 115.407 33.4097 116.461 32.9317 117.454C32.6716 117.978 32.3779 118.507 32.1484 119.082C31.9214 119.673 31.7693 120.29 31.6955 120.918C31.5418 122.221 31.3191 123.516 31.0284 124.795L29.2597 132.207C28.7028 134.477 28.1979 136.524 27.7756 138.25C27.3534 139.976 27.029 141.371 26.7934 142.335C26.6832 142.806 26.5975 143.177 26.5363 143.446C26.5119 143.565 26.4904 143.66 26.4751 143.752C26.4718 143.786 26.4718 143.819 26.4751 143.853C26.4907 143.823 26.502 143.791 26.5088 143.758L26.5914 143.47C26.6618 143.204 26.7628 142.837 26.8974 142.369C27.1483 141.393 27.5094 140.01 27.9439 138.305C28.3785 136.601 28.8987 134.541 29.4739 132.274C30.0492 130.006 30.6 127.476 31.2304 124.847C31.5211 123.562 31.7438 122.263 31.8975 120.955C31.9647 120.34 32.1097 119.737 32.3289 119.159C32.5523 118.596 32.8399 118.069 33.1 117.543C33.5823 116.535 33.9202 115.463 34.1037 114.361C34.3179 113.342 34.5199 112.393 34.7494 111.542C34.9789 110.692 35.2206 109.927 35.4654 109.269C35.7102 108.611 35.9764 108.063 36.0774 107.571C36.1784 107.078 36.2457 106.705 36.2947 106.447C36.313 106.331 36.3283 106.233 36.3436 106.157C36.3551 106.123 36.3623 106.088 36.3651 106.053Z" fill="#E0E0E0"/>
    <path d="M27.0249 143.844C29.1088 142.589 29.6871 138.81 28.8028 136.545C27.9184 134.281 26.3793 132.209 26.1283 129.789C25.9356 127.928 26.5353 126.016 26.0916 124.198C25.4796 121.75 23.0836 119.856 23.0989 117.332C23.0989 115.915 23.9037 114.578 23.8303 113.164C23.7415 111.429 22.4013 110.058 21.5689 108.534C20.2929 106.202 20.195 103.427 19.7482 100.814C19.3015 98.2006 18.2856 95.3854 15.9508 94.1094C15.6203 96.3401 15.0328 97.8701 15.2439 100.887C15.3174 101.971 16.5873 104.039 16.7739 106.414C16.8841 107.83 16.9636 109.253 17.0585 110.673C17.1534 112.093 17.2452 113.464 17.747 114.749C18.1326 115.737 18.7476 116.634 19.0353 117.656C19.5769 119.578 18.8914 121.668 19.3413 123.617C19.7146 125.266 20.8713 126.677 21.1099 128.357C21.4527 130.71 19.941 133.164 20.7336 135.395C21.1283 136.506 22.0494 137.396 22.3156 138.544C22.5237 139.437 22.3156 140.38 22.4961 141.279C22.8021 142.724 25.5561 143.828 27.0341 143.727" fill="#E0E0E0"/>
    <path d="M16.5421 96.3184C16.538 96.3601 16.538 96.4021 16.5421 96.4438C16.5421 96.5387 16.5697 96.658 16.5911 96.811C16.64 97.1323 16.6982 97.6036 16.8083 98.2125C16.9185 98.8214 17.249 99.5161 17.5091 100.354C17.7692 101.193 18.0507 102.145 18.2924 103.216C18.5342 104.287 18.7423 105.474 18.9595 106.753C19.1768 108.032 19.4124 109.421 20.055 110.749C20.361 111.416 20.6854 112.083 20.9363 112.793C21.1842 113.525 21.3394 114.285 21.3983 115.055C21.5225 116.685 21.7339 118.307 22.0318 119.914C22.6897 123.213 23.32 126.34 23.8892 129.213C24.4583 132.087 25.0428 134.639 25.4987 136.781C25.9547 138.923 26.3341 140.664 26.5942 141.882L26.9002 143.268C26.9369 143.415 26.9645 143.534 26.9859 143.626C26.9938 143.667 27.0061 143.707 27.0226 143.745C27.026 143.704 27.026 143.662 27.0226 143.62C27.0043 143.528 26.9828 143.409 26.9553 143.259C26.891 142.925 26.8023 142.46 26.686 141.866C26.4412 140.642 26.074 138.901 25.6548 136.75C25.2356 134.599 24.6817 132.022 24.0973 129.171C23.5128 126.319 22.91 123.173 22.2613 119.877C21.9617 118.272 21.7472 116.652 21.6187 115.024C21.5596 114.239 21.4012 113.465 21.1474 112.72C20.8904 111.992 20.5538 111.322 20.2539 110.661C19.6174 109.354 19.3879 107.986 19.1554 106.713C18.9228 105.44 18.7147 104.247 18.4607 103.173C18.2366 102.206 17.9639 101.251 17.6437 100.312C17.3744 99.4763 17.0317 98.7817 16.9154 98.1941C16.7992 97.6066 16.7227 97.117 16.6584 96.7988C16.6309 96.6488 16.6064 96.5295 16.5911 96.4377C16.5781 96.3966 16.5618 96.3567 16.5421 96.3184Z" fill="#EBEBEB"/>
    <path d="M64.3541 16.9001C66.1411 14.8162 70.7801 16.1259 73.9686 17.8181C73.9686 17.8181 76.1596 18.8524 76.9735 19.3879H77.0011L84.443 18.4699C85.0479 18.3921 85.6622 18.4988 86.2055 18.7759L86.8175 19.0819C86.8865 19.1174 86.944 19.1718 86.9832 19.2387C87.0225 19.3056 87.042 19.3823 87.0395 19.4599C87.0369 19.5374 87.0124 19.6126 86.9688 19.6768C86.9251 19.741 86.8642 19.7915 86.7931 19.8224L81.3126 22.1633V22.2306L86.7227 25.7863L86.8053 25.8383C87.8254 26.4926 89.0549 26.7374 90.2478 26.5238L93.1456 26.0036C93.2921 25.9757 93.4434 25.9884 93.5832 26.0403C93.7004 26.088 93.8033 26.1651 93.8819 26.2643C93.9605 26.3634 94.0122 26.4812 94.0319 26.6062C94.0516 26.7312 94.0386 26.8591 93.9943 26.9776C93.95 27.0962 93.8759 27.2012 93.779 27.2827L90.413 30.0856C90.1559 30.3014 89.8428 30.4396 89.5101 30.484C89.1774 30.5285 88.8389 30.4773 88.5342 30.3365L86.9614 29.6144L79.0054 25.8292L79.9234 30.3549C79.9295 30.3985 79.9262 30.443 79.9136 30.4852C79.901 30.5274 79.8795 30.5664 79.8504 30.5995C79.8214 30.6327 79.7855 30.6591 79.7453 30.6771C79.705 30.6951 79.6614 30.7042 79.6174 30.7037H79.244C78.9935 30.6931 78.7498 30.619 78.5357 30.4884C78.3216 30.3578 78.1442 30.175 78.02 29.9571L74.8162 23.8371L65.4281 19.3726C64.1766 18.7973 63.7298 17.7232 64.3541 16.9001Z" fill="#E0E0E0"/>
    <path d="M12.2383 36.9378L35.8339 36.4146C35.8339 36.4146 33.6583 32.6538 27.5995 33.3546C21.81 34.0125 21.4611 31.6226 18.5021 31.3962C15.5431 31.1697 13.1379 33.4739 12.2383 36.9378Z" fill="#F5F5F5"/>
    <path d="M122.574 49.7H144.805C144.805 49.7 142.841 46.1198 137.118 46.64C131.65 47.1357 131.375 44.8774 128.593 44.602C125.812 44.3266 123.498 46.4564 122.574 49.7Z" fill="#F5F5F5"/>
    <path d="M25.6758 25.2265H42.6343C42.6343 25.2265 41.1349 22.497 36.7683 22.8948C32.6006 23.2742 32.3894 21.5514 30.2688 21.3372C28.1483 21.123 26.3826 22.751 25.6758 25.2265Z" fill="#F5F5F5"/>
    <path d="M122.598 60.9172H133.69C133.69 60.9172 132.711 59.1302 129.856 59.3872C127.126 59.6351 126.989 58.509 125.603 58.3713C124.216 58.2336 123.06 59.2985 122.598 60.9172Z" fill="#F5F5F5"/>
    <path d="M117.051 30.2083H128.146C128.146 30.2083 127.164 28.4212 124.309 28.6783C121.58 28.9261 121.442 27.8 120.056 27.6623C118.67 27.5246 117.504 28.5895 117.051 30.2083Z" fill="#FAFAFA"/>
    <path d="M145.174 143.863C145.174 143.906 114.29 143.942 76.1956 143.942C38.1016 143.942 7.21094 143.906 7.21094 143.863C7.21094 143.82 38.0894 143.783 76.1956 143.783C114.302 143.783 145.174 143.82 145.174 143.863Z" fill="#263238"/>
    <path d="M124.038 89.9022C124.016 89.6883 123.915 89.4902 123.755 89.3465C123.594 89.2028 123.387 89.1239 123.172 89.125H116.638C116.511 89.1253 116.385 89.1538 116.27 89.2084C116.155 89.2631 116.053 89.3426 115.973 89.4412C115.892 89.5398 115.834 89.655 115.803 89.7787C115.772 89.9023 115.769 90.0312 115.794 90.1562C115.832 90.356 115.941 90.5355 116.099 90.6628C116.258 90.79 116.457 90.8567 116.66 90.8508H123.175C123.295 90.8505 123.414 90.8251 123.525 90.7761C123.635 90.7272 123.734 90.6558 123.815 90.5666C123.896 90.4774 123.958 90.3722 123.996 90.2578C124.035 90.1435 124.049 90.0224 124.038 89.9022Z" fill="#263238"/>
    <path d="M138.288 141.721C138.228 142.129 138.29 142.545 138.467 142.917C138.644 143.29 138.927 143.601 139.281 143.813C139.635 144.024 140.044 144.125 140.456 144.104C140.867 144.083 141.264 143.941 141.594 143.695C141.925 143.448 142.175 143.11 142.313 142.721C142.451 142.333 142.471 141.912 142.37 141.512C142.269 141.113 142.051 140.752 141.745 140.476C141.439 140.2 141.058 140.021 140.65 139.961C140.103 139.882 139.548 140.022 139.105 140.352C138.662 140.682 138.368 141.174 138.288 141.721Z" fill="#263238"/>
    <path d="M139.914 142.037L138.645 139.412L139.312 138.986L140.542 141.728L139.914 142.037Z" fill="#455A64"/>
    <path d="M128.145 109.714L120.253 89.123L118.754 89.8758L126.401 110.28L128.145 109.714Z" fill="#263238"/>
    <path d="M146.367 136.911L134.708 141.544C134.5 141.627 134.267 141.624 134.062 141.535C133.856 141.446 133.694 141.279 133.611 141.071L122.015 111.886C121.577 110.783 121.595 109.552 122.064 108.462C122.534 107.373 123.418 106.515 124.52 106.076L129.434 104.124C130.537 103.686 131.769 103.704 132.858 104.173C133.948 104.643 134.806 105.527 135.244 106.629L146.84 135.815C146.923 136.023 146.92 136.255 146.831 136.461C146.742 136.667 146.576 136.829 146.367 136.911Z" fill="#2F27CE"/>
    <path d="M133.6 141.204C133.6 141.204 133.582 141.142 133.539 141.026L133.346 140.509L132.588 138.523L129.763 131.237C128.561 128.162 127.135 124.505 125.55 120.438L123.056 114.064C122.841 113.514 122.621 112.957 122.404 112.394C122.173 111.843 122.089 111.242 122.159 110.649C122.234 110.045 122.471 109.473 122.845 108.992C123.218 108.511 123.714 108.14 124.281 107.918C124.848 107.695 125.464 107.63 126.065 107.728C126.665 107.827 127.228 108.085 127.695 108.477C128.147 108.865 128.493 109.362 128.701 109.921L129.356 111.595C130.225 113.804 131.064 115.934 131.859 117.966L136.11 128.749C137.334 131.809 138.304 134.291 138.989 136.014L139.779 137.988C139.87 138.205 139.938 138.376 139.99 138.499C140.042 138.621 140.066 138.67 140.066 138.67C140.066 138.67 140.048 138.609 140.005 138.489L139.812 137.972C139.638 137.513 139.381 136.846 139.053 135.989L136.229 128.703L132.015 117.905C131.223 115.873 130.387 113.74 129.521 111.531C129.307 110.977 129.087 110.42 128.867 109.857C128.653 109.264 128.289 108.737 127.811 108.327C127.32 107.914 126.727 107.641 126.094 107.537C125.46 107.433 124.811 107.502 124.214 107.737C123.617 107.971 123.094 108.362 122.7 108.869C122.307 109.376 122.058 109.979 121.979 110.616C121.904 111.24 121.993 111.872 122.236 112.452L122.89 114.138C123.759 116.344 124.598 118.477 125.393 120.506C126.991 124.557 128.432 128.214 129.641 131.274L132.52 138.541L133.313 140.512C133.401 140.732 133.472 140.901 133.524 141.023C133.546 141.085 133.571 141.145 133.6 141.204Z" fill="#263238"/>
    <path d="M132.848 120.464C132.872 120.543 134.396 119.941 136.254 119.124C138.111 118.307 139.595 117.575 139.571 117.499C139.546 117.422 138.019 118.019 136.165 118.839C134.311 119.659 132.823 120.384 132.848 120.464Z" fill="#263238"/>
    <path d="M122.535 89.1219L121.173 86.4291C121.02 86.1282 120.765 85.8917 120.454 85.762L118.312 84.8685L112.541 77.041L111.996 83.0355L115.668 86.8269C115.668 86.8269 117.972 91.68 119.854 91.4322C119.808 90.9949 119.679 90.5703 119.475 90.1807C118.863 89.1219 119.515 89.1219 119.6 89.128H121.176L122.535 89.1219Z" fill="#FFBE9D"/>
    <path d="M113.113 84.9826C113.288 85.2427 114.714 87.1766 114.714 87.1766L118.756 84.2359L117.287 82.8008L113.113 84.9826Z" fill="#2F27CE"/>
    <path d="M119.487 90.1816C119.487 90.1816 120.539 90.7936 120.671 91.2894V91.5954L119.41 91.4118L119.487 90.1816Z" fill="#FFBE9D"/>
    <path d="M120.897 90.756C120.71 90.6101 120.565 90.4182 120.474 90.1991C120.434 90.0886 120.436 89.967 120.48 89.8578C120.524 89.7487 120.607 89.6598 120.713 89.6085C120.93 89.5351 121.154 89.6912 121.325 89.8472C121.54 90.0398 121.744 90.2441 121.937 90.4592C122.028 90.5375 122.1 90.6363 122.145 90.7474C122.191 90.8586 122.21 90.979 122.2 91.0988C122.172 91.1918 122.116 91.2737 122.039 91.3334C121.962 91.3931 121.869 91.4277 121.772 91.4323C121.674 91.4344 121.577 91.4165 121.487 91.3797C121.396 91.3428 121.314 91.2878 121.246 91.2181C121.109 91.0807 121 90.9188 120.924 90.7407" fill="#FFBE9D"/>
    <path d="M121.967 90.6642C121.78 90.5183 121.635 90.3264 121.545 90.1073C121.504 89.9968 121.506 89.8752 121.55 89.766C121.594 89.6569 121.677 89.568 121.783 89.5167C122.001 89.4433 122.224 89.5994 122.395 89.7554C122.611 89.948 122.815 90.1523 123.007 90.3674C123.099 90.4457 123.17 90.5445 123.216 90.6556C123.261 90.7668 123.28 90.8872 123.271 91.007C123.242 91.1 123.186 91.1819 123.109 91.2416C123.033 91.3013 122.939 91.3359 122.842 91.3405C122.744 91.3424 122.647 91.3244 122.557 91.2876C122.466 91.2508 122.384 91.1959 122.316 91.1263C122.18 90.9889 122.07 90.827 121.995 90.6489" fill="#FFBE9D"/>
    <path d="M118.754 86.0698C118.754 86.033 119.026 86.0453 119.341 86.3176C119.488 86.4967 119.61 86.6942 119.706 86.9051C119.848 87.1612 119.92 87.4506 119.914 87.7436C119.87 88.0317 119.756 88.3048 119.583 88.5392C119.466 88.7278 119.381 88.9346 119.332 89.1512C119.288 89.3519 119.273 89.5582 119.289 89.7632C119.236 89.6675 119.203 89.5621 119.191 89.4533C119.18 89.3445 119.19 89.2345 119.222 89.1298C119.259 88.8977 119.339 88.6746 119.458 88.4719C119.613 88.253 119.718 88.002 119.764 87.7375C119.767 87.4715 119.705 87.2088 119.583 86.9725C119.503 86.7691 119.4 86.5751 119.277 86.3941C119.172 86.2899 119.052 86.2013 118.922 86.131C118.867 86.1074 118.811 86.087 118.754 86.0698Z" fill="#EB996E"/>
    <path d="M75.2081 58.4492L70.918 72.1641L83.5374 85.3436L95.1012 82.3386L75.2081 58.4492Z" fill="#F5F5F5"/>
    <path d="M75.2051 58.4453L75.303 58.5585L75.5937 58.9013L76.7198 60.2415L80.9151 65.2446L95.1655 82.2888L95.245 82.3837L95.1257 82.4143L88.6079 84.1095L83.562 85.4192H83.5161L83.4855 85.3856L70.8721 72.2153L70.8477 72.1878V72.1541C72.1757 67.9527 73.2651 64.5225 74.0209 62.1357C74.3942 60.9545 74.688 60.0335 74.8899 59.4031L75.1164 58.6932C75.1684 58.5371 75.1929 58.4576 75.1929 58.4576C75.046 58.938 73.5374 63.8432 70.967 72.1908L70.9517 72.1296L83.5803 85.2876L83.5038 85.2662L88.5498 83.9535L95.0676 82.2582L95.0278 82.3867L80.9059 65.3487L76.7259 60.2997L75.5998 58.9319L75.2938 58.5769L75.2051 58.4453Z" fill="#263238"/>
    <path d="M75.6016 67.4941C75.7618 67.2451 75.9707 67.0309 76.2157 66.8645C76.4607 66.6981 76.7367 66.5829 77.0273 66.5257C77.3179 66.4686 77.617 66.4707 77.9068 66.5319C78.1966 66.5932 78.471 66.7123 78.7136 66.8821C79.5031 67.4941 79.8672 68.6477 80.8158 68.9537C81.5012 69.1741 82.2571 68.8528 82.9578 68.9782C83.7871 69.1282 84.4052 69.8962 84.6439 70.6918C84.8825 71.4874 84.8183 72.3656 84.751 73.2071L80.6475 73.2622L75.6016 67.4941Z" fill="#E0E0E0"/>
    <path d="M68.0117 59.7012L94.6031 87.1035L83.7677 86.0049L68.6115 70.0042L68.0117 59.7012Z" fill="#F5F5F5"/>
    <path d="M68.0156 59.7012C68.0401 60.102 68.2604 63.6271 68.6643 70.0011V69.9675C72.5414 74.0495 77.8443 79.6279 83.8389 85.9529L83.7899 85.9284L92.1039 86.7669L94.6254 87.0239L94.5611 87.1585C79.7752 71.8585 68.6154 60.3101 68.0309 59.7012L94.6743 87.0484L94.8273 87.2045L94.6101 87.183L92.0856 86.926L83.7746 86.0814H83.7471L83.7257 86.0631C77.7403 79.7258 72.4526 74.1291 68.5878 70.044V70.0256C68.2206 63.6302 68.034 60.102 68.0156 59.7012Z" fill="#263238"/>
    <path d="M78.4188 70.5918C77.5988 71.5373 77.7181 73.0398 78.4188 74.0833C79.1196 75.1267 80.2763 75.7571 81.4452 76.2069C82.3907 76.571 83.5566 76.8005 84.3399 76.1579" fill="#E0E0E0"/>
    <path d="M77.0344 69.1018C77.0834 69.3313 76.7957 69.5027 76.5632 69.4813C76.3306 69.4598 76.1164 69.3283 75.8808 69.316C75.2413 69.2793 74.8924 70.0382 74.3722 70.4084C74.0585 70.6134 73.6772 70.6881 73.3094 70.6167C72.9415 70.5453 72.6159 70.3334 72.4016 70.0259C72.0527 69.4843 72.0619 68.6826 71.5111 68.3491C71.1867 68.1905 70.8153 68.1568 70.4677 68.2542C70.1234 68.35 69.7655 68.3872 69.4089 68.3644C69.2312 68.3479 69.0645 68.2709 68.9369 68.146C68.8092 68.0212 68.7285 67.8563 68.7082 67.6789L68.5154 67.3729L68.0625 59.8086L77.0344 69.1018Z" fill="#E0E0E0"/>
    <path d="M89.9939 86.5492C90.1303 86.5838 90.2724 86.5901 90.4113 86.5678C90.5503 86.5454 90.6832 86.4948 90.8019 86.4191C90.9206 86.3435 91.0225 86.2443 91.1014 86.1277C91.1803 86.0112 91.2345 85.8797 91.2607 85.7414C91.2947 85.4377 91.2113 85.1326 91.0275 84.8885C90.8437 84.6444 90.5735 84.4799 90.2723 84.4286C89.7307 84.3582 89.1707 84.6734 88.6505 84.5112C88.0569 84.3246 87.8121 83.6361 87.6621 83.0333C87.5122 82.4304 87.3011 81.7419 86.7258 81.5033C85.7741 81.1177 84.7704 82.3386 83.7759 82.0694C83.0385 81.8705 82.7539 80.9831 82.1755 80.4843C81.9415 80.286 81.6606 80.151 81.3595 80.092C81.0585 80.0331 80.7474 80.0523 80.4558 80.1477C80.1911 80.2124 79.9509 80.3527 79.7645 80.5516C79.5782 80.7505 79.4537 80.9993 79.4062 81.2676L83.7974 85.8974L89.9939 86.5492Z" fill="#E0E0E0"/>
    <path d="M82.7232 132.859L81.6308 139.157C81.6308 139.157 74.8621 140.161 74.5469 141.299L86.6828 143.857L88.7881 134.114L82.7232 132.859Z" fill="#2F27CE"/>
    <g opacity="0.6">
        <path d="M85.4951 139.423C85.6043 139.483 85.6875 139.581 85.7287 139.698C85.7699 139.816 85.7663 139.944 85.7185 140.059C85.6624 140.171 85.5658 140.256 85.4485 140.298C85.3312 140.34 85.2022 140.336 85.0882 140.286C84.9724 140.222 84.8844 140.118 84.8414 139.993C84.7985 139.868 84.8035 139.731 84.8556 139.61C84.9262 139.499 85.0367 139.421 85.164 139.391C85.2913 139.36 85.4254 139.381 85.538 139.447" fill="white"/>
    </g>
    <path opacity="0.6" d="M86.6845 143.863L86.9048 142.902L75.1667 140.803C75.1667 140.803 74.5792 140.925 74.5547 141.317L86.6845 143.863Z" fill="white"/>
    <path d="M81.4492 139.052C81.4492 139.113 81.7307 139.202 81.9817 139.453C82.2326 139.704 82.3366 139.989 82.3948 139.976C82.4529 139.964 82.4376 139.603 82.1285 139.303C81.8195 139.003 81.4492 138.997 81.4492 139.052Z" fill="#263238"/>
    <path d="M80.0643 139.313C80.0398 139.368 80.2754 139.521 80.4223 139.815C80.5692 140.109 80.5722 140.384 80.6334 140.396C80.6946 140.409 80.8017 140.09 80.6089 139.717C80.4162 139.344 80.0765 139.255 80.0643 139.313Z" fill="#263238"/>
    <path d="M79.0211 140.684C79.0731 140.709 79.2169 140.43 79.1343 140.072C79.0517 139.714 78.8008 139.527 78.764 139.573C78.7273 139.619 78.862 139.827 78.9293 140.121C78.9966 140.415 78.9629 140.666 79.0211 140.684Z" fill="#263238"/>
    <path d="M81.8565 137.646C81.8565 137.707 82.1625 137.683 82.4899 137.775C82.8173 137.866 83.056 138.029 83.1019 137.986C83.1478 137.943 82.9366 137.68 82.548 137.573C82.1594 137.466 81.8351 137.594 81.8565 137.646Z" fill="#263238"/>
    <path opacity="0.3" d="M82.5083 134.107L82.3125 135.227L88.2887 136.43L88.509 135.429L82.5083 134.107Z" fill="black"/>
    <path d="M82.1016 136.379C82.2908 136.474 82.502 136.517 82.7136 136.504C82.9417 136.513 83.17 136.492 83.3929 136.443C83.5235 136.414 83.6522 136.377 83.7784 136.333C83.8549 136.309 83.9272 136.274 83.9926 136.229C84.0395 136.195 84.0741 136.147 84.0913 136.091C84.1084 136.036 84.1071 135.977 84.0875 135.923C84.0659 135.875 84.0336 135.834 83.9933 135.801C83.953 135.768 83.9057 135.745 83.8549 135.733C83.7786 135.716 83.7002 135.711 83.6224 135.718C83.254 135.728 82.8946 135.833 82.5789 136.024C82.2423 136.226 82.0985 136.424 82.1169 136.443C82.1352 136.461 82.3158 136.311 82.6462 136.155C82.9536 136.013 83.287 135.936 83.6254 135.929C83.7601 135.929 83.8702 135.944 83.8917 136.008C83.9131 136.073 83.8917 136.042 83.8641 136.076C83.8153 136.107 83.7629 136.133 83.7081 136.152C83.5897 136.196 83.4692 136.234 83.347 136.265C83.1386 136.32 82.9255 136.355 82.7105 136.369C82.5076 136.359 82.3041 136.362 82.1016 136.379Z" fill="#263238"/>
    <path d="M82.1607 136.477C82.179 136.492 82.3412 136.305 82.4452 135.926C82.5013 135.703 82.5199 135.472 82.5003 135.244C82.4906 135.106 82.4649 134.971 82.4238 134.84C82.4079 134.753 82.37 134.672 82.3138 134.604C82.2575 134.535 82.1848 134.483 82.1025 134.451C82.0481 134.442 81.9923 134.449 81.9412 134.469C81.89 134.49 81.8453 134.524 81.8118 134.567C81.7657 134.632 81.7286 134.703 81.7017 134.778C81.6519 134.909 81.623 135.046 81.616 135.185C81.6016 135.421 81.6447 135.656 81.7414 135.871C81.9128 136.235 82.1454 136.357 82.1546 136.339C82.1637 136.321 81.9985 136.155 81.8822 135.813C81.8131 135.617 81.788 135.408 81.8088 135.201C81.8217 135.081 81.8505 134.964 81.8944 134.852C81.9403 134.729 82.0107 134.635 82.0566 134.659C82.1025 134.684 82.2004 134.788 82.228 134.901C82.267 135.015 82.2957 135.133 82.3137 135.253C82.3433 135.463 82.3433 135.676 82.3137 135.886C82.2402 136.256 82.1301 136.477 82.1607 136.477Z" fill="#263238"/>
    <path d="M122.603 133.241L119.981 129.814L119.843 129.637L115.363 132.963L119.503 137.51L119.354 142.115C117.046 142.709 116.7 143.863 116.7 143.863H121.492L125.847 135.478L122.603 133.241Z" fill="#2F27CE"/>
    <path opacity="0.6" d="M125.853 135.472L121.499 143.857L116.707 143.863L117.246 143.141L121.144 142.923L125.162 134.998L125.853 135.472Z" fill="white"/>
    <path d="M119.388 140.004C119.425 140.052 119.694 139.896 120.071 139.906C120.447 139.915 120.713 140.071 120.75 140.022C120.787 139.973 120.527 139.716 120.074 139.694C119.621 139.673 119.339 139.967 119.388 140.004Z" fill="#263238"/>
    <path d="M119.466 138.863C119.515 138.897 119.726 138.615 120.109 138.539C120.491 138.462 120.797 138.64 120.828 138.591C120.859 138.542 120.791 138.487 120.657 138.413C120.475 138.323 120.269 138.296 120.07 138.336C119.871 138.376 119.691 138.481 119.558 138.633C119.463 138.756 119.442 138.851 119.466 138.863Z" fill="#263238"/>
    <path d="M119.433 137.395C119.485 137.423 119.647 137.144 119.981 137.028C120.314 136.912 120.614 137.028 120.639 136.967C120.663 136.905 120.593 136.878 120.458 136.829C120.281 136.765 120.087 136.765 119.91 136.829C119.735 136.893 119.585 137.013 119.485 137.172C119.412 137.297 119.406 137.395 119.433 137.395Z" fill="#263238"/>
    <path d="M118.15 136.262C118.208 136.281 118.342 136.008 118.639 135.816C118.936 135.623 119.233 135.595 119.251 135.534C119.269 135.473 118.893 135.396 118.535 135.641C118.177 135.886 118.091 136.256 118.15 136.262Z" fill="#263238"/>
    <path d="M117.527 135.276C117.551 135.292 117.707 135.099 117.943 134.775L118.35 134.199C118.441 134.081 118.515 133.95 118.57 133.811C118.586 133.76 118.592 133.707 118.588 133.655C118.583 133.602 118.568 133.551 118.542 133.505C118.513 133.455 118.47 133.414 118.419 133.388C118.367 133.361 118.309 133.35 118.252 133.355C118.083 133.387 117.928 133.468 117.805 133.587C117.687 133.682 117.584 133.793 117.499 133.918C117.363 134.127 117.277 134.365 117.248 134.612C117.198 134.835 117.236 135.069 117.355 135.264C117.356 135.053 117.37 134.843 117.395 134.634C117.44 134.414 117.53 134.206 117.658 134.022C117.733 133.916 117.822 133.821 117.921 133.737C118.015 133.651 118.129 133.589 118.252 133.557C118.27 133.554 118.288 133.557 118.305 133.566C118.321 133.574 118.335 133.587 118.344 133.603C118.359 133.646 118.359 133.694 118.344 133.737C118.294 133.855 118.231 133.967 118.157 134.071C118.034 134.276 117.912 134.475 117.79 134.683C117.671 134.865 117.582 135.066 117.527 135.276Z" fill="#263238"/>
    <path d="M117.355 135.421C117.376 135.421 117.355 135.167 117.098 134.879C116.921 134.688 116.687 134.56 116.431 134.513C116.175 134.467 115.911 134.505 115.678 134.622C115.654 134.643 115.634 134.67 115.621 134.699C115.608 134.729 115.601 134.761 115.602 134.794C115.605 134.849 115.625 134.903 115.66 134.947C115.709 135.004 115.767 135.055 115.831 135.096C115.937 135.172 116.051 135.237 116.171 135.289C116.37 135.381 116.583 135.441 116.801 135.467C117 135.509 117.207 135.49 117.395 135.412C117.395 135.378 117.168 135.393 116.826 135.32C116.628 135.276 116.437 135.207 116.256 135.115C116.149 135.061 116.047 134.999 115.95 134.928C115.904 134.899 115.861 134.863 115.825 134.821C115.804 134.778 115.825 134.79 115.825 134.778C115.868 134.752 115.916 134.734 115.966 134.726C116.024 134.714 116.084 134.705 116.143 134.699C116.257 134.691 116.371 134.699 116.483 134.723C116.674 134.766 116.852 134.857 117 134.986C117.251 135.213 117.321 135.433 117.355 135.421Z" fill="#263238"/>
    <path opacity="0.6" d="M122.031 135.329C122.031 135.441 122.065 135.552 122.127 135.645C122.19 135.739 122.279 135.812 122.383 135.855C122.487 135.898 122.601 135.909 122.711 135.887C122.822 135.865 122.923 135.811 123.003 135.731C123.082 135.652 123.137 135.55 123.159 135.44C123.181 135.33 123.169 135.215 123.126 135.111C123.083 135.007 123.01 134.918 122.917 134.856C122.823 134.793 122.713 134.76 122.6 134.76C122.449 134.76 122.305 134.82 122.198 134.926C122.091 135.033 122.031 135.178 122.031 135.329Z" fill="white"/>
    <path opacity="0.3" d="M115.789 133.419L116.71 134.431L120.581 130.597L120.042 129.896L115.789 133.419Z" fill="black"/>
    <path d="M103.871 53.6138C106.432 52.7239 109.196 52.5985 111.827 53.2527C112.993 53.5434 114.177 54.0269 114.924 54.9693C115.808 56.0832 115.918 57.6009 116.056 59.0177C116.332 61.8995 116.863 64.7513 117.641 67.5398C118.29 69.8593 119.11 72.1298 119.461 74.5258C119.813 76.9218 119.651 79.4585 118.436 81.5393C116.564 84.7462 112.583 86.163 108.871 86.2272C106.919 86.2578 104.917 85.9733 103.185 85.0675C101.453 84.1617 100.012 82.5797 99.5898 80.6733" fill="#2F27CE"/>
    <g opacity="0.5">
        <path d="M103.871 53.6138C106.432 52.7239 109.196 52.5985 111.827 53.2527C112.993 53.5434 114.177 54.0269 114.924 54.9693C115.808 56.0832 115.918 57.6009 116.056 59.0177C116.332 61.8995 116.863 64.7513 117.641 67.5398C118.29 69.8593 119.11 72.1298 119.461 74.5258C119.813 76.9218 119.651 79.4585 118.436 81.5393C116.564 84.7462 112.583 86.163 108.871 86.2272C106.919 86.2578 104.917 85.9733 103.185 85.0675C101.453 84.1617 100.012 82.5797 99.5898 80.6733" fill="black"/>
    </g>
    <path d="M108.977 56.5527C109.379 56.9039 109.735 57.3037 110.038 57.7431C110.353 58.2307 110.63 58.7422 110.865 59.2731C111.152 59.9323 111.482 60.5721 111.853 61.1886C112.234 61.8133 112.758 62.3379 113.383 62.7186C113.905 63.0307 114.52 63.1508 115.121 63.0583C115.524 63.0007 115.901 62.8274 116.207 62.5595C116.289 62.4861 116.361 62.4029 116.422 62.3117C116.464 62.2505 116.483 62.2168 116.477 62.2137C116.471 62.2107 116.373 62.33 116.171 62.4983C115.863 62.7316 115.498 62.8775 115.115 62.9206C114.547 62.9881 113.973 62.8608 113.487 62.5595C112.892 62.1843 112.393 61.6763 112.027 61.0754C111.662 60.4656 111.332 59.8352 111.039 59.1874C110.792 58.6524 110.498 58.1404 110.161 57.6574C109.931 57.3302 109.659 57.0358 109.35 56.7822C109.24 56.6849 109.113 56.6072 108.977 56.5527Z" fill="#E0E0E0"/>
    <path d="M114.354 85.2155C114.362 85.1351 114.362 85.0542 114.354 84.9738C114.354 84.7963 114.354 84.5699 114.354 84.2883C114.354 83.6947 114.311 82.8318 114.265 81.77C114.17 79.628 114.005 76.7026 113.748 73.4651C113.491 70.2276 113.2 67.2962 112.962 65.1817C112.839 64.1229 112.735 63.2661 112.656 62.6786C112.619 62.4002 112.585 62.1737 112.561 61.9993C112.553 61.9194 112.538 61.8405 112.515 61.7637C112.505 61.843 112.505 61.9231 112.515 62.0024C112.53 62.1798 112.552 62.4063 112.573 62.6847C112.634 63.2967 112.717 64.1535 112.815 65.1939C113.02 67.3145 113.292 70.2429 113.546 73.4804C113.8 76.7179 113.99 79.6524 114.118 81.7761C114.183 82.8195 114.235 83.6733 114.271 84.2914L114.32 84.9768C114.325 85.0572 114.336 85.1371 114.354 85.2155Z" fill="#E0E0E0"/>
    <path d="M113.59 72.2161C113.59 72.2682 114.762 72.2559 116.194 72.0754C117.626 71.8948 118.764 71.6256 118.755 71.5766C118.746 71.5277 117.595 71.7051 116.169 71.8826C114.743 72.0601 113.587 72.1488 113.59 72.2161Z" fill="#E0E0E0"/>
    <path d="M114.534 72.1758C114.441 72.3476 114.387 72.5377 114.375 72.7327C114.34 72.9401 114.319 73.1497 114.311 73.36C114.301 73.4971 114.324 73.6347 114.378 73.7609C114.413 73.8376 114.468 73.903 114.538 73.9496C114.608 73.9962 114.689 74.022 114.773 74.024C114.821 74.0261 114.868 74.0169 114.912 73.9972C114.956 73.9776 114.994 73.948 115.024 73.9108C115.077 73.8443 115.108 73.7631 115.113 73.6782C115.117 73.5455 115.098 73.413 115.058 73.2866C115.006 73.0768 114.937 72.872 114.85 72.6746C114.7 72.3471 114.559 72.1727 114.544 72.185C114.587 72.3711 114.648 72.5525 114.727 72.7266C114.792 72.9194 114.846 73.1155 114.889 73.3141C114.918 73.4229 114.93 73.5353 114.926 73.6476C114.926 73.7517 114.865 73.8159 114.779 73.8159C114.574 73.8159 114.492 73.5681 114.501 73.3478C114.51 73.1274 114.501 72.9102 114.519 72.7358C114.548 72.5505 114.553 72.3623 114.534 72.1758Z" fill="#E0E0E0"/>
    <path d="M101.35 54.7212L113.644 53.2857C115.254 53.0977 116.406 51.6403 116.218 50.0306L115.952 47.748C115.764 46.1383 114.306 44.9857 112.697 45.1736L100.402 46.6092C98.7927 46.7971 97.6401 48.2545 97.8281 49.8642L98.0946 52.1468C98.2826 53.7565 99.7399 54.9092 101.35 54.7212Z" fill="#455A64"/>
    <path d="M112.488 45.3716C112.488 45.3716 112.452 45.3471 112.372 45.3227C112.254 45.2891 112.133 45.2706 112.011 45.2676C111.554 45.2695 111.11 45.4234 110.75 45.7052C110.199 46.0931 109.762 46.6213 109.483 47.2352C109.172 47.9942 109.052 48.818 109.134 49.6342C109.179 50.4576 109.468 51.2492 109.964 51.9078C110.371 52.4457 110.931 52.8486 111.57 53.0645C111.996 53.211 112.448 53.2612 112.895 53.2113C113.017 53.198 113.136 53.1734 113.253 53.1379C113.333 53.1134 113.373 53.0981 113.37 53.092C113.366 53.0859 113.198 53.1165 112.889 53.1348C112.456 53.1537 112.023 53.085 111.616 52.9329C111.013 52.7102 110.489 52.3154 110.108 51.7976C109.644 51.1618 109.375 50.4048 109.333 49.6189C109.249 48.8354 109.354 48.0432 109.639 47.3086C109.901 46.7207 110.308 46.2097 110.824 45.8245C111.157 45.549 111.567 45.3843 111.999 45.3533C112.317 45.3318 112.485 45.39 112.488 45.3716Z" fill="#263238"/>
    <path d="M105.464 45.9913L107.361 45.8047C106.854 45.9598 106.42 46.2921 106.137 46.741C105.862 47.1874 105.685 47.6869 105.617 48.2068C105.277 50.3886 106.437 52.7325 108.301 53.9137L106.771 54.1156C106.771 54.1156 102.395 50.208 105.452 45.9913" fill="#263238"/>
    <path d="M103.316 50.0064C103.805 50.1417 104.319 50.1607 104.817 50.0618C105.314 49.9629 105.782 49.7489 106.182 49.4369C106.582 49.1249 106.903 48.7236 107.12 48.2651C107.338 47.8066 107.444 47.3036 107.432 46.7965C107.411 45.857 106.982 44.8962 107.276 43.9996C107.478 43.3876 107.992 42.9041 108.167 42.283C108.424 41.3497 107.861 40.4102 107.325 39.6085C107.006 39.0758 106.609 38.5941 106.147 38.1795C105.914 37.973 105.639 37.8201 105.341 37.7318C105.043 37.6435 104.729 37.6219 104.421 37.6685" fill="#263238"/>
    <path d="M94.6236 37.752C94.6756 38.4619 94.2074 39.0984 93.7331 39.6308C93.2588 40.1632 92.7356 40.7232 92.6315 41.427C92.451 42.6786 93.675 43.8383 93.4241 45.0776C93.2864 45.7416 92.7448 46.2741 92.6468 46.9442C92.5489 47.6143 92.9008 48.2294 93.3323 48.7221C93.7637 49.2147 94.287 49.6401 94.6695 50.1603C95.0327 50.7484 95.34 51.3692 95.5875 52.0146C95.8345 52.6648 96.284 53.2183 96.8696 53.5936C97.7876 54.0893 99.0606 53.8567 99.7583 54.6248C100.456 55.3929 101.264 55.4816 102.096 56.0416" fill="#263238"/>
    <path d="M105.568 38.8376C105.587 38.195 104.99 37.6962 104.39 37.4606C103.79 37.2249 103.12 37.1331 102.585 36.7721C102.11 36.4661 101.792 35.9581 101.391 35.5481C100.896 35.0482 100.276 34.6888 99.5961 34.5066C98.916 34.3244 98.1998 34.326 97.5206 34.5111C96.8413 34.6962 96.2234 35.0583 95.7299 35.5604C95.2363 36.0624 94.8848 36.6865 94.7113 37.3688C94.4818 38.2868 94.6379 39.3731 95.3631 39.9851C96.2046 40.6919 97.45 40.5359 98.5272 40.3155C99.6043 40.0952 100.822 39.878 101.722 40.5114C102.263 40.8908 102.572 41.512 102.906 42.0873C103.24 42.6626 103.653 43.247 104.28 43.4612C104.907 43.6754 105.758 43.3052 105.782 42.6442" fill="#263238"/>
    <path d="M103.015 38.9726C103.284 39.001 103.532 39.1295 103.71 39.3325C103.888 39.5355 103.983 39.7982 103.976 40.0681L103.334 54.6459C103.306 56.3687 100.791 57.3357 98.9455 57.2928C97.085 57.25 97.0238 56.3351 97.0024 54.698C96.9626 51.9623 96.9657 50.9342 96.9657 50.9495C96.9657 50.9648 94.6125 50.5547 94.1321 47.4855C93.8934 45.9555 93.976 43.4555 94.1107 41.4114C94.23 39.5754 95.454 37.3141 97.29 37.5099L103.015 38.9726Z" fill="#FFBE9D"/>
    <path d="M94.6915 43.1646C94.6898 43.2675 94.7287 43.3668 94.7997 43.4413C94.8707 43.5157 94.9681 43.5592 95.0709 43.5624C95.1206 43.5657 95.1704 43.5591 95.2176 43.543C95.2647 43.5269 95.3082 43.5017 95.3455 43.4686C95.3827 43.4356 95.4131 43.3955 95.4348 43.3507C95.4565 43.3059 95.469 43.2572 95.4718 43.2074C95.4734 43.1051 95.435 43.0062 95.3646 42.9318C95.2943 42.8575 95.1976 42.8136 95.0954 42.8096C95.0454 42.8059 94.9953 42.8122 94.9478 42.8281C94.9003 42.844 94.8564 42.8692 94.8188 42.9023C94.7812 42.9353 94.7506 42.9755 94.7287 43.0206C94.7068 43.0656 94.6942 43.1146 94.6915 43.1646Z" fill="#263238"/>
    <path d="M94.6508 42.7108C94.6997 42.7628 94.9996 42.5425 95.4219 42.5456C95.8442 42.5486 96.1563 42.7598 96.2022 42.7078C96.2481 42.6557 96.1747 42.5915 96.04 42.4936C95.8598 42.3697 95.6467 42.3025 95.428 42.3008C95.2085 42.3003 94.9944 42.3688 94.816 42.4966C94.6722 42.5976 94.6263 42.6894 94.6508 42.7108Z" fill="#263238"/>
    <path d="M98.9102 43.272C98.9086 43.3749 98.9474 43.4742 99.0184 43.5487C99.0894 43.6231 99.1868 43.6666 99.2896 43.6698C99.3394 43.674 99.3895 43.6681 99.437 43.6526C99.4845 43.637 99.5283 43.6121 99.566 43.5793C99.6037 43.5465 99.6344 43.5064 99.6563 43.4615C99.6782 43.4166 99.6909 43.3678 99.6936 43.3179C99.6953 43.2153 99.6569 43.116 99.5867 43.0412C99.5164 42.9663 99.4197 42.9218 99.3172 42.9171C99.2671 42.9133 99.2167 42.9196 99.1691 42.9354C99.1214 42.9513 99.0774 42.9765 99.0395 43.0095C99.0017 43.0425 98.9707 43.0827 98.9485 43.1278C98.9263 43.1729 98.9133 43.2219 98.9102 43.272Z" fill="#263238"/>
    <path d="M98.8146 42.8007C98.8636 42.8528 99.1604 42.6324 99.5858 42.6355C100.011 42.6386 100.317 42.8497 100.363 42.7977C100.409 42.7457 100.339 42.6814 100.201 42.5835C100.022 42.4575 99.8079 42.3901 99.5888 42.3907C99.369 42.388 99.1543 42.4568 98.9768 42.5865C98.8391 42.6845 98.7902 42.7793 98.8146 42.8007Z" fill="#263238"/>
    <path d="M97.2695 45.9392C97.0463 45.8678 96.815 45.8246 96.581 45.8107C96.4739 45.8107 96.3729 45.7801 96.3546 45.7066C96.3435 45.5948 96.3682 45.4823 96.425 45.3853L96.7493 44.5622C97.0458 43.8682 97.2873 43.152 97.4715 42.4202C97.4225 42.4018 97.0217 43.3382 96.578 44.5071C96.4678 44.8131 96.3668 45.0732 96.272 45.3364C96.2026 45.4656 96.182 45.6155 96.2138 45.7586C96.2296 45.7968 96.2537 45.8309 96.2845 45.8584C96.3152 45.8859 96.3517 45.9062 96.3913 45.9178C96.4511 45.9346 96.5128 45.9438 96.5749 45.9453C96.8059 45.9709 97.039 45.9688 97.2695 45.9392Z" fill="#263238"/>
    <path d="M96.9648 50.9499C98.4083 50.9796 99.8319 50.6089 101.077 49.8789C101.077 49.8789 100.062 51.9689 97.0016 51.6751L96.9648 50.9499Z" fill="#EB996E"/>
    <path d="M97.4463 46.9582C97.5278 46.8575 97.6332 46.7789 97.753 46.7297C97.8728 46.6805 98.0031 46.6623 98.1318 46.6767C98.2251 46.686 98.3156 46.7138 98.3981 46.7584C98.4806 46.8031 98.5534 46.8637 98.6122 46.9368C98.6685 47.0076 98.7017 47.0941 98.7072 47.1844C98.7126 47.2747 98.6902 47.3645 98.6428 47.4417C98.5746 47.5171 98.4855 47.5705 98.3869 47.595C98.2882 47.6196 98.1845 47.6141 98.0889 47.5794C97.8885 47.5086 97.7043 47.3983 97.5473 47.255C97.4993 47.2219 97.4587 47.1792 97.428 47.1295C97.4113 47.1069 97.4023 47.0796 97.4023 47.0515C97.4023 47.0234 97.4113 46.9961 97.428 46.9735" fill="#EB996E"/>
    <path d="M98.5127 46.2344C98.4454 46.2344 98.4424 46.6904 98.0476 47.0147C97.6529 47.3391 97.1633 47.2901 97.1602 47.3544C97.1572 47.4187 97.2704 47.4431 97.4662 47.4493C97.7358 47.4548 97.9985 47.3636 98.2067 47.1922C98.4085 47.0299 98.5382 46.7946 98.5678 46.5374C98.5954 46.3477 98.5311 46.2314 98.5127 46.2344Z" fill="#263238"/>
    <path d="M98.6234 42.0599C98.6632 42.1731 99.0885 42.1211 99.5842 42.1823C100.08 42.2435 100.484 42.3782 100.548 42.2772C100.579 42.2252 100.508 42.1181 100.346 42.0049C100.132 41.8662 99.8873 41.7802 99.6332 41.7539C99.379 41.7234 99.1212 41.7527 98.8804 41.8396C98.6968 41.9222 98.605 42.0048 98.6234 42.0599Z" fill="#263238"/>
    <path d="M94.8079 41.4869C94.8814 41.5818 95.1752 41.4869 95.524 41.4869C95.8728 41.4869 96.1727 41.5512 96.24 41.4502C96.2706 41.4043 96.2247 41.3064 96.0962 41.2146C95.9219 41.1046 95.7188 41.0491 95.5127 41.0551C95.3067 41.0611 95.1072 41.1283 94.9395 41.2482C94.8171 41.34 94.7743 41.441 94.8079 41.4869Z" fill="#263238"/>
    <path d="M105.156 49.0673C104.731 49.1528 104.293 49.1361 103.877 49.0187C103.46 48.9012 103.078 48.6864 102.761 48.3919C102.444 48.0974 102.202 47.7317 102.054 47.325C101.907 46.9184 101.858 46.4825 101.912 46.0532C102.01 45.3005 102.414 44.5232 102.154 43.8194C101.808 42.877 100.486 42.5954 100.134 41.6468C99.9321 41.0991 100.116 40.4596 99.8832 39.9241C99.6506 39.3886 99.1365 39.1285 98.6194 38.9418C98.0875 38.8046 97.5805 38.5847 97.1169 38.29C96.6824 37.9534 96.4131 37.3169 96.6916 36.8457C98.9844 37.1188 101.236 37.6653 103.399 38.4736C103.898 38.6603 104.424 38.8867 104.721 39.3304C105.018 39.7741 105.027 40.4106 104.993 40.9767L104.608 49.2387" fill="#263238"/>
    <path d="M106.81 51.6189C106.809 51.3558 106.755 51.0957 106.651 50.8539C106.524 50.574 106.347 50.3198 106.128 50.1042C105.834 49.8231 105.499 49.5869 105.136 49.4034C104.735 49.1862 104.273 48.9873 103.802 48.718C103.283 48.4419 102.845 48.0347 102.532 47.5368C102.368 47.2584 102.28 46.942 102.275 46.6188C102.289 46.2907 102.335 45.9647 102.413 45.6457C102.498 45.3319 102.52 45.0042 102.477 44.6818C102.444 44.5233 102.376 44.374 102.278 44.2449C102.18 44.1158 102.055 44.01 101.911 43.9352C101.605 43.7638 101.299 43.6567 100.978 43.5099C100.649 43.3766 100.371 43.1419 100.185 42.8397C100.03 42.5399 99.9507 42.2071 99.9527 41.8697C99.9527 41.5484 99.9527 41.2393 99.9527 40.9517C99.96 40.6643 99.9186 40.3777 99.8303 40.1041C99.7411 39.8534 99.5792 39.6349 99.3652 39.4768C98.9508 39.2107 98.4881 39.0288 98.0035 38.9413C97.5933 38.8596 97.2014 38.7041 96.8468 38.4823C96.5793 38.3004 96.3834 38.031 96.2929 37.7203C96.2305 37.5274 96.2305 37.3197 96.2929 37.1267C96.3168 37.0618 96.352 37.0017 96.397 36.9492C96.397 36.9492 96.3633 37.0135 96.3235 37.1389C96.2719 37.3251 96.2783 37.5226 96.3419 37.705C96.4379 37.994 96.6287 38.2421 96.8835 38.4088C97.2343 38.6155 97.6185 38.7594 98.0188 38.8342C98.5207 38.918 99.0011 39.0999 99.4325 39.3697C99.6688 39.5421 99.8487 39.7806 99.9496 40.0551C100.044 40.3433 100.091 40.6452 100.087 40.9486C100.087 41.2546 100.087 41.5606 100.087 41.8666C100.087 42.1792 100.16 42.4876 100.302 42.7663C100.472 43.042 100.726 43.2563 101.027 43.3783C101.333 43.5221 101.66 43.6261 101.975 43.8097C102.134 43.903 102.274 44.0232 102.392 44.1647C102.504 44.3102 102.58 44.48 102.615 44.6604C102.661 45.0042 102.638 45.3537 102.548 45.6886C102.47 45.9963 102.424 46.311 102.41 46.628C102.411 46.9271 102.491 47.2205 102.642 47.4787C102.94 47.9571 103.356 48.3504 103.851 48.6201C104.31 48.8893 104.769 49.0944 105.173 49.3208C105.542 49.5141 105.88 49.7628 106.174 50.0583C106.395 50.2845 106.571 50.5516 106.691 50.8447C106.766 51.0295 106.807 51.2266 106.81 51.4261C106.814 51.478 106.814 51.5302 106.81 51.5821C106.816 51.6005 106.813 51.6189 106.81 51.6189Z" fill="#263238"/>
    <path d="M97.8632 53.725C97.8161 53.7484 97.7654 53.7639 97.7133 53.7709C97.6509 53.786 97.5875 53.7962 97.5235 53.8015C97.4375 53.8144 97.3505 53.8206 97.2634 53.8198C96.6987 53.8204 96.1475 53.6473 95.6845 53.3241C95.3609 53.1052 95.0893 52.818 94.8889 52.4826C94.6752 52.0914 94.5362 51.6639 94.4788 51.2219C94.4236 50.7508 94.2891 50.2925 94.081 49.8663C93.8424 49.441 93.3987 49.1594 92.9978 48.7953C92.5882 48.4402 92.3208 47.949 92.245 47.4122C92.1737 46.9134 92.2741 46.4052 92.5296 45.9709C92.7788 45.6171 92.9929 45.24 93.1692 44.8448C93.2891 44.4918 93.3339 44.1177 93.3007 43.7463C93.24 43.2024 93.1094 42.6686 92.9121 42.1582C92.8352 41.9713 92.7688 41.7802 92.7132 41.5859C92.745 41.628 92.7708 41.6744 92.7897 41.7236C92.8326 41.8185 92.8968 41.9562 92.9703 42.1367C93.1933 42.6465 93.3427 43.1853 93.414 43.7371C93.4554 44.1258 93.4147 44.5188 93.2946 44.8907C93.1214 45.2955 92.9082 45.682 92.6581 46.0444C92.4212 46.4506 92.3305 46.9258 92.4011 47.3908C92.4717 47.8913 92.7218 48.3492 93.1049 48.679C93.4874 49.0279 93.9525 49.3216 94.2157 49.7867C94.4324 50.2286 94.5702 50.705 94.6227 51.1943C94.6734 51.6221 94.802 52.0369 95.0021 52.4183C95.1889 52.7415 95.4437 53.0202 95.7487 53.2354C96.1906 53.5561 96.7178 53.7382 97.2634 53.7586C97.649 53.7678 97.8601 53.7066 97.8632 53.725Z" fill="#263238"/>
    <path d="M106.796 39.0971C106.826 39.1327 106.844 39.1764 106.848 39.2226C106.855 39.2887 106.847 39.3555 106.827 39.4187C106.806 39.4819 106.773 39.5402 106.729 39.5898C106.661 39.6714 106.577 39.7382 106.482 39.786C106.387 39.8339 106.284 39.8619 106.178 39.8683C105.904 39.8516 105.638 39.772 105.401 39.6357C105.126 39.4824 104.821 39.3924 104.507 39.3725C104.142 39.3629 103.778 39.3958 103.421 39.4705C103.018 39.5577 102.609 39.6099 102.197 39.6265C101.734 39.6449 101.282 39.48 100.939 39.1675C100.632 38.8417 100.387 38.4621 100.217 38.0476C100.06 37.6761 99.8635 37.3231 99.6295 36.9949C99.4297 36.7264 99.156 36.5221 98.8419 36.4068C98.5277 36.2916 98.1867 36.2705 97.8608 36.3462C97.4166 36.4643 97.0345 36.7479 96.7928 37.1387C96.7079 37.2848 96.6323 37.4361 96.5664 37.5916C96.5664 37.5916 96.5664 37.5457 96.5909 37.46C96.6245 37.3359 96.6738 37.2166 96.7378 37.1051C96.9327 36.7446 97.2468 36.463 97.6263 36.3084C98.0058 36.1538 98.4272 36.1358 98.8186 36.2575C99.1845 36.3716 99.5055 36.5974 99.7366 36.9031C99.9798 37.2384 100.185 37.5996 100.349 37.9802C100.513 38.376 100.747 38.7389 101.04 39.0512C101.352 39.3375 101.765 39.4883 102.188 39.4705C102.591 39.4549 102.992 39.4058 103.387 39.3236C103.756 39.2505 104.132 39.2217 104.507 39.2379C104.837 39.2705 105.155 39.3749 105.44 39.5439C105.662 39.6783 105.911 39.7619 106.169 39.7887C106.264 39.7858 106.357 39.764 106.444 39.7246C106.531 39.6852 106.609 39.629 106.674 39.5592C106.716 39.5167 106.75 39.4661 106.772 39.4103C106.795 39.3546 106.806 39.295 106.805 39.2348C106.796 39.14 106.772 39.1002 106.796 39.0971Z" fill="#455A64"/>
    <path d="M105.061 38.2135C104.555 38.0973 104.104 37.8097 103.786 37.3994C103.467 36.9892 103.3 36.4814 103.313 35.9622C103.326 35.443 103.518 34.9443 103.857 34.5504C104.195 34.1566 104.66 33.8918 105.171 33.801C105.412 33.7417 105.666 33.7497 105.903 33.8241C106.14 33.8986 106.353 34.0366 106.517 34.2233C106.799 34.6058 106.78 35.178 107.129 35.4901C107.478 35.8022 108.102 35.6798 108.598 35.7961C108.978 35.9045 109.307 36.1442 109.527 36.4726C109.747 36.801 109.842 37.1967 109.798 37.5893C109.735 37.9795 109.572 38.3465 109.323 38.6536C109.074 38.9608 108.749 39.1973 108.381 39.3396C107.634 39.6121 106.818 39.6272 106.061 39.3824C105.311 39.1393 104.599 38.7933 103.944 38.3543" fill="#263238"/>
    <path d="M108.748 35.9944C108.719 36.1971 108.642 36.39 108.525 36.5575C108.27 36.9822 107.917 37.34 107.496 37.6009C107.076 37.8636 106.598 38.023 106.104 38.066C105.899 38.0977 105.69 38.082 105.492 38.0201C105.492 37.9926 105.725 38.0201 106.083 37.9528C106.551 37.8817 107 37.7162 107.402 37.4663C107.803 37.2142 108.149 36.8844 108.421 36.4963C108.632 36.1994 108.724 35.9852 108.748 35.9944Z" fill="#455A64"/>
    <path d="M107.125 39.388C106.73 38.8684 106.236 38.4333 105.67 38.1085C105.105 37.7836 104.479 37.5757 103.832 37.4969C104.025 37.4594 104.223 37.4594 104.416 37.4969C105.364 37.6358 106.224 38.129 106.822 38.877C106.957 39.0244 107.06 39.1985 107.125 39.388Z" fill="#2F27CE"/>
    <path d="M84.8271 72.7147L79.8668 71.7539L80.7604 73.0238L78.6428 74.0826L76.8711 73.2533C77.0088 73.6153 77.182 73.9628 77.3882 74.2906C77.7768 74.9363 78.3062 75.4565 78.6306 75.481C78.7394 75.9279 78.9654 76.3378 79.2854 76.6683C79.5734 76.9553 79.9309 77.1626 80.323 77.2698C80.7151 77.3771 81.1284 77.3807 81.5223 77.2803L84.8546 76.0746L84.8271 72.7147Z" fill="#FFBE9D"/>
    <path d="M79.8244 75.2021C79.7424 75.3047 79.6387 75.3878 79.5207 75.4455C79.4027 75.5032 79.2734 75.534 79.142 75.5356C79.0133 75.5625 78.8802 75.5613 78.7519 75.5323C78.6236 75.5032 78.5031 75.447 78.3984 75.3673C78.4168 75.3214 78.732 75.4254 79.1237 75.3673C79.5153 75.3092 79.7999 75.1623 79.8244 75.2021Z" fill="#EB996E"/>
    <path d="M80.4782 76.2585C80.5088 76.2891 80.2946 76.5278 79.9274 76.6226C79.821 76.6639 79.7068 76.6809 79.593 76.6724C79.4792 76.6639 79.3687 76.6302 79.2695 76.5737C79.2695 76.5278 79.5755 76.5553 79.8815 76.4696C80.1875 76.384 80.4415 76.2248 80.4782 76.2585Z" fill="#EB996E"/>
    <path d="M81.723 72.5215C81.5874 72.6194 81.443 72.7044 81.2916 72.7755C81.0253 72.9254 80.6796 73.1763 80.2909 73.4456C79.9582 73.6869 79.5881 73.8719 79.1955 73.9933C79.0334 74.0544 78.8578 74.0703 78.6875 74.0392C78.6875 74.0148 78.8772 73.9933 79.1618 73.8862C79.5292 73.7357 79.8783 73.5437 80.2022 73.314C80.5312 73.0747 80.8779 72.8609 81.2395 72.6745C81.3869 72.5872 81.5523 72.5348 81.723 72.5215Z" fill="#EB996E"/>
    <path d="M111.813 80.9492C111.813 80.9492 111.982 81.0563 112.404 81.806C113.698 84.1163 114.221 89.6519 109.344 94.5938C103.034 100.977 95.6442 111.424 95.6442 111.424L89.8302 135.953L81.0664 134.052L85.583 108.56L97.9668 85.5851L111.813 80.9492Z" fill="#263238"/>
    <path d="M121.481 128.423L107.98 107.761L103.886 89.9277L93.457 95.0532L98.6866 113.153L115.373 133.937L121.481 128.423Z" fill="#263238"/>
    <path d="M89.8359 135.952C89.838 135.911 89.8452 135.869 89.8574 135.83C89.8757 135.744 89.9002 135.628 89.9308 135.478C90.0042 135.172 90.1052 134.71 90.2368 134.128L91.3843 129.177C92.3666 124.991 93.7221 119.223 95.2215 112.852C95.3378 112.356 95.4541 111.864 95.5643 111.405V111.383C99.3893 106.487 102.875 102.157 105.439 99.0822C106.724 97.5522 107.774 96.3282 108.517 95.4897C108.881 95.0705 109.181 94.7584 109.38 94.5442L109.607 94.3024C109.659 94.2474 109.686 94.2198 109.689 94.2229C109.668 94.2544 109.645 94.2841 109.619 94.3116L109.402 94.5625C109.212 94.7859 108.921 95.1042 108.56 95.5295C107.832 96.371 106.798 97.6072 105.525 99.1525C102.982 102.246 99.5117 106.588 95.6897 111.481V111.451C95.5826 111.91 95.4663 112.402 95.347 112.898L91.4945 129.205C90.9896 131.283 90.5765 132.969 90.298 134.144C90.1542 134.719 90.044 135.172 89.9645 135.484C89.9277 135.634 89.8971 135.747 89.8757 135.833C89.8662 135.874 89.8529 135.914 89.8359 135.952Z" fill="#455A64"/>
    <path d="M105.667 87.4694C105.605 87.5212 105.533 87.5607 105.456 87.5857C105.254 87.6733 105.044 87.7419 104.829 87.7907C104.113 87.954 103.368 87.932 102.663 87.727C101.958 87.5219 101.318 87.1405 100.802 86.6187C100.646 86.4621 100.505 86.2921 100.379 86.1108C100.294 85.9792 100.254 85.9027 100.263 85.8966C100.272 85.8905 100.477 86.1659 100.875 86.5361C101.395 87.0196 102.021 87.3748 102.702 87.5735C103.384 87.7722 104.103 87.8089 104.801 87.6806C105.343 87.5826 105.658 87.4449 105.667 87.4694Z" fill="#455A64"/>
    <path d="M113.112 82.0092C107.83 84.7907 99.259 86.4523 96.5172 85.3232L96.4223 75.1487C96.4223 75.1487 92.6677 68.9583 92.6524 66.6174C92.631 63.2514 96.8324 55.5494 96.8324 55.5494L103.139 53.8572C104.409 53.8301 105.665 54.1226 106.793 54.7079C107.972 55.3615 108.932 56.3494 109.551 57.5474C110.17 58.7453 110.421 60.0997 110.272 61.4399L108.684 71.5623L113.112 82.0092Z" fill="#2F27CE"/>
    <g opacity="0.3">
        <path d="M106.344 54.6968C106.711 54.6417 106.846 55.2384 106.586 55.5016C106.326 55.7648 105.913 55.777 105.549 55.8321C103.905 56.0891 102.635 57.4967 102.039 59.0481C101.442 60.5996 101.384 62.2948 101.286 63.9441C101.188 65.5935 101.026 67.3101 100.246 68.782C99.5171 67.4904 99.0852 66.0528 98.9815 64.5736C98.8778 63.0943 99.1047 61.6105 99.6459 60.2299C100.187 58.8492 101.029 57.6065 102.11 56.5917C103.192 55.577 104.485 54.8157 105.897 54.3633" fill="black"/>
    </g>
    <path d="M106.794 54.706C106.794 54.706 105.876 53.2097 102.841 53.8584C100.809 54.2929 96.366 58.5616 97.6053 65.4191C98.8446 72.2765 102.168 74.7062 102.168 74.7062C102.168 74.7062 99.1077 64.2073 100.809 59.6265C101.254 58.3332 102.05 57.1887 103.106 56.3201C104.163 55.4515 105.439 54.8928 106.794 54.706Z" fill="#263238"/>
    <g opacity="0.3">
        <path d="M96.5391 77.3073C97.7967 77.7112 99.0024 78.2253 100.312 78.3906C101.623 78.6056 102.967 78.4651 104.204 77.9836C105.884 77.2676 107.133 75.7375 107.775 74.027C108.418 72.3165 108.507 70.4437 108.335 68.623C107.188 70.0429 107.326 72.1451 106.349 73.6904C105.737 74.6543 104.743 75.3122 103.721 75.8324C101.485 76.9077 99.0184 77.4173 96.5391 77.3165" fill="black"/>
    </g>
    <path d="M100.323 66.9141C100.323 66.9141 99.9126 74.6375 109.334 73.1014L110.283 75.3352C110.283 75.3352 100.378 77.4282 98.9609 69.2152L100.323 66.9141Z" fill="#263238"/>
    <path d="M108.907 57.3133C109.304 57.9025 109.571 58.569 109.691 59.2689C109.811 59.9688 109.782 60.6862 109.605 61.3739L107.258 71.8789C106.251 74.8349 103.378 76.6311 101.591 76.8698L84.8555 78.6415V72.396L100.391 70.0888L101.119 61.582C101.184 60.4376 101.747 58.3812 102.475 57.4938C103.289 56.5055 104.54 55.1591 106.585 55.5018C107.836 55.7099 108.369 56.5452 108.907 57.3133Z" fill="#2F27CE"/>
    <path d="M109.393 61.7852C109.395 61.864 109.39 61.9429 109.377 62.0208C109.359 62.1768 109.332 62.4033 109.292 62.697C109.212 63.2846 109.09 64.1291 108.903 65.1695C108.716 66.2099 108.478 67.4492 108.163 68.8109C108.007 69.4902 107.838 70.2063 107.633 70.9529C107.433 71.7174 107.158 72.4604 106.813 73.1714C106.465 73.8865 105.985 74.53 105.399 75.0686C104.854 75.568 104.234 75.9807 103.563 76.2926C102.426 76.8025 101.21 77.118 99.968 77.2259C98.9123 77.333 98.0555 77.3391 97.4649 77.3453H96.7825C96.7041 77.3524 96.6253 77.3524 96.5469 77.3453C96.6246 77.3314 96.7035 77.3253 96.7825 77.3269L97.4618 77.2994C98.0524 77.2749 98.9092 77.2504 99.9557 77.128C101.181 77.007 102.379 76.6844 103.499 76.1733C104.157 75.8692 104.765 75.4668 105.302 74.9799C105.87 74.4503 106.337 73.8207 106.679 73.1225C107.018 72.4206 107.289 71.688 107.489 70.9346C107.694 70.2063 107.866 69.4933 108.028 68.814C108.334 67.4553 108.603 66.2252 108.799 65.1879C108.995 64.1505 109.139 63.309 109.237 62.7399C109.286 62.4614 109.322 62.238 109.35 62.0697C109.357 61.9739 109.371 61.8788 109.393 61.7852Z" fill="#263238"/>
    <path d="M100.841 71.8797C100.667 71.596 100.54 71.286 100.465 70.9617C100.337 70.6569 100.261 70.3334 100.238 70.0039C100.541 70.5884 100.747 71.2176 100.85 71.8674L100.841 71.8797Z" fill="#263238"/>
    <path d="M101.794 71.6413C101.463 71.4863 101.172 71.2595 100.94 70.9772C100.671 70.7318 100.462 70.4283 100.328 70.0898C100.59 70.3338 100.835 70.5944 101.063 70.8701C101.324 71.1101 101.568 71.3678 101.794 71.6413Z" fill="#263238"/>
    <path d="M86.3125 72.1822L86.3829 72.1638L86.591 72.124L87.3927 71.9925L90.3701 71.5243L100.367 70.0126L100.3 70.083C100.355 69.5016 100.413 68.8896 100.474 68.2654C100.673 66.0591 100.884 63.9569 100.988 62.0383C101.061 61.1261 101.235 60.2249 101.508 59.3516C101.728 58.5785 102.1 57.8574 102.604 57.231C103.595 56.1508 104.706 55.5786 105.523 55.4746C105.835 55.4301 106.152 55.4363 106.463 55.4929C106.567 55.5144 106.646 55.5388 106.698 55.5541L106.778 55.5817C106.369 55.4879 105.947 55.4723 105.532 55.5358C104.737 55.6551 103.654 56.2335 102.69 57.3075C102.202 57.9241 101.844 58.6329 101.637 59.3914C101.37 60.256 101.202 61.1481 101.135 62.0505C101.04 63.9691 100.829 66.0744 100.63 68.2807C100.572 68.8927 100.514 69.5047 100.456 70.0983V70.1595H100.395L90.3762 71.6222L87.3927 72.0384L86.5848 72.1455L86.3768 72.1699L86.3125 72.1822Z" fill="#263238"/>
    <path d="M95.8929 77.2709C95.85 77.2709 95.6725 75.8602 95.4981 74.1129C95.3237 72.3657 95.2166 70.9397 95.2594 70.9336C95.4466 71.9797 95.5794 73.0347 95.6572 74.0946C95.7902 75.1486 95.8688 76.2088 95.8929 77.2709Z" fill="#FAFAFA"/>
    <path d="M108.142 67.7883C107.788 67.8188 107.432 67.8239 107.077 67.8036C106.419 67.8036 105.513 67.7669 104.51 67.7302C103.506 67.6935 102.6 67.6506 101.945 67.6109C101.591 67.6051 101.237 67.5734 100.887 67.516C101.241 67.4813 101.597 67.4751 101.952 67.4976C102.606 67.4976 103.515 67.5344 104.516 67.5711C105.516 67.6078 106.422 67.6506 107.08 67.6904C107.436 67.6947 107.791 67.7274 108.142 67.7883Z" fill="#FAFAFA"/>
    <path d="M97.5186 65.7898C97.2916 65.8482 97.0584 65.879 96.824 65.8816C96.3956 65.9122 95.7989 65.9336 95.141 65.9214C94.4831 65.9091 93.8864 65.8632 93.458 65.8143C93.2244 65.8039 92.993 65.7638 92.7695 65.6949C93.0015 65.672 93.2352 65.672 93.4672 65.6949C93.8956 65.7164 94.4892 65.7408 95.1441 65.7531C95.7989 65.7653 96.3926 65.7531 96.821 65.7531C97.0542 65.7395 97.2882 65.7518 97.5186 65.7898Z" fill="#FAFAFA"/>
    <path d="M98.9005 58.5314C98.876 58.5712 98.2334 58.2254 97.4011 57.9194C96.5688 57.6134 95.8711 57.4268 95.8711 57.3809C96.9591 57.5137 97.9986 57.9085 98.9005 58.5314Z" fill="#FAFAFA"/>
    <path d="M111.058 77.623C111.016 77.6531 110.97 77.6768 110.921 77.6934L110.517 77.8587C110.168 78.0025 109.654 78.1922 109.014 78.4156C107.345 78.9903 105.647 79.4744 103.926 79.866C102.204 80.2668 100.463 80.5732 98.7083 80.784C98.0351 80.8605 97.4843 80.9125 97.111 80.937L96.6764 80.9615C96.6258 80.9696 96.5741 80.9696 96.5234 80.9615C96.5718 80.9446 96.6223 80.9344 96.6734 80.9309L97.1048 80.8758C97.4812 80.833 98.0228 80.7657 98.696 80.6739C100.033 80.4903 101.878 80.1873 103.898 79.7283C105.918 79.2693 107.702 78.7369 108.987 78.3177C109.629 78.1096 110.15 77.9352 110.517 77.8097L110.93 77.672C110.971 77.6518 111.014 77.6354 111.058 77.623Z" fill="#FAFAFA"/>
    <path d="M110.058 59.3251C110.058 59.3679 108.252 59.3465 106.028 59.2731C103.803 59.1996 102.004 59.1078 102.004 59.065C102.004 59.0222 103.809 59.0436 106.034 59.1139C108.259 59.1843 110.058 59.2792 110.058 59.3251Z" fill="#FAFAFA"/>
    <path d="M88.4952 78.1805C88.3774 77.1646 88.312 76.1432 88.2994 75.1205C88.2329 74.1019 88.2207 73.0805 88.2627 72.0605C88.3805 73.0765 88.4459 74.0979 88.4585 75.1205C88.525 76.1392 88.5372 77.1606 88.4952 78.1805Z" fill="#FAFAFA"/>
    <path d="M54.2614 46.8851C56.9857 46.3793 59.7983 46.6749 62.3581 47.7358C63.4934 48.2101 64.6195 48.8802 65.2315 49.9481C65.9597 51.2089 65.8435 52.7633 65.7608 54.2168C65.6008 57.1781 65.7032 60.1477 66.0668 63.0908C66.3728 65.5388 66.8533 67.9868 66.8441 70.4348C66.8349 72.8828 66.2841 75.4594 64.7388 77.381C62.3551 80.3401 58.1108 81.1724 54.3348 80.6675C52.3519 80.4043 50.3721 79.8107 48.7534 78.6295C47.1346 77.4484 45.9229 75.6277 45.7852 73.6325" fill="#455A64"/>
    <path d="M58.9805 50.6367C59.3334 51.0542 59.6335 51.5136 59.874 52.0045C60.1223 52.5453 60.327 53.105 60.486 53.6784C60.6771 54.3893 60.9132 55.0874 61.1928 55.7683C61.4844 56.4611 61.9377 57.0739 62.5148 57.5554C62.9959 57.9509 63.5994 58.1672 64.2222 58.1674C64.6359 58.1714 65.0419 58.0556 65.3912 57.8338C65.4845 57.7723 65.5699 57.6993 65.6451 57.6166C65.6972 57.5615 65.7216 57.5278 65.7155 57.5248C65.7094 57.5217 65.5931 57.6258 65.3483 57.7665C65.002 57.9559 64.6105 58.0469 64.2161 58.0297C63.6308 58.0116 63.0689 57.7959 62.6219 57.4177C62.0776 56.9481 61.6502 56.3583 61.3734 55.6949C61.0952 55.0218 60.8561 54.3332 60.6573 53.6325C60.4885 53.0535 60.2694 52.4903 60.0025 51.9495C59.8191 51.5846 59.5875 51.246 59.314 50.9427C59.2211 50.8225 59.1083 50.719 58.9805 50.6367Z" fill="#263238"/>
    <path d="M60.0587 80.478C60.0823 80.4003 60.0977 80.3203 60.1046 80.2394C60.1291 80.0598 60.1597 79.8273 60.1964 79.5417C60.2729 78.9297 60.3739 78.0606 60.5024 76.9774C60.7319 74.8078 61.0073 71.8091 61.246 68.492C61.4847 65.175 61.6285 62.1639 61.7081 59.9822C61.7479 58.8928 61.7723 58.0115 61.7815 57.4026C61.7815 57.1149 61.7815 56.8824 61.7815 56.7018C61.7909 56.6205 61.7909 56.5384 61.7815 56.457C61.7643 56.5365 61.7551 56.6175 61.754 56.6988C61.754 56.8824 61.7264 57.1119 61.7081 57.3995C61.6744 58.0329 61.6285 58.9081 61.5704 59.976C61.4541 62.1548 61.2828 65.1597 61.0502 68.4767C60.8176 71.7938 60.5575 74.7925 60.3647 76.9621C60.2699 78.03 60.1934 78.9021 60.1383 79.5325C60.1138 79.8201 60.0955 80.0527 60.0832 80.2332C60.0656 80.3136 60.0573 80.3958 60.0587 80.478Z" fill="#263238"/>
    <path d="M61.2695 67.1881C61.2695 67.2402 62.4507 67.4054 63.9287 67.4421C65.4067 67.4788 66.6001 67.3809 66.597 67.3258C66.5939 67.2708 65.4036 67.2799 63.9348 67.2402C62.466 67.2004 61.2757 67.13 61.2695 67.1881Z" fill="#263238"/>
    <path d="M62.2299 67.3203C62.1105 67.4801 62.027 67.6638 61.9851 67.8589C61.9188 68.0592 61.8656 68.2636 61.826 68.4709C61.7924 68.6076 61.7924 68.7503 61.826 68.887C61.8492 68.9704 61.8953 69.0456 61.9592 69.104C62.023 69.1624 62.102 69.2018 62.187 69.2175C62.235 69.2248 62.284 69.2215 62.3306 69.2078C62.3771 69.194 62.42 69.1702 62.4563 69.138C62.5218 69.0795 62.566 69.0009 62.5818 68.9146C62.603 68.7808 62.603 68.6445 62.5818 68.5107C62.5604 68.2952 62.5194 68.0822 62.4594 67.8742C62.4234 67.6765 62.3417 67.49 62.2207 67.3295C62.2327 67.5254 62.2666 67.7194 62.3217 67.9078C62.3584 68.1102 62.3829 68.3145 62.3951 68.5198C62.4122 68.6334 62.4122 68.7489 62.3951 68.8626C62.3706 68.9666 62.3064 69.0247 62.2238 69.0125C62.0126 68.9758 61.9667 68.7065 62.0096 68.4954C62.0524 68.2842 62.0861 68.0517 62.1228 67.8834C62.1821 67.7009 62.2181 67.5118 62.2299 67.3203Z" fill="#263238"/>
    <path d="M51.4649 47.6291L64.2702 48.0517C65.89 48.1051 67.2465 46.8353 67.2999 45.2155L67.3821 42.726C67.4355 41.1062 66.1657 39.7497 64.5459 39.6963L51.7406 39.2737C50.1208 39.2203 48.7644 40.4901 48.7109 42.1099L48.6288 44.5994C48.5753 46.2192 49.8451 47.5756 51.4649 47.6291Z" fill="#263238"/>
    <path d="M64.2414 39.8528C64.2414 39.8528 64.2077 39.8222 64.1312 39.7855C64.0176 39.7323 63.8971 39.6952 63.7732 39.6753C63.311 39.6061 62.8388 39.6944 62.4329 39.9262C61.8168 40.2317 61.2938 40.6966 60.9182 41.2726C60.4866 41.9929 60.2396 42.8085 60.1991 43.6472C60.1185 44.488 60.29 45.3339 60.6918 46.0768C61.0222 46.6839 61.5276 47.1775 62.1422 47.4936C62.5507 47.7059 63.0011 47.8251 63.4611 47.8425C63.5858 47.8477 63.7108 47.8415 63.8344 47.8241C63.8779 47.8229 63.9207 47.8125 63.9599 47.7935C63.9599 47.7751 63.7824 47.7935 63.4672 47.7629C63.0252 47.7177 62.5972 47.5823 62.2096 47.3651C61.6328 47.0485 61.1615 46.5697 60.854 45.9881C60.4804 45.2733 60.323 44.4652 60.4011 43.6625C60.4402 42.8559 60.671 42.0702 61.0743 41.3706C61.4287 40.816 61.9198 40.3619 62.5003 40.0517C62.8791 39.8199 63.3211 39.7128 63.764 39.7457C64.0762 39.7794 64.2353 39.8712 64.2414 39.8528Z" fill="#455A64"/>
    <path d="M57.0327 39.4121L58.9789 39.51C58.444 39.5919 57.9563 39.8634 57.6049 40.275C57.2581 40.6847 57.0026 41.1635 56.8552 41.6796C56.179 43.8216 56.996 46.3858 58.6912 47.8638L57.1154 47.8393C57.1154 47.8393 53.2812 43.2126 57.0205 39.4121" fill="#455A64"/>
    <path d="M47.5241 35.747C46.7285 33.8222 46.6856 30.4807 47.9004 28.709C49.1153 26.9372 51.3919 25.7897 53.4819 25.343C53.8258 25.2372 54.1936 25.2372 54.5376 25.343C54.7051 25.406 54.8428 25.5298 54.9233 25.6896C55.0038 25.8495 55.0212 26.0338 54.9721 26.2059C55.3782 25.9271 55.8282 25.7182 56.3032 25.5878C56.5421 25.5203 56.7939 25.513 57.0362 25.5664C57.2786 25.6197 57.504 25.7322 57.6924 25.8938C57.7832 25.9769 57.8564 26.0774 57.9076 26.1893C57.9587 26.3013 57.9869 26.4224 57.9903 26.5454C57.9937 26.6685 57.9724 26.7909 57.9275 26.9056C57.8827 27.0202 57.8152 27.1246 57.7292 27.2126C58.0237 27.1034 58.3438 27.0833 58.6496 27.1547C58.9555 27.2262 59.2336 27.386 59.4492 27.6144C59.6649 27.8428 59.8085 28.1295 59.8624 28.439C59.9162 28.7484 59.8777 29.0669 59.7518 29.3546C59.4656 29.9439 59.0688 30.4727 58.5829 30.9122C58.1453 31.3161 58.0719 31.7323 58.1453 32.3228" fill="#263238"/>
    <path d="M48.0236 32.2191L47.4728 43.994C47.45 44.4686 47.5239 44.9429 47.6901 45.388C47.8563 45.8331 48.1114 46.2398 48.4397 46.5832C48.768 46.9267 49.1627 47.1998 49.5999 47.386C50.037 47.5721 50.5075 47.6674 50.9826 47.666C51.882 47.6614 52.7453 47.3114 53.394 46.6884C54.0427 46.0653 54.4272 45.2169 54.468 44.3184C54.5077 43.431 54.5445 42.6904 54.5536 42.6017C54.5536 42.6017 57.5647 42.4609 57.9196 39.505C58.091 38.076 58.2073 35.1047 58.2777 32.415C58.3148 31.0218 57.826 29.6658 56.9086 28.6167C55.9911 27.5677 54.7122 26.9027 53.3266 26.754L53.042 26.7234C49.9514 26.5704 48.0909 29.1163 48.0236 32.2191Z" fill="#FFBE9D"/>
    <path d="M54.5714 42.5585C53.2024 42.4376 51.9005 41.9113 50.832 41.0469C50.832 41.0469 51.4226 42.8982 54.4031 42.9502L54.5714 42.5585Z" fill="#EB996E"/>
    <path d="M57.2195 34.3025C57.2086 34.4132 57.1548 34.5152 57.0695 34.5868C56.9843 34.6583 56.8744 34.6935 56.7635 34.685C56.7094 34.6834 56.6561 34.671 56.6069 34.6485C56.5577 34.626 56.5135 34.5937 56.4769 34.5538C56.4404 34.5138 56.4122 34.4669 56.3942 34.4158C56.3761 34.3648 56.3685 34.3106 56.3718 34.2566C56.3827 34.1464 56.4361 34.0449 56.5207 33.9734C56.6052 33.902 56.7143 33.8664 56.8247 33.8741C56.8789 33.876 56.9321 33.8887 56.9813 33.9114C57.0305 33.934 57.0747 33.9662 57.1114 34.006C57.1481 34.0458 57.1765 34.0925 57.1951 34.1434C57.2136 34.1943 57.2219 34.2484 57.2195 34.3025Z" fill="#263238"/>
    <path d="M57.4931 33.7976C57.435 33.8466 57.1412 33.5773 56.6853 33.5284C56.2293 33.4794 55.8744 33.6722 55.8315 33.611C55.7887 33.5498 55.8713 33.4886 56.0304 33.3998C56.2418 33.2853 56.4831 33.2383 56.722 33.2652C56.959 33.2901 57.1819 33.3898 57.3585 33.5498C57.487 33.6599 57.5268 33.7762 57.4931 33.7976Z" fill="#263238"/>
    <path d="M52.7309 33.9668C52.72 34.0769 52.6666 34.1785 52.582 34.2499C52.4975 34.3213 52.3884 34.357 52.278 34.3493C52.2239 34.3473 52.1706 34.3346 52.1214 34.312C52.0722 34.2893 52.028 34.2572 51.9913 34.2173C51.9546 34.1775 51.9262 34.1308 51.9076 34.0799C51.8891 34.029 51.8808 33.975 51.8832 33.9209C51.8934 33.8104 51.9465 33.7084 52.0313 33.6368C52.116 33.5652 52.2255 33.5299 52.3361 33.5384C52.3905 33.5395 52.4441 33.5516 52.4937 33.574C52.5433 33.5963 52.5879 33.6285 52.6247 33.6685C52.6616 33.7085 52.69 33.7555 52.7082 33.8068C52.7265 33.858 52.7342 33.9125 52.7309 33.9668Z" fill="#263238"/>
    <path d="M53.0116 33.399C52.9534 33.448 52.6597 33.1787 52.2037 33.1298C51.7478 33.0808 51.3898 33.2736 51.3469 33.2124C51.3041 33.1512 51.3898 33.093 51.5458 33.0012C51.7584 32.887 52.0006 32.84 52.2405 32.8666C52.477 32.893 52.6995 32.9924 52.8769 33.1512C53.0024 33.2736 53.0391 33.3776 53.0116 33.399Z" fill="#263238"/>
    <path d="M54.3008 36.9532C54.5482 36.902 54.8013 36.8834 55.0535 36.8982C55.1698 36.8982 55.283 36.8982 55.3106 36.8125C55.3344 36.6939 55.3205 36.5708 55.2708 36.4606L55.0229 35.5426C54.6802 34.2329 54.4477 33.1588 54.4997 33.1466C54.5517 33.1344 54.873 34.1839 55.2157 35.4967C55.2953 35.8027 55.3748 36.127 55.4483 36.4147C55.5023 36.564 55.5023 36.7274 55.4483 36.8767C55.4278 36.9163 55.3982 36.9504 55.3621 36.9765C55.3259 37.0025 55.2842 37.0197 55.2402 37.0267C55.1742 37.0356 55.1073 37.0356 55.0413 37.0267C54.7923 37.0346 54.5434 37.0099 54.3008 36.9532Z" fill="#263238"/>
    <path d="M52.9369 37.1233C53.0104 37.1233 52.9583 37.619 53.3439 38.0168C53.7295 38.4146 54.2619 38.4146 54.2619 38.485C54.2619 38.5554 54.1364 38.5676 53.9131 38.5492C53.6228 38.5228 53.3516 38.3937 53.1481 38.1851C52.9528 37.9868 52.843 37.7198 52.8421 37.4415C52.8268 37.2334 52.8941 37.1172 52.9369 37.1233Z" fill="#263238"/>
    <path d="M53.3237 31.6319C53.2656 31.7512 52.8188 31.6319 52.2772 31.6502C51.7356 31.6686 51.2888 31.7543 51.2307 31.6502C51.2062 31.5921 51.2919 31.485 51.4785 31.384C51.726 31.2589 51.9999 31.1948 52.2772 31.1973C52.5538 31.1947 52.8273 31.2565 53.0758 31.3779C53.2625 31.4666 53.3512 31.5737 53.3237 31.6319Z" fill="#263238"/>
    <path d="M57.4692 32.4642C57.3774 32.5591 57.0775 32.4183 56.7011 32.3724C56.3247 32.3265 55.9973 32.3724 55.9361 32.25C55.9086 32.1949 55.9698 32.097 56.1197 32.0144C56.3182 31.9205 56.5398 31.8867 56.7573 31.9171C56.9748 31.9476 57.1786 32.0409 57.3437 32.1857C57.4783 32.3051 57.5089 32.4183 57.4692 32.4642Z" fill="#263238"/>
    <path d="M48.0422 34.4369C47.9932 34.4094 46.0746 33.6168 45.9185 35.6456C45.7625 37.6744 47.8372 37.4143 47.8433 37.3562C47.8494 37.298 48.0422 34.4369 48.0422 34.4369Z" fill="#FFBE9D"/>
    <path d="M47.2694 36.5401C47.2694 36.5401 47.2327 36.5616 47.1684 36.586C47.0838 36.6189 46.9899 36.6189 46.9053 36.586C46.7803 36.4928 46.6824 36.368 46.6216 36.2244C46.5609 36.0808 46.5394 35.9236 46.5595 35.769C46.5681 35.5946 46.6151 35.4243 46.6972 35.2702C46.7211 35.2087 46.7595 35.1538 46.809 35.1102C46.8585 35.0665 46.9177 35.0354 46.9818 35.0193C47.0234 35.0115 47.0664 35.0186 47.1033 35.0393C47.1402 35.06 47.1687 35.093 47.1837 35.1325C47.2082 35.1907 47.1837 35.2305 47.2021 35.2335C47.2204 35.2366 47.248 35.2029 47.2388 35.1203C47.2304 35.069 47.2057 35.0218 47.1684 34.9857C47.1155 34.9388 47.0463 34.9146 46.9756 34.9183C46.8912 34.9286 46.8107 34.9605 46.7421 35.0109C46.6735 35.0613 46.6191 35.1285 46.584 35.206C46.4833 35.3749 46.4265 35.5664 46.4187 35.7629C46.394 35.943 46.4232 36.1263 46.5027 36.2897C46.5823 36.4532 46.7085 36.5893 46.8655 36.6809C46.9192 36.7012 46.9767 36.7092 47.0338 36.7045C47.091 36.6997 47.1464 36.6823 47.196 36.6534C47.2602 36.5891 47.2755 36.5432 47.2694 36.5401Z" fill="#EB996E"/>
    <path d="M59.8757 28.6817C59.9124 31.3317 56.5862 32.1824 55.2857 30.6034C54.6737 29.8721 54.1688 28.9755 53.2967 28.6022C52.9982 28.4862 52.6797 28.4311 52.3596 28.44C52.0396 28.449 51.7246 28.5218 51.4331 28.6542H51.4148C50.5457 29.0245 49.9766 29.9547 49.7746 30.8788C49.4961 32.1671 49.6155 33.3268 49.1871 34.4988C49.143 34.6745 49.0419 34.8306 48.8994 34.9425C48.6424 35.0986 48.2874 34.918 48.113 34.6763C47.8455 34.2659 47.7041 33.7861 47.706 33.2962C47.6117 32.1888 47.7386 31.0738 48.0794 30.0159C48.4251 28.9552 49.0741 28.0191 49.946 27.3231C51.0699 26.4936 52.4719 26.1327 53.8566 26.3164C55.2368 26.5092 56.5214 27.1311 57.5286 28.0942C58.0154 28.518 58.3888 29.0565 58.6149 29.6609" fill="#263238"/>
    <path d="M57.8344 27.0695C57.9296 27.0568 58.0264 27.0683 58.1159 27.1031C58.3649 27.1865 58.5854 27.3381 58.7524 27.5407C59.0104 27.8353 59.1613 28.2084 59.1808 28.5995C59.1843 29.0819 59.0088 29.5486 58.6881 29.9091C58.38 30.2696 57.9773 30.5367 57.5253 30.6803C57.1616 30.7967 56.781 30.8516 56.3993 30.8424C56.1445 30.8378 55.8906 30.8112 55.6404 30.7629C55.5463 30.7538 55.4549 30.7268 55.3711 30.6833C55.3711 30.6558 55.7658 30.7445 56.3962 30.7323C56.7646 30.7252 57.1299 30.6622 57.4794 30.5456C57.9017 30.4011 58.2777 30.1465 58.5688 29.8082C58.8641 29.4767 59.0294 29.0495 59.0339 28.6056C59.0245 28.2432 58.8966 27.8939 58.6698 27.6111C58.5183 27.4174 58.319 27.2666 58.0914 27.1735C57.9354 27.0939 57.8344 27.0848 57.8344 27.0695Z" fill="#455A64"/>
    <path d="M56.548 26.0355C56.548 26.0355 56.6245 26.0171 56.7408 26.0844C56.8185 26.1356 56.8841 26.2032 56.9327 26.2825C56.9814 26.3619 57.012 26.451 57.0223 26.5434C57.0421 26.8156 56.9664 27.0862 56.8081 27.3084C56.6408 27.5817 56.4347 27.8291 56.1961 28.0428C55.7611 28.435 55.2353 28.7127 54.6661 28.8507C54.4357 28.9223 54.1929 28.9452 53.9531 28.918C53.9531 28.8874 54.2224 28.8752 54.6355 28.7436C55.1717 28.5798 55.6656 28.301 56.0829 27.9266C56.3123 27.7225 56.5149 27.4901 56.6857 27.235C56.8331 27.0404 56.9126 26.8029 56.9121 26.5588C56.9071 26.4781 56.886 26.3993 56.8503 26.3268C56.8146 26.2543 56.7649 26.1896 56.7041 26.1365C56.6092 26.063 56.5449 26.0477 56.548 26.0355Z" fill="#455A64"/>
    <path d="M47.9416 54.9481L48.8933 47.9897L35.2181 50.7437L22.7731 46.4199L19.4102 49.8777L32.6538 56.6985C33.835 57.2626 35.166 57.4331 36.4513 57.185L47.9416 54.9481Z" fill="#FFBE9D"/>
    <path d="M22.7745 46.4194C22.7745 46.4194 18.0162 44.1427 17.7102 44.0632C17.4745 44.002 13.8821 43.8123 12.245 43.7266C12.1167 43.7255 11.9926 43.7724 11.8971 43.8582C11.8017 43.9439 11.7417 44.0623 11.7291 44.1899C11.7164 44.3176 11.752 44.4454 11.8288 44.5483C11.9055 44.6511 12.018 44.7214 12.144 44.7456H12.2052C13.1232 44.8221 15.1306 45.2811 15.1306 45.2811L14.2126 47.4231C14.1681 47.5292 14.1605 47.6472 14.191 47.7581C14.2215 47.8691 14.2884 47.9666 14.3809 48.0351L17.1502 50.0822C17.5128 50.2471 17.9124 50.3135 18.3089 50.2748C18.7053 50.2362 19.0846 50.0937 19.4085 49.8619L20.6325 50.1128L22.7745 46.4194Z" fill="#FFBE9D"/>
    <path d="M14.2031 47.558C14.2888 47.9588 15.2435 48.782 15.9687 48.782C16.1287 48.7846 16.2842 48.7292 16.4063 48.6259C16.4643 48.5716 16.5049 48.5014 16.5228 48.424C16.5408 48.3466 16.5354 48.2657 16.5073 48.1914C16.4562 48.1 16.3838 48.0223 16.2962 47.965L14.6866 46.7012" fill="#FFBE9D"/>
    <path d="M14.6851 46.7012C14.9249 46.8294 15.1514 46.9811 15.3613 47.1541L16.0682 47.6834C16.2028 47.7875 16.3375 47.8762 16.4843 48.0109C16.5266 48.0501 16.5605 48.0974 16.5842 48.1499C16.6078 48.2025 16.6207 48.2592 16.622 48.3169C16.6224 48.4281 16.5846 48.5361 16.5149 48.6229C16.4446 48.7021 16.3569 48.764 16.2587 48.8038C16.1606 48.8436 16.0545 48.8602 15.9488 48.8524C15.7659 48.843 15.5863 48.7994 15.4195 48.7238C15.1424 48.6045 14.887 48.4401 14.6636 48.2373C14.5113 48.1028 14.3802 47.946 14.275 47.7722C14.2046 47.6437 14.2016 47.558 14.2108 47.558C14.2199 47.558 14.2444 47.6284 14.327 47.7385C14.4466 47.8922 14.5843 48.0309 14.7371 48.1516C14.9602 48.3328 15.2086 48.4802 15.4745 48.5892C15.6271 48.6531 15.7897 48.6894 15.955 48.6963C16.0356 48.7024 16.1166 48.6902 16.1919 48.6605C16.2671 48.6308 16.3347 48.5845 16.3895 48.5249C16.4385 48.4691 16.4656 48.3973 16.4656 48.323C16.4656 48.2486 16.4385 48.1769 16.3895 48.121C16.2732 48.0109 16.1171 47.9038 15.9947 47.815L15.2971 47.2428C15.0742 47.0847 14.869 46.9032 14.6851 46.7012Z" fill="#EB996E"/>
    <path d="M18.0517 48.7947C18.0517 48.7947 17.9446 48.7396 17.8466 48.5866C17.7188 48.3835 17.647 48.1502 17.6386 47.9103C17.6262 47.6723 17.6758 47.4351 17.7824 47.2218C17.8681 47.0597 17.9537 46.9832 17.969 46.9954C17.8657 47.2909 17.8079 47.6005 17.7977 47.9134C17.8365 48.2185 17.9222 48.5157 18.0517 48.7947Z" fill="#EB996E"/>
    <path d="M16.1447 47.6969C16.2108 47.8213 16.3177 47.9191 16.4475 47.9739C16.5773 48.0286 16.722 48.0369 16.8572 47.9974C16.9924 47.9578 17.1098 47.8728 17.1896 47.7568C17.2694 47.6407 17.3067 47.5007 17.2953 47.3603C17.2681 47.1898 17.2062 47.0266 17.1136 46.8808C17.021 46.7351 16.8995 46.6098 16.7567 46.5127L15.5664 45.4355" fill="#FFBE9D"/>
    <path d="M15.5664 45.4219C15.7469 45.5273 15.9143 45.6536 16.0652 45.7983L16.5762 46.2358C16.7991 46.4122 17.004 46.61 17.1882 46.8264C17.2829 46.9501 17.346 47.0951 17.3718 47.2487C17.3959 47.3974 17.3678 47.5499 17.2922 47.6802C17.2335 47.7905 17.1451 47.8823 17.0369 47.945C16.9288 48.0077 16.8052 48.0389 16.6802 48.0351C16.5164 48.0273 16.3615 47.9585 16.2457 47.8423C16.1662 47.7597 16.1478 47.6985 16.1539 47.6955C16.16 47.6924 16.2029 47.7352 16.2855 47.7964C16.4012 47.8799 16.5407 47.9239 16.6833 47.9219C16.7834 47.9185 16.8808 47.8884 16.9653 47.8345C17.0498 47.7807 17.1183 47.7052 17.1637 47.6159C17.2154 47.503 17.2331 47.3774 17.2146 47.2546C17.1961 47.1318 17.1423 47.0171 17.0597 46.9243C16.8838 46.7193 16.6925 46.528 16.4875 46.3521L15.9979 45.887C15.8336 45.7523 15.6884 45.5958 15.5664 45.4219Z" fill="#EB996E"/>
    <path d="M18.1828 45.2422C17.2227 45.4716 16.3061 45.8549 15.4686 46.3774C15.415 46.4036 15.3727 46.4481 15.3493 46.5029C15.3248 46.5825 15.386 46.659 15.4502 46.711C15.7139 46.8894 16.0349 46.9626 16.3499 46.916C16.66 46.8666 16.9726 46.8339 17.2862 46.8181C17.8309 46.8181 18.3328 47.0904 18.8591 47.2373C19.3854 47.3842 20.0219 47.3781 20.3891 46.968" fill="#FFBE9D"/>
    <path d="M20.3864 46.968C20.3864 46.968 20.3864 46.9986 20.3374 47.0415C20.2794 47.1041 20.2124 47.1578 20.1385 47.2006C19.8583 47.3531 19.536 47.41 19.2205 47.3628C18.7712 47.2853 18.3306 47.1644 17.9047 47.0017C17.6583 46.9249 17.4008 46.8897 17.1428 46.8976C16.8735 46.9129 16.595 46.9803 16.289 46.9986C15.9838 47.0344 15.6759 46.9606 15.42 46.7905C15.3457 46.7432 15.2912 46.6702 15.267 46.5855C15.255 46.5323 15.2637 46.4765 15.2915 46.4295C15.3156 46.393 15.3468 46.3618 15.3833 46.3377C15.5026 46.2612 15.6128 46.2 15.726 46.1357C16.1176 45.9117 16.527 45.7204 16.95 45.5635C17.2369 45.4565 17.5302 45.3676 17.8282 45.2973C17.9364 45.264 18.0486 45.2455 18.1617 45.2422C18.1617 45.2697 17.6997 45.3768 16.9898 45.6675C16.5751 45.8383 16.1723 46.0367 15.7841 46.2612C15.677 46.3254 15.5607 46.3958 15.4567 46.4631C15.4077 46.4998 15.3924 46.5213 15.4016 46.5519C15.4195 46.5993 15.4529 46.6392 15.4965 46.6651C15.7246 46.8103 15.9961 46.872 16.2645 46.8395C16.5491 46.8211 16.8337 46.7569 17.1183 46.7446C17.3943 46.7366 17.6696 46.7759 17.9322 46.8609C18.349 47.0271 18.7789 47.1581 19.2174 47.2526C19.5101 47.3027 19.811 47.2665 20.0834 47.1486C20.1877 47.0942 20.2889 47.0339 20.3864 46.968Z" fill="#EB996E"/>
    <path d="M35.4306 53.1433C35.164 52.3525 35.1395 51.5001 35.3602 50.6953C35.4061 50.6953 35.3602 51.2522 35.3602 51.9193C35.3602 52.5864 35.4765 53.1341 35.4306 53.1433Z" fill="#EB996E"/>
    <path d="M47.3976 44.7618L43.5176 49.1346C43.5176 49.1346 41.4429 64.2356 41.296 65.4229C41.1491 66.6102 40.7544 70.3985 40.7544 71.4358C40.7544 72.4732 39.8945 79.8876 39.8945 79.8876C39.8945 79.8876 56.3604 83.3086 59.1174 79.8876L58.2576 73.538L59.0042 57.7882C59.0042 57.7882 60.2282 46.8549 54.4754 44.3242C54.4662 44.3181 50.831 46.5121 47.3976 44.7618Z" fill="#2F27CE"/>
    <path d="M57.1209 45.8664C57.1209 45.8664 55.9857 44.7465 52.3565 45.6859C48.5346 46.6743 46.518 50.2514 47.4605 60.3739C48.2439 68.7277 51.5456 69.9272 51.5456 69.9272C51.5456 69.9272 49.7371 57.3292 50.0493 52.0599C50.4409 45.4044 57.1148 47.0598 57.1148 47.0598C58.0695 46.76 57.1209 45.8664 57.1209 45.8664Z" fill="#263238"/>
    <path d="M47.3997 44.7617L44.046 45.6858L36.5 50.3064L38.6481 57.1302L43.079 56.6437L47.3997 44.7617Z" fill="#2F27CE"/>
    <path d="M43.0315 49.498C43.0774 49.498 42.8846 51.9461 42.6061 54.9449C42.3277 57.9437 42.0645 60.3855 42.0217 60.3794C41.9788 60.3733 42.1685 57.9314 42.447 54.9326C42.7255 51.9338 42.9886 49.495 43.0315 49.498Z" fill="#263238"/>
    <path d="M58.3941 70.7084C58.3941 70.7084 57.3231 74.1509 53.5378 68.4654C49.7526 62.7799 50.282 65.3227 50.282 65.3227L49.5078 66.2407C49.5078 66.2407 53.6725 75.6197 58.3451 74.1509L58.3941 70.7084Z" fill="#263238"/>
    <path opacity="0.3" d="M42.878 51.1387L39.8945 56.9925L42.3609 56.7232L42.878 51.1387Z" fill="black"/>
    <g opacity="0.3">
        <path d="M41.5117 66.6808C43.7075 69.0706 46.301 71.0615 49.177 72.5652C50.3796 73.1956 51.7107 73.7494 53.0571 73.575C54.5381 73.3853 55.8111 72.3143 56.5057 70.9954C57.2003 69.6766 57.1177 69.0401 57.2738 67.5591C57.4574 65.925 57.4574 63.7432 57.5431 62.253C57.5431 61.9899 57.5614 61.6839 57.5614 61.3932C57.5614 61.0784 57.6629 60.772 57.8509 60.5195C58.0389 60.267 58.3033 60.0819 58.6049 59.9917C58.6049 59.9917 57.6869 59.5663 57.0963 59.652C56.5057 59.7377 56.0345 60.2426 55.7193 60.7628C54.0394 63.5321 54.7707 67.5927 51.5669 69.3308C50.508 69.872 49.3003 70.0494 48.1305 69.8357C45.5081 69.4073 43.5007 67.6937 41.5668 66.0046" fill="black"/>
    </g>
    <path d="M45.1332 60.9483C45.9359 60.9483 46.5867 58.992 46.5867 56.5787C46.5867 54.1654 45.9359 52.209 45.1332 52.209C44.3304 52.209 43.6797 54.1654 43.6797 56.5787C43.6797 58.992 44.3304 60.9483 45.1332 60.9483Z" fill="#FAFAFA"/>
    <path d="M45.898 132.577L46.2315 139.771C46.2315 139.771 39.0313 142.525 38.9609 143.862L52.9329 143.718L52.8748 132.488L45.898 132.577Z" fill="#2F27CE"/>
    <g opacity="0.6">
        <path d="M50.5605 139.123C50.6947 139.163 50.8097 139.251 50.8835 139.37C50.9574 139.489 50.9851 139.631 50.9613 139.769C50.9264 139.905 50.8408 140.023 50.7218 140.098C50.6029 140.173 50.4598 140.2 50.3218 140.173C50.1798 140.129 50.0586 140.035 49.9809 139.908C49.9032 139.781 49.8743 139.631 49.8995 139.484C49.9514 139.346 50.0543 139.233 50.187 139.169C50.3196 139.105 50.472 139.094 50.6125 139.138" fill="white"/>
    </g>
    <path opacity="0.6" d="M52.9359 143.72V142.6L39.5147 143.15C39.5147 143.15 38.9027 143.426 38.97 143.863L52.9359 143.72Z" fill="white"/>
    <path d="M46.016 139.704C46.016 139.771 46.3618 139.799 46.6984 140.01C47.035 140.221 47.2186 140.509 47.2829 140.481C47.3471 140.454 47.24 140.062 46.8239 139.808C46.4077 139.554 46.0007 139.64 46.016 139.704Z" fill="#263238"/>
    <path d="M44.5592 140.326C44.5439 140.394 44.8407 140.507 45.0732 140.791C45.3058 141.076 45.3792 141.382 45.4466 141.379C45.5139 141.376 45.5537 140.987 45.2568 140.638C44.96 140.29 44.5592 140.262 44.5592 140.326Z" fill="#263238"/>
    <path d="M43.7557 142.088C43.8169 142.088 43.9087 141.761 43.7281 141.387C43.5476 141.014 43.2293 140.87 43.2018 140.928C43.1743 140.987 43.3732 141.182 43.5078 141.492C43.6424 141.801 43.673 142.082 43.7557 142.088Z" fill="#263238"/>
    <path d="M46.1236 138.056C46.1542 138.12 46.4663 138.022 46.8518 138.056C47.2374 138.09 47.5373 138.197 47.574 138.139C47.6107 138.08 47.317 137.833 46.861 137.817C46.4051 137.802 46.0899 138.007 46.1236 138.056Z" fill="#263238"/>
    <path opacity="0.3" d="M45.9766 134.003L46.0347 135.285L52.9013 135.151L52.8983 133.994L45.9766 134.003Z" fill="black"/>
    <path d="M46.082 136.605C46.3113 136.668 46.5535 136.668 46.7828 136.605C47.0338 136.556 47.2783 136.478 47.5111 136.372C47.6493 136.309 47.7832 136.236 47.9119 136.155C47.9882 136.109 48.0581 136.054 48.12 135.99C48.1631 135.94 48.1891 135.878 48.194 135.812C48.199 135.747 48.1827 135.681 48.1475 135.626C48.1126 135.577 48.0665 135.538 48.0133 135.512C47.96 135.485 47.9011 135.472 47.8415 135.473C47.7522 135.472 47.6634 135.485 47.5784 135.512C47.4297 135.549 47.2851 135.6 47.1469 135.665C46.9111 135.773 46.6942 135.918 46.5043 136.094C46.183 136.4 46.0759 136.654 46.1004 136.669C46.1249 136.684 46.287 136.473 46.6145 136.222C46.803 136.078 47.0085 135.958 47.2265 135.864C47.357 135.812 47.4909 135.769 47.6273 135.736C47.7742 135.696 47.9027 135.696 47.9333 135.76C47.9639 135.825 47.9333 135.794 47.918 135.84C47.8737 135.888 47.8221 135.928 47.765 135.959C47.6467 136.038 47.5242 136.111 47.3978 136.177C47.182 136.286 46.9567 136.375 46.7246 136.443C46.5069 136.482 46.2922 136.536 46.082 136.605Z" fill="#263238"/>
    <path d="M46.1709 136.699C46.3029 136.499 46.3653 136.261 46.3483 136.022C46.3583 135.763 46.3231 135.505 46.2443 135.257C46.1991 135.111 46.1386 134.969 46.0637 134.835C46.0252 134.743 45.9636 134.663 45.8847 134.602C45.8059 134.54 45.7126 134.501 45.6139 134.486C45.5513 134.485 45.4898 134.504 45.4378 134.539C45.3858 134.574 45.3458 134.624 45.3232 134.682C45.2874 134.764 45.2637 134.851 45.2529 134.939C45.2282 135.095 45.2282 135.254 45.2529 135.41C45.294 135.673 45.3991 135.921 45.5589 136.133C45.8343 136.491 46.1219 136.57 46.125 136.546C46.128 136.521 45.9108 136.384 45.6966 136.038C45.5744 135.839 45.4972 135.615 45.4701 135.383C45.452 135.248 45.452 135.111 45.4701 134.976C45.4915 134.829 45.5466 134.707 45.6017 134.722C45.6568 134.737 45.7914 134.832 45.8496 134.948C45.9199 135.069 45.9793 135.196 46.027 135.328C46.1058 135.552 46.1532 135.786 46.1678 136.022C46.2045 136.433 46.1341 136.69 46.1709 136.699Z" fill="#263238"/>
    <path d="M59.4492 128.213L65.098 132.678C65.098 132.678 62.4572 139.921 63.4211 140.848L72.4726 130.205L63.9535 122.883L59.4492 128.213Z" fill="#2F27CE"/>
    <g opacity="0.6">
        <path d="M67.4349 128.995C67.5531 128.919 67.6952 128.889 67.834 128.911C67.9728 128.933 68.0987 129.006 68.1876 129.115C68.2674 129.23 68.3002 129.372 68.2791 129.51C68.2581 129.649 68.1849 129.775 68.0744 129.861C67.9484 129.939 67.7982 129.969 67.6519 129.945C67.5055 129.921 67.373 129.844 67.2788 129.73C67.207 129.6 67.1882 129.448 67.2264 129.306C67.2647 129.163 67.357 129.041 67.4838 128.965" fill="white"/>
    </g>
    <path opacity="0.6" d="M72.4731 130.204L71.6255 129.473L63.238 139.968C63.238 139.968 63.0422 140.617 63.4216 140.847L72.4731 130.204Z" fill="white"/>
    <path d="M64.8954 132.803C64.9505 132.846 65.2014 132.605 65.5808 132.497C65.9603 132.39 66.2999 132.433 66.3183 132.369C66.3366 132.305 65.9725 132.124 65.5104 132.271C65.0484 132.418 64.8403 132.773 64.8954 132.803Z" fill="#263238"/>
    <path d="M64.4078 134.314C64.4476 134.369 64.7138 134.219 65.0994 134.228C65.4849 134.237 65.745 134.387 65.7848 134.332C65.8246 134.277 65.5614 133.995 65.1024 133.992C64.6434 133.989 64.3588 134.271 64.4078 134.314Z" fill="#263238"/>
    <path d="M65.2063 136.082C65.2583 136.045 65.0594 135.751 64.6616 135.644C64.2638 135.537 63.9456 135.681 63.9701 135.739C63.9946 135.797 64.2761 135.779 64.6004 135.874C64.9248 135.968 65.1574 136.131 65.2063 136.082Z" fill="#263238"/>
    <path d="M63.7217 131.641C63.7859 131.66 63.9175 131.363 64.1868 131.085C64.4561 130.806 64.7437 130.659 64.7223 130.592C64.7009 130.525 64.3276 130.592 64.0154 130.922C63.7033 131.253 63.6452 131.632 63.7217 131.641Z" fill="#263238"/>
    <path opacity="0.3" d="M60.5703 129.093L61.5771 129.891L65.9773 124.619L65.1022 123.863L60.5703 129.093Z" fill="black"/>
    <path d="M62.5993 130.72C62.6176 130.738 62.8257 130.561 63.0491 130.184C63.1792 129.963 63.282 129.727 63.3551 129.481C63.3969 129.335 63.4296 129.187 63.453 129.037C63.466 128.949 63.466 128.859 63.453 128.771C63.4439 128.705 63.4139 128.645 63.3676 128.598C63.3213 128.551 63.2611 128.52 63.196 128.511C63.1388 128.507 63.0815 128.516 63.0285 128.538C62.9754 128.56 62.9281 128.593 62.89 128.636C62.8317 128.703 62.7833 128.779 62.7462 128.859C62.6787 128.997 62.6225 129.141 62.5779 129.288C62.5063 129.537 62.4743 129.796 62.483 130.056C62.4673 130.294 62.525 130.531 62.6482 130.735C62.688 130.735 62.6268 130.469 62.6482 130.056C62.6718 129.675 62.7762 129.304 62.9542 128.967C63.0216 128.829 63.1011 128.734 63.1746 128.746C63.248 128.758 63.2113 128.746 63.2266 128.807C63.2352 128.873 63.2352 128.94 63.2266 129.006C63.2071 129.146 63.1806 129.285 63.147 129.422C63.0882 129.658 63.0073 129.888 62.9053 130.108C62.787 130.303 62.6846 130.508 62.5993 130.72Z" fill="#263238"/>
    <path d="M62.7292 130.717C62.7507 130.717 62.6528 130.442 62.3345 130.139C62.1449 129.962 61.9266 129.818 61.6888 129.714C61.547 129.652 61.3994 129.605 61.2482 129.573C61.1535 129.542 61.0524 129.537 60.9549 129.557C60.8573 129.576 60.7665 129.621 60.6913 129.686C60.6521 129.734 60.6272 129.793 60.6197 129.855C60.6121 129.916 60.6221 129.979 60.6484 130.035C60.6879 130.115 60.7384 130.189 60.7984 130.255C60.9019 130.375 61.0225 130.478 61.1564 130.561C61.3812 130.701 61.6363 130.784 61.9 130.803C62.3529 130.828 62.6007 130.665 62.5854 130.644C62.3644 130.66 62.1425 130.66 61.9214 130.644C61.6904 130.605 61.4703 130.518 61.2757 130.387C61.1616 130.311 61.0586 130.219 60.9697 130.115C60.8718 130.001 60.8167 129.882 60.8626 129.848C60.9125 129.819 60.968 129.801 61.0255 129.794C61.083 129.788 61.1411 129.794 61.1962 129.812C61.3328 129.838 61.4669 129.876 61.597 129.925C61.8159 130.013 62.0217 130.13 62.209 130.274C62.5518 130.516 62.6986 130.739 62.7292 130.717Z" fill="#263238"/>
    <path d="M43.7861 102.142C43.7861 102.142 44.1594 84.957 43.7861 84.957C43.4128 84.957 40.7628 83.4453 40.7628 83.4453L37.4519 108.981C37.4519 108.981 37.1459 111.848 40.7016 113.877C44.2573 115.906 60.1112 130 60.1112 130L65.4846 123.455C65.4846 123.455 55.0469 112.577 50.7966 108.981C47.4306 106.181 43.7861 102.142 43.7861 102.142Z" fill="#263238"/>
    <path d="M53.506 98.1365L53.8702 95.4161C53.8702 95.4161 56.4834 89.9081 56.8567 87.5642C57.2301 85.2202 56.9853 80.1406 56.9853 80.1406H40.4766C40.4766 80.1406 40.5469 98.7791 42.539 104.009C42.539 104.009 43.5488 114.015 43.6987 114.853C44.0047 116.634 45.1155 134.853 45.1155 134.853L53.4387 134.547C53.4387 134.547 54.1609 117.797 53.5825 113.042C53.298 110.686 53.1633 108.176 53.0991 106.102C53.0206 103.44 53.1567 100.776 53.506 98.1365Z" fill="#263238"/>
    <path d="M40.9251 85.5781C40.9282 85.6046 40.9282 85.6313 40.9251 85.6577C40.9251 85.7219 40.9251 85.8015 40.9404 85.8994C40.9404 86.1228 40.9649 86.4349 40.9833 86.8174C41.0139 87.6222 41.0751 88.7881 41.1577 90.2263C41.3229 93.1027 41.632 97.0715 42.0757 101.444C42.5194 105.817 43.0182 109.767 43.3701 112.629C43.5445 114.048 43.6761 115.202 43.7832 116.016C43.8291 116.408 43.8658 116.714 43.8903 116.934C43.8903 117.032 43.9086 117.111 43.9148 117.176C43.9209 117.24 43.9148 117.258 43.9148 117.258C43.9047 117.233 43.8975 117.206 43.8933 117.179L43.8566 116.94L43.7189 116.022C43.6088 115.211 43.4496 114.058 43.2538 112.641C42.8744 109.783 42.3695 105.832 41.9135 101.456C41.4576 97.0807 41.1699 93.1088 41.0322 90.2293C40.9619 88.7881 40.9221 87.6222 40.9098 86.8174C40.9098 86.4227 40.9098 86.1136 40.8945 85.8994V85.6607C40.9018 85.6322 40.9121 85.6045 40.9251 85.5781Z" fill="#455A64"/>
    <path d="M53.085 107.639C53.1086 107.727 53.125 107.817 53.134 107.908C53.1585 108.098 53.1952 108.358 53.2411 108.685C53.3237 109.365 53.4277 110.347 53.5226 111.562C53.7184 113.994 53.8653 117.376 53.9204 121.084C53.9755 124.793 53.9204 128.18 53.7735 130.616C53.7123 131.84 53.6328 132.819 53.5685 133.499C53.5318 133.826 53.5012 134.086 53.4798 134.279C53.4733 134.371 53.46 134.462 53.44 134.551C53.4319 134.46 53.4319 134.368 53.44 134.276C53.4553 134.083 53.4736 133.823 53.4981 133.493C53.544 132.813 53.6052 131.828 53.6542 130.61C53.7551 128.177 53.798 124.796 53.7521 121.087C53.7062 117.379 53.5685 114 53.4002 111.571C53.3206 110.347 53.2349 109.371 53.1707 108.691C53.137 108.364 53.1095 108.104 53.0911 107.911C53.0816 107.821 53.0796 107.729 53.085 107.639Z" fill="#455A64"/>
    <path d="M56.3308 45.4844C56.3308 45.4844 59.0328 46.2035 59.6081 50.2304C60.1833 54.2574 59.1185 55.408 59.1185 55.408C59.1185 55.408 59.556 47.911 56.1992 46.8889L56.3308 45.6313" fill="#263238"/>
    <path d="M37.9201 58.6356L23.9727 58.3633L24.1348 59.0395L37.8528 59.2415L37.9201 58.6356Z" fill="#263238"/>
    <path d="M54.8336 46.7475C54.3104 46.6199 53.7597 46.6683 53.2669 46.8852C52.1377 47.3595 50.0692 48.7212 49.9223 52.5891L49.6836 58.8223L58.6035 59.9912C58.6035 59.9912 59.3624 47.9532 54.8336 46.7475Z" fill="#2F27CE"/>
    <path d="M38.4162 59.9552L49.7382 63.358L49.9065 58.8047L56.6813 59.79L56.3019 67.1952C56.2634 68.252 55.8787 69.2668 55.2069 70.0834C54.5351 70.9001 53.6135 71.4733 52.584 71.7148C51.4001 71.9916 50.1553 71.8113 49.0987 71.2099L37.082 64.3769L38.4162 59.9552Z" fill="#FFBE9D"/>
    <path d="M58.6036 59.9913C58.6036 59.9913 58.6036 59.9515 58.6036 59.8842C58.6036 59.8169 58.6036 59.7067 58.5883 59.5782C58.5883 59.3059 58.5668 58.9234 58.5485 58.4338C58.5179 57.4393 58.472 56.0194 58.4169 54.2661C58.3894 53.3909 58.3618 52.4301 58.3343 51.4019C58.3343 51.1449 58.319 50.8817 58.3098 50.6155C58.3098 50.487 58.2853 50.3554 58.27 50.2207C58.2547 50.0861 58.2241 49.9576 58.1874 49.826C57.9618 48.9724 57.4693 48.2133 56.7817 47.6595C56.0941 47.1057 55.2475 46.7862 54.3655 46.7476C53.7319 46.7415 53.1102 46.919 52.5754 47.2587C52.023 47.6106 51.5516 48.0758 51.1922 48.6234C50.6791 49.4109 50.3324 50.295 50.1733 51.2214C50.0169 52.1092 49.9238 53.007 49.8948 53.908C49.8458 55.6645 49.7999 57.3169 49.7571 58.8193L49.699 58.749L56.1464 59.6302L57.9579 59.8842L58.4444 59.976L57.9763 59.924L56.1739 59.7037L49.6714 58.8897H49.6133V58.8285C49.65 57.323 49.6775 55.6737 49.7357 53.9142C49.7601 53.005 49.8512 52.0989 50.008 51.203C50.1701 50.2555 50.5252 49.3514 51.0515 48.5469C51.4232 47.9803 51.9114 47.4994 52.4836 47.1363C53.0436 46.7799 53.6956 46.5949 54.3593 46.6038C54.9811 46.6303 55.5895 46.7925 56.1418 47.079C56.6942 47.3655 57.1773 47.7694 57.557 48.2623C57.9122 48.715 58.1705 49.2357 58.3159 49.7923C58.3496 49.927 58.371 50.0647 58.3985 50.2024C58.4261 50.3401 58.4261 50.4747 58.4383 50.6124C58.4383 50.8786 58.4383 51.1449 58.4567 51.405C58.4781 52.4454 58.4965 53.4154 58.5148 54.2997C58.5454 56.0562 58.5699 57.4791 58.5883 58.4736C58.5883 58.954 58.5883 59.3334 58.6036 59.5996V59.9056C58.6064 59.9341 58.6064 59.9628 58.6036 59.9913Z" fill="#263238"/>
    <path d="M38.6484 60.0902L35.9311 58.0798C35.4354 57.7126 34.6643 57.7738 34.0492 57.734C32.8252 57.6239 30.827 58.346 30.7505 58.4868L31.5706 59.1416L26.2891 58.9795C26.4703 59.3389 26.7455 59.6425 27.0855 59.858C27.4255 60.0736 27.8175 60.1929 28.2199 60.2035C28.2199 60.2035 28.3882 61.3969 29.9213 61.6233C29.9213 61.6233 30.3191 62.5903 31.1728 62.8718C31.1728 62.8718 31.3411 63.952 32.7028 63.8938L37.3326 64.411L38.6484 60.0902Z" fill="#FFBE9D"/>
    <path d="M31.5151 60.3896C30.9579 60.4381 30.3973 60.4319 29.8413 60.3712C29.2829 60.3673 28.7263 60.3079 28.1797 60.1937C28.736 60.1488 29.2953 60.1549 29.8504 60.2121C30.4096 60.22 30.9668 60.2794 31.5151 60.3896Z" fill="#EB996E"/>
    <path d="M32.859 61.6623C32.3756 61.7408 31.8853 61.7675 31.3963 61.7418C30.9073 61.7675 30.4169 61.7408 29.9336 61.6623C30.4167 61.5819 30.9073 61.5553 31.3963 61.5827C31.8853 61.5553 32.3758 61.5819 32.859 61.6623Z" fill="#EB996E"/>
    <path d="M34.2934 62.8625C33.8103 62.9428 33.3197 62.9695 32.8307 62.942C32.3427 62.9696 31.8532 62.9429 31.3711 62.8625C31.8534 62.7839 32.3427 62.7572 32.8307 62.7829C33.3197 62.7573 33.8101 62.7839 34.2934 62.8625Z" fill="#EB996E"/>
    <path d="M50.4875 65.6669C50.2642 65.3247 50.0949 64.95 49.9857 64.5562C49.8216 64.1812 49.7183 63.7825 49.6797 63.375C49.8662 63.735 50.0149 64.1134 50.1234 64.5041C50.2857 64.8777 50.4077 65.2675 50.4875 65.6669Z" fill="#EB996E"/>
    <path d="M51.2925 65.2273C50.9781 64.936 50.6922 64.6153 50.4388 64.2696C50.1441 63.9596 49.8807 63.6214 49.6523 63.2598C50.0036 63.5169 50.3132 63.8265 50.5703 64.1778C50.861 64.4905 51.1044 64.8441 51.2925 65.2273Z" fill="#EB996E"/>
</svg>
