<svg width="294" height="281" viewBox="0 0 294 281" fill="none" xmlns="http://www.w3.org/2000/svg">
<path d="M294 214.908H0V215.049H294V214.908Z" fill="#EBEBEB"/>
<path d="M139.355 189.844H25.8184C24.929 189.842 24.0765 189.504 23.4481 188.902C22.8197 188.3 22.4668 187.485 22.4668 186.635V34.0911C22.4745 33.2458 22.8309 32.4377 23.4584 31.8421C24.086 31.2465 24.934 30.9116 25.8184 30.9102H139.355C140.246 30.9102 141.1 31.2482 141.729 31.8501C142.359 32.4519 142.713 33.2681 142.713 34.1192V186.635C142.713 187.486 142.359 188.302 141.729 188.904C141.1 189.506 140.246 189.844 139.355 189.844ZM25.8184 31.0226C24.9679 31.024 24.1529 31.348 23.552 31.9233C22.9512 32.4986 22.6138 33.2782 22.6138 34.0911V186.635C22.6138 187.448 22.9512 188.227 23.552 188.803C24.1529 189.378 24.9679 189.702 25.8184 189.703H139.355C140.206 189.702 141.022 189.378 141.624 188.803C142.226 188.228 142.564 187.448 142.566 186.635V34.0911C142.564 33.2777 142.226 32.4981 141.624 31.9229C141.022 31.3478 140.206 31.024 139.355 31.0226H25.8184Z" fill="#EBEBEB"/>
<path d="M266.545 189.844H153.002C152.112 189.842 151.259 189.504 150.63 188.902C150 188.301 149.646 187.485 149.645 186.635V34.0911C149.654 33.2453 150.011 32.4372 150.64 31.8417C151.268 31.2463 152.117 30.9116 153.002 30.9102H266.545C267.428 30.9131 268.275 31.2486 268.901 31.844C269.527 32.4395 269.883 33.2468 269.891 34.0911V186.635C269.891 187.484 269.538 188.298 268.911 188.9C268.284 189.501 267.433 189.841 266.545 189.844ZM153.002 31.0226C152.151 31.024 151.335 31.3478 150.734 31.9229C150.132 32.4981 149.793 33.2777 149.792 34.0911V186.635C149.793 187.448 150.132 188.228 150.734 188.803C151.335 189.378 152.151 189.702 153.002 189.703H266.545C267.396 189.702 268.211 189.378 268.813 188.803C269.415 188.228 269.754 187.448 269.755 186.635V34.0911C269.754 33.2777 269.415 32.4981 268.813 31.9229C268.211 31.3478 267.396 31.024 266.545 31.0226H153.002Z" fill="#EBEBEB"/>
<path d="M264.542 220.26H245.979V220.4H264.542V220.26Z" fill="#EBEBEB"/>
<path d="M197.178 218.736H177.533V218.877H197.178V218.736Z" fill="#EBEBEB"/>
<path d="M269.902 225.48H233.193V225.621H269.902V225.48Z" fill="#EBEBEB"/>
<path d="M42.1549 224.535H30.8477V224.676H42.1549V224.535Z" fill="#EBEBEB"/>
<path d="M65.2031 224.535H47.3926V224.676H65.2031V224.535Z" fill="#EBEBEB"/>
<path d="M143.554 222.164H111.473V222.305H143.554V222.164Z" fill="#EBEBEB"/>
<path d="M268.395 143.446C262.432 141.057 252.554 143.361 244.369 152.848C240.588 157.232 236.943 163.661 235.961 170.242C236.025 162.734 236.108 154.669 236.184 147.054C237.086 143.319 238.508 139.716 240.412 136.342C246.415 124.81 251.378 126.086 259.534 117.06C273.099 102.043 280.872 73.7127 267.377 85.0258C255.141 95.2542 249.22 105.494 245.11 114.379C239.547 126.389 237.313 134.768 236.225 143.176C236.302 136.027 236.372 129.463 236.437 124.4C236.649 107.882 237.119 102.571 237.207 100.93C237.419 96.9571 238.789 94.6416 239.171 94.074C242.387 89.2464 247.438 86.088 252.383 80.586C263.914 67.778 270.57 51.924 265.014 50.4291C259.21 48.8948 251.584 55.8861 243.111 72.3021C238.254 81.71 237.013 83.9355 236.055 102.369C235.972 103.971 235.602 110.007 235.426 118.392C234.055 109.372 231.451 100.408 226.905 94.4674C218.138 83.0082 211.47 81.9123 206.614 83.0082C201.757 84.1041 203.791 96.1365 209.271 102.566C217.503 112.243 231.262 110.187 235.337 123.062C235.132 134.431 234.985 148.83 234.902 162.239C233.515 155.315 232.062 149.555 228.875 144.131C222.948 134.049 215.657 129.649 210.647 134.398C207.525 137.354 211.147 145.638 217.674 149.01C224.301 152.46 229.74 157.232 231.845 160.103C232.333 160.772 233.961 163.335 234.89 164.813C234.802 181.184 234.814 195.633 234.961 200.562L235.79 200.635C235.737 199.365 235.79 191.036 235.861 180.015C237.307 166.263 247.468 165.515 253.965 162.897C265.578 158.204 274.357 145.84 268.395 143.446Z" fill="#E6E6E6"/>
<path d="M226.966 214.909H244.1C244.522 214.933 244.939 214.823 245.288 214.596C245.637 214.369 245.897 214.039 246.029 213.656L247.252 193.328H223.826L225.037 213.639C225.167 214.024 225.426 214.358 225.775 214.588C226.124 214.818 226.543 214.931 226.966 214.909Z" fill="#E6E6E6"/>
<path d="M224.255 200.258H246.823C247.364 200.258 247.817 199.578 247.881 198.678L248.34 191.822C248.41 190.765 247.917 189.844 247.287 189.844H223.767C223.132 189.844 222.638 190.765 222.715 191.822L223.173 198.678C223.256 199.578 223.714 200.258 224.255 200.258Z" fill="#F5F5F5"/>
<path d="M109.369 171.113H87.125V211.189H109.369V171.113Z" fill="#F0F0F0"/>
<path d="M201.1 211.188H91.3965V214.908H201.1V211.188Z" fill="#F0F0F0"/>
<path d="M109.366 211.184H205.369V171.107H109.366V211.184Z" fill="#FAFAFA"/>
<path d="M118.119 188.32H196.629V175.99H118.119V188.32Z" fill="#F0F0F0"/>
<path d="M118.119 204.164H196.629V191.834H118.119V204.164Z" fill="#F0F0F0"/>
<path d="M167.002 174.457H147.739C146.992 174.457 146.387 175.036 146.387 175.75V175.806C146.387 176.52 146.992 177.098 147.739 177.098H167.002C167.749 177.098 168.354 176.52 168.354 175.806V175.75C168.354 175.036 167.749 174.457 167.002 174.457Z" fill="#FAFAFA"/>
<path d="M167.002 190.299H147.739C146.992 190.299 146.387 190.878 146.387 191.591V191.648C146.387 192.362 146.992 192.94 147.739 192.94H167.002C167.749 192.94 168.354 192.362 168.354 191.648V191.591C168.354 190.878 167.749 190.299 167.002 190.299Z" fill="#FAFAFA"/>
<path d="M208.341 167.516H109.375V171.107H208.341V167.516Z" fill="#F0F0F0"/>
<path d="M84.0126 171.113H109.367V167.522H84.0126V171.113Z" fill="#E6E6E6"/>
<path d="M65.7608 183.482C63.2206 182.212 58.7636 182.87 54.771 186.765C52.6523 188.813 51.1337 191.358 50.3669 194.144C50.6903 190.833 51.049 187.27 51.3842 183.91C51.9324 182.292 52.7036 180.752 53.6774 179.329C56.7879 174.451 58.9341 175.193 62.8913 171.501C69.4887 165.358 74.0633 153.118 67.6365 157.619C63.0375 160.81 59.2708 164.972 56.6291 169.781C53.6891 174.89 52.372 178.509 51.5547 182.184C51.8722 179.031 52.1427 176.132 52.3955 173.895C53.1482 166.589 53.5715 164.273 53.6715 163.554C53.7821 162.49 54.1747 161.471 54.8122 160.592C56.4468 158.575 58.7988 157.361 61.1861 155.113C66.7898 149.869 70.3589 143.097 67.9658 142.243C65.4609 141.355 61.8094 144.171 57.417 151.111C54.8945 155.096 54.2595 156.034 53.0952 164.144C52.9894 164.852 52.5896 167.516 52.178 171.203C51.931 167.168 51.1372 163.116 49.3614 160.322C45.9452 154.939 43.0404 154.214 40.8531 154.551C38.6657 154.888 39.0891 160.249 41.247 163.29C44.5104 167.865 50.655 167.454 51.9545 173.293C51.4136 178.306 50.7785 184.668 50.1905 190.592C49.8554 187.478 49.4438 184.882 48.2501 182.37C46.0334 177.7 42.9581 175.491 40.6061 177.407C39.1126 178.599 40.3827 182.387 43.1345 184.151C45.8864 185.916 48.1384 188.22 48.9557 189.569C49.1439 189.878 49.7613 191.075 50.1317 191.761C49.3908 198.949 48.8381 205.327 48.7088 207.508L49.091 207.559C49.1204 206.997 49.4673 203.321 49.9436 198.454C51.1196 192.424 55.6472 192.463 58.6224 191.542C63.9321 189.901 68.3009 184.753 65.7608 183.482Z" fill="#F0F0F0"/>
<path d="M26.4226 170.961C29.7095 169.545 35.2426 170.686 39.9466 175.862C42.4464 178.577 44.1576 181.871 44.9093 185.416C44.7506 181.229 44.5859 176.733 44.4213 172.49C43.8593 170.421 43.0109 168.433 41.8988 166.578C38.3708 160.233 35.6189 161.014 30.9326 156.097C23.1298 147.914 18.3494 132.228 26.058 138.332C31.5817 142.667 35.9877 148.159 38.9352 154.382C42.2222 161.003 43.5981 165.622 44.339 170.315C44.1861 166.331 44.0391 162.672 43.9215 159.845C43.551 150.639 43.2041 147.683 43.1277 146.767C43.0735 145.429 42.6692 144.124 41.9517 142.974C40.0818 140.327 37.2477 138.641 34.3665 135.64C27.7397 128.66 23.7825 119.904 26.8518 119.005C30.0682 118.066 34.4312 121.854 39.4115 130.885C42.2692 136.067 42.9924 137.286 43.8274 147.554C43.9038 148.448 44.1978 151.808 44.4154 156.484C45.0387 151.426 46.3499 146.402 48.796 142.996C53.5 136.477 57.2044 135.775 59.9268 136.314C62.6493 136.854 61.6908 143.62 58.7508 147.262C54.3056 152.775 46.6086 151.82 44.5389 159.064C44.827 165.398 45.1269 173.429 45.3915 180.903C46.0559 177.025 46.7792 173.788 48.4667 170.72C51.6184 165.01 55.6168 162.453 58.4627 165.032C60.2267 166.634 58.3628 171.304 54.7701 173.294C51.1774 175.283 48.2139 178.099 47.0849 179.729C46.8203 180.105 45.956 181.561 45.462 182.398C45.7678 191.525 45.9854 199.584 45.9795 202.332L45.4914 202.372C45.4914 201.663 45.3503 197.021 45.1269 190.873C44.0979 183.213 38.4296 182.954 34.7663 181.589C28.2219 179.15 23.1357 172.378 26.4226 170.961Z" fill="#E6E6E6"/>
<path d="M40.3321 214.909H55.5319C55.9075 214.928 56.2793 214.829 56.5897 214.625C56.9 214.422 57.1317 214.127 57.2488 213.785L58.3249 195.768H37.5391L38.621 213.785C38.7361 214.127 38.9665 214.423 39.276 214.626C39.5856 214.829 39.957 214.929 40.3321 214.909Z" fill="#E6E6E6"/>
<path d="M37.9185 201.915H57.9399C58.4221 201.915 58.8219 201.308 58.8807 200.51L59.2864 194.429C59.3511 193.491 58.916 192.676 58.3515 192.676H37.5128C36.9248 192.676 36.5132 193.491 36.572 194.429L36.9836 200.51C37.0424 201.308 37.4422 201.915 37.9185 201.915Z" fill="#F5F5F5"/>
<path d="M160.66 44.8809H35.3926V112.579H160.66V44.8809Z" fill="#E6E6E6"/>
<path d="M164.574 44.8809H36.0547V112.579H164.574V44.8809Z" fill="#F5F5F5"/>
<path d="M161.447 107.246V50.2203C161.447 48.9228 160.347 47.8711 158.989 47.8711L41.6364 47.8711C40.279 47.8711 39.1785 48.9228 39.1785 50.2203V107.246C39.1785 108.544 40.279 109.596 41.6364 109.596H158.989C160.347 109.596 161.447 108.544 161.447 107.246Z" fill="white"/>
<path d="M147.001 240.288C209.966 240.288 261.009 237.44 261.009 233.926C261.009 230.413 209.966 227.564 147.001 227.564C84.037 227.564 32.9941 230.413 32.9941 233.926C32.9941 237.44 84.037 240.288 147.001 240.288Z" fill="#F5F5F5"/>
<path d="M236.325 175.575H222.213V175.013H236.325C237.985 174.98 239.606 174.528 241.024 173.703C242.442 172.878 243.606 171.709 244.398 170.314L244.916 170.584C244.072 172.067 242.833 173.31 241.324 174.187C239.815 175.063 238.09 175.542 236.325 175.575Z" fill="#2F27CE"/>
<path d="M219.419 175.012H213.639V175.574H219.419V175.012Z" fill="#2F27CE"/>
<path d="M236.323 173.607H71.2131C70.3078 173.624 69.4092 173.456 68.5769 173.116C67.7446 172.775 66.9977 172.269 66.3859 171.631C65.7741 170.993 65.3113 170.238 65.0284 169.416C64.7455 168.594 64.6489 167.724 64.7451 166.863L73.665 69.0751C73.8645 67.2553 74.7503 65.5671 76.157 64.326C77.5638 63.0849 79.3951 62.3758 81.309 62.3311H246.419C247.324 62.3152 248.223 62.4833 249.054 62.8243C249.886 63.1654 250.633 63.6715 251.244 64.3092C251.856 64.947 252.319 65.7017 252.602 66.5233C252.885 67.345 252.983 68.2148 252.887 69.0751L244.02 166.863C243.82 168.691 242.926 170.386 241.509 171.629C240.091 172.871 238.247 173.575 236.323 173.607Z" fill="#2F27CE"/>
<path d="M232.885 171.556H71.8904C71.1196 171.567 70.3551 171.421 69.6479 171.128C68.9407 170.834 68.3068 170.401 67.7885 169.855C67.2701 169.31 66.8791 168.665 66.6415 167.964C66.4039 167.263 66.325 166.522 66.4102 165.79L74.5364 76.7072C74.585 76.2607 74.8023 75.8465 75.1476 75.5423C75.493 75.2381 75.9426 75.0648 76.4121 75.0549H245.974C246.195 75.0512 246.414 75.0927 246.618 75.1764C246.821 75.2602 247.003 75.3844 247.152 75.5407C247.301 75.697 247.414 75.8819 247.482 76.083C247.551 76.2842 247.574 76.4969 247.549 76.7072L239.417 165.79C239.253 167.347 238.497 168.794 237.294 169.856C236.091 170.918 234.522 171.523 232.885 171.556Z" fill="white"/>
<path d="M92.4111 70.6211C91.3004 70.6392 90.1984 70.4313 89.1783 70.0112C88.1581 69.5911 87.2431 68.9684 86.494 68.1844C85.745 67.4004 85.179 66.4731 84.8336 65.464C84.4882 64.4549 84.3713 63.3872 84.4907 62.3316C84.7324 60.0914 85.8218 58.0126 87.5543 56.4861C89.2868 54.9596 91.5429 54.0905 93.8987 54.0421C95.0091 54.0239 96.1109 54.2318 97.1308 54.652C98.1507 55.0721 99.0654 55.695 99.814 56.4791C100.563 57.2632 101.128 58.1906 101.473 59.1996C101.817 60.2087 101.933 61.2764 101.813 62.3316H98.2852C98.3562 61.705 98.2869 61.071 98.0817 60.472C97.8766 59.8729 97.5403 59.3225 97.0953 58.8573C96.6503 58.3921 96.1068 58.0228 95.5009 57.774C94.895 57.5251 94.2405 57.4025 93.5812 57.4141C92.1807 57.4387 90.838 57.9524 89.8067 58.8584C88.7754 59.7644 88.1269 60.9999 87.9834 62.3316C87.9124 62.9583 87.9817 63.5922 88.1869 64.1912C88.392 64.7903 88.7283 65.3407 89.1733 65.8059C89.6183 66.2711 90.1618 66.6404 90.7677 66.8892C91.3736 67.1381 92.0281 67.2608 92.6874 67.2491L92.4111 70.6211Z" fill="#263238"/>
<path d="M127.308 70.6211C126.195 70.6425 125.09 70.4369 124.067 70.0182C123.044 69.5995 122.127 68.9773 121.375 68.1929C120.623 67.4086 120.055 66.4801 119.708 65.4695C119.362 64.4588 119.244 63.3891 119.364 62.3316C119.605 60.0914 120.695 58.0126 122.427 56.4861C124.16 54.9596 126.416 54.0905 128.772 54.0421C129.882 54.0239 130.984 54.2318 132.004 54.652C133.024 55.0721 133.938 55.695 134.687 56.4791C135.436 57.2632 136.001 58.1906 136.346 59.1996C136.691 60.2087 136.807 61.2764 136.686 62.3316H133.158C133.229 61.705 133.16 61.071 132.955 60.472C132.75 59.8729 132.413 59.3225 131.968 58.8573C131.523 58.3921 130.98 58.0228 130.374 57.774C129.768 57.5251 129.114 57.4025 128.454 57.4141C127.054 57.4387 125.711 57.9524 124.68 58.8584C123.649 59.7644 123 60.9999 122.857 62.3316C122.786 62.9581 122.856 63.5916 123.062 64.1903C123.267 64.7889 123.604 65.339 124.049 65.804C124.493 66.269 125.037 66.6383 125.642 66.8874C126.247 67.1366 126.901 67.2599 127.561 67.2491L127.308 70.6211Z" fill="#263238"/>
<path d="M162.206 70.6211C161.096 70.6384 159.994 70.4299 158.975 70.0094C157.956 69.589 157.041 68.9661 156.293 68.1822C155.544 67.3983 154.979 66.4713 154.634 65.4626C154.289 64.454 154.172 63.3867 154.291 62.3316C154.531 60.0904 155.619 58.0103 157.352 56.4834C159.085 54.9564 161.343 54.0881 163.699 54.0421C164.81 54.0239 165.912 54.2318 166.932 54.652C167.952 55.0721 168.866 55.695 169.615 56.4791C170.363 57.2632 170.929 58.1906 171.274 59.1996C171.618 60.2087 171.734 61.2764 171.614 62.3316H168.086C168.158 61.7048 168.089 61.0705 167.885 60.471C167.68 59.8716 167.344 59.3208 166.898 58.8554C166.453 58.39 165.909 58.0207 165.303 57.7721C164.696 57.5236 164.042 57.4016 163.382 57.4141C161.982 57.4388 160.64 57.9528 159.61 58.8588C158.58 59.7649 157.932 61.0003 157.79 62.3316C157.719 62.9583 157.788 63.5922 157.994 64.1912C158.199 64.7903 158.535 65.3407 158.98 65.8059C159.425 66.2711 159.968 66.6404 160.574 66.8892C161.18 67.1381 161.835 67.2608 162.494 67.2491L162.206 70.6211Z" fill="#263238"/>
<path d="M197.104 70.6211C195.994 70.6384 194.893 70.4299 193.873 70.0094C192.854 69.589 191.94 68.9661 191.191 68.1822C190.443 67.3983 189.877 66.4713 189.532 65.4626C189.187 64.4539 189.071 63.3867 189.19 62.3316C189.43 60.0909 190.519 58.0115 192.252 56.4847C193.985 54.958 196.242 54.0893 198.598 54.0421C199.709 54.024 200.811 54.2319 201.831 54.652C202.851 55.0721 203.766 55.6949 204.515 56.4788C205.264 57.2628 205.83 58.1901 206.175 59.1992C206.521 60.2083 206.638 61.2761 206.518 62.3316H202.99C203.061 61.705 202.992 61.071 202.787 60.472C202.582 59.8729 202.245 59.3225 201.8 58.8573C201.355 58.3921 200.812 58.0228 200.206 57.774C199.6 57.5251 198.946 57.4025 198.286 57.4141C196.886 57.4388 195.545 57.9527 194.514 58.8588C193.484 59.7649 192.836 61.0003 192.694 62.3316C192.623 62.9583 192.693 63.5922 192.898 64.1912C193.103 64.7903 193.439 65.3407 193.884 65.8059C194.329 66.2711 194.873 66.6404 195.479 66.8892C196.085 67.1381 196.739 67.2608 197.398 67.2491L197.104 70.6211Z" fill="#263238"/>
<path d="M232.003 70.6211C230.893 70.6384 229.791 70.4299 228.772 70.0094C227.752 69.589 226.838 68.9661 226.09 68.1822C225.341 67.3983 224.776 66.4713 224.431 65.4626C224.086 64.4539 223.969 63.3867 224.088 62.3316C224.329 60.0909 225.418 58.0115 227.151 56.4847C228.883 54.958 231.14 54.0893 233.496 54.0421C234.607 54.024 235.709 54.2319 236.729 54.652C237.749 55.0721 238.664 55.6949 239.413 56.4788C240.162 57.2628 240.728 58.1901 241.074 59.1992C241.419 60.2083 241.536 61.2761 241.417 62.3316H237.889C237.96 61.705 237.89 61.071 237.685 60.472C237.48 59.8729 237.144 59.3225 236.699 58.8573C236.254 58.3921 235.71 58.0228 235.104 57.774C234.498 57.5251 233.844 57.4025 233.185 57.4141C231.785 57.44 230.444 57.9544 229.414 58.8602C228.384 59.7661 227.736 61.0008 227.593 62.3316C227.522 62.9583 227.591 63.5922 227.796 64.1912C228.001 64.7903 228.338 65.3407 228.783 65.8059C229.228 66.2711 229.771 66.6404 230.377 66.8892C230.983 67.1381 231.637 67.2608 232.297 67.2491L232.003 70.6211Z" fill="#263238"/>
<path d="M232.46 167.516H73.3061C73.2684 167.517 73.231 167.511 73.1963 167.497C73.1617 167.482 73.1307 167.461 73.1055 167.434C73.0803 167.408 73.0615 167.376 73.0504 167.342C73.0394 167.307 73.0363 167.271 73.0415 167.235L80.9736 80.3163C80.9809 80.2402 81.0173 80.1694 81.076 80.1175C81.1346 80.0656 81.2112 80.0363 81.2911 80.0353H240.439C240.477 80.0342 240.515 80.041 240.55 80.0551C240.584 80.0691 240.616 80.0902 240.641 80.1168C240.667 80.1435 240.686 80.1751 240.698 80.2095C240.71 80.2439 240.714 80.2803 240.71 80.3163L232.778 167.235C232.77 167.311 232.734 167.382 232.675 167.434C232.617 167.486 232.54 167.515 232.46 167.516ZM73.653 166.954H232.213L240.098 80.5973H81.5381L73.653 166.954Z" fill="#E0E0E0"/>
<path d="M234.026 150.132H74.8951C74.8578 150.133 74.8208 150.125 74.7866 150.111C74.7524 150.096 74.7218 150.075 74.6968 150.049C74.6718 150.022 74.653 149.991 74.6416 149.957C74.6302 149.923 74.6264 149.887 74.6305 149.851C74.6365 149.775 74.6726 149.703 74.7315 149.651C74.7904 149.599 74.8678 149.57 74.9481 149.57H234.096C234.134 149.569 234.172 149.576 234.207 149.59C234.241 149.604 234.273 149.625 234.298 149.652C234.324 149.679 234.343 149.71 234.355 149.745C234.367 149.779 234.371 149.815 234.367 149.851C234.356 149.93 234.316 150.003 234.253 150.055C234.19 150.107 234.109 150.134 234.026 150.132Z" fill="#E0E0E0"/>
<path d="M235.629 132.75H76.4805C76.4429 132.75 76.4057 132.742 76.3712 132.728C76.3368 132.714 76.3059 132.693 76.2804 132.666C76.255 132.64 76.2356 132.608 76.2234 132.574C76.2113 132.54 76.2067 132.504 76.21 132.469C76.2186 132.392 76.2563 132.321 76.3159 132.269C76.3755 132.218 76.4529 132.189 76.5334 132.188H235.681C235.719 132.187 235.757 132.193 235.792 132.207C235.827 132.221 235.858 132.243 235.884 132.269C235.909 132.296 235.929 132.327 235.941 132.362C235.952 132.396 235.956 132.433 235.952 132.469C235.942 132.545 235.904 132.615 235.845 132.666C235.785 132.718 235.709 132.747 235.629 132.75Z" fill="#E0E0E0"/>
<path d="M237.215 115.363H78.0671C78.0292 115.364 77.9915 115.357 77.9567 115.343C77.9218 115.329 77.8904 115.308 77.8648 115.281C77.8392 115.255 77.8198 115.223 77.808 115.189C77.7963 115.154 77.7923 115.118 77.7966 115.082C77.8064 115.006 77.8444 114.936 77.9038 114.884C77.9631 114.832 78.0398 114.803 78.12 114.801H237.268C237.305 114.801 237.342 114.808 237.377 114.822C237.411 114.837 237.441 114.858 237.466 114.884C237.491 114.911 237.51 114.942 237.522 114.976C237.533 115.01 237.537 115.046 237.533 115.082C237.527 115.158 237.491 115.23 237.432 115.282C237.373 115.334 237.295 115.363 237.215 115.363Z" fill="#E0E0E0"/>
<path d="M238.805 97.9801H79.6569C79.619 97.9811 79.5814 97.9744 79.5465 97.9603C79.5116 97.9462 79.4803 97.9252 79.4546 97.8985C79.429 97.8719 79.4096 97.8403 79.3979 97.8059C79.3861 97.7715 79.3822 97.7351 79.3864 97.6991C79.3937 97.623 79.4301 97.5522 79.4888 97.5004C79.5474 97.4485 79.624 97.4192 79.7039 97.4181H238.858C238.896 97.4169 238.933 97.4237 238.968 97.4378C239.002 97.4519 239.033 97.4731 239.059 97.4998C239.084 97.5266 239.102 97.5583 239.114 97.5927C239.125 97.6271 239.128 97.6634 239.122 97.6991C239.117 97.7756 239.08 97.8472 239.022 97.8993C238.963 97.9514 238.885 97.9803 238.805 97.9801Z" fill="#E0E0E0"/>
<path d="M212.56 167.516C212.522 167.517 212.485 167.511 212.45 167.497C212.416 167.482 212.385 167.461 212.359 167.434C212.334 167.408 212.315 167.376 212.304 167.342C212.293 167.307 212.29 167.271 212.295 167.235L220.228 80.3163C220.235 80.2402 220.271 80.1694 220.33 80.1175C220.389 80.0656 220.465 80.0363 220.545 80.0353C220.583 80.0342 220.621 80.041 220.655 80.0551C220.69 80.0691 220.722 80.0902 220.747 80.1168C220.773 80.1435 220.792 80.1751 220.804 80.2095C220.816 80.2439 220.82 80.2803 220.816 80.3163L212.883 167.235C212.875 167.312 212.837 167.383 212.778 167.434C212.718 167.486 212.641 167.515 212.56 167.516Z" fill="#E0E0E0"/>
<path d="M192.671 167.516C192.633 167.517 192.595 167.51 192.56 167.496C192.525 167.482 192.494 167.461 192.468 167.435C192.443 167.408 192.423 167.376 192.412 167.342C192.4 167.308 192.396 167.271 192.4 167.235L200.332 80.3163C200.341 80.2397 200.379 80.1689 200.438 80.1171C200.498 80.0653 200.575 80.0362 200.656 80.0353C200.693 80.0341 200.731 80.0408 200.765 80.055C200.8 80.0691 200.831 80.0903 200.856 80.117C200.881 80.1438 200.9 80.1755 200.911 80.2099C200.922 80.2443 200.925 80.2806 200.92 80.3163L192.988 167.235C192.982 167.312 192.946 167.383 192.887 167.435C192.828 167.488 192.751 167.516 192.671 167.516Z" fill="#E0E0E0"/>
<path d="M172.778 167.516C172.74 167.517 172.702 167.51 172.668 167.496C172.633 167.482 172.601 167.461 172.576 167.435C172.55 167.408 172.531 167.376 172.519 167.342C172.507 167.308 172.503 167.271 172.508 167.235L180.44 80.3163C180.448 80.2397 180.486 80.1689 180.546 80.1171C180.605 80.0653 180.683 80.0362 180.763 80.0353C180.801 80.0341 180.838 80.0408 180.873 80.055C180.907 80.0691 180.938 80.0903 180.964 80.117C180.989 80.1438 181.008 80.1755 181.019 80.2099C181.03 80.2443 181.033 80.2806 181.028 80.3163L173.096 167.235C173.088 167.311 173.052 167.382 172.993 167.434C172.935 167.486 172.858 167.515 172.778 167.516Z" fill="#E0E0E0"/>
<path d="M152.88 167.516C152.842 167.517 152.804 167.51 152.769 167.496C152.734 167.482 152.703 167.461 152.677 167.435C152.652 167.408 152.632 167.376 152.621 167.342C152.609 167.308 152.605 167.271 152.609 167.235L160.524 80.3163C160.531 80.2402 160.567 80.1694 160.626 80.1175C160.685 80.0656 160.761 80.0363 160.841 80.0353C160.879 80.0342 160.917 80.041 160.951 80.0551C160.986 80.0691 161.018 80.0902 161.043 80.1168C161.069 80.1435 161.088 80.1751 161.1 80.2095C161.112 80.2439 161.116 80.2803 161.112 80.3163L153.203 167.235C153.196 167.312 153.158 167.384 153.098 167.436C153.039 167.488 152.96 167.517 152.88 167.516Z" fill="#E0E0E0"/>
<path d="M132.988 167.516C132.95 167.517 132.913 167.511 132.878 167.497C132.843 167.482 132.812 167.461 132.787 167.434C132.762 167.408 132.743 167.376 132.732 167.342C132.721 167.307 132.718 167.271 132.723 167.235L140.655 80.3163C140.661 80.2397 140.697 80.1682 140.756 80.1161C140.815 80.0639 140.892 80.035 140.973 80.0353C141.011 80.0342 141.048 80.041 141.083 80.0551C141.118 80.0691 141.149 80.0902 141.175 80.1168C141.201 80.1435 141.22 80.1751 141.232 80.2095C141.244 80.2439 141.247 80.2803 141.243 80.3163L133.311 167.235C133.303 167.312 133.265 167.383 133.205 167.434C133.146 167.486 133.068 167.515 132.988 167.516Z" fill="#E0E0E0"/>
<path d="M113.096 167.516C113.058 167.517 113.021 167.51 112.986 167.496C112.951 167.482 112.92 167.461 112.894 167.435C112.868 167.408 112.849 167.376 112.837 167.342C112.826 167.308 112.822 167.271 112.826 167.235L120.758 80.3163C120.767 80.2397 120.804 80.1689 120.864 80.1171C120.923 80.0653 121.001 80.0362 121.081 80.0353C121.119 80.0341 121.156 80.0408 121.191 80.055C121.226 80.0691 121.257 80.0903 121.282 80.117C121.307 80.1438 121.326 80.1755 121.337 80.2099C121.348 80.2443 121.351 80.2806 121.346 80.3163L113.414 167.235C113.408 167.312 113.372 167.383 113.313 167.435C113.254 167.488 113.177 167.516 113.096 167.516Z" fill="#E0E0E0"/>
<path d="M93.2057 167.516C93.1679 167.517 93.1302 167.51 93.0953 167.496C93.0604 167.482 93.0291 167.461 93.0035 167.435C92.9778 167.408 92.9585 167.376 92.9467 167.342C92.9349 167.308 92.931 167.271 92.9352 167.235L100.867 80.3163C100.876 80.2397 100.914 80.1689 100.973 80.1171C101.033 80.0653 101.11 80.0362 101.191 80.0353C101.228 80.0341 101.266 80.0408 101.301 80.055C101.335 80.0691 101.366 80.0903 101.391 80.117C101.417 80.1438 101.435 80.1755 101.446 80.2099C101.457 80.2443 101.461 80.2806 101.455 80.3163L93.5232 167.235C93.516 167.311 93.4795 167.382 93.4209 167.434C93.3623 167.486 93.2856 167.515 93.2057 167.516Z" fill="#E0E0E0"/>
<path d="M173.856 113.343H161.702C161.461 113.347 161.223 113.302 161.002 113.211C160.781 113.119 160.583 112.984 160.421 112.814C160.259 112.644 160.137 112.443 160.063 112.224C159.989 112.005 159.964 111.774 159.991 111.545L160.932 101.232C160.982 100.746 161.218 100.294 161.594 99.9621C161.97 99.6305 162.461 99.4426 162.972 99.4339H175.126C175.367 99.4293 175.607 99.4739 175.828 99.5649C176.05 99.6558 176.249 99.7909 176.411 99.9612C176.574 100.131 176.696 100.333 176.771 100.552C176.845 100.771 176.87 101.003 176.843 101.232L175.902 111.545C175.852 112.033 175.615 112.485 175.238 112.817C174.861 113.149 174.369 113.336 173.856 113.343Z" fill="#2F27CE"/>
<path opacity="0.6" d="M173.856 113.343H161.702C161.461 113.347 161.223 113.302 161.002 113.211C160.781 113.119 160.583 112.984 160.421 112.814C160.259 112.644 160.137 112.443 160.063 112.224C159.989 112.005 159.964 111.774 159.991 111.545L160.932 101.232C160.982 100.746 161.218 100.294 161.594 99.9621C161.97 99.6305 162.461 99.4426 162.972 99.4339H175.126C175.367 99.4293 175.607 99.4739 175.828 99.5649C176.05 99.6558 176.249 99.7909 176.411 99.9612C176.574 100.131 176.696 100.333 176.771 100.552C176.845 100.771 176.87 101.003 176.843 101.232L175.902 111.545C175.852 112.033 175.615 112.485 175.238 112.817C174.861 113.149 174.369 113.336 173.856 113.343Z" fill="white"/>
<path d="M258.658 113.345H245.881L247.145 99.4355H259.928L255.124 106.393L258.658 113.345Z" fill="white"/>
<path d="M259.13 113.626H245.553L246.876 99.1543H260.482L255.49 106.393L259.13 113.626ZM246.194 113.064H258.171L254.778 106.393L259.388 99.7163H247.411L246.194 113.064Z" fill="#2F27CE"/>
<path d="M211.939 130.726H199.785C199.545 130.731 199.306 130.686 199.085 130.596C198.864 130.505 198.665 130.371 198.503 130.201C198.34 130.031 198.218 129.831 198.143 129.612C198.068 129.393 198.043 129.162 198.068 128.934L199.009 118.615C199.062 118.129 199.3 117.678 199.677 117.348C200.054 117.018 200.544 116.831 201.056 116.822H213.209C213.45 116.819 213.688 116.864 213.909 116.955C214.13 117.046 214.328 117.18 214.49 117.35C214.652 117.519 214.775 117.72 214.85 117.938C214.925 118.156 214.951 118.387 214.926 118.615L213.986 128.934C213.933 129.42 213.695 129.87 213.318 130.201C212.941 130.531 212.451 130.718 211.939 130.726Z" fill="#2F27CE"/>
<path opacity="0.4" d="M211.939 130.726H199.785C199.545 130.731 199.306 130.686 199.085 130.596C198.864 130.505 198.665 130.371 198.503 130.201C198.34 130.031 198.218 129.831 198.143 129.612C198.068 129.393 198.043 129.162 198.068 128.934L199.009 118.615C199.062 118.129 199.3 117.678 199.677 117.348C200.054 117.018 200.544 116.831 201.056 116.822H213.209C213.45 116.819 213.688 116.864 213.909 116.955C214.13 117.046 214.328 117.18 214.49 117.35C214.652 117.519 214.775 117.72 214.85 117.938C214.925 118.156 214.951 118.387 214.926 118.615L213.986 128.934C213.933 129.42 213.695 129.87 213.318 130.201C212.941 130.531 212.451 130.718 211.939 130.726Z" fill="white"/>
<path d="M235.231 95.9624H202.962C202.721 95.9671 202.481 95.9224 202.26 95.8315C202.038 95.7406 201.839 95.6055 201.677 95.4352C201.514 95.2649 201.392 95.0635 201.317 94.8442C201.243 94.625 201.218 94.3931 201.245 94.164L202.186 83.8513C202.236 83.3647 202.472 82.9126 202.848 82.5811C203.224 82.2495 203.714 82.0616 204.226 82.0529H236.501C236.742 82.0492 236.981 82.0945 237.202 82.1857C237.423 82.277 237.622 82.4121 237.784 82.5821C237.946 82.7522 238.069 82.9533 238.144 83.1721C238.219 83.3909 238.244 83.6225 238.218 83.8513L237.278 94.164C237.227 94.6517 236.991 95.1045 236.613 95.4362C236.236 95.7678 235.744 95.9552 235.231 95.9624Z" fill="#2F27CE"/>
<path d="M106.501 110.996C101.597 110.996 97.5106 109.338 94.6117 106.163C90.8897 102.077 90.3311 97.0077 93.1476 92.9276C97.3283 86.8861 108.224 83.6658 115.392 84.5594C115.429 84.564 115.465 84.576 115.498 84.5947C115.53 84.6134 115.558 84.6384 115.579 84.6681C115.601 84.6977 115.616 84.7314 115.623 84.7669C115.63 84.8024 115.629 84.8389 115.621 84.8741C115.603 84.9484 115.557 85.0139 115.492 85.0584C115.427 85.1028 115.348 85.1232 115.268 85.1158C108.277 84.2447 97.6811 87.3638 93.6356 93.2086C90.4487 97.817 92.2891 102.718 95.0762 105.775C98.9629 110.035 104.261 110.636 108.012 110.383C115.18 109.906 123.03 105.988 127.551 100.638C128.816 99.1433 130.756 96.2715 129.568 93.8942C127.804 90.3367 121.924 90.584 117.02 91.191C116.983 91.1957 116.946 91.193 116.91 91.1832C116.874 91.1734 116.841 91.1566 116.812 91.1339C116.784 91.1113 116.76 91.0832 116.743 91.0514C116.727 91.0196 116.717 90.9849 116.715 90.9493C116.713 90.8728 116.74 90.7982 116.792 90.74C116.845 90.6819 116.917 90.6443 116.997 90.6346C120.278 90.2243 127.957 89.2746 130.103 93.6244C131.432 96.2996 129.351 99.3906 127.998 100.998C123.371 106.472 115.333 110.484 108.006 110.968C107.501 110.979 107.019 110.996 106.501 110.996Z" fill="#2F27CE"/>
<path d="M204.623 127.63H204.576C204.484 127.624 204.395 127.595 204.319 127.546C204.243 127.496 204.181 127.428 204.141 127.349C203.535 126.024 202.702 124.805 201.677 123.741C201.562 123.632 201.497 123.483 201.496 123.327C201.496 123.172 201.56 123.022 201.674 122.912C201.789 122.802 201.945 122.74 202.107 122.739C202.27 122.739 202.426 122.8 202.542 122.909C203.484 123.851 204.264 124.931 204.852 126.107C206.873 124.124 209.062 122.304 211.397 120.667C211.518 120.577 211.672 120.536 211.825 120.553C211.977 120.569 212.117 120.643 212.214 120.757C212.259 120.819 212.291 120.889 212.307 120.963C212.323 121.036 212.323 121.112 212.308 121.186C212.292 121.26 212.261 121.331 212.217 121.393C212.173 121.455 212.116 121.508 212.05 121.549C209.545 123.3 207.216 125.27 205.093 127.433C205.033 127.495 204.961 127.545 204.88 127.579C204.799 127.613 204.711 127.63 204.623 127.63Z" fill="white"/>
<path d="M182.97 164.852C182.124 164.866 181.286 164.707 180.509 164.387C179.733 164.067 179.037 163.593 178.467 162.996C177.897 162.399 177.466 161.693 177.203 160.925C176.941 160.157 176.852 159.344 176.943 158.541C177.127 156.833 177.958 155.248 179.281 154.086C180.604 152.925 182.326 152.266 184.122 152.235C184.967 152.221 185.806 152.379 186.582 152.698C187.359 153.018 188.055 153.491 188.625 154.088C189.195 154.684 189.626 155.39 189.889 156.157C190.152 156.925 190.24 157.738 190.149 158.541C189.966 160.25 189.134 161.835 187.811 162.998C186.489 164.16 184.767 164.82 182.97 164.852ZM184.046 153.359C182.574 153.39 181.164 153.934 180.081 154.888C178.998 155.842 178.317 157.141 178.166 158.541C178.091 159.201 178.163 159.869 178.379 160.5C178.595 161.132 178.948 161.712 179.417 162.202C179.885 162.693 180.457 163.083 181.095 163.346C181.733 163.609 182.422 163.739 183.117 163.728C184.59 163.696 186 163.151 187.082 162.196C188.165 161.241 188.845 159.942 188.997 158.541C189.07 157.881 188.996 157.214 188.78 156.584C188.563 155.954 188.209 155.375 187.741 154.885C187.274 154.395 186.702 154.006 186.065 153.743C185.428 153.48 184.74 153.349 184.046 153.359Z" fill="#2F27CE"/>
<path d="M126.419 130.018C125.574 130.031 124.735 129.873 123.959 129.553C123.182 129.233 122.486 128.759 121.916 128.162C121.346 127.565 120.915 126.859 120.653 126.091C120.39 125.323 120.301 124.51 120.392 123.707C120.576 121.994 121.411 120.406 122.739 119.243C124.066 118.079 125.794 117.422 127.595 117.395C128.44 117.382 129.279 117.54 130.056 117.86C130.832 118.18 131.528 118.655 132.098 119.251C132.668 119.848 133.099 120.554 133.362 121.322C133.624 122.09 133.713 122.903 133.622 123.707C133.437 125.418 132.601 127.006 131.274 128.169C129.947 129.332 128.219 129.99 126.419 130.018ZM127.466 118.519C125.993 118.55 124.582 119.095 123.499 120.05C122.416 121.005 121.736 122.306 121.586 123.707C121.511 124.367 121.583 125.035 121.799 125.666C122.014 126.297 122.368 126.877 122.836 127.368C123.305 127.859 123.877 128.248 124.515 128.512C125.153 128.775 125.842 128.905 126.537 128.894C128.009 128.862 129.419 128.317 130.502 127.362C131.584 126.407 132.265 125.107 132.417 123.707C132.491 123.048 132.418 122.381 132.202 121.751C131.987 121.121 131.634 120.541 131.168 120.051C130.701 119.561 130.131 119.171 129.494 118.907C128.858 118.643 128.171 118.511 127.477 118.519H127.466Z" fill="#2F27CE"/>
<path opacity="0.1" d="M137.909 145.13H76.816C76.2519 145.137 75.6925 145.031 75.1747 144.817C74.657 144.602 74.1927 144.286 73.8125 143.887C73.4324 143.489 73.145 143.018 72.9694 142.505C72.7939 141.993 72.7341 141.451 72.7941 140.915C72.9185 139.775 73.474 138.717 74.3564 137.941C75.2388 137.165 76.3874 136.724 77.5863 136.7H138.679C139.244 136.692 139.803 136.798 140.321 137.013C140.838 137.227 141.303 137.544 141.683 137.942C142.063 138.34 142.35 138.811 142.526 139.324C142.702 139.836 142.761 140.378 142.701 140.915C142.577 142.055 142.021 143.112 141.139 143.888C140.257 144.664 139.108 145.106 137.909 145.13Z" fill="black"/>
<path d="M56.6789 131.738L58.9721 132.677L55.8969 136.279C55.3595 135.384 54.9408 134.429 54.6503 133.436C54.607 133.29 54.5949 133.138 54.6147 132.988C54.6344 132.838 54.6856 132.693 54.7652 132.563C54.8448 132.432 54.9512 132.318 55.0779 132.227C55.2047 132.137 55.3492 132.072 55.5029 132.036L56.6789 131.738Z" fill="#FF8B7B"/>
<path d="M60.0203 136.566L58.6444 138.027C58.5405 138.138 58.4114 138.225 58.2671 138.281C58.1228 138.337 57.9669 138.36 57.8115 138.35C57.6561 138.34 57.5053 138.296 57.3704 138.221C57.2355 138.147 57.1202 138.044 57.0333 137.92L55.8926 136.302L58.9678 132.699L60.2085 135.509C60.2889 135.684 60.3139 135.877 60.2805 136.065C60.247 136.252 60.1566 136.427 60.0203 136.566Z" fill="#FF8B7B"/>
<path d="M140.906 143.715L61.3791 137.69C60.8173 137.655 60.2697 137.506 59.7723 137.254C59.2748 137.002 58.8388 136.652 58.4929 136.227C58.1469 135.803 57.8989 135.313 57.765 134.79C57.631 134.267 57.6143 133.724 57.7159 133.194C57.9345 132.067 58.5761 131.055 59.5202 130.348C60.4644 129.642 61.646 129.289 62.8432 129.356L142.37 135.375C142.932 135.409 143.481 135.558 143.978 135.809C144.476 136.061 144.913 136.411 145.259 136.836C145.605 137.261 145.853 137.751 145.986 138.274C146.12 138.797 146.136 139.341 146.033 139.871C145.815 140.998 145.174 142.011 144.23 142.719C143.286 143.426 142.104 143.781 140.906 143.715Z" fill="#2F27CE"/>
<path d="M84.7943 108.246C85.788 110.387 86.8052 112.585 87.8342 114.72C88.8632 116.856 89.9275 119.025 91.0682 120.902C91.3101 121.294 91.5793 121.669 91.8738 122.026C92.2266 122.425 92.6206 122.836 93.0204 123.257C93.8377 124.094 94.7138 124.943 95.59 125.775C97.354 127.461 99.118 129.147 100.882 130.906L99.118 133.103C96.8894 131.876 94.7304 130.536 92.65 129.091C91.6033 128.366 90.5802 127.613 89.5571 126.792C89.0455 126.382 88.5398 125.943 88.0224 125.466C87.4821 124.926 86.9885 124.345 86.5465 123.729C85.0741 121.621 83.752 119.421 82.5893 117.143C81.4427 114.923 80.3902 112.714 79.4082 110.399L84.7943 108.246Z" fill="#FF8B7B"/>
<path d="M65.3486 107.904C64.0138 109.989 62.6438 112.086 61.2738 114.159L57.1872 120.386L56.6874 121.162L56.6286 121.263V121.308V121.342C56.5992 121.385 56.5736 121.43 56.5521 121.477C56.4154 121.854 56.3323 122.247 56.3052 122.646C56.238 123.733 56.2715 124.824 56.4051 125.905C56.658 128.198 57.1342 130.62 57.6399 132.964L54.9116 133.931C53.6663 131.624 52.6808 129.198 51.9716 126.692C51.585 125.347 51.3543 123.966 51.2836 122.573C51.2426 121.73 51.3257 120.886 51.5306 120.066C51.6129 119.819 51.6776 119.594 51.7893 119.33L51.9716 118.948L52.048 118.796L52.101 118.695L52.5537 117.846C53.7297 115.598 55.0292 113.418 56.3404 111.26C57.6517 109.101 59.0158 106.983 60.4564 104.881L65.3486 107.904Z" fill="#FF8B7B"/>
<path d="M80.9062 92.3415C80.8004 92.6168 80.8651 92.9035 81.0532 92.9821C81.2414 93.0608 81.4825 92.8922 81.5942 92.6112C81.7059 92.3302 81.6354 92.0492 81.4472 91.9705C81.259 91.8918 81.018 92.0605 80.9062 92.3415Z" fill="#263238"/>
<path d="M80.8376 92.8984C80.8503 93.8927 81.0005 94.8811 81.2845 95.8377C81.0307 95.8954 80.7668 95.8987 80.5115 95.8471C80.2563 95.7956 80.0163 95.6907 79.8086 95.5398L80.8376 92.8984Z" fill="#FF5652"/>
<path d="M81.9828 90.7003C81.9448 90.6936 81.9099 90.676 81.8828 90.6497C81.7065 90.5115 81.4983 90.4154 81.2753 90.3695C81.0524 90.3236 80.8213 90.3291 80.601 90.3856C80.5774 90.3914 80.5529 90.3927 80.5288 90.3894C80.5047 90.386 80.4816 90.3781 80.4608 90.366C80.4399 90.354 80.4218 90.3381 80.4075 90.3192C80.3933 90.3004 80.3831 90.279 80.3776 90.2563C80.367 90.2116 80.3752 90.1647 80.4005 90.1258C80.4258 90.0869 80.4662 90.0591 80.5128 90.0484C80.7926 89.9769 81.0864 89.9712 81.3691 90.0319C81.6517 90.0926 81.9147 90.2178 82.1357 90.3968C82.1528 90.413 82.1663 90.4323 82.1755 90.4535C82.1848 90.4747 82.1895 90.4975 82.1895 90.5205C82.1895 90.5435 82.1848 90.5662 82.1755 90.5874C82.1663 90.6087 82.1528 90.6279 82.1357 90.6441C82.1166 90.6642 82.0928 90.6798 82.0662 90.6895C82.0397 90.6993 82.0111 90.703 81.9828 90.7003Z" fill="#263238"/>
<path d="M70.1884 92.8926C69.818 95.9161 70.4236 99.7265 68.2598 101.244C68.2598 101.244 68.7125 104.054 73.9163 104.824C79.6376 105.633 76.9622 102.48 76.9622 102.48C73.9222 101.317 74.2574 99.1083 75.0394 97.0907L70.1884 92.8926Z" fill="#FF8B7B"/>
<path d="M66.4424 103.143C66.366 101.749 66.4424 99.6476 67.3479 99.3441C68.3358 99.0125 74.1746 99.4565 77.1028 101.991C76.4325 103.255 76.0897 104.654 76.1032 106.071L66.4424 103.143Z" fill="#263238"/>
<path d="M48.5485 228.491C48.0191 228.449 47.5036 228.308 47.0315 228.075C47.0151 228.068 47.0013 228.056 46.9919 228.041C46.9825 228.026 46.9779 228.008 46.9786 227.991C46.9799 227.975 46.9862 227.959 46.9966 227.946C47.007 227.933 47.0212 227.923 47.0374 227.918C47.0903 227.918 48.2663 227.468 48.8014 227.71C48.859 227.736 48.9102 227.774 48.9518 227.821C48.9933 227.867 49.0242 227.921 49.0425 227.98C49.0753 228.048 49.0845 228.125 49.0686 228.199C49.0528 228.273 49.0127 228.34 48.9543 228.39C48.8366 228.47 48.6922 228.506 48.5485 228.491ZM47.3079 228.008C47.8488 228.238 48.6191 228.418 48.8249 228.255C48.8249 228.255 48.9072 228.193 48.8249 228.03C48.8134 227.995 48.7944 227.962 48.7691 227.934C48.7439 227.906 48.7128 227.883 48.6779 227.867C48.2165 227.789 47.7414 227.838 47.3079 228.008Z" fill="#2F27CE"/>
<path d="M47.0716 228.087C47.0471 228.086 47.0238 228.076 47.0069 228.059C46.9986 228.046 46.9941 228.032 46.9941 228.017C46.9941 228.002 46.9986 227.987 47.0069 227.975C47.0069 227.93 47.3362 226.907 47.8537 226.665C47.9173 226.637 47.9865 226.623 48.0565 226.623C48.1265 226.623 48.1957 226.637 48.2594 226.665C48.3283 226.681 48.3891 226.72 48.431 226.774C48.473 226.829 48.4934 226.896 48.4887 226.963C48.4887 227.385 47.542 227.992 47.1187 228.087H47.0716ZM48.0595 226.789C48.0066 226.789 47.9544 226.801 47.9066 226.823C47.5724 227.092 47.3324 227.453 47.2186 227.857C47.6596 227.666 48.2653 227.188 48.2829 226.935C48.2829 226.935 48.2829 226.851 48.1712 226.811C48.136 226.796 48.098 226.789 48.0595 226.789Z" fill="#2F27CE"/>
<path d="M78.1075 230.128C77.713 230.127 77.3193 230.091 76.9315 230.021C76.9149 230.015 76.9006 230.004 76.8905 229.99C76.8804 229.976 76.875 229.96 76.875 229.943C76.875 229.926 76.8804 229.909 76.8905 229.895C76.9006 229.881 76.9149 229.87 76.9315 229.864C77.1256 229.751 78.8425 228.813 79.2541 229.465C79.2959 229.522 79.3183 229.589 79.3183 229.659C79.3183 229.728 79.2959 229.796 79.2541 229.853C79.0777 230.061 78.6015 230.128 78.1075 230.128ZM77.2079 229.892C77.937 229.993 78.919 229.976 79.0836 229.751C79.0836 229.751 79.1365 229.678 79.0836 229.555C78.8249 229.184 77.7783 229.605 77.2079 229.892Z" fill="#2F27CE"/>
<path d="M76.9342 230.026C76.9191 230.032 76.9023 230.032 76.8872 230.026C76.8734 230.018 76.8623 230.006 76.855 229.992C76.8478 229.978 76.8446 229.963 76.846 229.947C76.8612 229.428 77.0509 228.928 77.387 228.52C77.4566 228.464 77.5371 228.421 77.6239 228.395C77.7107 228.369 77.8021 228.36 77.8927 228.368C78.1514 228.396 78.2278 228.52 78.2455 228.621C78.316 229.048 77.4399 229.829 76.9754 230.031L76.9342 230.026ZM77.8221 228.525C77.7057 228.526 77.5933 228.566 77.5046 228.638C77.2333 228.958 77.073 229.351 77.0459 229.762C77.5105 229.486 78.1102 228.868 78.0632 228.61C78.0632 228.61 78.0632 228.52 77.875 228.503L77.8221 228.525Z" fill="#2F27CE"/>
<path d="M72.6816 229.936H76.5507L76.5918 221.365H72.7169L72.6816 229.936Z" fill="#FF8B7B"/>
<path d="M42.6953 227.284L46.3233 228.087L49.3691 219.612L45.7412 218.809L42.6953 227.284Z" fill="#FF8B7B"/>
<path d="M46.8862 227.514L42.6702 226.486C42.5967 226.466 42.5183 226.472 42.4492 226.503C42.3801 226.534 42.3249 226.588 42.2939 226.655L40.8415 229.695C40.8064 229.771 40.7892 229.853 40.7912 229.936C40.7932 230.019 40.8143 230.1 40.8531 230.174C40.8919 230.248 40.9473 230.313 41.0154 230.365C41.0836 230.416 41.1627 230.452 41.2472 230.471C42.729 230.802 43.464 230.892 45.3162 231.336C46.4569 231.611 48.7854 232.291 50.3612 232.668C51.9371 233.045 52.4722 231.589 51.8548 231.302C49.097 229.993 48.1974 228.891 47.4448 227.863C47.3071 227.688 47.1094 227.564 46.8862 227.514Z" fill="#263238"/>
<path d="M76.5092 229.51H72.2814C72.2052 229.51 72.1314 229.535 72.0724 229.581C72.0134 229.627 71.973 229.691 71.958 229.763L71.3289 233.05C71.3142 233.132 71.3184 233.215 71.3413 233.295C71.3642 233.374 71.4052 233.448 71.4613 233.511C71.5175 233.574 71.5874 233.624 71.6661 233.658C71.7449 233.692 71.8305 233.709 71.9169 233.708C73.4398 233.708 75.6389 233.601 77.5558 233.601C79.802 233.601 79.8431 233.714 82.4715 233.714C84.0591 233.714 84.4413 232.179 83.771 232.028C80.7134 231.398 80.1371 231.331 77.4558 229.78C77.172 229.609 76.8446 229.515 76.5092 229.51Z" fill="#263238"/>
<path d="M63.7264 100.991C60.0456 101.272 54.8535 110.095 54.8535 110.095L61.5214 115.867C63.598 113.645 65.4874 111.27 67.1721 108.763C69.7887 104.756 67.4896 100.704 63.7264 100.991Z" fill="#2F27CE"/>
<path opacity="0.6" d="M63.7264 100.991C60.0456 101.272 54.8535 110.095 54.8535 110.095L61.5214 115.867C63.598 113.645 65.4874 111.27 67.1721 108.763C69.7887 104.756 67.4896 100.704 63.7264 100.991Z" fill="white"/>
<path opacity="0.2" d="M65.6092 107.342L61.2051 115.581L61.5167 115.856C61.5167 115.856 63.2219 114.075 65.1212 111.619L65.6092 107.342Z" fill="black"/>
<path d="M82.1714 120.773C81.507 124.853 80.4545 129.9 78.8375 136.116L58.3574 133.193C58.5456 130.383 61.6796 117.856 61.0622 104.408C61.0403 103.96 61.115 103.512 61.2817 103.093C61.4483 102.674 61.7033 102.292 62.0308 101.971C62.3584 101.65 62.7515 101.397 63.1857 101.228C63.6199 101.058 64.086 100.975 64.5549 100.985C65.5663 100.985 66.6776 101.058 67.7713 101.159C70.6961 101.414 73.6036 101.827 76.4796 102.396C78.4516 102.873 80.382 103.495 82.2537 104.256C82.2537 104.256 83.7237 106.319 82.9299 114.9C82.7712 116.603 82.5301 118.542 82.1714 120.773Z" fill="#2F27CE"/>
<path opacity="0.6" d="M82.1714 120.773C81.507 124.853 80.4545 129.9 78.8375 136.116L58.3574 133.193C58.5456 130.383 61.6796 117.856 61.0622 104.408C61.0403 103.96 61.115 103.512 61.2817 103.093C61.4483 102.674 61.7033 102.292 62.0308 101.971C62.3584 101.65 62.7515 101.397 63.1857 101.228C63.6199 101.058 64.086 100.975 64.5549 100.985C65.5663 100.985 66.6776 101.058 67.7713 101.159C70.6961 101.414 73.6036 101.827 76.4796 102.396C78.4516 102.873 80.382 103.495 82.2537 104.256C82.2537 104.256 83.7237 106.319 82.9299 114.9C82.7712 116.603 82.5301 118.542 82.1714 120.773Z" fill="white"/>
<path opacity="0.2" d="M82.1727 120.774C80.5087 119.768 78.9505 115.154 79.6502 112.721L82.9312 114.912C82.7725 116.604 82.5314 118.543 82.1727 120.774Z" fill="black"/>
<path d="M77.5692 106.779C76.5108 110.151 82.92 120.081 82.92 120.081L90.564 116.26C89.4396 113.148 87.9316 110.174 86.0717 107.403C83.0082 103.092 78.7922 102.969 77.5692 106.779Z" fill="#2F27CE"/>
<path opacity="0.6" d="M77.5692 106.779C76.5108 110.151 82.92 120.081 82.92 120.081L90.564 116.26C89.4396 113.148 87.9316 110.174 86.0717 107.403C83.0082 103.092 78.7922 102.969 77.5692 106.779Z" fill="white"/>
<path opacity="0.2" d="M76.5839 221.371L76.5663 225.788H72.6973L72.7149 221.371H76.5839Z" fill="black"/>
<path opacity="0.2" d="M45.7418 218.814L49.3698 219.612L47.794 223.985L44.1719 223.181L45.7418 218.814Z" fill="black"/>
<path d="M71.5292 87.9197C70.4061 91.4434 69.5652 93.4441 70.6707 95.9169C71.0138 96.7265 71.5828 97.4305 72.3157 97.9523C73.0486 98.474 73.9173 98.7934 74.8271 98.8758C75.7369 98.9581 76.6529 98.8001 77.4753 98.4191C78.2976 98.0381 78.9947 97.4486 79.4907 96.715C81.4546 93.905 82.9599 88.6334 80.0258 85.8852C79.4101 85.2721 78.6358 84.8254 77.7813 84.5904C76.9268 84.3554 76.0225 84.3404 75.16 84.5469C74.2976 84.7534 73.5075 85.1741 72.8699 85.7664C72.2322 86.3587 71.7697 87.1015 71.5292 87.9197Z" fill="#FF8B7B"/>
<path d="M77.4507 91.7912C77.0097 93.5952 75.8631 96.8492 73.0407 97.2257C71.4649 97.4336 68.8424 96.9897 68.6013 95.7757C68.3603 94.5618 69.3363 94.7248 69.0894 93.7301C68.8424 92.7353 67.5547 89.2341 69.0188 86.7837C66.9843 86.9467 68.3779 84.0637 72.0294 83.4117C70.9004 82.9902 71.4414 80.0397 77.0744 81.4447C79.7087 82.091 81.6667 83.0802 81.9019 84.4346C84.3009 85.4012 84.936 87.8347 83.4483 88.7226C81.9607 89.6106 79.8086 88.6102 79.8086 88.6102C79.8086 88.6102 80.8259 93.7582 77.4507 91.7912Z" fill="#263238"/>
<path d="M75.9166 91.5154C75.865 92.3246 76.1243 93.124 76.6457 93.7634C77.3455 94.6176 77.5807 94.6232 77.8688 93.6734C78.1334 92.8192 78.7743 90.9084 77.8394 90.4026C76.9045 89.8968 75.9989 90.5319 75.9166 91.5154Z" fill="#FF8B7B"/>
<path d="M71.5771 135.082C71.5771 135.082 68.396 164.104 66.4438 174.692C64.2682 186.292 49.8152 223.586 49.8152 223.586L42.9238 221.956C46.4518 209.03 51.6791 184.96 54.8602 175.743C57.2593 161.732 54.8602 144.119 58.3882 133.205L71.5771 135.082Z" fill="#263238"/>
<path d="M51.4183 221.428L50.1482 223.805L42.4102 221.945L43.0511 219.697L51.4183 221.428Z" fill="#2F27CE"/>
<path opacity="0.2" d="M69.6136 146.4C69.8329 146.359 70.0587 146.359 70.278 146.4C69.2608 155.067 67.8143 166.632 66.6736 173.27C65.721 163.626 64.839 147.3 69.6136 146.4Z" fill="black"/>
<path d="M78.8382 136.117C78.8382 136.117 80.4435 167.128 80.6787 178.407C80.9197 190.142 77.9797 224.935 77.9797 224.935H71.4177C71.4177 224.935 68.9422 192.671 70.2769 176.935C68.6952 164.947 65.3789 134.223 65.3789 134.223L78.8382 136.117Z" fill="#263238"/>
<path d="M102.518 130.553C101.451 130.468 100.378 130.614 99.3777 130.98L98.9014 131.733C98.8088 131.882 98.7526 132.049 98.7369 132.222C98.7213 132.394 98.7466 132.568 98.811 132.73C98.8755 132.892 98.9773 133.039 99.1091 133.158C99.2408 133.277 99.3989 133.366 99.5718 133.419L101.871 134.121L102.994 134.447C103.23 134.517 103.484 134.514 103.718 134.438C103.952 134.363 104.156 134.218 104.299 134.026L104.781 133.385C104.955 133.159 105.033 132.879 105.002 132.6C104.97 132.322 104.831 132.065 104.611 131.879L103.576 130.985C103.281 130.736 102.91 130.584 102.518 130.553Z" fill="#FF8B7B"/>
<path d="M79.1394 222.434L78.8748 225.036H70.8956L70.5898 222.715L79.1394 222.434Z" fill="#2F27CE"/>
</svg>
