<svg width="45" height="45" viewBox="0 0 45 45" fill="none" xmlns="http://www.w3.org/2000/svg">
<g opacity="0.7">
<path d="M13.125 41.25V24.0938C11.5312 23.6562 10.1953 22.7812 9.11719 21.4688C8.03906 20.1562 7.5 18.625 7.5 16.875V3.75H11.25V16.875H13.125V3.75H16.875V16.875H18.75V3.75H22.5V16.875C22.5 18.625 21.9609 20.1562 20.8828 21.4688C19.8047 22.7812 18.4688 23.6562 16.875 24.0938V41.25H13.125ZM31.875 41.25V26.25H26.25V13.125C26.25 10.5312 27.1641 8.32031 28.9922 6.49219C30.8203 4.66406 33.0312 3.75 35.625 3.75V41.25H31.875Z" fill="#030309"/>
</g>
</svg>
