<svg width="149" height="28" viewBox="0 0 149 28" fill="none" xmlns="http://www.w3.org/2000/svg">
<path d="M0.981534 27V0.818181H11.7969C13.7571 0.818181 15.4489 1.2017 16.8722 1.96875C18.304 2.72727 19.4077 3.78835 20.1832 5.15199C20.9588 6.5071 21.3466 8.08381 21.3466 9.8821C21.3466 11.6889 20.9503 13.2699 20.1577 14.625C19.3736 15.9716 18.2528 17.0156 16.7955 17.7571C15.3381 18.4986 13.608 18.8693 11.6051 18.8693H4.93182V13.8835H10.429C11.3835 13.8835 12.1804 13.7173 12.8196 13.3849C13.4673 13.0526 13.9574 12.5881 14.2898 11.9915C14.6222 11.3864 14.7884 10.6832 14.7884 9.8821C14.7884 9.07244 14.6222 8.37358 14.2898 7.78551C13.9574 7.18892 13.4673 6.72869 12.8196 6.40483C12.1719 6.08097 11.375 5.91903 10.429 5.91903H7.30966V27H0.981534ZM29.2773 0.818181V27H23.0259V0.818181H29.2773ZM37.3519 27.3324C36.099 27.3324 34.9868 27.1236 34.0152 26.706C33.0522 26.2798 32.2894 25.6406 31.7269 24.7884C31.1729 23.9276 30.8959 22.8494 30.8959 21.554C30.8959 20.4631 31.0877 19.5426 31.4712 18.7926C31.8547 18.0426 32.3831 17.4332 33.0564 16.9645C33.7297 16.4957 34.5053 16.142 35.3831 15.9034C36.261 15.6562 37.1985 15.4901 38.1956 15.4048C39.3121 15.3026 40.2113 15.196 40.8931 15.0852C41.5749 14.9659 42.0692 14.7997 42.376 14.5866C42.6914 14.3651 42.849 14.054 42.849 13.6534V13.5895C42.849 12.9332 42.6232 12.4261 42.1715 12.0682C41.7198 11.7102 41.1104 11.5312 40.3434 11.5312C39.5167 11.5312 38.8519 11.7102 38.349 12.0682C37.8462 12.4261 37.5266 12.9205 37.3902 13.5511L31.6246 13.3466C31.7951 12.1534 32.234 11.0881 32.9414 10.1506C33.6573 9.20455 34.6374 8.46307 35.8817 7.92614C37.1346 7.38068 38.6388 7.10795 40.3945 7.10795C41.6473 7.10795 42.8022 7.2571 43.859 7.5554C44.9158 7.84517 45.8363 8.27131 46.6204 8.83381C47.4044 9.38778 48.0096 10.0696 48.4357 10.8793C48.8704 11.6889 49.0877 12.6136 49.0877 13.6534V27H43.207V24.2642H43.0536C42.7042 24.929 42.2567 25.4915 41.7113 25.9517C41.1743 26.4119 40.5394 26.7571 39.8064 26.9872C39.082 27.2173 38.2638 27.3324 37.3519 27.3324ZM39.2823 23.2415C39.9556 23.2415 40.5607 23.1051 41.0976 22.8324C41.6431 22.5597 42.0777 22.1847 42.4016 21.7074C42.7255 21.2216 42.8874 20.6591 42.8874 20.0199V18.1534C42.7084 18.2472 42.4911 18.3324 42.2354 18.4091C41.9883 18.4858 41.7155 18.5582 41.4172 18.6264C41.1189 18.6946 40.8121 18.7543 40.4968 18.8054C40.1814 18.8565 39.8789 18.9034 39.5891 18.946C39.001 19.0398 38.4982 19.1847 38.0806 19.3807C37.6715 19.5767 37.3561 19.8324 37.1346 20.1477C36.9215 20.4545 36.815 20.821 36.815 21.2472C36.815 21.8949 37.0451 22.3892 37.5053 22.7301C37.974 23.071 38.5664 23.2415 39.2823 23.2415ZM57.7215 15.8011V27H51.4701V7.36364H57.4147V10.9688H57.6321C58.0667 9.76705 58.8082 8.82528 59.8565 8.14347C60.9048 7.45312 62.1534 7.10795 63.6022 7.10795C64.9829 7.10795 66.1804 7.41903 67.1946 8.04119C68.2173 8.65483 69.0099 9.51562 69.5724 10.6236C70.1434 11.723 70.4247 13.0099 70.4162 14.4844V27H64.1647V15.7116C64.1733 14.6207 63.8963 13.7685 63.3338 13.1548C62.7798 12.5412 62.0085 12.2344 61.0198 12.2344C60.3636 12.2344 59.784 12.3793 59.2812 12.669C58.7869 12.9503 58.4034 13.3551 58.1306 13.8835C57.8664 14.4119 57.7301 15.0511 57.7215 15.8011ZM79.098 15.8011V27H72.8465V7.36364H78.7911V10.9688H79.0085C79.4431 9.76705 80.1846 8.82528 81.2329 8.14347C82.2812 7.45312 83.5298 7.10795 84.9786 7.10795C86.3593 7.10795 87.5568 7.41903 88.571 8.04119C89.5937 8.65483 90.3863 9.51562 90.9488 10.6236C91.5198 11.723 91.8011 13.0099 91.7926 14.4844V27H85.5411V15.7116C85.5497 14.6207 85.2727 13.7685 84.7102 13.1548C84.1562 12.5412 83.3849 12.2344 82.3962 12.2344C81.74 12.2344 81.1605 12.3793 80.6576 12.669C80.1633 12.9503 79.7798 13.3551 79.507 13.8835C79.2428 14.4119 79.1065 15.0511 79.098 15.8011ZM101.395 27.2812C99.946 27.2812 98.6292 26.9062 97.4445 26.1562C96.2599 25.4062 95.3139 24.2812 94.6065 22.7812C93.8991 21.2812 93.5454 19.419 93.5454 17.1946C93.5454 14.8849 93.9119 12.9844 94.6448 11.4929C95.3778 10.0014 96.3366 8.89773 97.5212 8.18182C98.7144 7.46591 99.9971 7.10795 101.369 7.10795C102.401 7.10795 103.283 7.28693 104.016 7.64489C104.749 7.99432 105.354 8.44602 105.831 9C106.308 9.55398 106.67 10.1293 106.918 10.7259H107.045V0.818181H113.297V27H107.109V23.8168H106.918C106.653 24.4219 106.278 24.9886 105.793 25.517C105.307 26.0455 104.697 26.4716 103.964 26.7955C103.24 27.1193 102.383 27.2812 101.395 27.2812ZM103.568 22.4105C104.327 22.4105 104.974 22.1974 105.511 21.7713C106.048 21.3366 106.462 20.7273 106.751 19.9432C107.041 19.1591 107.186 18.2386 107.186 17.1818C107.186 16.108 107.041 15.1832 106.751 14.4077C106.47 13.6321 106.057 13.0355 105.511 12.6179C104.974 12.2003 104.327 11.9915 103.568 11.9915C102.793 11.9915 102.136 12.2045 101.599 12.6307C101.062 13.0568 100.653 13.6577 100.372 14.4332C100.099 15.2088 99.963 16.125 99.963 17.1818C99.963 18.2386 100.104 19.1591 100.385 19.9432C100.666 20.7273 101.071 21.3366 101.599 21.7713C102.136 22.1974 102.793 22.4105 103.568 22.4105ZM124.989 27.3707C122.935 27.3707 121.163 26.9659 119.671 26.1562C118.188 25.3381 117.046 24.1747 116.245 22.6662C115.452 21.1491 115.056 19.3466 115.056 17.2585C115.056 15.2301 115.457 13.4574 116.258 11.9403C117.059 10.4148 118.188 9.23011 119.646 8.38636C121.103 7.53409 122.82 7.10795 124.798 7.10795C126.195 7.10795 127.474 7.32528 128.633 7.75994C129.792 8.1946 130.793 8.83807 131.637 9.69034C132.481 10.5426 133.137 11.5952 133.606 12.848C134.074 14.0923 134.309 15.5199 134.309 17.1307V18.6903H117.242V15.0597H128.492C128.484 14.3949 128.326 13.8026 128.019 13.2827C127.712 12.7628 127.29 12.358 126.753 12.0682C126.225 11.7699 125.616 11.6207 124.925 11.6207C124.226 11.6207 123.6 11.7784 123.046 12.0938C122.492 12.4006 122.053 12.8224 121.729 13.3594C121.405 13.8878 121.235 14.4886 121.218 15.1619V18.8565C121.218 19.6577 121.376 20.3608 121.691 20.9659C122.006 21.5625 122.454 22.027 123.033 22.3594C123.613 22.6918 124.303 22.858 125.104 22.858C125.658 22.858 126.161 22.7812 126.613 22.6278C127.065 22.4744 127.452 22.2486 127.776 21.9503C128.1 21.652 128.343 21.2855 128.505 20.8509L134.245 21.017C134.006 22.304 133.482 23.4247 132.673 24.3793C131.871 25.3253 130.819 26.0625 129.515 26.5909C128.211 27.1108 126.702 27.3707 124.989 27.3707ZM136.062 27V7.36364H142.134V10.9432H142.339C142.697 9.64773 143.28 8.68466 144.09 8.05398C144.9 7.41477 145.842 7.09517 146.915 7.09517C147.205 7.09517 147.503 7.11648 147.81 7.15909C148.117 7.19318 148.403 7.24858 148.667 7.32528V12.7585C148.369 12.6562 147.976 12.5753 147.491 12.5156C147.013 12.456 146.587 12.4261 146.212 12.4261C145.471 12.4261 144.802 12.5923 144.205 12.9247C143.617 13.2486 143.153 13.7045 142.812 14.2926C142.479 14.8722 142.313 15.554 142.313 16.3381V27H136.062Z" fill="url(#paint0_linear_1459_12651)"/>
<defs>
<linearGradient id="paint0_linear_1459_12651" x1="-1" y1="14" x2="150" y2="14" gradientUnits="userSpaceOnUse">
<stop stop-color="#2F27CE"/>
<stop offset="1" stop-color="#AC6ED9"/>
</linearGradient>
</defs>
</svg>
