<svg width="210" height="210" viewBox="0 0 210 210" fill="none" xmlns="http://www.w3.org/2000/svg">
<path d="M38.2213 172.263C74.8831 191.415 134.322 191.415 170.979 172.263C207.637 153.111 207.641 122.06 170.979 102.908C134.317 83.7564 74.8831 83.7606 38.2213 102.9C1.55954 122.039 1.56374 153.115 38.2213 172.263Z" fill="#F5F5F5"/>
<path d="M127.392 164.267L40.8716 114.312C40.2668 113.963 40.2668 113.4 40.8716 113.052L91.5572 83.7737C91.8958 83.6027 92.2698 83.5137 92.6492 83.5137C93.0285 83.5137 93.4025 83.6027 93.7412 83.7737L180.261 133.754C180.866 134.098 180.866 134.665 180.261 135.014L129.559 164.288C129.221 164.454 128.849 164.538 128.473 164.534C128.096 164.531 127.726 164.439 127.392 164.267Z" fill="#E6E6E6"/>
<path d="M39.7687 150.696C52.378 150.696 62.5999 145.824 62.5999 139.814C62.5999 133.804 52.378 128.932 39.7687 128.932C27.1594 128.932 16.9375 133.804 16.9375 139.814C16.9375 145.824 27.1594 150.696 39.7687 150.696Z" fill="#EBEBEB"/>
<path d="M109.403 92.2481C110.47 92.2691 112.234 90.8873 112.503 89.1737C112.772 87.4601 113.28 86.1077 115.72 85.1837C118.16 84.2597 119.534 83.8397 120.315 81.7145C121.096 79.5893 119.895 77.1953 119.555 75.3851C119.214 73.5749 120.89 71.4665 123.335 69.4757C125.779 67.4849 127.19 65.3849 125.015 64.1249C122.839 62.8649 120.126 63.3941 117.753 64.9187C115.38 66.4433 113.519 68.4425 110.613 68.1779C107.706 67.9133 106.064 69.1565 105.493 71.4455C104.922 73.7345 105.749 76.6367 103.582 77.3549V87.0779L109.403 92.2481Z" fill="#2F27CE"/>
<path d="M105.003 87.8637H104.957C104.903 87.8516 104.856 87.8188 104.826 87.7725C104.797 87.7261 104.786 87.6699 104.797 87.6159C107.019 77.9979 117.049 67.3509 122.467 65.1417C122.493 65.128 122.521 65.1198 122.55 65.1177C122.58 65.1156 122.609 65.1197 122.636 65.1296C122.664 65.1395 122.689 65.1551 122.71 65.1753C122.731 65.1955 122.748 65.22 122.759 65.247C122.77 65.2741 122.776 65.3032 122.775 65.3324C122.774 65.3617 122.768 65.3905 122.755 65.417C122.743 65.4434 122.725 65.467 122.702 65.4861C122.68 65.5053 122.654 65.5195 122.626 65.5281C117.288 67.7079 107.401 78.2121 105.209 87.7083C105.196 87.753 105.169 87.7924 105.132 87.8204C105.095 87.8485 105.05 87.8636 105.003 87.8637Z" fill="white"/>
<path d="M110.586 76.3682C110.537 76.3678 110.489 76.3499 110.451 76.3176C110.413 76.2854 110.388 76.2408 110.38 76.1918C110.087 74.5631 109.509 72.999 108.671 71.5718C108.643 71.5242 108.634 71.4674 108.646 71.4133C108.659 71.3593 108.692 71.3122 108.738 71.282C108.762 71.2673 108.788 71.2574 108.815 71.2529C108.842 71.2483 108.87 71.2492 108.897 71.2554C108.924 71.2617 108.949 71.2732 108.972 71.2893C108.994 71.3053 109.013 71.3257 109.028 71.3492C109.901 72.8267 110.499 74.4504 110.792 76.1414C110.797 76.1685 110.797 76.1965 110.791 76.2235C110.786 76.2505 110.774 76.2761 110.758 76.2985C110.742 76.321 110.721 76.3399 110.698 76.354C110.674 76.3682 110.647 76.3773 110.62 76.3808L110.586 76.3682Z" fill="white"/>
<path d="M108.853 79.2908C108.807 79.2908 108.761 79.2756 108.724 79.2476C108.687 79.2195 108.66 79.1802 108.647 79.1354C108.64 79.1087 108.639 79.0808 108.643 79.0534C108.647 79.0261 108.656 78.9997 108.67 78.9759C108.684 78.9521 108.702 78.9313 108.725 78.9147C108.747 78.8981 108.772 78.8861 108.799 78.8792C112.1 78.0056 116.27 78.8414 116.447 78.8792C116.474 78.8847 116.501 78.8956 116.524 78.9113C116.547 78.9269 116.567 78.947 116.583 78.9704C116.599 78.9938 116.609 79.0201 116.615 79.0477C116.62 79.0753 116.62 79.1037 116.615 79.1312C116.609 79.1588 116.598 79.185 116.583 79.2084C116.567 79.2318 116.547 79.2518 116.524 79.2674C116.5 79.283 116.474 79.2939 116.446 79.2993C116.419 79.3048 116.39 79.3047 116.363 79.2992C116.321 79.2992 112.108 78.4592 108.904 79.2992C108.886 79.3006 108.869 79.2977 108.853 79.2908Z" fill="white"/>
<path d="M145.971 35.7457L147.58 36.3631V32.8183C147.58 30.0043 149.822 29.3281 152.258 30.7183C154.694 32.1253 156.668 35.5441 156.668 38.3581V38.8915C157.012 38.7848 157.375 38.7578 157.73 38.8123C158.085 38.8669 158.423 39.0017 158.718 39.2065C159.641 39.8094 160.41 40.6213 160.961 41.5765C161.512 42.5317 161.83 43.6032 161.889 44.7043V44.9395L164.136 46.2373C164.746 46.6329 165.255 47.1669 165.62 47.7961C165.985 48.4252 166.196 49.1315 166.236 49.8577C166.236 51.1891 165.304 51.7309 164.136 51.0631L145.971 40.5631C145.361 40.1675 144.853 39.6334 144.488 39.0043C144.123 38.3752 143.911 37.6689 143.871 36.9427C143.879 35.6197 144.816 35.0779 145.971 35.7457Z" fill="#EBEBEB"/>
<path d="M164.221 36.9219L167.161 38.6019C167.161 38.4717 167.136 38.3457 167.136 38.2155V37.3797C167.136 35.8761 168.194 35.2797 169.496 36.0189C170.045 36.3686 170.512 36.8328 170.865 37.3797C171.08 35.4855 172.545 34.7799 174.368 35.8215C176.317 36.9471 177.9 39.6855 177.9 41.9367V43.1967C177.912 43.7015 177.81 44.2025 177.602 44.6625L180.026 46.0611C180.407 46.3095 180.724 46.6443 180.952 47.0384C181.18 47.4324 181.311 47.8747 181.336 48.3291C181.336 49.1691 180.748 49.5009 180.026 49.0851L164.221 39.9459C163.84 39.6976 163.522 39.3628 163.294 38.9687C163.067 38.5746 162.935 38.1324 162.911 37.6779C162.894 36.8421 163.482 36.5061 164.221 36.9219Z" fill="#EBEBEB"/>
<path d="M104.633 38.1987L119.954 29.3535L123.365 31.3233L119.954 37.2327L104.633 46.0779V38.1987Z" fill="#455A64"/>
<path d="M119.955 29.3542L118.246 28.3672L102.895 37.2334L104.633 38.1994L119.955 29.3542Z" fill="#37474F"/>
<path d="M106.856 42.1595C106.723 42.2141 106.58 42.2399 106.436 42.2351C106.398 42.2351 106.386 42.2351 106.386 42.2057C106.382 42.1863 106.382 42.1663 106.386 42.1469L106.516 41.8697C106.525 41.8459 106.54 41.8244 106.558 41.8067H106.613C106.727 41.8045 106.84 41.7861 106.949 41.7521C107.085 41.7108 107.216 41.653 107.339 41.5799C107.496 41.4977 107.638 41.3898 107.759 41.2607C107.844 41.1577 107.892 41.0288 107.894 40.8953C107.897 40.8667 107.894 40.8376 107.886 40.81C107.877 40.7825 107.863 40.7572 107.843 40.7357C107.798 40.7071 107.745 40.6952 107.692 40.7021C107.585 40.7106 107.478 40.726 107.373 40.7483H107.285C107.146 40.775 107.006 40.7904 106.865 40.7945C106.765 40.7991 106.666 40.7678 106.587 40.7063C106.547 40.6658 106.517 40.6169 106.498 40.5631C106.479 40.5094 106.472 40.4522 106.478 40.3955C106.488 40.1351 106.584 39.8854 106.751 39.6857C106.948 39.4373 107.192 39.2303 107.469 39.0767C107.619 38.9886 107.776 38.9154 107.94 38.8583C108.05 38.8192 108.168 38.8049 108.284 38.8163C108.314 38.8163 108.33 38.8163 108.33 38.8583C108.335 38.8748 108.335 38.8922 108.33 38.9087L108.204 39.1859C108.195 39.2073 108.182 39.2271 108.167 39.2447C108.15 39.2492 108.133 39.2492 108.116 39.2447C107.893 39.2506 107.675 39.3206 107.49 39.4463C107.347 39.5228 107.22 39.627 107.117 39.7529C107.035 39.8541 106.991 39.98 106.991 40.1099C106.984 40.1383 106.986 40.1678 106.994 40.1955C107.003 40.2232 107.019 40.2482 107.04 40.2681C107.061 40.288 107.087 40.302 107.115 40.3089C107.143 40.3158 107.173 40.3152 107.201 40.3073C107.311 40.2968 107.42 40.2799 107.528 40.2569H107.629C107.775 40.2259 107.925 40.209 108.074 40.2065C108.121 40.2048 108.167 40.2125 108.21 40.2291C108.253 40.2457 108.293 40.2709 108.326 40.3031C108.394 40.3935 108.425 40.5058 108.414 40.6181C108.407 40.8671 108.317 41.1065 108.158 41.2985C107.963 41.5483 107.718 41.7555 107.44 41.9075C107.254 42.0107 107.059 42.0951 106.856 42.1595Z" fill="white"/>
<path d="M109.036 40.5983C108.801 40.4891 108.688 40.2119 108.688 39.7583C108.684 39.3233 108.805 38.8963 109.036 38.5277C109.286 38.138 109.632 37.8186 110.04 37.5995C110.46 37.3517 110.8 37.2803 111.031 37.3895C111.262 37.4987 111.384 37.7759 111.384 38.2295C111.386 38.6663 111.264 39.0947 111.031 39.4643C110.784 39.8506 110.443 40.1683 110.04 40.3883C109.62 40.6403 109.267 40.7075 109.036 40.5983ZM110.657 39.3971C110.807 39.1246 110.882 38.8175 110.876 38.5067C110.876 38.1707 110.804 37.9607 110.657 37.8683C110.51 37.7759 110.305 37.8137 110.032 37.9733C109.768 38.1199 109.549 38.3345 109.397 38.5949C109.258 38.8688 109.19 39.1737 109.2 39.4811C109.2 39.8171 109.271 40.0271 109.414 40.1195C109.557 40.2119 109.771 40.1741 110.048 40.0145C110.304 39.868 110.514 39.6545 110.657 39.3971Z" fill="white"/>
<path d="M112.308 38.9517C112.235 38.968 112.159 38.9674 112.086 38.9499C112.013 38.9325 111.945 38.8986 111.888 38.8509C111.834 38.79 111.793 38.7187 111.768 38.6414C111.743 38.5641 111.733 38.4825 111.741 38.4015V36.8181C111.738 36.7723 111.75 36.7268 111.774 36.6879C111.801 36.6453 111.839 36.6105 111.884 36.5871L112.094 36.4695C112.109 36.4559 112.127 36.4458 112.147 36.44C112.166 36.4342 112.187 36.4328 112.207 36.4359C112.207 36.4359 112.241 36.4779 112.241 36.5283V38.1201C112.241 38.3259 112.299 38.4477 112.421 38.4813C112.512 38.493 112.603 38.4868 112.691 38.463C112.779 38.4392 112.861 38.3984 112.934 38.3427C113.135 38.2329 113.308 38.0793 113.442 37.8933C113.56 37.728 113.623 37.5296 113.622 37.3263V35.7303C113.622 35.6847 113.634 35.6398 113.656 35.6001C113.686 35.5583 113.724 35.5238 113.769 35.4993L113.975 35.3817C114.076 35.3229 114.126 35.3397 114.126 35.4363V37.0197C114.125 37.2354 114.075 37.448 113.979 37.6413C113.871 37.8594 113.729 38.0592 113.559 38.2335C113.376 38.4214 113.166 38.5825 112.938 38.7123C112.746 38.8345 112.532 38.916 112.308 38.9517Z" fill="white"/>
<path d="M115.275 37.267C115.25 37.267 115.238 37.2292 115.238 37.1788V35.0368L114.549 35.4316C114.498 35.461 114.465 35.4736 114.444 35.461C114.423 35.4484 114.414 35.4232 114.414 35.3728V35.2804C114.412 35.2365 114.422 35.1929 114.444 35.1544C114.472 35.1152 114.507 35.0823 114.549 35.0578L116.43 33.9742C116.446 33.9622 116.463 33.9533 116.482 33.9483C116.501 33.9432 116.52 33.942 116.54 33.9448C116.54 33.9448 116.569 33.9868 116.569 34.033V34.1422C116.571 34.1848 116.561 34.2272 116.54 34.264C116.511 34.3043 116.474 34.3374 116.43 34.3606L115.742 34.7554V36.9016C115.741 36.9458 115.73 36.9892 115.708 37.0276C115.68 37.0724 115.639 37.1075 115.59 37.1284L115.389 37.2502C115.334 37.267 115.296 37.2754 115.275 37.267Z" fill="white"/>
<path d="M116.908 36.3219C116.887 36.3219 116.879 36.2799 116.879 36.2337V33.8481C116.877 33.8029 116.888 33.758 116.908 33.7179C116.939 33.6785 116.978 33.6457 117.022 33.6213L117.232 33.4995C117.282 33.4701 117.32 33.4575 117.345 33.4701C117.37 33.4827 117.379 33.5079 117.379 33.5583V34.5495L118.668 33.8061V32.8149C118.668 32.7693 118.679 32.7244 118.702 32.6847C118.732 32.6419 118.773 32.6072 118.819 32.5839L119.021 32.4663C119.076 32.4327 119.113 32.4243 119.134 32.4327C119.155 32.4411 119.172 32.4747 119.172 32.5251V34.9107C119.173 34.9537 119.161 34.9958 119.139 35.0325C119.109 35.0766 119.068 35.1126 119.021 35.1375L118.819 35.2551C118.765 35.2845 118.727 35.2971 118.702 35.2845C118.677 35.2719 118.668 35.2467 118.668 35.2005V34.1841L117.379 34.9317V35.9439C117.381 35.9884 117.369 36.0323 117.345 36.0699C117.317 36.1126 117.278 36.1473 117.232 36.1707L117.022 36.2925C117.006 36.3047 116.988 36.3136 116.968 36.3186C116.949 36.3237 116.928 36.3248 116.908 36.3219Z" fill="white"/>
<path d="M102.861 47.0522L87.5396 38.207L84.125 40.1768L87.5396 46.0862L102.861 54.9314V47.0522Z" fill="#455A64"/>
<path d="M87.5391 38.2074L89.2443 37.2246L104.599 46.0866L102.861 47.0526L87.5391 38.2074Z" fill="#37474F"/>
<path d="M88.989 44.5197C88.964 44.4893 88.9467 44.4532 88.9386 44.4147L88.2246 41.5209C88.222 41.5084 88.222 41.4955 88.2246 41.4831C88.2246 41.4453 88.2498 41.4411 88.3086 41.4831L88.6782 41.6973C88.7126 41.716 88.7438 41.7401 88.7706 41.7687C88.789 41.7937 88.8019 41.8223 88.8084 41.8527L89.262 43.8435L89.808 42.6339C89.8098 42.6238 89.815 42.6146 89.8226 42.6078C89.8302 42.601 89.8398 42.5968 89.85 42.5961C89.85 42.5961 89.892 42.5961 89.934 42.6255L90.144 42.7473C90.1768 42.7629 90.2056 42.7859 90.228 42.8145C90.2469 42.8413 90.2611 42.8711 90.27 42.9027L90.8202 44.7423L91.2654 43.2723C91.2654 43.2471 91.2864 43.2345 91.3074 43.2345C91.3409 43.2359 91.3732 43.2477 91.3998 43.2681L91.7694 43.4823C91.8282 43.5159 91.8576 43.5537 91.8576 43.5915C91.8603 43.6025 91.8603 43.614 91.8576 43.6251L91.1394 45.6579C91.1394 45.6873 91.11 45.7041 91.089 45.7041C91.053 45.7021 91.0182 45.6905 90.9882 45.6705L90.7446 45.5277C90.7086 45.5078 90.676 45.4823 90.648 45.4521C90.6232 45.4194 90.6047 45.3823 90.5934 45.3429L90.0474 43.4529L89.5014 44.7129C89.5014 44.7423 89.472 44.7591 89.451 44.7591C89.4154 44.7552 89.381 44.7437 89.3502 44.7255L89.1024 44.5785C89.0607 44.5676 89.022 44.5475 88.989 44.5197Z" fill="white"/>
<path d="M92.3386 46.4224C92.3135 46.3836 92.3003 46.3383 92.3008 46.2922V43.9066C92.3008 43.8562 92.3134 43.8268 92.3386 43.8184C92.3638 43.8184 92.4058 43.8184 92.4688 43.8604L94.3546 44.9482C94.4038 44.9734 94.4469 45.0093 94.4806 45.0532C94.5034 45.0912 94.5151 45.1348 94.5142 45.1792V45.2842C94.5142 45.3346 94.5142 45.364 94.4806 45.3724C94.447 45.3808 94.4176 45.3724 94.3546 45.3346L92.8804 44.4946V45.259L93.9514 45.8764C94.0007 45.9015 94.0438 45.9374 94.0774 45.9814C94.1034 46.0181 94.1167 46.0624 94.1152 46.1074V46.1998C94.1152 46.246 94.1152 46.2754 94.0774 46.2838C94.0322 46.2867 93.9875 46.2732 93.9514 46.246L92.8804 45.6286V46.393L94.3504 47.233C94.4021 47.2581 94.4469 47.2956 94.4806 47.3422C94.5034 47.3802 94.5151 47.4238 94.5142 47.4682V47.5732C94.5142 47.6236 94.5142 47.6488 94.4806 47.6572C94.4341 47.6559 94.3889 47.6413 94.3504 47.6152L92.4688 46.5274C92.4175 46.5034 92.3728 46.4674 92.3386 46.4224Z" fill="white"/>
<path d="M95.387 48.2131C95.206 48.0786 95.0398 47.9251 94.8914 47.7553C94.8494 47.7091 94.8326 47.6797 94.8326 47.6587C94.8297 47.6528 94.8281 47.6463 94.8281 47.6398C94.8281 47.6332 94.8297 47.6267 94.8326 47.6209L94.9838 47.5033C94.9904 47.4982 94.9986 47.4954 95.0069 47.4954C95.0153 47.4954 95.0234 47.4982 95.03 47.5033C95.0543 47.5173 95.0757 47.5358 95.093 47.5579C95.2117 47.6886 95.341 47.8094 95.4794 47.9191C95.6211 48.0352 95.7713 48.1405 95.9288 48.2341C96.0694 48.3272 96.2284 48.3888 96.395 48.4147C96.5 48.4147 96.5504 48.3517 96.5504 48.2173C96.5519 48.1391 96.5316 48.062 96.4916 47.9947C96.4442 47.9146 96.3863 47.8411 96.3194 47.7763C96.2438 47.6979 96.122 47.5803 95.954 47.4235L95.849 47.3311C95.6516 47.1463 95.4878 46.9867 95.3618 46.8523C95.2387 46.7258 95.1315 46.5848 95.0426 46.4323C94.9605 46.2981 94.9155 46.1444 94.9124 45.9871C94.9124 45.7477 95.0174 45.6217 95.2274 45.6133C95.528 45.6315 95.8181 45.7301 96.0674 45.8989C96.2557 46.0088 96.4367 46.1309 96.6092 46.2643C96.7549 46.3779 96.8873 46.5075 97.004 46.6507C97.0321 46.6762 97.0513 46.71 97.0586 46.7473C97.0616 46.7524 97.0631 46.7582 97.0631 46.7641C97.0631 46.77 97.0616 46.7758 97.0586 46.7809L96.9116 46.9027C96.9052 46.9064 96.898 46.9083 96.8906 46.9083C96.8832 46.9083 96.876 46.9064 96.8696 46.9027C96.8462 46.8859 96.825 46.8661 96.8066 46.8439C96.5992 46.6141 96.3568 46.4185 96.0884 46.2643C95.9633 46.1788 95.819 46.1255 95.6684 46.1089C95.5718 46.1089 95.5256 46.1803 95.5256 46.3105C95.5241 46.3914 95.5444 46.4712 95.5844 46.5415C95.6348 46.6244 95.6955 46.7006 95.765 46.7683C95.8406 46.8481 95.9708 46.9657 96.1472 47.1253L96.2564 47.2303C96.479 47.4319 96.6512 47.6041 96.7772 47.7385C96.8903 47.8655 96.9863 48.0066 97.0628 48.1585C97.1299 48.2885 97.1658 48.4322 97.1678 48.5785C97.1678 48.8053 97.067 48.9271 96.8738 48.9439C96.5725 48.93 96.2812 48.831 96.0338 48.6583C95.8087 48.5241 95.5927 48.3754 95.387 48.2131Z" fill="white"/>
<path d="M98.2809 49.8545C98.2522 49.8173 98.2373 49.7712 98.2389 49.7243V47.5781L97.4409 47.1203C97.3928 47.0951 97.35 47.0609 97.3149 47.0195C97.292 46.9815 97.2804 46.9378 97.2813 46.8935V46.7885C97.2813 46.7381 97.2813 46.7087 97.3149 46.6961C97.3485 46.6835 97.3821 46.6961 97.4409 46.7381L99.6123 47.9981C99.6608 48.0244 99.7036 48.0601 99.7383 48.1031C99.7627 48.142 99.7744 48.1874 99.7719 48.2333V48.3383C99.7719 48.3887 99.7719 48.4181 99.7383 48.4223C99.7047 48.4265 99.6711 48.4223 99.6123 48.3803L98.8143 47.9225V50.0687C98.8143 50.1149 98.8143 50.1443 98.7765 50.1527C98.728 50.1561 98.68 50.1411 98.6421 50.1107L98.4069 49.9763C98.3563 49.9456 98.3132 49.904 98.2809 49.8545Z" fill="white"/>
<path d="M104.63 30.0271C104.611 29.8777 104.555 29.7355 104.466 29.6141C104.377 29.4928 104.258 29.3963 104.121 29.3341C103.741 29.1414 103.32 29.041 102.893 29.041C102.466 29.041 102.045 29.1414 101.664 29.3341C101.527 29.3963 101.409 29.4928 101.32 29.6141C101.231 29.7355 101.174 29.8777 101.156 30.0271V122.494H104.638V30.0271H104.63Z" fill="#455A64"/>
<path d="M135.312 99.8834L114.837 93.974L93.6231 76.0736C93.3334 75.8515 92.9866 75.7163 92.623 75.6835C92.2594 75.6508 91.894 75.722 91.5693 75.8888L40.8585 105.167C40.7266 105.23 40.6133 105.326 40.5298 105.445C40.4463 105.565 40.3955 105.705 40.3823 105.85C40.3692 105.996 40.3942 106.142 40.4548 106.275C40.5155 106.408 40.6098 106.522 40.7283 106.608L61.9467 124.508L82.4217 130.417L104.581 149.133L127.261 156.621C128.027 156.825 128.841 156.741 129.55 156.386L131.873 155.042L180.261 127.108C180.861 126.763 180.815 126.301 180.156 126.083L157.476 118.599L135.312 99.8834Z" fill="#455A64"/>
<path d="M114.836 93.9746L61.9453 124.509L82.4203 130.418L135.311 99.884L114.836 93.9746Z" fill="#455A64"/>
<path d="M104.582 149.132L127.262 156.62C128.029 156.825 128.843 156.739 129.551 156.381L180.262 127.107C180.862 126.762 180.816 126.3 180.157 126.082L157.477 118.598L104.582 149.132Z" fill="#455A64"/>
<path d="M111.423 95.9439L92.0187 79.5723L45.9531 106.167L65.3613 122.538L111.423 95.9439Z" fill="#E0E0E0"/>
<path d="M131.896 101.853L85.8344 128.447L65.3594 122.538L111.421 95.9434L131.896 101.853Z" fill="#E0E0E0"/>
<g style="mix-blend-mode:multiply" opacity="0.5">
<path d="M131.896 101.853L85.8344 128.447L65.3594 122.538L111.421 95.9434L131.896 101.853Z" fill="#E0E0E0"/>
</g>
<path d="M154.073 120.569L108.012 147.163L85.8359 128.448L131.897 101.854L154.073 120.569Z" fill="#E0E0E0"/>
<path d="M173.62 127.015L127.554 153.61L108.012 147.163L154.073 120.568L173.62 127.015Z" fill="#E0E0E0"/>
<g style="mix-blend-mode:multiply" opacity="0.5">
<path d="M173.62 127.015L127.554 153.61L108.012 147.163L154.073 120.568L173.62 127.015Z" fill="#E0E0E0"/>
</g>
<path d="M57.1881 115.646L63.6561 111.707L53.4207 101.854L45.9531 106.167L57.1881 115.646Z" fill="#F0F0F0"/>
<path d="M65.3604 110.72L55.125 100.871L70.4802 91.9707L80.7156 101.853L65.3604 110.72Z" fill="#F0F0F0"/>
<path d="M72.1875 91.0221L82.4229 100.871L87.5427 97.9143L85.8375 83.1387L72.1875 91.0221Z" fill="#F0F0F0"/>
<path d="M89.2482 96.9309L87.543 82.1553L92.0202 79.5723L108.652 93.6045L89.2482 96.9309Z" fill="#F0F0F0"/>
<path d="M71.3328 119.095L66.213 114.168L59.8164 117.86L65.3604 122.539L71.3328 119.095Z" fill="#F0F0F0"/>
<path d="M67.918 113.18L73.0378 118.107L88.3762 109.253L83.269 104.318L67.918 113.18Z" fill="#F0F0F0"/>
<path d="M90.1003 108.258L84.9805 103.331L89.6677 100.627L99.4831 98.9004V102.84L90.1003 108.258Z" fill="#F0F0F0"/>
<path d="M101.188 101.853V98.5976L109.298 97.1738L101.188 101.853Z" fill="#F0F0F0"/>
<path d="M109.721 104.809C107.835 104.263 105.159 104.486 103.748 105.3C102.337 106.115 102.715 107.22 104.588 107.762C106.461 108.303 109.145 108.089 110.561 107.27C111.976 106.451 111.602 105.351 109.721 104.809Z" fill="#E6E6E6"/>
<path d="M104.16 103.739C103.793 103.858 103.438 104.014 103.102 104.205C101.615 105.045 101.577 106.179 101.632 106.62C101.664 106.88 101.745 107.13 101.871 107.359L97.7596 109.728L90.082 108.254L99.4648 102.836L104.16 103.739Z" fill="#E6E6E6"/>
<path d="M101.188 101.853L106.45 102.764L109.146 103.138L118.248 97.9132L111.423 95.9434L101.188 101.853Z" fill="#E6E6E6"/>
<path d="M131.883 101.854L119.073 109.25L111.441 108.204C112.68 107.364 112.701 106.364 112.659 105.949C112.626 105.691 112.547 105.442 112.424 105.214L122.786 99.2285L131.883 101.854Z" fill="#E6E6E6"/>
<path d="M117.544 110.14L111.425 113.672L101.16 111.719L105.419 109.249L105.453 109.228C105.931 109.293 106.414 109.325 106.897 109.325C107.884 109.333 108.868 109.199 109.816 108.926L117.544 110.14Z" fill="#E6E6E6"/>
<path d="M88.3775 109.254L73.0391 118.108L80.7167 119.586L96.0593 110.724L88.3775 109.254Z" fill="#E6E6E6"/>
<path d="M111.427 113.677L101.171 111.707L85.8281 120.569L96.0719 122.539L111.427 113.677Z" fill="#E6E6E6"/>
<path d="M71.3318 119.094L65.3594 122.538L72.1844 124.508L79.0094 120.568L71.3318 119.094Z" fill="#E6E6E6"/>
<path d="M94.366 123.524L84.1222 121.555L76.7344 125.822L85.8358 128.447L94.366 123.524Z" fill="#E6E6E6"/>
<path d="M121.664 113.676L127.363 124.172L142.135 115.646L128.489 109.732L121.664 113.676Z" fill="#F0F0F0"/>
<path d="M94.3661 123.525L96.0713 126.478L95.5379 136.638L85.8359 128.448L94.3661 123.525Z" fill="#F0F0F0"/>
<path d="M96.0703 122.539L97.7755 125.496L119.17 113.144L117.545 110.141L96.0703 122.539Z" fill="#F0F0F0"/>
<path d="M119.086 109.254L120.808 112.198L134.668 104.193L131.896 101.854L119.086 109.254Z" fill="#F0F0F0"/>
<path d="M119.956 114.658L98.6283 126.973L98.0781 138.783L99.6951 140.144L125.668 125.15L119.956 114.658Z" fill="#F0F0F0"/>
<path d="M130.191 108.75L136.055 105.365L145.757 113.551L143.841 114.66L130.191 108.75Z" fill="#F0F0F0"/>
<path d="M102.469 142.484L109.718 138.301L113.133 144.21L108.013 147.163L102.469 142.484Z" fill="#F0F0F0"/>
<path d="M118.245 133.375L111.422 137.314L114.834 143.225L121.658 139.285L118.245 133.375Z" fill="#F0F0F0"/>
<path d="M119.957 132.391L127.303 128.145L130.57 134.138L123.367 138.3L119.957 132.391Z" fill="#F0F0F0"/>
<path d="M132.251 133.172L128.992 127.175L143.843 118.598L151.307 118.229L154.075 120.568L132.251 133.172Z" fill="#F0F0F0"/>
<path d="M147.145 114.723L143.844 116.629L149.165 116.424L147.145 114.723Z" fill="#F0F0F0"/>
<path d="M140.533 136.389C138.651 135.847 135.976 136.066 134.565 136.881C133.154 137.695 133.532 138.8 135.405 139.346C137.278 139.892 139.962 139.669 141.377 138.855C142.792 138.04 142.419 136.918 140.533 136.389Z" fill="#E6E6E6"/>
<path d="M113.132 144.211L119.957 146.181L114.526 149.314L108.012 147.164L113.132 144.211Z" fill="#E6E6E6"/>
<path d="M114.836 143.223L121.661 145.193L128.486 141.253L121.661 139.283L114.836 143.223Z" fill="#E6E6E6"/>
<path d="M123.367 138.3L130.201 140.278L132.473 138.964C132.473 138.964 131.393 136.553 134.573 135.545L130.562 134.15L123.367 138.3Z" fill="#E6E6E6"/>
<path d="M132.25 133.172L136.45 134.684C137.583 134.547 138.728 134.547 139.86 134.684L152.372 127.464L145.547 125.494L132.25 133.172Z" fill="#E6E6E6"/>
<path d="M147.254 124.508L154.079 126.478L160.593 122.719L154.075 120.568L147.254 124.508Z" fill="#E6E6E6"/>
<path d="M164.935 124.15L154.078 130.417L162.608 133.374L173.621 127.015L164.935 124.15Z" fill="#E6E6E6"/>
<path d="M152.372 131.404L143.4 136.583C143.4 136.583 144.501 138.292 143.094 139.645L148.974 141.253L160.919 134.361L152.594 131.522" fill="#E6E6E6"/>
<path d="M147.254 142.241L141.194 140.699C141.194 140.699 138.275 141.842 135.818 140.951L126.779 146.168L125.074 152.783L127.556 153.597L147.254 142.241Z" fill="#E6E6E6"/>
<path d="M125.075 147.162L123.647 152.32L118.871 150.745L125.075 147.162Z" fill="#E6E6E6"/>
<path d="M117.546 131.417C117.473 131.417 117.402 131.398 117.338 131.362C117.275 131.326 117.222 131.274 117.185 131.212C117.128 131.116 117.112 131.001 117.139 130.893C117.167 130.786 117.236 130.693 117.332 130.636L126.316 125.34L117.979 110.115L110.133 108.88C110.048 108.867 109.97 108.828 109.907 108.769C109.845 108.709 109.803 108.632 109.786 108.548C109.769 108.464 109.778 108.376 109.813 108.298C109.847 108.219 109.905 108.152 109.978 108.107C111.141 107.398 111.725 106.726 111.658 106.159C111.591 105.592 110.935 105.05 109.852 104.63C108.239 104.008 104.904 104.21 103.464 105.331C103.112 105.563 102.866 105.924 102.779 106.336C102.691 106.748 102.77 107.178 102.997 107.532C103.029 107.579 103.05 107.633 103.06 107.688C103.071 107.744 103.069 107.802 103.057 107.857C103.044 107.912 103.021 107.964 102.987 108.01C102.954 108.056 102.912 108.095 102.863 108.124L98.5371 110.741C98.4496 110.792 98.3473 110.811 98.2472 110.795L89.1543 109.166C89.0705 109.148 88.9934 109.107 88.9317 109.048L79.7588 99.8082C79.6806 99.7295 79.6367 99.6231 79.6367 99.5121C79.6367 99.4012 79.6806 99.2947 79.7588 99.216C79.7979 99.1767 79.8443 99.1454 79.8955 99.1241C79.9467 99.1028 80.0016 99.0918 80.0571 99.0918C80.1125 99.0918 80.1674 99.1028 80.2186 99.1241C80.2698 99.1454 80.3162 99.1767 80.3553 99.216L89.4609 108.359L98.2809 109.939L102.136 107.608C101.914 107.096 101.876 106.523 102.03 105.987C102.183 105.451 102.517 104.984 102.976 104.668C104.656 103.374 108.336 103.135 110.184 103.828C111.024 104.147 112.418 104.861 112.523 106.062C112.59 106.776 112.183 107.49 111.309 108.191L118.323 109.296C118.387 109.306 118.449 109.33 118.502 109.367C118.555 109.404 118.599 109.453 118.63 109.51L127.261 125.294C127.313 125.389 127.326 125.502 127.297 125.607C127.268 125.712 127.199 125.801 127.105 125.857L117.773 131.359C117.705 131.399 117.626 131.42 117.546 131.417Z" fill="#2F27CE"/>
<path d="M82.8344 86.7047L81.398 85.8647C80.7092 85.4069 79.76 85.4447 78.7058 86.0327C76.6058 87.2381 74.9258 90.3041 74.9258 92.8745V93.4625C74.9258 96.0329 78.3824 98.8301 78.3824 98.8301L79.7978 99.6323C79.7978 99.6323 78.9578 98.6621 79.046 98.4647C79.97 96.5621 82.4942 91.1903 82.4942 89.0903V88.5065C82.4987 88.0809 82.4436 87.6568 82.3304 87.2465L82.4942 87.3389L82.8344 86.7047ZM78.7058 92.6057C77.66 93.2063 76.8116 92.7191 76.8116 91.5137C77.3744 91.4255 78.7898 88.9937 78.7058 88.2335C79.7516 87.6329 80.5958 88.1201 80.5958 89.3255C80.5595 89.982 80.3696 90.6209 80.0413 91.1906C79.713 91.7604 79.2556 92.2451 78.7058 92.6057Z" fill="#2F27CE"/>
<path d="M82.8344 86.7047L81.398 85.8647C80.7092 85.4069 79.76 85.4447 78.7058 86.0327C76.6058 87.2381 74.9258 90.3041 74.9258 92.8745V93.4625C74.9258 96.0329 78.3824 98.8301 78.3824 98.8301L79.7978 99.6323C79.7978 99.6323 78.9578 98.6621 79.046 98.4647C79.97 96.5621 82.4942 91.1903 82.4942 89.0903V88.5065C82.4987 88.0809 82.4436 87.6568 82.3304 87.2465L82.4942 87.3389L82.8344 86.7047ZM78.7058 92.6057C77.66 93.2063 76.8116 92.7191 76.8116 91.5137C77.3744 91.4255 78.7898 88.9937 78.7058 88.2335C79.7516 87.6329 80.5958 88.1201 80.5958 89.3255C80.5595 89.982 80.3696 90.6209 80.0413 91.1906C79.713 91.7604 79.2556 92.2451 78.7058 92.6057Z" fill="#2F27CE"/>
<g opacity="0.2">
<path d="M82.8344 86.7047L81.398 85.8647C80.7092 85.4069 79.76 85.4447 78.7058 86.0327C76.6058 87.2381 74.9258 90.3041 74.9258 92.8745V93.4625C74.9258 96.0329 78.3824 98.8301 78.3824 98.8301L79.7978 99.6323C79.7978 99.6323 78.9578 98.6621 79.046 98.4647C79.97 96.5621 82.4942 91.1903 82.4942 89.0903V88.5065C82.4987 88.0809 82.4436 87.6568 82.3304 87.2465L82.4942 87.3389L82.8344 86.7047ZM78.7058 92.6057C77.66 93.2063 76.8116 92.7191 76.8116 91.5137C77.3744 91.4255 78.7898 88.9937 78.7058 88.2335C79.7516 87.6329 80.5958 88.1201 80.5958 89.3255C80.5595 89.982 80.3696 90.6209 80.0413 91.1906C79.713 91.7604 79.2556 92.2451 78.7058 92.6057Z" fill="black"/>
</g>
<path d="M84.0014 89.3965C84.0014 86.8261 82.3214 85.7173 80.2214 86.9227C78.1214 88.1281 76.4414 91.1941 76.4414 93.7687V94.3525C76.4414 96.3349 78.6842 98.6323 79.7174 99.5857C79.7761 99.6396 79.8465 99.679 79.923 99.7009C79.9996 99.7229 80.0802 99.7266 80.1585 99.712C80.2367 99.6973 80.3105 99.6646 80.3739 99.6164C80.4373 99.5682 80.4887 99.506 80.5238 99.4345C81.4142 97.6117 84.0098 92.1139 84.0098 89.9845L84.0014 89.3965ZM80.2214 93.4789C79.1756 94.0837 78.3314 93.5923 78.3314 92.3869C78.3677 91.7304 78.5576 91.0915 78.8859 90.5218C79.2141 89.952 79.6716 89.4673 80.2214 89.1067C81.2672 88.5061 82.1156 88.9933 82.1156 90.2029C82.0782 90.8591 81.8874 91.4973 81.5584 92.0663C81.2294 92.6353 80.7714 93.1191 80.2214 93.4789Z" fill="#2F27CE"/>
<path d="M120.213 118.624L118.777 117.784C118.088 117.326 117.139 117.343 116.085 117.952C113.985 119.157 112.305 122.223 112.305 124.794V125.382C112.305 127.952 115.761 130.749 115.761 130.749L117.177 131.552C117.177 131.552 116.337 130.581 116.425 130.384C117.349 128.481 119.873 123.11 119.873 121.01V120.426C119.878 120 119.823 119.576 119.709 119.166L119.873 119.258L120.213 118.624ZM116.085 124.525C115.039 125.126 114.19 124.638 114.19 123.433C114.753 123.345 116.169 120.913 116.085 120.153C117.13 119.552 117.975 120.039 117.975 121.245C117.938 121.901 117.748 122.54 117.42 123.11C117.092 123.68 116.634 124.164 116.085 124.525Z" fill="#2F27CE"/>
<path d="M120.213 118.624L118.777 117.784C118.088 117.326 117.139 117.343 116.085 117.952C113.985 119.157 112.305 122.223 112.305 124.794V125.382C112.305 127.952 115.761 130.749 115.761 130.749L117.177 131.552C117.177 131.552 116.337 130.581 116.425 130.384C117.349 128.481 119.873 123.11 119.873 121.01V120.426C119.878 120 119.823 119.576 119.709 119.166L119.873 119.258L120.213 118.624ZM116.085 124.525C115.039 125.126 114.19 124.638 114.19 123.433C114.753 123.345 116.169 120.913 116.085 120.153C117.13 119.552 117.975 120.039 117.975 121.245C117.938 121.901 117.748 122.54 117.42 123.11C117.092 123.68 116.634 124.164 116.085 124.525Z" fill="#2F27CE"/>
<g opacity="0.2">
<path d="M120.213 118.624L118.777 117.784C118.088 117.326 117.139 117.343 116.085 117.952C113.985 119.157 112.305 122.223 112.305 124.794V125.382C112.305 127.952 115.761 130.749 115.761 130.749L117.177 131.552C117.177 131.552 116.337 130.581 116.425 130.384C117.349 128.481 119.873 123.11 119.873 121.01V120.426C119.878 120 119.823 119.576 119.709 119.166L119.873 119.258L120.213 118.624ZM116.085 124.525C115.039 125.126 114.19 124.638 114.19 123.433C114.753 123.345 116.169 120.913 116.085 120.153C117.13 119.552 117.975 120.039 117.975 121.245C117.938 121.901 117.748 122.54 117.42 123.11C117.092 123.68 116.634 124.164 116.085 124.525Z" fill="black"/>
</g>
<path d="M121.38 121.316C121.38 118.746 119.7 117.637 117.6 118.843C115.5 120.048 113.82 123.114 113.82 125.689V126.272C113.82 128.255 116.063 130.552 117.096 131.506C117.155 131.559 117.225 131.599 117.302 131.621C117.378 131.643 117.459 131.647 117.537 131.632C117.616 131.617 117.689 131.584 117.753 131.536C117.816 131.488 117.868 131.426 117.903 131.354C118.793 129.532 121.389 124.034 121.389 121.904L121.38 121.316ZM117.6 125.399C116.555 126.004 115.71 125.512 115.71 124.307C115.747 123.65 115.937 123.011 116.265 122.442C116.593 121.872 117.051 121.387 117.6 121.027C118.646 120.426 119.495 120.913 119.495 122.123C119.457 122.779 119.266 123.417 118.937 123.986C118.608 124.555 118.15 125.039 117.6 125.399Z" fill="#2F27CE"/>
<path d="M149.227 69.4551L149.135 69.4005L146.253 67.7457C145.586 67.3051 144.802 67.0753 144.002 67.0863C142.827 67.1275 141.683 67.4765 140.684 68.0985C136.358 70.5933 132.855 76.9185 132.855 82.2525V83.4621C132.855 88.7835 139.995 94.5669 139.995 94.5669L142.906 96.2133C142.809 96.0999 141.155 94.2015 141.352 93.8025C143.267 89.8713 148.492 78.7623 148.492 74.4195V73.2099C148.501 72.3322 148.389 71.4574 148.16 70.6101L148.496 70.8033L149.227 69.4551ZM143.813 83.4621C141.894 84.5709 140.302 83.9031 139.966 81.9921C138.147 82.6557 136.77 81.6099 136.77 79.3965C137.933 79.2117 140.856 74.2179 140.684 72.6177C142.599 71.5089 144.191 72.1767 144.527 74.0877C146.35 73.4241 147.728 74.4699 147.728 76.6833C147.728 79.1781 145.976 82.2147 143.813 83.4621Z" fill="#263238"/>
<path d="M149.227 69.4555L149.135 69.4009C147.736 68.6155 145.867 68.7205 143.813 69.9049C140.718 71.6941 138.038 75.4531 136.77 79.3969C136.269 80.901 136.004 82.4736 135.984 84.0589V85.2601C135.984 89.3593 140.625 94.1137 142.763 96.0835C142.811 96.1276 142.863 96.167 142.919 96.2011C143.043 96.2786 143.181 96.3293 143.326 96.3501C143.471 96.3708 143.618 96.3611 143.759 96.3216C143.9 96.282 144.031 96.2135 144.143 96.1205C144.256 96.0274 144.348 95.9118 144.414 95.7811C146.258 92.0011 151.629 80.6359 151.629 76.2301V75.0163C151.642 72.2863 150.718 70.3501 149.227 69.4555ZM139.966 81.9925C139.919 81.732 139.897 81.4676 139.899 81.2029C139.899 78.7081 141.65 75.6715 143.813 74.4241C144.041 74.2923 144.28 74.18 144.527 74.0881C146.35 73.4245 147.728 74.4703 147.728 76.6837C147.728 79.1785 145.976 82.2151 143.813 83.4625C141.894 84.5713 140.302 83.9035 139.966 81.9925Z" fill="#455A64"/>
<path d="M145.093 73.0804C144.802 73.1968 144.521 73.3373 144.253 73.5004C141.637 75.0082 139.52 78.6748 139.52 81.6904C139.517 82.0115 139.545 82.3323 139.604 82.648C140.024 84.958 141.935 85.7644 144.253 84.4246C146.866 82.9168 148.987 79.246 148.987 76.2304C148.966 73.5382 147.298 72.274 145.093 73.0804Z" fill="#263238"/>
<path d="M144.561 74.2591L145.351 75.9391C145.36 75.964 145.374 75.9867 145.392 76.0057C145.411 76.0246 145.433 76.0394 145.458 76.049C145.483 76.0585 145.509 76.0627 145.535 76.0611C145.562 76.0595 145.588 76.0523 145.611 76.0399L147.388 75.3595C147.669 75.2545 147.778 75.6493 147.577 76.0315L146.291 78.4423C146.213 78.5829 146.179 78.7441 146.195 78.9043L146.497 81.0841C146.543 81.4327 146.249 81.8863 145.997 81.8569L144.41 81.6595C144.346 81.662 144.283 81.6802 144.227 81.7124C144.172 81.7446 144.125 81.7899 144.091 81.8443L142.503 83.8729C142.251 84.1963 141.957 84.0787 142.007 83.6797L142.31 81.1597C142.324 81.0978 142.322 81.0335 142.304 80.9725C142.286 80.9116 142.254 80.8561 142.209 80.8111L140.949 79.8829C140.743 79.7359 140.857 79.2109 141.138 78.9925L142.91 77.6233C143.039 77.5142 143.13 77.3672 143.171 77.2033L143.965 74.6035C144.061 74.2003 144.435 73.9903 144.561 74.2591Z" fill="#2F27CE"/>
<path d="M167.504 79.9844L167.412 79.9298L164.531 78.275C163.864 77.8344 163.079 77.6046 162.28 77.6156C161.104 77.6568 159.96 78.0058 158.962 78.6278C154.636 81.1226 151.133 87.4478 151.133 92.7818V93.9914C151.133 99.3128 158.273 105.096 158.273 105.096L161.183 106.743C161.087 106.629 159.432 104.731 159.629 104.332C161.545 100.401 166.769 89.2916 166.769 84.9488V83.7392C166.778 82.8615 166.667 81.9867 166.438 81.1394L166.774 81.3326L167.504 79.9844ZM162.091 93.9914C160.171 95.1002 158.579 94.4324 158.243 92.5214C156.425 93.185 155.047 92.1392 155.047 89.9258C156.211 89.741 159.134 84.7472 158.962 83.147C160.877 82.0382 162.469 82.706 162.805 84.617C164.627 83.9534 166.005 84.9992 166.005 87.2126C166.005 89.7074 164.254 92.744 162.091 93.9914Z" fill="#263238"/>
<path d="M167.504 79.9848L167.412 79.9302C166.013 79.1448 164.144 79.2498 162.091 80.4342C158.995 82.2234 156.316 85.9824 155.047 89.9262C154.546 91.4303 154.281 93.0029 154.262 94.5882V95.802C154.262 99.9012 158.882 104.656 161.041 106.625C161.088 106.67 161.14 106.709 161.196 106.743C161.32 106.82 161.459 106.871 161.603 106.892C161.748 106.913 161.896 106.903 162.036 106.863C162.177 106.824 162.308 106.755 162.421 106.662C162.534 106.569 162.626 106.454 162.691 106.323C164.535 102.543 169.907 91.1778 169.907 86.772V85.5582C169.919 82.8156 168.995 80.8794 167.504 79.9848ZM158.243 92.5218C158.196 92.2613 158.174 91.9969 158.176 91.7322C158.176 89.2374 159.928 86.2008 162.091 84.9534C162.319 84.8217 162.558 84.7093 162.805 84.6174C164.627 83.9538 166.005 84.9996 166.005 87.213C166.005 89.7078 164.254 92.7444 162.091 93.9918C160.171 95.1006 158.579 94.4328 158.243 92.5218Z" fill="#455A64"/>
<path d="M163.38 83.6057C163.081 83.721 162.793 83.8616 162.519 84.0257C159.902 85.5335 157.785 89.2043 157.785 92.2199C157.782 92.5397 157.81 92.859 157.869 93.1733C158.289 95.4833 160.2 96.2897 162.519 94.9499C165.131 93.4421 167.252 89.7713 167.252 86.7557C167.244 84.0677 165.576 82.8035 163.38 83.6057Z" fill="#263238"/>
<path d="M166.448 86.6829L162.715 85.6875L158.977 91.0005L159.964 90.4293V93.5499L162.135 92.2983V90.5553L163.29 89.8875V91.6305L165.461 90.3789V87.2541L166.448 86.6829Z" fill="#2F27CE"/>
<path d="M185.786 90.4375L185.693 90.3829L182.812 88.7281C182.145 88.2875 181.36 88.0577 180.561 88.0687C179.385 88.1099 178.241 88.459 177.243 89.0809C172.917 91.5757 169.414 97.9009 169.414 103.235V104.445C169.414 109.766 176.554 115.549 176.554 115.549L179.465 117.196C179.368 117.082 177.713 115.184 177.911 114.785C179.826 110.854 185.051 99.7447 185.051 95.4019V94.1923C185.06 93.3146 184.948 92.4398 184.719 91.5925L185.055 91.7857L185.786 90.4375ZM180.372 104.445C178.452 105.553 176.861 104.865 176.525 102.975C174.706 103.638 173.328 102.592 173.328 100.379C174.492 100.194 177.415 95.2003 177.243 93.6001C179.158 92.4913 180.75 93.1591 181.086 95.0701C182.909 94.4065 184.286 95.4523 184.286 97.6657C184.286 100.161 182.535 103.197 180.372 104.445Z" fill="#263238"/>
<path d="M185.786 90.4379L185.693 90.3833C184.295 89.5979 182.426 89.7029 180.372 90.8873C177.276 92.6765 174.597 96.4355 173.328 100.379C172.827 101.883 172.562 103.456 172.543 105.041V106.259C172.543 110.359 177.184 115.113 179.322 117.083C179.37 117.127 179.422 117.166 179.477 117.2C179.601 117.278 179.74 117.329 179.885 117.349C180.029 117.37 180.177 117.36 180.318 117.321C180.458 117.281 180.589 117.213 180.702 117.12C180.815 117.027 180.907 116.911 180.972 116.78C182.816 113 188.188 101.635 188.188 97.2293V96.0155C188.201 93.2687 187.277 91.3325 185.786 90.4379ZM176.546 102.975C176.499 102.714 176.476 102.45 176.478 102.185C176.478 99.6905 178.23 96.6539 180.393 95.4065C180.621 95.2748 180.86 95.1624 181.107 95.0705C182.93 94.4069 184.307 95.4527 184.307 97.6661C184.307 100.161 182.556 103.198 180.393 104.445C178.452 105.554 176.861 104.886 176.525 102.975H176.546Z" fill="#455A64"/>
<path d="M181.649 94.0793C181.351 94.1945 181.063 94.3351 180.788 94.4993C178.172 96.0071 176.055 99.6779 176.055 102.694C176.052 103.015 176.08 103.335 176.139 103.651C176.559 105.961 178.466 106.768 180.788 105.428C183.401 103.92 185.518 100.249 185.518 97.2335C185.518 94.5203 183.854 93.2393 181.649 94.0793Z" fill="#263238"/>
<path d="M180.754 96.4398C181.649 95.9232 182.375 96.3432 182.375 97.3764C182.344 97.9385 182.182 98.4855 181.9 98.9729C181.618 99.4604 181.226 99.8746 180.754 100.182C179.859 100.699 179.133 100.279 179.133 99.2454C179.164 98.6832 179.326 98.1363 179.608 97.6488C179.89 97.1614 180.282 96.7472 180.754 96.4398Z" fill="#2F27CE"/>
<path d="M177.66 105.839C178.5 106.205 179.584 106.087 180.781 105.419C182.058 104.626 183.127 103.541 183.901 102.252V101.979C183.901 100.299 182.709 99.5938 181.239 100.442L180.319 100.971C179.543 101.478 178.898 102.16 178.436 102.963C177.974 103.766 177.708 104.666 177.66 105.591V105.839Z" fill="#2F27CE"/>
<path d="M37.6164 65.5703C34.6764 65.7131 32.6394 66.4103 30.5478 68.5103C29.0106 70.0559 25.6968 79.0313 27.1416 86.2847C27.3868 87.5707 27.9292 88.7815 28.7254 89.8206C29.5217 90.8598 30.5498 91.6984 31.7277 92.2696C32.9057 92.8408 34.2008 93.1288 35.5098 93.1106C36.8188 93.0924 38.1054 92.7685 39.267 92.1647C43.2528 90.1319 44.0256 83.8361 43.9122 80.1653C43.7988 76.4945 37.6164 65.5703 37.6164 65.5703Z" fill="#263238"/>
<path d="M33.9965 68.2659C33.9965 68.2659 33.2069 67.2327 31.3757 67.8081C31.3757 67.8081 29.4437 70.1349 27.9527 74.5281C27.9527 74.5281 27.4781 74.5281 27.7805 73.2681C28.0829 72.0081 29.2925 69.0681 30.0695 68.0223C30.8465 66.9765 31.9427 66.1197 37.2095 64.1877C41.8295 62.5077 40.3511 66.7077 40.3511 66.7077L33.9965 68.2659Z" fill="#37474F"/>
<path d="M25.0199 128.015C24.4025 127.696 24.0119 128.481 23.4533 129.107C23.0585 129.548 22.4495 130.245 22.3571 130.749C22.2227 131.493 22.8947 132.66 23.6171 133.303C24.3395 133.945 25.2215 134.412 25.4903 135.823C25.7591 137.234 26.3303 138.078 27.7709 138.708C29.3795 139.401 31.5509 139.179 32.2565 138.708C33.1217 138.15 32.3321 137.541 31.1225 135.806C29.5433 133.546 28.3127 131.929 28.3127 129.821L25.0199 128.015Z" fill="#263238"/>
<path d="M26.28 126.162L24.9864 128.065C24.7122 128.456 24.6025 128.939 24.6811 129.411C24.7596 129.882 25.0201 130.304 25.4064 130.585L25.4484 130.61C25.8417 130.847 26.3059 130.938 26.7597 130.867C27.2135 130.797 27.6279 130.569 27.9306 130.224L29.955 128.014L26.28 126.162Z" fill="#FFA8A7"/>
<path d="M50.4422 89.6354C50.5261 92.0588 50.1145 101.328 48.3421 105.965C47.3624 108.598 46.1303 111.129 44.6629 113.525C44.1337 114.424 28.955 129.204 28.955 129.204C28.955 129.204 26.3804 129.015 25.9688 126.516C25.9688 126.516 32.189 115.944 33.5288 113.773C34.8686 111.601 39.6439 108.279 39.6439 108.279L39.2239 87.9512L50.4422 89.6354Z" fill="#37474F"/>
<path d="M46.7618 140.695L49.9727 139.965L48.9101 135.292L45.6993 136.022L46.7618 140.695Z" fill="#FFA8A7"/>
<path d="M44.2545 97.4695C45.3547 96.4606 46.3406 95.3339 47.1945 94.1095C49.6473 90.7201 49.2693 87.7129 49.2693 87.7129H48.2655L33.4899 89.6575C33.0764 92.0666 33.1363 94.5331 33.6663 96.9193C34.9641 103.467 40.2309 114.656 40.2309 114.656C40.1553 115.559 39.7731 119.36 40.6509 122.728C42.0117 128.045 45.7203 137.042 45.7203 137.042C45.7203 137.042 48.0471 137.374 49.1979 136.03C49.1979 136.03 47.1441 117.764 46.5939 113.085C45.9723 107.999 44.2545 97.4695 44.2545 97.4695Z" fill="#37474F"/>
<path d="M49.6143 138.376L49.5093 137.918C49.8453 137.981 51.2859 140.371 52.7139 141.412C54.2805 142.551 55.6539 143.223 56.3385 143.735C57.2751 144.424 55.9185 145.835 53.6169 145.953C52.537 146.03 51.4543 145.848 50.4585 145.423C49.4547 144.945 48.8457 144.05 48.0813 143.281C47.5227 142.719 46.6785 142.307 46.2543 141.627C46.0611 141.316 46.0317 140.556 46.0527 139.9C46.0737 139.245 46.0947 138.64 46.3005 138.64L46.3803 138.993C46.9845 139.294 47.6545 139.438 48.3291 139.413C48.8709 139.401 49.8789 139.275 49.6143 138.376Z" fill="#263238"/>
<path d="M46.1688 109.964C46.1688 109.964 44.6232 98.9729 44.2578 97.4693C44.2578 97.4693 46.9836 96.4319 47.8236 95.4785C47.8236 95.4785 47.223 96.8099 45.2742 97.9985L46.1688 109.964Z" fill="#263238"/>
<path d="M40.2274 114.634C39.568 113.727 37.9258 109.641 37.9258 109.641L39.6058 114.928C39.1858 116.512 39.2194 119.128 39.2194 119.128L40.0594 118.377C40.0636 117.747 40.2274 114.634 40.2274 114.634Z" fill="#263238"/>
<path d="M48.7875 85.0484C46.6539 77.8496 47.1075 71.7596 46.6875 69.8906L52.1937 77.6438C52.4332 80.2015 52.816 82.7437 53.3403 85.2584C53.9703 88.0094 54.8313 91.4408 55.8603 93.5744C56.0456 93.956 56.3659 94.2553 56.7591 94.4144C57.8007 94.8344 58.2837 95.3846 59.1195 96.0062C59.7747 96.4976 60.2745 96.5606 60.2325 96.758C60.1589 96.9802 60.0045 97.1666 59.7999 97.2802C59.5953 97.3938 59.3554 97.4263 59.1279 97.3712C58.6244 97.2636 58.1353 97.0972 57.6705 96.8756C58.1437 97.6657 58.7407 98.3748 59.4387 98.9756C61.0347 100.37 61.2615 101.357 58.5987 101.832C56.9187 102.134 55.4193 101.328 53.5335 97.8542C52.8142 96.5877 52.1867 95.2711 51.6561 93.9146C50.4003 90.3656 49.4343 87.2282 48.7875 85.0484Z" fill="#FFA8A7"/>
<path d="M44.832 66.6777C47.4234 66.7029 49.977 67.2867 50.8548 70.0377C51.6948 72.7341 52.8204 80.5377 52.8204 80.5377C52.8204 80.5377 51.7284 81.9825 48.0912 81.7473L44.832 66.6777Z" fill="#2F27CE"/>
<path d="M44.832 66.6777C47.4234 66.7029 49.977 67.2867 50.8548 70.0377C51.6948 72.7341 52.8204 80.5377 52.8204 80.5377C52.8204 80.5377 51.7284 81.9825 48.0912 81.7473L44.832 66.6777Z" fill="#2F27CE"/>
<g opacity="0.1">
<path d="M44.832 66.6777C47.4234 66.7029 49.977 67.2867 50.8548 70.0377C51.6948 72.7341 52.8204 80.5377 52.8204 80.5377C52.8204 80.5377 51.7284 81.9825 48.0912 81.7473L44.832 66.6777Z" fill="black"/>
</g>
<path d="M39.5043 66.8336C37.6815 67.2536 35.5773 67.6316 33.8133 68.5136C32.5869 69.1142 34.3467 79.2782 34.3467 79.2782L33.5067 89.6522C35.9259 92.2856 45.1827 93.512 50.4621 89.6522V72.8522C50.4621 70.1642 48.9711 66.9386 44.8509 66.6992L39.5043 66.8336Z" fill="#2F27CE"/>
<path d="M34.3391 79.0601L35.9351 74.6543L34.0703 82.5755L34.3391 79.0601Z" fill="#2F27CE"/>
<path opacity="0.2" d="M34.3391 79.0601L35.9351 74.6543L34.0703 82.5755L34.3391 79.0601Z" fill="black"/>
<path d="M36.6328 57.4888L37.7752 61.9996C37.8935 62.4675 38.1641 62.8827 38.5442 63.18C38.9244 63.4773 39.3926 63.6398 39.8752 63.6418H41.2108V57.3418L36.6328 57.4888Z" fill="#263238"/>
<path d="M46.4046 60.6319C49.0543 60.3047 50.9371 57.8914 50.6099 55.2417C50.2827 52.592 47.8694 50.7092 45.2196 51.0364C42.5699 51.3636 40.6871 53.7769 41.0144 56.4267C41.3416 59.0764 43.7549 60.9591 46.4046 60.6319Z" fill="#263238"/>
<path d="M38.3481 53.0868C38.0704 53.0541 37.7889 53.0855 37.5253 53.1787C37.2618 53.2719 37.0231 53.4244 36.8277 53.6244C36.1725 54.288 36.3111 55.527 36.8277 58.3662L38.8479 58.5972L38.3481 53.0868Z" fill="#263238"/>
<path d="M39.2926 58.6013C38.9944 58.7777 38.566 58.2023 38.1964 57.8159C37.8268 57.4295 36.6214 56.9003 36.0208 58.1687C35.4202 59.4371 36.3652 61.1675 37.2808 61.5287C37.6071 61.6911 37.9837 61.72 38.331 61.6095C38.6783 61.499 38.9689 61.2576 39.1414 60.9365L39.5026 66.8165C39.8644 67.6082 40.4166 68.2979 41.1099 68.8241C41.8032 69.3503 42.616 69.6966 43.4758 69.8321C46.378 70.2227 45.7816 67.8329 44.8282 66.6611V64.8635C45.5557 64.9919 46.2963 65.03 47.0332 64.9769C48.0916 64.7795 48.6124 63.7967 49.1332 62.5409C49.8766 60.6635 50.3344 58.0091 49.6918 54.6407C48.8518 50.1803 43.9 50.0837 41.0692 51.8687C38.2384 53.6537 39.2926 58.6013 39.2926 58.6013Z" fill="#FFA8A7"/>
<path d="M39.2922 59.1058C39.141 59.1058 38.5698 58.1566 38.196 57.8164C37.6794 57.346 38.3472 53.0872 38.3472 53.0872C38.6076 49.597 43.7568 49.3324 45.1806 49.2316C48.4398 48.9964 50.6406 50.8024 49.7712 53.0746C49.1832 54.1078 47.9778 54.3934 46.8312 54.5278C44.9118 54.763 41.6484 53.734 41.2368 53.6878C40.6824 53.608 40.5648 54.1498 40.2624 55.6198C40.0188 56.905 39.8004 59.0932 39.2922 59.1058Z" fill="#263238"/>
<path d="M38.3493 53.4183L36.5391 52.4481C36.597 52.3259 36.6792 52.2168 36.7805 52.1273C36.8819 52.0378 37.0003 51.9698 37.1287 51.9274C37.2571 51.885 37.3927 51.8691 37.5275 51.8806C37.6622 51.8921 37.7931 51.9309 37.9125 51.9945C38.1542 52.1303 38.3344 52.3539 38.4157 52.619C38.4971 52.8841 38.4733 53.1703 38.3493 53.4183Z" fill="#263238"/>
<path d="M44.8289 64.8817C44.8289 64.8817 42.1409 64.3399 41.2043 63.8401C40.6548 63.5587 40.2016 63.1201 39.9023 62.5801C40.045 63.1285 40.2963 63.6427 40.6415 64.0921C41.3303 64.9699 44.8415 65.6167 44.8415 65.6167L44.8289 64.8817Z" fill="#F28F8F"/>
<path d="M44.9107 58.5C44.9066 58.6053 44.8716 58.7071 44.8101 58.7927C44.7486 58.8783 44.6632 58.944 44.5647 58.9815C44.4662 59.0189 44.3588 59.0266 44.256 59.0036C44.1531 58.9805 44.0593 58.9277 43.9862 58.8518C43.9131 58.7758 43.8639 58.6801 43.8448 58.5764C43.8257 58.4727 43.8375 58.3657 43.8788 58.2687C43.92 58.1717 43.9889 58.0889 44.0768 58.0307C44.1646 57.9726 44.2677 57.9415 44.3731 57.9414C44.4452 57.9425 44.5163 57.9578 44.5824 57.9866C44.6485 58.0153 44.7083 58.0568 44.7583 58.1087C44.8083 58.1607 44.8475 58.222 44.8736 58.2891C44.8998 58.3563 44.9124 58.4279 44.9107 58.5Z" fill="#263238"/>
<path d="M44.3382 56.4683L43.1874 57.1193C43.1051 56.9609 43.0871 56.7768 43.1372 56.6055C43.1873 56.4341 43.3015 56.2887 43.4562 56.1995C43.5316 56.1586 43.6144 56.133 43.6998 56.1244C43.7852 56.1157 43.8714 56.1242 43.9535 56.1492C44.0356 56.1742 44.1119 56.2153 44.1779 56.2701C44.244 56.3249 44.2985 56.3923 44.3382 56.4683Z" fill="#263238"/>
<path d="M44.5835 62.0996L45.8099 62.5616C45.7849 62.6461 45.7428 62.7245 45.6862 62.792C45.6297 62.8595 45.5598 62.9146 45.4811 62.954C45.4023 62.9934 45.3163 63.0162 45.2283 63.0209C45.1404 63.0257 45.0524 63.0123 44.9699 62.9816C44.803 62.9142 44.6692 62.7842 44.597 62.6193C44.5247 62.4545 44.5199 62.268 44.5835 62.0996Z" fill="#F28F8F"/>
<path d="M49.4289 56.9179L48.3789 56.1073C48.4289 56.0367 48.4925 55.9769 48.5661 55.9316C48.6397 55.8862 48.7217 55.8561 48.8072 55.8432C48.8927 55.8302 48.9799 55.8347 49.0637 55.8562C49.1474 55.8778 49.2259 55.916 49.2945 55.9687C49.434 56.0797 49.5257 56.24 49.5507 56.4165C49.5757 56.5931 49.5321 56.7725 49.4289 56.9179Z" fill="#263238"/>
<path d="M49.1099 58.1895C49.1058 58.2948 49.0708 58.3966 49.0093 58.4822C48.9478 58.5678 48.8625 58.6334 48.7639 58.6709C48.6654 58.7084 48.558 58.7161 48.4552 58.693C48.3523 58.67 48.2585 58.6172 48.1854 58.5412C48.1123 58.4653 48.0632 58.3695 48.0441 58.2659C48.025 58.1622 48.0368 58.0552 48.078 57.9582C48.1192 57.8612 48.1881 57.7784 48.276 57.7202C48.3639 57.662 48.4669 57.6309 48.5723 57.6309C48.6444 57.6319 48.7155 57.6473 48.7817 57.676C48.8478 57.7047 48.9075 57.7463 48.9575 57.7982C49.0075 57.8501 49.0467 57.9114 49.0728 57.9786C49.099 58.0457 49.1116 58.1174 49.1099 58.1895Z" fill="#263238"/>
<path d="M46.8517 58.2832L46.3477 61.4878L48.1201 61.2778L46.8517 58.2832Z" fill="#F28F8F"/>
<path d="M37.7348 66.7246C37.7348 66.7246 41.8088 68.5348 42.2456 74.7928C43.1654 87.88 33.3122 90.8914 33.3122 90.8914C32.4722 89.2408 33.1484 87.0106 33.8372 85.4314C35.4363 84.3882 36.7317 82.9413 37.5923 81.237C38.4529 79.5327 38.8484 77.6314 38.7386 75.7252C38.5118 70.954 36.143 68.2828 34.9586 67.9216C35.7993 67.3494 36.7416 66.9431 37.7348 66.7246Z" fill="#37474F"/>
<path d="M30.0757 91.2646C31.8397 90.6472 32.2807 90.4246 34.5025 88.6312C36.7243 86.8378 38.6059 84.4564 40.3825 82.096C40.5969 81.8201 40.8343 81.563 41.0923 81.3274C41.5484 80.9262 41.952 80.469 42.2935 79.9666C43.0705 78.7864 43.0831 78.0178 43.1587 76.6066C43.2179 75.1829 43.0201 73.7602 42.5749 72.4066C42.5383 72.2547 42.4711 72.1118 42.3775 71.9866C42.3283 71.9252 42.2628 71.8789 42.1886 71.8529C42.1143 71.8269 42.0342 71.8223 41.9575 71.8396C41.8331 71.8937 41.7309 71.9885 41.6677 72.1084C41.1721 72.8644 40.8277 73.7086 40.3363 74.4772C40.1137 74.8258 39.9583 74.9644 39.7567 75.3172C39.7315 75.3592 39.3367 75.7624 39.2611 75.586C39.1855 75.4096 39.4291 74.8594 39.3409 73.969C39.2527 73.0786 39.0091 72.7594 38.7361 72.688C38.3161 72.5788 38.3161 73.0492 38.1271 73.759C37.9129 74.599 37.5853 75.2962 37.6231 76.5436C37.641 77.3983 37.5161 78.25 37.2535 79.0636C37.0141 80.0254 35.9179 82.1926 33.2047 83.8642C32.6125 84.2296 32.4235 84.2842 32.7847 82.8688C33.3789 80.1983 34.2313 77.5918 35.3299 75.0862C36.4135 72.6208 37.1611 70.735 36.1699 69.7312C34.4353 68.0092 32.0035 68.992 30.6469 71.9236C29.0803 75.3088 28.2235 77.8792 27.5935 84.1036C27.2995 86.8084 27.0391 92.3272 30.0757 91.2646Z" fill="#FFA8A7"/>
<path d="M35.1421 67.9883C33.0925 68.0807 31.7275 68.9081 30.3709 71.5835C29.0143 74.2589 27.9727 78.9587 27.9727 78.9587C27.9727 78.9587 29.9005 81.0125 33.6427 80.9075C33.6427 80.9075 35.9947 74.7419 36.4441 73.0829C36.9355 71.2727 36.5071 68.6099 35.1421 67.9883Z" fill="#2F27CE"/>
</svg>
