<svg width="292" height="281" viewBox="0 0 292 281" fill="none" xmlns="http://www.w3.org/2000/svg">
<g clip-path="url(#clip0_1199_3568)">
<path d="M262.342 223.654H243.066V223.794H262.342V223.654Z" fill="#EBEBEB"/>
<path d="M193.27 225.178H188.213V225.318H193.27V225.178Z" fill="#EBEBEB"/>
<path d="M242.483 218.459H231.314V218.599H242.483V218.459Z" fill="#EBEBEB"/>
<path d="M56.1678 219.398H31.0312V219.538H56.1678V219.398Z" fill="#EBEBEB"/>
<path d="M65.0376 219.398H61.3535V219.538H65.0376V219.398Z" fill="#EBEBEB"/>
<path d="M131.537 221.762H77.0156V221.902H131.537V221.762Z" fill="#EBEBEB"/>
<path d="M138.434 189.669H26.0615C25.1801 189.669 24.3349 189.332 23.7116 188.732C23.0884 188.133 22.7383 187.319 22.7383 186.471V34.4704C22.746 33.6272 23.0995 32.821 23.7219 32.2274C24.3443 31.6338 25.1851 31.3007 26.0615 31.3008H138.434C139.315 31.3008 140.161 31.6377 140.784 32.2373C141.407 32.837 141.757 33.6503 141.757 34.4984V186.471C141.757 187.319 141.407 188.133 140.784 188.732C140.161 189.332 139.315 189.669 138.434 189.669ZM26.0615 31.4128C25.2192 31.4143 24.4118 31.7369 23.8162 32.31C23.2206 32.8831 22.8853 33.6599 22.8838 34.4704V186.471C22.8853 187.282 23.2206 188.059 23.8162 188.632C24.4118 189.205 25.2192 189.527 26.0615 189.529H138.434C139.276 189.527 140.084 189.205 140.679 188.632C141.275 188.059 141.61 187.282 141.612 186.471V34.4704C141.61 33.6599 141.275 32.8831 140.679 32.31C140.084 31.7369 139.276 31.4143 138.434 31.4128H26.0615Z" fill="#EBEBEB"/>
<path d="M264.327 189.669H151.942C151.061 189.667 150.217 189.33 149.594 188.731C148.971 188.131 148.621 187.319 148.619 186.471V34.4704C148.628 33.6276 148.982 32.8223 149.604 32.229C150.226 31.6357 151.066 31.3022 151.942 31.3008H264.327C265.201 31.3037 266.039 31.638 266.659 32.2313C267.279 32.8247 267.63 33.6291 267.638 34.4704V186.471C267.638 187.317 267.29 188.129 266.669 188.728C266.048 189.328 265.206 189.666 264.327 189.669ZM151.942 31.4128C151.1 31.4143 150.293 31.7369 149.697 32.31C149.101 32.8831 148.766 33.6599 148.765 34.4704V186.471C148.766 187.282 149.101 188.059 149.697 188.632C150.293 189.205 151.1 189.527 151.942 189.529H264.327C265.169 189.527 265.976 189.205 266.572 188.632C267.167 188.059 267.503 187.282 267.504 186.471V34.4704C267.503 33.6599 267.167 32.8831 266.572 32.31C265.976 31.7369 265.169 31.4143 264.327 31.4128H151.942Z" fill="#EBEBEB"/>
<path d="M291.5 214.645H0.5V214.785H291.5V214.645Z" fill="#EBEBEB"/>
<path d="M147.728 163.646H97.4375V208.732H147.728V163.646Z" fill="#E6E6E6"/>
<path d="M105.441 210.148H99.0215V214.091H105.441V210.148Z" fill="#E0E0E0"/>
<path d="M249.846 163.646H147.729V208.295H249.846V163.646Z" fill="#E6E6E6"/>
<path d="M257.64 160.324H251.221V214.09H257.64V160.324Z" fill="#E6E6E6"/>
<path d="M196.972 167.201H152.705V206.211H196.972V167.201Z" fill="#F5F5F5"/>
<path d="M160.178 206.211H171.998L176.258 167.201H164.444L160.178 206.211Z" fill="#FAFAFA"/>
<path d="M175.023 206.211H177.375L181.635 167.201H179.284L175.023 206.211Z" fill="#FAFAFA"/>
<path d="M146.495 167.201H102.229V206.211H146.495V167.201Z" fill="#F5F5F5"/>
<path d="M247.931 167.201H203.664V206.211H247.931V167.201Z" fill="#F5F5F5"/>
<path d="M249.597 160.326H95.6113V214.086H99.0335V211.062H247.851V214.074H251.279V160.314L249.597 160.326ZM99.0335 165.192H146.077V183.868H99.0335V165.192ZM99.0335 206.212V186.646H146.077V206.212H99.0335ZM196.972 206.212H149.493V165.192H196.967L196.972 206.212ZM247.874 206.212H200.4V186.646H247.851L247.874 206.212ZM247.874 183.868H200.4V165.192H247.851L247.874 183.868Z" fill="#F0F0F0"/>
<path d="M125.089 171.828C125.089 172.22 124.968 172.604 124.742 172.93C124.515 173.256 124.193 173.51 123.816 173.66C123.439 173.81 123.025 173.849 122.625 173.772C122.225 173.695 121.858 173.506 121.57 173.228C121.282 172.95 121.086 172.596 121.008 172.211C120.929 171.827 120.97 171.428 121.127 171.066C121.284 170.703 121.549 170.394 121.889 170.177C122.228 169.96 122.627 169.845 123.035 169.846C123.305 169.846 123.573 169.897 123.822 169.997C124.072 170.096 124.299 170.243 124.49 170.427C124.68 170.611 124.832 170.829 124.935 171.07C125.037 171.31 125.09 171.568 125.089 171.828Z" fill="#EBEBEB"/>
<path d="M123.035 173.804C122.642 173.803 122.257 173.694 121.926 173.49C121.594 173.286 121.331 172.994 121.167 172.65C121.039 172.919 120.975 173.212 120.981 173.507C120.986 173.802 121.06 174.092 121.197 174.357C121.334 174.621 121.531 174.852 121.774 175.033C122.016 175.215 122.297 175.341 122.597 175.404C122.897 175.467 123.208 175.465 123.506 175.397C123.805 175.329 124.084 175.198 124.323 175.013C124.562 174.827 124.755 174.593 124.888 174.327C125.02 174.06 125.089 173.769 125.089 173.474C125.09 173.189 125.024 172.908 124.897 172.65C124.734 172.994 124.472 173.285 124.142 173.489C123.811 173.694 123.427 173.803 123.035 173.804Z" fill="#E0E0E0"/>
<path d="M123.035 196.797C124.17 196.797 125.089 195.912 125.089 194.821C125.089 193.729 124.17 192.844 123.035 192.844C121.9 192.844 120.98 193.729 120.98 194.821C120.98 195.912 121.9 196.797 123.035 196.797Z" fill="#EBEBEB"/>
<path d="M123.035 196.798C122.642 196.798 122.257 196.689 121.926 196.484C121.594 196.28 121.331 195.988 121.167 195.645C121.039 195.913 120.975 196.206 120.981 196.501C120.986 196.796 121.06 197.087 121.197 197.351C121.334 197.615 121.531 197.846 121.774 198.027C122.016 198.209 122.297 198.335 122.597 198.398C122.897 198.461 123.208 198.459 123.506 198.391C123.805 198.323 124.084 198.192 124.323 198.007C124.562 197.822 124.755 197.587 124.888 197.321C125.02 197.055 125.089 196.763 125.089 196.468C125.09 196.183 125.024 195.902 124.897 195.645C124.734 195.988 124.472 196.279 124.142 196.484C123.811 196.688 123.427 196.797 123.035 196.798Z" fill="#E0E0E0"/>
<path d="M228.859 171.828C228.859 172.22 228.738 172.603 228.512 172.929C228.285 173.255 227.963 173.51 227.587 173.66C227.211 173.81 226.796 173.849 226.397 173.772C225.997 173.696 225.63 173.507 225.342 173.23C225.054 172.953 224.857 172.599 224.778 172.215C224.698 171.83 224.739 171.432 224.895 171.069C225.051 170.707 225.315 170.398 225.654 170.18C225.993 169.962 226.391 169.846 226.799 169.846C227.069 169.845 227.338 169.896 227.588 169.995C227.838 170.094 228.066 170.24 228.257 170.425C228.449 170.609 228.6 170.828 228.704 171.069C228.807 171.309 228.86 171.568 228.859 171.828Z" fill="#EBEBEB"/>
<path d="M226.799 173.804C226.406 173.803 226.022 173.694 225.692 173.489C225.362 173.285 225.1 172.994 224.936 172.65C224.809 172.908 224.744 173.189 224.744 173.474C224.741 173.772 224.807 174.067 224.938 174.337C225.069 174.607 225.262 174.846 225.502 175.034C225.743 175.223 226.024 175.356 226.325 175.426C226.627 175.495 226.941 175.498 227.243 175.435C227.546 175.371 227.83 175.243 228.074 175.059C228.318 174.875 228.516 174.64 228.653 174.373C228.79 174.105 228.862 173.811 228.865 173.513C228.867 173.215 228.799 172.92 228.667 172.65C228.503 172.994 228.239 173.286 227.908 173.49C227.577 173.694 227.192 173.803 226.799 173.804Z" fill="#E0E0E0"/>
<path d="M192.793 187.844C192.793 188.235 192.672 188.617 192.446 188.942C192.221 189.267 191.9 189.521 191.524 189.67C191.149 189.82 190.736 189.859 190.337 189.783C189.939 189.707 189.573 189.518 189.285 189.242C188.998 188.965 188.802 188.613 188.723 188.23C188.644 187.846 188.684 187.449 188.84 187.087C188.995 186.726 189.259 186.418 189.597 186.2C189.935 185.983 190.332 185.867 190.738 185.867C191.283 185.867 191.805 186.075 192.191 186.446C192.576 186.817 192.793 187.32 192.793 187.844Z" fill="#EBEBEB"/>
<path d="M190.738 189.825C190.346 189.824 189.962 189.715 189.631 189.511C189.301 189.306 189.039 189.015 188.876 188.672C188.749 188.929 188.683 189.21 188.684 189.495C188.684 189.79 188.753 190.082 188.885 190.348C189.018 190.615 189.211 190.849 189.45 191.034C189.689 191.219 189.968 191.351 190.267 191.418C190.565 191.486 190.876 191.489 191.176 191.426C191.476 191.363 191.757 191.236 191.999 191.055C192.242 190.873 192.439 190.642 192.576 190.378C192.713 190.114 192.787 189.824 192.792 189.528C192.797 189.233 192.734 188.94 192.606 188.672C192.442 189.016 192.178 189.307 191.847 189.511C191.516 189.716 191.131 189.825 190.738 189.825Z" fill="#E0E0E0"/>
<path d="M226.799 196.797C227.933 196.797 228.853 195.912 228.853 194.821C228.853 193.729 227.933 192.844 226.799 192.844C225.664 192.844 224.744 193.729 224.744 194.821C224.744 195.912 225.664 196.797 226.799 196.797Z" fill="#EBEBEB"/>
<path d="M226.799 196.798C226.406 196.797 226.022 196.688 225.692 196.484C225.362 196.279 225.1 195.988 224.936 195.645C224.809 195.902 224.744 196.183 224.744 196.468C224.741 196.766 224.807 197.061 224.938 197.331C225.069 197.602 225.262 197.84 225.502 198.028C225.743 198.217 226.024 198.351 226.325 198.42C226.627 198.489 226.941 198.492 227.243 198.429C227.546 198.365 227.83 198.237 228.074 198.053C228.318 197.869 228.516 197.635 228.653 197.367C228.79 197.099 228.862 196.806 228.865 196.507C228.867 196.209 228.799 195.914 228.667 195.645C228.503 195.988 228.239 196.28 227.908 196.484C227.577 196.689 227.192 196.798 226.799 196.798Z" fill="#E0E0E0"/>
<path opacity="0.1" d="M78.523 43.8555H39.2031V100.242H78.523V43.8555Z" fill="black"/>
<path d="M76.9273 42.3223H37.6074V98.7087H76.9273V42.3223Z" fill="#EBEBEB"/>
<path d="M75.0129 47.0879H41.1172V95.6959H75.0129V47.0879Z" fill="#F5F5F5"/>
<path d="M66.5095 65.6167C66.5095 66.9115 66.1105 68.1771 65.3629 69.2537C64.6153 70.3302 63.5527 71.1693 62.3095 71.6648C61.0664 72.1603 59.6984 72.2899 58.3786 72.0373C57.0588 71.7847 55.8466 71.1613 54.8951 70.2457C53.9436 69.3302 53.2956 68.1637 53.0331 66.8939C52.7706 65.624 52.9053 64.3077 53.4202 63.1115C53.9352 61.9153 54.8072 60.8929 55.9261 60.1736C57.0449 59.4543 58.3603 59.0703 59.7059 59.0703C60.5996 59.0696 61.4847 59.2384 62.3104 59.5671C63.1362 59.8959 63.8866 60.378 64.5185 60.9861C65.1504 61.5941 65.6515 62.3161 65.9932 63.1106C66.3348 63.9052 66.5103 64.7568 66.5095 65.6167Z" fill="#E0E0E0"/>
<path d="M51.9551 82.9263L57.6238 76.4023L59.7073 82.9263H51.9551Z" fill="#EBEBEB"/>
<path d="M47.1649 54.289C42.41 61.7426 45.8496 70.9994 51.2389 77.081C52.0712 78.0162 53.4679 76.661 52.6415 75.7314C47.8109 70.2994 44.5925 61.933 48.8585 55.2466C49.5336 54.1994 47.8167 53.2418 47.1474 54.289H47.1649Z" fill="#EBEBEB"/>
<path d="M70.6551 53.8359L67.0234 57.4143L70.6551 60.4047L73.9609 57.1231L70.6551 53.8359Z" fill="#EBEBEB"/>
<path d="M76.9273 42.3223L78.522 43.8567V100.243H39.2021L37.6074 98.7087H76.9273V42.3223Z" fill="#E0E0E0"/>
<path d="M31.9746 159.237C31.9746 154.472 37.7946 150.434 45.8553 149.057L37.8994 139.906H66.0158L58.054 149.057C66.1089 150.434 71.9405 154.472 71.9405 159.237C71.9405 164.49 64.8693 202.884 55.5456 211.317L58.4556 214.677H45.4304L48.3404 211.317C39.0459 202.884 31.9746 164.49 31.9746 159.237Z" fill="#F0F0F0"/>
<path d="M62.7273 198.606C59.375 196.265 57.0645 191.41 57.0645 185.782C57.0645 177.875 61.6273 171.457 67.2495 171.457C68.1961 171.471 69.1309 171.661 70.0023 172.017C68.3902 180.075 65.8585 190.34 62.7273 198.606Z" fill="#E0E0E0"/>
<path d="M38.0739 151.555C41.8161 153.671 44.4759 158.835 44.4759 164.838C44.4759 172.196 40.5299 178.278 35.4549 179.062C33.2724 169.699 31.9629 161.472 31.9629 159.238C31.9745 156.219 34.3142 153.498 38.0739 151.555Z" fill="#E6E6E6"/>
<path d="M241.11 106.844C240.959 107.18 240.742 107.484 240.469 107.74C240.325 107.885 240.163 108.013 239.986 108.121C239.53 108.413 238.992 108.563 238.444 108.552C238.059 108.499 237.702 108.328 237.425 108.065C237.149 107.802 236.967 107.46 236.907 107.09C236.849 106.742 236.898 106.385 237.049 106.063C237.2 105.741 237.447 105.469 237.757 105.282L238.06 105.758C237.85 105.887 237.683 106.072 237.579 106.291C237.476 106.509 237.441 106.752 237.478 106.99C237.565 107.454 238.002 107.981 238.456 107.998C238.909 107.991 239.35 107.857 239.726 107.612C240.101 107.367 240.394 107.023 240.568 106.62C240.733 106.255 240.773 105.849 240.684 105.461C240.594 105.072 240.378 104.721 240.068 104.458C239.811 104.195 239.493 103.993 239.14 103.871C238.787 103.748 238.409 103.708 238.037 103.753C237.408 103.884 236.817 104.143 236.301 104.512C235.785 104.88 235.357 105.351 235.045 105.892C233.596 108.182 233.695 110.865 234.027 112.713C234.259 113.922 234.628 115.103 235.127 116.235C235.226 116.47 235.33 116.706 235.441 116.935C235.848 117.826 236.302 118.688 236.745 119.539C237.949 121.852 239.189 124.232 239.556 126.965C239.591 127.211 239.62 127.469 239.637 127.726C239.655 127.984 239.666 128.214 239.672 128.46C239.672 128.622 239.672 128.79 239.672 128.953C239.701 134.978 236.686 140.461 231.728 143.412L231.605 142.818C236.163 140.018 239.032 134.754 239.084 129.149C239.084 129.087 239.084 129.02 239.084 128.953C239.084 128.768 239.084 128.578 239.084 128.393C239.084 128.208 239.084 127.973 239.049 127.766C239.049 127.642 239.049 127.519 239.014 127.396C238.967 126.918 238.889 126.443 238.782 125.974C238.304 123.79 237.286 121.835 236.221 119.814C235.604 118.626 234.975 117.422 234.475 116.157C234.242 115.597 234.032 115.037 233.852 114.426C233.694 113.901 233.566 113.369 233.468 112.83C232.962 110.03 233.34 107.555 234.556 105.623C234.917 105.01 235.41 104.478 236.002 104.063C236.595 103.649 237.272 103.362 237.99 103.221C238.679 103.13 239.379 103.285 239.957 103.658C240.132 103.763 240.294 103.887 240.44 104.027C240.463 104.042 240.484 104.059 240.504 104.078C240.889 104.422 241.154 104.873 241.263 105.368C241.371 105.864 241.318 106.379 241.11 106.844Z" fill="#E6E6E6"/>
<path d="M238.998 127.402C237.991 125.487 236.024 123.695 234.621 123.398L234.743 122.838C236.326 123.168 238.422 125.078 239.516 127.139L238.998 127.402Z" fill="#E6E6E6"/>
<path d="M239.615 129.133H239.033C239.016 128.481 239.143 127.833 239.406 127.232C239.669 126.63 240.061 126.089 240.558 125.645L240.953 126.059C240.516 126.451 240.171 126.927 239.94 127.457C239.709 127.988 239.598 128.559 239.615 129.133Z" fill="#E6E6E6"/>
<path d="M234.463 116.145C233.345 114.613 232.101 113.169 230.744 111.828L231.169 111.441C232.541 112.811 233.804 114.279 234.946 115.832L234.463 116.145Z" fill="#E6E6E6"/>
<path d="M235.648 115.011L234.865 116.748L235.399 116.971L236.182 115.234L235.648 115.011Z" fill="#E6E6E6"/>
<path d="M242.128 108.806C241.256 108.715 240.42 108.419 239.695 107.943L240.021 107.479C240.667 107.905 241.413 108.17 242.192 108.251L242.128 108.806Z" fill="#E6E6E6"/>
<path d="M240.441 102.125L239.744 104.168L240.297 104.343L240.994 102.299L240.441 102.125Z" fill="#E6E6E6"/>
<path d="M238.317 110.775C238.536 110.664 238.786 110.624 239.031 110.659C239.276 110.694 239.503 110.804 239.679 110.971C240.051 111.391 239.9 112.035 239.679 112.551C239.149 113.827 237.415 117.451 235.605 115.911C233.882 114.511 236.938 111.38 238.317 110.775Z" fill="#E6E6E6"/>
<path d="M232.224 111.28C232.369 111.471 232.448 111.703 232.448 111.94C232.448 112.178 232.369 112.409 232.224 112.601C231.84 113.016 231.159 112.965 230.6 112.836C229.209 112.517 225.228 111.392 226.526 109.476C227.742 107.606 231.403 110.048 232.224 111.28Z" fill="#E6E6E6"/>
<path d="M236.378 121.41C234.731 119.064 231.082 117.641 227.817 118.05C226.286 118.252 226.071 120.475 226.542 121.662C227.014 122.849 228.242 123.824 229.656 124.417C231.131 125.079 232.806 125.204 234.37 124.77C235.831 124.289 237.181 122.547 236.378 121.41Z" fill="#E6E6E6"/>
<path d="M247.029 121.298C245.283 121.069 243.444 120.968 241.849 121.668C240.254 122.368 239.021 124.11 239.521 125.734C239.703 126.314 240.091 126.814 240.618 127.145C241.145 127.477 241.777 127.62 242.402 127.548C243.7 127.419 244.811 126.613 245.754 125.745C246.417 125.209 246.919 124.513 247.209 123.729C247.436 122.928 247.884 121.41 247.029 121.298Z" fill="#E6E6E6"/>
<path d="M240.377 103.418C240.057 102.809 239.92 102.127 239.981 101.447C240.018 101.109 240.148 100.786 240.359 100.513C240.57 100.24 240.854 100.027 241.18 99.8958C241.513 99.7832 241.878 99.8005 242.198 99.9438C242.518 100.087 242.767 100.345 242.891 100.663C242.984 101.043 242.979 101.44 242.878 101.818C242.776 102.197 242.581 102.546 242.309 102.836C242.077 103.099 241.773 103.294 241.431 103.397C241.089 103.5 240.723 103.507 240.377 103.418Z" fill="#E6E6E6"/>
<path d="M247.1 110.305C246.599 110.735 245.985 111.023 245.325 111.139C244.665 111.255 243.984 111.194 243.358 110.963C242.732 110.732 242.184 110.339 241.774 109.828C241.364 109.317 241.109 108.707 241.035 108.065C241.54 107.684 242.137 107.433 242.77 107.335C243.403 107.237 244.052 107.296 244.655 107.505C245.271 107.742 245.816 108.122 246.242 108.611C246.669 109.099 246.963 109.681 247.1 110.305Z" fill="#E6E6E6"/>
<path d="M240.284 159.26L241.529 160.694H235.989L237.24 159.26C234.65 156.914 232.473 149.136 231.28 143.412L231.158 142.819C230.738 140.952 230.446 139.061 230.285 137.157C230.285 135.13 232.759 133.416 236.175 132.834L232.799 128.953H244.707L241.332 132.834C244.748 133.394 247.221 135.13 247.221 137.157C247.221 139.38 244.224 155.671 240.284 159.26Z" fill="#F0F0F0"/>
<path d="M143.196 237.778C205.518 237.778 256.04 234.94 256.04 231.439C256.04 227.938 205.518 225.1 143.196 225.1C80.8735 225.1 30.3516 227.938 30.3516 231.439C30.3516 234.94 80.8735 237.778 143.196 237.778Z" fill="#F5F5F5"/>
<path d="M200.04 190.805H143.999C142.529 190.825 141.072 190.549 139.72 189.993C138.369 189.438 137.154 188.616 136.153 187.581C135.152 186.545 134.388 185.32 133.91 183.982C133.432 182.645 133.25 181.227 133.377 179.818L142.747 50.9339C142.999 47.9683 144.391 45.1996 146.651 43.1688C148.911 41.1381 151.877 39.9912 154.969 39.9523H211.01C212.479 39.9313 213.937 40.2071 215.288 40.7619C216.64 41.3166 217.855 42.138 218.856 43.1729C219.857 44.2079 220.621 45.4333 221.099 46.7701C221.578 48.107 221.759 49.5254 221.632 50.9339L212.262 179.818C212.01 182.784 210.618 185.553 208.358 187.585C206.098 189.617 203.132 190.765 200.04 190.805Z" fill="#2F27CE"/>
<path d="M197.129 190.805H141.089C139.619 190.825 138.162 190.549 136.81 189.993C135.459 189.438 134.243 188.616 133.242 187.581C132.242 186.545 131.477 185.32 130.999 183.982C130.521 182.645 130.34 181.227 130.467 179.818L139.837 50.9339C140.089 47.9683 141.481 45.1996 143.741 43.1688C146.001 41.1381 148.967 39.9912 152.059 39.9523H208.1C209.569 39.9313 211.027 40.2071 212.378 40.7619C213.73 41.3166 214.945 42.138 215.946 43.1729C216.947 44.2079 217.711 45.4333 218.189 46.7701C218.667 48.107 218.849 49.5254 218.722 50.9339L209.351 179.818C209.1 182.784 207.708 185.553 205.448 187.585C203.188 189.617 200.222 190.765 197.129 190.805Z" fill="#263238"/>
<path d="M207.907 42.4999H193.357C192.886 42.5071 192.432 42.6686 192.069 42.9577C191.706 43.2468 191.456 43.6463 191.361 44.0903L191.274 44.5327C191.043 45.6184 190.434 46.5956 189.547 47.3025C188.66 48.0093 187.548 48.4033 186.397 48.4191H172.533C171.431 48.4364 170.365 48.0406 169.56 47.3154C168.755 46.5901 168.275 45.5923 168.221 44.5327V44.0903C168.197 43.6604 168.002 43.2558 167.677 42.9599C167.353 42.6639 166.922 42.4993 166.475 42.4999H151.925C149.544 42.5326 147.261 43.4173 145.521 44.9817C143.781 46.5461 142.709 48.6779 142.514 50.9615L133.144 179.845C133.046 180.931 133.186 182.024 133.554 183.054C133.922 184.084 134.511 185.029 135.282 185.827C136.053 186.624 136.989 187.258 138.03 187.686C139.071 188.114 140.194 188.328 141.326 188.313H197.367C199.749 188.28 202.033 187.394 203.773 185.829C205.513 184.263 206.584 182.13 206.778 179.845L216.148 50.9615C216.247 49.8716 216.105 48.774 215.734 47.7401C215.362 46.7063 214.768 45.7594 213.99 44.9611C213.213 44.1629 212.269 43.5311 211.221 43.1071C210.173 42.683 209.044 42.4761 207.907 42.4999Z" fill="#2F27CE"/>
<path opacity="0.8" d="M216.091 50.9401L206.727 179.824C206.53 182.108 205.457 184.24 203.716 185.804C201.975 187.369 199.691 188.253 197.31 188.286H141.269C140.137 188.302 139.014 188.09 137.973 187.663C136.932 187.236 135.995 186.603 135.224 185.805C134.454 185.007 133.865 184.063 133.498 183.032C133.131 182.002 132.992 180.909 133.092 179.824L142.456 50.9401C142.657 48.6605 143.731 46.5341 145.471 44.9744C147.21 43.4147 149.49 42.533 151.867 42.5009H166.417C166.866 42.5003 167.297 42.6658 167.622 42.9629C167.947 43.26 168.141 43.666 168.163 44.0969V44.5337C168.212 45.5983 168.689 46.6029 169.494 47.3347C170.299 48.0664 171.368 48.4678 172.476 48.4537H186.322C187.478 48.437 188.593 48.0384 189.48 47.3247C190.366 46.611 190.971 45.6256 191.193 44.5337L191.286 44.0969C191.382 43.6415 191.641 43.2328 192.017 42.9414C192.393 42.65 192.863 42.4942 193.346 42.5009H207.896C209.027 42.4846 210.148 42.6962 211.189 43.1221C212.229 43.5479 213.165 44.1786 213.937 44.9734C214.709 45.7683 215.299 46.7098 215.67 47.7374C216.041 48.765 216.184 49.856 216.091 50.9401Z" fill="white"/>
<path d="M207.85 164.334L206.727 179.824C206.53 182.108 205.457 184.24 203.716 185.804C201.975 187.368 199.691 188.253 197.31 188.285H141.269C140.137 188.302 139.014 188.09 137.973 187.662C136.932 187.235 135.995 186.602 135.224 185.804C134.454 185.007 133.865 184.062 133.498 183.032C133.131 182.002 132.992 180.909 133.092 179.824L134.215 164.334H207.85Z" fill="#263238"/>
<path opacity="0.5" d="M207.85 164.334L206.727 179.824C206.53 182.108 205.457 184.24 203.716 185.804C201.975 187.368 199.691 188.253 197.31 188.285H141.269C140.137 188.302 139.014 188.09 137.973 187.662C136.932 187.235 135.995 186.602 135.224 185.804C134.454 185.007 133.865 184.062 133.498 183.032C133.131 182.002 132.992 180.909 133.092 179.824L134.215 164.334H207.85Z" fill="white"/>
<g opacity="0.7">
<path d="M176.394 43.8999C176.371 44.1849 176.239 44.4518 176.025 44.6492C175.81 44.8466 175.527 44.9607 175.23 44.9695C175.086 44.9725 174.944 44.9462 174.812 44.8925C174.68 44.8388 174.561 44.7588 174.463 44.6579C174.365 44.5569 174.291 44.4372 174.244 44.3065C174.198 44.1759 174.181 44.0374 174.194 43.8999C174.217 43.6149 174.348 43.3481 174.563 43.1506C174.778 42.9532 175.061 42.8391 175.358 42.8303C175.501 42.8274 175.644 42.8536 175.776 42.9073C175.908 42.961 176.027 43.041 176.125 43.1419C176.222 43.2429 176.297 43.3626 176.343 43.4933C176.39 43.6239 176.407 43.7625 176.394 43.8999Z" fill="black"/>
<path d="M184.366 42.8301H180.548C180.247 42.8333 179.957 42.9447 179.737 43.1426C179.516 43.3404 179.38 43.6104 179.355 43.8997C179.343 44.0369 179.361 44.1751 179.408 44.3054C179.454 44.4356 179.529 44.555 179.627 44.6557C179.724 44.7565 179.843 44.8365 179.974 44.8905C180.106 44.9445 180.248 44.9714 180.391 44.9693H184.209C184.506 44.9605 184.789 44.8464 185.004 44.649C185.219 44.4515 185.35 44.1847 185.373 43.8997C185.386 43.7646 185.37 43.6284 185.325 43.4997C185.28 43.3711 185.208 43.2527 185.114 43.1522C185.019 43.0516 184.904 42.9711 184.775 42.9156C184.647 42.8602 184.507 42.8311 184.366 42.8301Z" fill="black"/>
</g>
<path d="M148.742 48.3751H149.918L149.999 47.2383H148.824L148.742 48.3751Z" fill="#2F27CE"/>
<path d="M151.181 47.2386L151.1 48.3754H152.275L152.363 47.2386L152.444 46.1074H151.263L151.181 47.2386Z" fill="#2F27CE"/>
<path d="M153.701 44.9707L153.62 46.1075L153.539 47.2387L153.457 48.3755H154.633L154.72 47.2387L154.801 46.1075L154.883 44.9707H153.701Z" fill="#2F27CE"/>
<path d="M204.376 45.0488L204.318 45.8608H203.736L203.619 47.5408H204.201L204.143 48.3752H209.329L209.567 45.0488H204.376ZM206.529 47.5408H204.783L204.905 45.8608H206.651L206.529 47.5408Z" fill="#2F27CE"/>
<path d="M152.082 109.319H151.686C151.623 109.32 151.561 109.308 151.503 109.284C151.445 109.261 151.393 109.225 151.35 109.181C151.307 109.137 151.275 109.084 151.254 109.027C151.234 108.97 151.227 108.909 151.232 108.848L151.814 100.824C151.882 100.057 152.244 99.3416 152.829 98.817C153.414 98.2923 154.181 97.9956 154.98 97.9844H163.315C163.378 97.9834 163.44 97.9951 163.498 98.0189C163.556 98.0426 163.608 98.0778 163.651 98.1222C163.694 98.1665 163.726 98.2191 163.747 98.2764C163.767 98.3337 163.774 98.3945 163.769 98.4548V98.83C163.76 98.9578 163.701 99.0775 163.603 99.1649C163.506 99.2523 163.378 99.3007 163.245 99.3004H154.881C154.454 99.311 154.046 99.4718 153.734 99.7526C153.422 100.033 153.228 100.414 153.188 100.824L152.606 108.848C152.594 108.975 152.535 109.094 152.438 109.18C152.341 109.267 152.214 109.317 152.082 109.319Z" fill="#2F27CE"/>
<path d="M183.697 142.438L183.726 142.057C183.736 141.931 183.795 141.813 183.89 141.726C183.986 141.639 184.112 141.589 184.244 141.587H192.561C192.989 141.578 193.398 141.417 193.712 141.137C194.025 140.856 194.22 140.474 194.26 140.064L194.842 132.039C194.852 131.912 194.912 131.793 195.009 131.705C195.106 131.618 195.233 131.569 195.366 131.568H195.756C195.819 131.567 195.882 131.579 195.94 131.603C195.998 131.627 196.05 131.662 196.094 131.706C196.137 131.75 196.17 131.803 196.191 131.86C196.212 131.917 196.22 131.978 196.215 132.039L195.633 140.064C195.568 140.831 195.209 141.547 194.624 142.073C194.04 142.599 193.273 142.897 192.473 142.908H184.151C184.088 142.909 184.026 142.896 183.968 142.872C183.911 142.848 183.859 142.813 183.817 142.769C183.774 142.725 183.741 142.672 183.721 142.616C183.7 142.559 183.692 142.498 183.697 142.438Z" fill="#2F27CE"/>
<path d="M197.397 109.32H197.001C196.938 109.321 196.876 109.309 196.818 109.285C196.76 109.262 196.708 109.226 196.665 109.182C196.622 109.138 196.59 109.085 196.569 109.028C196.549 108.97 196.541 108.91 196.547 108.849L197.129 100.886C197.161 100.568 197.088 100.249 196.92 99.9734C196.787 99.7664 196.601 99.5961 196.38 99.4792C196.158 99.3624 195.909 99.303 195.657 99.3069H187.322C187.26 99.3071 187.198 99.2948 187.14 99.2708C187.083 99.2468 187.031 99.2116 186.988 99.1674C186.946 99.1232 186.913 99.071 186.893 99.014C186.872 98.9571 186.864 98.8967 186.869 98.8366L186.898 98.4557C186.908 98.3285 186.967 98.2095 187.064 98.1224C187.161 98.0353 187.289 97.9864 187.421 97.9853H195.645C196.359 97.9672 197.055 98.2024 197.601 98.6461C197.919 98.9167 198.167 99.2551 198.324 99.6344C198.482 100.014 198.545 100.423 198.509 100.83L197.927 108.849C197.915 108.977 197.854 109.096 197.756 109.183C197.658 109.27 197.53 109.319 197.397 109.32Z" fill="#2F27CE"/>
<path d="M151.711 142.908C151.287 142.914 150.867 142.824 150.485 142.646C150.103 142.468 149.77 142.207 149.511 141.884C149.091 141.327 148.898 140.641 148.97 139.957L149.552 132.039C149.563 131.912 149.623 131.794 149.72 131.707C149.817 131.62 149.943 131.571 150.076 131.568H150.471C150.534 131.568 150.596 131.58 150.653 131.605C150.711 131.629 150.763 131.664 150.805 131.708C150.848 131.752 150.881 131.804 150.901 131.861C150.922 131.918 150.93 131.979 150.925 132.039L150.343 140.013C150.311 140.329 150.384 140.647 150.553 140.92C150.685 141.127 150.87 141.296 151.09 141.413C151.31 141.53 151.558 141.59 151.81 141.587H160.144C160.207 141.586 160.27 141.598 160.328 141.621C160.386 141.645 160.439 141.68 160.482 141.724C160.525 141.769 160.558 141.821 160.579 141.878C160.6 141.936 160.609 141.997 160.604 142.057V142.438C160.592 142.565 160.533 142.683 160.436 142.77C160.339 142.857 160.212 142.906 160.08 142.908H151.711Z" fill="#2F27CE"/>
<path d="M159.619 154.226C159.447 154.407 159.236 154.551 159.001 154.648C158.766 154.745 158.512 154.792 158.257 154.786C157.53 154.786 157.041 154.534 156.342 153.767C156.038 153.744 155.742 153.663 155.47 153.529C155.199 153.395 154.958 153.21 154.762 152.986C154.566 152.761 154.418 152.501 154.328 152.22C154.237 151.94 154.206 151.645 154.235 151.353C154.292 150.673 154.62 150.04 155.15 149.587C155.681 149.134 156.373 148.896 157.081 148.923C157.418 148.898 157.757 148.944 158.074 149.058C158.39 149.171 158.677 149.35 158.915 149.581C159.152 149.813 159.335 150.091 159.449 150.397C159.564 150.703 159.608 151.029 159.578 151.353C159.542 151.878 159.339 152.38 158.998 152.791C158.657 153.203 158.193 153.504 157.669 153.655C157.745 153.755 157.845 153.837 157.96 153.893C158.076 153.95 158.203 153.979 158.333 153.979C158.487 153.978 158.639 153.947 158.78 153.887C158.921 153.828 159.048 153.741 159.153 153.632L159.619 154.226ZM156.796 152.876C157.22 152.881 157.629 152.726 157.935 152.444C158.242 152.163 158.422 151.777 158.437 151.37C158.465 151.178 158.448 150.983 158.389 150.798C158.329 150.613 158.228 150.443 158.092 150.3C157.957 150.156 157.79 150.044 157.605 149.969C157.419 149.895 157.218 149.861 157.017 149.869C156.595 149.864 156.187 150.018 155.88 150.299C155.574 150.579 155.393 150.963 155.376 151.37C155.348 151.562 155.364 151.758 155.423 151.944C155.482 152.129 155.583 152.3 155.719 152.444C155.854 152.588 156.021 152.701 156.207 152.776C156.394 152.85 156.595 152.885 156.796 152.876Z" fill="#263238"/>
<path d="M163.379 153.722L162.53 152.411H161.488L161.395 153.722H160.266L160.609 149.023H162.722C164.025 149.023 164.794 149.673 164.718 150.703C164.701 151.028 164.588 151.34 164.39 151.604C164.193 151.867 163.921 152.07 163.606 152.187L164.59 153.699L163.379 153.722ZM162.594 149.908H161.674L161.552 151.549H162.477C163.164 151.549 163.536 151.235 163.577 150.726C163.618 150.216 163.286 149.908 162.594 149.908Z" fill="#263238"/>
<path d="M167.238 151.37C167.291 150.691 167.615 150.058 168.142 149.605C168.67 149.151 169.36 148.913 170.067 148.939C170.438 148.919 170.808 148.984 171.147 149.129C171.486 149.274 171.784 149.495 172.017 149.774L171.243 150.418C171.107 150.243 170.932 150.102 170.73 150.005C170.528 149.908 170.305 149.857 170.079 149.858C169.651 149.846 169.235 149.996 168.923 150.277C168.61 150.558 168.425 150.947 168.408 151.358C168.38 151.553 168.398 151.752 168.459 151.94C168.521 152.127 168.625 152.3 168.764 152.444C168.904 152.588 169.074 152.701 169.264 152.774C169.455 152.846 169.659 152.878 169.863 152.865C170.104 152.864 170.342 152.814 170.561 152.717C170.78 152.621 170.975 152.48 171.132 152.305L171.807 152.949C171.544 153.225 171.222 153.442 170.864 153.587C170.505 153.732 170.118 153.801 169.729 153.789C169.394 153.813 169.057 153.766 168.742 153.653C168.427 153.539 168.141 153.361 167.905 153.131C167.668 152.902 167.486 152.625 167.371 152.321C167.256 152.017 167.211 151.692 167.238 151.37Z" fill="#263238"/>
<path d="M172.256 151.371C172.312 150.69 172.64 150.057 173.17 149.604C173.701 149.151 174.393 148.913 175.102 148.94C175.439 148.915 175.777 148.961 176.094 149.075C176.41 149.189 176.697 149.368 176.935 149.599C177.173 149.83 177.355 150.108 177.47 150.414C177.584 150.72 177.628 151.047 177.598 151.371C177.543 152.052 177.216 152.686 176.685 153.14C176.155 153.594 175.462 153.833 174.752 153.807C174.415 153.831 174.076 153.785 173.759 153.671C173.442 153.557 173.154 153.378 172.917 153.146C172.679 152.914 172.497 152.635 172.382 152.328C172.268 152.022 172.225 151.695 172.256 151.371ZM176.458 151.371C176.485 151.179 176.468 150.983 176.409 150.799C176.349 150.614 176.248 150.444 176.113 150.3C175.977 150.157 175.811 150.044 175.625 149.97C175.439 149.896 175.239 149.861 175.038 149.87C174.615 149.865 174.207 150.019 173.9 150.299C173.594 150.58 173.413 150.964 173.396 151.371C173.368 151.563 173.384 151.759 173.443 151.944C173.502 152.13 173.603 152.301 173.739 152.445C173.874 152.588 174.041 152.702 174.228 152.776C174.414 152.851 174.615 152.885 174.816 152.877C175.24 152.882 175.649 152.727 175.956 152.445C176.262 152.164 176.443 151.778 176.458 151.371Z" fill="#263238"/>
<path d="M178.623 149.023H180.846C182.441 149.023 183.471 149.947 183.366 151.37C183.261 152.792 182.103 153.722 180.503 153.722H178.285L178.623 149.023ZM180.514 152.831C180.727 152.847 180.941 152.822 181.144 152.756C181.346 152.691 181.533 152.587 181.693 152.451C181.852 152.314 181.982 152.148 182.073 151.962C182.165 151.777 182.217 151.575 182.225 151.37C182.252 151.174 182.231 150.974 182.165 150.787C182.099 150.599 181.989 150.429 181.845 150.288C181.7 150.148 181.523 150.041 181.329 149.976C181.135 149.911 180.928 149.89 180.724 149.914H179.694L179.478 152.831H180.514Z" fill="#263238"/>
<path d="M187.906 152.848L187.842 153.722H184.059L184.402 149.023H188.092L188.028 149.897H185.461L185.386 150.916H187.655L187.591 151.762H185.322L185.246 152.848H187.906Z" fill="#263238"/>
<path d="M214.047 79.0293H140.215L141.955 55.0781H215.788L214.047 79.0293Z" fill="#2F27CE"/>
<path opacity="0.2" d="M133.244 179.371C133.151 180.47 133.299 181.577 133.679 182.618C134.059 183.658 134.662 184.611 135.449 185.413L213.891 44.2932C213.126 43.5615 212.218 42.9833 211.219 42.5921C210.22 42.2008 209.15 42.0043 208.071 42.014H152.025C149.644 42.0493 147.361 42.9357 145.622 44.5008C143.882 46.0658 142.81 48.1976 142.614 50.4812L133.244 179.371Z" fill="white"/>
<path d="M160.132 59.31L159.014 74.7734L159.594 74.8123L160.712 59.3489L160.132 59.31Z" fill="#E0E0E0"/>
<path d="M178.544 59.3081L177.426 74.7715L178.006 74.8104L179.125 59.3469L178.544 59.3081Z" fill="#E0E0E0"/>
<path d="M196.926 59.2981L195.811 74.7617L196.391 74.8005L197.506 59.3369L196.926 59.2981Z" fill="#E0E0E0"/>
<path d="M155.632 101.535L155.527 103.036H157.087L157.198 101.535H155.632Z" fill="#263238"/>
<path d="M157.198 101.535L157.088 103.036H158.653L158.758 101.535H157.198Z" fill="#263238"/>
<path d="M158.757 101.535L158.652 103.036H160.212L160.323 101.535H158.757Z" fill="#263238"/>
<path d="M160.323 101.535L160.213 103.036H161.778L161.883 101.535H160.323Z" fill="#263238"/>
<path d="M161.882 101.535L161.777 103.036H163.337L163.448 101.535H161.882Z" fill="#263238"/>
<path d="M163.448 101.535L163.338 103.036H164.903L165.014 101.535H163.448Z" fill="#263238"/>
<path d="M165.013 101.535L164.902 103.036H166.462L166.573 101.535H165.013Z" fill="#263238"/>
<path d="M171.265 101.535L171.154 103.036H172.714L172.825 101.535H171.265Z" fill="#263238"/>
<path d="M175.95 101.535L175.84 103.036H177.405L177.516 101.535H175.95Z" fill="#263238"/>
<path d="M177.515 101.535L177.404 103.036H178.964L179.075 101.535H177.515Z" fill="#263238"/>
<path d="M179.075 101.535L178.965 103.036H180.53L180.641 101.535H179.075Z" fill="#263238"/>
<path d="M180.64 101.535L180.529 103.036H182.089L182.2 101.535H180.64Z" fill="#263238"/>
<path d="M183.765 101.535L183.654 103.036H185.214L185.325 101.535H183.765Z" fill="#263238"/>
<path d="M185.325 101.535L185.215 103.036H186.78L186.891 101.535H185.325Z" fill="#263238"/>
<path d="M186.892 101.535L186.781 103.036H188.347L188.452 101.535H186.892Z" fill="#263238"/>
<path d="M188.45 101.535L188.346 103.036H189.905L190.016 101.535H188.45Z" fill="#263238"/>
<path d="M190.017 101.535L189.906 103.036H191.472L191.577 101.535H190.017Z" fill="#263238"/>
<path d="M191.575 101.535L191.471 103.036H193.03L193.141 101.535H191.575Z" fill="#263238"/>
<path d="M193.142 101.535L193.031 103.036H194.597L194.707 101.535H193.142Z" fill="#263238"/>
<path d="M155.527 103.035L155.416 104.542H156.976L157.086 103.035H155.527Z" fill="#263238"/>
<path d="M164.904 103.035L164.793 104.542H166.353L166.463 103.035H164.904Z" fill="#263238"/>
<path d="M169.589 103.035L169.484 104.542H171.044L171.155 103.035H169.589Z" fill="#263238"/>
<path d="M177.406 103.035L177.295 104.542H178.861L178.965 103.035H177.406Z" fill="#263238"/>
<path d="M178.964 103.035L178.859 104.542H180.419L180.53 103.035H178.964Z" fill="#263238"/>
<path d="M180.53 103.035L180.42 104.542H181.985L182.09 103.035H180.53Z" fill="#263238"/>
<path d="M183.656 103.035L183.545 104.542H185.111L185.215 103.035H183.656Z" fill="#263238"/>
<path d="M193.031 103.035L192.92 104.542H194.486L194.596 103.035H193.031Z" fill="#263238"/>
<path d="M155.417 104.543L155.307 106.044H156.872L156.977 104.543H155.417Z" fill="#263238"/>
<path d="M158.542 104.543L158.432 106.044H159.997L160.102 104.543H158.542Z" fill="#263238"/>
<path d="M160.101 104.543L159.996 106.044H161.556L161.666 104.543H160.101Z" fill="#263238"/>
<path d="M161.667 104.543L161.557 106.044H163.122L163.227 104.543H161.667Z" fill="#263238"/>
<path d="M164.792 104.543L164.682 106.044H166.247L166.352 104.543H164.792Z" fill="#263238"/>
<path d="M167.917 104.543L167.807 106.044H169.372L169.483 104.543H167.917Z" fill="#263238"/>
<path d="M172.609 104.543L172.498 106.044H174.058L174.168 104.543H172.609Z" fill="#263238"/>
<path d="M177.294 104.543L177.184 106.044H178.749L178.86 104.543H177.294Z" fill="#263238"/>
<path d="M183.544 104.543L183.434 106.044H184.999L185.11 104.543H183.544Z" fill="#263238"/>
<path d="M186.669 104.543L186.559 106.044H188.124L188.235 104.543H186.669Z" fill="#263238"/>
<path d="M188.236 104.543L188.125 106.044H189.691L189.795 104.543H188.236Z" fill="#263238"/>
<path d="M189.796 104.543L189.691 106.044H191.251L191.362 104.543H189.796Z" fill="#263238"/>
<path d="M192.921 104.543L192.816 106.044H194.376L194.487 104.543H192.921Z" fill="#263238"/>
<path d="M155.306 106.043L155.195 107.549H156.761L156.871 106.043H155.306Z" fill="#263238"/>
<path d="M158.431 106.043L158.32 107.549H159.886L159.996 106.043H158.431Z" fill="#263238"/>
<path d="M159.997 106.043L159.887 107.549H161.446L161.557 106.043H159.997Z" fill="#263238"/>
<path d="M161.556 106.043L161.445 107.549H163.011L163.121 106.043H161.556Z" fill="#263238"/>
<path d="M164.683 106.043L164.572 107.549H166.138L166.248 106.043H164.683Z" fill="#263238"/>
<path d="M169.372 106.043L169.262 107.549H170.821L170.932 106.043H169.372Z" fill="#263238"/>
<path d="M177.183 106.043L177.078 107.549H178.638L178.748 106.043H177.183Z" fill="#263238"/>
<path d="M178.749 106.043L178.639 107.549H180.204L180.309 106.043H178.749Z" fill="#263238"/>
<path d="M183.435 106.043L183.33 107.549H184.89L185 106.043H183.435Z" fill="#263238"/>
<path d="M186.56 106.043L186.455 107.549H188.015L188.125 106.043H186.56Z" fill="#263238"/>
<path d="M188.124 106.043L188.014 107.549H189.579L189.69 106.043H188.124Z" fill="#263238"/>
<path d="M189.691 106.043L189.58 107.549H191.14L191.25 106.043H189.691Z" fill="#263238"/>
<path d="M192.816 106.043L192.705 107.549H194.265L194.375 106.043H192.816Z" fill="#263238"/>
<path d="M155.195 107.549L155.084 109.05H156.65L156.76 107.549H155.195Z" fill="#263238"/>
<path d="M158.322 107.549L158.217 109.05H159.777L159.887 107.549H158.322Z" fill="#263238"/>
<path d="M159.886 107.549L159.775 109.05H161.341L161.446 107.549H159.886Z" fill="#263238"/>
<path d="M161.447 107.549L161.342 109.05H162.902L163.012 107.549H161.447Z" fill="#263238"/>
<path d="M164.572 107.549L164.467 109.05H166.027L166.137 107.549H164.572Z" fill="#263238"/>
<path d="M169.263 107.549L169.152 109.05H170.718L170.823 107.549H169.263Z" fill="#263238"/>
<path d="M173.947 107.549L173.842 109.05H175.402L175.512 107.549H173.947Z" fill="#263238"/>
<path d="M175.513 107.549L175.402 109.05H176.968L177.079 107.549H175.513Z" fill="#263238"/>
<path d="M177.079 107.549L176.969 109.05H178.529L178.639 107.549H177.079Z" fill="#263238"/>
<path d="M178.638 107.549L178.527 109.05H180.093L180.203 107.549H178.638Z" fill="#263238"/>
<path d="M183.329 107.549L183.219 109.05H184.779L184.889 107.549H183.329Z" fill="#263238"/>
<path d="M186.454 107.549L186.344 109.05H187.904L188.014 107.549H186.454Z" fill="#263238"/>
<path d="M188.015 107.549L187.904 109.05H189.47L189.58 107.549H188.015Z" fill="#263238"/>
<path d="M189.579 107.549L189.469 109.05H191.034L191.139 107.549H189.579Z" fill="#263238"/>
<path d="M192.706 107.549L192.596 109.05H194.161L194.266 107.549H192.706Z" fill="#263238"/>
<path d="M155.085 109.051L154.98 110.557H156.54L156.651 109.051H155.085Z" fill="#263238"/>
<path d="M164.466 109.051L164.355 110.557H165.915L166.026 109.051H164.466Z" fill="#263238"/>
<path d="M170.718 109.051L170.607 110.557H172.167L172.278 109.051H170.718Z" fill="#263238"/>
<path d="M172.277 109.051L172.166 110.557H173.732L173.842 109.051H172.277Z" fill="#263238"/>
<path d="M175.402 109.051L175.291 110.557H176.857L176.967 109.051H175.402Z" fill="#263238"/>
<path d="M176.968 109.051L176.857 110.557H178.417L178.528 109.051H176.968Z" fill="#263238"/>
<path d="M178.529 109.051L178.418 110.557H179.984L180.094 109.051H178.529Z" fill="#263238"/>
<path d="M180.093 109.051L179.982 110.557H181.548L181.653 109.051H180.093Z" fill="#263238"/>
<path d="M183.218 109.051L183.107 110.557H184.673L184.778 109.051H183.218Z" fill="#263238"/>
<path d="M192.595 109.051L192.484 110.557H194.05L194.161 109.051H192.595Z" fill="#263238"/>
<path d="M154.98 110.557L154.869 112.063H156.429L156.539 110.557H154.98Z" fill="#263238"/>
<path d="M156.54 110.557L156.43 112.063H157.995L158.106 110.557H156.54Z" fill="#263238"/>
<path d="M158.105 110.557L157.994 112.063H159.554L159.664 110.557H158.105Z" fill="#263238"/>
<path d="M159.665 110.557L159.555 112.063H161.12L161.231 110.557H159.665Z" fill="#263238"/>
<path d="M161.232 110.557L161.121 112.063H162.687L162.791 110.557H161.232Z" fill="#263238"/>
<path d="M162.79 110.557L162.686 112.063H164.245L164.356 110.557H162.79Z" fill="#263238"/>
<path d="M164.357 110.557L164.246 112.063H165.812L165.916 110.557H164.357Z" fill="#263238"/>
<path d="M167.482 110.557L167.371 112.063H168.937L169.041 110.557H167.482Z" fill="#263238"/>
<path d="M170.607 110.557L170.496 112.063H172.062L172.166 110.557H170.607Z" fill="#263238"/>
<path d="M173.732 110.557L173.621 112.063H175.187L175.291 110.557H173.732Z" fill="#263238"/>
<path d="M176.857 110.557L176.746 112.063H178.312L178.416 110.557H176.857Z" fill="#263238"/>
<path d="M179.984 110.557L179.873 112.063H181.439L181.549 110.557H179.984Z" fill="#263238"/>
<path d="M183.109 110.557L182.998 112.063H184.564L184.674 110.557H183.109Z" fill="#263238"/>
<path d="M184.673 110.557L184.562 112.063H186.122L186.233 110.557H184.673Z" fill="#263238"/>
<path d="M186.234 110.557L186.123 112.063H187.689L187.799 110.557H186.234Z" fill="#263238"/>
<path d="M187.8 110.557L187.689 112.063H189.249L189.36 110.557H187.8Z" fill="#263238"/>
<path d="M189.359 110.557L189.248 112.063H190.814L190.924 110.557H189.359Z" fill="#263238"/>
<path d="M190.925 110.557L190.814 112.063H192.38L192.485 110.557H190.925Z" fill="#263238"/>
<path d="M192.484 110.557L192.379 112.063H193.939L194.049 110.557H192.484Z" fill="#263238"/>
<path d="M167.37 112.062L167.26 113.563H168.825L168.936 112.062H167.37Z" fill="#263238"/>
<path d="M173.622 112.062L173.512 113.563H175.077L175.188 112.062H173.622Z" fill="#263238"/>
<path d="M175.187 112.062L175.076 113.563H176.636L176.747 112.062H175.187Z" fill="#263238"/>
<path d="M179.872 112.062L179.762 113.563H181.327L181.438 112.062H179.872Z" fill="#263238"/>
<path d="M154.759 113.564L154.648 115.071H156.214L156.325 113.564H154.759Z" fill="#263238"/>
<path d="M156.325 113.564L156.215 115.071H157.775L157.885 113.564H156.325Z" fill="#263238"/>
<path d="M157.884 113.564L157.773 115.071H159.339L159.45 113.564H157.884Z" fill="#263238"/>
<path d="M161.009 113.564L160.898 115.071H162.464L162.575 113.564H161.009Z" fill="#263238"/>
<path d="M162.575 113.564L162.465 115.071H164.03L164.135 113.564H162.575Z" fill="#263238"/>
<path d="M164.134 113.564L164.029 115.071H165.589L165.7 113.564H164.134Z" fill="#263238"/>
<path d="M165.7 113.564L165.59 115.071H167.155L167.26 113.564H165.7Z" fill="#263238"/>
<path d="M167.261 113.564L167.156 115.071H168.716L168.827 113.564H167.261Z" fill="#263238"/>
<path d="M171.95 113.564L171.84 115.071H173.405L173.51 113.564H171.95Z" fill="#263238"/>
<path d="M173.511 113.564L173.406 115.071H174.966L175.077 113.564H173.511Z" fill="#263238"/>
<path d="M175.077 113.564L174.967 115.071H176.532L176.637 113.564H175.077Z" fill="#263238"/>
<path d="M179.761 113.564L179.656 115.071H181.216L181.327 113.564H179.761Z" fill="#263238"/>
<path d="M181.327 113.564L181.217 115.071H182.782L182.893 113.564H181.327Z" fill="#263238"/>
<path d="M182.894 113.564L182.783 115.071H184.343L184.454 113.564H182.894Z" fill="#263238"/>
<path d="M189.144 113.564L189.033 115.071H190.593L190.704 113.564H189.144Z" fill="#263238"/>
<path d="M157.773 115.07L157.668 116.571H159.228L159.338 115.07H157.773Z" fill="#263238"/>
<path d="M159.339 115.07L159.229 116.571H160.794L160.899 115.07H159.339Z" fill="#263238"/>
<path d="M160.9 115.07L160.795 116.571H162.355L162.465 115.07H160.9Z" fill="#263238"/>
<path d="M165.589 115.07L165.479 116.571H167.044L167.155 115.07H165.589Z" fill="#263238"/>
<path d="M167.156 115.07L167.045 116.571H168.605L168.715 115.07H167.156Z" fill="#263238"/>
<path d="M168.716 115.07L168.605 116.571H170.171L170.282 115.07H168.716Z" fill="#263238"/>
<path d="M171.841 115.07L171.73 116.571H173.296L173.407 115.07H171.841Z" fill="#263238"/>
<path d="M173.406 115.07L173.295 116.571H174.855L174.965 115.07H173.406Z" fill="#263238"/>
<path d="M179.657 115.07L179.547 116.571H181.107L181.217 115.07H179.657Z" fill="#263238"/>
<path d="M182.782 115.07L182.672 116.571H184.232L184.342 115.07H182.782Z" fill="#263238"/>
<path d="M192.157 115.07L192.047 116.571H193.612L193.723 115.07H192.157Z" fill="#263238"/>
<path d="M157.669 116.57L157.559 118.077H159.118L159.229 116.57H157.669Z" fill="#263238"/>
<path d="M163.919 116.57L163.809 118.077H165.368L165.479 116.57H163.919Z" fill="#263238"/>
<path d="M165.48 116.57L165.369 118.077H166.935L167.045 116.57H165.48Z" fill="#263238"/>
<path d="M170.171 116.57L170.061 118.077H171.62L171.731 116.57H170.171Z" fill="#263238"/>
<path d="M173.296 116.57L173.186 118.077H174.751L174.856 116.57H173.296Z" fill="#263238"/>
<path d="M176.421 116.57L176.311 118.077H177.876L177.981 116.57H176.421Z" fill="#263238"/>
<path d="M182.671 116.57L182.561 118.077H184.126L184.231 116.57H182.671Z" fill="#263238"/>
<path d="M184.232 116.57L184.127 118.077H185.687L185.797 116.57H184.232Z" fill="#263238"/>
<path d="M185.796 116.57L185.686 118.077H187.251L187.362 116.57H185.796Z" fill="#263238"/>
<path d="M188.923 116.57L188.812 118.077H190.378L190.489 116.57H188.923Z" fill="#263238"/>
<path d="M190.488 116.57L190.377 118.077H191.937L192.047 116.57H190.488Z" fill="#263238"/>
<path d="M192.048 116.57L191.938 118.077H193.503L193.614 116.57H192.048Z" fill="#263238"/>
<path d="M154.433 118.078L154.322 119.579H155.888L155.993 118.078H154.433Z" fill="#263238"/>
<path d="M155.993 118.078L155.889 119.579H157.448L157.559 118.078H155.993Z" fill="#263238"/>
<path d="M157.558 118.078L157.447 119.579H159.013L159.118 118.078H157.558Z" fill="#263238"/>
<path d="M160.683 118.078L160.572 119.579H162.138L162.243 118.078H160.683Z" fill="#263238"/>
<path d="M168.493 118.078L168.389 119.579H169.948L170.059 118.078H168.493Z" fill="#263238"/>
<path d="M170.06 118.078L169.949 119.579H171.515L171.62 118.078H170.06Z" fill="#263238"/>
<path d="M173.185 118.078L173.074 119.579H174.64L174.75 118.078H173.185Z" fill="#263238"/>
<path d="M174.751 118.078L174.641 119.579H176.2L176.311 118.078H174.751Z" fill="#263238"/>
<path d="M176.31 118.078L176.199 119.579H177.765L177.875 118.078H176.31Z" fill="#263238"/>
<path d="M177.876 118.078L177.766 119.579H179.325L179.436 118.078H177.876Z" fill="#263238"/>
<path d="M181.001 118.078L180.891 119.579H182.45L182.561 118.078H181.001Z" fill="#263238"/>
<path d="M182.562 118.078L182.451 119.579H184.017L184.127 118.078H182.562Z" fill="#263238"/>
<path d="M184.126 118.078L184.016 119.579H185.575L185.686 118.078H184.126Z" fill="#263238"/>
<path d="M190.378 118.078L190.268 119.579H191.833L191.938 118.078H190.378Z" fill="#263238"/>
<path d="M157.448 119.578L157.338 121.085H158.903L159.014 119.578H157.448Z" fill="#263238"/>
<path d="M159.013 119.578L158.902 121.085H160.462L160.573 119.578H159.013Z" fill="#263238"/>
<path d="M163.698 119.578L163.588 121.085H165.153L165.264 119.578H163.698Z" fill="#263238"/>
<path d="M166.823 119.578L166.713 121.085H168.278L168.389 119.578H166.823Z" fill="#263238"/>
<path d="M169.948 119.578L169.838 121.085H171.403L171.514 119.578H169.948Z" fill="#263238"/>
<path d="M174.64 119.578L174.529 121.085H176.095L176.2 119.578H174.64Z" fill="#263238"/>
<path d="M179.325 119.578L179.221 121.085H180.78L180.891 119.578H179.325Z" fill="#263238"/>
<path d="M180.89 119.578L180.779 121.085H182.345L182.45 119.578H180.89Z" fill="#263238"/>
<path d="M182.45 119.578L182.346 121.085H183.905L184.016 119.578H182.45Z" fill="#263238"/>
<path d="M184.017 119.578L183.906 121.085H185.472L185.577 119.578H184.017Z" fill="#263238"/>
<path d="M187.142 119.578L187.031 121.085H188.597L188.707 119.578H187.142Z" fill="#263238"/>
<path d="M190.267 119.578L190.156 121.085H191.722L191.832 119.578H190.267Z" fill="#263238"/>
<path d="M191.833 119.578L191.723 121.085H193.282L193.393 119.578H191.833Z" fill="#263238"/>
<path d="M162.029 121.084L161.918 122.585H163.484L163.588 121.084H162.029Z" fill="#263238"/>
<path d="M165.154 121.084L165.043 122.585H166.609L166.713 121.084H165.154Z" fill="#263238"/>
<path d="M166.714 121.084L166.609 122.585H168.169L168.28 121.084H166.714Z" fill="#263238"/>
<path d="M169.839 121.084L169.734 122.585H171.294L171.405 121.084H169.839Z" fill="#263238"/>
<path d="M172.964 121.084L172.859 122.585H174.419L174.53 121.084H172.964Z" fill="#263238"/>
<path d="M179.22 121.084L179.109 122.585H180.669L180.78 121.084H179.22Z" fill="#263238"/>
<path d="M180.781 121.084L180.67 122.585H182.236L182.346 121.084H180.781Z" fill="#263238"/>
<path d="M182.345 121.084L182.234 122.585H183.794L183.905 121.084H182.345Z" fill="#263238"/>
<path d="M187.031 121.084L186.92 122.585H188.486L188.596 121.084H187.031Z" fill="#263238"/>
<path d="M191.722 121.084L191.611 122.585H193.177L193.282 121.084H191.722Z" fill="#263238"/>
<path d="M154.101 122.586L153.996 124.092H155.556L155.666 122.586H154.101Z" fill="#263238"/>
<path d="M158.792 122.586L158.682 124.092H160.247L160.358 122.586H158.792Z" fill="#263238"/>
<path d="M160.359 122.586L160.248 124.092H161.808L161.918 122.586H160.359Z" fill="#263238"/>
<path d="M161.917 122.586L161.807 124.092H163.372L163.483 122.586H161.917Z" fill="#263238"/>
<path d="M163.484 122.586L163.373 124.092H164.933L165.043 122.586H163.484Z" fill="#263238"/>
<path d="M165.042 122.586L164.932 124.092H166.497L166.608 122.586H165.042Z" fill="#263238"/>
<path d="M168.169 122.586L168.059 124.092H169.624L169.735 122.586H168.169Z" fill="#263238"/>
<path d="M169.734 122.586L169.623 124.092H171.183L171.293 122.586H169.734Z" fill="#263238"/>
<path d="M174.419 122.586L174.309 124.092H175.874L175.985 122.586H174.419Z" fill="#263238"/>
<path d="M179.111 122.586L179 124.092H180.566L180.67 122.586H179.111Z" fill="#263238"/>
<path d="M180.669 122.586L180.564 124.092H182.124L182.235 122.586H180.669Z" fill="#263238"/>
<path d="M182.236 122.586L182.125 124.092H183.691L183.795 122.586H182.236Z" fill="#263238"/>
<path d="M183.794 122.586L183.689 124.092H185.249L185.36 122.586H183.794Z" fill="#263238"/>
<path d="M188.486 122.586L188.375 124.092H189.941L190.051 122.586H188.486Z" fill="#263238"/>
<path d="M190.052 122.586L189.941 124.092H191.501L191.612 122.586H190.052Z" fill="#263238"/>
<path d="M191.611 122.586L191.5 124.092H193.066L193.176 122.586H191.611Z" fill="#263238"/>
<path d="M155.556 124.092L155.445 125.593H157.011L157.121 124.092H155.556Z" fill="#263238"/>
<path d="M157.122 124.092L157.012 125.593H158.577L158.682 124.092H157.122Z" fill="#263238"/>
<path d="M161.808 124.092L161.703 125.593H163.263L163.373 124.092H161.808Z" fill="#263238"/>
<path d="M164.933 124.092L164.828 125.593H166.388L166.498 124.092H164.933Z" fill="#263238"/>
<path d="M168.058 124.092L167.953 125.593H169.513L169.623 124.092H168.058Z" fill="#263238"/>
<path d="M169.622 124.092L169.512 125.593H171.077L171.182 124.092H169.622Z" fill="#263238"/>
<path d="M174.308 124.092L174.203 125.593H175.763L175.873 124.092H174.308Z" fill="#263238"/>
<path d="M177.439 124.092L177.328 125.593H178.888L178.998 124.092H177.439Z" fill="#263238"/>
<path d="M182.124 124.092L182.014 125.593H183.579L183.69 124.092H182.124Z" fill="#263238"/>
<path d="M185.249 124.092L185.139 125.593H186.704L186.815 124.092H185.249Z" fill="#263238"/>
<path d="M189.941 124.092L189.83 125.593H191.396L191.5 124.092H189.941Z" fill="#263238"/>
<path d="M153.886 125.592L153.775 127.098H155.341L155.446 125.592H153.886Z" fill="#263238"/>
<path d="M157.011 125.592L156.9 127.098H158.466L158.577 125.592H157.011Z" fill="#263238"/>
<path d="M161.702 125.592L161.592 127.098H163.152L163.262 125.592H161.702Z" fill="#263238"/>
<path d="M163.263 125.592L163.152 127.098H164.718L164.829 125.592H163.263Z" fill="#263238"/>
<path d="M164.827 125.592L164.717 127.098H166.277L166.387 125.592H164.827Z" fill="#263238"/>
<path d="M174.204 125.592L174.094 127.098H175.654L175.764 125.592H174.204Z" fill="#263238"/>
<path d="M178.888 125.592L178.777 127.098H180.343L180.454 125.592H178.888Z" fill="#263238"/>
<path d="M180.454 125.592L180.344 127.098H181.909L182.014 125.592H180.454Z" fill="#263238"/>
<path d="M182.015 125.592L181.91 127.098H183.47L183.58 125.592H182.015Z" fill="#263238"/>
<path d="M183.579 125.592L183.469 127.098H185.034L185.139 125.592H183.579Z" fill="#263238"/>
<path d="M185.14 125.592L185.035 127.098H186.595L186.705 125.592H185.14Z" fill="#263238"/>
<path d="M186.704 125.592L186.594 127.098H188.159L188.27 125.592H186.704Z" fill="#263238"/>
<path d="M166.277 127.1L166.166 128.6H167.732L167.842 127.1H166.277Z" fill="#263238"/>
<path d="M169.402 127.1L169.297 128.6H170.857L170.967 127.1H169.402Z" fill="#263238"/>
<path d="M172.527 127.1L172.422 128.6H173.982L174.092 127.1H172.527Z" fill="#263238"/>
<path d="M178.779 127.1L178.674 128.6H180.234L180.344 127.1H178.779Z" fill="#263238"/>
<path d="M185.034 127.1L184.924 128.6H186.484L186.594 127.1H185.034Z" fill="#263238"/>
<path d="M186.595 127.1L186.484 128.6H188.05L188.161 127.1H186.595Z" fill="#263238"/>
<path d="M189.72 127.1L189.609 128.6H191.175L191.286 127.1H189.72Z" fill="#263238"/>
<path d="M191.284 127.1L191.174 128.6H192.739L192.844 127.1H191.284Z" fill="#263238"/>
<path d="M153.665 128.6L153.561 130.106H155.12L155.231 128.6H153.665Z" fill="#263238"/>
<path d="M155.23 128.6L155.119 130.106H156.685L156.789 128.6H155.23Z" fill="#263238"/>
<path d="M156.79 128.6L156.686 130.106H158.245L158.356 128.6H156.79Z" fill="#263238"/>
<path d="M158.357 128.6L158.246 130.106H159.812L159.916 128.6H158.357Z" fill="#263238"/>
<path d="M159.915 128.6L159.811 130.106H161.37L161.481 128.6H159.915Z" fill="#263238"/>
<path d="M161.482 128.6L161.371 130.106H162.937L163.047 128.6H161.482Z" fill="#263238"/>
<path d="M163.046 128.6L162.936 130.106H164.495L164.606 128.6H163.046Z" fill="#263238"/>
<path d="M166.165 128.6L166.061 130.106H167.62L167.731 128.6H166.165Z" fill="#263238"/>
<path d="M167.732 128.6L167.621 130.106H169.187L169.297 128.6H167.732Z" fill="#263238"/>
<path d="M169.298 128.6L169.188 130.106H170.747L170.858 128.6H169.298Z" fill="#263238"/>
<path d="M173.982 128.6L173.871 130.106H175.437L175.547 128.6H173.982Z" fill="#263238"/>
<path d="M175.548 128.6L175.438 130.106H176.997L177.108 128.6H175.548Z" fill="#263238"/>
<path d="M177.109 128.6L176.998 130.106H178.564L178.674 128.6H177.109Z" fill="#263238"/>
<path d="M178.673 128.6L178.562 130.106H180.122L180.233 128.6H178.673Z" fill="#263238"/>
<path d="M181.798 128.6L181.688 130.106H183.253L183.358 128.6H181.798Z" fill="#263238"/>
<path d="M184.923 128.6L184.812 130.106H186.378L186.483 128.6H184.923Z" fill="#263238"/>
<path d="M186.484 128.6L186.379 130.106H187.939L188.049 128.6H186.484Z" fill="#263238"/>
<path d="M189.609 128.6L189.504 130.106H191.064L191.174 128.6H189.609Z" fill="#263238"/>
<path d="M191.175 128.6L191.064 130.106H192.63L192.741 128.6H191.175Z" fill="#263238"/>
<path d="M153.56 130.105L153.449 131.606H155.009L155.12 130.105H153.56Z" fill="#263238"/>
<path d="M162.937 130.105L162.826 131.606H164.392L164.497 130.105H162.937Z" fill="#263238"/>
<path d="M166.062 130.105L165.951 131.606H167.511L167.622 130.105H166.062Z" fill="#263238"/>
<path d="M172.312 130.105L172.201 131.606H173.767L173.872 130.105H172.312Z" fill="#263238"/>
<path d="M173.872 130.105L173.768 131.606H175.327L175.438 130.105H173.872Z" fill="#263238"/>
<path d="M175.437 130.105L175.326 131.606H176.892L176.997 130.105H175.437Z" fill="#263238"/>
<path d="M178.564 130.105L178.453 131.606H180.019L180.123 130.105H178.564Z" fill="#263238"/>
<path d="M184.814 130.105L184.703 131.606H186.269L186.379 130.105H184.814Z" fill="#263238"/>
<path d="M186.378 130.105L186.268 131.606H187.827L187.938 130.105H186.378Z" fill="#263238"/>
<path d="M189.505 130.105L189.395 131.606H190.954L191.065 130.105H189.505Z" fill="#263238"/>
<path d="M153.448 131.607L153.338 133.114H154.903L155.008 131.607H153.448Z" fill="#263238"/>
<path d="M156.575 131.607L156.465 133.114H158.03L158.135 131.607H156.575Z" fill="#263238"/>
<path d="M158.134 131.607L158.029 133.114H159.589L159.7 131.607H158.134Z" fill="#263238"/>
<path d="M159.7 131.607L159.59 133.114H161.155L161.26 131.607H159.7Z" fill="#263238"/>
<path d="M162.825 131.607L162.715 133.114H164.28L164.391 131.607H162.825Z" fill="#263238"/>
<path d="M165.95 131.607L165.84 133.114H167.405L167.51 131.607H165.95Z" fill="#263238"/>
<path d="M170.642 131.607L170.531 133.114H172.091L172.202 131.607H170.642Z" fill="#263238"/>
<path d="M172.202 131.607L172.092 133.114H173.657L173.768 131.607H172.202Z" fill="#263238"/>
<path d="M173.767 131.607L173.656 133.114H175.216L175.327 131.607H173.767Z" fill="#263238"/>
<path d="M175.327 131.607L175.217 133.114H176.782L176.893 131.607H175.327Z" fill="#263238"/>
<path d="M178.452 131.607L178.342 133.114H179.907L180.018 131.607H178.452Z" fill="#263238"/>
<path d="M180.017 131.607L179.906 133.114H181.466L181.577 131.607H180.017Z" fill="#263238"/>
<path d="M181.577 131.607L181.467 133.114H183.032L183.143 131.607H181.577Z" fill="#263238"/>
<path d="M183.144 131.607L183.033 133.114H184.593L184.704 131.607H183.144Z" fill="#263238"/>
<path d="M184.702 131.607L184.592 133.114H186.157L186.268 131.607H184.702Z" fill="#263238"/>
<path d="M186.269 131.607L186.158 133.114H187.724L187.829 131.607H186.269Z" fill="#263238"/>
<path d="M189.394 131.607L189.283 133.114H190.849L190.954 131.607H189.394Z" fill="#263238"/>
<path d="M153.339 133.113L153.229 134.614H154.794L154.905 133.113H153.339Z" fill="#263238"/>
<path d="M156.464 133.113L156.354 134.614H157.919L158.03 133.113H156.464Z" fill="#263238"/>
<path d="M158.031 133.113L157.92 134.614H159.48L159.59 133.113H158.031Z" fill="#263238"/>
<path d="M159.589 133.113L159.479 134.614H161.044L161.155 133.113H159.589Z" fill="#263238"/>
<path d="M162.714 133.113L162.604 134.614H164.169L164.28 133.113H162.714Z" fill="#263238"/>
<path d="M167.406 133.113L167.295 134.614H168.855L168.965 133.113H167.406Z" fill="#263238"/>
<path d="M168.966 133.113L168.855 134.614H170.421L170.532 133.113H168.966Z" fill="#263238"/>
<path d="M172.091 133.113L171.98 134.614H173.546L173.657 133.113H172.091Z" fill="#263238"/>
<path d="M176.782 133.113L176.672 134.614H178.237L178.342 133.113H176.782Z" fill="#263238"/>
<path d="M178.341 133.113L178.236 134.614H179.796L179.907 133.113H178.341Z" fill="#263238"/>
<path d="M183.032 133.113L182.922 134.614H184.487L184.592 133.113H183.032Z" fill="#263238"/>
<path d="M184.593 133.113L184.488 134.614H186.048L186.159 133.113H184.593Z" fill="#263238"/>
<path d="M186.157 133.113L186.047 134.614H187.612L187.723 133.113H186.157Z" fill="#263238"/>
<path d="M187.724 133.113L187.613 134.614H189.173L189.284 133.113H187.724Z" fill="#263238"/>
<path d="M153.228 134.615L153.117 136.122H154.683L154.793 134.615H153.228Z" fill="#263238"/>
<path d="M156.353 134.615L156.248 136.122H157.808L157.918 134.615H156.353Z" fill="#263238"/>
<path d="M157.919 134.615L157.809 136.122H159.374L159.479 134.615H157.919Z" fill="#263238"/>
<path d="M159.48 134.615L159.375 136.122H160.935L161.045 134.615H159.48Z" fill="#263238"/>
<path d="M162.605 134.615L162.5 136.122H164.06L164.17 134.615H162.605Z" fill="#263238"/>
<path d="M165.73 134.615L165.625 136.122H167.185L167.295 134.615H165.73Z" fill="#263238"/>
<path d="M173.546 134.615L173.436 136.122H175.001L175.112 134.615H173.546Z" fill="#263238"/>
<path d="M176.671 134.615L176.561 136.122H178.126L178.237 134.615H176.671Z" fill="#263238"/>
<path d="M184.488 134.615L184.377 136.122H185.943L186.047 134.615H184.488Z" fill="#263238"/>
<path d="M190.738 134.615L190.627 136.122H192.193L192.297 134.615H190.738Z" fill="#263238"/>
<path d="M153.118 136.121L153.014 137.622H154.573L154.684 136.121H153.118Z" fill="#263238"/>
<path d="M162.499 136.121L162.389 137.622H163.948L164.059 136.121H162.499Z" fill="#263238"/>
<path d="M165.624 136.121L165.514 137.622H167.073L167.184 136.121H165.624Z" fill="#263238"/>
<path d="M167.185 136.121L167.074 137.622H168.64L168.75 136.121H167.185Z" fill="#263238"/>
<path d="M170.31 136.121L170.199 137.622H171.765L171.875 136.121H170.31Z" fill="#263238"/>
<path d="M173.435 136.121L173.324 137.622H174.89L175 136.121H173.435Z" fill="#263238"/>
<path d="M175.001 136.121L174.891 137.622H176.456L176.561 136.121H175.001Z" fill="#263238"/>
<path d="M176.56 136.121L176.455 137.622H178.015L178.125 136.121H176.56Z" fill="#263238"/>
<path d="M178.126 136.121L178.016 137.622H179.581L179.686 136.121H178.126Z" fill="#263238"/>
<path d="M181.251 136.121L181.141 137.622H182.706L182.811 136.121H181.251Z" fill="#263238"/>
<path d="M184.376 136.121L184.266 137.622H185.831L185.942 136.121H184.376Z" fill="#263238"/>
<path d="M185.943 136.121L185.832 137.622H187.392L187.502 136.121H185.943Z" fill="#263238"/>
<path d="M189.068 136.121L188.957 137.622H190.517L190.627 136.121H189.068Z" fill="#263238"/>
<path d="M153.013 137.621L152.902 139.127H154.462L154.573 137.621H153.013Z" fill="#263238"/>
<path d="M154.573 137.621L154.463 139.127H156.028L156.139 137.621H154.573Z" fill="#263238"/>
<path d="M156.138 137.621L156.027 139.127H157.593L157.698 137.621H156.138Z" fill="#263238"/>
<path d="M157.699 137.621L157.594 139.127H159.154L159.264 137.621H157.699Z" fill="#263238"/>
<path d="M159.263 137.621L159.152 139.127H160.718L160.823 137.621H159.263Z" fill="#263238"/>
<path d="M160.824 137.621L160.719 139.127H162.279L162.389 137.621H160.824Z" fill="#263238"/>
<path d="M162.39 137.621L162.279 139.127H163.845L163.95 137.621H162.39Z" fill="#263238"/>
<path d="M165.515 137.621L165.404 139.127H166.97L167.075 137.621H165.515Z" fill="#263238"/>
<path d="M167.074 137.621L166.969 139.127H168.529L168.639 137.621H167.074Z" fill="#263238"/>
<path d="M168.64 137.621L168.529 139.127H170.095L170.2 137.621H168.64Z" fill="#263238"/>
<path d="M170.199 137.621L170.094 139.127H171.654L171.764 137.621H170.199Z" fill="#263238"/>
<path d="M171.765 137.621L171.654 139.127H173.22L173.325 137.621H171.765Z" fill="#263238"/>
<path d="M173.325 137.621L173.221 139.127H174.78L174.891 137.621H173.325Z" fill="#263238"/>
<path d="M178.015 137.621L177.904 139.127H179.47L179.58 137.621H178.015Z" fill="#263238"/>
<path d="M179.581 137.621L179.471 139.127H181.03L181.141 137.621H179.581Z" fill="#263238"/>
<path d="M182.706 137.621L182.596 139.127H184.155L184.266 137.621H182.706Z" fill="#263238"/>
<path d="M188.956 137.621L188.846 139.127H190.411L190.516 137.621H188.956Z" fill="#263238"/>
<path d="M190.517 137.621L190.412 139.127H191.972L192.082 137.621H190.517Z" fill="#263238"/>
<path d="M111.435 230.331L115.975 229.278L113.629 219.131L109.096 220.184L111.435 230.331Z" fill="#FF887B"/>
<path d="M115.801 228.225L110.842 229.379C110.753 229.398 110.675 229.447 110.619 229.517C110.564 229.586 110.536 229.672 110.539 229.76L110.714 233.814C110.718 233.902 110.741 233.989 110.78 234.069C110.82 234.149 110.875 234.22 110.943 234.28C111.011 234.339 111.091 234.385 111.177 234.414C111.264 234.444 111.356 234.457 111.447 234.453C111.492 234.458 111.537 234.458 111.581 234.453C113.327 234.005 115.911 233.305 118.164 232.773C120.783 232.162 121.033 232.252 124.112 231.535C125.974 231.104 125.986 229.183 125.165 229.205C121.411 229.284 120.544 229.401 116.982 228.298C116.603 228.171 116.194 228.146 115.801 228.225Z" fill="#263238"/>
<path opacity="0.2" d="M113.629 219.135L114.84 224.365L110.3 225.418L109.096 220.188L113.629 219.135Z" fill="black"/>
<path d="M116.37 227.94C116.352 227.941 116.334 227.937 116.318 227.931C116.302 227.924 116.288 227.914 116.276 227.901C116.266 227.891 116.258 227.88 116.253 227.867C116.247 227.855 116.244 227.841 116.244 227.828C116.244 227.814 116.247 227.801 116.253 227.788C116.258 227.776 116.266 227.764 116.276 227.755C116.451 227.604 118.022 226.316 118.634 226.484C118.691 226.5 118.743 226.529 118.786 226.569C118.828 226.609 118.86 226.659 118.878 226.713C118.921 226.803 118.938 226.903 118.927 227.001C118.917 227.099 118.88 227.193 118.82 227.273C118.55 227.554 118.189 227.738 117.795 227.794C117.325 227.881 116.848 227.93 116.37 227.94ZM116.661 227.716C117.691 227.649 118.407 227.436 118.622 227.156C118.66 227.104 118.683 227.044 118.69 226.981C118.696 226.918 118.684 226.855 118.657 226.797C118.652 226.775 118.64 226.754 118.624 226.738C118.607 226.721 118.587 226.709 118.564 226.702C118.495 226.688 118.423 226.688 118.354 226.702C117.734 226.945 117.161 227.288 116.661 227.716Z" fill="#2F27CE"/>
<path d="M116.318 227.945C116.301 227.936 116.287 227.924 116.276 227.91C116.265 227.895 116.257 227.879 116.254 227.861C116.254 227.816 116.062 226.629 116.492 226.058C116.553 225.972 116.632 225.9 116.725 225.847C116.817 225.794 116.921 225.761 117.028 225.75C117.325 225.705 117.47 225.828 117.499 225.934C117.714 226.405 116.917 227.57 116.434 227.934H116.387C116.366 227.943 116.342 227.947 116.318 227.945ZM116.673 226.186C116.447 226.637 116.374 227.144 116.463 227.637C116.923 227.194 117.447 226.298 117.319 226.024C117.319 225.996 117.272 225.912 117.08 225.957H117.016C116.943 225.969 116.874 225.995 116.812 226.033C116.75 226.072 116.697 226.122 116.655 226.181L116.673 226.186Z" fill="#2F27CE"/>
<path d="M76.5195 229.457L81.129 230.152L82.9972 219.915L78.3819 219.215L76.5195 229.457Z" fill="#FF887B"/>
<path d="M81.1703 229.63L76.1243 228.874C76.0346 228.86 75.9425 228.876 75.8638 228.92C75.7852 228.964 75.725 229.033 75.6937 229.115L74.2445 232.923C74.2123 233.007 74.1978 233.095 74.2018 233.184C74.2059 233.273 74.2283 233.36 74.2679 233.441C74.3075 233.521 74.3634 233.593 74.4324 233.652C74.5013 233.711 74.5819 233.757 74.6693 233.786C74.7104 233.802 74.7534 233.813 74.7974 233.819C76.619 234.06 79.2555 234.351 81.5428 234.698C84.2083 235.102 84.4062 235.258 87.5315 235.746C89.423 236.031 90.1971 234.262 89.4289 233.976C85.9369 232.671 85.0871 232.458 82.2295 230.129C81.9292 229.874 81.5634 229.702 81.1703 229.63Z" fill="#263238"/>
<path opacity="0.2" d="M82.9986 219.913L81.9102 225.86L77.3008 225.166L78.3833 219.219L82.9986 219.913Z" fill="black"/>
<path d="M81.8058 229.575C81.7887 229.571 81.7732 229.563 81.7608 229.551C81.7485 229.539 81.7398 229.524 81.7359 229.508C81.7314 229.495 81.7297 229.481 81.7308 229.468C81.7319 229.454 81.7358 229.441 81.7424 229.429C81.7489 229.417 81.7579 229.406 81.7687 229.398C81.7796 229.389 81.7922 229.383 81.8058 229.379C82.0269 229.306 83.9824 228.685 84.483 229.071C84.5314 229.105 84.5697 229.151 84.5942 229.204C84.6186 229.257 84.6284 229.316 84.6226 229.373C84.6234 229.468 84.5993 229.561 84.5525 229.645C84.5057 229.728 84.4377 229.798 84.3549 229.849C83.9905 230.011 83.5794 230.046 83.1909 229.95C82.7182 229.866 82.2545 229.741 81.8058 229.575ZM82.1608 229.48C83.1444 229.793 83.9068 229.866 84.2094 229.665C84.264 229.631 84.3087 229.585 84.3392 229.53C84.3698 229.475 84.3852 229.413 84.384 229.351C84.3864 229.328 84.3834 229.306 84.3753 229.284C84.3673 229.263 84.3543 229.244 84.3375 229.228C84.276 229.195 84.209 229.172 84.1396 229.161C83.4661 229.16 82.7971 229.267 82.1608 229.48Z" fill="#2F27CE"/>
<path d="M81.7416 229.54C81.7295 229.525 81.7207 229.508 81.7157 229.49C81.7107 229.471 81.7096 229.452 81.7125 229.434C81.7125 229.389 82.021 228.224 82.6495 227.854C82.7401 227.799 82.8418 227.762 82.9481 227.747C83.0544 227.731 83.1628 227.737 83.2664 227.765C83.5633 227.838 83.6506 228.006 83.6331 228.112C83.6331 228.627 82.44 229.411 81.8522 229.568H81.8056C81.7818 229.565 81.7594 229.555 81.7416 229.54ZM82.7659 228.039C82.3797 228.374 82.1112 228.816 81.9977 229.305C82.5797 229.064 83.441 228.431 83.4294 228.129C83.4294 228.129 83.4294 228.006 83.2373 227.978H83.1675C83.0275 227.958 82.8847 227.987 82.7659 228.062V228.039Z" fill="#2F27CE"/>
<path d="M99.2426 164.541C102.88 164.731 106.227 164.955 109.876 164.837C110.237 160.749 109.684 154.965 108.194 151.123C105.185 149.578 101.664 150.563 98.4395 151.655L99.2426 164.541Z" fill="#2F27CE"/>
<path opacity="0.2" d="M99.2426 164.541C102.88 164.731 106.227 164.955 109.876 164.837C110.237 160.749 109.684 154.965 108.194 151.123C105.185 149.578 101.664 150.563 98.4395 151.655L99.2426 164.541Z" fill="black"/>
<path opacity="0.2" d="M98.4395 151.711L99.6617 152.221L101.367 163.454L109.94 163.953L109.876 164.893L99.2426 164.597L98.4395 151.711Z" fill="black"/>
<path opacity="0.2" d="M108.17 151.14L108.688 152.668L105.703 153.738L100.802 152.999L98.416 151.672C100.036 150.952 101.772 150.505 103.549 150.35C106.651 150.02 108.17 151.14 108.17 151.14Z" fill="white"/>
<path d="M104.626 132.576L111.284 186.599L116.225 220.664C116.303 221.076 116.211 221.501 115.968 221.849C115.726 222.197 115.353 222.441 114.927 222.529L109.433 223.879C109.026 223.907 108.622 223.789 108.3 223.548C107.978 223.307 107.759 222.96 107.687 222.574C105.941 215.535 101.25 201.798 100.365 188.307C100.365 188.307 91.0534 153.895 89.1386 143.25L88.5566 133.629L104.626 132.576Z" fill="#2F27CE"/>
<path opacity="0.2" d="M96.373 145.625C96.373 145.625 98.0666 160.941 96.373 173.39C96.373 173.39 92.7937 159.104 91.1699 153.465L96.373 145.625Z" fill="black"/>
<path d="M97.6936 129.949L92.0831 190.9L84.9595 223.436C84.9339 223.628 84.8674 223.813 84.764 223.98C84.6607 224.146 84.5229 224.291 84.359 224.404C84.1952 224.517 84.0089 224.596 83.8118 224.636C83.6147 224.677 83.411 224.678 83.2135 224.64L77.1723 223.43C76.7737 223.316 76.4294 223.07 76.1996 222.737C75.9699 222.403 75.8692 222.002 75.9152 221.604C76.4972 214.576 76.148 203.124 79.7098 190.704C79.7098 190.704 80.1114 148.704 81.6362 130.061L97.6936 129.949Z" fill="#2F27CE"/>
<path d="M132.857 102.499L134.074 100.875L138.485 103.485C137.589 104.218 136.614 104.856 135.575 105.389C135.228 105.559 134.836 105.631 134.448 105.595C134.059 105.559 133.689 105.418 133.381 105.187L133.218 105.064C132.824 104.765 132.565 104.33 132.498 103.852C132.431 103.373 132.56 102.888 132.857 102.499Z" fill="#FF8B7B"/>
<path d="M137.642 98.4727L139.952 102.314L138.492 103.49L134.08 100.875L137.642 98.4727Z" fill="#FF8B7B"/>
<path d="M102.547 107.091C107.157 108.119 111.819 108.921 116.515 109.493C118.843 109.784 128.772 107.589 133.049 106.872C133.195 106.88 133.34 106.85 133.47 106.788C133.6 106.725 133.711 106.632 133.793 106.515C133.874 106.399 133.923 106.265 133.935 106.125C133.946 105.986 133.92 105.846 133.858 105.719L133.335 102.129C133.325 101.781 133.196 101.447 132.968 101.177C132.754 101.033 132.509 100.939 132.252 100.903C131.994 100.866 131.731 100.887 131.484 100.964C125.821 101.86 117.731 102.42 117.731 102.42C113.727 101.86 109.438 100.264 105.777 98.6738C94.8527 93.9474 100.12 106.486 102.547 107.091Z" fill="#263238"/>
<path opacity="0.1" d="M102.547 107.091C107.157 108.119 111.819 108.921 116.515 109.493C118.843 109.784 128.772 107.589 133.049 106.872C133.195 106.88 133.34 106.85 133.47 106.788C133.6 106.725 133.711 106.632 133.793 106.515C133.874 106.399 133.923 106.265 133.935 106.125C133.946 105.986 133.92 105.846 133.858 105.719L133.335 102.129C133.325 101.781 133.196 101.447 132.968 101.177C132.754 101.033 132.509 100.939 132.252 100.903C131.994 100.866 131.731 100.887 131.484 100.964C125.821 101.86 117.731 102.42 117.731 102.42C113.727 101.86 109.438 100.264 105.777 98.6738C94.8527 93.9474 100.12 106.486 102.547 107.091Z" fill="black"/>
<path d="M141.454 105.64L136.438 104.683L139.51 94.5469L144.521 95.5045L141.454 105.64Z" fill="#2F27CE"/>
<path d="M145.552 95.1405L142.119 106.481C142.077 106.613 141.985 106.726 141.861 106.798C141.737 106.869 141.591 106.894 141.449 106.867L141.158 106.811C141.299 106.836 141.444 106.811 141.567 106.74C141.689 106.668 141.78 106.556 141.822 106.425L145.255 95.0789C145.277 95.0049 145.283 94.9275 145.272 94.8513C145.261 94.7752 145.234 94.702 145.193 94.6364C145.151 94.5707 145.096 94.514 145.031 94.4697C144.965 94.4254 144.891 94.3945 144.813 94.3789L145.104 94.4349C145.184 94.4497 145.259 94.4803 145.325 94.5247C145.392 94.569 145.448 94.6263 145.49 94.6926C145.532 94.759 145.559 94.8331 145.57 94.9102C145.581 94.9874 145.575 95.0658 145.552 95.1405Z" fill="#2F27CE"/>
<path opacity="0.3" d="M145.552 95.1405L142.119 106.481C142.077 106.613 141.985 106.726 141.861 106.798C141.737 106.869 141.591 106.894 141.449 106.867L141.158 106.811C141.299 106.836 141.444 106.811 141.567 106.74C141.689 106.668 141.78 106.556 141.822 106.425L145.255 95.0789C145.277 95.0049 145.283 94.9275 145.272 94.8513C145.261 94.7752 145.234 94.702 145.193 94.6364C145.151 94.5707 145.096 94.514 145.031 94.4697C144.965 94.4254 144.891 94.3945 144.813 94.3789L145.104 94.4349C145.184 94.4497 145.259 94.4803 145.325 94.5247C145.392 94.569 145.448 94.6263 145.49 94.6926C145.532 94.759 145.559 94.8331 145.57 94.9102C145.581 94.9874 145.575 95.0658 145.552 95.1405Z" fill="black"/>
<path d="M144.835 94.3571L139.836 93.4051C139.694 93.3783 139.547 93.4029 139.424 93.4743C139.3 93.5457 139.208 93.6588 139.166 93.7915L135.733 105.131C135.711 105.205 135.705 105.283 135.716 105.359C135.727 105.435 135.754 105.508 135.796 105.574C135.837 105.64 135.892 105.696 135.957 105.741C136.023 105.785 136.097 105.816 136.175 105.831L141.18 106.789C141.321 106.814 141.466 106.789 141.589 106.718C141.711 106.646 141.802 106.534 141.844 106.403L145.277 95.0571C145.299 94.9831 145.305 94.9057 145.294 94.8295C145.283 94.7534 145.256 94.6802 145.215 94.6146C145.173 94.5489 145.118 94.4922 145.053 94.4479C144.987 94.4036 144.913 94.3727 144.835 94.3571ZM141.477 105.641L136.443 104.661L139.51 94.5251L144.521 95.4827L141.477 105.641Z" fill="#2F27CE"/>
<path d="M144.521 95.5045L141.454 105.64L136.438 104.683L139.51 94.5469L144.521 95.5045Z" fill="#2F27CE"/>
<path opacity="0.7" d="M144.521 95.5045L141.454 105.64L136.438 104.683L139.51 94.5469L144.521 95.5045Z" fill="white"/>
<path d="M136.28 99.3905L137.409 98.2425C137.434 98.2162 137.465 98.1966 137.5 98.1856C137.535 98.1747 137.573 98.1728 137.609 98.1802C137.645 98.1876 137.678 98.204 137.705 98.2277C137.732 98.2514 137.753 98.2816 137.764 98.3153L137.921 98.7521C137.968 98.8882 137.983 99.0326 137.965 99.175C137.947 99.3174 137.896 99.4541 137.817 99.5753L136.105 102.168L134.086 100.874L136.28 99.3905Z" fill="#FF8B7B"/>
<path d="M105.469 113.352C105.556 128.097 106.47 133.635 104.195 133.629C99.9635 133.629 84.5055 134.189 83.6034 134.044C76.9279 133.131 81.0252 118.509 80.9321 116.219C80.8739 114.808 80.7516 113.419 80.5596 112.013C80.4483 111.174 80.2534 110.347 79.9776 109.544C79.4887 108.194 78.6972 107.024 77.3353 106.593C76.1131 106.201 74.7745 106.542 73.4883 106.458C72.2021 106.374 70.7412 105.517 70.8984 104.291C71.0347 103.716 71.3565 103.196 71.8179 102.807C73.692 100.886 75.7988 98.9823 76.538 96.4511C76.8522 95.3927 76.9163 94.2111 77.539 93.2927C80.1114 89.4903 86.269 93.1975 89.3129 94.2839C91.2742 94.9783 93.0493 96.0143 94.999 96.7143C97.0418 97.4535 100.633 97.6271 103.252 97.7279C105.615 97.8175 105.469 113.352 105.469 113.352Z" fill="#263238"/>
<path d="M88.1074 89.082C88.7534 91.5684 88.6079 95.6172 88.6254 98.4172C88.6254 101.016 95.6094 103.177 95.6094 103.177C95.6094 103.177 98.4903 100.836 96.2612 99.0892C94.393 97.622 94.1311 95.914 94.5152 93.8588L88.1074 89.082Z" fill="#FF8B7B"/>
<path opacity="0.2" d="M90.7437 91.041L94.5558 93.841C94.4356 94.4114 94.3616 94.99 94.3346 95.5714C92.9494 95.4482 90.9765 94.0874 90.7495 92.7098C90.6428 92.1585 90.6408 91.5931 90.7437 91.041Z" fill="black"/>
<path d="M87.4741 84.417C87.9688 88.6226 88.0561 91.1034 90.3841 93.1642C93.8761 96.2554 99.2014 94.0546 100.022 89.8042C100.761 85.9682 99.8241 79.7242 95.4416 78.2682C94.4773 77.9409 93.4419 77.8562 92.434 78.0221C91.426 78.188 90.4788 78.5991 89.6823 79.2162C88.8858 79.8333 88.2665 80.6361 87.883 81.5483C87.4996 82.4605 87.3649 83.4518 87.4915 84.4282L87.4741 84.417Z" fill="#FF8B7B"/>
<path d="M100.23 88.5374C100.463 90.1782 100.748 93.079 101.255 94.6974C98.269 94.6974 95.4347 94.8486 92.4316 94.8374C92.0184 94.535 88.3576 91.4774 88.6253 91.1918C89.638 90.1894 90.8777 89.0582 89.702 87.927C89.3412 87.5798 89.5332 86.9582 89.4809 86.4766C90.5634 88.0446 94.7188 89.1758 96.6162 88.8398L100.23 88.5374Z" fill="#263238"/>
<path d="M95.5527 89.3943C94.9183 89.6127 95.8379 90.5143 96.8447 90.5647H98.6431C98.8591 90.5729 99.0734 90.5252 99.2637 90.4267C99.4541 90.3283 99.6136 90.1826 99.7257 90.0047C99.9119 89.6743 99.9061 89.3215 99.6209 89.2207C99.1853 89.096 98.7283 89.056 98.2765 89.1031C97.3603 89.1056 96.4471 89.2033 95.5527 89.3943Z" fill="#FF8B7B"/>
<path d="M98.8568 89.7708C98.3643 89.9147 97.8431 89.943 97.3368 89.8533C96.8305 89.7637 96.3539 89.5588 95.9468 89.2556C95.9364 89.2457 95.9282 89.2339 95.9226 89.221C95.917 89.208 95.9141 89.1941 95.9141 89.18C95.9141 89.1659 95.917 89.152 95.9226 89.139C95.9282 89.1261 95.9364 89.1143 95.9468 89.1044C95.9658 89.0924 95.9881 89.0859 96.0109 89.0859C96.0336 89.0859 96.0559 89.0924 96.0749 89.1044C96.4599 89.385 96.9082 89.5743 97.3834 89.657C97.8587 89.7397 98.3475 89.7135 98.8103 89.5804C98.8248 89.5762 98.8401 89.5749 98.8551 89.5766C98.8702 89.5784 98.8847 89.583 98.8978 89.5904C98.9109 89.5977 98.9223 89.6076 98.9313 89.6194C98.9402 89.6311 98.9466 89.6446 98.95 89.6588C98.9553 89.6855 98.9498 89.7131 98.9346 89.736C98.9195 89.7589 98.8958 89.7753 98.8685 89.782L98.8568 89.7708Z" fill="#263238"/>
<path d="M98.09 87.3784C97.1425 87.3454 96.2029 87.5541 95.3662 87.9832C94.5244 88.4073 93.5678 88.5734 92.625 88.4592C93.4225 89.0336 94.3647 89.3932 95.3546 89.5008C96.3716 89.6215 97.4027 89.4419 98.3111 88.9856C98.8403 89.297 99.4369 89.4868 100.055 89.5402C100.672 89.5936 101.295 89.5092 101.873 89.2936C100.761 89.5512 100.319 88.0952 99.1725 87.5856C98.8211 87.4769 98.4579 87.4074 98.09 87.3784Z" fill="#263238"/>
<path opacity="0.1" d="M98.09 87.3784C97.1425 87.3454 96.2029 87.5541 95.3662 87.9832C94.5244 88.4073 93.5678 88.5734 92.625 88.4592C93.4225 89.0336 94.3647 89.3932 95.3546 89.5008C96.3716 89.6215 97.4027 89.4419 98.3111 88.9856C98.8403 89.297 99.4369 89.4868 100.055 89.5402C100.672 89.5936 101.295 89.5092 101.873 89.2936C100.761 89.5512 100.319 88.0952 99.1725 87.5856C98.8211 87.4769 98.4579 87.4074 98.09 87.3784Z" fill="black"/>
<path d="M91.2277 83.4355C91.5128 83.9053 91.654 84.4431 91.6351 84.9867C91.1715 85.425 90.765 85.9158 90.4245 86.4483C89.9298 87.2323 89.7727 88.2123 89.1383 88.9011C89.1383 88.9011 88.9986 88.9851 89.0219 88.9739C88.5103 88.0642 88.048 87.1296 87.6367 86.1739C88.6485 85.0564 89.8659 84.1281 91.2277 83.4355Z" fill="#263238"/>
<path d="M85.8443 88.5215C86.3298 89.4801 87.1897 90.2149 88.2363 90.5655C89.6215 91.0191 90.4013 89.8431 90.0754 88.5271C89.7902 87.3623 88.7194 85.7271 87.2935 85.8223C86.981 85.8516 86.6811 85.9557 86.4211 86.1252C86.1612 86.2946 85.9495 86.524 85.8054 86.7924C85.6613 87.0608 85.5894 87.3597 85.5961 87.6617C85.6029 87.9638 85.6882 88.2594 85.8443 88.5215Z" fill="#FF8B7B"/>
<path d="M94.9172 85.2732C94.9172 85.6148 95.1384 85.8836 95.377 85.8724C95.6156 85.8612 95.7844 85.5756 95.7611 85.234C95.7378 84.8924 95.54 84.618 95.3072 84.6292C95.0744 84.6404 94.8998 84.926 94.9172 85.2732Z" fill="#263238"/>
<path d="M98.6478 85.0606C98.6478 85.4078 98.8689 85.6766 99.1017 85.6598C99.3345 85.643 99.5091 85.363 99.4917 85.0158C99.4742 84.6686 99.2705 84.411 99.0319 84.4222C98.7933 84.4334 98.6303 84.7302 98.6478 85.0606Z" fill="#263238"/>
<path d="M97.4727 84.8594C98.142 85.789 98.916 86.2202 99.8007 86.937C99.3234 87.6314 98.1478 87.5474 98.1478 87.5474L97.4727 84.8594Z" fill="#FF5652"/>
<path d="M93.62 84.0797C93.6586 84.0859 93.6981 84.0806 93.7335 84.0646C93.7689 84.0486 93.7983 84.0226 93.8179 83.9901C93.9617 83.7776 94.1548 83.6002 94.3821 83.4719C94.6093 83.3436 94.8645 83.268 95.1274 83.2509C95.1825 83.2509 95.2356 83.2306 95.2757 83.1942C95.3158 83.1577 95.3398 83.1078 95.3427 83.0549C95.3443 83.0282 95.3402 83.0015 95.3307 82.9764C95.3212 82.9513 95.3064 82.9284 95.2873 82.909C95.2683 82.8896 95.2453 82.8741 95.2198 82.8636C95.1943 82.853 95.1668 82.8476 95.139 82.8477C94.8055 82.8617 94.4803 82.9523 94.1907 83.1121C93.9011 83.2719 93.6555 83.4962 93.4745 83.7661C93.4444 83.8103 93.4331 83.864 93.4429 83.9161C93.4526 83.9681 93.4827 84.0146 93.5269 84.0461C93.5553 84.063 93.587 84.0744 93.62 84.0797Z" fill="#263238"/>
<path d="M99.8821 83.8837C99.922 83.895 99.9644 83.895 100.004 83.8837C100.029 83.8719 100.052 83.8553 100.07 83.8348C100.088 83.8143 100.102 83.7905 100.11 83.7648C100.118 83.739 100.121 83.7119 100.118 83.6852C100.114 83.6584 100.106 83.6326 100.092 83.6093C99.936 83.3215 99.7101 83.0743 99.4334 82.8889C99.1566 82.7036 98.8373 82.5857 98.5027 82.5453C98.4465 82.5422 98.3913 82.5604 98.3489 82.5959C98.3065 82.6315 98.2802 82.6817 98.2758 82.7357C98.2725 82.7882 98.2908 82.84 98.3267 82.8797C98.3626 82.9195 98.4133 82.9442 98.4678 82.9485C98.7281 82.9883 98.9749 83.0867 99.1883 83.2356C99.4017 83.3844 99.5756 83.5796 99.6958 83.8053C99.719 83.8307 99.7477 83.851 99.7798 83.8645C99.812 83.8781 99.8469 83.8846 99.8821 83.8837Z" fill="#263238"/>
<path opacity="0.4" d="M84.0915 103.199C84.0915 103.199 84.3243 110.77 82.7645 114.276C82.1476 115.676 81.5482 116.387 81.0476 116.729C80.8207 115.329 80.518 113.929 80.1572 112.59C79.9463 111.771 79.6519 110.974 79.2784 110.21L79.1387 108.458L84.0915 103.199Z" fill="black"/>
<path opacity="0.2" d="M85.4713 134.861C85.4189 135.102 85.2676 136.351 85.0697 137.185C84.6028 138.786 83.5454 140.168 82.0957 141.072C80.9317 141.666 81.6068 136.452 81.6068 136.452L81.828 134.654L85.4713 134.861Z" fill="black"/>
<path d="M80.6931 134.861L85.1687 136.821C84.8601 138.439 83.9 139.874 82.4973 140.814L82.1132 141.072C82.1132 141.072 77.7657 137.085 78.3535 135.886L80.6931 134.861Z" fill="#FF8B7B"/>
<path d="M71.7949 121.87C71.7949 128.064 73.9832 130.36 75.8689 135.68C76.0547 136.207 76.4377 136.648 76.9434 136.918C77.449 137.189 78.0411 137.268 78.6043 137.141C80.7403 136.682 82.8355 135.17 81.5143 132.504C81.5143 132.504 80.2223 129.044 79.3551 122.212C79.1812 121.286 79.1812 120.337 79.3551 119.412C80.0011 116.768 82.591 111.521 83.1905 108.004C83.6968 104.997 84.3545 101.24 82.8704 99.9908C75.9737 94.1332 71.7949 110.004 71.7949 121.87Z" fill="#263238"/>
<path opacity="0.4" d="M79.7329 97.1405C79.7778 97.3442 79.8697 97.5356 80.0019 97.7006C80.134 97.8655 80.3031 97.9997 80.4964 98.0933C80.6898 98.1868 80.9026 98.2373 81.119 98.2411C81.3354 98.2448 81.5499 98.2017 81.7466 98.1149C83.1551 97.4541 87.0719 98.7141 88.6201 98.3949C88.6201 98.3949 88.6201 96.3733 88.6201 95.8133C88.6201 95.2533 83.382 93.3213 81.8397 93.1981C79.2207 93.0021 79.2557 95.1413 79.7329 97.1405Z" fill="black"/>
<path d="M99.3058 82.0924C97.6471 81.1964 95.6043 81.5324 93.963 82.3388C92.5399 83.1508 91.2445 84.154 90.116 85.3181C88.8822 86.4717 87.6949 87.5581 86.4785 88.6781C86.3997 88.7526 86.3035 88.8079 86.1979 88.8394C86.0923 88.8708 85.9805 88.8775 85.8716 88.8589C85.7628 88.8402 85.6602 88.7968 85.5724 88.7322C85.4846 88.6677 85.4141 88.5838 85.3669 88.4876C85.2272 88.202 85.0934 87.9276 84.9246 87.6308C84.8716 87.5479 84.8374 87.4552 84.8244 87.3586C84.8113 87.2621 84.8197 87.164 84.8489 87.0708C84.9886 86.6452 85.1399 86.2197 85.268 85.7997C84.7628 84.2922 84.6456 82.6892 84.9264 81.1285C85.2072 79.5678 85.8776 78.096 86.8801 76.8397C88.2362 75.1597 90.8493 75.1596 92.9969 75.5908C94.0717 75.8262 95.0865 76.2667 95.9812 76.8862C96.8759 77.5056 97.6324 78.2915 98.2058 79.1972C98.4331 79.1414 98.6713 79.1408 98.8988 79.1955C99.1264 79.2503 99.3363 79.3586 99.5095 79.5108C99.8868 79.7839 100.169 80.1608 100.318 80.5916C100.416 80.7913 100.467 81.0093 100.467 81.23C100.467 81.4508 100.416 81.6688 100.318 81.8684C100.211 82.0231 100.047 82.1325 99.8584 82.1742C99.6701 82.2158 99.4724 82.1866 99.3058 82.0924Z" fill="#2F27CE"/>
<path d="M96.1691 78.5137C96.4716 78.8384 96.7015 79.2197 96.8442 79.6337C96.0041 79.6452 95.1749 79.8184 94.4056 80.1433C94.2496 79.7352 94.0212 79.3562 93.7305 79.0233C94.5744 78.8329 95.331 78.6985 96.1691 78.5137Z" fill="white"/>
<path d="M85.8609 164.541C82.2234 164.731 78.8769 164.955 75.2278 164.837C74.8669 160.749 75.4198 154.965 76.9098 151.123C79.9187 149.578 83.4398 150.563 86.6641 151.655L85.8609 164.541Z" fill="#2F27CE"/>
<path opacity="0.2" d="M86.6644 151.711L85.4422 152.221L83.7369 163.454L75.1641 163.953L75.2281 164.893L85.8612 164.597L86.6644 151.711Z" fill="black"/>
<path opacity="0.2" d="M76.9106 151.14L76.3926 152.668L79.3782 153.738L84.2787 152.999L86.6649 151.672C85.045 150.952 83.3087 150.505 81.5316 150.35C78.4529 150.02 76.9106 151.14 76.9106 151.14Z" fill="white"/>
</g>
<defs>
<clipPath id="clip0_1199_3568">
<rect width="291" height="280" fill="white" transform="translate(0.5 0.5)"/>
</clipPath>
</defs>
</svg>
