<svg width="292" height="281" viewBox="0 0 294 281" fill="none" xmlns="http://www.w3.org/2000/svg">
<path d="M58.3283 240.642C108.82 269.22 190.675 269.226 241.196 240.642C291.717 212.059 291.682 165.728 241.196 137.15C190.711 108.572 108.849 108.572 58.3577 137.15C7.86617 165.728 7.84265 212.065 58.3283 240.642Z" fill="#F5F5F5"/>
<path d="M235.477 153.753C227.633 157.327 214.897 157.327 207.059 153.753C199.221 150.178 199.209 144.378 207.059 140.827C214.909 137.275 227.639 137.252 235.477 140.827C243.315 144.401 243.327 150.173 235.477 153.753Z" fill="#E0E0E0"/>
<path d="M257.664 185.112L253.707 182.948C253.707 182.948 251.807 172.944 253.224 164.34C255.224 152.246 263.838 148.076 266.966 149.279C270.094 150.481 270.835 154.061 265.202 161.047C261.85 165.172 257.546 173.889 257.664 185.112Z" fill="#2F27CE"/>
<g opacity="0.1">
<path d="M257.664 185.112L253.707 182.948C253.707 182.948 251.807 172.944 253.224 164.34C255.224 152.246 263.838 148.076 266.966 149.279C270.094 150.481 270.835 154.061 265.202 161.047C261.85 165.172 257.546 173.889 257.664 185.112Z" fill="black"/>
</g>
<path d="M256.229 180.307H256.271C256.345 180.297 256.412 180.26 256.457 180.203C256.502 180.146 256.522 180.074 256.512 180.003C254.877 168.679 259.64 156.276 264.991 151.274C265.022 151.25 265.047 151.221 265.065 151.187C265.084 151.154 265.094 151.117 265.097 151.079C265.099 151.041 265.093 151.003 265.079 150.968C265.065 150.933 265.044 150.9 265.016 150.873C264.988 150.846 264.955 150.825 264.918 150.812C264.881 150.798 264.842 150.792 264.802 150.793C264.763 150.795 264.724 150.805 264.688 150.822C264.653 150.839 264.622 150.862 264.597 150.892C259.146 155.978 254.289 168.589 255.953 180.076C255.962 180.14 255.995 180.199 256.046 180.242C256.096 180.284 256.162 180.307 256.229 180.307Z" fill="white"/>
<path d="M268.661 191.181C269.284 191.524 270.572 190.771 271.066 190.456C271.914 189.905 272.598 189.154 273.053 188.276C273.563 187.279 273.738 186.156 273.553 185.061C273.449 184.49 273.306 183.927 273.124 183.375L272.63 181.717C272.426 181.177 272.338 180.604 272.371 180.031C272.524 178.907 273.577 178.098 274.535 177.412C275.593 176.659 276.699 175.659 276.693 174.293C276.616 173.233 276.173 172.227 275.435 171.432C274.753 170.606 273.941 169.876 273.324 168.999C272.836 168.393 272.58 167.645 272.6 166.88C272.669 166.411 272.835 165.96 273.088 165.554C273.667 164.708 274.174 163.819 274.606 162.896C274.952 161.94 274.905 160.754 274.123 160.086C273.773 159.84 273.376 159.665 272.954 159.568C272.532 159.472 272.094 159.456 271.666 159.524C270.854 159.62 270.074 159.882 269.378 160.294C267.109 161.496 265.815 164.065 263.41 164.992C262.447 165.28 261.464 165.507 260.47 165.672C259.978 165.761 259.51 165.947 259.097 166.218C258.684 166.488 258.335 166.839 258.071 167.246C257.189 168.932 258.824 171.011 258.206 172.804C257.653 174.389 256.042 174.99 255.143 176.423C254.773 177.053 254.624 177.78 254.719 178.497C254.796 179.707 255.105 180.894 255.631 181.998C256.218 183.097 256.89 184.153 257.642 185.156C257.706 185.145 268.561 191.125 268.661 191.181Z" fill="#2F27CE"/>
<path d="M262.249 187.905C262.286 187.905 262.323 187.897 262.358 187.882C262.392 187.868 262.423 187.847 262.449 187.82C262.475 187.794 262.495 187.763 262.508 187.73C262.521 187.696 262.527 187.66 262.525 187.624C262.061 176.907 267.341 165.077 271.18 161.638C271.207 161.613 271.227 161.584 271.242 161.551C271.256 161.519 271.263 161.484 271.263 161.449C271.263 161.414 271.256 161.38 271.242 161.347C271.227 161.315 271.207 161.286 271.18 161.261C271.154 161.236 271.123 161.216 271.089 161.202C271.054 161.189 271.018 161.182 270.981 161.182C270.943 161.182 270.907 161.189 270.872 161.202C270.838 161.216 270.807 161.236 270.781 161.261C266.859 164.768 261.473 176.795 261.961 187.675C261.971 187.74 262.006 187.8 262.059 187.843C262.112 187.885 262.18 187.907 262.249 187.905Z" fill="white"/>
<path d="M263.908 175.243C263.935 175.248 263.963 175.248 263.99 175.243C266.647 174.543 269.376 174.123 272.128 173.989C272.202 173.985 272.272 173.953 272.323 173.901C272.373 173.848 272.4 173.779 272.399 173.708C272.398 173.673 272.39 173.637 272.374 173.605C272.359 173.572 272.337 173.543 272.309 173.519C272.282 173.495 272.25 173.476 272.214 173.464C272.179 173.452 272.142 173.447 272.105 173.45C269.304 173.585 266.528 174.012 263.826 174.725C263.79 174.736 263.757 174.753 263.728 174.775C263.699 174.798 263.676 174.825 263.658 174.857C263.641 174.888 263.63 174.922 263.626 174.958C263.623 174.993 263.626 175.029 263.637 175.063C263.656 175.116 263.693 175.163 263.742 175.195C263.79 175.228 263.849 175.244 263.908 175.243Z" fill="white"/>
<path d="M45.631 185.225L49.5882 183.061C49.5882 183.061 51.4875 173.052 50.0704 164.453C48.0712 152.359 39.457 148.183 36.3288 149.386C33.2007 150.588 32.4598 154.174 38.0928 161.16C41.4503 165.285 45.7368 174.001 45.631 185.225Z" fill="#37474F"/>
<path d="M47.0402 180.403C46.9657 180.392 46.8987 180.354 46.8536 180.296C46.8085 180.238 46.789 180.166 46.7991 180.094C48.4396 168.776 43.671 156.367 38.3202 151.37C38.2664 151.32 38.2355 151.252 38.2344 151.18C38.2333 151.109 38.262 151.04 38.3143 150.988C38.3665 150.937 38.438 150.907 38.513 150.906C38.588 150.905 38.6603 150.933 38.7141 150.983C44.1649 156.074 49.0218 168.68 47.3577 180.173C47.3534 180.208 47.3417 180.242 47.3232 180.273C47.3048 180.304 47.28 180.331 47.2503 180.353C47.2207 180.374 47.1868 180.39 47.1507 180.399C47.1145 180.407 47.077 180.409 47.0402 180.403Z" fill="white"/>
<path d="M34.6395 191.288C34.0104 191.63 32.7227 190.883 32.2287 190.563C31.3812 190.013 30.6965 189.264 30.2413 188.388C29.7311 187.391 29.5565 186.268 29.7415 185.173C29.8445 184.602 29.988 184.039 30.1707 183.487L30.6647 181.829C30.8709 181.29 30.959 180.716 30.9234 180.143C30.7705 179.019 29.718 178.215 28.7595 177.53C27.7011 176.771 26.5957 175.771 26.6016 174.405C26.6802 173.347 27.1226 172.343 27.8599 171.55C28.5479 170.718 29.3534 169.988 29.9708 169.117C30.4562 168.509 30.7112 167.762 30.6941 166.998C30.6269 166.529 30.4609 166.078 30.206 165.672C29.627 164.814 29.1197 163.914 28.689 162.98C28.3421 162.024 28.395 160.833 29.1711 160.17C29.5212 159.924 29.9188 159.749 30.3408 159.652C30.7629 159.556 31.2008 159.54 31.629 159.608C32.4414 159.7 33.2224 159.963 33.9163 160.378C36.186 161.58 37.4796 164.149 39.8845 165.076C40.8487 165.361 41.8307 165.588 42.8245 165.756C43.3172 165.843 43.7853 166.029 44.1985 166.3C44.6117 166.571 44.9609 166.922 45.2235 167.33C46.1114 169.016 44.4709 171.095 45.0883 172.882C45.641 174.467 47.2521 175.074 48.1577 176.501C48.5233 177.133 48.6715 177.859 48.581 178.575C48.4886 179.791 48.1659 180.982 47.6285 182.088C47.0397 183.186 46.3676 184.242 45.6175 185.246C45.5881 185.257 34.7336 191.237 34.6395 191.288Z" fill="#455A64"/>
<path d="M41.0655 188.018C40.9901 188.015 40.919 187.984 40.8673 187.932C40.8156 187.879 40.7876 187.809 40.7892 187.737C41.2596 177.02 35.9734 165.19 32.1338 161.75C32.1075 161.725 32.0866 161.695 32.0724 161.663C32.0581 161.63 32.0508 161.595 32.0508 161.559C32.0508 161.524 32.0581 161.489 32.0724 161.456C32.0866 161.423 32.1075 161.393 32.1338 161.368C32.1875 161.319 32.2592 161.291 32.3337 161.291C32.4083 161.291 32.4799 161.319 32.5336 161.368C36.4556 164.875 41.8476 176.902 41.3536 187.782C41.3449 187.849 41.3105 187.91 41.2573 187.953C41.204 187.997 41.1356 188.02 41.0655 188.018Z" fill="white"/>
<path d="M39.3971 175.344H39.3148C36.6547 174.641 33.9216 174.221 31.1651 174.091C31.0907 174.086 31.021 174.055 30.9706 174.002C30.9202 173.95 30.8929 173.881 30.8946 173.81C30.8953 173.774 30.9036 173.739 30.9189 173.706C30.9343 173.674 30.9563 173.645 30.9838 173.621C31.0113 173.596 31.0436 173.578 31.0788 173.566C31.114 173.554 31.1513 173.549 31.1886 173.551C33.9907 173.686 36.7689 174.114 39.4735 174.827C39.5443 174.849 39.6031 174.897 39.6372 174.96C39.6713 175.023 39.678 175.096 39.6558 175.164C39.6375 175.216 39.6028 175.261 39.5564 175.294C39.5101 175.326 39.4544 175.343 39.3971 175.344Z" fill="white"/>
<path d="M229.545 137.809C229.851 134.97 232.638 129.306 236.125 125.922C239.612 122.539 244.745 120.33 248.067 121.797C251.16 123.163 250.372 127.147 246.192 129.429C242.011 131.711 235.802 134.487 233.591 138.904L229.387 144.199L229.545 137.809Z" fill="#37474F"/>
<path d="M228.902 141.675C228.949 141.675 228.995 141.661 229.033 141.635C229.071 141.609 229.099 141.572 229.114 141.529C232.154 132.031 241.215 124.967 246.313 123.714C246.341 123.707 246.367 123.695 246.39 123.679C246.413 123.663 246.433 123.642 246.447 123.619C246.462 123.595 246.472 123.569 246.476 123.542C246.48 123.515 246.479 123.487 246.472 123.461C246.465 123.434 246.453 123.409 246.435 123.388C246.418 123.366 246.397 123.347 246.372 123.334C246.347 123.32 246.32 123.311 246.292 123.308C246.263 123.305 246.235 123.307 246.207 123.315C241.009 124.59 231.783 131.745 228.696 141.405C228.688 141.432 228.686 141.459 228.689 141.486C228.692 141.513 228.7 141.54 228.714 141.564C228.728 141.588 228.746 141.609 228.768 141.626C228.79 141.643 228.816 141.656 228.843 141.664L228.902 141.675Z" fill="white"/>
<path d="M229.738 148.026C230.39 146.48 232.713 144.047 236.253 142.198C240.163 140.158 244.902 139.506 246.166 137.741C247.689 135.617 245.937 133.296 242.139 133.369C238.34 133.442 231.219 137.674 229.367 144.929L229.738 148.026Z" fill="#455A64"/>
<path d="M229.197 146.283C229.239 146.284 229.281 146.272 229.316 146.25C229.352 146.228 229.38 146.197 229.397 146.16C233.407 138.168 240.351 135.915 243.468 135.836C243.525 135.833 243.579 135.809 243.618 135.769C243.657 135.73 243.679 135.677 243.679 135.622C243.676 135.595 243.668 135.568 243.653 135.543C243.639 135.519 243.62 135.498 243.597 135.481C243.574 135.464 243.547 135.452 243.519 135.445C243.49 135.439 243.461 135.438 243.432 135.442C239.992 135.527 233.078 137.842 228.979 146.002C228.966 146.027 228.959 146.055 228.957 146.082C228.956 146.11 228.96 146.138 228.97 146.164C228.98 146.191 228.995 146.215 229.015 146.235C229.035 146.256 229.059 146.272 229.085 146.283H229.197Z" fill="white"/>
<path d="M47.4993 204.483L111.674 239.889C112.463 240.272 113.335 240.471 114.22 240.471C115.104 240.471 115.977 240.272 116.766 239.889L238.264 172.831C239.669 172.056 239.669 170.797 238.264 170.021L174.09 134.615C173.302 134.23 172.429 134.029 171.544 134.029C170.659 134.029 169.786 134.23 168.998 134.615L47.4993 201.673C46.094 202.449 46.094 203.708 47.4993 204.483Z" fill="#37474F"/>
<path d="M83.2219 220.197C84.3155 220.727 85.5241 221.002 86.7499 221.002C87.9758 221.002 89.1844 220.727 90.2779 220.197C92.2301 219.118 92.2301 217.387 90.2779 216.291C89.1835 215.765 87.9753 215.49 86.7499 215.49C85.5246 215.49 84.3163 215.765 83.2219 216.291C81.2698 217.37 81.2698 219.118 83.2219 220.197Z" fill="#263238"/>
<path d="M111.673 239.889L47.4992 204.483C46.2408 203.786 46.1115 202.707 47.1052 201.932C46.4776 202.406 45.9615 203.002 45.5907 203.68C45.2199 204.357 45.0027 205.102 44.9531 205.866V208.153C45.0014 208.997 45.2571 209.819 45.6994 210.551C46.1417 211.283 46.7583 211.906 47.4992 212.368L111.673 247.774C112.458 248.166 113.335 248.359 114.22 248.336V240.474C113.333 240.49 112.456 240.289 111.673 239.889Z" fill="#455A64"/>
<path d="M238.263 180.738C239.004 180.276 239.621 179.654 240.063 178.922C240.505 178.189 240.761 177.368 240.809 176.523V174.219C240.76 173.456 240.544 172.71 240.173 172.033C239.802 171.355 239.285 170.759 238.657 170.285C239.651 171.061 239.522 172.14 238.263 172.831L116.765 239.889C115.98 240.28 115.104 240.473 114.219 240.451V248.403C115.104 248.426 115.98 248.232 116.765 247.841L238.263 180.738Z" fill="#263238"/>
<path d="M124.656 231.234L65.5916 198.638C64.7507 198.177 64.7507 197.418 65.5916 196.952L162.806 143.309C163.278 143.079 163.801 142.959 164.331 142.959C164.862 142.959 165.385 143.079 165.857 143.309L224.945 175.905C225.786 176.371 225.786 177.124 224.945 177.591L127.69 231.284C127.215 231.503 126.694 231.612 126.167 231.603C125.64 231.595 125.123 231.468 124.656 231.234Z" fill="#FAFAFA"/>
<path d="M119.843 223.31L75.1546 198.632C74.3079 198.166 74.3079 197.413 75.1546 196.946L76.8715 195.996C77.3452 195.766 77.869 195.646 78.4003 195.646C78.9316 195.646 79.4554 195.766 79.9291 195.996L124.617 220.674C125.464 221.135 125.464 221.893 124.617 222.36L122.894 223.31C122.421 223.539 121.899 223.658 121.368 223.658C120.838 223.658 120.315 223.539 119.843 223.31Z" fill="#E6E6E6"/>
<path d="M124.521 225.046L127.772 223.254C127.973 223.152 128.206 223.127 128.425 223.185C128.643 223.242 128.831 223.377 128.948 223.563L130.454 226.058C130.695 226.463 130.507 226.716 130.024 226.62L124.656 225.631C124.144 225.541 124.097 225.282 124.521 225.046Z" fill="#2F27CE"/>
<path d="M160.779 149.683C161.89 149.145 163.117 148.865 164.362 148.865C165.608 148.865 166.835 149.145 167.946 149.683C169.928 150.773 169.922 152.544 167.946 153.617C166.835 154.155 165.608 154.435 164.362 154.435C163.117 154.435 161.89 154.155 160.779 153.617C158.803 152.549 158.803 150.779 160.779 149.683Z" fill="#E6E6E6"/>
<path d="M205.831 173.225C206.672 173.692 206.672 174.445 205.831 174.911L196.941 179.84C196.467 180.07 195.943 180.19 195.412 180.19C194.881 180.19 194.357 180.07 193.883 179.84L165.888 164.396C165.048 163.93 165.048 163.177 165.888 162.71L173.915 158.282L171.527 154.348L205.831 173.225Z" fill="#E6E6E6"/>
<path d="M176.6 160.327L201.349 173.984C201.767 174.214 201.843 174.546 201.514 174.737C201.295 174.823 201.059 174.859 200.823 174.842C200.587 174.826 200.359 174.757 200.156 174.641L175.407 160.985C174.983 160.754 174.913 160.423 175.242 160.237C175.46 160.15 175.696 160.113 175.932 160.128C176.168 160.144 176.397 160.212 176.6 160.327Z" fill="#FAFAFA"/>
<path d="M174.205 161.653L198.948 175.31C199.372 175.541 199.448 175.872 199.119 176.063C198.899 176.149 198.662 176.185 198.425 176.169C198.188 176.152 197.959 176.083 197.755 175.968L173.012 162.311C172.588 162.081 172.512 161.749 172.841 161.564C173.06 161.476 173.298 161.439 173.534 161.455C173.771 161.47 174.001 161.538 174.205 161.653Z" fill="#FAFAFA"/>
<path d="M171.815 162.98L196.558 176.636C196.981 176.867 197.058 177.198 196.728 177.389C196.509 177.475 196.271 177.511 196.035 177.495C195.798 177.478 195.568 177.409 195.364 177.294L170.621 163.637C170.198 163.407 170.121 163.075 170.451 162.89C170.67 162.803 170.907 162.765 171.144 162.781C171.381 162.796 171.61 162.865 171.815 162.98Z" fill="#FAFAFA"/>
<path d="M156.015 202.421C157.126 201.884 158.354 201.604 159.599 201.604C160.844 201.604 162.072 201.884 163.183 202.421C165.159 203.512 165.159 205.282 163.183 206.355C162.073 206.896 160.845 207.178 159.599 207.178C158.354 207.178 157.125 206.896 156.015 206.355C154.057 205.282 154.057 203.512 156.015 202.421Z" fill="#E6E6E6"/>
<path d="M147.653 199.127L139.621 203.567C139.148 203.797 138.625 203.917 138.095 203.917C137.565 203.917 137.042 203.797 136.569 203.567L108.557 188.112C107.71 187.646 107.71 186.893 108.557 186.426L117.453 181.526C117.926 181.296 118.449 181.176 118.979 181.176C119.51 181.176 120.032 181.296 120.505 181.526L154.821 200.459L147.653 199.127Z" fill="#E6E6E6"/>
<path d="M119.17 184.054L143.913 197.71C144.337 197.941 144.413 198.272 144.084 198.458C143.865 198.545 143.627 198.583 143.391 198.567C143.154 198.551 142.924 198.483 142.72 198.368L117.977 184.711C117.553 184.481 117.477 184.149 117.806 183.964C118.025 183.877 118.263 183.839 118.499 183.855C118.736 183.871 118.966 183.939 119.17 184.054Z" fill="#FAFAFA"/>
<path d="M116.77 185.38L141.519 199.037C141.943 199.267 142.013 199.599 141.684 199.784C141.466 199.871 141.229 199.909 140.994 199.893C140.758 199.878 140.529 199.809 140.326 199.694L115.577 186.021C115.159 185.79 115.083 185.459 115.412 185.273C115.631 185.189 115.869 185.154 116.104 185.173C116.34 185.191 116.568 185.262 116.77 185.38Z" fill="#FAFAFA"/>
<path d="M114.378 186.708L139.126 200.365C139.544 200.595 139.62 200.927 139.291 201.112C139.073 201.199 138.837 201.237 138.601 201.221C138.365 201.205 138.136 201.137 137.933 201.022L113.184 187.366C112.761 187.135 112.69 186.804 113.019 186.618C113.237 186.531 113.474 186.494 113.71 186.509C113.945 186.525 114.174 186.593 114.378 186.708Z" fill="#FAFAFA"/>
<path d="M127.337 168.138C128.447 167.598 129.675 167.316 130.921 167.316C132.167 167.316 133.395 167.598 134.505 168.138C136.487 169.229 136.487 170.999 134.505 172.072C133.394 172.61 132.166 172.89 130.921 172.89C129.676 172.89 128.448 172.61 127.337 172.072C125.362 170.999 125.362 169.229 127.337 168.138Z" fill="#E6E6E6"/>
<path d="M165.23 187.707C166.07 188.173 166.07 188.926 165.23 189.393L158.685 192.978C158.211 193.208 157.688 193.328 157.156 193.328C156.625 193.328 156.101 193.208 155.628 192.978L134.795 181.525C133.954 181.058 133.954 180.305 134.795 179.839L140.481 176.731L138.087 172.797L165.23 187.707Z" fill="#E6E6E6"/>
<path d="M144.061 178.002L162.001 187.898C162.424 188.134 162.501 188.46 162.171 188.651C161.952 188.737 161.715 188.773 161.478 188.758C161.242 188.742 161.012 188.675 160.807 188.561L142.844 178.659C142.42 178.423 142.344 178.097 142.673 177.906C142.896 177.816 143.138 177.778 143.379 177.795C143.62 177.811 143.854 177.882 144.061 178.002Z" fill="#FAFAFA"/>
<path d="M141.637 179.328L159.583 189.225C160.007 189.461 160.083 189.787 159.754 189.978C159.534 190.063 159.297 190.1 159.061 190.084C158.824 190.069 158.595 190.001 158.39 189.888L140.444 179.985C140.026 179.749 139.95 179.423 140.279 179.232C140.498 179.146 140.734 179.11 140.97 179.127C141.206 179.144 141.434 179.212 141.637 179.328Z" fill="#FAFAFA"/>
<path d="M139.245 180.654L157.191 190.551C157.614 190.787 157.684 191.113 157.355 191.304C157.137 191.39 156.901 191.426 156.665 191.41C156.43 191.395 156.201 191.328 155.997 191.214L138.051 181.312C137.628 181.076 137.557 180.75 137.886 180.559C138.105 180.473 138.342 180.437 138.577 180.453C138.813 180.47 139.042 180.539 139.245 180.654Z" fill="#FAFAFA"/>
<path d="M187.068 185.285C188.179 184.747 189.407 184.467 190.652 184.467C191.897 184.467 193.125 184.747 194.236 185.285C196.212 186.381 196.212 188.151 194.236 189.219C193.125 189.756 191.897 190.037 190.652 190.037C189.407 190.037 188.179 189.756 187.068 189.219C185.087 188.151 185.087 186.381 187.068 185.285Z" fill="#E6E6E6"/>
<path d="M178.705 181.992L175.459 183.774C174.985 184.004 174.461 184.124 173.93 184.124C173.399 184.124 172.875 184.004 172.401 183.774L158.76 176.243C157.919 175.776 157.919 175.023 158.76 174.557L162.876 172.309C163.349 172.079 163.873 171.959 164.404 171.959C164.936 171.959 165.459 172.079 165.933 172.309L185.925 183.33L178.705 181.992Z" fill="#E6E6E6"/>
<path d="M164.928 173.657L176.9 180.266C177.323 180.497 177.4 180.828 177.071 181.014C176.851 181.101 176.614 181.138 176.377 181.123C176.141 181.107 175.911 181.039 175.706 180.924L163.735 174.315C163.311 174.084 163.241 173.753 163.57 173.567C163.788 173.48 164.025 173.443 164.26 173.459C164.496 173.474 164.725 173.542 164.928 173.657Z" fill="#FAFAFA"/>
<path d="M162.534 175.007L174.505 181.616C174.929 181.847 174.999 182.178 174.67 182.364C174.452 182.451 174.215 182.488 173.98 182.472C173.744 182.457 173.515 182.389 173.312 182.274L161.34 175.665C160.917 175.434 160.84 175.103 161.169 174.917C161.388 174.83 161.626 174.793 161.863 174.808C162.099 174.824 162.329 174.892 162.534 175.007Z" fill="#FAFAFA"/>
<path d="M91.5174 187.904C92.6273 187.366 93.8541 187.086 95.0983 187.086C96.3426 187.086 97.5694 187.366 98.6793 187.904C100.661 189 100.661 190.77 98.6793 191.838C97.5694 192.376 96.3426 192.656 95.0983 192.656C93.8541 192.656 92.6273 192.376 91.5174 191.838C89.5359 190.77 89.5359 189 91.5174 187.904Z" fill="#E6E6E6"/>
<path d="M119.801 202.224C120.641 202.691 120.641 203.444 119.801 203.91L115.685 206.186C115.211 206.416 114.687 206.536 114.156 206.536C113.625 206.536 113.101 206.416 112.627 206.186L101.396 199.959C100.555 199.493 100.555 198.74 101.396 198.273L104.63 196.475L102.243 192.541L119.801 202.224Z" fill="#E6E6E6"/>
<path d="M108.088 197.638L117.249 202.696C117.673 202.926 117.749 203.258 117.42 203.443C117.201 203.531 116.963 203.568 116.727 203.552C116.49 203.537 116.26 203.469 116.056 203.353L106.895 198.295C106.471 198.065 106.395 197.733 106.724 197.548C106.943 197.461 107.18 197.423 107.417 197.439C107.654 197.455 107.884 197.523 108.088 197.638Z" fill="#FAFAFA"/>
<path d="M105.694 198.948L114.855 204.006C115.279 204.237 115.355 204.568 115.02 204.754C114.802 204.841 114.565 204.878 114.33 204.863C114.094 204.847 113.865 204.779 113.662 204.664L104.495 199.606C104.077 199.376 104.001 199.044 104.33 198.858C104.549 198.771 104.786 198.734 105.023 198.75C105.26 198.765 105.49 198.833 105.694 198.948Z" fill="#FAFAFA"/>
<path d="M201.251 155.19C201.492 155.306 201.759 155.367 202.03 155.367C202.3 155.367 202.567 155.306 202.809 155.19C202.905 155.162 202.99 155.105 203.05 155.027C203.109 154.95 203.142 154.856 203.142 154.76C203.142 154.664 203.109 154.57 203.05 154.492C202.99 154.415 202.905 154.358 202.809 154.33C202.568 154.211 202.301 154.148 202.03 154.148C201.759 154.148 201.492 154.211 201.251 154.33C201.154 154.358 201.07 154.415 201.01 154.492C200.95 154.57 200.918 154.664 200.918 154.76C200.918 154.856 200.95 154.95 201.01 155.027C201.07 155.105 201.154 155.162 201.251 155.19Z" fill="#263238"/>
<path d="M203.744 161.956C204.228 162.189 204.763 162.31 205.305 162.31C205.847 162.31 206.381 162.189 206.866 161.956C207.724 161.479 207.724 160.709 206.866 160.231C206.381 159.998 205.847 159.877 205.305 159.877C204.763 159.877 204.228 159.998 203.744 160.231C202.862 160.731 202.862 161.479 203.744 161.956Z" fill="#263238"/>
<path d="M201.545 158.955C202.133 158.64 202.086 158.106 201.475 157.769L191.208 152.104C190.878 151.937 190.511 151.847 190.137 151.84C189.763 151.833 189.393 151.91 189.056 152.065C188.468 152.385 188.515 152.914 189.127 153.251L199.393 158.921C199.723 159.09 200.091 159.181 200.465 159.187C200.839 159.193 201.21 159.113 201.545 158.955Z" fill="#263238"/>
<path d="M75.5375 160.343L72.2799 158.545C72.2152 158.52 72.1614 158.474 72.1271 158.416L71.5391 157.415L73.4736 156.348L73.4148 156.511L75.5375 160.343Z" fill="#2F27CE"/>
<path opacity="0.2" d="M75.5375 160.343L72.2799 158.545C72.2152 158.52 72.1614 158.474 72.1271 158.416L71.5391 157.415L73.4736 156.348L73.4148 156.511L75.5375 160.343Z" fill="black"/>
<path d="M73.1641 156.5L75.422 160.231C75.4545 160.281 75.501 160.322 75.5562 160.348C75.6114 160.373 75.6731 160.384 75.7343 160.378C75.7955 160.372 75.8538 160.35 75.9025 160.314C75.9512 160.279 75.9885 160.23 76.01 160.175L78.3973 153.605L73.1641 156.5Z" fill="#2F27CE"/>
<path d="M120.913 109.399C120.889 108.877 120.737 108.367 120.468 107.912C120.199 107.457 119.822 107.069 119.367 106.78L118.085 106.071C117.597 105.833 117.057 105.709 116.509 105.709C115.961 105.709 115.421 105.833 114.933 106.071L63.6422 134.357C63.1832 134.642 62.8012 135.027 62.5274 135.48C62.2535 135.933 62.0956 136.442 62.0664 136.965V156.011C62.0965 156.533 62.2548 157.041 62.5286 157.494C62.8024 157.947 63.1839 158.333 63.6422 158.618L64.93 159.327C65.4176 159.562 65.9564 159.685 66.5029 159.685C67.0493 159.685 67.5881 159.562 68.0758 159.327L119.485 130.946C120.902 130.17 120.913 129.4 120.913 128.439V109.399Z" fill="#2F27CE"/>
<path opacity="0.2" d="M62.0352 156.022C62.0652 156.544 62.2236 157.053 62.4973 157.506C62.7711 157.959 63.1526 158.344 63.611 158.63L64.8987 159.338C65.3428 159.551 65.829 159.673 66.3255 159.694C66.822 159.715 67.3176 159.636 67.7799 159.461C67.039 159.731 66.4746 159.327 66.4746 158.467V139.421C66.4941 138.897 66.6519 138.387 66.9332 137.937L62.4997 135.492C62.2134 135.94 62.0534 136.451 62.0352 136.976V156.022Z" fill="black"/>
<path opacity="0.4" d="M120.857 108.972C120.675 108.331 120.063 108.129 119.334 108.528L68.0429 136.813C67.5784 137.09 67.1974 137.477 66.9374 137.937L62.5039 135.492C62.7677 135.033 63.1503 134.646 63.6152 134.368L114.895 106.083C115.385 105.849 115.925 105.727 116.473 105.727C117.022 105.727 117.562 105.849 118.052 106.083L119.364 106.78C119.755 107.029 120.09 107.352 120.346 107.729C120.603 108.106 120.777 108.529 120.857 108.972Z" fill="white"/>
<path d="M70.7064 139.752L115.835 114.799C116.365 114.507 116.794 114.642 116.794 115.097C116.754 115.377 116.647 115.645 116.481 115.879C116.315 116.113 116.094 116.307 115.835 116.446L70.7241 141.399C70.1949 141.691 69.7656 141.562 69.7656 141.106C69.8032 140.827 69.9077 140.559 70.0708 140.324C70.2339 140.089 70.4514 139.894 70.7064 139.752Z" fill="white"/>
<path d="M70.7084 148.249L108.088 127.618C108.611 127.325 109.04 127.46 109.04 127.91C109.001 128.19 108.894 128.459 108.729 128.693C108.564 128.928 108.345 129.124 108.088 129.264L70.7084 149.895C70.1792 150.188 69.75 150.053 69.75 149.598C69.7886 149.317 69.8954 149.049 70.0619 148.814C70.2283 148.58 70.4497 148.387 70.7084 148.249Z" fill="white"/>
<path d="M70.7084 152.386L114.708 128.063C115.232 127.771 115.661 127.905 115.661 128.361C115.622 128.64 115.515 128.908 115.35 129.142C115.185 129.376 114.965 129.57 114.708 129.709L70.7084 154.033C70.1792 154.319 69.75 154.19 69.75 153.735C69.7886 153.454 69.8954 153.186 70.0619 152.952C70.2283 152.718 70.4497 152.524 70.7084 152.386Z" fill="white"/>
<path d="M70.7084 143.905L114.708 119.582C115.232 119.295 115.661 119.424 115.661 119.88C115.622 120.16 115.515 120.428 115.35 120.663C115.185 120.898 114.965 121.093 114.708 121.234L70.7084 145.557C70.1792 145.85 69.75 145.715 69.75 145.26C69.7895 144.978 69.8967 144.71 70.0629 144.475C70.2292 144.24 70.4501 144.045 70.7084 143.905Z" fill="white"/>
<path d="M75.5375 66.5407L72.2799 64.7423C72.2152 64.7169 72.1614 64.6713 72.1271 64.6131L71.5391 63.6127L73.4736 62.5449L73.4148 62.7079L75.5375 66.5407Z" fill="#2F27CE"/>
<path opacity="0.2" d="M75.5375 66.5407L72.2799 64.7423C72.2152 64.7169 72.1614 64.6713 72.1271 64.6131L71.5391 63.6127L73.4736 62.5449L73.4148 62.7079L75.5375 66.5407Z" fill="black"/>
<path d="M73.1641 62.6948L75.422 66.4265C75.4558 66.4746 75.5026 66.5131 75.5575 66.5378C75.6124 66.5625 75.6732 66.5725 75.7336 66.5667C75.7939 66.5609 75.8515 66.5396 75.9002 66.505C75.9489 66.4705 75.9868 66.4239 76.01 66.3703L78.3973 59.7949L73.1641 62.6948Z" fill="#2F27CE"/>
<path d="M115.602 23.3502C115.573 22.8276 115.415 22.319 115.141 21.8658C114.867 21.4127 114.485 21.0278 114.026 20.7425L112.744 20.0344C112.256 19.7961 111.716 19.6719 111.168 19.6719C110.621 19.6719 110.08 19.7961 109.593 20.0344L63.611 45.3974C63.152 45.6827 62.77 46.0676 62.4961 46.5208C62.2223 46.9739 62.0643 47.4825 62.0352 48.0051V62.2125C62.0643 62.7351 62.2223 63.2437 62.4961 63.6968C62.77 64.15 63.152 64.5349 63.611 64.8202L64.8987 65.5283C65.3856 65.7665 65.9247 65.8907 66.4716 65.8907C67.0186 65.8907 67.5577 65.7665 68.0445 65.5283L114.173 40.0641C115.59 39.2885 115.602 38.5186 115.602 37.5575V23.3502Z" fill="#2F27CE"/>
<path opacity="0.2" d="M62.0352 62.2125C62.0643 62.7351 62.2223 63.2437 62.4961 63.6969C62.77 64.15 63.152 64.5349 63.611 64.8202L64.8987 65.5283C65.3423 65.7427 65.8283 65.865 66.3249 65.8872C66.8214 65.9095 67.3172 65.8313 67.7799 65.6576C67.039 65.9217 66.4746 65.5171 66.4746 64.6628V50.4499C66.4941 49.9263 66.6519 49.4159 66.9332 48.9662L62.4997 46.5215C62.2142 46.9697 62.0542 47.4807 62.0352 48.0052V62.2125Z" fill="black"/>
<path opacity="0.4" d="M115.547 22.9229C115.365 22.2822 114.754 22.0799 114.024 22.4789L68.0429 47.8476C67.577 48.1224 67.1956 48.5102 66.9374 48.9716L62.5039 46.5269C62.7659 46.0663 63.1489 45.6789 63.6152 45.4029L109.585 20.0342C110.075 19.7998 110.616 19.6777 111.164 19.6777C111.712 19.6777 112.252 19.7998 112.743 20.0342L114.024 20.7423C114.42 20.9883 114.758 21.3084 115.02 21.6832C115.282 22.058 115.461 22.4798 115.547 22.9229Z" fill="white"/>
<path d="M70.7084 54.4393L102.772 36.7307C103.301 36.4385 103.731 36.5734 103.731 37.0286C103.69 37.3087 103.583 37.5762 103.416 37.8101C103.25 38.0441 103.03 38.2382 102.772 38.3774L70.7084 56.086C70.1792 56.3782 69.75 56.2434 69.75 55.7938C69.7895 55.5126 69.8967 55.244 70.0629 55.009C70.2292 54.7741 70.4501 54.5791 70.7084 54.4393Z" fill="white"/>
<path d="M70.7085 58.577L109.37 37.176C109.899 36.8838 110.328 37.0187 110.328 37.4739C110.288 37.7543 110.181 38.0221 110.015 38.2562C109.849 38.4902 109.628 38.6842 109.37 38.8227L70.685 60.2236C70.1558 60.5159 69.7266 60.381 69.7266 59.9258C69.7686 59.6433 69.8794 59.3741 70.0499 59.1399C70.2204 58.9056 70.446 58.7129 70.7085 58.577Z" fill="white"/>
<path d="M70.7084 50.1021L109.369 28.7011C109.899 28.4089 110.328 28.5381 110.328 28.9934C110.288 29.2745 110.181 29.5431 110.015 29.7781C109.849 30.013 109.628 30.208 109.369 30.3478L70.7084 51.7487C70.1792 52.041 69.75 51.9061 69.75 51.4509C69.7895 51.1705 69.8967 50.9027 70.063 50.6686C70.2293 50.4345 70.4503 50.2406 70.7084 50.1021Z" fill="white"/>
<path d="M152.662 47.1286L149.405 45.3302C149.34 45.3048 149.286 45.2592 149.252 45.201L148.664 44.2006L150.599 43.1328L150.528 43.2733L152.662 47.1286Z" fill="#263238"/>
<path d="M150.293 43.273L152.551 47.0046C152.585 47.0528 152.632 47.0912 152.686 47.1159C152.741 47.1406 152.802 47.1506 152.862 47.1448C152.923 47.1391 152.98 47.1177 153.029 47.0832C153.078 47.0486 153.116 47.002 153.139 46.9484L155.526 40.373L150.293 43.273Z" fill="#37474F"/>
<path d="M160.932 23.3732C160.897 22.855 160.737 22.3517 160.462 21.9037C160.187 21.4557 159.806 21.0755 159.35 20.7937L158.068 20.0855C157.579 19.852 157.039 19.7305 156.492 19.7305C155.945 19.7305 155.406 19.852 154.917 20.0855L111.228 44.1167C110.769 44.4019 110.387 44.7868 110.113 45.24C109.839 45.6932 109.682 46.2018 109.652 46.7243V59.0883C109.682 59.6109 109.839 60.1195 110.113 60.5727C110.387 61.0258 110.769 61.4108 111.228 61.696L112.51 62.4041C112.998 62.6424 113.538 62.7666 114.086 62.7666C114.634 62.7666 115.174 62.6424 115.662 62.4041L159.503 38.2381C160.92 37.4682 160.932 36.6926 160.932 35.7316V23.3732Z" fill="#37474F"/>
<path d="M109.652 59.0706C109.682 59.5932 109.839 60.1018 110.113 60.5549C110.387 61.0081 110.769 61.393 111.228 61.6783L112.51 62.3864C112.954 62.6007 113.44 62.723 113.936 62.7453C114.433 62.7676 114.929 62.6893 115.391 62.5156C114.65 62.7798 114.086 62.3751 114.086 61.5209V49.1569C114.105 48.6324 114.265 48.1215 114.55 47.6732L110.117 45.2285C109.831 45.6768 109.671 46.1877 109.652 46.7122V59.0706Z" fill="#263238"/>
<path d="M160.877 22.9463C160.695 22.3056 160.083 22.1033 159.354 22.5023L115.66 46.5672C115.193 46.8418 114.809 47.2295 114.549 47.6912L110.121 45.2465C110.381 44.7863 110.762 44.3989 111.227 44.1225L154.915 20.0576C155.405 19.8232 155.946 19.7012 156.494 19.7012C157.042 19.7012 157.582 19.8232 158.072 20.0576L159.348 20.7939C159.742 21.0354 160.081 21.3506 160.343 21.7205C160.606 22.0905 160.788 22.5075 160.877 22.9463Z" fill="#455A64"/>
<path d="M118.32 50.0683L148.102 33.6579C148.631 33.3713 149.06 33.5006 149.06 33.9558C149.022 34.2365 148.915 34.5046 148.749 34.7388C148.582 34.973 148.361 35.1668 148.102 35.3046L118.32 51.7037C117.796 51.9904 117.367 51.8611 117.367 51.4059C117.407 51.1278 117.514 50.8624 117.679 50.6304C117.845 50.3984 118.064 50.206 118.32 50.0683Z" fill="#2F27CE"/>
<path d="M118.32 54.1989L154.729 34.1074C155.252 33.8151 155.681 33.9444 155.681 34.3996C155.642 34.6801 155.536 34.9482 155.37 35.1831C155.205 35.4179 154.986 35.6133 154.729 35.754L118.32 55.8512C117.796 56.1378 117.367 56.0085 117.367 55.5533C117.407 55.2728 117.513 55.0047 117.678 54.7698C117.843 54.535 118.063 54.3396 118.32 54.1989Z" fill="#2F27CE"/>
<path d="M75.5375 111.568L72.2799 109.77C72.2152 109.744 72.1614 109.699 72.1271 109.64L71.5391 108.64L73.4736 107.572L73.4148 107.735L75.5375 111.568Z" fill="#2F27CE"/>
<path opacity="0.2" d="M75.5375 111.568L72.2799 109.77C72.2152 109.744 72.1614 109.699 72.1271 109.64L71.5391 108.64L73.4736 107.572L73.4148 107.735L75.5375 111.568Z" fill="black"/>
<path d="M73.1641 107.722L75.422 111.454C75.4553 111.502 75.5017 111.541 75.5563 111.566C75.6108 111.591 75.6715 111.602 75.7318 111.597C75.7921 111.592 75.8498 111.571 75.8988 111.537C75.9478 111.503 75.9862 111.457 76.01 111.404L78.3973 104.828L73.1641 107.722Z" fill="#2F27CE"/>
<path d="M97.5229 77.5888C97.4928 77.0665 97.3345 76.5582 97.0607 76.1052C96.7869 75.6522 96.4054 75.2671 95.947 74.9812L94.6711 74.273C94.1817 74.0395 93.6422 73.918 93.0953 73.918C92.5483 73.918 92.0088 74.0395 91.5194 74.273L63.6188 89.655C63.1604 89.9409 62.7789 90.326 62.5052 90.779C62.2314 91.232 62.0731 91.7403 62.043 92.2627V107.246C62.0731 107.768 62.2314 108.276 62.5052 108.729C62.7789 109.182 63.1604 109.567 63.6188 109.853L64.9065 110.561C65.3942 110.797 65.933 110.92 66.4794 110.92C67.0259 110.92 67.5647 110.797 68.0523 110.561L96.0999 95.0727C97.517 94.3027 97.5288 93.5272 97.5288 92.5718L97.5229 77.5888Z" fill="#2F27CE"/>
<path opacity="0.2" d="M62.0352 107.246C62.0652 107.768 62.2236 108.277 62.4973 108.73C62.7711 109.183 63.1526 109.568 63.611 109.854L64.8987 110.562C65.3428 110.775 65.829 110.896 66.3255 110.918C66.822 110.939 67.3176 110.86 67.7799 110.685C67.039 110.955 66.4746 110.55 66.4746 109.691V94.7133C66.4934 94.1896 66.6512 93.679 66.9332 93.2296L62.4997 90.7793C62.2142 91.2276 62.0542 91.7385 62.0352 92.263V107.246Z" fill="black"/>
<path opacity="0.4" d="M97.4664 77.1617C97.2841 76.521 96.6726 76.3187 95.9493 76.7177L68.0429 92.1053C67.577 92.3801 67.1956 92.7679 66.9374 93.2293L62.5039 90.7846C62.7659 90.324 63.1489 89.9367 63.6152 89.6606L91.5099 74.273C91.9993 74.0395 92.5388 73.918 93.0858 73.918C93.6328 73.918 94.1722 74.0395 94.6616 74.273L95.9493 74.9868C96.3434 75.2319 96.6812 75.5511 96.942 75.9251C97.2028 76.299 97.3812 76.7198 97.4664 77.1617Z" fill="white"/>
<path d="M70.7085 99.4731L84.6735 91.7399C85.1968 91.4533 85.6261 91.5826 85.6261 92.0378C85.5867 92.3183 85.4804 92.5864 85.3152 92.8213C85.15 93.0561 84.9304 93.2515 84.6735 93.3922L70.685 101.12C70.1558 101.412 69.7266 101.277 69.7266 100.822C69.7677 100.539 69.8781 100.27 70.0487 100.035C70.2193 99.8008 70.4454 99.6082 70.7085 99.4731Z" fill="white"/>
<path d="M70.7084 103.609L91.3178 92.1663C91.847 91.874 92.2704 92.0089 92.2704 92.4641C92.2324 92.7443 92.1265 93.0121 91.9611 93.2463C91.7957 93.4804 91.5755 93.6744 91.3178 93.8129L70.7084 105.233C70.1792 105.519 69.75 105.39 69.75 104.935C69.7921 104.658 69.9005 104.395 70.0667 104.164C70.233 103.934 70.4526 103.744 70.7084 103.609Z" fill="white"/>
<path d="M70.7084 95.1297L91.3178 83.738C91.847 83.4514 92.2704 83.5806 92.2704 84.0359C92.2324 84.3167 92.1265 84.5853 91.9612 84.8204C91.7959 85.0555 91.5756 85.2506 91.3178 85.3903L70.7084 96.7764C70.1792 97.0686 69.75 96.9337 69.75 96.4841C69.7895 96.203 69.8967 95.9344 70.0629 95.6994C70.2292 95.4645 70.4501 95.2695 70.7084 95.1297Z" fill="white"/>
<path d="M155.82 127.685L154.42 125.167L155.549 122.059V120.154L152.098 122.059V123.965L153.579 126.415C153.602 126.454 153.637 126.486 153.679 126.505L155.82 127.685Z" fill="#2F27CE"/>
<path d="M155.822 127.674L153.699 126.505C153.658 126.487 153.623 126.458 153.599 126.421L153.199 125.758L154.281 125.162L155.763 127.612C155.779 127.636 155.799 127.656 155.822 127.674Z" fill="#E0E0E0"/>
<path d="M161.262 110.521C161.238 110.182 161.133 109.854 160.953 109.561C160.773 109.268 160.525 109.02 160.227 108.835L159.38 108.369C159.06 108.214 158.707 108.133 158.348 108.133C157.99 108.133 157.636 108.214 157.316 108.369L137.812 119.142C137.514 119.327 137.266 119.575 137.086 119.868C136.906 120.161 136.801 120.49 136.777 120.828V130.472C136.801 130.811 136.906 131.139 137.086 131.432C137.266 131.725 137.514 131.973 137.812 132.158L138.653 132.625C138.974 132.78 139.328 132.86 139.688 132.86C140.047 132.86 140.402 132.78 140.723 132.625L154.282 125.144L155.764 127.595C155.784 127.631 155.816 127.66 155.854 127.68C155.892 127.699 155.935 127.707 155.978 127.703C156.02 127.698 156.061 127.682 156.094 127.656C156.127 127.63 156.151 127.595 156.164 127.555L157.728 123.239L160.227 121.857C160.528 121.669 160.778 121.415 160.958 121.118C161.138 120.82 161.242 120.486 161.262 120.143V110.521Z" fill="#E6E6E6"/>
<path d="M136.777 130.468C136.801 130.806 136.906 131.135 137.086 131.428C137.266 131.72 137.514 131.969 137.812 132.154L138.653 132.62C138.945 132.761 139.264 132.841 139.591 132.854C139.917 132.868 140.243 132.815 140.546 132.699C140.058 132.879 139.688 132.615 139.688 132.053V122.431C139.701 122.088 139.805 121.754 139.988 121.459L137.077 119.852C136.894 120.147 136.791 120.481 136.777 120.824V130.468Z" fill="#E0E0E0"/>
<path d="M161.223 110.24C161.1 109.819 160.7 109.678 160.224 109.948L140.72 120.721C140.412 120.9 140.16 121.154 139.991 121.458L137.051 119.85C137.224 119.549 137.475 119.296 137.78 119.114L157.278 108.341C157.6 108.19 157.954 108.111 158.313 108.111C158.672 108.111 159.026 108.19 159.348 108.341L160.194 108.807C160.459 108.966 160.687 109.175 160.864 109.422C161.041 109.668 161.164 109.947 161.223 110.24Z" fill="#F0F0F0"/>
<path d="M145.386 122.589C144.984 122.838 144.649 123.175 144.409 123.571C144.169 123.968 144.03 124.413 144.004 124.87C144.004 125.713 144.592 126.056 145.386 125.635C145.787 125.384 146.122 125.046 146.362 124.648C146.602 124.251 146.741 123.805 146.768 123.347C146.768 122.51 146.144 122.167 145.386 122.589Z" fill="white"/>
<path d="M150.472 119.772C150.07 120.023 149.736 120.361 149.496 120.758C149.256 121.156 149.117 121.601 149.09 122.059C149.09 122.897 149.713 123.24 150.472 122.818C150.874 122.569 151.208 122.232 151.448 121.835C151.688 121.439 151.827 120.994 151.853 120.536C151.853 119.705 151.236 119.351 150.472 119.772Z" fill="white"/>
<path d="M155.561 116.956C155.159 117.207 154.824 117.544 154.584 117.942C154.344 118.339 154.205 118.785 154.18 119.243C154.18 120.086 154.797 120.424 155.561 120.008C155.962 119.756 156.296 119.418 156.535 119.021C156.774 118.624 156.912 118.178 156.937 117.72C156.937 116.894 156.32 116.54 155.561 116.956Z" fill="white"/>
<path d="M152.729 89.0583L150.594 85.2255L152.311 80.4878V77.5879L147.055 80.4878V83.3877L149.318 87.1306C149.353 87.1889 149.407 87.2345 149.471 87.2599L152.729 89.0583Z" fill="#2F27CE"/>
<path d="M149.466 87.2608C149.399 87.236 149.343 87.1904 149.307 87.1315L148.719 86.1311L150.365 85.2207L152.623 88.9468C152.649 88.9946 152.688 89.0352 152.735 89.0648L149.466 87.2608Z" fill="#263238"/>
<path d="M160.985 62.9101C160.955 62.3878 160.797 61.8795 160.523 61.4265C160.249 60.9735 159.868 60.5884 159.409 60.3025L158.127 59.5719C157.638 59.3384 157.099 59.2168 156.552 59.2168C156.005 59.2168 155.465 59.3384 154.976 59.5719L115.58 81.2988C115.121 81.5841 114.739 81.969 114.465 82.4221C114.191 82.8753 114.033 83.3839 114.004 83.9065V98.5915C114.036 99.1141 114.196 99.6224 114.469 100.076C114.743 100.53 115.123 100.916 115.58 101.205L116.862 101.913C117.351 102.146 117.89 102.268 118.437 102.268C118.984 102.268 119.524 102.146 120.013 101.913L150.354 85.1934L152.606 88.9251C152.64 88.9733 152.687 89.0117 152.742 89.0364C152.797 89.0611 152.857 89.0711 152.918 89.0653C152.978 89.0595 153.036 89.0382 153.084 89.0036C153.133 88.9691 153.171 88.9225 153.194 88.8689L155.575 82.2992L159.38 80.186C159.838 79.8998 160.219 79.5146 160.493 79.0617C160.767 78.6087 160.925 78.1006 160.956 77.5783L160.985 62.9101Z" fill="#37474F"/>
<path d="M123.585 85.823L156.296 67.7209C156.825 67.4287 157.254 67.5636 157.254 68.0188C157.215 68.2992 157.108 68.567 156.941 68.8011C156.775 69.0352 156.554 69.2291 156.296 69.3676L123.585 87.4696C123.062 87.7619 122.633 87.6326 122.633 87.1774C122.672 86.8969 122.779 86.6288 122.944 86.3939C123.109 86.1591 123.328 85.9637 123.585 85.823Z" fill="#2F27CE"/>
<path d="M123.585 89.9582L148.558 76.178C149.087 75.8857 149.516 76.0206 149.516 76.4758C149.478 76.7565 149.371 77.0247 149.204 77.2589C149.038 77.4931 148.816 77.6868 148.558 77.8246L123.585 91.6049C123.062 91.8971 122.633 91.7622 122.633 91.3126C122.672 91.0321 122.779 90.7641 122.944 90.5292C123.109 90.2943 123.328 90.0989 123.585 89.9582Z" fill="#2F27CE"/>
<path d="M123.585 94.0953L155.185 76.6228C155.708 76.3361 156.137 76.4654 156.137 76.9206C156.098 77.2011 155.991 77.4692 155.826 77.7041C155.661 77.9389 155.441 78.1343 155.185 78.275L123.585 95.742C123.062 96.0342 122.633 95.8994 122.633 95.4441C122.672 95.1644 122.779 94.8971 122.944 94.6631C123.109 94.4291 123.329 94.2348 123.585 94.0953Z" fill="#2F27CE"/>
<path d="M114.008 98.6141C114.04 99.1367 114.199 99.6449 114.473 100.098C114.746 100.552 115.127 100.939 115.584 101.227L116.865 101.935C117.311 102.149 117.798 102.27 118.296 102.29C118.793 102.31 119.29 102.23 119.753 102.053C119.006 102.323 118.441 101.924 118.441 101.064V86.3737C118.46 85.8492 118.62 85.3383 118.906 84.89L114.472 82.4453C114.187 82.8936 114.027 83.4045 114.008 83.929V98.6141Z" fill="#263238"/>
<path d="M160.931 62.482C160.748 61.8414 160.137 61.639 159.408 62.0381L120.012 83.7706C119.544 84.0452 119.161 84.4329 118.9 84.8946L114.473 82.4499C114.733 81.9897 115.114 81.6023 115.578 81.3259L154.974 59.5934C155.463 59.3598 156.003 59.2383 156.55 59.2383C157.097 59.2383 157.636 59.3598 158.126 59.5934L159.413 60.3071C159.807 60.5525 160.145 60.8718 160.406 61.2457C160.667 61.6195 160.845 62.0402 160.931 62.482Z" fill="#455A64"/>
<path d="M234.61 78.5789C234.575 78.1293 233.699 73.3636 233.099 70.7109L227.219 72.3969L228.16 76.1342L233.034 80.6302C233.523 80.5488 233.96 80.2898 234.254 79.9075C234.547 79.5252 234.675 79.0491 234.61 78.5789Z" fill="#FFA8A7"/>
<path d="M229.697 65.0684H210.987V45.758C210.987 44.7624 211.192 43.7766 211.591 42.8568C211.99 41.937 212.574 41.1012 213.31 40.3972C214.047 39.6932 214.921 39.1348 215.884 38.7538C216.846 38.3728 217.878 38.1767 218.919 38.1767H221.771C222.813 38.1767 223.844 38.3728 224.806 38.7538C225.769 39.1348 226.643 39.6932 227.38 40.3972C228.116 41.1012 228.701 41.937 229.099 42.8568C229.498 43.7766 229.703 44.7624 229.703 45.758V65.0684H229.697Z" fill="#263238"/>
<path d="M206.264 68.5293L203.488 73.3794L207.804 76.9143L211.75 70.929L206.264 68.5293Z" fill="#F28F8F"/>
<path d="M202.507 74.1328C201.919 75.6615 200.507 78.0668 202.142 79.2639C203.777 80.4609 208.334 79.0222 208.334 79.0222L202.507 74.1328Z" fill="#F28F8F"/>
<path d="M216.66 57.7051C213.914 57.7051 210.886 58.6886 209.845 60.7455C208.804 62.8024 205.547 69.2205 205.547 69.2205C205.547 69.2205 207.975 72.5925 211.833 72.3789L216.66 57.7051Z" fill="#EBEBEB"/>
<path d="M212.737 143.308C211.71 144.458 210.57 145.51 209.332 146.45C209.134 146.583 208.972 146.761 208.862 146.967C208.715 147.31 208.497 148.147 210.12 148.603C210.94 148.83 211.802 148.885 212.646 148.765C213.49 148.644 214.297 148.351 215.012 147.906C216.282 147.057 216.253 145.427 217.435 144.432C218.311 143.702 219.446 143.466 220.14 142.533C220.622 141.881 220.44 141.055 220.14 140.032C219.787 138.908 219.605 138.076 219.217 138.183L219.311 138.7C218.864 139.464 216.371 139.824 215.195 139.352C214.447 140.71 213.627 142.031 212.737 143.308Z" fill="#263238"/>
<path d="M211.678 144.433C212.049 144.076 212.4 143.701 212.731 143.309C213.427 142.347 214.061 141.344 214.63 140.308C214.948 139.688 215.052 138.988 214.93 138.307L214.589 135.582L218.887 134.975L219.281 138.695C219.422 139.544 218.728 140.33 217.488 141.466C216.247 142.601 214.73 145.181 213.583 145.872C212.437 146.563 211.596 146.574 211.078 146.276C210.561 145.979 210.502 145.731 211.678 144.433Z" fill="#FFA8A7"/>
<path d="M225.932 144.011V143.449C225.697 144.124 224.591 147.024 222.927 148.507C221.599 149.665 219.788 151.003 219.329 152.29C218.87 153.577 221.845 154.082 223.086 153.874C224.745 153.6 226.262 152.81 227.402 151.626C228.119 150.795 228.578 149.8 229.084 149.142C229.589 148.485 230.765 147.749 231.042 146.984C231.123 146.273 231.04 145.554 230.801 144.877C230.601 144.163 230.395 143.382 230.136 143.449V143.871C229.538 144.32 228.798 144.56 228.037 144.551C227.42 144.579 225.926 144.461 225.932 144.011Z" fill="#263238"/>
<path d="M221.721 149.492C222.132 149.144 222.55 148.801 222.926 148.475C224.046 147.34 224.918 146.002 225.49 144.541C225.783 143.87 225.932 143.149 225.931 142.422V140.135H230.135V143.872V143.973C229.929 144.805 228.001 147.03 226.901 148.469C226.172 149.441 224.773 150.672 223.103 150.886C221.503 151.111 220.698 150.616 221.721 149.492Z" fill="#FFA8A7"/>
<path d="M229.321 81.5338C232.584 88.3396 229.203 112.32 229.203 112.32C229.303 113.444 230.62 115.597 231.114 120.464C231.702 126.207 230.203 140.628 230.203 140.628C229.562 140.985 228.839 141.186 228.098 141.214C227.357 141.243 226.62 141.097 225.951 140.791C225.951 140.791 221.941 119.07 221.189 113.354C220.53 108.369 219.425 100.108 219.425 100.108L217.761 113.292C217.761 113.292 218.525 116.434 218.754 118.564C219.189 122.498 219.154 135.924 219.154 135.924C217.777 136.69 216.162 136.971 214.591 136.717C214.591 136.717 210.511 116.041 209.37 112.129C208.858 110.37 208.623 90.1212 210.658 80.5391L229.321 81.5338Z" fill="#2F27CE"/>
<path opacity="0.2" d="M219.428 100.108L218.252 91.5992C216.471 91.5221 214.746 90.9798 213.266 90.0312C214.465 91.1202 215.889 91.9585 217.446 92.4928L218.622 99.7033L218.293 108.898L219.428 100.108Z" fill="black"/>
<path d="M223.55 57.8849C224.75 58.1625 225.869 58.6946 226.825 59.4417C227.781 60.1889 228.548 61.1319 229.071 62.2011C229.833 63.8277 229.903 65.6741 229.265 67.349L226.325 75.4081C226.325 75.4081 230.194 81.3878 230.194 84.771C223.726 88.2217 213.295 87.0977 209.973 84.8553C209.879 84.254 210.667 77.2121 210.49 74.1155C210.302 70.8165 209.826 67.0905 210.367 65.0504C211.378 61.2625 213.265 57.7051 217.023 57.7051L223.55 57.8849Z" fill="#F5F5F5"/>
<path d="M224.617 57.8848C227.11 58.222 230.774 58.7053 232.038 64.3702C233.302 70.0352 233.684 72.1146 233.684 72.1146C233.684 72.1146 231.638 74.3907 227.498 74.3626L226.211 70.0071L224.617 57.8848Z" fill="#F5F5F5"/>
<path d="M223.223 62.6676C224.091 62.6676 224.924 62.3378 225.539 61.7508C226.153 61.1637 226.498 60.3675 226.498 59.5373V50.416H223.223V62.6676Z" fill="#263238"/>
<path d="M214.062 41.8125C213.074 42.3745 211.851 44.7461 211.969 49.7255C212.075 53.9461 213.503 54.9914 214.227 55.2893C214.95 55.5871 216.332 55.4073 217.678 55.1937V57.7283C217.678 57.7283 215.814 59.7965 215.914 60.9598C216.014 62.1232 218.601 62.3929 220.348 61.2577C221.476 60.4803 222.445 59.5105 223.206 58.3971V52.2657C223.347 52.4318 223.522 52.5694 223.72 52.6704C223.917 52.7715 224.134 52.834 224.357 52.8544C224.58 52.8748 224.805 52.8527 225.02 52.7892C225.234 52.7258 225.433 52.6223 225.605 52.4849C227.092 51.5407 227.151 49.2028 226.281 48.3654C225.41 47.528 223.552 47.8034 223.206 48.9274C221.438 48.8554 219.716 48.3649 218.196 47.4999C217.089 46.927 216.139 46.114 215.421 45.1262C214.703 44.1385 214.238 43.0035 214.062 41.8125Z" fill="#FFA8A7"/>
<path d="M216.899 48.6679C216.898 48.8068 216.951 48.9412 217.048 49.045C217.144 49.1487 217.278 49.2146 217.422 49.2299C217.571 49.2303 217.715 49.1765 217.824 49.0795C217.933 48.9824 218 48.8494 218.01 48.7073C218.021 48.6338 218.016 48.5589 217.994 48.4876C217.973 48.4162 217.937 48.3498 217.887 48.2927C217.837 48.2356 217.776 48.189 217.707 48.1558C217.637 48.1227 217.561 48.1037 217.484 48.1002C217.406 48.0967 217.329 48.1086 217.256 48.1353C217.184 48.162 217.118 48.2028 217.063 48.2552C217.008 48.3076 216.965 48.3703 216.937 48.4394C216.908 48.5085 216.896 48.5825 216.899 48.6567V48.6679Z" fill="#263238"/>
<path d="M216.755 52.2656L215.461 52.659C215.485 52.7416 215.525 52.8188 215.581 52.886C215.636 52.9533 215.705 53.0092 215.783 53.0506C215.862 53.092 215.948 53.118 216.037 53.127C216.126 53.136 216.216 53.1278 216.302 53.103C216.476 53.0464 216.62 52.9276 216.705 52.7715C216.789 52.6153 216.807 52.4341 216.755 52.2656Z" fill="#F28F8F"/>
<path d="M212.349 47.0392L213.472 46.2918C213.425 46.2197 213.362 46.1576 213.289 46.1092C213.216 46.0608 213.133 46.0272 213.045 46.0104C212.958 45.9936 212.868 45.9939 212.78 46.0114C212.693 46.0288 212.61 46.0631 212.537 46.112C212.386 46.2131 212.282 46.3663 212.247 46.5393C212.212 46.7123 212.249 46.8915 212.349 47.0392Z" fill="#263238"/>
<path d="M212.609 48.2805C212.608 48.3837 212.639 48.4849 212.698 48.5717C212.756 48.6584 212.84 48.7268 212.939 48.7684C213.038 48.8101 213.147 48.8231 213.254 48.8059C213.361 48.7888 213.459 48.7422 213.539 48.6719C213.618 48.6015 213.673 48.5106 213.699 48.4103C213.725 48.31 213.719 48.2048 213.683 48.1075C213.646 48.0103 213.581 47.9254 213.495 47.8632C213.409 47.801 213.305 47.7644 213.197 47.7578C213.048 47.7575 212.905 47.8112 212.796 47.9083C212.686 48.0053 212.62 48.1383 212.609 48.2805Z" fill="#263238"/>
<path d="M215.225 47.9766L215.137 51.1743L213.379 50.6517L215.225 47.9766Z" fill="#F28F8F"/>
<path d="M217.676 55.1924C219.093 55.0182 222.015 54.2146 222.474 53.1074C222.29 53.6655 221.93 54.156 221.445 54.5124C220.575 55.2262 217.676 56.0354 217.676 56.0354V55.1924Z" fill="#F28F8F"/>
<path d="M209.326 74.1384C208.521 72.7053 208.321 72.6378 207.839 72.3287C207.357 72.0196 204.422 71.5925 203.205 71.497C201.771 71.3789 201.259 71.6318 201.659 72.812C202.511 75.3354 204.722 80.0674 205.304 80.8093C205.681 81.2926 205.504 81.7591 207.38 82.13C208.862 82.4222 211.149 82.7313 211.702 82.7651C212.255 82.7988 213.031 82.928 212.531 81.3657C211.894 79.5962 211.158 77.8608 210.326 76.1672C209.703 74.8858 209.326 74.1384 209.326 74.1384Z" fill="#263238"/>
<path d="M228.185 76.1497C228.185 76.1497 216.184 77.1781 214.497 76.678C212.809 76.1778 212.103 75.2561 211.039 74.3738C209.975 73.4914 209.234 73.705 209.234 73.9804C209.451 74.3906 210.075 75.7169 210.322 76.1665C210.645 76.7623 209.199 76.8016 207.417 76.4082C205.635 76.0148 204.918 75.0201 204.477 75.6045C204.036 76.189 205.465 79.0215 208.428 80.1005C211.392 81.1796 213.591 80.4602 216.043 80.5558C218.495 80.6513 229.685 81.6798 233.095 80.6794C233.183 80.1589 233.12 79.6252 232.913 79.1366C232.706 78.648 232.362 78.2233 231.919 77.9087C230.811 77.0875 229.541 76.4891 228.185 76.1497Z" fill="#FFA8A7"/>
<path d="M227.243 72.9466C226.682 71.5001 226.203 70.0255 225.809 68.5293C225.809 68.5293 226.044 71.817 227.014 73.5873L227.243 72.9466Z" fill="#E0E0E0"/>
</svg>
