<svg width="294" height="281" viewBox="0 0 294 281" fill="none" xmlns="http://www.w3.org/2000/svg">
<path d="M49.3927 224.801L43.1422 220.687C43.1422 220.687 39.5319 225.706 34.0165 222.21C32.9409 221.554 32.1054 220.595 31.626 219.465C31.1466 218.335 31.047 217.091 31.3411 215.904C31.5742 214.904 32.0516 213.971 32.7343 213.181C33.4169 212.39 34.2855 211.766 35.2689 211.358C37.5268 210.385 40.9431 210.397 44.6475 213.875L54.3378 200.387L48.1579 196.324L42.4837 204.192C42.4837 204.192 32.276 200.635 25.7022 209.762C19.4164 218.495 26.149 225.914 29.6594 228.218C32.3407 230.022 41.8957 235.411 49.3927 224.801Z" fill="#EBEBEB"/>
<path d="M50.052 193.52L56.3203 197.643L60.3499 192.045L54.0816 187.923L50.052 193.52Z" fill="#EBEBEB"/>
<path d="M76.0065 241.318L79.3228 240.48C79.2243 240.12 79.2019 239.744 79.2567 239.375C79.3116 239.006 79.4427 238.651 79.6424 238.331C79.8422 238.011 80.1065 237.732 80.4201 237.511C80.7337 237.289 81.0903 237.129 81.469 237.041C82.0215 236.88 82.6127 236.889 83.1598 237.065C83.707 237.242 84.1828 237.577 84.5208 238.024C84.8112 238.395 85.0057 238.826 85.0885 239.282C85.1713 239.738 85.14 240.207 84.997 240.649C84.6795 241.677 83.6682 242.796 81.3279 242.981L83.2977 250.136L86.5788 249.309L85.4028 245.117C86.6433 244.398 87.6027 243.31 88.1338 242.02C88.6649 240.729 88.7383 239.308 88.3428 237.974C87.0609 233.337 82.4098 233.354 80.5518 233.826C79.1582 234.186 74.4013 235.737 76.0065 241.318Z" fill="#EBEBEB"/>
<path d="M87.0407 250.761L83.709 251.602L84.5295 254.574L87.8612 253.734L87.0407 250.761Z" fill="#EBEBEB"/>
<path d="M131.124 41.0652C132.802 40.0882 134.609 39.3321 136.498 38.8172L137.604 33.7592L146.594 33.6074L147.888 38.6654C149.795 39.1119 151.63 39.8019 153.345 40.7167L157.89 37.8674L164.358 43.8358L161.541 48.2756C162.56 49.8827 163.351 51.6119 163.893 53.4179L169.215 54.4745L169.368 63.0675L164.076 64.3039C163.606 66.1257 162.884 67.8796 161.929 69.5192L164.905 73.8635L158.66 80.0455L154.015 77.3535C152.335 78.3305 150.526 79.0866 148.635 79.6015L147.529 84.6932L138.539 84.8393L137.245 79.7813C135.337 79.3374 133.502 78.6473 131.789 77.73L127.243 80.5794L120.775 74.6109L123.592 70.1711C122.57 68.5658 121.779 66.8362 121.24 65.0288L115.948 63.9723L115.789 55.3793L121.081 54.1429C121.54 52.3094 122.256 50.5437 123.21 48.8938L120.228 44.5496L126.473 38.3676L131.124 41.0652ZM135.916 52.5131C134.594 53.8263 133.708 55.485 133.372 57.2793C133.035 59.0735 133.263 60.9229 134.026 62.5935C134.789 64.264 136.054 65.6808 137.659 66.6646C139.265 67.6483 141.14 68.155 143.046 68.1204C144.953 68.0858 146.807 67.5116 148.372 66.4703C149.937 65.429 151.145 63.9674 151.841 62.2704C152.537 60.5734 152.692 58.7171 152.284 56.9363C151.877 55.1555 150.926 53.5302 149.552 52.2658C147.709 50.5716 145.237 49.6461 142.681 49.6924C140.124 49.7388 137.691 50.7533 135.916 52.5131Z" fill="#F5F5F5"/>
<path d="M93.492 23.1489C94.4611 22.5927 95.5031 22.1618 96.5908 21.8675L97.2258 18.9339L102.406 18.8496L103.153 21.7551C104.25 22.0116 105.307 22.4086 106.293 22.9353L108.909 21.2943L112.614 24.7281L110.991 27.2852C111.576 28.2106 112.029 29.2067 112.337 30.247L115.401 30.8539L115.489 35.8051L112.449 36.5301C112.182 37.5794 111.766 38.589 111.214 39.5312L112.931 42.0321L109.333 45.5952L106.657 44.0441C105.689 44.6034 104.647 45.0363 103.559 45.331L102.9 48.2534L97.7197 48.3434L97.02 45.4378C95.9232 45.1768 94.8673 44.7781 93.8801 44.252L91.2635 45.893L87.5356 42.4536L89.1349 39.9021C88.5487 38.9793 88.0958 37.9849 87.7884 36.946L84.7249 36.3334L84.6309 31.3822L87.6767 30.6741C87.944 29.6231 88.3594 28.6116 88.9115 27.6674L87.1945 25.1665L90.7931 21.609L93.492 23.1489ZM96.2497 29.7468C95.4824 30.5012 94.9668 31.4565 94.7684 32.4914C94.57 33.5263 94.6976 34.5943 95.1352 35.5597C95.5728 36.5252 96.3006 37.3447 97.2262 37.9142C98.1518 38.4838 99.2335 38.7777 100.334 38.7587C101.435 38.7398 102.505 38.4088 103.408 37.8077C104.312 37.2066 105.008 36.3626 105.409 35.3827C105.81 34.4028 105.897 33.3311 105.66 32.3037C105.423 31.2763 104.871 30.3394 104.076 29.6119C103.016 28.6361 101.594 28.1022 100.122 28.1275C98.6502 28.1528 97.2491 28.7352 96.2262 29.7468H96.2497Z" fill="#EBEBEB"/>
<path d="M258.761 115.047C259.728 114.489 260.768 114.057 261.854 113.76L262.495 110.832L267.67 110.748L268.416 113.654C269.516 113.909 270.574 114.306 271.562 114.834L274.179 113.193L277.901 116.632L276.278 119.189C276.863 120.115 277.316 121.111 277.625 122.151L280.694 122.758L280.782 127.709L277.742 128.423C277.469 129.47 277.053 130.479 276.507 131.424L278.218 133.925L274.626 137.488L271.95 135.937C270.982 136.496 269.94 136.929 268.852 137.224L268.211 140.152L263.036 140.242L262.289 137.331C261.192 137.075 260.135 136.678 259.15 136.15L256.527 137.791L252.805 134.352L254.428 131.795C253.842 130.87 253.389 129.874 253.081 128.833L250.018 128.226L249.924 123.275L252.964 122.561C253.237 121.514 253.652 120.505 254.199 119.56L252.487 117.059L256.08 113.496L258.761 115.047ZM261.519 121.64C260.755 122.395 260.243 123.35 260.047 124.383C259.851 125.417 259.98 126.483 260.418 127.447C260.856 128.41 261.583 129.228 262.507 129.796C263.432 130.365 264.511 130.659 265.61 130.641C266.709 130.622 267.778 130.293 268.681 129.695C269.584 129.096 270.281 128.255 270.684 127.278C271.087 126.3 271.178 125.231 270.945 124.204C270.712 123.178 270.165 122.24 269.375 121.51C268.314 120.533 266.892 119.998 265.419 120.023C263.946 120.047 262.544 120.628 261.519 121.64Z" fill="#EBEBEB"/>
<path d="M272.702 261.504C272.702 261.588 216.942 261.65 148.181 261.65C79.4202 261.65 23.6484 261.588 23.6484 261.504C23.6484 261.419 79.3908 261.357 148.181 261.357C216.971 261.357 272.702 261.425 272.702 261.504Z" fill="#263238"/>
<path d="M245.583 261.095L162.087 261.05C157.264 261.047 152.64 259.214 149.231 255.953C145.821 252.692 143.906 248.271 143.906 243.662L143.947 43.5897C143.958 38.9759 145.884 34.5547 149.301 31.2959C152.718 28.0371 157.348 26.207 162.175 26.207L245.671 26.2576C250.494 26.2606 255.119 28.0939 258.528 31.3545C261.937 34.6151 263.852 39.0362 263.852 43.6459L263.811 243.718C263.811 246.004 263.339 248.267 262.423 250.378C261.506 252.489 260.163 254.407 258.47 256.021C256.776 257.635 254.766 258.914 252.555 259.785C250.344 260.656 247.975 261.101 245.583 261.095Z" fill="#455A64"/>
<path d="M245.554 33.3106H229.366C228.299 33.3341 227.285 33.7617 226.548 34.4994C225.81 35.2371 225.409 36.2244 225.433 37.2446V40.0546C225.456 41.0747 225.055 42.062 224.318 42.7997C223.58 43.5374 222.566 43.965 221.499 43.9886H189.941C188.875 43.9635 187.862 43.5353 187.126 42.7978C186.39 42.0603 185.989 41.0737 186.013 40.0546V37.2446C186.037 36.2244 185.636 35.2371 184.898 34.4994C184.16 33.7617 183.147 33.3341 182.079 33.3106H162.217C158.845 33.3076 155.61 34.5826 153.22 36.856C150.83 39.1295 149.481 42.2159 149.469 45.4385L149.428 240.745C149.434 243.97 150.778 247.061 153.166 249.34C155.554 251.619 158.79 252.899 162.164 252.901L245.501 252.946C247.174 252.947 248.831 252.632 250.378 252.021C251.924 251.41 253.329 250.513 254.513 249.383C255.696 248.252 256.636 246.91 257.277 245.433C257.918 243.956 258.248 242.372 258.249 240.773L258.284 45.4666C258.28 42.2421 256.936 39.151 254.55 36.8719C252.163 34.5929 248.928 33.312 245.554 33.3106Z" fill="white"/>
<path d="M258.278 74.359V45.2643C258.218 42.0759 256.851 39.0374 254.472 36.802C252.092 34.5667 248.89 33.313 245.554 33.3106H229.366C228.837 33.3215 228.316 33.432 227.832 33.6357C227.348 33.8394 226.911 34.1324 226.546 34.4978C226.18 34.8632 225.894 35.2939 225.703 35.7652C225.512 36.2365 225.42 36.7392 225.432 37.2446V40.0546C225.456 41.0747 225.055 42.062 224.317 42.7997C223.58 43.5374 222.566 43.965 221.499 43.9886H189.941C188.875 43.9635 187.862 43.5353 187.126 42.7978C186.389 42.0603 185.989 41.0737 186.013 40.0546V37.2446C186.037 36.2244 185.636 35.2371 184.898 34.4994C184.16 33.7617 183.147 33.3341 182.079 33.3106H162.217C158.845 33.3076 155.609 34.5826 153.22 36.856C150.83 39.1295 149.481 42.2159 149.469 45.4385V74.449H258.278V74.359Z" fill="#EBEBEB"/>
<path d="M171.66 113.823C178.944 113.823 184.848 108.192 184.848 101.246C184.848 94.2991 178.944 88.668 171.66 88.668C164.376 88.668 158.471 94.2991 158.471 101.246C158.471 108.192 164.376 113.823 171.66 113.823Z" fill="#E0E0E0"/>
<path d="M165.498 104.392L168.955 104.111L177.387 105.471L178.381 111.535L178.24 112.243C176.341 113.268 174.206 113.829 172.026 113.877C169.845 113.925 167.686 113.459 165.739 112.519L165.498 104.392Z" fill="#455A64"/>
<path d="M175.582 105.375C176.418 105.259 177.272 105.369 178.045 105.694C178.819 106.019 179.481 106.545 179.957 107.213C180.528 107.976 181.052 108.769 181.527 109.59C180.151 111.018 179.034 112.102 177.128 112.737L175.582 105.375Z" fill="#455A64"/>
<path d="M165.497 104.392C165.497 104.392 163.216 104.662 162.334 106.522C161.452 108.382 161.246 108.961 161.246 108.961C162.422 110.321 163.927 111.929 165.768 112.53C165.768 112.53 166.185 107.843 166.238 106.522C166.303 105.095 166.362 104.353 165.497 104.392Z" fill="#455A64"/>
<path d="M167.579 92.4785C168.154 91.7749 168.886 91.2036 169.723 90.8067C170.559 90.4099 171.478 90.1976 172.412 90.1855C173.215 90.1854 174.012 90.3224 174.764 90.5902C175.557 90.7695 176.257 91.2116 176.74 91.8378C177.34 92.5741 177.732 93.4447 177.881 94.3668C178.019 95.3105 178.066 96.2643 178.022 97.2162C177.974 98.1748 177.65 99.1023 177.087 99.8969L174.553 100.313C173.155 100.419 171.749 100.348 170.372 100.099C168.979 99.8437 167.749 99.0719 166.95 97.9524C165.933 96.3732 166.356 93.9172 167.579 92.4785Z" fill="#263238"/>
<path d="M165.133 99.4741C165.159 99.2 165.25 98.9352 165.398 98.6996C165.547 98.4639 165.75 98.2637 165.991 98.114C166.239 97.972 166.527 97.9085 166.814 97.9328C167.101 97.957 167.373 98.0677 167.591 98.2489L167.991 98.6985C168.299 98.8348 168.556 99.0596 168.724 99.3416C168.893 99.6236 168.965 99.9489 168.931 100.272C168.888 100.596 168.746 100.9 168.525 101.148C168.304 101.397 168.012 101.579 167.685 101.672C167.358 101.76 167.013 101.767 166.682 101.691C166.351 101.615 166.047 101.46 165.797 101.239C165.553 101.013 165.366 100.736 165.25 100.43C165.135 100.124 165.095 99.7972 165.133 99.4741Z" fill="#263238"/>
<path d="M165.634 101.127C165.539 100.985 165.491 100.818 165.498 100.649C165.583 100.24 165.787 99.8622 166.086 99.559C166.37 99.2404 166.716 98.9771 167.104 98.7834C167.398 98.6317 167.603 98.5755 167.598 98.5586C167.41 98.5717 167.227 98.6235 167.063 98.7103C166.648 98.8865 166.282 99.1519 165.992 99.4859C165.83 99.6553 165.692 99.8442 165.581 100.048C165.485 100.222 165.428 100.413 165.416 100.61C165.414 100.745 165.452 100.878 165.528 100.992C165.581 101.104 165.634 101.161 165.634 101.127Z" fill="#455A64"/>
<path d="M174.53 104.944V102.696C174.53 102.696 176.594 102.477 177.17 99.9479C177.441 98.2751 177.547 96.5817 177.487 94.8899C177.487 93.3556 176.105 91.265 174.118 91.2594L173.236 91.1582L169.855 92.4396C169.62 92.4519 169.399 92.5474 169.233 92.7074C169.068 92.8674 168.971 93.0804 168.961 93.305L168.861 104.101L170.408 106.175C170.691 106.541 171.087 106.813 171.54 106.954C171.993 107.094 172.481 107.095 172.935 106.957C173.389 106.819 173.787 106.548 174.071 106.183C174.356 105.818 174.514 105.377 174.524 104.922L174.53 104.944Z" fill="#FFBE9D"/>
<path d="M173.182 99.3632C173.2 99.2331 173.27 99.1146 173.376 99.0316C173.473 98.9541 173.593 98.9084 173.719 98.9014C173.845 98.8943 173.97 98.9261 174.076 98.9922C174.184 99.0727 174.268 99.179 174.32 99.3003C174.371 99.4216 174.389 99.5538 174.37 99.6835C174.311 99.7617 174.236 99.8271 174.148 99.8755C174.061 99.9239 173.964 99.9542 173.864 99.9645H173.77C173.692 99.9664 173.615 99.9535 173.542 99.9265C173.469 99.8995 173.403 99.8589 173.347 99.8071C173.287 99.7489 173.242 99.6791 173.213 99.6024C173.185 99.5258 173.174 99.4441 173.182 99.3632Z" fill="#EB996E"/>
<path d="M176.258 96.6644C176.255 96.7499 176.217 96.8307 176.152 96.8896C176.087 96.9485 176.001 96.9806 175.911 96.9791C175.867 96.9798 175.824 96.9723 175.783 96.9569C175.742 96.9415 175.704 96.9185 175.673 96.8893C175.641 96.86 175.616 96.8251 175.598 96.7865C175.581 96.748 175.571 96.7065 175.57 96.6644C175.575 96.5784 175.614 96.4975 175.68 96.4388C175.746 96.38 175.833 96.3481 175.923 96.3497C175.967 96.3489 176.01 96.3565 176.051 96.372C176.092 96.3875 176.129 96.4105 176.16 96.4398C176.191 96.4691 176.216 96.5041 176.233 96.5426C176.25 96.5812 176.258 96.6226 176.258 96.6644Z" fill="#263238"/>
<path d="M176.823 95.8566C176.776 95.8959 176.523 95.6992 176.158 95.6824C175.794 95.6655 175.506 95.8285 175.471 95.7835C175.435 95.7386 175.5 95.688 175.623 95.6093C175.79 95.5144 175.982 95.4694 176.176 95.4801C176.368 95.4873 176.552 95.5544 176.699 95.6711C176.805 95.7611 176.841 95.8397 176.823 95.8566Z" fill="#263238"/>
<path d="M174.5 98.5193C174.693 98.4761 174.89 98.4535 175.088 98.4519C175.182 98.4519 175.276 98.4519 175.294 98.3732C175.307 98.2808 175.291 98.1868 175.247 98.1035L175.006 97.4066C174.781 96.8119 174.606 96.2012 174.482 95.5801C174.757 96.1557 174.983 96.7514 175.159 97.3616C175.241 97.6033 175.312 97.8393 175.388 98.0641C175.438 98.176 175.448 98.3002 175.417 98.4182C175.382 98.4784 175.322 98.5228 175.253 98.5418C175.2 98.547 175.147 98.547 175.094 98.5418C174.896 98.56 174.696 98.5525 174.5 98.5193Z" fill="#263238"/>
<path d="M174.518 102.7C173.256 102.646 172.034 102.257 170.99 101.576C170.99 101.576 171.843 103.391 174.518 103.296V102.7Z" fill="#EB996E"/>
<path d="M173.401 98.7112C173.466 98.7112 173.442 99.0933 173.772 99.38C174.101 99.6666 174.524 99.6497 174.524 99.7003C174.524 99.7509 174.424 99.7734 174.248 99.7677C174.013 99.7576 173.788 99.6703 173.613 99.5205C173.447 99.3745 173.346 99.1734 173.331 98.9585C173.325 98.7955 173.378 98.7056 173.401 98.7112Z" fill="#263238"/>
<path d="M176.745 94.5302C176.681 94.6145 176.398 94.5302 176.069 94.5302C175.74 94.5302 175.481 94.6088 175.393 94.5302C175.305 94.4515 175.393 94.4065 175.522 94.3278C175.685 94.2304 175.872 94.1779 176.063 94.1761C176.256 94.1713 176.446 94.2201 176.61 94.3166C176.734 94.4178 176.775 94.4908 176.745 94.5302Z" fill="#263238"/>
<path d="M172.213 96.6655C172.211 96.7516 172.245 96.8349 172.306 96.8978C172.368 96.9607 172.452 96.9983 172.542 97.0027C172.586 97.0065 172.63 97.002 172.672 96.9893C172.714 96.9766 172.753 96.956 172.786 96.9288C172.819 96.9016 172.847 96.8682 172.867 96.8307C172.886 96.7932 172.898 96.7523 172.901 96.7105C172.901 96.6254 172.867 96.5435 172.806 96.4818C172.744 96.42 172.661 96.3832 172.572 96.3789C172.528 96.3742 172.484 96.378 172.442 96.3901C172.401 96.4021 172.362 96.4221 172.328 96.4489C172.295 96.4757 172.267 96.5087 172.247 96.5459C172.228 96.5831 172.216 96.6238 172.213 96.6655Z" fill="#263238"/>
<path d="M171.766 95.7324C171.807 95.7773 172.072 95.5975 172.442 95.6031C172.813 95.6087 173.077 95.7886 173.119 95.7492C173.16 95.7099 173.119 95.6537 172.977 95.5694C172.821 95.4595 172.631 95.4004 172.436 95.4008C172.246 95.3951 172.058 95.4483 171.901 95.5525C171.784 95.6368 171.743 95.7099 171.766 95.7324Z" fill="#263238"/>
<path d="M171.553 94.9795C171.624 95.0638 171.912 94.9795 172.253 94.9795C172.594 94.9795 172.882 95.0469 172.953 94.9795C173.023 94.9121 172.953 94.8559 172.811 94.7772C172.64 94.6814 172.445 94.6309 172.247 94.6309C172.049 94.6309 171.854 94.6814 171.683 94.7772C171.559 94.8559 171.518 94.9345 171.553 94.9795Z" fill="#263238"/>
<path d="M169.408 97.6155C169.408 97.4244 169.22 96.9635 169.02 96.9242C168.503 96.8174 167.556 96.8118 167.474 98.0819C167.362 99.8185 169.238 99.5656 169.238 99.515C169.238 99.4644 169.373 98.2674 169.408 97.6155Z" fill="#FFBE9D"/>
<path d="M168.755 98.8503C168.755 98.8503 168.726 98.8503 168.667 98.8896C168.63 98.9048 168.59 98.9126 168.549 98.9126C168.509 98.9126 168.469 98.9048 168.432 98.8896C168.318 98.8115 168.228 98.7057 168.171 98.5832C168.114 98.4607 168.092 98.3259 168.108 98.1927C168.115 98.044 168.155 97.8983 168.226 97.7656C168.247 97.7126 168.281 97.6651 168.325 97.627C168.369 97.5889 168.421 97.5613 168.479 97.5464C168.516 97.5387 168.555 97.5442 168.588 97.5617C168.622 97.5793 168.648 97.6077 168.661 97.642C168.665 97.6699 168.665 97.6983 168.661 97.7263C168.661 97.7263 168.702 97.7263 168.69 97.6307C168.683 97.5872 168.66 97.5475 168.626 97.5183C168.603 97.4975 168.576 97.4817 168.547 97.472C168.518 97.4623 168.486 97.4589 168.455 97.4621C168.38 97.4714 168.309 97.499 168.248 97.5423C168.187 97.5856 168.139 97.6432 168.108 97.7094C168.021 97.8552 167.973 98.0192 167.967 98.1871C167.947 98.3416 167.976 98.4983 168.049 98.6374C168.122 98.7764 168.237 98.8916 168.379 98.9683C168.427 98.9838 168.478 98.9894 168.529 98.9845C168.58 98.9797 168.629 98.9646 168.673 98.9402C168.755 98.9121 168.755 98.8559 168.755 98.8503Z" fill="#EB996E"/>
<path d="M168.949 96.9284L169.408 97.3837C171.407 95.5628 175.317 90.9937 175.1 91.2635C174.187 90.9416 173.205 90.8412 172.242 90.9712C170.754 91.2129 167.938 91.921 167.979 93.5902C168.066 94.7536 168.396 95.8886 168.949 96.9284Z" fill="#263238"/>
<path d="M166.303 96.5471C166.303 96.5471 166.303 96.5077 166.303 96.4459C166.337 96.3515 166.379 96.2595 166.426 96.1705C166.615 95.8484 166.876 95.5701 167.191 95.3556C167.656 95.0381 168.175 94.7987 168.725 94.6475C169.313 94.462 170.019 94.3159 170.695 94.0405C171.852 93.5735 172.897 92.885 173.764 92.0173C174.026 91.7536 174.271 91.4759 174.499 91.1856L174.682 90.9439C174.702 90.9149 174.725 90.8884 174.752 90.8652L174.699 90.9552C174.658 91.0114 174.605 91.1013 174.529 91.2081C174.31 91.5075 174.07 91.7929 173.812 92.0623C173.425 92.4597 173 92.821 172.541 93.1413C171.981 93.5352 171.373 93.8635 170.73 94.1192C170.082 94.3567 169.421 94.5593 168.749 94.7262C168.207 94.8706 167.694 95.1005 167.232 95.4062C166.92 95.6114 166.657 95.8777 166.462 96.1874C166.399 96.3034 166.346 96.4236 166.303 96.5471Z" fill="#455A64"/>
<path d="M166.833 96.8158C166.828 96.6869 166.852 96.5586 166.903 96.4392C167.039 96.1064 167.277 95.8204 167.585 95.6187C168.048 95.3361 168.566 95.145 169.108 95.0567C169.758 94.9383 170.391 94.7497 170.996 94.4947C171.597 94.2333 172.162 93.901 172.677 93.5056C173.105 93.1808 173.498 92.8176 173.853 92.4209C174.087 92.1543 174.301 91.8726 174.494 91.5779C174.559 91.4824 174.612 91.3981 174.647 91.3363C174.665 91.306 174.687 91.2777 174.712 91.252C174.699 91.2833 174.683 91.3135 174.665 91.3419L174.524 91.5948C174.343 91.9003 174.134 92.19 173.9 92.4603C173.553 92.8752 173.158 93.2522 172.724 93.5843C172.204 93.9879 171.633 94.3278 171.025 94.5959C170.413 94.8531 169.772 95.0417 169.114 95.1579C168.582 95.2532 168.073 95.4439 167.615 95.7199C167.31 95.9098 167.07 96.1815 166.927 96.501C166.886 96.6031 166.854 96.7084 166.833 96.8158Z" fill="#455A64"/>
<path d="M165.768 112.518C165.682 111.411 165.682 110.299 165.768 109.191C165.846 110.299 165.846 111.411 165.768 112.518Z" fill="#263238"/>
<path d="M178.245 112.284C178.229 112.097 178.229 111.909 178.245 111.722C178.28 111.253 178.262 110.782 178.192 110.317C178.1 109.852 177.958 109.399 177.768 108.962C177.679 108.782 177.608 108.594 177.557 108.4C177.672 108.564 177.768 108.74 177.845 108.923C178.063 109.356 178.219 109.816 178.309 110.289C178.379 110.764 178.379 111.246 178.309 111.722C178.313 111.911 178.291 112.1 178.245 112.284Z" fill="#263238"/>
<path d="M241.715 117.218H196.762C195.691 117.217 194.665 116.81 193.907 116.086C193.15 115.362 192.724 114.381 192.722 113.357V95.3171L187.766 91.1134H241.715C242.248 91.1097 242.777 91.207 243.271 91.3997C243.765 91.5924 244.214 91.8767 244.592 92.2362C244.97 92.5957 245.271 93.0233 245.475 93.4942C245.68 93.9651 245.784 94.4701 245.784 94.9799V113.357C245.783 113.867 245.677 114.371 245.472 114.84C245.267 115.31 244.966 115.737 244.588 116.096C244.21 116.454 243.762 116.738 243.269 116.931C242.775 117.124 242.247 117.221 241.715 117.218Z" fill="#EBEBEB"/>
<path d="M238.633 120.14C237.039 120.285 235.436 120.334 233.835 120.286C232.236 120.334 230.636 120.285 229.043 120.14C230.636 119.996 232.236 119.947 233.835 119.994C235.436 119.947 237.039 119.995 238.633 120.14Z" fill="#E0E0E0"/>
<path d="M240.614 120.5C240.594 120.5 240.574 120.496 240.556 120.488C240.538 120.48 240.522 120.469 240.508 120.455L239.579 119.528C239.552 119.501 239.537 119.466 239.537 119.429C239.537 119.393 239.552 119.357 239.579 119.331C239.592 119.318 239.608 119.307 239.626 119.299C239.644 119.292 239.663 119.288 239.682 119.288C239.701 119.288 239.72 119.292 239.738 119.299C239.756 119.307 239.772 119.318 239.785 119.331L240.608 120.151L242.413 118.398C242.426 118.385 242.442 118.374 242.46 118.367C242.478 118.359 242.497 118.355 242.516 118.355C242.535 118.355 242.555 118.359 242.572 118.367C242.59 118.374 242.606 118.385 242.619 118.398C242.646 118.424 242.661 118.46 242.661 118.496C242.661 118.533 242.646 118.568 242.619 118.595L240.708 120.455C240.682 120.479 240.65 120.495 240.614 120.5Z" fill="#2F27CE"/>
<path d="M241.937 120.471H241.766C241.727 120.471 241.69 120.456 241.662 120.43C241.635 120.404 241.619 120.368 241.619 120.331C241.623 120.294 241.641 120.26 241.669 120.234C241.697 120.208 241.733 120.193 241.772 120.19H241.878L243.742 118.375C243.756 118.361 243.772 118.351 243.79 118.343C243.808 118.336 243.828 118.332 243.848 118.332C243.867 118.332 243.887 118.336 243.905 118.343C243.923 118.351 243.94 118.361 243.954 118.375C243.98 118.401 243.996 118.437 243.996 118.473C243.996 118.51 243.98 118.545 243.954 118.572L242.043 120.426C242.029 120.441 242.013 120.452 241.995 120.46C241.977 120.468 241.957 120.472 241.937 120.471Z" fill="#2F27CE"/>
<path d="M238.633 190.767C237.039 190.912 235.436 190.961 233.835 190.913C232.236 190.961 230.636 190.912 229.043 190.767C230.636 190.623 232.236 190.574 233.835 190.621C235.436 190.574 237.039 190.622 238.633 190.767Z" fill="#E0E0E0"/>
<path d="M240.615 191.125C240.593 191.127 240.57 191.124 240.548 191.117C240.527 191.109 240.507 191.096 240.492 191.08L239.563 190.153C239.547 190.14 239.533 190.125 239.524 190.107C239.514 190.089 239.509 190.069 239.508 190.049C239.507 190.029 239.511 190.009 239.519 189.99C239.527 189.972 239.539 189.955 239.554 189.941C239.569 189.927 239.587 189.917 239.607 189.91C239.627 189.904 239.648 189.901 239.669 189.903C239.69 189.905 239.71 189.912 239.729 189.922C239.747 189.932 239.762 189.945 239.775 189.962L240.598 190.782L242.403 189.029C242.416 189.015 242.432 189.005 242.45 188.997C242.468 188.99 242.487 188.986 242.506 188.986C242.525 188.986 242.544 188.99 242.562 188.997C242.58 189.005 242.596 189.015 242.609 189.029C242.636 189.055 242.651 189.09 242.651 189.127C242.651 189.164 242.636 189.199 242.609 189.226L240.721 191.08C240.693 191.107 240.655 191.122 240.615 191.125Z" fill="#2F27CE"/>
<path d="M241.937 191.081H241.766C241.727 191.079 241.689 191.063 241.662 191.036C241.634 191.009 241.619 190.972 241.619 190.935C241.619 190.916 241.623 190.897 241.631 190.88C241.639 190.863 241.65 190.848 241.665 190.835C241.679 190.822 241.696 190.813 241.714 190.807C241.733 190.8 241.753 190.798 241.772 190.8H241.878L243.742 188.984C243.756 188.971 243.772 188.96 243.79 188.953C243.808 188.945 243.828 188.941 243.848 188.941C243.867 188.941 243.887 188.945 243.905 188.953C243.923 188.96 243.94 188.971 243.954 188.984C243.98 189.011 243.996 189.046 243.996 189.083C243.996 189.12 243.98 189.155 243.954 189.181L242.043 191.036C242.029 191.05 242.013 191.062 241.995 191.07C241.977 191.077 241.957 191.081 241.937 191.081Z" fill="#2F27CE"/>
<path d="M241.138 96.277C241.138 96.3557 231.324 96.4231 219.218 96.4231C207.111 96.4231 197.303 96.3557 197.303 96.277C197.303 96.1983 207.111 96.1309 219.218 96.1309C231.324 96.1309 241.138 96.1927 241.138 96.277Z" fill="white"/>
<path d="M241.138 99.3512C241.138 99.4355 231.324 99.4973 219.218 99.4973C207.111 99.4973 197.303 99.4355 197.303 99.3512C197.303 99.2669 207.111 99.2051 219.218 99.2051C231.324 99.2051 241.138 99.2725 241.138 99.3512Z" fill="white"/>
<path d="M241.138 102.431C241.138 102.51 231.324 102.577 219.218 102.577C207.111 102.577 197.303 102.51 197.303 102.431C197.303 102.353 207.111 102.285 219.218 102.285C231.324 102.285 241.138 102.353 241.138 102.431Z" fill="white"/>
<path d="M171.66 192.261C178.944 192.261 184.848 186.629 184.848 179.683C184.848 172.737 178.944 167.105 171.66 167.105C164.376 167.105 158.471 172.737 158.471 179.683C158.471 186.629 164.376 192.261 171.66 192.261Z" fill="#E0E0E0"/>
<path d="M165.498 182.832L168.955 182.551L177.387 183.911L178.381 189.958L178.24 190.66C176.341 191.686 174.206 192.248 172.026 192.297C169.845 192.345 167.685 191.877 165.739 190.936L165.498 182.815" fill="#455A64"/>
<path d="M175.582 183.808C176.418 183.693 177.271 183.804 178.045 184.128C178.818 184.453 179.48 184.979 179.957 185.646C180.529 186.41 181.053 187.205 181.527 188.029C180.151 189.456 179.034 190.541 177.128 191.17L175.582 183.808Z" fill="#455A64"/>
<path d="M165.497 182.83C165.497 182.83 163.216 183.094 162.334 184.954C161.452 186.815 161.246 187.399 161.246 187.399C162.422 188.754 163.927 190.361 165.768 190.962C165.768 190.962 166.185 186.281 166.238 184.954C166.303 183.505 166.362 182.785 165.497 182.83Z" fill="#455A64"/>
<path d="M167.579 170.916C168.153 170.212 168.885 169.64 169.722 169.243C170.559 168.846 171.478 168.634 172.412 168.623C173.215 168.619 174.012 168.754 174.764 169.022C175.555 169.205 176.254 169.647 176.74 170.27C177.338 171.007 177.731 171.877 177.881 172.799C178.019 173.744 178.066 174.7 178.022 175.654C177.975 176.611 177.651 177.537 177.087 178.329L174.553 178.75C173.155 178.854 171.75 178.782 170.372 178.537C168.979 178.281 167.749 177.509 166.95 176.39C165.933 174.783 166.356 172.349 167.579 170.916Z" fill="#263238"/>
<path d="M165.133 177.937C165.158 177.662 165.248 177.397 165.397 177.162C165.546 176.926 165.749 176.726 165.991 176.577C166.238 176.433 166.526 176.368 166.813 176.391C167.101 176.415 167.373 176.525 167.591 176.706L167.991 177.161C168.3 177.297 168.557 177.521 168.725 177.804C168.894 178.086 168.966 178.411 168.931 178.735C168.883 179.057 168.741 179.359 168.52 179.607C168.3 179.855 168.01 180.037 167.685 180.134C167.357 180.221 167.012 180.227 166.681 180.15C166.351 180.074 166.047 179.917 165.797 179.696C165.553 179.471 165.366 179.195 165.251 178.89C165.135 178.585 165.095 178.259 165.133 177.937Z" fill="#263238"/>
<path d="M165.634 179.566C165.539 179.421 165.492 179.253 165.498 179.083C165.583 178.675 165.787 178.299 166.086 177.998C166.369 177.678 166.714 177.414 167.104 177.223C167.398 177.071 167.603 177.015 167.598 176.992C167.41 177.009 167.229 177.06 167.062 177.144C166.65 177.324 166.285 177.588 165.992 177.919C165.829 178.101 165.691 178.301 165.581 178.515C165.484 178.689 165.428 178.881 165.416 179.077C165.414 179.212 165.453 179.345 165.528 179.459C165.581 179.544 165.634 179.572 165.634 179.566Z" fill="#455A64"/>
<path d="M174.541 183.583V181.335C174.541 181.335 176.605 181.116 177.181 178.593C177.452 176.92 177.558 175.226 177.499 173.535C177.499 172 176.117 169.91 174.13 169.904L173.248 169.809L169.867 171.09C169.631 171.101 169.409 171.196 169.244 171.356C169.078 171.517 168.982 171.73 168.973 171.955L168.873 182.746L170.419 184.82C170.703 185.186 171.099 185.458 171.552 185.599C172.005 185.739 172.493 185.74 172.947 185.602C173.401 185.463 173.798 185.193 174.083 184.828C174.368 184.463 174.526 184.022 174.535 183.566L174.541 183.583Z" fill="#FFBE9D"/>
<path d="M173.183 177.801C173.201 177.671 173.271 177.552 173.377 177.469C173.474 177.392 173.594 177.346 173.72 177.339C173.846 177.332 173.971 177.364 174.077 177.43C174.185 177.51 174.269 177.616 174.32 177.738C174.372 177.859 174.389 177.991 174.371 178.121C174.311 178.198 174.236 178.263 174.149 178.31C174.061 178.358 173.965 178.387 173.865 178.396H173.771C173.614 178.393 173.463 178.335 173.347 178.233C173.287 178.178 173.241 178.11 173.213 178.035C173.184 177.96 173.174 177.88 173.183 177.801Z" fill="#EB996E"/>
<path d="M176.258 175.344C176.247 175.424 176.206 175.497 176.143 175.55C176.08 175.603 175.998 175.633 175.914 175.633C175.83 175.633 175.749 175.603 175.685 175.55C175.622 175.497 175.581 175.424 175.57 175.344C175.575 175.258 175.614 175.177 175.68 175.118C175.746 175.06 175.833 175.028 175.923 175.029C175.967 175.029 176.01 175.036 176.051 175.052C176.092 175.067 176.129 175.09 176.16 175.12C176.191 175.149 176.216 175.184 176.233 175.222C176.25 175.261 176.258 175.302 176.258 175.344Z" fill="#263238"/>
<path d="M176.823 174.507C176.776 174.546 176.523 174.349 176.158 174.332C175.794 174.316 175.506 174.473 175.471 174.428C175.435 174.383 175.5 174.332 175.623 174.259C175.788 174.159 175.982 174.114 176.176 174.13C176.368 174.137 176.552 174.204 176.699 174.321C176.805 174.411 176.841 174.49 176.823 174.507Z" fill="#263238"/>
<path d="M174.5 177.172C174.693 177.128 174.89 177.103 175.088 177.099C175.182 177.099 175.276 177.099 175.294 177.02C175.307 176.928 175.29 176.834 175.247 176.75C175.17 176.531 175.088 176.301 175.006 176.053C174.782 175.46 174.607 174.851 174.482 174.232C174.758 174.806 174.984 175.4 175.159 176.008C175.241 176.256 175.312 176.486 175.388 176.711C175.438 176.823 175.448 176.947 175.417 177.065C175.401 177.096 175.378 177.123 175.35 177.145C175.321 177.166 175.288 177.181 175.253 177.189C175.2 177.196 175.147 177.196 175.094 177.189C174.896 177.209 174.696 177.203 174.5 177.172Z" fill="#263238"/>
<path d="M174.518 181.348C173.259 181.301 172.038 180.921 170.99 180.252C170.99 180.252 171.843 182.067 174.518 181.972V181.348Z" fill="#EB996E"/>
<path d="M173.401 177.357C173.466 177.357 173.442 177.74 173.772 178.032C174.101 178.324 174.524 178.302 174.524 178.352C174.524 178.403 174.424 178.42 174.248 178.42C174.011 178.41 173.786 178.32 173.613 178.167C173.445 178.022 173.344 177.82 173.331 177.605C173.325 177.447 173.378 177.357 173.401 177.357Z" fill="#263238"/>
<path d="M176.745 173.181C176.681 173.265 176.398 173.181 176.069 173.181C175.74 173.181 175.481 173.26 175.393 173.181C175.305 173.102 175.393 173.057 175.522 172.979C175.683 172.879 175.871 172.826 176.063 172.827C176.256 172.819 176.447 172.868 176.61 172.967C176.734 173.057 176.775 173.142 176.745 173.181Z" fill="#263238"/>
<path d="M172.213 175.299C172.211 175.385 172.245 175.468 172.307 175.53C172.368 175.592 172.453 175.628 172.542 175.631C172.586 175.636 172.63 175.632 172.671 175.62C172.713 175.608 172.752 175.588 172.786 175.561C172.819 175.534 172.847 175.501 172.866 175.464C172.886 175.427 172.898 175.386 172.901 175.344C172.903 175.258 172.869 175.175 172.808 175.112C172.746 175.049 172.662 175.012 172.572 175.007C172.528 175.003 172.484 175.008 172.442 175.021C172.4 175.033 172.361 175.054 172.328 175.081C172.294 175.108 172.267 175.142 172.247 175.179C172.228 175.217 172.216 175.258 172.213 175.299Z" fill="#263238"/>
<path d="M171.766 174.378C171.807 174.423 172.072 174.244 172.442 174.255C172.813 174.266 173.077 174.44 173.119 174.395C173.16 174.35 173.119 174.3 172.977 174.215C172.819 174.108 172.631 174.049 172.436 174.047C172.245 174.046 172.059 174.1 171.901 174.204C171.784 174.283 171.743 174.362 171.766 174.378Z" fill="#263238"/>
<path d="M171.553 173.624C171.624 173.703 171.912 173.624 172.253 173.624C172.594 173.624 172.882 173.686 172.953 173.624C173.023 173.562 172.953 173.506 172.811 173.428C172.64 173.332 172.445 173.281 172.247 173.281C172.049 173.281 171.854 173.332 171.683 173.428C171.559 173.501 171.518 173.585 171.553 173.624Z" fill="#263238"/>
<path d="M169.408 176.048C169.408 175.857 169.22 175.402 169.02 175.362C168.503 175.256 167.556 175.244 167.474 176.515C167.362 178.251 169.238 178.004 169.238 177.953C169.238 177.903 169.373 176.706 169.408 176.048Z" fill="#FFBE9D"/>
<path d="M168.755 177.29C168.755 177.29 168.725 177.29 168.667 177.329C168.591 177.357 168.507 177.357 168.431 177.329C168.318 177.252 168.228 177.147 168.171 177.026C168.115 176.904 168.093 176.77 168.108 176.638C168.114 176.489 168.154 176.343 168.226 176.211C168.247 176.158 168.281 176.11 168.325 176.072C168.368 176.034 168.421 176.007 168.478 175.992C168.515 175.985 168.553 175.99 168.586 176.006C168.619 176.022 168.645 176.049 168.661 176.082C168.666 176.111 168.666 176.142 168.661 176.171C168.661 176.171 168.702 176.143 168.69 176.07C168.682 176.027 168.659 175.988 168.625 175.958C168.602 175.939 168.575 175.925 168.546 175.916C168.516 175.907 168.485 175.904 168.455 175.907C168.379 175.915 168.307 175.943 168.246 175.986C168.186 176.03 168.138 176.088 168.108 176.155C168.02 176.3 167.972 176.464 167.967 176.632C167.947 176.786 167.976 176.942 168.049 177.08C168.123 177.218 168.237 177.332 168.378 177.408C168.424 177.429 168.475 177.44 168.525 177.44C168.576 177.44 168.627 177.429 168.672 177.408C168.755 177.329 168.755 177.29 168.755 177.29Z" fill="#EB996E"/>
<path d="M168.949 175.344L169.408 175.805C171.407 173.979 175.317 169.41 175.1 169.685C174.188 169.359 173.206 169.257 172.242 169.387C170.754 169.629 167.938 170.337 167.979 172.012C168.067 173.173 168.397 174.306 168.949 175.344Z" fill="#263238"/>
<path d="M166.303 174.98C166.303 174.98 166.303 174.947 166.303 174.879C166.339 174.787 166.38 174.697 166.426 174.609C166.616 174.286 166.877 174.006 167.191 173.789C167.667 173.474 168.196 173.24 168.755 173.098C169.343 172.906 170.048 172.76 170.725 172.485C171.361 172.232 171.965 171.91 172.524 171.524C172.98 171.209 173.405 170.856 173.794 170.467C174.123 170.13 174.382 169.838 174.529 169.636C174.599 169.534 174.664 169.456 174.711 169.394C174.758 169.332 174.776 169.31 174.782 169.315L174.729 169.405L174.558 169.652C174.342 169.954 174.102 170.24 173.841 170.507C173.455 170.906 173.029 171.269 172.571 171.591C172.007 171.974 171.397 172.291 170.754 172.536C170.072 172.811 169.378 172.957 168.772 173.143C168.231 173.285 167.718 173.513 167.255 173.817C166.943 174.024 166.681 174.292 166.485 174.604C166.416 174.726 166.355 174.851 166.303 174.98Z" fill="#455A64"/>
<path d="M166.833 175.255C166.828 175.125 166.852 174.994 166.903 174.873C167.038 174.541 167.276 174.257 167.585 174.058C168.048 173.776 168.566 173.584 169.108 173.496C169.757 173.375 170.39 173.187 170.996 172.934C171.597 172.673 172.162 172.34 172.677 171.945C173.385 171.403 173.994 170.751 174.477 170.017C174.541 169.916 174.594 169.838 174.629 169.77C174.648 169.742 174.67 169.716 174.694 169.691C174.682 169.723 174.666 169.753 174.647 169.781L174.506 170.034C174.325 170.34 174.117 170.629 173.883 170.9C173.535 171.315 173.141 171.692 172.707 172.024C172.188 172.427 171.617 172.766 171.007 173.03C170.394 173.284 169.753 173.473 169.096 173.592C168.562 173.682 168.053 173.873 167.597 174.154C167.289 174.34 167.048 174.613 166.909 174.935C166.873 175.039 166.847 175.146 166.833 175.255Z" fill="#455A64"/>
<path d="M165.768 190.952C165.682 189.847 165.682 188.736 165.768 187.631C165.846 188.737 165.846 189.846 165.768 190.952Z" fill="#263238"/>
<path d="M178.245 190.722C178.228 190.526 178.228 190.328 178.245 190.132C178.28 189.661 178.262 189.188 178.192 188.721C178.099 188.259 177.958 187.807 177.768 187.373C177.68 187.192 177.61 187.003 177.557 186.811C177.672 186.975 177.768 187.15 177.845 187.333C178.063 187.766 178.22 188.226 178.309 188.699C178.379 189.174 178.379 189.657 178.309 190.132C178.314 190.331 178.293 190.529 178.245 190.722Z" fill="#263238"/>
<path d="M241.715 187.079H196.762C195.69 187.078 194.663 186.67 193.905 185.945C193.148 185.22 192.722 184.237 192.722 183.213V173.749L187.766 169.545H241.715C242.786 169.546 243.812 169.954 244.569 170.677C245.327 171.401 245.753 172.382 245.754 173.406V183.213C245.754 184.237 245.329 185.22 244.571 185.945C243.814 186.67 242.787 187.078 241.715 187.079Z" fill="#EBEBEB"/>
<path d="M241.138 174.711C241.138 174.795 231.324 174.857 219.218 174.857C207.111 174.857 197.303 174.795 197.303 174.711C197.303 174.626 207.111 174.564 219.218 174.564C231.324 174.564 241.138 174.632 241.138 174.711Z" fill="white"/>
<path d="M241.138 177.789C241.138 177.867 231.324 177.935 219.218 177.935C207.111 177.935 197.303 177.867 197.303 177.789C197.303 177.71 207.111 177.643 219.218 177.643C231.324 177.643 241.138 177.71 241.138 177.789Z" fill="white"/>
<path d="M241.138 180.869C241.138 180.947 231.324 181.015 219.218 181.015C207.111 181.015 197.303 180.947 197.303 180.869C197.303 180.79 207.111 180.723 219.218 180.723C231.324 180.723 241.138 180.784 241.138 180.869Z" fill="white"/>
<path d="M241.138 105.511C241.138 105.59 231.324 105.657 219.218 105.657C207.111 105.657 197.303 105.59 197.303 105.511C197.303 105.433 207.111 105.365 219.218 105.365C231.324 105.365 241.138 105.427 241.138 105.511Z" fill="white"/>
<path d="M241.138 108.586C241.138 108.67 231.324 108.732 219.218 108.732C207.111 108.732 197.303 108.67 197.303 108.586C197.303 108.501 207.111 108.439 219.218 108.439C231.324 108.439 241.138 108.507 241.138 108.586Z" fill="white"/>
<path d="M241.138 112.283C241.138 112.367 231.324 112.429 219.218 112.429C207.111 112.429 197.303 112.367 197.303 112.283C197.303 112.199 207.111 112.137 219.218 112.137C231.324 112.137 241.138 112.204 241.138 112.283Z" fill="white"/>
<path d="M197.566 58.8028C197.598 58.3661 197.762 57.9476 198.039 57.5988C198.315 57.25 198.693 56.986 199.124 56.8392C199.555 56.6924 200.022 56.6692 200.467 56.7724C200.913 56.8756 201.316 57.1008 201.629 57.4202L201 57.9822C200.87 57.8317 200.707 57.7107 200.522 57.6281C200.336 57.5454 200.134 57.5032 199.93 57.5045C199.568 57.5045 199.221 57.6419 198.966 57.8864C198.71 58.131 198.566 58.4626 198.566 58.8084C198.566 59.1542 198.71 59.4858 198.966 59.7303C199.221 59.9749 199.568 60.1122 199.93 60.1122C200.135 60.1137 200.338 60.071 200.523 59.9873C200.708 59.9036 200.871 59.7811 201 59.6289L201.629 60.1909C201.317 60.5102 200.913 60.7353 200.469 60.8388C200.024 60.9422 199.558 60.9195 199.127 60.7733C198.695 60.6272 198.318 60.364 198.041 60.016C197.764 59.668 197.599 59.2502 197.566 58.814V58.8028Z" fill="#263238"/>
<path d="M205.541 59.0451V60.8379H204.624V59.1856C204.624 58.6798 204.377 58.4494 203.959 58.4494C203.542 58.4494 203.177 58.7191 203.177 59.2924V60.8379H202.225V56.5273H203.177V58.0391C203.315 57.9125 203.478 57.8138 203.657 57.7491C203.836 57.6844 204.027 57.655 204.218 57.6626C204.404 57.6554 204.59 57.6872 204.763 57.7558C204.935 57.8244 205.09 57.9282 205.216 58.0599C205.342 58.1915 205.436 58.3479 205.492 58.5181C205.548 58.6883 205.565 58.8682 205.541 59.0451Z" fill="#263238"/>
<path d="M209.292 59.0565V60.838H208.404V60.4502C208.294 60.6019 208.143 60.7222 207.967 60.7984C207.791 60.8746 207.597 60.9038 207.405 60.883C206.64 60.883 206.188 60.4783 206.188 59.9388C206.188 59.3993 206.593 59.0003 207.593 59.0003H208.345C208.345 58.6125 208.098 58.3877 207.593 58.3877C207.253 58.3844 206.922 58.4848 206.646 58.6743L206.305 58.0449C206.725 57.7851 207.216 57.652 207.716 57.6627C208.739 57.6627 209.292 58.1067 209.292 59.0565ZM208.345 59.8489V59.5286H207.693C207.252 59.5286 207.105 59.6859 207.105 59.8995C207.105 60.113 207.305 60.276 207.64 60.276C207.79 60.2868 207.94 60.251 208.067 60.1741C208.194 60.0972 208.292 59.9831 208.345 59.8489Z" fill="#263238"/>
<path d="M212.267 60.697C212.035 60.8361 211.764 60.9047 211.49 60.8937C211.329 60.9149 211.165 60.9008 211.01 60.8525C210.855 60.8041 210.713 60.7227 210.596 60.6144C210.479 60.5062 210.389 60.3739 210.333 60.2276C210.277 60.0812 210.257 59.9246 210.273 59.7697V58.4827H209.768V57.7858H210.273V57.0215H211.22V57.7858H212.037V58.4827H211.22V59.7584C211.213 59.812 211.218 59.8664 211.236 59.9177C211.253 59.969 211.283 60.016 211.321 60.0552C211.36 60.0944 211.408 60.125 211.46 60.1446C211.513 60.1642 211.569 60.1724 211.626 60.1687C211.764 60.1734 211.899 60.1317 212.008 60.0507L212.267 60.697Z" fill="#263238"/>
<path d="M229.044 65.0756C229.044 65.1543 219.048 65.2217 206.659 65.2217C194.269 65.2217 184.279 65.1543 184.279 65.0756C184.279 64.9969 194.275 64.9238 206.659 64.9238C219.042 64.9238 229.044 64.9913 229.044 65.0756Z" fill="#263238"/>
<path d="M248.877 58.8039C249.452 58.8039 249.917 58.3586 249.917 57.8092C249.917 57.2598 249.452 56.8145 248.877 56.8145C248.302 56.8145 247.836 57.2598 247.836 57.8092C247.836 58.3586 248.302 58.8039 248.877 58.8039Z" fill="#263238"/>
<path d="M249.9 60.6979C249.901 60.8962 249.841 61.0904 249.726 61.2558C249.611 61.4211 249.448 61.5502 249.257 61.6266C249.065 61.703 248.854 61.7233 248.651 61.6849C248.447 61.6465 248.26 61.5511 248.113 61.4108C247.966 61.2706 247.867 61.0918 247.826 60.8973C247.786 60.7027 247.807 60.5011 247.887 60.3181C247.967 60.1351 248.102 59.9789 248.275 59.8694C248.448 59.7599 248.652 59.702 248.859 59.7031C249.135 59.7046 249.399 59.8099 249.593 59.9961C249.788 60.1824 249.898 60.4345 249.9 60.6979Z" fill="#263238"/>
<path d="M249.9 63.6139C249.901 63.8122 249.841 64.0064 249.726 64.1718C249.611 64.3371 249.448 64.4662 249.257 64.5426C249.065 64.619 248.854 64.6393 248.651 64.6009C248.447 64.5625 248.26 64.4671 248.113 64.3269C247.966 64.1866 247.867 64.0079 247.826 63.8133C247.786 63.6187 247.807 63.4171 247.887 63.2341C247.967 63.0511 248.102 62.8949 248.275 62.7854C248.448 62.6759 248.652 62.618 248.859 62.6192C249.135 62.6192 249.4 62.724 249.595 62.9105C249.79 63.0971 249.9 63.3501 249.9 63.6139Z" fill="#263238"/>
<path d="M164.239 61.1798C164.175 61.1811 164.113 61.1612 164.063 61.1236L161.305 59.1903C161.267 59.1635 161.237 59.1288 161.215 59.0889C161.194 59.0489 161.182 59.0048 161.182 58.9599C161.182 58.9157 161.193 58.8722 161.215 58.8331C161.236 58.7939 161.267 58.7603 161.305 58.7351L164.063 56.8355C164.094 56.8139 164.13 56.7986 164.168 56.7903C164.206 56.782 164.245 56.781 164.283 56.7872C164.322 56.7935 164.358 56.807 164.391 56.8268C164.424 56.8467 164.452 56.8726 164.474 56.9029C164.519 56.9629 164.537 57.037 164.525 57.1094C164.513 57.1819 164.471 57.247 164.41 57.2907L161.975 58.9767L164.41 60.6627C164.472 60.7075 164.513 60.7735 164.525 60.8469C164.537 60.9203 164.519 60.9953 164.474 61.0561C164.449 61.0934 164.414 61.1242 164.373 61.1457C164.332 61.1673 164.286 61.1789 164.239 61.1798Z" fill="#263238"/>
<path d="M236.204 155.675C243.488 155.675 249.393 150.043 249.393 143.097C249.393 136.151 243.488 130.52 236.204 130.52C228.92 130.52 223.016 136.151 223.016 143.097C223.016 150.043 228.92 155.675 236.204 155.675Z" fill="#E0E0E0"/>
<path d="M239.815 150.532H232.876C232.639 150.532 232.412 150.442 232.244 150.282C232.077 150.122 231.982 149.905 231.982 149.678C231.982 149.451 232.076 149.233 232.244 149.072C232.411 148.911 232.639 148.82 232.876 148.818H239.815C240.052 148.82 240.279 148.911 240.447 149.072C240.614 149.233 240.708 149.451 240.708 149.678C240.708 149.905 240.614 150.122 240.447 150.282C240.279 150.442 240.052 150.532 239.815 150.532Z" fill="#263238"/>
<path d="M236.74 134.92H236.129V137.865H236.74V134.92Z" fill="#263238"/>
<path d="M227.444 146.694C228.431 146.694 229.231 145.929 229.231 144.986C229.231 144.042 228.431 143.277 227.444 143.277C226.457 143.277 225.656 144.042 225.656 144.986C225.656 145.929 226.457 146.694 227.444 146.694Z" fill="#2F27CE"/>
<path d="M245.518 146.581C246.505 146.581 247.306 145.816 247.306 144.873C247.306 143.929 246.505 143.164 245.518 143.164C244.531 143.164 243.73 143.929 243.73 144.873C243.73 145.816 244.531 146.581 245.518 146.581Z" fill="#2F27CE"/>
<path d="M236.699 137.246C236.699 137.246 243.979 137.162 245.131 143.192C246.284 149.222 240.127 149.329 238.358 149.442C237.558 149.492 235.841 149.498 234.324 149.475C230.966 149.419 228.597 148.801 227.791 145.822C227.695 145.473 227.634 145.115 227.609 144.755C227.397 141.495 229.702 137.089 236.699 137.246Z" fill="#2F27CE"/>
<path d="M231.419 146.425L242.003 146.582C242.536 146.59 243.049 146.395 243.432 146.041C243.814 145.687 244.034 145.203 244.044 144.694C244.05 144.185 243.845 143.695 243.473 143.33C243.102 142.966 242.594 142.757 242.062 142.749L231.478 142.592C231.214 142.588 230.952 142.633 230.707 142.726C230.461 142.818 230.237 142.956 230.048 143.131C229.858 143.307 229.707 143.516 229.602 143.748C229.497 143.979 229.442 144.228 229.438 144.48C229.434 144.733 229.482 144.983 229.58 145.217C229.677 145.452 229.822 145.665 230.006 145.846C230.19 146.026 230.41 146.171 230.652 146.27C230.895 146.369 231.155 146.422 231.419 146.425Z" fill="#263238"/>
<path d="M239.803 144.487C239.819 144.566 239.85 144.642 239.897 144.709C239.943 144.777 240.003 144.835 240.073 144.881C240.143 144.926 240.221 144.958 240.304 144.974C240.387 144.991 240.473 144.991 240.556 144.975C240.645 144.967 240.732 144.94 240.81 144.898C240.888 144.856 240.956 144.798 241.01 144.729C241.064 144.66 241.102 144.581 241.122 144.497C241.141 144.413 241.143 144.326 241.126 144.242C241.108 144.157 241.073 144.077 241.021 144.007C240.97 143.936 240.904 143.877 240.827 143.832C240.75 143.788 240.664 143.759 240.575 143.747C240.486 143.736 240.395 143.743 240.309 143.767C240.226 143.783 240.147 143.814 240.077 143.858C240.007 143.903 239.947 143.96 239.9 144.027C239.853 144.093 239.82 144.168 239.804 144.247C239.787 144.326 239.787 144.408 239.803 144.487Z" fill="white"/>
<path d="M232.411 144.374C232.421 144.459 232.448 144.542 232.493 144.617C232.537 144.692 232.597 144.757 232.669 144.808C232.742 144.859 232.824 144.895 232.912 144.914C233 144.933 233.091 144.935 233.179 144.918C233.267 144.902 233.351 144.868 233.425 144.819C233.499 144.77 233.561 144.706 233.608 144.633C233.654 144.559 233.685 144.477 233.696 144.392C233.708 144.307 233.701 144.22 233.676 144.138C233.63 143.99 233.529 143.863 233.391 143.783C233.253 143.703 233.089 143.675 232.931 143.705C232.773 143.734 232.632 143.819 232.536 143.943C232.44 144.067 232.395 144.22 232.411 144.374Z" fill="white"/>
<path d="M237.439 134.881C237.44 135.071 237.382 135.258 237.272 135.417C237.162 135.575 237.006 135.699 236.822 135.773C236.638 135.847 236.436 135.866 236.241 135.83C236.045 135.794 235.866 135.703 235.724 135.568C235.583 135.434 235.487 135.263 235.447 135.076C235.408 134.89 235.428 134.696 235.504 134.52C235.58 134.344 235.709 134.194 235.874 134.088C236.039 133.982 236.234 133.926 236.433 133.926C236.699 133.926 236.954 134.026 237.142 134.205C237.331 134.384 237.437 134.627 237.439 134.881Z" fill="#2F27CE"/>
<path d="M237.95 144.205C237.95 144.205 237.991 144.25 238.015 144.351C238.033 144.495 238.019 144.64 237.974 144.778C237.909 144.992 237.787 145.185 237.621 145.34C237.417 145.535 237.149 145.656 236.862 145.683C236.576 145.706 236.289 145.635 236.051 145.481C235.862 145.359 235.707 145.195 235.598 145.003C235.528 144.874 235.488 144.732 235.48 144.587C235.48 144.486 235.48 144.43 235.516 144.43C235.551 144.43 235.575 144.643 235.769 144.908C235.882 145.054 236.024 145.178 236.186 145.273C236.383 145.385 236.611 145.436 236.839 145.419C237.058 145.392 237.263 145.302 237.427 145.16C237.575 145.043 237.693 144.895 237.774 144.728C237.927 144.435 237.903 144.205 237.95 144.205Z" fill="white"/>
<path d="M245.118 142.996C245.14 143.043 245.158 143.092 245.171 143.142C245.194 143.201 245.214 143.261 245.23 143.322C245.23 143.389 245.271 143.468 245.289 143.564C245.334 143.773 245.365 143.985 245.383 144.199C245.403 144.461 245.403 144.724 245.383 144.986C245.359 145.247 245.313 145.506 245.248 145.761C245.192 145.968 245.122 146.171 245.036 146.368C245.007 146.447 244.974 146.523 244.936 146.599C244.91 146.655 244.881 146.709 244.848 146.762L244.766 146.902C244.779 146.85 244.8 146.801 244.83 146.756L244.907 146.582C244.936 146.514 244.971 146.441 245.001 146.357C245.08 146.159 245.145 145.956 245.195 145.75C245.258 145.496 245.303 145.239 245.33 144.98C245.348 144.72 245.348 144.459 245.33 144.199C245.315 143.988 245.288 143.777 245.248 143.569C245.235 143.482 245.218 143.396 245.195 143.311C245.195 143.238 245.165 143.182 245.154 143.131C245.136 143.088 245.124 143.042 245.118 142.996Z" fill="#263238"/>
<path d="M227.872 143.029C227.847 143.078 227.827 143.129 227.813 143.181C227.813 143.226 227.778 143.288 227.754 143.355C227.731 143.423 227.713 143.507 227.695 143.597C227.65 143.806 227.621 144.019 227.607 144.232C227.587 144.494 227.587 144.757 227.607 145.019C227.631 145.28 227.676 145.54 227.742 145.794C227.797 146.003 227.868 146.208 227.954 146.407C227.983 146.491 228.025 146.564 228.054 146.632C228.083 146.699 228.119 146.755 228.142 146.8L228.225 146.935C228.209 146.884 228.187 146.835 228.16 146.789C228.16 146.744 228.113 146.688 228.083 146.62C228.054 146.553 228.019 146.48 227.989 146.396C227.91 146.196 227.846 145.991 227.795 145.783C227.732 145.53 227.687 145.272 227.66 145.013C227.643 144.755 227.643 144.496 227.66 144.238C227.675 144.025 227.702 143.813 227.742 143.603C227.755 143.523 227.772 143.444 227.795 143.367C227.795 143.293 227.825 143.232 227.836 143.187C227.848 143.142 227.872 143.029 227.872 143.029Z" fill="#263238"/>
<path d="M229.443 153.898C229.443 153.898 231.607 151.881 236.129 151.881C240.651 151.881 242.967 153.898 242.967 153.898C240.927 155.075 238.589 155.697 236.205 155.697C233.822 155.697 231.484 155.075 229.443 153.898Z" fill="#2F27CE"/>
<path d="M164.051 155.922H208.998C209.529 155.923 210.054 155.824 210.545 155.63C211.035 155.436 211.481 155.152 211.856 154.793C212.231 154.435 212.529 154.009 212.732 153.54C212.934 153.071 213.038 152.569 213.038 152.061V139.596L217.994 135.393H164.051C163.521 135.393 162.996 135.492 162.505 135.686C162.015 135.881 161.57 136.165 161.195 136.523C160.82 136.882 160.522 137.308 160.319 137.776C160.116 138.244 160.012 138.746 160.012 139.254V152.061C160.011 152.569 160.115 153.071 160.318 153.54C160.52 154.009 160.818 154.435 161.193 154.793C161.568 155.152 162.014 155.436 162.504 155.63C162.995 155.824 163.521 155.923 164.051 155.922Z" fill="#EBEBEB"/>
<path d="M206.975 141.484C206.975 141.568 197.72 141.63 186.301 141.63C174.882 141.63 165.627 141.568 165.627 141.484C165.627 141.4 174.882 141.338 186.301 141.338C197.72 141.338 206.975 141.405 206.975 141.484Z" fill="white"/>
<path d="M206.975 144.822C206.975 144.906 197.72 144.968 186.301 144.968C174.882 144.968 165.627 144.906 165.627 144.822C165.627 144.738 174.882 144.676 186.301 144.676C197.72 144.676 206.975 144.743 206.975 144.822Z" fill="white"/>
<path d="M206.975 148.162C206.975 148.24 197.72 148.308 186.301 148.308C174.882 148.308 165.627 148.24 165.627 148.162C165.627 148.083 174.882 148.016 186.301 148.016C197.72 148.016 206.975 148.083 206.975 148.162Z" fill="white"/>
<path d="M206.975 151.5C206.975 151.578 197.72 151.646 186.301 151.646C174.882 151.646 165.627 151.578 165.627 151.5C165.627 151.421 174.882 151.354 186.301 151.354C197.72 151.354 206.975 151.415 206.975 151.5Z" fill="white"/>
<path d="M236.204 225.52C243.488 225.52 249.393 219.889 249.393 212.943C249.393 205.996 243.488 200.365 236.204 200.365C228.92 200.365 223.016 205.996 223.016 212.943C223.016 219.889 228.92 225.52 236.204 225.52Z" fill="#E0E0E0"/>
<path d="M239.815 220.378H232.876C232.758 220.378 232.642 220.356 232.533 220.313C232.424 220.269 232.325 220.206 232.242 220.126C232.159 220.046 232.093 219.951 232.049 219.847C232.004 219.743 231.982 219.631 231.982 219.518C231.982 219.292 232.077 219.074 232.244 218.914C232.412 218.754 232.639 218.664 232.876 218.664H239.815C240.052 218.664 240.279 218.754 240.447 218.914C240.614 219.074 240.708 219.292 240.708 219.518C240.709 219.631 240.687 219.743 240.642 219.847C240.597 219.951 240.532 220.046 240.449 220.126C240.366 220.206 240.267 220.269 240.158 220.313C240.049 220.356 239.932 220.378 239.815 220.378Z" fill="#263238"/>
<path d="M236.74 204.766H236.129V207.71H236.74V204.766Z" fill="#263238"/>
<path d="M227.444 216.54C228.431 216.54 229.231 215.775 229.231 214.832C229.231 213.888 228.431 213.123 227.444 213.123C226.457 213.123 225.656 213.888 225.656 214.832C225.656 215.775 226.457 216.54 227.444 216.54Z" fill="#2F27CE"/>
<path d="M245.518 216.421C246.505 216.421 247.306 215.656 247.306 214.712C247.306 213.769 246.505 213.004 245.518 213.004C244.531 213.004 243.73 213.769 243.73 214.712C243.73 215.656 244.531 216.421 245.518 216.421Z" fill="#2F27CE"/>
<path d="M236.699 207.092C236.699 207.092 243.979 207.008 245.131 213.033C246.284 219.057 240.127 219.175 238.358 219.288C237.558 219.338 235.841 219.344 234.324 219.321C230.966 219.265 228.597 218.641 227.791 215.668C227.695 215.319 227.634 214.961 227.609 214.601C227.397 211.341 229.702 206.929 236.699 207.092Z" fill="#2F27CE"/>
<path d="M231.419 216.27L242.003 216.428C242.536 216.435 243.049 216.241 243.432 215.887C243.814 215.533 244.034 215.048 244.044 214.539C244.05 214.031 243.845 213.54 243.473 213.176C243.102 212.811 242.594 212.602 242.062 212.595L231.478 212.432C230.946 212.424 230.432 212.619 230.049 212.973C229.667 213.327 229.447 213.811 229.438 214.32C229.434 214.573 229.482 214.823 229.579 215.058C229.677 215.292 229.822 215.506 230.006 215.688C230.19 215.869 230.409 216.013 230.652 216.113C230.894 216.213 231.155 216.267 231.419 216.27Z" fill="#263238"/>
<path d="M239.803 214.33C239.818 214.411 239.848 214.487 239.894 214.556C239.939 214.625 239.998 214.684 240.067 214.731C240.137 214.778 240.215 214.812 240.298 214.83C240.381 214.848 240.466 214.85 240.55 214.836C240.634 214.823 240.714 214.793 240.786 214.75C240.858 214.707 240.92 214.65 240.969 214.584C241.019 214.518 241.054 214.443 241.072 214.364C241.091 214.285 241.094 214.203 241.079 214.122C241.07 214.037 241.043 213.954 240.998 213.879C240.954 213.805 240.894 213.739 240.821 213.688C240.749 213.637 240.667 213.601 240.579 213.582C240.491 213.563 240.4 213.561 240.312 213.578C240.224 213.594 240.14 213.628 240.066 213.677C239.992 213.727 239.93 213.79 239.883 213.863C239.836 213.937 239.806 214.019 239.795 214.104C239.783 214.189 239.79 214.276 239.815 214.359L239.803 214.33Z" fill="white"/>
<path d="M232.412 214.219C232.437 214.339 232.498 214.449 232.588 214.536C232.678 214.623 232.793 214.682 232.918 214.706C233.044 214.731 233.174 214.719 233.292 214.673C233.411 214.626 233.512 214.548 233.583 214.446C233.655 214.345 233.693 214.226 233.694 214.103C233.695 213.981 233.657 213.861 233.587 213.759C233.516 213.657 233.415 213.578 233.297 213.531C233.179 213.483 233.049 213.47 232.924 213.494C232.84 213.509 232.761 213.54 232.69 213.585C232.619 213.63 232.558 213.688 232.511 213.755C232.463 213.822 232.43 213.898 232.413 213.977C232.396 214.057 232.396 214.139 232.412 214.219Z" fill="white"/>
<path d="M237.439 204.703C237.439 204.893 237.38 205.079 237.269 205.237C237.159 205.395 237.002 205.518 236.818 205.591C236.634 205.664 236.432 205.683 236.237 205.646C236.042 205.609 235.863 205.517 235.722 205.383C235.582 205.248 235.486 205.077 235.447 204.891C235.408 204.704 235.428 204.511 235.504 204.335C235.58 204.16 235.709 204.01 235.875 203.904C236.04 203.799 236.234 203.742 236.433 203.742C236.7 203.742 236.956 203.843 237.144 204.024C237.333 204.204 237.439 204.448 237.439 204.703Z" fill="#2F27CE"/>
<path d="M237.95 214.045C237.95 214.045 237.991 214.096 238.015 214.197C238.033 214.34 238.019 214.486 237.974 214.624C237.907 214.837 237.786 215.03 237.621 215.186C237.417 215.38 237.149 215.502 236.862 215.529C236.576 215.551 236.289 215.48 236.051 215.326C235.862 215.204 235.707 215.04 235.598 214.849C235.529 214.719 235.489 214.578 235.48 214.433C235.48 214.332 235.48 214.275 235.516 214.275C235.551 214.275 235.575 214.489 235.769 214.747C235.88 214.897 236.022 215.023 236.186 215.118C236.384 215.227 236.611 215.277 236.839 215.264C237.058 215.238 237.263 215.147 237.427 215.006C237.572 214.886 237.69 214.739 237.774 214.573C237.927 214.27 237.903 214.051 237.95 214.045Z" fill="white"/>
<path d="M245.118 212.836C245.118 212.836 245.118 212.892 245.171 212.988C245.195 213.046 245.215 213.106 245.23 213.168C245.23 213.235 245.271 213.314 245.289 213.404C245.333 213.613 245.364 213.825 245.383 214.039C245.403 214.301 245.403 214.564 245.383 214.825C245.36 215.087 245.314 215.346 245.248 215.601C245.193 215.81 245.122 216.015 245.036 216.214C245.007 216.29 244.974 216.365 244.936 216.438C244.912 216.497 244.882 216.553 244.848 216.607L244.766 216.742C244.781 216.691 244.803 216.642 244.83 216.596C244.83 216.551 244.877 216.495 244.907 216.427C244.936 216.36 244.971 216.287 245.001 216.202C245.081 216.003 245.145 215.798 245.195 215.59C245.258 215.338 245.303 215.083 245.33 214.825C245.348 214.565 245.348 214.304 245.33 214.044C245.316 213.833 245.288 213.623 245.248 213.415C245.235 213.333 245.218 213.253 245.195 213.173C245.195 213.1 245.165 213.044 245.154 212.993C245.134 212.943 245.122 212.89 245.118 212.836Z" fill="#263238"/>
<path d="M227.872 212.875C227.847 212.923 227.827 212.974 227.813 213.027C227.813 213.072 227.778 213.134 227.754 213.201C227.731 213.268 227.713 213.353 227.695 213.443C227.65 213.652 227.621 213.864 227.607 214.078C227.587 214.34 227.587 214.603 227.607 214.864C227.631 215.126 227.676 215.385 227.742 215.64C227.797 215.849 227.868 216.054 227.954 216.253C227.983 216.337 228.025 216.41 228.054 216.477C228.083 216.545 228.119 216.601 228.142 216.646L228.225 216.781C228.21 216.73 228.189 216.68 228.16 216.635C228.16 216.59 228.113 216.534 228.083 216.466C228.054 216.399 228.019 216.326 227.989 216.236C227.91 216.038 227.845 215.835 227.795 215.629C227.732 215.375 227.687 215.118 227.66 214.859C227.643 214.601 227.643 214.342 227.66 214.083C227.675 213.87 227.702 213.658 227.742 213.448C227.755 213.369 227.772 213.29 227.795 213.212C227.795 213.139 227.825 213.077 227.836 213.032C227.848 212.987 227.872 212.875 227.872 212.875Z" fill="#263238"/>
<path d="M229.443 223.744C229.443 223.744 231.607 221.727 236.129 221.727C240.651 221.727 242.967 223.744 242.967 223.744C240.927 224.921 238.589 225.543 236.205 225.543C233.822 225.543 231.484 224.921 229.443 223.744Z" fill="#2F27CE"/>
<path d="M164.051 225.768H208.998C209.529 225.769 210.054 225.67 210.545 225.476C211.035 225.282 211.481 224.998 211.856 224.639C212.231 224.28 212.529 223.854 212.732 223.386C212.934 222.917 213.038 222.414 213.038 221.907V209.442L217.994 205.238H164.051C163.521 205.238 162.996 205.338 162.505 205.532C162.015 205.726 161.57 206.011 161.195 206.369C160.82 206.728 160.522 207.153 160.319 207.622C160.116 208.09 160.012 208.592 160.012 209.099V221.907C160.011 222.414 160.115 222.917 160.318 223.386C160.52 223.854 160.818 224.28 161.193 224.639C161.568 224.998 162.014 225.282 162.504 225.476C162.995 225.67 163.521 225.769 164.051 225.768Z" fill="#EBEBEB"/>
<path d="M164.051 245.264H208.998C209.529 245.264 210.055 245.163 210.545 244.969C211.036 244.775 211.481 244.49 211.856 244.131C212.232 243.772 212.529 243.345 212.732 242.876C212.934 242.407 213.038 241.904 213.038 241.397V237.266L217.994 233.062H164.051C163.521 233.062 162.996 233.162 162.505 233.356C162.015 233.55 161.57 233.835 161.195 234.193C160.82 234.552 160.522 234.977 160.319 235.446C160.116 235.914 160.012 236.416 160.012 236.923V241.419C160.016 242.44 160.444 243.418 161.201 244.139C161.958 244.859 162.983 245.264 164.051 245.264Z" fill="#EBEBEB"/>
<path d="M206.975 211.312C206.975 211.396 197.72 211.458 186.301 211.458C174.882 211.458 165.627 211.396 165.627 211.312C165.627 211.228 174.882 211.166 186.301 211.166C197.72 211.166 206.975 211.25 206.975 211.312Z" fill="white"/>
<path d="M206.975 214.685C206.975 214.764 197.72 214.831 186.301 214.831C174.882 214.831 165.627 214.764 165.627 214.685C165.627 214.607 174.882 214.539 186.301 214.539C197.72 214.539 206.975 214.59 206.975 214.685Z" fill="white"/>
<path d="M206.975 218.006C206.975 218.084 197.72 218.152 186.301 218.152C174.882 218.152 165.627 218.084 165.627 218.006C165.627 217.927 174.882 217.859 186.301 217.859C197.72 217.859 206.975 217.921 206.975 218.006Z" fill="white"/>
<path d="M206.975 221.345C206.975 221.424 197.72 221.491 186.301 221.491C174.882 221.491 165.627 221.424 165.627 221.345C165.627 221.267 174.882 221.199 186.301 221.199C197.72 221.199 206.975 221.261 206.975 221.345Z" fill="white"/>
<path d="M207.116 239.339C207.116 239.418 197.955 239.486 186.66 239.486C175.364 239.486 166.197 239.418 166.197 239.339C166.197 239.261 175.358 239.193 186.66 239.193C197.961 239.193 207.116 239.255 207.116 239.339Z" fill="white"/>
<path d="M56.7071 231.201C57.4991 231.383 58.2443 231.716 58.8981 232.181C59.5518 232.646 60.1006 233.232 60.5114 233.904C61.3242 235.258 61.8047 236.77 61.9168 238.327C62.2166 241.317 61.1288 244.616 59.7764 247.319C56.7247 245.689 55.3076 242.064 54.7079 240.181C53.7612 237.208 53.9376 231.279 56.7071 231.189" fill="#455A64"/>
<path d="M63.8344 251.545C63.47 250.748 63.3324 249.874 63.4357 249.01C63.539 248.147 63.8794 247.324 64.4224 246.627C64.9812 245.941 65.6779 245.368 66.4716 244.942C67.2652 244.517 68.1398 244.247 69.044 244.149C69.4499 244.065 69.8698 244.065 70.2755 244.149C70.6812 244.234 71.0633 244.4 71.396 244.638C71.6665 244.912 71.8549 245.251 71.9418 245.618C72.0287 245.986 72.0108 246.369 71.89 246.728C71.6402 247.443 71.1981 248.083 70.6081 248.583C68.6736 250.37 66.4568 251.758 63.7756 251.545" fill="#455A64"/>
<path d="M62.5166 261.173C62.4819 260.968 62.4681 260.761 62.4754 260.554C62.4754 260.116 62.4754 259.548 62.4284 258.868C62.3086 257.005 62.5072 255.135 63.0164 253.333C63.5631 251.525 64.6044 249.89 66.0328 248.595C66.4702 248.21 66.9538 247.876 67.4734 247.6C67.6121 247.525 67.7554 247.457 67.9027 247.398C67.9513 247.37 68.0052 247.351 68.0614 247.342C67.3766 247.735 66.7344 248.192 66.1445 248.707C64.7643 250.006 63.7526 251.619 63.2045 253.395C62.6986 255.177 62.4746 257.022 62.5401 258.868C62.5401 259.582 62.5401 260.155 62.5401 260.554C62.5481 260.761 62.5402 260.967 62.5166 261.173Z" fill="#263238"/>
<path d="M56.989 235.73C57.0267 235.812 57.0562 235.897 57.0772 235.983C57.136 236.174 57.2066 236.422 57.2889 236.725C57.4712 237.372 57.724 238.31 58.018 239.473C58.606 241.8 59.394 245.026 60.1701 248.6C60.9463 252.175 61.5696 255.434 61.987 257.795C62.1928 258.975 62.3516 259.93 62.4574 260.605C62.5045 260.919 62.5398 261.167 62.5692 261.369C62.5785 261.459 62.5785 261.549 62.5692 261.639C62.5387 261.552 62.5152 261.464 62.4986 261.375C62.4574 261.178 62.4104 260.931 62.3457 260.616C62.2105 259.936 62.0282 258.986 61.8048 257.834C61.3461 255.479 60.6993 252.214 59.9232 248.656C59.147 245.099 58.3944 241.856 57.8416 239.524C57.5653 238.4 57.3418 237.439 57.1831 236.759C57.1125 236.45 57.0537 236.197 57.0126 236.006C56.9936 235.915 56.9857 235.823 56.989 235.73Z" fill="#263238"/>
<path d="M59.7764 254.226C59.0692 252.523 57.9487 251.005 56.5072 249.797C55.0657 248.589 53.3445 247.727 51.4856 247.279C50.5389 247.06 49.3629 247.032 48.7866 247.785C48.2104 248.538 48.6161 249.606 49.1512 250.387C50.2951 251.994 51.9097 253.241 53.7926 253.974C55.6754 254.707 57.7427 254.892 59.7352 254.507" fill="#455A64"/>
<path d="M52.5198 249.938C52.7189 249.961 52.9156 250.001 53.1078 250.056C53.3405 250.107 53.5702 250.171 53.7958 250.247C54.0545 250.337 54.3838 250.415 54.6836 250.556C54.9835 250.696 55.3657 250.831 55.7244 251.022C56.1182 251.213 56.4992 251.427 56.8651 251.663C57.7082 252.197 58.4836 252.824 59.176 253.529C59.8549 254.244 60.4467 255.03 60.94 255.872C61.1573 256.236 61.3536 256.612 61.528 256.996C61.6786 257.334 61.8101 257.679 61.9219 258.03C62.0395 258.345 62.0866 258.648 62.1571 258.907C62.2134 259.129 62.2566 259.354 62.2865 259.581C62.3225 259.767 62.3422 259.955 62.3453 260.143C62.2924 260.143 62.1983 259.323 61.7573 258.058C61.6408 257.716 61.5054 257.381 61.3516 257.052C61.1772 256.668 60.9809 256.293 60.7636 255.928C60.2648 255.105 59.6733 254.336 58.9996 253.635C58.3163 252.946 57.5595 252.326 56.7416 251.786C56.3536 251.55 55.989 251.32 55.6244 251.146C55.295 250.967 54.9554 250.805 54.6072 250.662C53.3548 250.168 52.5022 249.982 52.5198 249.938Z" fill="#263238"/>
<path d="M71.2059 85.2549L69.0303 78.7638C72.1247 73.9644 73.2289 68.2323 72.1259 62.6943C71.0228 57.1562 67.7923 52.2128 63.0694 48.8358C58.3465 45.4588 52.4727 43.8924 46.6027 44.4446C40.7328 44.9968 35.2912 47.6276 31.3477 51.8198C27.4042 56.0121 25.2441 61.4626 25.2918 67.0999C25.3395 72.7372 27.5917 78.1536 31.6057 82.2843C35.6197 86.415 41.1051 88.9613 46.9836 89.4226C52.8622 89.8839 58.7086 88.2268 63.3738 84.7772L71.2059 85.2549Z" fill="#FAFAFA"/>
<path d="M71.2058 85.2557H70.7119L69.2184 85.1827L63.3384 84.8736C63.3294 84.8736 63.3205 84.8719 63.3122 84.8684C63.304 84.865 63.2965 84.8599 63.2905 84.8535C63.2844 84.8472 63.2797 84.8397 63.2768 84.8315C63.274 84.8234 63.2729 84.8147 63.2737 84.8061C63.2712 84.795 63.2712 84.7835 63.2737 84.7724L63.3678 84.8624C59.282 87.9126 54.2577 89.5897 49.0735 89.6337C47.7642 89.627 46.4572 89.5275 45.1633 89.3359C39.1513 88.4365 33.7362 85.3492 30.0517 80.7204C27.9997 78.1147 26.5542 75.1197 25.8122 71.9364C25.0059 68.5516 25.0382 65.0337 25.9063 61.663C26.018 61.2359 26.1356 60.8031 26.2532 60.376C26.3708 59.9489 26.5649 59.533 26.7178 59.1115C26.8667 58.6852 27.0395 58.2669 27.2352 57.8582C27.4351 57.4536 27.6409 57.049 27.8232 56.6387C28.0255 56.2286 28.2574 55.8324 28.517 55.4529L29.2638 54.2839L30.1223 53.1599L30.5574 52.5979C30.7044 52.4181 30.8749 52.2551 31.0337 52.0809C33.5765 49.2866 36.8022 47.136 40.424 45.8202C43.872 44.5645 47.5746 44.0782 51.2491 44.3984C54.7019 44.7265 58.0366 45.778 61.0158 47.4781C66.3102 50.4835 70.1719 55.3416 71.7821 61.0223C72.1222 62.2395 72.366 63.4794 72.5112 64.7315C72.6054 65.902 72.627 67.0767 72.5759 68.2496C72.3506 71.9875 71.1498 75.6121 69.0832 78.7928V78.7422C69.777 80.8553 70.3062 82.4851 70.6708 83.5978C70.8472 84.1598 70.9765 84.5476 71.0706 84.8342L71.2 85.2501C71.2 85.2501 71.1412 85.0984 71.0412 84.8174L70.612 83.5754C70.2356 82.4514 69.677 80.8665 68.9597 78.7815C68.9534 78.7652 68.9534 78.7472 68.9597 78.7309C70.9874 75.5574 72.1574 71.9516 72.3642 68.2384C72.4093 67.0764 72.3818 65.9129 72.2819 64.754C72.135 63.5128 71.8893 62.284 71.5469 61.0785C70.2857 56.7054 67.6698 52.7992 64.0429 49.8734C60.416 46.9475 55.9479 45.1388 51.2256 44.685C47.5973 44.3676 43.9411 44.8462 40.5358 46.0844C36.9689 47.3889 33.7925 49.5119 31.2865 52.2664C31.1336 52.4406 30.9631 52.5979 30.8161 52.7778L30.3869 53.3398L29.5402 54.4244L28.811 55.5822C28.5523 55.9602 28.3205 56.3545 28.1172 56.7624C27.9173 57.1614 27.7174 57.566 27.5292 57.965C27.3374 58.3681 27.1686 58.7809 27.0235 59.2014C26.8706 59.6173 26.6884 60.0276 26.559 60.4491C26.4296 60.8706 26.3297 61.2977 26.218 61.7192C25.3654 65.0381 25.3291 68.5007 26.1121 71.8352C27.131 76.2141 29.5025 80.1995 32.9193 83.2748C36.3362 86.3501 40.6407 88.3736 45.275 89.083C46.5572 89.2754 47.8522 89.3787 49.15 89.3921C50.3613 89.3872 51.5705 89.2913 52.7662 89.1054C56.6188 88.5055 60.2554 87.0012 63.3502 84.7275C63.3562 84.7213 63.3635 84.7165 63.3716 84.7131C63.3797 84.7098 63.3884 84.7081 63.3972 84.7081C63.406 84.7081 63.4147 84.7098 63.4228 84.7131C63.4309 84.7165 63.4382 84.7213 63.4442 84.7275C63.4529 84.7389 63.4575 84.7527 63.4575 84.7668C63.4575 84.7809 63.4529 84.7947 63.4442 84.8061L63.3972 84.705L69.2066 85.0871L70.7119 85.1883L71.2058 85.2557Z" fill="#263238"/>
<path d="M42.3 66.9573C42.3 67.4097 42.1596 67.8519 41.8967 68.228C41.6337 68.6042 41.2599 68.8974 40.8227 69.0705C40.3854 69.2436 39.9042 69.2889 39.4399 69.2007C38.9757 69.1124 38.5493 68.8945 38.2146 68.5747C37.8799 68.2548 37.652 67.8472 37.5597 67.4035C37.4673 66.9598 37.5147 66.4999 37.6958 66.0819C37.877 65.664 38.1837 65.3067 38.5773 65.0554C38.9708 64.8041 39.4335 64.6699 39.9068 64.6699C40.5411 64.6714 41.1489 64.9129 41.5973 65.3415C42.0458 65.7701 42.2984 66.3511 42.3 66.9573Z" fill="#263238"/>
<path d="M51.884 66.9573C51.884 67.4097 51.7436 67.8519 51.4807 68.228C51.2177 68.6042 50.8439 68.8974 50.4066 69.0705C49.9693 69.2436 49.4882 69.2889 49.0239 69.2007C48.5597 69.1124 48.1333 68.8945 47.7986 68.5747C47.4639 68.2548 47.236 67.8472 47.1436 67.4035C47.0513 66.9598 47.0987 66.4999 47.2798 66.0819C47.461 65.664 47.7677 65.3067 48.1612 65.0554C48.5548 64.8041 49.0175 64.6699 49.4908 64.6699C50.125 64.6714 50.7329 64.9129 51.1813 65.3415C51.6298 65.7701 51.8824 66.3511 51.884 66.9573Z" fill="#263238"/>
<path d="M61.4458 65.8162C61.6817 66.208 61.7909 66.6578 61.7596 67.1089C61.7282 67.56 61.5577 67.992 61.2696 68.3505C60.9815 68.709 60.5888 68.9779 60.1409 69.1232C59.693 69.2685 59.2101 69.2837 58.7532 69.1669C58.2963 69.0501 57.8859 68.8065 57.5737 68.4669C57.2616 68.1273 57.0617 67.7068 56.9994 67.2587C56.9371 66.8106 57.015 66.3549 57.2235 65.9491C57.432 65.5433 57.7615 65.2057 58.1706 64.9788C58.4431 64.8278 58.744 64.7296 59.0563 64.6899C59.3685 64.6502 59.6858 64.6698 59.9901 64.7476C60.2944 64.8254 60.5796 64.9599 60.8294 65.1432C61.0792 65.3266 61.2887 65.5553 61.4458 65.8162Z" fill="#263238"/>
<path d="M62.3984 168.04L37.6318 165.589L27.1419 142.834L18.9922 144.863C18.9922 144.863 25.0133 168.911 31.7518 172.637C38.4903 176.363 61.5105 177.032 61.5105 177.032L62.3984 168.04Z" fill="#2F27CE"/>
<path d="M75.5642 179.613C79.594 175.279 79.1852 168.644 74.651 164.792C70.1169 160.94 63.1743 161.331 59.1444 165.665C55.1145 169.999 55.5233 176.634 60.0575 180.486C64.5917 184.338 71.5343 183.947 75.5642 179.613Z" fill="#263238"/>
<path d="M67.355 183.145C64.8097 183.145 62.3432 182.302 60.3757 180.758C58.4082 179.215 57.0615 177.068 56.5649 174.682C56.0684 172.296 56.4528 169.819 57.6526 167.673C58.8524 165.528 60.7934 163.847 63.145 162.916C65.4965 161.985 68.113 161.862 70.5486 162.568C72.9843 163.274 75.0884 164.766 76.5024 166.788C77.9165 168.811 78.553 171.24 78.3035 173.661C78.054 176.082 76.934 178.345 75.1342 180.066C74.115 181.045 72.9026 181.821 71.5673 182.35C70.232 182.879 68.8003 183.149 67.355 183.145ZM67.355 162.149C64.8166 162.146 62.3558 162.985 60.3919 164.522C58.428 166.06 57.0825 168.2 56.5847 170.579C56.0868 172.958 56.4675 175.429 57.6617 177.57C58.8559 179.71 60.7899 181.389 63.134 182.32C65.4782 183.251 68.0875 183.376 70.5174 182.675C72.9473 181.973 75.0474 180.487 76.46 178.472C77.8725 176.456 78.5101 174.034 78.2641 171.619C78.0181 169.205 76.9036 166.946 75.1107 165.229C74.0952 164.251 72.8869 163.475 71.5556 162.946C70.2243 162.418 68.7966 162.147 67.355 162.149Z" fill="#263238"/>
<path d="M35.4111 174.433C39.8351 173.418 42.5604 169.167 41.4983 164.939C40.4362 160.711 35.9889 158.106 31.565 159.121C27.141 160.136 24.4157 164.387 25.4778 168.615C26.5399 172.843 30.9872 175.448 35.4111 174.433Z" fill="#263238"/>
<path d="M27.2332 144.673C29.8624 142.16 29.8624 138.086 27.2332 135.573C24.6039 133.06 20.3411 133.06 17.7118 135.573C15.0826 138.086 15.0826 142.16 17.7118 144.673C20.3411 147.186 24.6039 147.186 27.2332 144.673Z" fill="#263238"/>
<path d="M32.9657 136.64L27.4221 141.115L25.4228 138.852L30.9665 134.377C31.2584 134.142 31.6362 134.027 32.017 134.057C32.3977 134.088 32.7501 134.262 32.9966 134.541L33.1331 134.696C33.2561 134.834 33.3493 134.994 33.4075 135.166C33.4657 135.339 33.4876 135.521 33.472 135.701C33.4565 135.882 33.4038 136.058 33.3169 136.219C33.23 136.38 33.1107 136.523 32.9657 136.64Z" fill="#263238"/>
<path d="M25.9238 128.445V135.189C25.9238 135.241 25.9021 135.291 25.8636 135.328C25.825 135.365 25.7726 135.386 25.718 135.386H23.0368C22.9822 135.386 22.9298 135.365 22.8912 135.328C22.8526 135.291 22.831 135.241 22.831 135.189V128.445C22.831 128.08 22.9827 127.73 23.2529 127.472C23.5231 127.213 23.8895 127.068 24.2715 127.068H24.4832C24.8653 127.068 25.2317 127.213 25.5019 127.472C25.7721 127.73 25.9238 128.08 25.9238 128.445Z" fill="#263238"/>
<path d="M20.9317 128.471L22.4721 135.052C22.484 135.103 22.4743 135.156 22.4451 135.2C22.4158 135.244 22.3695 135.275 22.3162 135.287L19.6996 135.846C19.6463 135.858 19.5905 135.848 19.5444 135.82C19.4983 135.793 19.4658 135.748 19.4538 135.697L17.9134 129.116C17.83 128.76 17.8981 128.386 18.1028 128.078C18.3075 127.769 18.6319 127.551 19.0048 127.472L19.2113 127.428C19.5842 127.348 19.9749 127.413 20.2975 127.609C20.6202 127.804 20.8483 128.114 20.9317 128.471Z" fill="#263238"/>
<path d="M15.5601 130.12L19.0881 135.961C19.1154 136.006 19.1228 136.06 19.1087 136.11C19.0946 136.16 19.0601 136.203 19.0128 136.229L16.6908 137.511C16.6435 137.537 16.5873 137.544 16.5346 137.53C16.4819 137.517 16.4369 137.484 16.4096 137.439L12.8816 131.598C12.6906 131.282 12.6388 130.906 12.7377 130.553C12.8366 130.201 13.078 129.9 13.4089 129.717L13.5922 129.616C13.9231 129.434 14.3163 129.384 14.6854 129.479C15.0545 129.573 15.3691 129.804 15.5601 130.12Z" fill="#263238"/>
<path d="M170.036 226.988L177.449 223.975L156.059 175.904L148.646 178.917L170.036 226.988Z" fill="#2F27CE"/>
<path d="M157.121 180.497C161.042 176.073 160.469 169.449 155.84 165.701C151.212 161.953 144.281 162.501 140.36 166.925C136.438 171.349 137.012 177.974 141.641 181.721C146.269 185.469 153.2 184.921 157.121 180.497Z" fill="#263238"/>
<path d="M148.765 184.247C147.042 184.248 145.342 183.862 143.804 183.121C142.265 182.379 140.93 181.303 139.906 179.978C138.882 178.653 138.198 177.117 137.908 175.494C137.619 173.87 137.732 172.204 138.24 170.63C138.841 168.773 139.969 167.113 141.499 165.832C143.028 164.552 144.9 163.702 146.905 163.377C148.909 163.051 150.969 163.264 152.855 163.991C154.741 164.718 156.379 165.93 157.587 167.493C158.796 169.057 159.527 170.909 159.699 172.846C159.872 174.782 159.479 176.727 158.565 178.463C157.651 180.199 156.251 181.658 154.521 182.68C152.791 183.701 150.798 184.244 148.765 184.247ZM148.765 163.24C146.735 163.242 144.745 163.782 143.017 164.8C141.289 165.819 139.891 167.275 138.977 169.008C138.064 170.741 137.671 172.681 137.843 174.615C138.015 176.548 138.745 178.398 139.951 179.958C141.157 181.519 142.793 182.729 144.676 183.454C146.559 184.179 148.615 184.39 150.617 184.065C152.618 183.739 154.485 182.89 156.011 181.61C157.537 180.331 158.662 178.672 159.261 176.818C160.115 174.161 159.831 171.289 158.472 168.831C157.112 166.374 154.789 164.533 152.011 163.712C150.948 163.397 149.842 163.238 148.729 163.24H148.765Z" fill="#263238"/>
<path d="M170.98 205.099C172.198 200.909 169.632 196.569 165.249 195.405C160.865 194.24 156.324 196.693 155.106 200.883C153.888 205.072 156.454 209.413 160.838 210.577C165.221 211.741 169.762 209.289 170.98 205.099Z" fill="#263238"/>
<path d="M175.465 233.932C179.183 233.932 182.198 231.051 182.198 227.497C182.198 223.943 179.183 221.062 175.465 221.062C171.747 221.062 168.732 223.943 168.732 227.497C168.732 231.051 171.747 233.932 175.465 233.932Z" fill="#263238"/>
<path d="M166.66 233.979L170.43 228.066L173.076 229.607L169.306 235.52C169.107 235.832 168.787 236.055 168.416 236.141C168.044 236.227 167.652 236.169 167.326 235.979L167.145 235.874C166.983 235.78 166.842 235.657 166.729 235.511C166.617 235.364 166.536 235.199 166.491 235.023C166.446 234.846 166.437 234.664 166.466 234.484C166.495 234.305 166.561 234.133 166.66 233.979Z" fill="#263238"/>
<path d="M176.045 239.618L173.811 233.221C173.794 233.172 173.798 233.118 173.822 233.071C173.847 233.024 173.89 232.989 173.941 232.972L176.485 232.161C176.536 232.144 176.593 232.148 176.642 232.171C176.691 232.195 176.728 232.236 176.745 232.285L178.979 238.682C179.037 238.854 179.059 239.036 179.043 239.216C179.027 239.396 178.975 239.572 178.888 239.732C178.802 239.893 178.683 240.036 178.538 240.153C178.394 240.27 178.227 240.358 178.047 240.413L177.846 240.477C177.488 240.587 177.099 240.559 176.763 240.398C176.426 240.237 176.169 239.958 176.045 239.618Z" fill="#263238"/>
<path d="M180.778 238.084L177.137 232.308C177.123 232.286 177.113 232.261 177.109 232.236C177.105 232.21 177.107 232.184 177.113 232.159C177.12 232.134 177.131 232.11 177.147 232.09C177.163 232.069 177.183 232.051 177.207 232.038L179.503 230.715C179.526 230.702 179.552 230.693 179.579 230.689C179.605 230.685 179.633 230.687 179.659 230.693C179.685 230.699 179.71 230.71 179.732 230.725C179.753 230.741 179.772 230.76 179.786 230.782L183.427 236.559C183.624 236.871 183.683 237.246 183.591 237.601C183.499 237.955 183.264 238.26 182.937 238.449L182.755 238.553C182.428 238.742 182.036 238.798 181.665 238.71C181.294 238.622 180.975 238.397 180.778 238.084Z" fill="#263238"/>
<path d="M185.324 234.899L180.043 230.427C180.002 230.393 179.977 230.344 179.974 230.292C179.97 230.24 179.989 230.189 180.025 230.15L181.799 228.236C181.835 228.196 181.886 228.173 181.941 228.17C181.995 228.166 182.049 228.184 182.09 228.219L187.371 232.691C187.657 232.933 187.831 233.274 187.854 233.638C187.877 234.003 187.748 234.361 187.494 234.635L187.354 234.786C187.1 235.058 186.744 235.222 186.363 235.243C185.983 235.265 185.609 235.141 185.324 234.899Z" fill="#263238"/>
<path d="M64.0918 161.711C64.0918 161.711 64.8856 235.411 108.157 236.85C151.427 238.289 153.244 162.239 153.244 161.711C153.244 161.711 148.135 150.724 108.668 151.151C69.2015 151.578 64.0918 161.711 64.0918 161.711Z" fill="#2F27CE"/>
<path d="M88.3878 148.74H124.961C127.348 148.74 129.283 146.891 129.283 144.61V144.008C129.283 141.727 127.348 139.878 124.961 139.878H88.3878C86.0009 139.878 84.066 141.727 84.066 144.008V144.61C84.066 146.891 86.0009 148.74 88.3878 148.74Z" fill="#263238"/>
<path d="M105.098 83.2051H108.256V67.9468H105.098V83.2051Z" fill="#263238"/>
<path d="M154.959 128.629C159.945 127.497 163.025 122.716 161.841 117.95C160.656 113.185 155.653 110.241 150.668 111.373C145.682 112.506 142.601 117.287 143.786 122.052C144.971 126.817 149.973 129.762 154.959 128.629Z" fill="#2F27CE"/>
<path d="M61.2026 128.054C66.2001 126.971 69.3325 122.22 68.1989 117.444C67.0653 112.667 62.0951 109.674 57.0976 110.757C52.1001 111.84 48.9678 116.591 50.1013 121.367C51.2349 126.144 56.2051 129.138 61.2026 128.054Z" fill="#2F27CE"/>
<path d="M104.84 79.8951C104.84 79.8951 67.1135 79.4624 61.1512 110.715C55.1888 141.968 87.082 142.53 96.2606 143.12C100.418 143.39 109.32 143.418 117.176 143.283C134.569 142.996 146.858 139.782 151.039 124.361C151.537 122.552 151.85 120.702 151.974 118.836C153.073 101.909 141.119 79.0634 104.84 79.8951Z" fill="#2F27CE"/>
<path d="M132.205 127.463L77.398 128.278C76.0305 128.301 74.6717 128.066 73.3993 127.586C72.1269 127.107 70.966 126.392 69.9829 125.483C68.9998 124.575 68.2139 123.489 67.6701 122.29C67.1264 121.09 66.8355 119.8 66.814 118.493C66.7907 117.186 67.0372 115.887 67.5395 114.671C68.0418 113.455 68.79 112.345 69.7413 111.406C70.6926 110.466 71.8284 109.715 73.0837 109.195C74.339 108.676 75.6892 108.398 77.057 108.377L131.864 107.562C133.232 107.538 134.591 107.773 135.864 108.252C137.137 108.731 138.298 109.446 139.281 110.355C140.265 111.264 141.05 112.349 141.594 113.549C142.137 114.749 142.428 116.039 142.448 117.347C142.473 118.654 142.227 119.953 141.725 121.17C141.223 122.386 140.474 123.496 139.523 124.436C138.571 125.376 137.435 126.127 136.18 126.646C134.924 127.165 133.574 127.443 132.205 127.463Z" fill="#263238"/>
<path d="M88.7888 117.408C88.6613 118.027 88.3445 118.597 87.8785 119.044C87.4125 119.491 86.8182 119.797 86.1707 119.921C85.5232 120.046 84.8516 119.984 84.2408 119.744C83.63 119.504 83.1075 119.096 82.7392 118.572C82.3709 118.048 82.1735 117.431 82.1719 116.8C82.1703 116.168 82.3645 115.551 82.73 115.025C83.0956 114.499 83.616 114.089 84.2256 113.846C84.8351 113.603 85.5064 113.538 86.1545 113.659C86.5851 113.74 86.9948 113.901 87.3602 114.133C87.7256 114.365 88.0396 114.664 88.2842 115.012C88.5288 115.36 88.6993 115.751 88.7859 116.162C88.8725 116.573 88.8734 116.996 88.7888 117.408Z" fill="white"/>
<path d="M127.061 116.824C126.935 117.444 126.619 118.014 126.153 118.463C125.688 118.911 125.094 119.217 124.446 119.342C123.799 119.468 123.127 119.407 122.515 119.167C121.904 118.927 121.381 118.519 121.012 117.995C120.643 117.471 120.445 116.854 120.443 116.223C120.441 115.591 120.636 114.973 121.001 114.447C121.367 113.921 121.887 113.511 122.497 113.268C123.107 113.024 123.779 112.96 124.427 113.081C125.295 113.244 126.061 113.73 126.554 114.432C127.048 115.134 127.231 115.994 127.061 116.824Z" fill="white"/>
<path d="M121.551 190.98C121.337 193.792 120.254 196.48 118.441 198.705C116.628 200.929 114.165 202.59 111.364 203.476C108.564 204.363 105.551 204.436 102.707 203.686C99.8625 202.936 97.315 201.397 95.386 199.264C93.4571 197.13 92.2334 194.498 91.8697 191.699C91.506 188.901 92.0186 186.062 93.3427 183.542C94.6669 181.022 96.743 178.934 99.3087 177.542C101.874 176.15 104.814 175.516 107.757 175.721C111.703 175.997 115.372 177.76 117.959 180.621C120.546 183.482 121.838 187.208 121.551 190.98Z" fill="#263238"/>
<path d="M117.512 190.699C117.355 192.748 116.566 194.708 115.244 196.329C113.922 197.95 112.127 199.159 110.085 199.805C108.044 200.451 105.848 200.504 103.775 199.957C101.702 199.41 99.8459 198.287 98.4405 196.732C97.035 195.176 96.1438 193.257 95.8794 191.218C95.615 189.178 95.9894 187.109 96.9552 185.273C97.9209 183.437 99.4348 181.915 101.305 180.902C103.176 179.888 105.319 179.426 107.463 179.577C108.887 179.676 110.277 180.042 111.553 180.654C112.829 181.267 113.966 182.114 114.899 183.147C115.833 184.18 116.544 185.379 116.992 186.674C117.44 187.97 117.617 189.338 117.512 190.699Z" fill="white"/>
<path d="M112.273 192.587C112.19 192.019 112.156 191.446 112.173 190.873C112.144 189.8 112.12 188.265 112.12 186.377L112.238 186.585L106.646 183.466H106.957L101.313 186.495C101.16 186.742 101.518 186.163 101.483 186.225V187.023V187.827C101.483 188.355 101.483 188.884 101.454 189.401C101.454 190.435 101.413 191.435 101.395 192.402L101.242 192.143L106.769 195.369H106.522C108.245 194.481 109.668 193.773 110.638 193.29C111.16 193.006 111.705 192.761 112.267 192.559C111.828 192.9 111.356 193.2 110.856 193.453C109.903 194.015 108.504 194.807 106.74 195.779L106.616 195.847L106.493 195.779L100.895 192.66L100.742 192.576V192.396C100.742 191.429 100.754 190.429 100.777 189.395C100.777 188.878 100.777 188.355 100.777 187.821V187.023V186.248C100.742 186.31 101.101 185.736 100.948 185.978L106.61 182.977L106.775 182.893L106.928 182.983L112.449 186.208L112.573 186.281V186.416C112.508 188.361 112.443 189.923 112.385 190.985C112.4 191.521 112.362 192.058 112.273 192.587Z" fill="#2F27CE"/>
<path d="M110.361 71.1537C112.393 69.2113 112.393 66.0621 110.361 64.1198C108.329 62.1774 105.034 62.1774 103.002 64.1198C100.97 66.0621 100.97 69.2113 103.002 71.1537C105.034 73.096 108.329 73.096 110.361 71.1537Z" fill="#2F27CE"/>
<path d="M98.3656 115.936C98.6125 115.964 98.4891 117.06 99.2182 118.561C99.6313 119.422 100.233 120.189 100.982 120.809C101.861 121.548 102.954 122.012 104.116 122.141C105.285 122.213 106.449 121.946 107.456 121.376C108.309 120.903 109.046 120.261 109.62 119.494C110.619 118.162 110.708 117.043 110.955 117.06C111.055 117.06 111.155 117.341 111.155 117.87C111.132 118.622 110.931 119.36 110.567 120.028C110.019 121.037 109.209 121.894 108.215 122.517C106.985 123.345 105.488 123.728 103.991 123.597C102.493 123.466 101.093 122.831 100.041 121.804C99.1828 121.019 98.5509 120.035 98.2068 118.949C97.9617 118.224 97.8972 117.454 98.0187 116.701C98.1186 116.178 98.2715 115.919 98.3656 115.936Z" fill="white"/>
<path d="M148.599 130.498C148.54 130.498 149.217 129.486 149.869 127.716C150.681 125.398 151.194 122.993 151.398 120.556C151.634 118.128 151.693 115.686 151.575 113.25C151.533 112.312 151.486 111.564 151.439 111.002C151.4 110.73 151.39 110.455 151.41 110.182C151.485 110.446 151.534 110.717 151.557 110.991C151.639 111.514 151.722 112.272 151.792 113.239C151.977 115.695 151.947 118.161 151.704 120.612C151.497 123.072 150.949 125.495 150.075 127.817C149.798 128.518 149.464 129.196 149.076 129.846C148.937 130.076 148.777 130.294 148.599 130.498Z" fill="#263238"/>
<path d="M61.2216 109.67C61.1883 109.943 61.1272 110.212 61.0393 110.474C60.9628 110.726 60.8805 111.036 60.8041 111.406C60.7276 111.777 60.61 112.182 60.5395 112.649C60.3333 113.732 60.1959 114.826 60.1279 115.925C60.0488 117.27 60.0684 118.618 60.1867 119.96C60.3181 121.3 60.5459 122.629 60.8688 123.939C61.1387 125.01 61.4765 126.065 61.8801 127.098C62.0389 127.542 62.2212 127.929 62.3682 128.278C62.5152 128.626 62.6563 128.918 62.7739 129.154C62.9079 129.397 63.0182 129.651 63.1032 129.913C62.9358 129.69 62.7902 129.453 62.668 129.205C62.5018 128.924 62.3507 128.635 62.2153 128.34C62.0506 128.002 61.8507 127.615 61.6802 127.171C61.2436 126.141 60.8821 125.084 60.5983 124.007C60.2542 122.684 60.0144 121.339 59.8809 119.983C59.7611 118.627 59.7493 117.265 59.8456 115.908C59.9276 114.799 60.0887 113.697 60.3278 112.609C60.416 112.143 60.5395 111.732 60.6394 111.367C60.7394 111.002 60.8335 110.693 60.9217 110.44C60.9996 110.176 61.0999 109.918 61.2216 109.67Z" fill="#263238"/>
<path d="M63.8926 161.648L64.116 161.71L64.7746 161.924L67.2795 162.767L69.0905 163.385C69.7549 163.599 70.4899 163.801 71.272 164.031C72.8419 164.475 74.6118 165.054 76.6228 165.504L79.7568 166.274C80.8505 166.538 82.003 166.735 83.1907 166.982C85.5427 167.499 88.1241 167.853 90.8347 168.269C96.6968 169.037 102.605 169.441 108.522 169.477C114.439 169.444 120.347 169.04 126.209 168.269C128.902 167.853 131.466 167.504 133.853 166.982C135.029 166.74 136.205 166.543 137.287 166.279L140.427 165.509C142.432 165.06 144.202 164.481 145.772 164.037C146.554 163.807 147.289 163.604 147.953 163.391L149.764 162.772L152.269 161.929L152.928 161.716C153.002 161.688 153.078 161.667 153.157 161.654L152.939 161.744L152.292 161.986L149.805 162.879L147.953 163.542C147.294 163.762 146.559 163.969 145.777 164.211C144.207 164.672 142.443 165.262 140.433 165.729L137.293 166.515C136.205 166.785 135.046 166.987 133.859 167.24C131.507 167.769 128.919 168.128 126.215 168.555C120.341 169.343 114.418 169.754 108.486 169.786C102.557 169.75 96.6364 169.337 90.7642 168.55C88.0653 168.128 85.4722 167.763 83.1202 167.235C81.9442 166.982 80.7682 166.779 79.6863 166.51L76.5463 165.723C74.5354 165.256 72.7714 164.666 71.2014 164.206C70.4194 163.964 69.6903 163.756 69.0258 163.537L67.2207 162.89L64.7334 161.997L64.0866 161.755C64.0185 161.726 63.9536 161.69 63.8926 161.648Z" fill="#263238"/>
<g opacity="0.3">
<path d="M64.0918 161.71C64.0918 161.71 69.2015 151.594 108.668 151.15C148.135 150.706 153.244 161.71 153.244 161.71C153.244 161.71 113.413 180.475 64.0918 161.71Z" fill="black"/>
</g>
<path d="M100.061 82.2334C100.016 82.2375 99.9703 82.2375 99.9253 82.2334L99.5314 82.2728C99.1786 82.3065 98.6611 82.3177 97.9967 82.3908C96.1219 82.5647 94.2615 82.8595 92.4283 83.2731C82.9466 85.3486 74.5834 90.6603 68.9083 98.2111C66.1665 101.84 64.0907 105.888 62.7696 110.182C62.5638 110.789 62.4521 111.272 62.3521 111.592L62.2404 111.963C62.2298 112.006 62.214 112.048 62.1933 112.087C62.1856 112.044 62.1856 112 62.1933 111.958C62.1933 111.856 62.2404 111.733 62.2757 111.581C62.358 111.255 62.4462 110.766 62.6343 110.148C63.1251 108.402 63.7541 106.694 64.5159 105.039C67.0293 99.5402 70.8555 94.6802 75.6879 90.8489C80.541 87.0465 86.2579 84.3827 92.3813 83.0708C94.2253 82.6703 96.0986 82.4054 97.9849 82.2784C98.6552 82.2222 99.1609 82.2278 99.5255 82.2109H99.9253C100.019 82.2222 100.061 82.2278 100.061 82.2334Z" fill="white"/>
<path d="M63.1519 125.496C62.9162 125.148 62.734 124.77 62.6109 124.372C61.9134 122.494 61.5884 120.508 61.6525 118.516C61.6357 118.103 61.6873 117.689 61.8053 117.291C61.8994 117.291 61.7701 119.168 62.1464 121.439C62.5227 123.709 63.2401 125.462 63.1519 125.496Z" fill="white"/>
<path d="M53.2557 122.59C53.2557 122.59 53.1205 122.5 52.9382 122.286C52.6784 121.984 52.4554 121.654 52.2738 121.303C51.6459 120.141 51.4056 118.823 51.5854 117.527C51.7652 116.231 52.3563 115.018 53.2793 114.053C53.5496 113.757 53.8555 113.493 54.1907 113.266C54.3058 113.174 54.4372 113.101 54.5787 113.053C54.614 113.098 54.0848 113.441 53.4439 114.177C52.6027 115.14 52.0645 116.311 51.8917 117.554C51.719 118.798 51.9187 120.062 52.4678 121.202C52.8794 122.095 53.2969 122.556 53.2557 122.59Z" fill="white"/>
<path d="M107.015 64.1692C106.556 64.1209 106.094 64.1115 105.634 64.1411C105.085 64.1871 104.555 64.3525 104.084 64.6247C103.613 64.897 103.213 65.2687 102.916 65.7114C102.618 66.1542 102.431 66.6562 102.368 67.1789C102.305 67.7017 102.368 68.2312 102.552 68.727C102.711 69.1382 102.908 69.535 103.14 69.9128C103.14 69.9128 103.023 69.8454 102.858 69.6655C102.632 69.4054 102.453 69.111 102.329 68.7944C102.105 68.2696 102.016 67.7009 102.07 67.1364C102.125 66.5719 102.32 66.0282 102.641 65.5513C102.962 65.0744 103.398 64.6784 103.913 64.3967C104.427 64.115 105.006 63.956 105.598 63.9331C105.95 63.9098 106.304 63.9421 106.645 64.0287C106.909 64.068 107.015 64.1523 107.015 64.1692Z" fill="white"/>
<path d="M158.266 115.773C158.201 115.84 157.289 115.003 155.914 114.373C154.538 113.744 153.285 113.558 153.297 113.468C154.256 113.446 155.203 113.667 156.043 114.109C156.927 114.462 157.695 115.037 158.266 115.773Z" fill="white"/>
<path d="M77.6153 214.162C77.5885 214.129 77.5648 214.093 77.5447 214.055L77.3507 213.724C77.1743 213.403 76.9391 212.976 76.6333 212.431C76.4804 212.15 76.3158 211.835 76.1276 211.498L75.5749 210.374C75.1751 209.559 74.7282 208.632 74.2872 207.564C74.0638 207.042 73.8286 206.491 73.5816 205.923C73.3346 205.356 73.123 204.737 72.8819 204.113C72.3762 202.871 71.947 201.506 71.4472 200.09C70.524 197.223 69.6185 194.048 68.8247 190.676C68.0309 187.304 67.4546 184.05 66.9842 181.088C66.5138 178.127 66.2081 175.468 66.0199 173.187C65.9082 172.063 65.8376 171.04 65.7788 170.141C65.72 169.241 65.6671 168.455 65.6495 167.836C65.6318 167.218 65.6142 166.74 65.5966 166.381V166.004C65.5902 165.961 65.5902 165.918 65.5966 165.875C65.6033 165.918 65.6033 165.961 65.5966 166.004L65.6318 166.381C65.6318 166.735 65.6965 167.224 65.7377 167.831C65.7788 168.438 65.8376 169.236 65.92 170.129C66.0023 171.023 66.0787 172.046 66.2081 173.17C66.4198 175.418 66.7961 178.093 67.2371 181.038C67.6781 183.983 68.319 187.22 69.0952 190.592C69.8713 193.964 70.7827 197.133 71.6824 199.994C72.1822 201.41 72.5996 202.77 73.0936 204.012C73.3288 204.642 73.5522 205.243 73.7756 205.822L74.4577 207.474C74.8811 208.525 75.3162 209.458 75.7043 210.284L76.2335 211.408C76.404 211.751 76.5686 212.066 76.7156 212.352L77.3742 213.667L77.5388 214.01C77.5745 214.056 77.6004 214.107 77.6153 214.162Z" fill="white"/>
<path d="M54.6082 168.343C53.1736 168.395 51.737 168.346 50.3099 168.197C48.8761 168.149 47.4477 168.004 46.0352 167.764C47.4697 167.712 48.9063 167.761 50.3334 167.91C51.7673 167.958 53.1958 168.102 54.6082 168.343Z" fill="white"/>
<path d="M32.4874 156.344C31.6535 155.183 30.9049 153.968 30.2471 152.708C29.5016 151.494 28.8454 150.233 28.2832 148.932C29.1146 150.095 29.8612 151.312 30.5176 152.573C31.2669 153.784 31.9252 155.044 32.4874 156.344Z" fill="white"/>
<path d="M98.4903 231.883C98.2588 231.879 98.0283 231.852 97.8024 231.804C97.1802 231.698 96.5656 231.555 95.9619 231.377C95.0652 231.116 94.1889 230.795 93.3395 230.416C92.3047 229.939 91.31 229.387 90.3642 228.764C89.4289 228.125 88.5481 227.416 87.7299 226.645C87.0673 226.01 86.4542 225.33 85.8954 224.61C85.5125 224.13 85.1648 223.625 84.8546 223.099C84.7277 222.914 84.6231 222.716 84.543 222.509C84.59 222.48 85.0839 223.295 86.0659 224.487C86.6431 225.179 87.2657 225.836 87.9298 226.454C89.5574 227.965 91.4248 229.221 93.4629 230.174C94.2955 230.559 95.1516 230.895 96.0266 231.18C97.5319 231.663 98.5021 231.826 98.4903 231.883Z" fill="white"/>
<path d="M107.51 205.883C107.374 205.906 107.237 205.919 107.099 205.922C106.708 205.954 106.315 205.965 105.923 205.956C104.461 205.925 103.01 205.7 101.613 205.287C100.647 205 99.7074 204.639 98.8022 204.208C97.7642 203.698 96.7797 203.094 95.8622 202.404C93.7368 200.844 92.0615 198.792 90.9938 196.443C89.9261 194.093 89.5011 191.522 89.7587 188.973C89.8546 187.866 90.0613 186.771 90.3761 185.702C90.6579 184.775 91.0218 183.872 91.464 183.004C92.1017 181.745 92.9212 180.578 93.8983 179.537C94.1603 179.252 94.4391 178.982 94.7332 178.727C94.8305 178.634 94.9347 178.548 95.0449 178.469C95.0449 178.469 94.6568 178.868 93.9865 179.593C93.0455 180.65 92.2547 181.822 91.6345 183.077C90.7097 184.927 90.1591 186.927 90.0116 188.973C89.7732 191.477 90.1976 193.999 91.2456 196.306C92.2937 198.612 93.9317 200.63 96.0092 202.174C96.8997 202.859 97.8566 203.461 98.8669 203.972C99.7523 204.419 100.675 204.795 101.625 205.096C103.001 205.523 104.431 205.774 105.876 205.844C106.94 205.883 107.51 205.849 107.51 205.883Z" fill="white"/>
<path d="M36.3198 161.627C36.3198 161.672 35.867 161.464 35.1438 161.301C34.176 161.099 33.1728 161.108 32.2095 161.329C31.2461 161.55 30.3476 161.977 29.5813 162.577C28.9933 163.043 28.7111 163.414 28.6699 163.386C28.8313 163.014 29.0809 162.683 29.399 162.419C30.1622 161.75 31.0914 161.278 32.0988 161.048C33.1061 160.818 34.1583 160.837 35.1556 161.104C35.5806 161.191 35.979 161.37 36.3198 161.627Z" fill="white"/>
<path d="M123.15 105.746C123.15 105.824 115.93 105.892 107.027 105.892C98.125 105.892 90.8984 105.824 90.8984 105.746C90.8984 105.667 98.1191 105.6 107.027 105.6C115.935 105.6 123.15 105.656 123.15 105.746Z" fill="white"/>
<path d="M95.632 140.888C95.5439 140.912 95.453 140.925 95.3615 140.928L94.5736 140.995C94.2326 141.023 93.8151 141.046 93.3271 141.057C92.839 141.068 92.2863 141.091 91.6748 141.057C90.4459 141.057 88.9876 140.973 87.3706 140.81C85.6207 140.615 83.8835 140.328 82.1668 139.95C80.4542 139.557 78.7659 139.073 77.11 138.5C75.7609 138.028 74.4381 137.489 73.1469 136.887C72.5589 136.64 72.1061 136.381 71.6769 136.162C71.2477 135.943 70.8831 135.746 70.5891 135.6L69.9129 135.206C69.8327 135.164 69.7578 135.113 69.6895 135.055C69.6895 135.055 69.7835 135.055 69.9423 135.156L70.6479 135.499C70.9478 135.656 71.3182 135.841 71.7533 136.061C72.1885 136.28 72.6824 136.505 73.241 136.741C74.3464 137.235 75.6929 137.764 77.21 138.286C80.5071 139.416 83.9276 140.185 87.4059 140.579C89.0053 140.759 90.4576 140.86 91.6748 140.888C92.2628 140.922 92.8508 140.888 93.3271 140.888C93.8033 140.888 94.2267 140.888 94.5677 140.888H95.3557C95.4471 140.874 95.5405 140.874 95.632 140.888Z" fill="white"/>
<path d="M142.573 166.213C142.53 166.24 142.482 166.261 142.432 166.275L142.009 166.426L140.374 166.988C139.662 167.236 138.792 167.522 137.763 167.809C136.734 168.096 135.576 168.467 134.265 168.781L132.218 169.298C131.507 169.472 130.754 169.619 129.984 169.793C128.443 170.147 126.773 170.428 125.021 170.748C117.389 172.019 109.633 172.473 101.895 172.103C100.131 171.996 98.4201 171.912 96.8443 171.737C96.0563 171.659 95.292 171.602 94.5628 171.507L92.4637 171.232C91.123 171.08 89.9235 170.849 88.871 170.67C87.8185 170.49 86.9071 170.321 86.1721 170.158L84.4786 169.798L84.0376 169.697C83.9866 169.689 83.9371 169.674 83.8906 169.652C83.9435 169.648 83.9966 169.648 84.0494 169.652L84.4904 169.725L86.1956 170.034C86.9365 170.175 87.842 170.338 88.9004 170.49C89.9588 170.641 91.1524 170.861 92.4931 171.001L94.5863 171.254C95.3155 171.344 96.0799 171.395 96.8678 171.468C98.4377 171.631 100.131 171.704 101.907 171.805C105.464 171.945 109.375 171.951 113.479 171.72C117.583 171.49 121.458 171.001 124.968 170.45C126.732 170.141 128.39 169.888 129.931 169.529C130.701 169.36 131.454 169.22 132.165 169.051L134.212 168.551C135.523 168.253 136.681 167.905 137.71 167.624C138.739 167.343 139.621 167.062 140.333 166.854L141.985 166.348L142.42 166.224L142.573 166.213Z" fill="white"/>
</svg>
