<svg width="294" height="281" viewBox="0 0 294 281" fill="none" xmlns="http://www.w3.org/2000/svg">
<path d="M264.541 223.951H245.066V224.092H264.541V223.951Z" fill="#EBEBEB"/>
<path d="M194.758 225.48H189.648V225.621H194.758V225.48Z" fill="#EBEBEB"/>
<path d="M244.479 218.736H233.195V218.877H244.479V218.736Z" fill="#EBEBEB"/>
<path d="M56.2434 219.68H30.8477V219.82H56.2434V219.68Z" fill="#EBEBEB"/>
<path d="M65.2025 219.68H61.4805V219.82H65.2025V219.68Z" fill="#EBEBEB"/>
<path d="M132.389 222.053H77.3047V222.193H132.389V222.053Z" fill="#EBEBEB"/>
<path d="M140.178 189.844H26.6348C25.7444 189.844 24.8904 189.506 24.2607 188.904C23.6311 188.302 23.2773 187.486 23.2773 186.635V34.0911C23.2851 33.2449 23.6422 32.4358 24.2711 31.8401C24.8999 31.2444 25.7494 30.9101 26.6348 30.9102H140.178C140.619 30.9102 141.055 30.9932 141.462 31.1544C141.87 31.3157 142.24 31.5521 142.552 31.8501C142.863 32.148 143.111 32.5018 143.28 32.8911C143.448 33.2805 143.535 33.6978 143.535 34.1192V186.635C143.535 187.056 143.448 187.473 143.28 187.863C143.111 188.252 142.863 188.606 142.552 188.904C142.24 189.202 141.87 189.438 141.462 189.599C141.055 189.761 140.619 189.844 140.178 189.844ZM26.6348 31.0226C25.7838 31.024 24.9681 31.3478 24.3664 31.9229C23.7646 32.4981 23.4259 33.2777 23.4243 34.0911V186.635C23.4259 187.448 23.7646 188.228 24.3664 188.803C24.9681 189.378 25.7838 189.702 26.6348 189.703H140.178C141.029 189.702 141.844 189.378 142.446 188.803C143.048 188.228 143.387 187.448 143.388 186.635V34.0911C143.387 33.2777 143.048 32.4981 142.446 31.9229C141.844 31.3478 141.029 31.024 140.178 31.0226H26.6348Z" fill="#EBEBEB"/>
<path d="M267.365 189.844H153.822C152.932 189.844 152.078 189.506 151.448 188.904C150.819 188.302 150.465 187.486 150.465 186.635V34.0911C150.473 33.2449 150.83 32.4358 151.459 31.8401C152.087 31.2444 152.937 30.9101 153.822 30.9102H267.365C268.256 30.9102 269.11 31.2482 269.739 31.8501C270.369 32.4519 270.723 33.2681 270.723 34.1192V186.635C270.723 187.486 270.369 188.302 269.739 188.904C269.11 189.506 268.256 189.844 267.365 189.844ZM153.822 31.0226C152.971 31.024 152.156 31.3478 151.554 31.9229C150.952 32.4981 150.613 33.2777 150.612 34.0911V186.635C150.613 187.448 150.952 188.228 151.554 188.803C152.156 189.378 152.971 189.702 153.822 189.703H267.365C268.216 189.702 269.032 189.378 269.634 188.803C270.235 188.228 270.574 187.448 270.576 186.635V34.0911C270.574 33.2777 270.235 32.4981 269.634 31.9229C269.032 31.3478 268.216 31.024 267.365 31.0226H153.822Z" fill="#EBEBEB"/>
<path d="M294 214.908H0V215.049H294V214.908Z" fill="#EBEBEB"/>
<path d="M239.185 92.623H215.936C215.41 92.623 214.89 92.7221 214.404 92.9145C213.919 93.1069 213.478 93.3889 213.107 93.7444C212.735 94.0998 212.441 94.5218 212.24 94.9861C212.04 95.4504 211.937 95.9479 211.938 96.4503V110.759C211.937 111.261 212.04 111.759 212.24 112.223C212.441 112.687 212.735 113.109 213.107 113.465C213.478 113.82 213.919 114.102 214.404 114.295C214.89 114.487 215.41 114.586 215.936 114.586H222.621L225.609 118.318C225.838 118.604 226.133 118.837 226.472 118.997C226.811 119.156 227.183 119.24 227.561 119.24C227.938 119.24 228.311 119.156 228.649 118.997C228.988 118.837 229.283 118.604 229.513 118.318L232.5 114.586H239.185C239.711 114.586 240.231 114.487 240.717 114.295C241.202 114.102 241.643 113.82 242.015 113.465C242.386 113.109 242.681 112.687 242.881 112.223C243.082 111.759 243.185 111.261 243.184 110.759V96.4503C243.185 95.9479 243.082 95.4504 242.881 94.9861C242.681 94.5218 242.386 94.0998 242.015 93.7444C241.643 93.3889 241.202 93.1069 240.717 92.9145C240.231 92.7221 239.711 92.623 239.185 92.623Z" fill="#E0E0E0"/>
<path d="M222.564 105.133C222.064 104.707 221.659 104.188 221.373 103.609C221.087 103.03 220.926 102.401 220.9 101.761C220.875 101.354 220.94 100.947 221.093 100.566C221.245 100.185 221.48 99.8395 221.782 99.552C222.085 99.2645 222.448 99.0418 222.847 98.8985C223.246 98.7552 223.673 98.6946 224.098 98.7208C225.898 98.7208 226.509 99.5188 227.562 100.671C228.614 99.5469 229.226 98.7208 231.025 98.7208C231.451 98.6946 231.877 98.7552 232.277 98.8985C232.676 99.0418 233.039 99.2645 233.341 99.552C233.644 99.8395 233.879 100.185 234.031 100.566C234.183 100.947 234.249 101.354 234.224 101.761C234.197 102.401 234.037 103.03 233.751 103.609C233.465 104.188 233.06 104.707 232.56 105.133L227.562 109.888L222.564 105.133Z" fill="white"/>
<path d="M59.3071 205.13C58.7222 204.632 58.2471 204.028 57.9099 203.352C57.5726 202.677 57.38 201.943 57.3432 201.196C57.3109 200.716 57.3865 200.235 57.5648 199.785C57.7431 199.335 58.0201 198.927 58.3771 198.588C58.7341 198.249 59.1629 197.986 59.6346 197.819C60.1064 197.651 60.6102 197.582 61.1123 197.616C63.2291 197.616 63.9523 198.554 65.193 199.914C66.4337 198.554 67.1569 197.616 69.2737 197.616C69.7758 197.582 70.2796 197.651 70.7514 197.819C71.2231 197.986 71.6519 198.249 72.0089 198.588C72.3659 198.927 72.6429 199.335 72.8212 199.785C72.9995 200.235 73.0751 200.716 73.0428 201.196C73.0061 201.943 72.8134 202.677 72.4761 203.352C72.1389 204.028 71.6638 204.632 71.0789 205.13L65.1989 210.75L59.3071 205.13Z" fill="#E0E0E0"/>
<path d="M72.6017 211.465C72.2476 211.157 71.9612 210.785 71.7593 210.37C71.5574 209.955 71.444 209.506 71.4257 209.048C71.4075 208.755 71.4547 208.462 71.5644 208.187C71.674 207.913 71.8435 207.664 72.0615 207.458C72.2796 207.251 72.5412 207.091 72.829 206.988C73.1168 206.885 73.4241 206.842 73.7306 206.862C75.0242 206.862 75.4946 207.424 76.2238 208.261C76.9823 207.435 77.3998 206.862 78.7169 206.862C79.0234 206.842 79.3307 206.885 79.6185 206.988C79.9063 207.091 80.1679 207.251 80.386 207.458C80.604 207.664 80.7735 207.913 80.8831 208.187C80.9928 208.462 81.0401 208.755 81.0218 209.048C81.0036 209.506 80.8902 209.955 80.6883 210.37C80.4863 210.785 80.2 211.157 79.8458 211.465L76.2473 214.887L72.6017 211.465Z" fill="#EBEBEB"/>
<path d="M223.569 51.8613H196.897C195.679 51.8613 194.511 52.3238 193.65 53.1469C192.789 53.97 192.305 55.0865 192.305 56.2505V72.6666C192.305 73.8312 192.788 74.9482 193.649 75.7722C194.51 76.5962 195.678 77.0599 196.897 77.0614H204.57L207.993 81.3382C208.255 81.6679 208.594 81.9351 208.983 82.119C209.371 82.303 209.799 82.3987 210.233 82.3987C210.666 82.3987 211.094 82.303 211.483 82.119C211.871 81.9351 212.21 81.6679 212.473 81.3382L215.901 77.0614H223.545C224.765 77.0614 225.934 76.5984 226.797 75.7742C227.659 74.95 228.143 73.8322 228.143 72.6666V56.2505C228.143 55.0894 227.662 53.9755 226.804 53.1528C225.947 52.3302 224.784 51.8658 223.569 51.8613Z" fill="#F5F5F5"/>
<path d="M201.861 71.059H204.883V60.7969H201.355L201.861 71.059Z" fill="#E0E0E0"/>
<path d="M218.894 62.3824C218.741 61.9271 218.259 60.9717 217.8 60.7807C216.477 60.2187 213.579 60.3929 211.015 60.7132C211.121 60.5165 211.209 60.3423 211.262 60.2187C211.569 59.4793 211.75 58.6975 211.797 57.9032C211.756 57.3412 211.491 56.1498 211.015 55.8575C210.826 55.7688 210.619 55.7227 210.409 55.7227C210.199 55.7227 209.992 55.7688 209.804 55.8575C209.292 56.369 209.645 57.9763 209.445 58.6675C208.995 59.6049 208.4 60.4725 207.681 61.2415C206.781 61.3989 206.211 61.5169 206.211 61.5169V70.5819C206.211 70.5819 213.955 72.5939 216.448 71.942C217.406 71.6947 217.859 70.1042 218.212 69.2163C218.853 67.6202 219.441 64.0234 218.894 62.3824Z" fill="#E0E0E0"/>
<path d="M156.114 66.1254C155.978 64.5167 155.214 63.0159 153.973 61.9215C152.732 60.827 151.105 60.2192 149.417 60.2188H144.584C142.895 60.2192 141.268 60.827 140.028 61.9215C138.787 63.0159 138.022 64.5167 137.886 66.1254L137.48 70.0594H156.52L156.114 66.1254Z" fill="#EBEBEB"/>
<path d="M146.998 60.2188C149.502 60.2188 151.532 58.2788 151.532 55.8858C151.532 53.4927 149.502 51.5527 146.998 51.5527C144.495 51.5527 142.465 53.4927 142.465 55.8858C142.465 58.2788 144.495 60.2188 146.998 60.2188Z" fill="#EBEBEB"/>
<path d="M57.0377 126.529C56.34 126.528 55.663 126.756 55.1208 127.176L51.4811 124.366C51.6993 123.963 51.8123 123.516 51.8104 123.062C51.8103 122.404 51.576 121.765 51.1458 121.251C50.7157 120.737 50.1153 120.378 49.4434 120.233C48.7716 120.088 48.0682 120.166 47.4488 120.454C46.8295 120.742 46.3312 121.223 46.0357 121.818C45.7402 122.412 45.6651 123.085 45.8228 123.726C45.9806 124.367 46.3617 124.937 46.9036 125.344C47.4455 125.75 48.1159 125.968 48.8046 125.962C49.4933 125.956 50.1593 125.726 50.6932 125.31L54.3329 128.12C54.1166 128.524 54.0038 128.972 54.0038 129.427C54.0038 129.881 54.1166 130.329 54.3329 130.733L50.6932 133.543C50.1593 133.127 49.4933 132.897 48.8046 132.891C48.1159 132.885 47.4455 133.103 46.9036 133.509C46.3617 133.916 45.9806 134.486 45.8228 135.127C45.6651 135.768 45.7402 136.441 46.0357 137.035C46.3312 137.63 46.8295 138.111 47.4488 138.399C48.0682 138.687 48.7716 138.765 49.4434 138.62C50.1153 138.475 50.7157 138.116 51.1458 137.602C51.576 137.088 51.8103 136.449 51.8104 135.791C51.8109 135.338 51.698 134.891 51.4811 134.487L55.1208 131.677C55.4975 131.971 55.9424 132.173 56.418 132.268C56.8937 132.363 57.3863 132.347 57.8542 132.222C58.3222 132.097 58.7519 131.867 59.1072 131.55C59.4625 131.233 59.733 130.839 59.8959 130.402C60.0589 129.964 60.1095 129.496 60.0435 129.035C59.9775 128.575 59.7968 128.137 59.5167 127.758C59.2366 127.378 58.8652 127.068 58.4338 126.855C58.0024 126.641 57.5236 126.529 57.0377 126.529Z" fill="#E0E0E0"/>
<path d="M147 238.124C209.964 238.124 261.007 235.276 261.007 231.762C261.007 228.249 209.964 225.4 147 225.4C84.035 225.4 32.9922 228.249 32.9922 231.762C32.9922 235.276 84.035 238.124 147 238.124Z" fill="#F5F5F5"/>
<path d="M203.953 152.916H248.459C250.1 152.916 251.673 153.539 252.833 154.648C253.993 155.756 254.645 157.26 254.645 158.828V191.16C254.645 192.728 253.993 194.232 252.833 195.341C251.673 196.449 250.1 197.072 248.459 197.072H214.855C214.531 199.6 213.253 201.928 211.261 203.618C209.269 205.309 206.7 206.247 204.036 206.255C203.789 206.255 203.548 206.255 203.301 206.222C205.065 204.03 206.458 200.86 207.387 197.078H203.983C202.342 197.078 200.769 196.455 199.609 195.346C198.449 194.238 197.797 192.734 197.797 191.166V158.828C197.797 157.265 198.445 155.766 199.598 154.658C200.752 153.55 202.318 152.923 203.953 152.916Z" fill="#2F27CE"/>
<path opacity="0.4" d="M203.953 152.916H248.459C250.1 152.916 251.673 153.539 252.833 154.648C253.993 155.756 254.645 157.26 254.645 158.828V191.16C254.645 192.728 253.993 194.232 252.833 195.341C251.673 196.449 250.1 197.072 248.459 197.072H214.855C214.531 199.6 213.253 201.928 211.261 203.618C209.269 205.309 206.7 206.247 204.036 206.255C203.789 206.255 203.548 206.255 203.301 206.222C205.065 204.03 206.458 200.86 207.387 197.078H203.983C202.342 197.078 200.769 196.455 199.609 195.346C198.449 194.238 197.797 192.734 197.797 191.166V158.828C197.797 157.265 198.445 155.766 199.598 154.658C200.752 153.55 202.318 152.923 203.953 152.916Z" fill="white"/>
<path d="M201.849 165.488L199.65 161.931L201.026 159.683C201.115 159.537 201.169 159.374 201.183 159.205C201.198 159.037 201.172 158.868 201.109 158.71L201.003 158.457C200.92 158.247 200.774 158.064 200.582 157.934C200.39 157.804 200.162 157.732 199.927 157.727L197.769 157.671C197.55 157.663 197.333 157.715 197.143 157.819C196.952 157.923 196.797 158.076 196.693 158.261L196.258 159.025C196.152 159.209 196.094 159.415 196.087 159.624C196.08 159.834 196.124 160.043 196.216 160.233L197.145 162.15L198.868 166.556L201.849 165.488Z" fill="#7F3E3B"/>
<path d="M219.367 164.864L206.802 173.603L200.922 163.049L197.57 164.437C197.57 164.437 202.739 180.431 205.744 179.785C208.748 179.139 217.227 175.132 219.985 172.384C221.378 170.996 222.437 168.45 221.061 165.302C220.997 165.152 220.898 165.017 220.771 164.909C220.644 164.801 220.492 164.723 220.328 164.68C220.164 164.638 219.992 164.632 219.825 164.664C219.659 164.696 219.502 164.765 219.367 164.864Z" fill="#2F27CE"/>
<path d="M224.056 144.053C224.056 144.053 219.623 145.177 221.675 150.285C221.675 150.285 223.886 149.723 224.245 148.363C224.603 147.003 224.944 145.081 224.944 145.081L224.056 144.053Z" fill="#263238"/>
<path opacity="0.3" d="M224.056 144.053C224.056 144.053 219.623 145.177 221.675 150.285C221.675 150.285 223.886 149.723 224.245 148.363C224.603 147.003 224.944 145.081 224.944 145.081L224.056 144.053Z" fill="black"/>
<path d="M234.542 164.358L226.439 164.105L223.088 164.566L222.629 170.405L229.162 172.479L236.129 171.153L236.494 165.527L235.994 164.403L234.542 164.358Z" fill="#7F3E3B"/>
<path d="M223.512 197.072H234.978C235.09 193.211 235.689 173.165 235.566 173.288C235.442 173.412 236.777 169.017 236.777 169.017V167.235L235.566 165.325C235.566 165.325 232.967 169.112 228.686 168.927C224.629 168.747 223.929 164.875 223.929 164.875L223.441 170.793L222.93 185.124L223.582 191.193L223.512 197.072Z" fill="#2F27CE"/>
<path opacity="0.6" d="M223.512 197.072H234.978C235.09 193.211 235.689 173.165 235.566 173.288C235.442 173.412 236.777 169.017 236.777 169.017V167.235L235.566 165.325C235.566 165.325 232.967 169.112 228.686 168.927C224.629 168.747 223.929 164.875 223.929 164.875L223.441 170.793L222.93 185.124L223.582 191.193L223.512 197.072Z" fill="white"/>
<path d="M218.95 197.071H225.159C226.382 189.338 226.547 175.198 226.547 175.198C225.805 172.491 225.226 169.746 224.812 166.976C224.436 163.733 229.281 164.166 233.515 164.7C237.748 165.234 230.222 175.468 230.222 175.468C230.222 175.468 229.687 189.299 230.928 197.071H246.216C245.451 195.009 243.193 188.675 242.688 184.184C242.035 178.756 245.945 170.837 245.387 166.976C244.828 163.115 231.427 163.902 231.427 163.902C231.427 163.902 222.848 163.846 220.937 163.93C218.703 164.026 217.809 169.651 216.751 174.097C215.693 178.542 217.639 182.942 218.703 188.534C219.231 191.352 219.314 194.23 218.95 197.071Z" fill="#263238"/>
<path d="M225.792 163.886C228.579 163.886 231.455 163.886 231.455 163.886C231.455 163.886 233.166 163.785 235.388 163.83C236.276 164.392 237.446 165.752 236.517 168.596L234.577 169.309L234.93 171.136C234.93 171.136 232.695 174.508 230.226 175.8C230.226 175.576 230.226 175.452 230.226 175.452C230.226 175.452 237.758 165.218 233.519 164.684C229.279 164.15 224.44 163.717 224.816 166.96C225.23 169.73 225.809 172.475 226.551 175.182C226.551 175.182 226.551 175.238 226.551 175.334C225.375 174.317 224.346 172.524 223.611 170.377L224.405 168.275L222.641 167.354C222.791 166.558 223.164 165.816 223.718 165.206C224.273 164.596 224.989 164.14 225.792 163.886Z" fill="#2F27CE"/>
<path d="M225.676 166.949C225.54 166.65 225.485 166.324 225.516 166C225.547 165.676 225.663 165.364 225.853 165.094C229.04 164.066 228.746 161.779 228.011 159.66L233.144 154.652C232.844 157.316 232.732 163.448 234.555 165.583V166.072C233.762 167.046 232.701 167.789 231.492 168.219C230.282 168.649 228.97 168.748 227.705 168.506C227.256 168.433 226.834 168.252 226.479 167.979C226.124 167.707 225.847 167.352 225.676 166.949Z" fill="#7F3E3B"/>
<path opacity="0.1" d="M228.008 159.659L232.089 155.68L233.029 156.006C233 156.483 232.982 157.006 232.976 157.557C232.459 158.568 231.212 159.99 228.319 160.704C228.235 160.35 228.131 160.001 228.008 159.659Z" fill="black"/>
<path d="M235.789 150.235C234.549 154.771 234.125 156.715 231.215 158.615C226.84 161.475 221.283 159.031 221.078 154.231C220.895 149.909 222.947 143.222 228.028 142.277C229.146 142.065 230.303 142.128 231.388 142.463C232.473 142.798 233.451 143.392 234.229 144.189C235.007 144.986 235.558 145.96 235.831 147.018C236.104 148.077 236.09 149.184 235.789 150.235Z" fill="#7F3E3B"/>
<path d="M224.483 151.404C223.959 152.192 223.326 152.909 222.602 153.534C222.772 153.707 222.979 153.843 223.21 153.931C223.44 154.019 223.688 154.059 223.936 154.046L224.483 151.404Z" fill="#630F0F"/>
<path d="M229.544 149.735C229.577 149.733 229.61 149.724 229.638 149.707C229.66 149.695 229.679 149.678 229.695 149.659C229.71 149.639 229.721 149.617 229.727 149.594C229.733 149.57 229.734 149.545 229.73 149.521C229.726 149.497 229.716 149.474 229.703 149.454C229.522 149.15 229.268 148.893 228.96 148.704C228.653 148.515 228.302 148.4 227.939 148.369C227.913 148.368 227.888 148.373 227.864 148.381C227.84 148.39 227.818 148.403 227.8 148.42C227.781 148.436 227.766 148.456 227.756 148.479C227.745 148.501 227.739 148.525 227.739 148.549C227.737 148.573 227.741 148.597 227.749 148.62C227.757 148.643 227.77 148.664 227.787 148.682C227.804 148.699 227.825 148.714 227.848 148.724C227.871 148.734 227.896 148.739 227.921 148.74C228.22 148.772 228.507 148.871 228.759 149.029C229.01 149.187 229.219 149.4 229.367 149.651C229.387 149.678 229.413 149.7 229.444 149.715C229.475 149.73 229.509 149.737 229.544 149.735Z" fill="#263238"/>
<path d="M221.676 148.37C221.707 148.378 221.739 148.378 221.77 148.37C222.028 148.223 222.319 148.137 222.618 148.119C222.918 148.1 223.217 148.149 223.493 148.263C223.539 148.285 223.593 148.289 223.642 148.275C223.691 148.26 223.733 148.228 223.758 148.184C223.77 148.162 223.777 148.138 223.779 148.113C223.781 148.089 223.778 148.064 223.77 148.04C223.761 148.016 223.748 147.995 223.731 147.976C223.714 147.957 223.693 147.942 223.669 147.931C223.336 147.79 222.973 147.726 222.609 147.746C222.244 147.765 221.891 147.867 221.576 148.044C221.531 148.068 221.497 148.107 221.482 148.154C221.466 148.202 221.471 148.253 221.494 148.297C221.512 148.328 221.538 148.353 221.57 148.37C221.603 148.387 221.639 148.395 221.676 148.392V148.37Z" fill="#263238"/>
<path d="M225.922 155.294C225.695 155.294 225.469 155.276 225.246 155.237C225.23 155.235 225.216 155.23 225.202 155.223C225.189 155.215 225.177 155.205 225.168 155.193C225.158 155.181 225.152 155.167 225.148 155.153C225.144 155.138 225.144 155.123 225.146 155.108C225.152 155.079 225.169 155.053 225.194 155.035C225.219 155.017 225.25 155.009 225.281 155.013C225.777 155.106 226.289 155.087 226.776 154.957C227.263 154.827 227.712 154.59 228.086 154.265C228.109 154.25 228.137 154.242 228.165 154.244C228.193 154.246 228.22 154.258 228.241 154.276C228.261 154.294 228.275 154.319 228.279 154.345C228.283 154.372 228.277 154.399 228.262 154.422C227.628 154.989 226.79 155.301 225.922 155.294Z" fill="#263238"/>
<path d="M234.161 153.781C233.587 153.158 233.161 152.423 232.912 151.628C232.663 150.832 232.598 149.995 232.72 149.173C232.72 149.173 230.809 147.301 230.903 145.3C230.903 145.3 230.315 146.896 230.903 148.032C230.903 148.032 225.946 147.689 226.064 145.3C226.064 145.3 225.735 146.503 226.482 147.127C226.482 147.127 222.077 147.301 222.677 145.121C223.277 142.94 226.723 141.878 226.723 141.878C226.723 141.878 230.01 139.208 234.555 143.923C234.555 143.923 239.906 147.116 236.113 152.443L234.161 153.781Z" fill="#263238"/>
<path d="M236.149 154.079C235.934 154.48 235.637 154.836 235.275 155.126C234.913 155.415 234.495 155.633 234.044 155.765C232.868 156.113 232.215 155.091 232.527 153.995C232.809 153.006 233.773 151.634 234.996 151.747C235.42 151.806 235.802 152.025 236.058 152.354C236.314 152.682 236.423 153.095 236.36 153.5C236.333 153.705 236.261 153.902 236.149 154.079Z" fill="#7F3E3B"/>
<path d="M228.051 150.758C228.004 151.146 227.751 151.444 227.463 151.416C227.175 151.387 227.016 151.056 227.063 150.657C227.11 150.258 227.357 149.977 227.621 149.999C227.886 150.022 228.092 150.365 228.051 150.758Z" fill="#2E353A"/>
<path d="M223.441 150.296C223.4 150.684 223.147 150.976 222.882 150.953C222.617 150.931 222.429 150.588 222.471 150.195C222.512 149.801 222.765 149.509 223.059 149.537C223.353 149.565 223.441 149.897 223.441 150.296Z" fill="#2E353A"/>
<path d="M223.117 149.572L222.164 149.201C222.164 149.201 222.587 149.982 223.117 149.572Z" fill="#2E353A"/>
<path d="M227.755 150.055L226.797 149.689C226.797 149.689 227.226 150.448 227.755 150.055Z" fill="#2E353A"/>
<path d="M233.75 157.873C234.058 157.873 234.359 157.788 234.618 157.628C234.876 157.467 235.08 157.239 235.205 156.969C235.329 156.7 235.369 156.402 235.32 156.111C235.27 155.821 235.133 155.55 234.926 155.332L234.72 155.512C234.941 155.742 235.063 156.043 235.061 156.355C235.062 156.604 234.986 156.847 234.842 157.054C234.699 157.261 234.494 157.422 234.254 157.518C234.014 157.613 233.75 157.639 233.495 157.59C233.24 157.542 233.006 157.423 232.823 157.247C232.639 157.071 232.514 156.848 232.463 156.604C232.413 156.36 232.439 156.108 232.539 155.879C232.639 155.649 232.808 155.454 233.025 155.317C233.241 155.179 233.496 155.107 233.756 155.108C233.94 155.106 234.122 155.142 234.291 155.214L234.402 154.973C234.2 154.883 233.979 154.837 233.756 154.838C233.547 154.838 233.341 154.877 233.148 154.953C232.955 155.03 232.78 155.141 232.633 155.282C232.486 155.423 232.369 155.591 232.289 155.775C232.209 155.959 232.168 156.156 232.168 156.355C232.168 156.555 232.209 156.752 232.289 156.936C232.369 157.12 232.486 157.287 232.633 157.428C232.78 157.569 232.955 157.681 233.148 157.757C233.341 157.833 233.547 157.873 233.756 157.873H233.75Z" fill="#2F27CE"/>
<g opacity="0.6">
<path d="M233.75 157.873C234.058 157.873 234.359 157.788 234.618 157.628C234.876 157.467 235.08 157.239 235.205 156.969C235.329 156.7 235.369 156.402 235.32 156.111C235.27 155.821 235.133 155.55 234.926 155.332L234.72 155.512C234.941 155.742 235.063 156.043 235.061 156.355C235.062 156.604 234.986 156.847 234.842 157.054C234.699 157.261 234.494 157.422 234.254 157.518C234.014 157.613 233.75 157.639 233.495 157.59C233.24 157.542 233.006 157.423 232.823 157.247C232.639 157.071 232.514 156.848 232.463 156.604C232.413 156.36 232.439 156.108 232.539 155.879C232.639 155.649 232.808 155.454 233.025 155.317C233.241 155.179 233.496 155.107 233.756 155.108C233.94 155.106 234.122 155.142 234.291 155.214L234.402 154.973C234.2 154.883 233.979 154.837 233.756 154.838C233.547 154.838 233.341 154.877 233.148 154.953C232.955 155.03 232.78 155.141 232.633 155.282C232.486 155.423 232.369 155.591 232.289 155.775C232.209 155.959 232.168 156.156 232.168 156.355C232.168 156.555 232.209 156.752 232.289 156.936C232.369 157.12 232.486 157.287 232.633 157.428C232.78 157.569 232.955 157.681 233.148 157.757C233.341 157.833 233.547 157.873 233.756 157.873H233.75Z" fill="white"/>
</g>
<path d="M232.656 180.825L228.34 181.005L226.894 178.757C226.801 178.612 226.675 178.489 226.525 178.398C226.375 178.306 226.206 178.249 226.029 178.229L225.747 178.195C225.515 178.166 225.279 178.204 225.069 178.304C224.86 178.404 224.686 178.562 224.571 178.757L223.501 180.55C223.391 180.731 223.337 180.939 223.344 181.148C223.352 181.358 223.42 181.561 223.542 181.736L224.042 182.461C224.161 182.637 224.323 182.783 224.513 182.889C224.703 182.994 224.916 183.055 225.135 183.067L227.34 183.186L232.221 183.815L232.656 180.825Z" fill="#7F3E3B"/>
<path d="M240.328 165.791L242.475 180.498H229.956L229.656 183.977C229.656 183.977 246.855 187.164 247.673 184.326C248.49 181.488 248.79 172.456 247.555 168.831C246.926 167.005 245.079 164.897 241.528 164.588C241.362 164.574 241.194 164.596 241.038 164.652C240.881 164.708 240.74 164.798 240.625 164.913C240.51 165.029 240.423 165.168 240.372 165.32C240.321 165.472 240.306 165.633 240.328 165.791Z" fill="#2F27CE"/>
<path d="M185.626 80.9275H171.885L158.031 232.33H171.773C174.912 232.276 177.922 231.124 180.233 229.092C182.544 227.06 183.996 224.29 184.315 221.304L196.151 91.9596C196.315 90.5552 196.163 89.1337 195.706 87.79C195.249 86.4462 194.497 85.2111 193.501 84.167C192.505 83.1229 191.287 82.2939 189.929 81.7353C188.571 81.1766 187.104 80.9013 185.626 80.9275Z" fill="#263238"/>
<path d="M194.142 96.1016C194.171 95.8195 194.307 95.5572 194.523 95.363C194.739 95.1688 195.021 95.0559 195.318 95.0451C195.459 95.0427 195.6 95.0692 195.73 95.1227C195.86 95.1762 195.977 95.2555 196.073 95.3554C196.168 95.4553 196.241 95.5735 196.285 95.7022C196.329 95.8308 196.344 95.967 196.329 96.1016L195.4 106.218C195.386 106.512 195.256 106.791 195.038 106.999C194.819 107.207 194.526 107.329 194.218 107.342C194.077 107.343 193.937 107.316 193.808 107.262C193.678 107.208 193.562 107.129 193.467 107.029C193.372 106.929 193.3 106.811 193.257 106.683C193.213 106.555 193.198 106.419 193.213 106.285L194.142 96.1016Z" fill="#2F27CE"/>
<path opacity="0.3" d="M194.142 96.1016C194.171 95.8195 194.307 95.5572 194.523 95.363C194.739 95.1688 195.021 95.0559 195.318 95.0451C195.459 95.0427 195.6 95.0692 195.73 95.1227C195.86 95.1762 195.977 95.2555 196.073 95.3554C196.168 95.4553 196.241 95.5735 196.285 95.7022C196.329 95.8308 196.344 95.967 196.329 96.1016L195.4 106.218C195.386 106.512 195.256 106.791 195.038 106.999C194.819 107.207 194.526 107.329 194.218 107.342C194.077 107.343 193.937 107.316 193.808 107.262C193.678 107.208 193.562 107.129 193.467 107.029C193.372 106.929 193.3 106.811 193.257 106.683C193.213 106.555 193.198 106.419 193.213 106.285L194.142 96.1016Z" fill="white"/>
<path d="M168.956 232.33H112.337C110.86 232.355 109.394 232.079 108.037 231.521C106.68 230.962 105.463 230.134 104.467 229.091C103.472 228.047 102.72 226.813 102.262 225.471C101.804 224.128 101.651 222.707 101.812 221.304L113.655 91.9594C113.969 88.9718 115.42 86.1985 117.732 84.1651C120.044 82.1317 123.055 80.9797 126.197 80.9274H182.815C184.292 80.9022 185.757 81.178 187.114 81.7362C188.47 82.2945 189.687 83.1225 190.683 84.1651C191.678 85.2077 192.43 86.441 192.889 87.783C193.347 89.125 193.501 90.5449 193.34 91.9482L181.498 221.304C181.179 224.289 179.727 227.06 177.416 229.092C175.105 231.123 172.095 232.276 168.956 232.33Z" fill="#2F27CE"/>
<path d="M182.586 83.468H167.886C167.407 83.4769 166.945 83.639 166.574 83.9284C166.204 84.2177 165.945 84.6176 165.84 85.0641L165.74 85.508C165.484 86.5994 164.853 87.5771 163.946 88.2844C163.04 88.9916 161.912 89.3874 160.742 89.4083H146.736C145.628 89.431 144.555 89.0334 143.753 88.3025C142.951 87.5716 142.484 86.5669 142.455 85.508V85.0641C142.449 84.8485 142.398 84.6363 142.306 84.4394C142.214 84.2425 142.083 84.0649 141.919 83.9167C141.755 83.7684 141.562 83.6525 141.352 83.5755C141.141 83.4986 140.916 83.462 140.691 83.468H125.991C123.573 83.5109 121.256 84.3984 119.476 85.9629C117.696 87.5274 116.577 89.6606 116.33 91.9598L104.458 221.304C104.334 222.386 104.452 223.48 104.804 224.515C105.157 225.55 105.736 226.501 106.503 227.305C107.27 228.109 108.208 228.747 109.253 229.178C110.299 229.608 111.429 229.821 112.567 229.802H169.191C171.61 229.759 173.928 228.87 175.708 227.305C177.488 225.739 178.607 223.604 178.852 221.304L190.694 91.9598C190.818 90.8787 190.7 89.7847 190.347 88.7507C189.994 87.7168 189.414 86.7665 188.647 85.9632C187.88 85.1598 186.943 84.5218 185.898 84.0916C184.853 83.6613 183.724 83.4488 182.586 83.468Z" fill="#2F27CE"/>
<path opacity="0.7" d="M182.586 83.468H167.886C167.407 83.4769 166.945 83.639 166.574 83.9284C166.204 84.2177 165.945 84.6176 165.84 85.0641L165.74 85.508C165.484 86.5994 164.853 87.5771 163.946 88.2844C163.04 88.9916 161.912 89.3874 160.742 89.4083H146.736C145.628 89.431 144.555 89.0334 143.753 88.3025C142.951 87.5716 142.484 86.5669 142.455 85.508V85.0641C142.449 84.8485 142.398 84.6363 142.306 84.4394C142.214 84.2425 142.083 84.0649 141.919 83.9167C141.755 83.7684 141.562 83.6525 141.352 83.5755C141.141 83.4986 140.916 83.462 140.691 83.468H125.991C123.573 83.5109 121.256 84.3984 119.476 85.9629C117.696 87.5274 116.577 89.6606 116.33 91.9598L104.458 221.304C104.334 222.386 104.452 223.48 104.804 224.515C105.157 225.55 105.736 226.501 106.503 227.305C107.27 228.109 108.208 228.747 109.253 229.178C110.299 229.608 111.429 229.821 112.567 229.802H169.191C171.61 229.759 173.928 228.87 175.708 227.305C177.488 225.739 178.607 223.604 178.852 221.304L190.694 91.9598C190.818 90.8787 190.7 89.7847 190.347 88.7507C189.994 87.7168 189.414 86.7665 188.647 85.9632C187.88 85.1598 186.943 84.5218 185.898 84.0916C184.853 83.6613 183.724 83.4488 182.586 83.468Z" fill="white"/>
<g opacity="0.2">
<path d="M150.334 85.6383C150.803 85.209 150.85 84.5284 150.439 84.1181C150.028 83.7078 149.315 83.7232 148.846 84.1524C148.376 84.5817 148.329 85.2623 148.74 85.6726C149.151 86.0829 149.865 86.0675 150.334 85.6383Z" fill="black"/>
<path d="M158.789 83.8284H154.932C154.626 83.8337 154.333 83.9458 154.107 84.1435C153.882 84.3413 153.74 84.611 153.709 84.9018C153.694 85.0387 153.709 85.177 153.754 85.3077C153.799 85.4384 153.873 85.5585 153.97 85.6599C154.068 85.7614 154.186 85.842 154.319 85.8963C154.451 85.9507 154.594 85.9776 154.738 85.9752H158.595C158.9 85.9687 159.193 85.8562 159.418 85.6587C159.643 85.4612 159.785 85.1922 159.818 84.9018C159.834 84.7648 159.819 84.626 159.774 84.4949C159.73 84.3639 159.656 84.2434 159.559 84.1417C159.461 84.0401 159.342 83.9595 159.209 83.9055C159.077 83.8514 158.933 83.8251 158.789 83.8284Z" fill="black"/>
</g>
<path d="M122.699 89.3909H123.887L123.993 88.25H122.799L122.699 89.3909Z" fill="#2F27CE"/>
<path d="M125.188 88.2505L125.082 89.3913H126.27L126.376 88.2505L126.481 87.1152H125.288L125.188 88.2505Z" fill="#2F27CE"/>
<path d="M127.773 85.9746L127.667 87.1155L127.561 88.2507L127.461 89.3916H128.649L128.755 88.2507L128.86 87.1155L128.96 85.9746H127.773Z" fill="#2F27CE"/>
<path d="M178.97 86.0527L178.893 86.8845H178.305L178.152 88.5705H178.74L178.664 89.4079H183.903L184.209 86.0696L178.97 86.0527ZM181.069 88.5536H179.305L179.458 86.8676H181.222L181.069 88.5536Z" fill="#2F27CE"/>
<g opacity="0.4">
<path d="M146.78 89.4082L107.695 228.318C109.114 229.295 110.821 229.814 112.57 229.801H115.627L155.129 89.4082H146.78Z" fill="white"/>
<path d="M182.59 83.4683H167.89C167.411 83.4772 166.949 83.6393 166.578 83.9287C166.207 84.218 165.949 84.6179 165.843 85.0643L165.743 85.5083C165.495 86.5706 164.89 87.5262 164.02 88.2293C163.151 88.9325 162.065 89.3446 160.928 89.403L121.402 229.802H151.537L190.698 90.6169C190.573 88.6556 189.659 86.8167 188.148 85.4844C186.636 84.1522 184.645 83.4298 182.59 83.4683Z" fill="white"/>
</g>
<path d="M123.428 121.168L121.664 120.802C121.551 120.781 121.443 120.736 121.35 120.671C121.256 120.606 121.178 120.522 121.122 120.425C121.066 120.328 121.033 120.22 121.025 120.11C121.017 119.999 121.035 119.888 121.076 119.785L123.54 113.637L126.357 114.199L124.352 120.622C124.299 120.808 124.174 120.968 124.003 121.069C123.831 121.17 123.626 121.206 123.428 121.168Z" fill="#2F27CE"/>
<path d="M130.26 113.298C130.144 113.274 130.035 113.228 129.937 113.163C129.84 113.099 129.756 113.016 129.692 112.92C129.629 112.825 129.585 112.718 129.564 112.606C129.544 112.495 129.547 112.38 129.573 112.269L129.808 111.213C129.833 111.101 129.881 110.996 129.949 110.902C130.017 110.808 130.104 110.729 130.205 110.667C130.305 110.606 130.418 110.565 130.535 110.546C130.653 110.526 130.773 110.53 130.89 110.555C131.124 110.604 131.329 110.739 131.459 110.932C131.589 111.125 131.634 111.359 131.583 111.584L131.342 112.635C131.29 112.859 131.147 113.055 130.945 113.18C130.742 113.304 130.496 113.346 130.26 113.298Z" fill="#2F27CE"/>
<path d="M128.521 108.062C128.521 108.062 121.818 107.331 119.471 106.185C113.956 103.476 108.682 97.0128 107.564 96.7824C105.742 96.4002 103.26 100.525 102.014 105.994C100.767 111.462 101.238 116.194 103.06 116.57C104.183 116.806 111.78 113.019 117.978 112.743C120.612 112.631 127.01 114.648 127.01 114.648L128.521 108.062Z" fill="#2F27CE"/>
<path opacity="0.3" d="M128.521 108.062C128.521 108.062 121.818 107.331 119.471 106.185C113.956 103.476 108.682 97.0128 107.564 96.7824C105.742 96.4002 103.26 100.525 102.014 105.994C100.767 111.462 101.238 116.194 103.06 116.57C104.183 116.806 111.78 113.019 117.978 112.743C120.612 112.631 127.01 114.648 127.01 114.648L128.521 108.062Z" fill="white"/>
<path d="M108.612 107.341C107.372 112.804 104.884 116.929 103.062 116.547C101.239 116.165 100.774 111.433 102.015 105.97C103.256 100.507 105.743 96.3767 107.566 96.7589C109.389 97.1411 109.859 101.896 108.612 107.341Z" fill="#2F27CE"/>
<path opacity="0.4" d="M108.612 107.341C107.372 112.804 104.884 116.929 103.062 116.547C101.239 116.165 100.774 111.433 102.015 105.97C103.256 100.507 105.743 96.3767 107.566 96.7589C109.389 97.1411 109.859 101.896 108.612 107.341Z" fill="black"/>
<path d="M127.431 107.342L124.321 106.696C124.121 106.653 123.913 106.651 123.712 106.689C123.511 106.726 123.32 106.803 123.151 106.914C122.982 107.026 122.839 107.169 122.731 107.335C122.623 107.502 122.551 107.688 122.521 107.881C122.41 108.629 122.269 109.399 122.092 110.186C121.916 110.972 121.704 111.731 121.504 112.434C121.447 112.622 121.431 112.82 121.458 113.015C121.484 113.21 121.552 113.397 121.657 113.566C121.763 113.735 121.903 113.881 122.07 113.995C122.237 114.11 122.426 114.19 122.627 114.232L126.314 114.996C128.525 115.457 130.118 113.968 130.565 111.844C130.765 110.85 130.549 109.822 129.962 108.98C129.376 108.137 128.467 107.549 127.431 107.342Z" fill="#263238"/>
<path d="M105.412 106.245L105.218 107.105C105.161 107.345 105.196 107.597 105.316 107.815C105.435 108.033 105.632 108.203 105.871 108.296L108.128 109.195C108.305 108.605 108.47 107.993 108.611 107.363C108.752 106.734 108.875 106.104 108.975 105.497L106.523 105.419C106.266 105.41 106.014 105.488 105.811 105.639C105.608 105.79 105.467 106.005 105.412 106.245Z" fill="#263238"/>
<path opacity="0.8" d="M105.412 106.245L105.218 107.105C105.161 107.345 105.196 107.597 105.316 107.815C105.435 108.033 105.632 108.203 105.871 108.296L108.128 109.195C108.305 108.605 108.47 107.993 108.611 107.363C108.752 106.734 108.875 106.104 108.975 105.497L106.523 105.419C106.266 105.41 106.014 105.488 105.811 105.639C105.608 105.79 105.467 106.005 105.412 106.245Z" fill="white"/>
<path opacity="0.2" d="M107.117 107.049C106.993 107.611 106.858 108.117 106.711 108.634L108.128 109.196C108.304 108.606 108.469 107.993 108.61 107.364C108.751 106.734 108.875 106.105 108.975 105.498L107.434 105.447C107.348 105.961 107.242 106.494 107.117 107.049Z" fill="black"/>
<path d="M161.443 107.386C162.005 107.592 162.609 107.667 163.207 107.605C163.805 107.544 164.38 107.347 164.883 107.032C166.688 105.908 170.075 107.325 169.052 111.927C167.288 119.84 163.607 125.522 165.994 127.916C165.994 127.916 158.044 128.265 159.22 121.554C160.102 116.496 166.082 110.809 164.642 109.674C164.159 109.292 163.466 109.488 161.202 109.488L161.443 107.386Z" fill="#263238"/>
<path d="M161.203 109.488C162.293 109.454 163.381 109.579 164.431 109.859C164.802 108.84 164.946 107.759 164.855 106.684C163.697 106.811 162.554 107.046 161.444 107.386L161.203 109.488Z" fill="#2F27CE"/>
<path d="M153.716 101.621C153.716 101.621 150.411 100.722 152.593 98.6815C155.438 96.0232 159.484 101.003 159.484 101.003C159.484 101.003 168.968 104.965 161.142 114.153C161.142 114.153 158.314 118.987 157.726 117.104C157.138 115.221 161.066 109.888 161.066 109.888L160.83 105.111L159.743 103.251L156.326 101.385L153.716 101.621Z" fill="#263238"/>
<path d="M140.61 128.534C140.386 128.184 140.091 127.879 139.744 127.638C139.397 127.396 139.003 127.222 138.585 127.126C138.167 127.03 137.734 127.014 137.309 127.078C136.885 127.142 136.478 127.286 136.112 127.5H136.065C135.036 128.102 133.942 128.77 132.86 129.389L129.597 131.26C128.068 132.118 126.531 132.952 124.987 133.761C124.898 132.639 124.879 131.513 124.928 130.389C124.969 129.074 125.069 127.731 125.175 126.388C125.281 125.044 125.422 123.667 125.539 122.336V122.302C125.569 121.927 125.457 121.555 125.223 121.253C124.989 120.952 124.649 120.741 124.266 120.659C123.882 120.577 123.481 120.63 123.135 120.808C122.789 120.985 122.522 121.277 122.382 121.627C121.858 122.982 121.447 124.319 121.035 125.691C120.624 127.062 120.312 128.444 120.036 129.872C119.734 131.354 119.569 132.858 119.542 134.368C119.518 135.318 119.647 136.265 119.924 137.178C120.176 137.994 120.666 138.725 121.335 139.285C121.843 139.696 122.449 139.979 123.099 140.112C123.666 140.217 124.249 140.217 124.816 140.112C124.952 140.083 125.086 140.043 125.216 139.994L125.41 139.921C126.662 139.426 127.909 138.931 129.12 138.369C130.332 137.807 131.543 137.245 132.725 136.655C133.907 136.065 135.077 135.43 136.253 134.773C137.429 134.115 138.522 133.458 139.681 132.693C140.354 132.238 140.823 131.558 140.995 130.787C141.168 130.017 141.03 129.212 140.61 128.534Z" fill="#CE7A63"/>
<path d="M143.474 124.431C145.456 128.247 142.604 131.558 137.376 136.863C134.646 134.747 132.739 131.816 131.961 128.54C131.961 128.54 138.006 123.774 143.474 124.431Z" fill="#2F27CE"/>
<path opacity="0.2" d="M143.68 128.963C141.746 127.839 139.564 127.333 138.053 129.171C136.874 130.65 135.507 131.985 133.984 133.144C134.91 134.547 136.061 135.803 137.395 136.864C140.535 133.695 142.781 131.239 143.68 128.963Z" fill="black"/>
<path d="M124.071 115.21L125.411 116.058C125.662 116.214 125.869 116.425 126.015 116.674C126.161 116.922 126.243 117.201 126.252 117.486L126.358 120.189C126.376 120.721 126.261 121.249 126.024 121.731C125.787 122.213 125.434 122.634 124.994 122.96L124.435 123.37C122.083 122.106 120.56 119.104 120.56 119.104L120.019 118.295C119.904 118.132 119.823 117.949 119.781 117.756C119.74 117.562 119.74 117.363 119.779 117.17C119.819 116.976 119.899 116.792 120.014 116.629C120.129 116.465 120.277 116.325 120.449 116.216L122.107 115.17C122.403 114.995 122.746 114.906 123.095 114.912C123.443 114.919 123.782 115.023 124.071 115.21Z" fill="#CE7A63"/>
<path d="M138.882 229.802C141.928 220.81 144.009 210.823 141.94 203.534C154.523 168.207 148.849 157.922 148.849 157.922L133.872 152.701C133.872 152.701 131.732 184.516 131.085 199.909C130.726 208.513 129.192 219.703 127.422 229.808L138.882 229.802Z" fill="#263238"/>
<path opacity="0.5" d="M146.65 170.994L143.61 166.307L141.752 169.96C140.782 180.032 141.241 190.184 143.116 200.139C145.538 193.186 147.452 186.08 148.843 178.873L146.65 170.994Z" fill="black"/>
<path d="M148.084 229.802H159.439C160.615 220.456 160.615 210.402 157.146 203.68C162.438 166.706 154.794 157.652 154.794 157.652L139.047 155.27C139.047 155.27 143.322 186.888 145.774 202.101C147.038 209.98 147.755 220.203 148.084 229.802Z" fill="#263238"/>
<path d="M136.463 131.535C135.798 134.271 135.326 137.046 135.052 139.842C134.546 143.916 134.176 147.94 133.688 154.667L155.008 157.921C155.532 152.121 157.313 145.686 163.282 133.351C163.619 132.709 163.802 132.003 163.817 131.285C163.832 130.567 163.678 129.855 163.368 129.201C163.058 128.547 162.599 127.968 162.025 127.505C161.45 127.043 160.775 126.709 160.048 126.528C159.218 126.32 158.336 126.118 157.425 125.932C154.237 125.226 151.001 124.737 147.741 124.471C146.676 124.403 145.565 124.364 144.501 124.342C140.655 124.246 137.174 127.967 136.463 131.535Z" fill="#2F27CE"/>
<path d="M158.467 115.383C157.133 118.232 155.198 123.532 156.892 125.825C156.892 125.825 154.01 124.954 147.137 127.707C145.731 124.948 147.213 124.335 147.213 124.335C150.876 124.083 151.388 121.632 151.329 119.277L158.467 115.383Z" fill="#CE7A63"/>
<path d="M148.578 127.163C148.948 127.293 149.284 127.497 149.564 127.762C149.844 128.027 150.061 128.346 150.201 128.698C150.318 128.953 150.49 129.183 150.707 129.37C150.923 129.558 151.178 129.7 151.456 129.786C151.734 129.873 152.027 129.902 152.318 129.872C152.608 129.843 152.889 129.754 153.141 129.614C154.905 128.664 157.128 127.31 158.239 126.107C157.663 125.688 157.112 125.24 156.587 124.764C156.587 124.764 149.972 126.208 148.578 127.163Z" fill="white"/>
<path d="M146.665 126.55C146.162 126.628 145.686 126.821 145.278 127.112C145.164 127.191 145.028 127.233 144.888 127.233C144.747 127.233 144.611 127.191 144.497 127.113C144.384 127.034 144.299 126.923 144.256 126.796C144.212 126.669 144.212 126.531 144.255 126.404C144.99 124.414 146.26 124.156 146.26 124.156C146.873 123.932 147.551 123.932 148.165 124.156C147.656 124.317 147.225 124.647 146.949 125.087C146.674 125.526 146.573 126.045 146.665 126.55Z" fill="white"/>
<path opacity="0.2" d="M155.562 116.975L151.352 119.279C151.372 119.843 151.336 120.407 151.246 120.965C152.622 120.965 154.774 119.886 155.244 118.599C155.454 118.081 155.562 117.53 155.562 116.975Z" fill="black"/>
<path d="M162.118 109.815C160.354 114.48 159.766 116.481 156.491 118.352C151.605 121.162 145.977 118.436 146.218 113.451C146.442 108.955 149.253 102.088 154.697 101.284C155.861 101.074 157.062 101.165 158.176 101.548C159.291 101.931 160.277 102.592 161.034 103.463C161.791 104.333 162.291 105.381 162.481 106.498C162.672 107.615 162.547 108.76 162.118 109.815Z" fill="#CE7A63"/>
<path d="M155.561 109.64C155.432 110.039 155.114 110.314 154.844 110.252C154.573 110.19 154.462 109.819 154.585 109.42C154.709 109.021 155.038 108.752 155.309 108.814C155.579 108.875 155.691 109.246 155.561 109.64Z" fill="#263238"/>
<path d="M150.358 108.313C150.229 108.706 149.905 108.982 149.635 108.92C149.364 108.858 149.253 108.487 149.382 108.094C149.511 107.7 149.835 107.419 150.105 107.481C150.376 107.543 150.487 107.903 150.358 108.313Z" fill="#263238"/>
<path d="M150.218 107.533L149.312 107.033C149.312 107.033 149.583 107.904 150.218 107.533Z" fill="#263238"/>
<path d="M151.871 109.135C151.209 109.96 150.438 110.7 149.578 111.338C149.748 111.53 149.961 111.683 150.201 111.786C150.441 111.889 150.703 111.939 150.966 111.934L151.871 109.135Z" fill="#BA4D3C"/>
<path d="M157.144 107.342C157.11 107.339 157.078 107.329 157.05 107.312C157.021 107.296 156.997 107.273 156.979 107.246C156.818 106.995 156.594 106.785 156.327 106.638C156.06 106.491 155.758 106.41 155.45 106.403C155.418 106.404 155.386 106.399 155.356 106.387C155.326 106.376 155.299 106.359 155.276 106.338C155.253 106.316 155.235 106.291 155.222 106.262C155.21 106.234 155.203 106.204 155.203 106.173C155.207 106.107 155.237 106.045 155.285 105.998C155.334 105.952 155.399 105.924 155.468 105.92C155.857 105.926 156.239 106.025 156.579 106.208C156.919 106.39 157.206 106.651 157.414 106.965C157.437 107.007 157.447 107.054 157.444 107.1C157.441 107.147 157.425 107.193 157.397 107.231C157.369 107.27 157.331 107.301 157.286 107.32C157.242 107.34 157.192 107.347 157.144 107.342Z" fill="#263238"/>
<path d="M149.243 104.976C149.214 104.965 149.188 104.948 149.166 104.927C149.143 104.905 149.126 104.88 149.114 104.852C149.093 104.792 149.099 104.726 149.128 104.669C149.158 104.613 149.21 104.569 149.273 104.549C149.649 104.397 150.057 104.331 150.465 104.354C150.873 104.378 151.27 104.49 151.625 104.684C151.651 104.701 151.673 104.724 151.69 104.751C151.707 104.777 151.718 104.806 151.722 104.837C151.727 104.867 151.725 104.899 151.716 104.928C151.707 104.958 151.692 104.986 151.672 105.01C151.631 105.061 151.571 105.096 151.505 105.107C151.439 105.118 151.37 105.106 151.313 105.071C151.03 104.92 150.713 104.833 150.389 104.818C150.065 104.802 149.741 104.858 149.443 104.982C149.411 104.993 149.377 104.999 149.343 104.998C149.308 104.997 149.275 104.99 149.243 104.976Z" fill="#263238"/>
<path d="M155.423 108.865L154.523 108.365C154.523 108.365 154.788 109.225 155.423 108.865Z" fill="#263238"/>
<path d="M136.029 146.855H130.949C130.702 146.845 130.466 146.758 130.275 146.608C130.084 146.458 129.949 146.253 129.891 146.023L127.539 135.503C127.509 135.404 127.504 135.3 127.524 135.198C127.545 135.097 127.59 135.003 127.657 134.922C127.724 134.841 127.81 134.776 127.908 134.734C128.006 134.691 128.113 134.672 128.221 134.677H133.301C133.547 134.687 133.783 134.772 133.974 134.921C134.165 135.07 134.3 135.274 134.359 135.503L136.711 146.023C136.741 146.122 136.746 146.227 136.726 146.328C136.705 146.429 136.659 146.525 136.593 146.606C136.526 146.687 136.44 146.752 136.342 146.795C136.245 146.839 136.137 146.859 136.029 146.855Z" fill="#263238"/>
<path d="M135.443 146.855H130.363C130.116 146.845 129.88 146.758 129.689 146.608C129.498 146.458 129.363 146.253 129.305 146.023L126.953 135.503C126.923 135.404 126.918 135.3 126.938 135.198C126.959 135.097 127.004 135.003 127.071 134.922C127.138 134.841 127.224 134.776 127.322 134.734C127.42 134.691 127.527 134.672 127.635 134.677H132.715C132.961 134.687 133.197 134.772 133.388 134.921C133.579 135.07 133.714 135.274 133.774 135.503L136.126 146.023C136.155 146.122 136.16 146.227 136.14 146.328C136.119 146.429 136.073 146.525 136.007 146.606C135.94 146.687 135.855 146.752 135.757 146.795C135.659 146.839 135.551 146.859 135.443 146.855Z" fill="#263238"/>
<path opacity="0.2" d="M135.443 146.855H130.363C130.116 146.845 129.88 146.758 129.689 146.608C129.498 146.458 129.363 146.253 129.305 146.023L126.953 135.503C126.923 135.404 126.918 135.3 126.938 135.198C126.959 135.097 127.004 135.003 127.071 134.922C127.138 134.841 127.224 134.776 127.322 134.734C127.42 134.691 127.527 134.672 127.635 134.677H132.715C132.961 134.687 133.197 134.772 133.388 134.921C133.579 135.07 133.714 135.274 133.774 135.503L136.126 146.023C136.155 146.122 136.16 146.227 136.14 146.328C136.119 146.429 136.073 146.525 136.007 146.606C135.94 146.687 135.855 146.752 135.757 146.795C135.659 146.839 135.551 146.859 135.443 146.855Z" fill="white"/>
<path d="M133.619 140.657L135.195 140.326C135.486 140.264 135.788 140.27 136.076 140.342C136.365 140.414 136.631 140.551 136.853 140.741L138.958 142.551C139.37 142.909 139.688 143.356 139.886 143.854C140.083 144.352 140.154 144.888 140.093 145.417L140.01 146.08C137.441 146.805 134.13 145.783 134.13 145.783L133.143 145.592C132.939 145.558 132.745 145.486 132.571 145.379C132.397 145.273 132.247 145.135 132.129 144.973C132.012 144.811 131.929 144.628 131.886 144.435C131.843 144.242 131.84 144.043 131.878 143.849L132.249 141.978C132.321 141.656 132.489 141.36 132.732 141.126C132.974 140.892 133.282 140.729 133.619 140.657Z" fill="#CE7A63"/>
<path d="M160.719 129.715C159.857 129.637 158.997 129.889 158.329 130.416C157.661 130.943 157.239 131.701 157.156 132.525V132.632C157.097 133.194 157.02 133.88 156.944 134.515C156.867 135.15 156.773 135.807 156.673 136.454C156.473 137.752 156.232 139.033 155.962 140.303C155.691 141.573 155.374 142.821 154.992 144.041C154.68 145.018 154.321 145.963 153.939 146.884C153.465 146.903 152.99 146.874 152.522 146.8C151.004 146.582 149.503 146.264 148.03 145.85C146.648 145.434 145.254 144.951 143.861 144.445C142.467 143.939 141.062 143.394 139.692 142.872H139.657C139.288 142.725 138.876 142.713 138.499 142.838C138.122 142.962 137.805 143.215 137.61 143.548C137.415 143.881 137.355 144.27 137.44 144.643C137.526 145.016 137.752 145.345 138.075 145.569C139.369 146.48 140.674 147.255 142.02 148.064C143.367 148.874 144.76 149.565 146.213 150.234C147.885 150.934 149.616 151.498 151.387 151.92C152.346 152.172 153.333 152.308 154.327 152.324C154.993 152.332 155.656 152.239 156.291 152.049C157.182 151.788 157.977 151.292 158.584 150.616C158.69 150.491 158.784 150.357 158.867 150.217L158.925 150.11C159.686 148.772 160.346 147.384 160.901 145.957C161.437 144.566 161.892 143.147 162.265 141.708C162.647 140.286 162.941 138.853 163.183 137.415C163.294 136.69 163.394 135.97 163.482 135.245C163.571 134.52 163.635 133.818 163.676 132.997C163.721 132.191 163.439 131.4 162.887 130.788C162.336 130.177 161.559 129.792 160.719 129.715Z" fill="#CE7A63"/>
<path d="M161.703 127.23C165.337 129.686 165.513 133.362 163.549 140.398C160.921 141.657 154.535 140.067 154.535 140.067C154.535 140.067 156.546 129.141 161.703 127.23Z" fill="#2F27CE"/>
<path d="M148.624 113.282C148.624 113.282 150.388 112.951 155.18 113.091C154.592 114.463 153.486 115.553 151.011 115.48C150.417 115.517 149.832 115.327 149.384 114.952C148.936 114.577 148.663 114.047 148.624 113.479C148.624 113.412 148.618 113.35 148.624 113.282Z" fill="#263238"/>
<path d="M152.189 114.406C151.24 114.329 150.29 114.54 149.473 115.007C149.924 115.304 150.459 115.463 151.007 115.463C151.955 115.542 152.904 115.332 153.718 114.861C153.272 114.559 152.736 114.4 152.189 114.406Z" fill="#BA4D3C"/>
<path d="M148.844 113.255C148.888 113.424 148.979 113.58 149.109 113.704C149.238 113.827 149.401 113.915 149.579 113.957C151.01 113.996 152.442 113.919 153.859 113.727C154.085 113.712 154.304 113.646 154.497 113.532C154.69 113.418 154.85 113.261 154.965 113.075C152.923 112.98 150.876 113.04 148.844 113.255Z" fill="white"/>
<path d="M154.74 100.973C154.431 101.018 154.127 101.084 153.828 101.17V101.44C154.602 101.43 155.372 101.538 156.11 101.76C160.179 102.946 160.814 105.132 159.449 108.364C158.797 109.904 158.444 113.169 159.197 113.781C159.391 113.939 159.979 113.916 160.743 113.781C161.249 112.657 161.731 111.348 162.348 109.696C162.783 108.615 162.907 107.443 162.709 106.302C162.512 105.16 161.998 104.089 161.223 103.2C160.447 102.311 159.438 101.636 158.298 101.244C157.158 100.853 155.93 100.759 154.74 100.973Z" fill="#263238"/>
<path d="M162.585 114.085C162.208 114.462 161.757 114.763 161.257 114.971C160.758 115.18 160.22 115.291 159.675 115.299C158.263 115.299 158.04 113.906 158.834 112.748C159.545 111.708 161.133 110.455 162.362 111.022C163.591 111.59 163.561 113.124 162.585 114.085Z" fill="#CE7A63"/>
<g opacity="0.9">
<path d="M153.911 137.958C144.009 137.396 139.54 135.626 137.758 134.637C137.701 134.608 137.648 134.572 137.6 134.53C137.088 134.103 137.735 133.322 138.329 133.648C139.887 134.508 144.179 136.255 153.981 136.834C154.136 136.843 154.281 136.91 154.385 137.021C154.488 137.131 154.542 137.276 154.534 137.424C154.53 137.499 154.511 137.572 154.478 137.639C154.444 137.706 154.397 137.766 154.339 137.816C154.281 137.866 154.213 137.904 154.14 137.928C154.066 137.953 153.988 137.963 153.911 137.958Z" fill="white"/>
</g>
<g opacity="0.9">
<path d="M153.392 143.31C153.392 143.386 153.376 143.462 153.344 143.532C153.313 143.602 153.267 143.665 153.209 143.718C153.152 143.77 153.083 143.811 153.008 143.838C152.934 143.864 152.854 143.876 152.774 143.872C147.125 143.676 141.569 142.431 136.416 140.208C136.345 140.174 136.282 140.127 136.23 140.069C136.179 140.011 136.14 139.944 136.116 139.872C136.093 139.799 136.085 139.723 136.093 139.647C136.101 139.572 136.125 139.499 136.163 139.432C136.236 139.306 136.356 139.211 136.499 139.167C136.643 139.124 136.798 139.134 136.934 139.196C141.948 141.34 147.345 142.545 152.833 142.748C152.984 142.755 153.126 142.818 153.23 142.922C153.334 143.027 153.392 143.166 153.392 143.31Z" fill="white"/>
</g>
<g opacity="0.9">
<path d="M143.433 152.679C138.847 151.825 136.489 151.24 135.495 150.993C135.419 150.972 135.348 150.936 135.286 150.888C135.225 150.84 135.174 150.781 135.137 150.714C135.101 150.647 135.078 150.573 135.072 150.497C135.066 150.422 135.076 150.346 135.101 150.274C135.15 150.137 135.251 150.024 135.385 149.957C135.518 149.89 135.673 149.875 135.818 149.914C136.771 150.172 139.123 150.751 143.656 151.6C143.809 151.629 143.944 151.714 144.031 151.837C144.118 151.96 144.15 152.111 144.121 152.258C144.086 152.399 143.995 152.523 143.866 152.601C143.738 152.68 143.583 152.708 143.433 152.679Z" fill="white"/>
</g>
<path d="M153.898 102.845C153.7 102.925 153.478 102.928 153.278 102.853C153.078 102.779 152.916 102.633 152.828 102.446C152.748 102.256 152.721 102.049 152.75 101.846C152.778 101.643 152.862 101.451 152.992 101.288C153.256 100.963 153.599 100.704 153.992 100.535C153.659 100.913 153.427 101.362 153.316 101.845C153.327 102.283 153.469 102.985 153.898 102.845Z" fill="#263238"/>
<path d="M158.81 114.316C158.809 114.368 158.796 114.419 158.773 114.465C158.75 114.512 158.716 114.553 158.675 114.587C158.634 114.62 158.586 114.645 158.534 114.659C158.482 114.674 158.428 114.678 158.375 114.67C158.267 114.648 158.168 114.597 158.089 114.524C158.01 114.45 157.954 114.357 157.928 114.255C157.883 114.047 157.883 113.833 157.928 113.625C157.963 113.146 158.085 112.677 158.286 112.237C158.489 111.794 158.858 111.439 159.321 111.242C159.404 111.336 159.457 111.45 159.473 111.572C159.49 111.693 159.47 111.817 159.415 111.928C159.294 112.125 159.156 112.313 159.004 112.49C158.827 112.741 158.712 113.027 158.668 113.327C158.624 113.627 158.652 113.933 158.751 114.221C158.798 114.232 158.763 114.311 158.81 114.316Z" fill="#263238"/>
<path d="M92.5579 149.963H50.6923C49.1484 149.963 47.6678 150.549 46.5761 151.593C45.4844 152.636 44.8711 154.051 44.8711 155.527V185.942C44.8711 187.418 45.4844 188.833 46.5761 189.876C47.6678 190.92 49.1484 191.506 50.6923 191.506H82.3208C82.6278 193.887 83.8349 196.079 85.7149 197.669C87.595 199.259 90.0182 200.137 92.5285 200.138C92.7578 200.138 92.9871 200.138 93.2165 200.105C91.5818 198.048 90.2471 195.047 89.3709 191.506H92.5755C94.1194 191.506 95.6001 190.92 96.6917 189.876C97.7834 188.833 98.3967 187.418 98.3967 185.942V155.527C98.3967 154.795 98.2456 154.07 97.9519 153.394C97.6583 152.718 97.2279 152.103 96.6855 151.587C96.1431 151.07 95.4993 150.66 94.791 150.382C94.0827 150.103 93.3238 149.961 92.5579 149.963Z" fill="#2F27CE"/>
<path opacity="0.4" d="M92.5579 149.963H50.6923C49.1484 149.963 47.6678 150.549 46.5761 151.593C45.4844 152.636 44.8711 154.051 44.8711 155.527V185.942C44.8711 187.418 45.4844 188.833 46.5761 189.876C47.6678 190.92 49.1484 191.506 50.6923 191.506H82.3208C82.6278 193.887 83.8349 196.079 85.7149 197.669C87.595 199.259 90.0182 200.137 92.5285 200.138C92.7578 200.138 92.9871 200.138 93.2165 200.105C91.5818 198.048 90.2471 195.047 89.3709 191.506H92.5755C94.1194 191.506 95.6001 190.92 96.6917 189.876C97.7834 188.833 98.3967 187.418 98.3967 185.942V155.527C98.3967 154.795 98.2456 154.07 97.9519 153.394C97.6583 152.718 97.2279 152.103 96.6855 151.587C96.1431 151.07 95.4993 150.66 94.791 150.382C94.0827 150.103 93.3238 149.961 92.5579 149.963Z" fill="white"/>
<path d="M100.941 162.889L104.199 160.006L106.986 164.935C106.986 164.935 103.758 167.289 101.847 165.839L100.941 162.889Z" fill="#FF8B7B"/>
<path d="M100.943 162.885L98.7266 167.392L101.767 169.797L104.424 165.684L100.943 162.885Z" fill="#FF8B7B"/>
<path d="M107.3 160.676L107.835 162.536C107.968 162.971 107.958 163.434 107.806 163.863C107.655 164.292 107.369 164.666 106.988 164.936L105.812 165.683L102.484 160.097L105.336 159.411C105.552 159.369 105.775 159.368 105.991 159.409C106.207 159.45 106.413 159.532 106.596 159.649C106.779 159.767 106.935 159.919 107.056 160.095C107.177 160.271 107.26 160.469 107.3 160.676Z" fill="#FF8B7B"/>
<path d="M100.941 162.889C100.941 162.889 102.117 159.416 101.929 158.353C101.829 157.718 102.517 157.819 103.07 158.011C103.283 158.08 103.469 158.209 103.604 158.382C103.738 158.555 103.814 158.762 103.823 158.977C103.87 160.101 103.823 162.293 102.923 162.433C102.25 162.531 101.587 162.683 100.941 162.889Z" fill="#FF8B7B"/>
<path d="M104.748 166.498C103.834 165.521 102.616 164.852 101.273 164.587L100.286 164.391C99.6975 164.278 99.5858 164.391 99.5152 164.554L99.233 164.975L98.645 165.812C98.2569 166.374 97.8688 166.936 97.469 167.498C96.687 168.622 95.8696 169.673 95.0464 170.696C94.2756 171.674 93.4284 172.595 92.5122 173.45L92.2711 173.664C91.9653 173.349 91.6831 173.017 91.3773 172.674C90.5169 171.634 89.7142 170.552 88.9724 169.432C88.2139 168.308 85.756 164.902 85.0857 163.677C84.7506 163.07 84.4213 162.452 84.1096 161.833L83.6569 160.906C83.5216 160.608 83.357 160.26 83.2629 160.035L83.1982 159.889C82.7161 158.875 81.8336 158.085 80.7436 157.691C79.6536 157.297 78.4448 157.331 77.3812 157.786C76.3176 158.241 75.4858 159.08 75.0674 160.12C74.6491 161.159 74.6782 162.315 75.1485 163.334C75.3602 163.789 75.5248 164.115 75.7365 164.492L76.3245 165.571C76.7165 166.286 77.1085 166.989 77.5005 167.678C78.3355 169.066 80.9932 172.607 81.9693 173.939C82.9585 175.295 84.0408 176.587 85.2092 177.806C86.4385 179.102 87.7996 180.279 89.2723 181.318L89.4546 181.447C89.9067 181.761 90.4276 181.972 90.9778 182.064C91.5279 182.157 92.0928 182.128 92.6298 181.981C93.8279 181.647 94.945 181.089 95.9167 180.34C96.659 179.778 97.3495 179.155 97.9806 178.48C99.0839 177.294 100.088 176.028 100.985 174.692C101.85 173.416 102.608 172.112 103.337 170.809C103.684 170.145 104.025 169.488 104.343 168.814L104.813 167.802L105.042 167.291C105.113 167.111 105.148 166.914 104.748 166.498Z" fill="#263238"/>
<path opacity="0.4" d="M82.956 164.711L79.722 166.897L78.793 169.01C78.9517 169.291 79.1046 169.572 79.2692 169.853C80.0983 171.241 81.0332 172.59 81.9858 173.922C82.975 175.278 84.0573 176.57 85.2257 177.789C85.8137 178.351 86.4017 178.913 86.9897 179.475C85.4021 175.906 82.956 164.711 82.956 164.711Z" fill="black"/>
<path d="M54.0495 181.795C54.3024 187.415 53.3733 187.156 53.3498 191.506H82.0031C83.5613 178.237 82.8321 176.197 82.8615 167.39C82.8615 162.434 82.0677 157.376 76.9051 156.859C70.8414 156.293 64.7327 156.331 58.6771 156.971C57.7699 157.077 56.894 157.354 56.1006 157.788C55.3073 158.221 54.6125 158.802 54.0572 159.496C53.5018 160.189 53.0969 160.982 52.8664 161.827C52.6359 162.672 52.5844 163.553 52.7148 164.417C53.8731 171.909 53.244 176.152 54.0495 181.795Z" fill="#263238"/>
<path opacity="0.9" d="M74.2902 156.651C70.4727 156.412 66.6432 156.401 62.8242 156.617C62.9065 157.741 63.8003 160.551 70.3095 162.985C70.3095 162.985 71.7618 159.972 72.9849 161.327C72.9849 161.327 73.9668 159.596 76.0719 162.782C76.0719 162.782 79.2118 159.568 74.2902 156.651Z" fill="white"/>
<path opacity="0.4" d="M58.7998 164.621C59.429 169.831 55.948 178.542 54.0958 182.751C54.0958 182.459 54.0958 182.139 54.0958 181.796C53.5901 178.278 53.6489 175.299 53.5078 171.747L58.7998 164.621Z" fill="black"/>
<path d="M65.6338 146.682C65.7303 150.099 65.0397 153.495 63.6111 156.629C63.558 156.748 63.5448 156.88 63.5732 157.007C63.6016 157.134 63.6703 157.249 63.7698 157.337C66.1692 159.314 69.2459 160.379 72.4134 160.327C76.2648 160.372 76.0414 159.203 75.13 157.927C74.9972 157.746 74.8246 157.594 74.6243 157.483C71.9901 155.988 71.896 153.988 72.6369 152.779L65.6338 146.682Z" fill="#FF8B7B"/>
<path opacity="0.2" d="M65.6408 146.682L72.638 152.779C72.4042 153.163 72.269 153.595 72.2435 154.038C72.2179 154.482 72.3028 154.925 72.491 155.331C71.0146 155.375 69.5755 154.883 68.4632 153.954C66.658 152.487 66.0465 150.756 65.5938 148.334C65.629 147.806 65.6408 147.244 65.6408 146.682Z" fill="black"/>
<path d="M63.5524 143.512C63.8582 148.008 63.1937 148.727 65.581 151.003C69.1737 154.426 75.0243 155.078 75.8534 150.525C76.5943 146.423 77.0294 138.999 72.3901 137.268C71.3677 136.879 70.2585 136.746 69.1674 136.881C68.0763 137.017 67.0393 137.416 66.1545 138.041C65.2698 138.666 64.5664 139.496 64.1111 140.454C63.6558 141.411 63.4635 142.464 63.5524 143.512Z" fill="#FF8B7B"/>
<path d="M74.9715 148.367C74.9715 148.367 73.3192 147.867 68.6328 147.676C69.1326 149.283 70.1146 150.621 72.5136 150.694C74.9127 150.767 74.9715 148.367 74.9715 148.367Z" fill="#263238"/>
<path d="M71.4448 149.385C72.3883 149.371 73.3061 149.68 74.032 150.257C73.5982 150.567 73.0613 150.717 72.5208 150.678C71.5755 150.696 70.6557 150.385 69.9336 149.801C70.3682 149.493 70.905 149.345 71.4448 149.385Z" fill="#FF5652"/>
<path d="M74.759 148.293C74.6179 148.625 74.4709 148.962 74.0005 149.052C72.613 148.99 71.2348 148.801 69.8845 148.49C69.6525 148.45 69.4355 148.353 69.255 148.208C69.0745 148.063 68.9368 147.876 68.8555 147.664C70.8393 147.701 72.8154 147.912 74.759 148.293Z" fill="white"/>
<path d="M73.1289 144.17C73.6244 145.008 74.2399 145.776 74.9576 146.452C74.7722 146.625 74.5491 146.757 74.3042 146.839C74.0592 146.92 73.7985 146.949 73.5405 146.924L73.1289 144.17Z" fill="#FF5652"/>
<path d="M68.4924 142.231C68.4522 142.226 68.415 142.208 68.3866 142.181C68.3644 142.16 68.3467 142.135 68.3347 142.107C68.3226 142.08 68.3164 142.05 68.3164 142.021C68.3164 141.991 68.3226 141.961 68.3347 141.934C68.3467 141.906 68.3644 141.881 68.3866 141.86C68.6303 141.587 68.939 141.373 69.2868 141.237C69.6346 141.102 70.0115 141.047 70.3858 141.079C70.4481 141.088 70.5043 141.12 70.5418 141.169C70.5792 141.217 70.595 141.278 70.5857 141.338C70.5763 141.397 70.5426 141.451 70.4919 141.487C70.4411 141.523 70.3776 141.538 70.3152 141.529C70.0177 141.507 69.719 141.553 69.4439 141.663C69.1688 141.774 68.9253 141.945 68.7335 142.164C68.7041 142.196 68.6658 142.219 68.6232 142.231C68.5805 142.243 68.5352 142.243 68.4924 142.231Z" fill="#263238"/>
<path d="M76.3015 143.029C76.2631 143.035 76.2237 143.032 76.1867 143.021C76.1498 143.009 76.1165 142.988 76.0898 142.961C75.8948 142.749 75.6495 142.584 75.3744 142.48C75.0993 142.377 74.8023 142.337 74.5081 142.366C74.4473 142.376 74.385 142.362 74.3344 142.329C74.2838 142.295 74.2491 142.244 74.2376 142.186C74.2273 142.126 74.2419 142.065 74.2782 142.016C74.3144 141.966 74.3695 141.933 74.4316 141.922C74.8025 141.883 75.1778 141.929 75.5264 142.056C75.8751 142.183 76.1871 142.387 76.4367 142.652C76.4589 142.673 76.4766 142.698 76.4886 142.726C76.5007 142.753 76.5069 142.783 76.5069 142.812C76.5069 142.842 76.5007 142.872 76.4886 142.899C76.4766 142.927 76.4589 142.952 76.4367 142.973C76.3987 143.004 76.3515 143.024 76.3015 143.029Z" fill="#263238"/>
<path d="M45.3253 182.711C45.3355 182.924 45.369 183.135 45.4252 183.341C45.9565 185.138 46.647 186.888 47.4891 188.573C47.9164 189.465 48.3574 190.342 48.8121 191.203C49.4179 191.402 50.0534 191.504 50.6937 191.507H57.0382L56.4091 190.164C55.7094 188.697 55.0626 187.224 54.4746 185.769C53.9848 184.588 53.5724 183.379 53.2398 182.149C53.3065 181.679 53.4067 181.213 53.5397 180.756C53.7219 180.081 53.9689 179.351 54.2511 178.609C54.8391 177.131 55.4859 175.608 56.1915 174.113C56.8971 172.618 57.6792 171.084 58.4671 169.572C59.255 168.06 60.0782 166.532 60.8955 165.104V165.053L60.9367 164.969C61.47 163.974 61.568 162.818 61.2091 161.754C60.8501 160.69 60.0637 159.806 59.0227 159.296C57.9818 158.786 56.7716 158.692 55.6584 159.035C54.5452 159.378 53.6202 160.13 53.0869 161.125C52.2049 162.777 51.4111 164.357 50.6114 165.992C49.8117 167.627 49.0885 169.28 48.3829 170.966C47.6773 172.652 47.0422 174.355 46.4542 176.181C46.1661 177.097 45.9074 178.041 45.6898 179.058C45.4194 180.217 45.295 181.401 45.3194 182.588L45.3253 182.711Z" fill="#263238"/>
<path d="M61.4169 146.525C61.8245 147.488 62.6001 148.268 63.5866 148.705C64.8449 149.222 65.5387 148.048 65.2389 146.699C64.9743 145.491 63.9923 143.76 62.7046 143.816C61.4169 143.872 60.8818 145.288 61.4169 146.525Z" fill="#FF8B7B"/>
<path d="M69.6016 143.759C69.6016 144.146 69.7721 144.478 70.0484 144.495C70.3248 144.512 70.5541 144.208 70.5718 143.809C70.5894 143.41 70.4012 143.09 70.1308 143.073C69.8603 143.056 69.6251 143.36 69.6016 143.759Z" fill="#2E353A"/>
<path d="M74.2539 144.017C74.2539 144.41 74.4303 144.742 74.6949 144.758C74.9595 144.775 75.2006 144.466 75.23 144.073C75.2594 143.679 75.0536 143.353 74.789 143.337C74.5244 143.32 74.2774 143.623 74.2539 144.017Z" fill="#2E353A"/>
<path d="M87.7043 71.1309H45.8622C44.3193 71.1324 42.8402 71.7192 41.7498 72.7625C40.6594 73.8057 40.0469 75.2201 40.0469 76.6947V107.11C40.0461 107.841 40.196 108.564 40.4879 109.239C40.7798 109.914 41.208 110.527 41.7481 111.044C42.2881 111.561 42.9295 111.971 43.6354 112.25C44.3413 112.53 45.098 112.674 45.8622 112.674H77.479C77.782 115.056 78.987 117.25 80.8665 118.841C82.746 120.433 85.1699 121.312 87.6808 121.312C87.916 121.312 88.1453 121.312 88.3746 121.278C86.74 119.216 85.3993 116.22 84.5291 112.674H87.7337C89.2776 112.674 90.7582 112.088 91.8499 111.044C92.9416 110.001 93.5549 108.586 93.5549 107.11V76.6947C93.5541 75.9619 93.402 75.2364 93.1074 74.5599C92.8127 73.8834 92.3813 73.2691 91.8378 72.7522C91.2943 72.2353 90.6494 71.8261 89.9401 71.5478C89.2308 71.2696 88.471 71.1279 87.7043 71.1309Z" fill="#2F27CE"/>
<path opacity="0.4" d="M87.7043 71.1309H45.8622C44.3193 71.1324 42.8402 71.7192 41.7498 72.7625C40.6594 73.8057 40.0469 75.2201 40.0469 76.6947V107.11C40.0461 107.841 40.196 108.564 40.4879 109.239C40.7798 109.914 41.208 110.527 41.7481 111.044C42.2881 111.561 42.9295 111.971 43.6354 112.25C44.3413 112.53 45.098 112.674 45.8622 112.674H77.479C77.782 115.056 78.987 117.25 80.8665 118.841C82.746 120.433 85.1699 121.312 87.6808 121.312C87.916 121.312 88.1453 121.312 88.3746 121.278C86.74 119.216 85.3993 116.22 84.5291 112.674H87.7337C89.2776 112.674 90.7582 112.088 91.8499 111.044C92.9416 110.001 93.5549 108.586 93.5549 107.11V76.6947C93.5541 75.9619 93.402 75.2364 93.1074 74.5599C92.8127 73.8834 92.3813 73.2691 91.8378 72.7522C91.2943 72.2353 90.6494 71.8261 89.9401 71.5478C89.2308 71.2696 88.471 71.1279 87.7043 71.1309Z" fill="white"/>
<path d="M77.4499 112.674C77.21 109.407 77.21 106.128 77.4499 102.861C77.8144 97.1065 76.0151 90.8852 74.6569 89.823C72.6988 88.2775 70.876 86.8219 70.2292 88.7665C69.8529 89.8905 69.7412 91.7451 69.7647 93.8245C69.8235 98.8487 70.9407 105.115 71.4699 108.009C71.6639 109.032 72.152 112.68 72.152 112.68L77.4499 112.674Z" fill="#2F27CE"/>
<path d="M73.7925 90.0708C73.7255 89.6577 73.535 89.2719 73.2439 88.9598C72.9529 88.6477 72.5737 88.4227 72.152 88.3117C70.682 87.9352 68.1418 87.3226 65.831 86.9292C63.1079 86.5063 60.3572 86.2659 57.599 86.2099C55.835 86.1424 54.1415 86.2099 52.7832 86.2661C52.6223 86.2781 52.4628 86.3045 52.307 86.3447C52.02 86.4225 51.7519 86.5535 51.518 86.7303C51.2841 86.9072 51.0889 87.1263 50.9436 87.3753C50.7984 87.6243 50.7059 87.8981 50.6714 88.1813C50.637 88.4644 50.6613 88.7513 50.7429 89.0255C54.2297 100.923 54.953 106.616 55.1352 112.674H72.152C72.9458 107.178 74.504 102.665 74.6451 99.4337C74.7662 96.2911 74.4798 93.1462 73.7925 90.0708Z" fill="#2F27CE"/>
<path opacity="0.8" d="M73.7925 90.0708C73.7255 89.6577 73.535 89.2719 73.2439 88.9598C72.9529 88.6477 72.5737 88.4227 72.152 88.3117C70.682 87.9352 68.1418 87.3226 65.831 86.9292C63.1079 86.5063 60.3572 86.2659 57.599 86.2099C55.835 86.1424 54.1415 86.2099 52.7832 86.2661C52.6223 86.2781 52.4628 86.3045 52.307 86.3447C52.02 86.4225 51.7519 86.5535 51.518 86.7303C51.2841 86.9072 51.0889 87.1263 50.9436 87.3753C50.7984 87.6243 50.7059 87.8981 50.6714 88.1813C50.637 88.4644 50.6613 88.7513 50.7429 89.0255C54.2297 100.923 54.953 106.616 55.1352 112.674H72.152C72.9458 107.178 74.504 102.665 74.6451 99.4337C74.7662 96.2911 74.4798 93.1462 73.7925 90.0708Z" fill="white"/>
<path d="M66.8011 84.1813C65.6839 85.6256 64.8666 87.3397 66.6188 89.2393C66.9988 89.6356 67.2214 90.1467 67.248 90.6836C67.248 91.5435 66.7482 92.3696 63.82 90.7286C59.5746 88.3457 59.9333 85.6706 59.9333 85.6706C62.1618 85.0243 63.4966 80.5451 64.014 77.9824L66.8011 84.1813Z" fill="#FFB573"/>
<path opacity="0.2" d="M64.249 81.8085C63.9256 82.8987 65.131 84.6185 66.0483 85.3266C66.2619 84.9316 66.5118 84.5554 66.795 84.2026L65.1486 80.5215C64.7636 80.8902 64.458 81.3274 64.249 81.8085Z" fill="black"/>
<path d="M75.4192 70.7038C76.9128 72.5134 73.5494 77.9648 73.1848 76.824C72.5968 74.9694 71.7384 71.204 71.7501 69.6585C71.7736 67.2194 73.9316 68.8998 75.4192 70.7038Z" fill="#263238"/>
<path d="M63.0358 71.272C63.4321 70.6272 63.9575 70.0634 64.582 69.6127C65.2064 69.162 65.9176 68.8334 66.675 68.6455C67.4324 68.4576 68.221 68.4142 68.996 68.5177C69.7709 68.6212 70.5169 68.8697 71.1913 69.2488C75.1956 71.4631 74.8899 77.6788 73.4199 81.2532C71.8087 85.2377 66.3638 85.7492 63.5473 82.1243C61.654 79.7077 61.895 77.9486 62.2302 73.7842C62.2888 72.898 62.5648 72.0374 63.0358 71.272Z" fill="#FFB573"/>
<path d="M68.359 75.8699C68.3296 76.2127 68.4883 76.5049 68.7177 76.5274C68.947 76.5499 69.1645 76.2914 69.2057 75.9654C69.2468 75.6395 69.0763 75.3304 68.847 75.3079C68.6177 75.2854 68.4119 75.572 68.359 75.8699Z" fill="#263238"/>
<path d="M68.7305 75.3568L69.6066 75.2051C69.6066 75.2051 69.1127 75.7783 68.7305 75.3568Z" fill="#263238"/>
<path d="M72.8164 76.8407C72.8164 77.1835 72.9458 77.4757 73.1751 77.4982C73.4044 77.5207 73.622 77.2622 73.6631 76.9362C73.7043 76.6103 73.5338 76.3012 73.3044 76.2787C73.0751 76.2562 72.8693 76.5203 72.8164 76.8407Z" fill="#263238"/>
<path d="M73.1875 76.308L74.0636 76.1562C74.0636 76.1562 73.5697 76.7295 73.1875 76.308Z" fill="#263238"/>
<path d="M71.1445 79.4088C71.3507 79.4888 71.5725 79.5253 71.7948 79.5156C72.0171 79.5059 72.2346 79.4502 72.4323 79.3525C72.0092 78.6256 71.6926 77.8465 71.4914 77.0371L71.1445 79.4088Z" fill="#ED893E"/>
<path d="M67.7904 79.2683C67.7795 79.2443 67.7783 79.2172 67.787 79.1923C67.7957 79.1674 67.8136 79.1465 67.8374 79.1335C67.8624 79.1217 67.8912 79.1198 67.9176 79.1282C67.944 79.1367 67.9659 79.1547 67.9785 79.1784C68.1957 79.547 68.5014 79.8611 68.8704 80.0946C69.2395 80.3281 69.6613 80.4745 70.1012 80.5216C70.1266 80.5281 70.1487 80.5429 70.1638 80.5635C70.1788 80.584 70.1858 80.609 70.1835 80.634C70.1821 80.6464 70.1781 80.6584 70.1716 80.6692C70.1651 80.68 70.1563 80.6894 70.1458 80.6968C70.1353 80.7042 70.1233 80.7095 70.1105 80.7122C70.0978 80.7149 70.0846 80.7151 70.0718 80.7127C69.9026 80.6949 69.7353 80.663 69.572 80.6171C69.1962 80.5166 68.8452 80.3455 68.5393 80.1139C68.2334 79.8824 67.9788 79.5949 67.7904 79.2683Z" fill="#263238"/>
<path d="M68.2052 73.7058C68.1725 73.6641 68.1584 73.6116 68.1661 73.56C68.1739 73.5083 68.2027 73.4617 68.2464 73.4304C68.5957 73.228 68.9863 73.0993 69.3919 73.0527C69.7975 73.0062 70.2088 73.043 70.5984 73.1607C70.6501 73.1785 70.6925 73.2149 70.7166 73.2621C70.7408 73.3093 70.7448 73.3636 70.7277 73.4136C70.7103 73.4626 70.6734 73.503 70.6249 73.5262C70.5765 73.5493 70.5205 73.5533 70.469 73.5372C70.1442 73.4371 69.801 73.4033 69.4616 73.4382C69.1223 73.473 68.7944 73.5757 68.4992 73.7395C68.4649 73.7655 68.4224 73.7797 68.3787 73.7797C68.3349 73.7797 68.2924 73.7655 68.2581 73.7395L68.2052 73.7058Z" fill="#263238"/>
<path d="M74.6225 75.0031C74.4813 74.792 74.2889 74.6163 74.0617 74.4911C73.8345 74.3659 73.5791 74.2948 73.3171 74.2838C73.2896 74.2845 73.2622 74.28 73.2366 74.2705C73.2109 74.2609 73.1875 74.2465 73.1678 74.2282C73.1481 74.2099 73.1324 74.1879 73.1217 74.1637C73.111 74.1394 73.1055 74.1134 73.1055 74.0871C73.1054 74.0344 73.1269 73.9838 73.1654 73.946C73.2038 73.9082 73.2562 73.8862 73.3113 73.8848C73.6417 73.8959 73.9645 73.9822 74.2529 74.1367C74.5414 74.2911 74.787 74.5092 74.9694 74.7727C74.9846 74.794 74.9952 74.8179 75.0005 74.8432C75.0057 74.8684 75.0056 74.8944 75.0001 74.9196C74.9946 74.9448 74.9839 74.9686 74.9685 74.9898C74.9531 75.0109 74.9334 75.0288 74.9106 75.0425C74.88 75.0616 74.8443 75.0718 74.8077 75.0718C74.7712 75.0718 74.7354 75.0616 74.7048 75.0425L74.6225 75.0031Z" fill="#263238"/>
<path d="M69.2717 70.4401C68.6148 70.5579 67.9935 70.8136 67.4525 71.1888C66.9116 71.5639 66.4645 72.0491 66.1435 72.6094C65.8436 73.1377 63.915 74.2954 63.5857 74.8181C62.5508 76.4647 63.6798 81.1518 63.1918 81.5059C62.7037 81.8599 62.8742 80.4718 62.4097 80.202C61.9168 79.9894 61.4446 79.7355 60.9985 79.4433C60.4105 78.9713 58.3702 73.8852 60.8868 70.8054C62.139 69.1809 63.9722 68.0529 66.0377 67.6357C68.1303 67.2958 70.2786 67.7627 72.0118 68.9339C72.5586 69.3105 73.517 70.3389 72.0118 70.7998C71.6002 70.9234 71.5825 70.6087 71.1533 70.5075C70.5385 70.3557 69.8966 70.3327 69.2717 70.4401Z" fill="#263238"/>
<path d="M59.2643 74.8175C60.7166 73.4687 62.5277 73.4687 64.127 73.4687C64.887 73.5262 65.6514 73.4442 66.3791 73.2271C67.9902 72.5583 68.978 70.3609 69.1603 69.6415C69.2578 69.3471 69.4319 69.0813 69.6664 68.8689C69.901 68.6566 70.1881 68.5047 70.501 68.4276C70.7555 68.4157 71.0096 68.4602 71.2432 68.5577C71.4768 68.6552 71.6836 68.803 71.8475 68.9896C72.1356 69.3886 72.1062 69.9675 71.7593 70.6756L71.9886 70.7711C72.3708 69.9562 72.3884 69.3043 72.0533 68.8322C71.8638 68.6134 71.6242 68.4393 71.3529 68.3233C71.0817 68.2073 70.7861 68.1526 70.4892 68.1635C70.1217 68.2418 69.7826 68.4122 69.5067 68.6571C69.2308 68.902 69.0281 69.2127 68.9192 69.5572C68.7546 70.2204 67.7844 72.3672 66.2791 72.9854C65.5831 73.1898 64.8525 73.2642 64.127 73.2046C62.5629 73.2046 60.599 73.2046 59.0938 74.6208L59.2643 74.8175Z" fill="#263238"/>
<path opacity="0.1" d="M59.2643 74.8175C60.7166 73.4687 62.5277 73.4687 64.127 73.4687C64.887 73.5262 65.6514 73.4442 66.3791 73.2271C67.9902 72.5583 68.978 70.3609 69.1603 69.6415C69.2578 69.3471 69.4319 69.0813 69.6664 68.8689C69.901 68.6566 70.1881 68.5047 70.501 68.4276C70.7555 68.4157 71.0096 68.4602 71.2432 68.5577C71.4768 68.6552 71.6836 68.803 71.8475 68.9896C72.1356 69.3886 72.1062 69.9675 71.7593 70.6756L71.9886 70.7711C72.3708 69.9562 72.3884 69.3043 72.0533 68.8322C71.8638 68.6134 71.6242 68.4393 71.3529 68.3233C71.0817 68.2073 70.7861 68.1526 70.4892 68.1635C70.1217 68.2418 69.7826 68.4122 69.5067 68.6571C69.2308 68.902 69.0281 69.2127 68.9192 69.5572C68.7546 70.2204 67.7844 72.3672 66.2791 72.9854C65.5831 73.1898 64.8525 73.2642 64.127 73.2046C62.5629 73.2046 60.599 73.2046 59.0938 74.6208L59.2643 74.8175Z" fill="white"/>
<path d="M60.5098 76.3972C60.5337 76.2188 60.5943 76.0466 60.688 75.8907C60.7817 75.7347 60.9067 75.5979 61.0559 75.4883C61.205 75.3786 61.3754 75.2982 61.5571 75.2516C61.7389 75.2051 61.9285 75.1933 62.115 75.2169C63.197 75.3743 63.6909 76.7681 63.6909 77.6785C63.6909 78.6845 62.9088 79.432 61.9563 78.8643C61.2426 78.4294 60.7375 77.7426 60.551 76.9535C60.4963 76.7729 60.4823 76.5833 60.5098 76.3972Z" fill="#FFB573"/>
<path d="M62.4318 91.2286C62.2024 94.106 59.4212 104.975 53.3942 105.279C52.4339 105.304 51.4984 104.985 50.7717 104.385C45.9148 101.575 49.731 88.0308 50.707 87.244C51.1309 86.8966 51.639 86.6563 52.1851 86.5451C52.7312 86.4339 53.2977 86.4553 53.8329 86.6073C54.3681 86.7594 54.8548 87.0373 55.2486 87.4155C55.6425 87.7938 55.9308 88.2604 56.0872 88.7727C56.2141 88.3441 56.3143 87.9087 56.3871 87.4688C56.64 86.002 57.4749 82.585 59.0155 82.3378C59.9445 82.186 61.8555 82.1073 62.4082 82.8323C62.961 83.5573 62.814 86.4797 62.4318 91.2286Z" fill="#2F27CE"/>
<g opacity="0.2">
<path d="M62.1133 75.2168V75.4697L62.3896 77.965V81.1796L62.8483 79.2688C62.9647 78.771 62.9905 78.2577 62.9247 77.7514L62.6013 75.3573L62.1133 75.2168Z" fill="black"/>
</g>
<path d="M59.0904 82.9161L58.3672 77.9087L62.736 77.875C62.736 77.875 62.3774 81.6348 61.2837 82.933L59.0904 82.9161Z" fill="#FFB573"/>
<path d="M59.1375 74.4863L62.3715 75.0315L62.7184 77.864L58.3672 77.9089L59.1375 74.4863Z" fill="#FFB573"/>
<path opacity="0.2" d="M54.7476 93.3301C54.7476 93.3301 52.131 99.1074 52.0487 96.8201C51.9663 94.3304 54.7476 93.3301 54.7476 93.3301Z" fill="black"/>
<path d="M216.026 127.113H199.844C199.103 127.113 198.393 127.395 197.869 127.895C197.345 128.396 197.051 129.075 197.051 129.783V139.741C197.052 140.448 197.347 141.126 197.871 141.625C198.395 142.125 199.104 142.405 199.844 142.405H204.495L206.571 145.002C206.73 145.202 206.936 145.365 207.172 145.476C207.408 145.588 207.668 145.646 207.932 145.646C208.195 145.646 208.455 145.588 208.691 145.476C208.927 145.365 209.133 145.202 209.293 145.002L211.369 142.405H216.026C216.765 142.405 217.474 142.125 217.996 141.625C218.519 141.126 218.813 140.448 218.813 139.741V129.783C218.813 129.076 218.519 128.398 217.997 127.897C217.474 127.397 216.765 127.115 216.026 127.113Z" fill="#2F27CE"/>
<path opacity="0.7" d="M216.026 127.113H199.844C199.103 127.113 198.393 127.395 197.869 127.895C197.345 128.396 197.051 129.075 197.051 129.783V139.741C197.052 140.448 197.347 141.126 197.871 141.625C198.395 142.125 199.104 142.405 199.844 142.405H204.495L206.571 145.002C206.73 145.202 206.936 145.365 207.172 145.476C207.408 145.588 207.668 145.646 207.932 145.646C208.195 145.646 208.455 145.588 208.691 145.476C208.927 145.365 209.133 145.202 209.293 145.002L211.369 142.405H216.026C216.765 142.405 217.474 142.125 217.996 141.625C218.519 141.126 218.813 140.448 218.813 139.741V129.783C218.813 129.076 218.519 128.398 217.997 127.897C217.474 127.397 216.765 127.115 216.026 127.113Z" fill="white"/>
<path d="M215.084 133.958L209.915 130.945V132.755H207.563C206.041 132.755 204.581 133.333 203.505 134.362C202.429 135.39 201.824 136.785 201.824 138.24C201.826 138.646 201.873 139.052 201.965 139.448C202.254 138.235 202.965 137.152 203.982 136.375C204.999 135.598 206.261 135.174 207.563 135.172H209.915V136.987L215.084 133.958Z" fill="#2F27CE"/>
<path d="M102.166 66.1582H114.573C115.14 66.1582 115.685 66.3737 116.086 66.7574C116.487 67.141 116.713 67.6613 116.713 68.2039V75.8696C116.713 76.1379 116.657 76.4037 116.55 76.6516C116.442 76.8994 116.284 77.1246 116.086 77.3141C115.887 77.5036 115.651 77.6538 115.391 77.7559C115.131 77.8581 114.853 77.9104 114.573 77.9096H111.003L109.416 79.9047C109.293 80.0585 109.136 80.1831 108.955 80.2689C108.773 80.3547 108.574 80.3993 108.372 80.3993C108.17 80.3993 107.971 80.3547 107.79 80.2689C107.609 80.1831 107.451 80.0585 107.328 79.9047L105.735 77.9096H102.166C101.885 77.9104 101.607 77.8581 101.348 77.7558C101.089 77.6536 100.853 77.5033 100.655 77.3138C100.456 77.1242 100.299 76.899 100.192 76.6511C100.085 76.4033 100.03 76.1377 100.031 75.8696V68.2039C100.03 67.9355 100.085 67.6696 100.192 67.4215C100.299 67.1733 100.456 66.9477 100.654 66.7577C100.853 66.5677 101.088 66.4169 101.348 66.314C101.607 66.2112 101.885 66.1582 102.166 66.1582Z" fill="#2F27CE"/>
<path opacity="0.7" d="M102.166 66.1582H114.573C115.14 66.1582 115.685 66.3737 116.086 66.7574C116.487 67.141 116.713 67.6613 116.713 68.2039V75.8696C116.713 76.1379 116.657 76.4037 116.55 76.6516C116.442 76.8994 116.284 77.1246 116.086 77.3141C115.887 77.5036 115.651 77.6538 115.391 77.7559C115.131 77.8581 114.853 77.9104 114.573 77.9096H111.003L109.416 79.9047C109.293 80.0585 109.136 80.1831 108.955 80.2689C108.773 80.3547 108.574 80.3993 108.372 80.3993C108.17 80.3993 107.971 80.3547 107.79 80.2689C107.609 80.1831 107.451 80.0585 107.328 79.9047L105.735 77.9096H102.166C101.885 77.9104 101.607 77.8581 101.348 77.7558C101.089 77.6536 100.853 77.5033 100.655 77.3138C100.456 77.1242 100.299 76.899 100.192 76.6511C100.085 76.4033 100.03 76.1377 100.031 75.8696V68.2039C100.03 67.9355 100.085 67.6696 100.192 67.4215C100.299 67.1733 100.456 66.9477 100.654 66.7577C100.853 66.5677 101.088 66.4169 101.348 66.314C101.607 66.2112 101.885 66.1582 102.166 66.1582Z" fill="white"/>
<path d="M102.902 71.4072L106.877 69.0918V70.4799H108.694C109.354 70.4817 110.004 70.6248 110.598 70.8987C111.192 71.1726 111.714 71.5704 112.126 72.0627C112.538 72.555 112.829 73.1294 112.978 73.7435C113.127 74.3575 113.13 74.9957 112.987 75.611C112.765 74.6808 112.22 73.85 111.44 73.2547C110.66 72.6595 109.692 72.335 108.694 72.3345H106.877V73.7227L102.902 71.4072Z" fill="#2F27CE"/>
</svg>