<svg width="32" height="33" viewBox="0 0 32 33" fill="none" xmlns="http://www.w3.org/2000/svg">
<path d="M6.66667 25.8333H8.56667L21.6 12.8L19.7 10.9L6.66667 23.9333V25.8333ZM4 28.5V22.8333L21.6 5.26667C21.8667 5.02222 22.1611 4.83333 22.4833 4.7C22.8056 4.56667 23.1444 4.5 23.5 4.5C23.8556 4.5 24.2 4.56667 24.5333 4.7C24.8667 4.83333 25.1556 5.03333 25.4 5.3L27.2333 7.16667C27.5 7.41111 27.6944 7.7 27.8167 8.03333C27.9389 8.36667 28 8.7 28 9.03333C28 9.38889 27.9389 9.72778 27.8167 10.05C27.6944 10.3722 27.5 10.6667 27.2333 10.9333L9.66667 28.5H4ZM20.6333 11.8667L19.7 10.9L21.6 12.8L20.6333 11.8667Z" fill="#AC6ED9"/>
</svg>
