<svg width="500" height="500" viewBox="0 0 500 500" fill="none" xmlns="http://www.w3.org/2000/svg">
    <g clip-path="url(#clip0_2903_7094)">
        <g opacity="0.15">
            <path d="M322.09 97.9996C317.35 101.29 304.61 103.5 304.6 103.5C304.59 103.5 305.69 94.6596 305.83 94.1096C307.47 87.7396 314.37 76.3896 321.73 75.9396C327.02 75.6196 330.91 80.2196 330.73 85.3096C330.55 90.3996 326.13 95.1696 322.09 97.9996Z" fill="black"/>
            <path d="M286.999 258.31C286.999 258.61 286.999 258.89 286.999 259.19L282.599 262C282.599 260.8 282.599 259.59 282.599 258.33C282.599 254.79 282.669 251 282.769 247.11C279.119 246.428 275.513 245.53 271.969 244.42C269.059 249.15 260.509 255.71 259.399 256.55C261.309 259.47 263.209 262.28 265.029 264.92C266.289 266.73 267.509 268.46 268.689 270.13L263.899 271.07C263.079 269.87 262.259 268.64 261.419 267.36C259.419 264.41 257.419 261.21 255.369 257.91C254.069 258.46 243.369 262.91 237.969 262.76C233.059 262.63 226.839 261.09 223.819 256.86C220.799 252.63 221.599 246.74 226.209 244.11C232.609 240.45 244.599 246.17 249.449 250.61C249.739 250.87 252.529 254.06 254.259 256.1C253.429 254.75 252.599 253.44 251.759 252.04C250.079 249.27 248.489 246.46 246.759 243.45L244.379 238.95C243.559 237.46 242.879 235.79 242.109 234.19C240.399 230.46 238.859 226.6 237.389 222.68C234.969 224.15 226.279 229.23 221.389 229.84C216.499 230.45 210.139 229.84 206.509 226.15C202.879 222.46 202.779 216.48 206.939 213.15C212.709 208.57 225.429 212.41 230.939 216.06C231.289 216.28 234.939 219.35 236.879 221.06C236.009 218.69 235.139 216.33 234.339 213.91C232.039 206.91 229.929 199.77 227.789 192.65C227.123 190.47 226.456 188.297 225.789 186.13C224.939 186.66 214.789 192.93 209.259 193.61C204.379 194.23 197.999 193.61 194.379 189.92C190.759 186.23 190.649 180.25 194.809 176.92C200.579 172.34 213.299 176.18 218.809 179.83C219.219 180.11 224.439 184.52 225.709 185.71C224.229 180.92 222.709 176.17 221.029 171.55C218.75 165.326 216.067 159.256 212.999 153.38C212.599 153.62 201.999 160.21 196.379 160.91C191.499 161.52 185.119 160.91 181.489 157.22C177.859 153.53 177.759 147.55 181.919 144.22C187.689 139.64 200.409 143.48 205.919 147.13C206.339 147.42 211.919 152.13 212.919 153.13C212.749 152.79 212.599 152.42 212.419 152.13C209.206 146.289 205.481 140.744 201.289 135.56C199.019 132.66 196.679 130.03 194.289 127.56C192.439 128.99 183.919 135.43 178.929 136.62C174.149 137.76 167.739 137.89 163.729 134.62C159.719 131.35 158.959 125.42 162.729 121.69C167.969 116.5 181.029 118.92 186.869 121.95C187.189 122.11 190.229 124.14 192.429 125.65C191.359 124.53 190.269 123.36 189.229 122.31C185.299 118.31 181.469 114.97 178.049 112C176.049 110.33 174.289 108.86 172.579 107.5C170.039 107.95 159.749 109.66 154.859 108.44C149.969 107.22 144.349 104.44 142.309 99.6302C140.269 94.8202 142.309 89.2702 147.389 87.6902C154.389 85.5002 164.899 93.6902 168.689 99.0402C169.019 99.5102 173.299 107.36 173.169 107.39H173.019C174.679 108.66 176.449 110.05 178.359 111.61C181.849 114.51 185.769 117.81 189.789 121.7C194.172 125.839 198.305 130.234 202.169 134.86C206.534 140.011 210.426 145.543 213.799 151.39L213.909 151.61C213.449 149.5 212.379 143.56 212.349 143.09C211.919 136.53 214.939 123.59 221.789 120.87C226.719 118.87 231.849 122.07 233.239 126.97C234.629 131.87 231.999 137.68 228.999 141.6C225.659 146.03 215.099 151.75 214.259 152.21C217.546 158.241 220.426 164.485 222.879 170.9C224.329 174.63 225.679 178.44 226.979 182.27C226.649 180.43 226.359 178.78 226.349 178.55C225.919 171.99 228.939 159.05 235.789 156.33C240.719 154.33 245.849 157.53 247.239 162.43C248.629 167.33 245.999 173.25 242.999 177.17C239.999 181.09 231.089 186.17 228.709 187.52C229.199 189 229.709 190.46 230.179 191.94C232.469 199.02 234.729 206.1 237.179 212.94C238.029 215.36 238.959 217.71 239.889 220.07C239.589 218.44 239.359 217.07 239.339 216.85C238.909 210.29 241.929 197.35 248.779 194.63C253.709 192.68 258.839 195.83 260.229 200.73C261.619 205.63 258.999 211.59 255.999 215.51C252.999 219.43 244.999 224.06 242.139 225.62C243.139 228.01 244.139 230.4 245.269 232.62C246.049 234.15 246.699 235.68 247.569 237.18C248.439 238.68 249.229 240.18 250.039 241.63C251.719 244.4 253.429 247.27 255.129 249.93C256.299 251.79 257.449 253.54 258.599 255.31C257.719 252.9 256.089 248.17 255.999 247.75C254.97 242.068 255.407 236.217 257.269 230.75C257.126 230.119 257.042 229.477 257.019 228.83C256.839 223.75 260.749 219.17 266.019 219.52C273.369 220 280.209 231.39 281.809 237.77C281.909 238.14 282.479 242.34 282.809 244.99C282.869 243.41 282.899 241.86 282.969 240.23C283.099 237 283.309 233.77 283.529 230.3C283.699 228.63 283.869 226.94 284.039 225.24C284.209 223.54 284.529 221.77 284.759 220.02C285.399 216.02 286.239 211.9 287.179 207.81C284.349 207.7 274.299 207.15 269.879 204.96C265.459 202.77 260.469 198.77 259.499 193.67C258.529 188.57 261.729 183.54 267.009 183.09C274.349 182.45 282.849 192.67 285.399 198.73C285.559 199.11 286.899 203.67 287.589 206.18C288.169 203.73 288.739 201.28 289.409 198.83C291.349 191.72 293.529 184.6 295.669 177.48C296.329 175.3 296.959 173.12 297.599 170.93C296.599 170.93 284.599 170.51 279.679 168.05C275.279 165.87 270.269 161.87 269.299 156.76C268.329 151.65 271.529 146.64 276.819 146.18C284.149 145.55 292.649 155.76 295.199 161.83C295.389 162.28 297.309 168.83 297.719 170.54C299.119 165.73 300.479 160.93 301.619 156.15C303.199 149.696 304.355 143.145 305.079 136.54C304.609 136.54 292.079 136.17 287.079 133.65C282.669 131.47 277.669 127.47 276.699 122.36C275.729 117.25 278.919 112.24 284.209 111.78C291.549 111.15 300.039 121.36 302.589 127.43C302.799 127.9 304.859 134.96 305.139 136.27C305.139 135.89 305.259 135.49 305.299 135.11C305.847 128.453 305.801 121.759 305.159 115.11C304.859 111.44 304.359 107.95 303.799 104.57C301.469 104.74 290.799 105.41 285.989 103.65C281.369 101.97 275.989 98.5402 274.439 93.5702C272.889 88.6002 275.539 83.2602 280.739 82.2302C287.969 80.7902 297.529 90.0102 300.739 95.7602C300.909 96.0702 302.329 99.4402 303.329 101.92C303.049 100.39 302.799 98.8102 302.509 97.3602C301.419 91.9002 300.089 86.9602 298.869 82.6002C298.159 80.1202 297.469 77.9002 296.799 75.8202C294.419 74.8202 284.899 70.5502 281.499 66.8202C278.099 63.0902 274.949 57.6602 275.889 52.5402C276.829 47.4202 281.599 44.0002 286.699 45.4602C293.779 47.5202 298.009 60.1102 298.209 66.6902C298.209 67.2502 297.459 76.1702 297.339 76.1202L297.189 76.0602C297.879 78.0602 298.589 80.1702 299.319 82.5202C300.629 86.8602 302.069 91.7802 303.319 97.2502C304.692 103.119 305.72 109.062 306.399 115.05C307.188 121.757 307.378 128.52 306.969 135.26V135.5C307.759 133.5 310.139 127.94 310.369 127.5C313.629 121.79 323.289 112.67 330.499 114.18C335.689 115.27 338.229 120.73 336.689 125.59C335.149 130.45 329.689 133.91 325.029 135.59C319.799 137.43 307.829 136.38 306.879 136.29C306.294 143.139 305.252 149.941 303.759 156.65C302.909 160.56 301.939 164.48 300.909 168.39C301.649 166.67 302.319 165.14 302.429 164.94C305.689 159.23 315.349 150.1 322.559 151.62C327.759 152.71 330.289 158.17 328.749 163.02C327.209 167.87 321.749 171.35 317.089 173.02C312.429 174.69 302.169 174.02 299.459 173.77C299.059 175.27 298.659 176.77 298.249 178.26C296.249 185.44 294.249 192.59 292.469 199.67C291.849 202.16 291.329 204.67 290.799 207.11C291.449 205.59 292.009 204.31 292.119 204.11C295.379 198.4 305.039 189.28 312.249 190.79C317.439 191.88 319.979 197.34 318.439 202.2C316.899 207.06 311.439 210.52 306.779 212.2C302.119 213.88 292.849 213.2 289.639 212.98C289.169 215.54 288.699 218.1 288.359 220.59C288.169 222.3 287.859 223.93 287.769 225.66C287.679 227.39 287.499 229.06 287.369 230.73C287.239 233.97 287.079 237.3 287.029 240.46C287.029 242.66 286.969 244.75 286.959 246.86C287.549 244.37 288.809 239.52 288.959 239.13C291.319 232.99 299.489 222.51 306.839 222.91C312.139 223.2 315.469 228.22 314.679 233.25C313.889 238.28 308.999 242.54 304.679 244.86C299.909 247.41 288.389 248.21 286.949 248.3C286.859 251.71 286.879 255.11 286.999 258.31Z" fill="black"/>
            <path d="M194.32 126.06C194.22 126.15 190.32 118.06 190.16 117.54C188.01 111.33 187.51 98.05 193.4 93.62C197.64 90.43 203.4 92.12 206.06 96.48C208.72 100.84 207.69 107.25 205.87 111.82C203.73 117.17 194.33 126.05 194.32 126.06Z" fill="black"/>
        </g>
        <g opacity="0.15">
            <path d="M127.931 283.27C127.111 286.13 122.751 291.18 122.751 291.19C122.751 291.2 120.301 287.3 120.171 287.04C118.741 283.96 117.791 277.18 120.571 274.59C121.047 274.175 121.605 273.865 122.209 273.68C122.813 273.495 123.449 273.439 124.076 273.516C124.703 273.592 125.306 273.799 125.848 274.124C126.39 274.448 126.857 274.883 127.221 275.4C128.831 277.54 128.621 280.83 127.931 283.27Z" fill="black"/>
            <path d="M166.33 358.71L166.62 359.05L165.8 361.61L164.6 360.15C163.44 358.74 162.23 357.21 161 355.62C159.319 356.54 157.586 357.361 155.81 358.08C156.2 360.92 154.93 366.33 154.76 367.02C156.48 367.56 158.15 368.07 159.76 368.52C160.86 368.84 161.91 369.13 162.93 369.4L161.32 371.4L159.12 370.73C157.37 370.19 155.52 369.58 153.62 368.93C153.28 369.58 150.47 374.85 148.27 376.56C146.27 378.11 143.27 379.56 140.69 378.83C140.076 378.685 139.499 378.412 138.998 378.029C138.496 377.647 138.08 377.163 137.778 376.61C137.475 376.056 137.292 375.445 137.241 374.816C137.189 374.188 137.271 373.555 137.48 372.96C138.83 369.41 145.48 367.77 148.87 367.96C149.07 367.96 151.23 368.33 152.58 368.58C151.81 368.31 151.05 368.06 150.26 367.77C148.69 367.22 147.13 366.62 145.46 365.98L143.04 364.98C142.22 364.66 141.4 364.22 140.58 363.83C138.68 362.9 136.8 361.83 134.93 360.78C134.44 362.16 132.64 367.02 130.93 368.87C129.22 370.72 126.45 372.56 123.79 372.26C123.161 372.21 122.55 372.029 121.995 371.728C121.441 371.426 120.956 371.012 120.572 370.511C120.189 370.011 119.914 369.435 119.767 368.821C119.621 368.208 119.604 367.57 119.72 366.95C120.52 363.24 126.85 360.61 130.23 360.28C130.44 360.28 132.89 360.28 134.23 360.33C133.11 359.67 131.99 359.02 130.88 358.33C127.68 356.33 124.5 354.14 121.32 352C120.32 351.34 119.32 350.7 118.39 350C118.22 350.49 116.2 356.32 114.24 358.39C112.5 360.23 109.76 362.08 107.1 361.78C106.471 361.73 105.86 361.549 105.305 361.248C104.751 360.946 104.266 360.532 103.882 360.031C103.499 359.531 103.224 358.955 103.077 358.341C102.931 357.728 102.914 357.09 103.03 356.47C103.83 352.76 110.16 350.13 113.54 349.8C113.79 349.8 117.32 349.8 118.21 349.88C116.06 348.46 113.9 347.06 111.72 345.77C108.779 344.005 105.726 342.435 102.58 341.07C102.51 341.3 100.43 347.4 98.4199 349.51C96.6699 351.35 93.9399 353.21 91.2699 352.91C90.6409 352.859 90.0295 352.677 89.4756 352.374C88.9216 352.072 88.4375 351.656 88.0546 351.154C87.6717 350.653 87.3986 350.076 87.2531 349.462C87.1076 348.848 87.0929 348.21 87.2099 347.59C88.0099 343.88 94.3399 341.25 97.7099 340.92C97.9799 340.92 101.77 340.92 102.46 341.01C102.28 340.94 102.09 340.84 101.91 340.76C98.7242 339.464 95.4273 338.46 92.0599 337.76C90.1999 337.35 88.4099 337.06 86.6599 336.82C86.3899 337.99 85.0899 343.35 83.4899 345.45C81.8899 347.55 79.4399 349.62 76.7599 349.61C76.1297 349.63 75.5024 349.517 74.9187 349.279C74.335 349.04 73.808 348.681 73.3722 348.226C72.9364 347.77 72.6014 347.228 72.3891 346.634C72.1768 346.04 72.0919 345.409 72.1399 344.78C72.5299 341 78.5299 337.69 81.8499 336.99C82.0299 336.99 83.9099 336.77 85.2799 336.65C84.4799 336.56 83.6699 336.44 82.9099 336.36C80.0499 336.07 77.4099 335.97 75.0799 335.91C73.7499 335.91 72.5499 335.91 71.4299 335.91C70.5599 336.91 67.0099 340.96 64.6699 342.07C62.3299 343.18 59.1599 343.9 56.7799 342.66C56.2103 342.388 55.7044 341.999 55.2953 341.518C54.8861 341.037 54.583 340.476 54.4056 339.87C54.2282 339.264 54.1805 338.628 54.2657 338.002C54.3509 337.377 54.567 336.776 54.8999 336.24C56.9899 333.07 63.8399 332.9 67.1099 333.81C67.3899 333.88 71.6699 335.62 71.6299 335.67L71.5699 335.73C72.6499 335.73 73.8099 335.67 75.0799 335.67C77.4199 335.67 80.0799 335.72 82.9399 335.96C86.0404 336.182 89.1256 336.583 92.1799 337.16C95.5887 337.795 98.9349 338.728 102.18 339.95L102.3 340C101.43 339.31 99.0599 337.29 98.8899 337.12C96.5699 334.64 93.5499 328.49 95.3899 325.12C95.7129 324.577 96.1463 324.108 96.662 323.744C97.1777 323.379 97.7642 323.127 98.3836 323.004C99.0029 322.88 99.6413 322.888 100.257 323.027C100.873 323.166 101.453 323.433 101.96 323.81C104.16 325.34 104.96 328.54 105.09 331.07C105.2 333.93 102.86 339.66 102.67 340.07C105.955 341.397 109.146 342.947 112.22 344.71C114.02 345.71 115.8 346.8 117.57 347.9C116.84 347.28 116.19 346.71 116.11 346.62C113.79 344.15 110.76 338 112.61 334.68C112.931 334.136 113.363 333.666 113.877 333.301C114.392 332.936 114.978 332.683 115.597 332.559C116.216 332.436 116.854 332.444 117.47 332.584C118.086 332.723 118.665 332.991 119.17 333.37C121.37 334.9 122.17 338.1 122.3 340.63C122.43 343.16 120.51 348.13 119.99 349.43L121.99 350.71C125.22 352.78 128.44 354.87 131.66 356.82C132.79 357.5 133.93 358.14 135.07 358.82C134.42 358.26 133.88 357.82 133.8 357.71C131.48 355.23 128.46 349.08 130.3 345.76C130.622 345.217 131.054 344.749 131.569 344.384C132.084 344.02 132.67 343.768 133.288 343.644C133.907 343.521 134.544 343.528 135.16 343.667C135.775 343.806 136.354 344.073 136.86 344.45C139.06 345.98 139.86 349.18 140 351.71C140.14 354.24 138.38 358.71 137.77 360.28C138.96 360.9 140.15 361.52 141.32 362.07C142.14 362.42 142.89 362.82 143.73 363.13L146.17 364.13C147.74 364.69 149.36 365.27 150.91 365.78C151.99 366.14 153.02 366.46 154.05 366.78C152.92 366.11 150.72 364.78 150.55 364.61C148.273 362.68 146.53 360.197 145.49 357.4C145.223 357.2 144.978 356.972 144.76 356.72C144.326 356.262 143.994 355.717 143.785 355.122C143.577 354.526 143.496 353.893 143.549 353.265C143.602 352.636 143.787 352.025 144.092 351.473C144.397 350.921 144.816 350.439 145.32 350.06C148.4 347.85 154.86 350.15 157.58 352.17C157.74 352.29 159.34 353.78 160.34 354.73C159.84 354.08 159.34 353.46 158.84 352.78C157.84 351.45 156.84 350.09 155.84 348.64L154.39 346.45C153.89 345.74 153.45 344.91 152.97 344.14C151.9 342.31 150.9 340.41 149.97 338.48C148.81 339.36 144.62 342.42 142.14 342.99C139.66 343.56 136.37 343.6 134.31 341.88C133.812 341.492 133.402 341.004 133.106 340.447C132.81 339.89 132.634 339.277 132.591 338.648C132.548 338.018 132.637 337.387 132.854 336.795C133.071 336.202 133.41 335.662 133.85 335.21C136.57 332.55 143.29 333.85 146.29 335.44C146.48 335.54 148.51 336.92 149.6 337.69C149.04 336.53 148.46 335.36 147.93 334.16C146.38 330.7 144.93 327.16 143.44 323.6C142.99 322.52 142.53 321.44 142.07 320.36C141.66 320.68 136.76 324.43 133.99 325.07C131.52 325.64 128.21 325.68 126.16 323.96C125.663 323.571 125.253 323.082 124.957 322.525C124.66 321.967 124.484 321.354 124.44 320.724C124.396 320.095 124.484 319.463 124.699 318.869C124.915 318.276 125.252 317.735 125.69 317.28C128.41 314.63 135.14 315.93 138.14 317.51C138.37 317.63 141.28 319.62 141.99 320.16C140.99 317.79 139.99 315.43 138.84 313.16C137.37 310.071 135.699 307.081 133.84 304.21C133.64 304.36 128.55 308.29 125.7 308.95C123.23 309.52 119.93 309.56 117.87 307.84C117.372 307.451 116.962 306.962 116.666 306.404C116.369 305.846 116.194 305.233 116.15 304.602C116.107 303.972 116.197 303.34 116.414 302.747C116.631 302.154 116.97 301.613 117.41 301.16C120.13 298.51 126.86 299.81 129.86 301.39C130.09 301.52 133.22 303.66 133.76 304.09C133.65 303.92 133.56 303.74 133.45 303.57C131.494 300.745 129.292 298.098 126.87 295.66C125.55 294.29 124.21 293.06 122.87 291.9C122 292.73 117.96 296.48 115.47 297.35C112.98 298.22 109.8 298.59 107.56 297.11C107.024 296.777 106.563 296.335 106.208 295.813C105.854 295.291 105.612 294.701 105.5 294.079C105.388 293.458 105.407 292.82 105.557 292.207C105.707 291.594 105.984 291.019 106.37 290.52C108.78 287.59 115.61 288.14 118.77 289.39C118.94 289.45 120.61 290.39 121.77 291C121.16 290.48 120.55 289.93 119.95 289.45C117.73 287.63 115.59 286.09 113.68 284.75C112.59 283.99 111.58 283.33 110.68 282.75C109.39 283.11 104.21 284.53 101.68 284.16C99.1499 283.79 96.0699 282.65 94.7799 280.3C94.4544 279.758 94.2474 279.152 94.1725 278.524C94.0976 277.896 94.1566 277.26 94.3455 276.656C94.5345 276.052 94.8491 275.495 95.2687 275.022C95.6882 274.549 96.2033 274.17 96.7799 273.91C100.27 272.42 106.08 276.05 108.31 278.61C108.5 278.83 111.11 282.61 111.04 282.61H110.97C111.89 283.18 112.87 283.8 113.97 284.5C115.91 285.8 118.09 287.29 120.36 289.07C122.808 290.968 125.145 293.005 127.36 295.17C129.865 297.586 132.15 300.22 134.19 303.04L134.26 303.15C133.91 302.09 133.05 299.15 133.01 298.86C132.44 295.51 133.31 288.72 136.68 286.97C137.247 286.692 137.867 286.538 138.498 286.516C139.129 286.494 139.758 286.606 140.343 286.844C140.928 287.082 141.457 287.44 141.894 287.896C142.331 288.352 142.667 288.895 142.88 289.49C143.88 291.98 142.8 295.11 141.49 297.28C140 299.72 134.89 303.21 134.49 303.49C136.493 306.414 138.3 309.467 139.9 312.63C140.84 314.47 141.73 316.35 142.6 318.24C142.33 317.32 142.1 316.49 142.08 316.37C141.51 313.02 142.38 306.23 145.75 304.48C146.317 304.202 146.937 304.048 147.568 304.026C148.199 304.004 148.828 304.116 149.413 304.354C149.998 304.592 150.527 304.95 150.964 305.406C151.401 305.862 151.737 306.405 151.95 307C152.95 309.49 151.87 312.62 150.55 314.79C149.23 316.96 144.92 320.05 143.77 320.85C144.09 321.58 144.43 322.3 144.77 323.04C146.32 326.55 147.85 330.04 149.46 333.46C150.03 334.66 150.63 335.82 151.23 336.98C150.99 336.16 150.8 335.46 150.78 335.35C150.21 332.01 151.08 325.21 154.45 323.46C155.018 323.184 155.638 323.031 156.27 323.011C156.901 322.991 157.529 323.104 158.114 323.342C158.699 323.581 159.227 323.94 159.664 324.396C160.101 324.852 160.437 325.395 160.65 325.99C161.65 328.48 160.57 331.6 159.25 333.77C157.93 335.94 154.04 338.77 152.68 339.69C153.32 340.86 153.97 342.03 154.68 343.14C155.16 343.88 155.58 344.63 156.1 345.35C156.62 346.07 157.1 346.79 157.6 347.51C158.6 348.84 159.6 350.22 160.65 351.51C161.35 352.4 162.03 353.24 162.71 354.08C162.13 352.9 161.05 350.55 160.98 350.34C159.92 347.13 159.75 340.28 162.81 338.03C163.33 337.673 163.92 337.429 164.54 337.315C165.16 337.2 165.798 337.216 166.412 337.364C167.025 337.511 167.601 337.785 168.102 338.168C168.603 338.552 169.018 339.036 169.32 339.59C170.68 341.9 170.09 345.16 169.12 347.5C168.05 350.07 163.72 354.16 163.18 354.66C164.13 356.11 165.25 357.46 166.33 358.71Z" fill="black"/>
            <path d="M86.1505 336.24C86.1505 336.31 81.9605 334.36 81.7105 334.24C78.8205 332.47 74.2805 327.33 75.1805 323.64C75.3456 323.029 75.6383 322.459 76.0393 321.968C76.4404 321.478 76.9407 321.078 77.5074 320.794C78.0742 320.511 78.6944 320.351 79.3275 320.324C79.9606 320.298 80.5921 320.405 81.1805 320.64C83.7105 321.53 85.3605 324.4 86.1205 326.81C87.0005 329.62 86.1505 336.24 86.1505 336.24Z" fill="black"/>
        </g>
        <g opacity="0.15">
            <path d="M371.91 283.271C372.72 286.131 377.08 291.181 377.09 291.191C377.1 291.201 379.54 287.301 379.67 287.041C381.1 283.961 382.05 277.181 379.26 274.591C378.784 274.177 378.227 273.867 377.624 273.682C377.021 273.497 376.386 273.441 375.76 273.517C375.134 273.594 374.531 273.801 373.99 274.125C373.449 274.45 372.982 274.884 372.62 275.401C371 277.541 371.21 280.831 371.91 283.271Z" fill="black"/>
            <path d="M333.509 358.712L333.219 359.052L334.039 361.612L335.239 360.152C336.399 358.742 337.609 357.212 338.839 355.622C340.519 356.544 342.252 357.366 344.029 358.082C343.639 360.922 344.909 366.332 345.079 367.022C343.359 367.562 341.679 368.072 340.079 368.522C338.989 368.842 337.939 369.132 336.919 369.402L338.529 371.402L340.729 370.732C342.469 370.192 344.329 369.582 346.229 368.932C346.569 369.582 349.369 374.852 351.579 376.562C353.579 378.112 356.579 379.562 359.159 378.832C359.773 378.687 360.35 378.414 360.851 378.031C361.353 377.649 361.769 377.165 362.072 376.612C362.374 376.058 362.557 375.447 362.608 374.818C362.66 374.19 362.578 373.557 362.369 372.962C361.009 369.412 354.369 367.772 350.969 367.962C350.769 367.962 348.619 368.332 347.259 368.582C348.039 368.312 348.789 368.062 349.589 367.772C351.159 367.222 352.719 366.622 354.389 365.982L356.809 364.982C357.619 364.662 358.439 364.222 359.269 363.832C361.169 362.902 363.049 361.832 364.909 360.782C365.399 362.162 367.209 367.022 368.959 368.872C370.709 370.722 373.439 372.562 376.099 372.262C376.728 372.212 377.34 372.031 377.894 371.73C378.448 371.428 378.933 371.014 379.317 370.513C379.701 370.013 379.975 369.437 380.122 368.823C380.269 368.21 380.285 367.572 380.169 366.952C379.359 363.242 373.039 360.612 369.659 360.282C369.449 360.282 366.999 360.282 365.659 360.332C366.769 359.672 367.889 359.022 368.999 358.332C372.209 356.332 375.389 354.142 378.569 352.002C379.569 351.342 380.519 350.702 381.499 350.002C381.669 350.492 383.679 356.322 385.649 358.392C387.389 360.232 390.129 362.082 392.789 361.782C393.418 361.732 394.03 361.551 394.584 361.25C395.138 360.948 395.623 360.534 396.007 360.033C396.391 359.533 396.665 358.957 396.812 358.343C396.959 357.73 396.975 357.092 396.859 356.472C396.049 352.762 389.729 350.132 386.349 349.802C386.099 349.802 382.569 349.802 381.679 349.882C383.829 348.462 385.989 347.062 388.169 345.772C391.107 344.009 394.157 342.439 397.299 341.072C397.379 341.302 399.459 347.402 401.469 349.512C403.219 351.352 405.949 353.212 408.609 352.912C409.239 352.862 409.852 352.681 410.407 352.379C410.962 352.077 411.447 351.662 411.831 351.16C412.215 350.658 412.489 350.081 412.635 349.466C412.781 348.851 412.796 348.213 412.679 347.592C411.879 343.882 405.549 341.252 402.169 340.922C401.909 340.922 398.119 340.922 397.429 341.012C397.609 340.942 397.789 340.842 397.979 340.762C401.165 339.466 404.462 338.462 407.829 337.762C409.679 337.352 411.479 337.062 413.229 336.822C413.499 337.992 414.799 343.352 416.399 345.452C417.999 347.552 420.399 349.622 423.129 349.612C423.759 349.63 424.386 349.516 424.969 349.277C425.552 349.038 426.078 348.68 426.513 348.224C426.949 347.769 427.284 347.227 427.497 346.634C427.71 346.041 427.796 345.41 427.749 344.782C427.359 341.002 421.359 337.692 418.039 336.992C417.859 336.992 415.979 336.772 414.609 336.652C415.409 336.562 416.219 336.442 416.979 336.362C419.839 336.072 422.469 335.972 424.809 335.912C426.139 335.912 427.339 335.912 428.459 335.912C429.329 336.912 432.869 340.962 435.219 342.072C437.569 343.182 440.729 343.902 443.109 342.662C443.678 342.389 444.183 341.999 444.591 341.518C444.999 341.037 445.301 340.475 445.478 339.869C445.654 339.264 445.701 338.627 445.615 338.002C445.529 337.377 445.313 336.777 444.979 336.242C442.899 333.072 436.049 332.902 432.779 333.812C432.489 333.882 428.219 335.622 428.259 335.672L428.309 335.732C427.229 335.732 426.069 335.672 424.809 335.672C422.469 335.672 419.809 335.722 416.949 335.962C413.849 336.183 410.764 336.584 407.709 337.162C404.284 337.796 400.921 338.729 397.659 339.952L397.549 340.002C398.419 339.312 400.789 337.292 400.959 337.122C403.269 334.642 406.299 328.492 404.449 325.122C404.128 324.578 403.696 324.108 403.182 323.743C402.667 323.378 402.081 323.125 401.462 323.001C400.843 322.878 400.205 322.886 399.589 323.026C398.974 323.165 398.394 323.433 397.889 323.812C395.689 325.342 394.889 328.542 394.759 331.072C394.649 333.932 396.989 339.662 397.179 340.072C393.891 341.401 390.697 342.951 387.619 344.712C385.829 345.712 384.049 346.802 382.269 347.902C383.009 347.282 383.659 346.712 383.739 346.622C386.059 344.152 389.079 338.002 387.239 334.682C386.918 334.138 386.486 333.668 385.972 333.303C385.457 332.938 384.871 332.685 384.252 332.561C383.633 332.438 382.995 332.446 382.379 332.586C381.764 332.725 381.184 332.993 380.679 333.372C378.479 334.902 377.679 338.102 377.549 340.632C377.419 343.162 379.339 348.132 379.859 349.432L377.859 350.712C374.629 352.782 371.419 354.872 368.199 356.822C367.069 357.502 365.929 358.142 364.789 358.822C365.439 358.262 365.979 357.822 366.059 357.712C368.379 355.232 371.399 349.082 369.559 345.762C369.236 345.219 368.803 344.75 368.287 344.386C367.771 344.021 367.185 343.769 366.566 343.645C365.946 343.522 365.308 343.53 364.692 343.669C364.076 343.808 363.496 344.075 362.989 344.452C360.789 345.982 359.989 349.182 359.859 351.712C359.729 354.242 361.479 358.712 362.089 360.282C360.899 360.902 359.709 361.522 358.529 362.072C357.719 362.422 356.959 362.822 356.129 363.132L353.689 364.132C352.109 364.692 350.499 365.272 348.949 365.782C347.869 366.142 346.839 366.462 345.809 366.782C346.939 366.112 349.139 364.782 349.309 364.612C351.586 362.682 353.329 360.199 354.369 357.402C354.634 357.199 354.878 356.971 355.099 356.722C355.532 356.263 355.862 355.718 356.07 355.123C356.278 354.528 356.358 353.895 356.305 353.267C356.252 352.639 356.068 352.028 355.764 351.476C355.459 350.924 355.042 350.442 354.539 350.062C351.449 347.852 344.999 350.152 342.279 352.172C342.109 352.292 340.519 353.782 339.519 354.732C340.019 354.082 340.519 353.462 341.019 352.782C342.019 351.452 343.019 350.092 344.019 348.642L345.469 346.452C345.969 345.742 346.409 344.912 346.889 344.142C347.959 342.312 348.949 340.412 349.889 338.482C351.059 339.362 355.249 342.422 357.729 342.992C360.209 343.562 363.499 343.602 365.559 341.882C366.057 341.494 366.467 341.006 366.763 340.449C367.059 339.892 367.235 339.279 367.278 338.649C367.322 338.02 367.232 337.389 367.015 336.797C366.798 336.204 366.459 335.664 366.019 335.212C363.299 332.552 356.569 333.852 353.569 335.442C353.389 335.542 351.359 336.922 350.259 337.692C350.829 336.532 351.409 335.362 351.939 334.162C353.489 330.702 354.939 327.162 356.419 323.602C356.869 322.522 357.329 321.442 357.789 320.362C358.209 320.682 363.099 324.432 365.879 325.072C368.349 325.642 371.649 325.682 373.709 323.962C374.207 323.573 374.617 323.084 374.914 322.526C375.21 321.968 375.385 321.354 375.429 320.724C375.472 320.094 375.382 319.462 375.165 318.869C374.948 318.276 374.609 317.735 374.169 317.282C371.449 314.632 364.729 315.932 361.729 317.512C361.499 317.632 358.589 319.622 357.879 320.162C358.879 317.792 359.879 315.432 361.019 313.162C362.494 310.075 364.164 307.086 366.019 304.212C366.209 304.362 371.309 308.292 374.149 308.952C376.619 309.522 379.929 309.562 381.979 307.842C382.477 307.453 382.887 306.964 383.184 306.406C383.48 305.848 383.655 305.234 383.699 304.604C383.742 303.974 383.652 303.342 383.435 302.749C383.218 302.156 382.879 301.615 382.439 301.162C379.729 298.512 372.999 299.812 369.999 301.392C369.759 301.522 366.629 303.662 366.099 304.092C366.199 303.922 366.299 303.742 366.409 303.572C368.365 300.747 370.567 298.1 372.989 295.662C374.309 294.292 375.649 293.062 376.989 291.902C377.859 292.732 381.899 296.482 384.389 297.352C386.879 298.222 390.059 298.592 392.299 297.112C392.836 296.779 393.296 296.337 393.651 295.815C394.006 295.293 394.247 294.702 394.359 294.081C394.471 293.46 394.452 292.822 394.302 292.209C394.152 291.596 393.875 291.021 393.489 290.522C391.079 287.592 384.249 288.142 381.089 289.392C380.919 289.452 379.249 290.392 378.089 291.002C378.689 290.482 379.309 289.932 379.899 289.452C382.119 287.632 384.269 286.092 386.179 284.752C387.269 283.992 388.279 283.332 389.179 282.752C390.459 283.112 395.649 284.532 398.179 284.162C400.709 283.792 403.779 282.652 405.079 280.302C405.402 279.759 405.606 279.154 405.679 278.527C405.752 277.899 405.693 277.264 405.504 276.661C405.315 276.058 405.002 275.502 404.584 275.028C404.166 274.555 403.654 274.174 403.079 273.912C399.579 272.422 393.779 276.052 391.549 278.612C391.359 278.832 388.749 282.612 388.809 282.612H388.889C387.969 283.182 386.989 283.802 385.889 284.502C383.949 285.802 381.759 287.292 379.499 289.072C377.051 290.97 374.714 293.006 372.499 295.172C369.994 297.588 367.709 300.222 365.669 303.042L365.599 303.152C365.939 302.092 366.809 299.152 366.849 298.862C367.409 295.512 366.539 288.722 363.169 286.972C362.603 286.694 361.984 286.54 361.353 286.518C360.723 286.496 360.095 286.608 359.51 286.846C358.926 287.084 358.398 287.443 357.962 287.899C357.526 288.355 357.191 288.897 356.979 289.492C355.979 291.982 357.059 295.112 358.369 297.282C359.849 299.722 364.969 303.212 365.369 303.492C363.362 306.413 361.555 309.467 359.959 312.632C359.019 314.472 358.129 316.352 357.259 318.242C357.529 317.322 357.759 316.492 357.779 316.372C358.349 313.022 357.479 306.232 354.109 304.482C353.542 304.204 352.922 304.05 352.291 304.028C351.66 304.006 351.031 304.118 350.446 304.356C349.861 304.593 349.332 304.952 348.895 305.408C348.458 305.864 348.122 306.407 347.909 307.002C346.909 309.492 347.989 312.622 349.299 314.792C350.609 316.962 354.939 320.052 356.089 320.852C355.759 321.582 355.429 322.302 355.089 323.042C353.539 326.552 351.999 330.042 350.399 333.462C349.829 334.662 349.229 335.822 348.629 336.982C348.869 336.162 349.059 335.462 349.079 335.352C349.649 332.012 348.779 325.212 345.399 323.462C344.831 323.188 344.212 323.036 343.582 323.017C342.952 322.997 342.325 323.111 341.741 323.349C341.158 323.588 340.631 323.946 340.194 324.401C339.758 324.857 339.423 325.399 339.209 325.992C338.209 328.482 339.289 331.602 340.599 333.772C341.909 335.942 345.819 338.772 347.179 339.692C346.529 340.862 345.889 342.032 345.179 343.142C344.689 343.882 344.279 344.632 343.759 345.352L342.249 347.512C341.249 348.842 340.249 350.222 339.249 351.512C338.549 352.402 337.869 353.242 337.189 354.082C337.759 352.902 338.849 350.552 338.909 350.342C339.979 347.132 340.149 340.282 337.089 338.032C336.569 337.675 335.98 337.431 335.359 337.317C334.739 337.202 334.101 337.218 333.488 337.365C332.874 337.512 332.298 337.787 331.797 338.17C331.296 338.554 330.881 339.038 330.579 339.592C329.219 341.902 329.809 345.162 330.779 347.502C331.839 350.072 336.179 354.162 336.719 354.662C335.709 356.112 334.589 357.462 333.509 358.712Z" fill="black"/>
            <path d="M413.689 336.24C413.689 336.31 417.879 334.36 418.129 334.24C421.019 332.47 425.559 327.33 424.659 323.64C424.494 323.029 424.202 322.459 423.801 321.968C423.399 321.478 422.899 321.078 422.332 320.794C421.766 320.511 421.145 320.351 420.512 320.324C419.879 320.298 419.248 320.405 418.659 320.64C416.129 321.53 414.479 324.4 413.719 326.81C412.839 329.62 413.689 336.24 413.689 336.24Z" fill="black"/>
        </g>
        <path d="M327.301 301.021L261.051 273.251L316.941 138.971L383.191 166.741L327.301 301.021Z" fill="#D1D1D1" stroke="#263238" stroke-linecap="round" stroke-linejoin="round"/>
        <path d="M369.892 180.451C368.755 179.98 367.731 179.272 366.891 178.373C366.05 177.474 365.411 176.406 365.017 175.241C364.623 174.075 364.483 172.838 364.606 171.614C364.73 170.389 365.113 169.205 365.732 168.141L327.732 152.201C327.634 152.541 327.517 152.875 327.382 153.201C326.944 154.257 326.302 155.217 325.492 156.023C324.682 156.83 323.72 157.468 322.662 157.902C321.604 158.335 320.471 158.554 319.328 158.547C318.185 158.54 317.054 158.307 316.002 157.861C315.832 157.791 315.672 157.701 315.512 157.621L273.352 259.161C273.522 259.221 273.692 259.271 273.852 259.341C274.994 259.805 276.024 260.51 276.869 261.408C277.714 262.306 278.356 263.376 278.75 264.544C279.144 265.713 279.281 266.953 279.152 268.179C279.023 269.406 278.63 270.59 278.002 271.651L316.052 287.591C316.143 287.251 316.257 286.917 316.392 286.591C316.832 285.541 317.475 284.588 318.284 283.787C319.093 282.985 320.052 282.351 321.106 281.92C322.159 281.489 323.288 281.27 324.427 281.276C325.565 281.281 326.692 281.511 327.742 281.951C328.072 282.091 328.392 282.261 328.742 282.431L370.942 180.811C370.583 180.718 370.232 180.598 369.892 180.451ZM316.002 233.191C313.412 232.105 311.202 230.276 309.653 227.934C308.103 225.592 307.282 222.844 307.294 220.035C307.306 217.227 308.15 214.486 309.72 212.157C311.29 209.829 313.515 208.019 316.114 206.955C318.713 205.891 321.569 205.621 324.321 206.181C327.073 206.74 329.597 208.102 331.575 210.096C333.552 212.089 334.895 214.625 335.432 217.381C335.969 220.137 335.676 222.991 334.592 225.581C333.872 227.303 332.82 228.865 331.496 230.18C330.172 231.494 328.602 232.535 326.875 233.242C325.148 233.948 323.299 234.308 321.433 234.299C319.567 234.291 317.722 233.914 316.002 233.191Z" fill="white" stroke="#263238" stroke-linecap="round" stroke-linejoin="round"/>
        <path d="M326.43 301.361L263.57 266.591L333.67 139.141L396.53 173.921L326.43 301.361Z" fill="#D1D1D1" stroke="#263238" stroke-linecap="round" stroke-linejoin="round"/>
        <path d="M381.82 186.1C380.823 185.55 379.945 184.808 379.235 183.918C378.525 183.028 377.997 182.007 377.682 180.913C377.367 179.819 377.271 178.673 377.4 177.542C377.528 176.411 377.878 175.316 378.43 174.32C378.612 174.01 378.808 173.71 379.02 173.42L342.92 153.42C342.789 153.762 342.639 154.095 342.47 154.42C341.355 156.429 339.488 157.914 337.28 158.548C335.071 159.182 332.701 158.913 330.69 157.8C330.531 157.716 330.377 157.623 330.23 157.52L277.33 253.9C277.494 253.968 277.654 254.045 277.81 254.13C279.821 255.243 281.308 257.109 281.944 259.318C282.58 261.527 282.312 263.898 281.2 265.91C281.023 266.222 280.826 266.523 280.61 266.81L316.7 286.81C316.834 286.468 316.988 286.134 317.16 285.81C317.71 284.813 318.452 283.935 319.342 283.225C320.232 282.515 321.253 281.987 322.347 281.672C323.441 281.357 324.587 281.261 325.718 281.39C326.849 281.518 327.944 281.868 328.94 282.42C329.251 282.599 329.552 282.796 329.84 283.01L382.84 186.55C382.49 186.425 382.149 186.274 381.82 186.1ZM322.56 232.71C320.101 231.349 318.1 229.29 316.811 226.792C315.522 224.294 315.003 221.47 315.319 218.677C315.635 215.885 316.773 213.248 318.587 211.102C320.402 208.955 322.812 207.395 325.514 206.619C328.215 205.842 331.086 205.884 333.763 206.74C336.441 207.595 338.804 209.225 340.555 211.424C342.306 213.623 343.366 216.292 343.6 219.093C343.834 221.894 343.232 224.701 341.87 227.16C340.045 230.456 336.985 232.892 333.364 233.933C329.743 234.974 325.857 234.534 322.56 232.71Z" fill="white" stroke="#263238" stroke-linecap="round" stroke-linejoin="round"/>
        <path d="M325.27 301.66L267.83 258.52L354.89 142L412.33 185.14L325.27 301.66Z" fill="#D1D1D1" stroke="#263238" stroke-linecap="round" stroke-linejoin="round"/>
        <path d="M396.081 195.17C395.165 194.487 394.393 193.63 393.81 192.647C393.227 191.665 392.844 190.577 392.683 189.445C392.522 188.314 392.587 187.162 392.873 186.056C393.159 184.95 393.662 183.911 394.351 183C394.569 182.714 394.807 182.444 395.061 182.19L362.061 157.41C361.881 157.724 361.684 158.028 361.471 158.32C360.09 160.155 358.036 161.367 355.762 161.689C353.488 162.012 351.179 161.419 349.341 160.04C349.191 159.93 349.061 159.81 348.921 159.7L283.191 247.82C283.341 247.92 283.491 248.01 283.631 248.12C285.469 249.502 286.683 251.556 287.007 253.832C287.331 256.108 286.739 258.42 285.361 260.26C285.143 260.546 284.906 260.817 284.651 261.07L317.651 285.84C317.822 285.526 318.016 285.225 318.231 284.94C318.916 284.03 319.772 283.264 320.753 282.685C321.733 282.106 322.818 281.726 323.945 281.566C325.072 281.406 326.22 281.47 327.323 281.754C328.425 282.038 329.461 282.536 330.371 283.22C330.657 283.434 330.928 283.668 331.181 283.92L397.001 195.76C396.683 195.583 396.375 195.386 396.081 195.17ZM330.941 233.17C328.695 231.482 326.999 229.166 326.068 226.514C325.138 223.862 325.015 220.994 325.714 218.273C326.414 215.551 327.904 213.097 329.998 211.223C332.092 209.348 334.694 208.137 337.476 207.741C340.259 207.345 343.096 207.783 345.629 209C348.162 210.217 350.278 212.157 351.708 214.576C353.139 216.995 353.82 219.783 353.666 222.589C353.511 225.395 352.528 228.093 350.841 230.34C349.719 231.831 348.313 233.086 346.705 234.033C345.097 234.98 343.318 235.601 341.47 235.86C339.622 236.119 337.74 236.012 335.934 235.543C334.127 235.075 332.431 234.255 330.941 233.13V233.17Z" fill="white" stroke="#263238" stroke-linecap="round" stroke-linejoin="round"/>
        <path d="M324.121 301.791L272.961 251.351L374.821 147.521L425.981 197.961L324.121 301.791Z" fill="#D1D1D1" stroke="#263238" stroke-linecap="round" stroke-linejoin="round"/>
        <path d="M408.531 205.73C406.893 204.116 405.964 201.918 405.947 199.618C405.93 197.319 406.827 195.108 408.441 193.47C408.696 193.217 408.967 192.98 409.251 192.76L379.881 163.76C379.661 164.041 379.427 164.312 379.181 164.57C377.567 166.207 375.368 167.137 373.069 167.154C370.77 167.171 368.558 166.273 366.921 164.66C366.793 164.534 366.672 164.4 366.561 164.26L289.631 242.81C289.761 242.93 289.901 243.04 290.031 243.17C291.668 244.784 292.598 246.982 292.614 249.281C292.631 251.58 291.734 253.792 290.121 255.43C289.861 255.68 289.591 255.92 289.311 256.14L318.681 285.14C318.898 284.85 319.135 284.576 319.391 284.32C320.189 283.509 321.139 282.864 322.187 282.421C323.234 281.978 324.359 281.745 325.497 281.737C326.635 281.728 327.763 281.944 328.817 282.372C329.871 282.8 330.83 283.431 331.641 284.23C331.893 284.485 332.13 284.756 332.351 285.04L409.351 206.43C409.064 206.213 408.79 205.979 408.531 205.73ZM338.911 234.63C336.912 232.657 335.543 230.137 334.977 227.386C334.411 224.636 334.673 221.779 335.73 219.178C336.787 216.577 338.592 214.347 340.916 212.771C343.24 211.195 345.979 210.343 348.787 210.324C351.595 210.304 354.345 211.118 356.691 212.661C359.037 214.204 360.872 216.409 361.965 218.995C363.059 221.582 363.36 224.434 362.833 227.192C362.305 229.95 360.971 232.49 359.001 234.49C357.691 235.819 356.132 236.877 354.414 237.603C352.695 238.33 350.85 238.71 348.985 238.723C347.119 238.736 345.269 238.381 343.54 237.679C341.812 236.977 340.238 235.94 338.911 234.63Z" fill="white" stroke="#263238" stroke-linecap="round" stroke-linejoin="round"/>
        <path d="M259.07 290.541L167.07 349.001L69.2402 194.481L161.24 136.021C162.849 134.999 164.798 134.658 166.658 135.072C168.518 135.487 170.137 136.623 171.16 138.231L261.32 280.621C261.824 281.42 262.166 282.31 262.325 283.241C262.485 284.172 262.46 285.126 262.251 286.047C262.042 286.968 261.653 287.839 261.108 288.61C260.562 289.381 259.87 290.037 259.07 290.541Z" fill="#A8A8A8" stroke="#263238" stroke-linecap="round" stroke-linejoin="round"/>
        <path d="M256.48 290.64L164.48 349.1L66.6602 194.58L158.66 136.12C160.269 135.099 162.217 134.758 164.078 135.172C165.938 135.586 167.557 136.722 168.58 138.33L258.73 280.72C259.234 281.519 259.576 282.41 259.735 283.341C259.895 284.272 259.87 285.225 259.661 286.146C259.452 287.068 259.063 287.939 258.518 288.71C257.972 289.481 257.28 290.137 256.48 290.64Z" fill="white" stroke="#263238" stroke-linecap="round" stroke-linejoin="round"/>
        <path d="M253.48 292.68L161.48 351.14L63.6504 196.62L155.65 138.16C157.261 137.138 159.211 136.797 161.073 137.211C162.934 137.625 164.555 138.761 165.58 140.37L255.73 282.76C256.234 283.559 256.576 284.449 256.736 285.38C256.895 286.312 256.87 287.265 256.661 288.186C256.452 289.107 256.064 289.978 255.518 290.75C254.972 291.521 254.28 292.177 253.48 292.68Z" fill="#A8A8A8" stroke="#263238" stroke-linecap="round" stroke-linejoin="round"/>
        <path d="M112.81 215.83L105.74 204.71L108.5 203C109.041 202.623 109.673 202.398 110.33 202.35C110.886 202.336 111.429 202.513 111.87 202.85C112.406 203.252 112.858 203.755 113.2 204.33C113.551 204.845 113.777 205.434 113.86 206.05C113.935 206.593 113.837 207.146 113.58 207.63C113.276 208.172 112.835 208.624 112.3 208.94L111.07 209.71L114.36 214.89L112.81 215.83ZM110.37 208.55L111.08 208.1C111.46 207.889 111.799 207.612 112.08 207.28C112.176 207.157 112.245 207.015 112.283 206.864C112.321 206.712 112.327 206.554 112.3 206.4C112.209 205.979 112.032 205.581 111.78 205.23C111.534 204.811 111.235 204.424 110.89 204.08C110.779 203.969 110.643 203.886 110.494 203.838C110.344 203.789 110.186 203.776 110.03 203.8C109.578 203.908 109.15 204.101 108.77 204.37L108.04 204.83L110.37 208.55Z" fill="white"/>
        <path d="M118.28 212.351L113.57 199.731L115.07 198.781L124.51 208.391L123.04 209.321L120.75 206.851L118.49 208.291L119.73 211.431L118.28 212.351ZM118 207.001L119.85 205.831L115.73 201.411L118 207.001Z" fill="white"/>
        <path d="M128.34 206.131C127.792 206.51 127.146 206.722 126.48 206.741C125.874 206.733 125.283 206.549 124.78 206.211C124.21 205.824 123.715 205.336 123.32 204.771L124.46 203.531C124.735 203.889 125.039 204.224 125.37 204.531C125.653 204.806 125.995 205.011 126.37 205.131C126.566 205.173 126.769 205.173 126.965 205.131C127.162 205.09 127.347 205.008 127.51 204.891C127.686 204.796 127.839 204.665 127.959 204.507C128.08 204.348 128.166 204.165 128.21 203.971C128.257 203.559 128.146 203.145 127.9 202.811C127.647 202.367 127.258 202.017 126.79 201.811C126.317 201.641 125.828 201.517 125.33 201.441L122.42 200.981C121.894 200.907 121.39 200.723 120.94 200.441C120.473 200.114 120.081 199.692 119.79 199.201C119.549 198.867 119.379 198.487 119.291 198.084C119.204 197.682 119.2 197.265 119.28 196.861C119.506 196.061 120.037 195.382 120.76 194.971C121.15 194.716 121.579 194.526 122.03 194.411C122.414 194.316 122.816 194.316 123.2 194.411C123.603 194.524 123.98 194.714 124.31 194.971C124.712 195.295 125.074 195.664 125.39 196.071L124.3 197.271C124.059 196.943 123.787 196.639 123.49 196.361C123.241 196.123 122.928 195.964 122.59 195.901C122.209 195.876 121.831 195.976 121.511 196.185C121.192 196.395 120.949 196.702 120.82 197.061C120.782 197.255 120.785 197.456 120.83 197.649C120.875 197.842 120.96 198.023 121.08 198.181C121.252 198.474 121.492 198.721 121.78 198.901C122.089 199.072 122.429 199.181 122.78 199.221L125.71 199.681C126.404 199.778 127.078 199.98 127.71 200.281C128.386 200.615 128.951 201.135 129.34 201.781C129.661 202.272 129.854 202.836 129.9 203.421C129.924 203.948 129.799 204.471 129.54 204.931C129.244 205.423 128.832 205.835 128.34 206.131Z" fill="white"/>
        <path d="M134.831 202C134.283 202.379 133.637 202.591 132.971 202.61C132.368 202.603 131.78 202.419 131.281 202.08C130.707 201.698 130.211 201.209 129.821 200.64L131.001 199.4C131.273 199.761 131.578 200.095 131.911 200.4C132.193 200.675 132.535 200.881 132.911 201C133.107 201.042 133.31 201.043 133.507 201.001C133.703 200.96 133.889 200.878 134.051 200.76C134.228 200.669 134.382 200.54 134.503 200.383C134.624 200.226 134.708 200.044 134.751 199.85C134.804 199.436 134.696 199.018 134.451 198.68C134.192 198.238 133.8 197.888 133.331 197.68C132.861 197.51 132.375 197.386 131.881 197.31L128.961 196.85C128.435 196.776 127.931 196.592 127.481 196.31C127.014 195.983 126.622 195.561 126.331 195.07C126.09 194.736 125.92 194.356 125.832 193.953C125.745 193.551 125.741 193.134 125.821 192.73C126.051 191.932 126.587 191.256 127.311 190.85C127.698 190.594 128.123 190.401 128.571 190.28C128.958 190.18 129.364 190.18 129.751 190.28C130.153 190.389 130.531 190.576 130.861 190.83C131.262 191.151 131.621 191.521 131.931 191.93L130.841 193.13C130.6 192.802 130.329 192.498 130.031 192.22C129.785 191.979 129.471 191.819 129.131 191.76C128.751 191.74 128.375 191.842 128.056 192.05C127.738 192.259 127.495 192.564 127.361 192.92C127.325 193.115 127.33 193.314 127.374 193.507C127.419 193.7 127.503 193.881 127.621 194.04C127.796 194.334 128.035 194.583 128.321 194.77C128.635 194.93 128.973 195.038 129.321 195.09L132.251 195.54C132.923 195.646 133.576 195.848 134.191 196.14C134.865 196.477 135.43 196.997 135.821 197.64C136.147 198.129 136.34 198.694 136.381 199.28C136.405 199.807 136.28 200.33 136.021 200.79C135.732 201.286 135.323 201.702 134.831 202Z" fill="white"/>
        <path d="M138.621 199.421L131.551 188.301L134.311 186.551C134.848 186.167 135.482 185.938 136.141 185.891C136.695 185.881 137.237 186.057 137.681 186.391C138.217 186.796 138.669 187.302 139.011 187.881C139.366 188.393 139.592 188.983 139.671 189.601C139.746 190.141 139.648 190.69 139.391 191.171C139.09 191.715 138.647 192.167 138.111 192.481L136.881 193.261L140.171 198.431L138.621 199.421ZM136.181 192.151L136.891 191.691C137.273 191.484 137.612 191.205 137.891 190.871C137.986 190.747 138.053 190.605 138.09 190.453C138.126 190.302 138.13 190.144 138.101 189.991C138.009 189.571 137.836 189.174 137.591 188.821C137.348 188.402 137.048 188.019 136.701 187.681C136.59 187.57 136.454 187.487 136.304 187.438C136.155 187.39 135.996 187.377 135.841 187.401C135.387 187.499 134.958 187.69 134.581 187.961L133.851 188.431L136.181 192.151Z" fill="white"/>
        <path d="M148.131 193.55C147.522 193.977 146.803 194.22 146.061 194.25C145.418 194.242 144.798 194.016 144.301 193.61C143.704 193.118 143.193 192.53 142.79 191.87L140.111 187.66C139.686 187.027 139.381 186.322 139.211 185.58C139.064 184.973 139.131 184.334 139.4 183.77C139.75 183.117 140.277 182.576 140.921 182.21C141.526 181.782 142.24 181.536 142.98 181.5C143.605 181.502 144.21 181.713 144.7 182.1C145.295 182.569 145.8 183.141 146.191 183.79L148.881 188.02C149.299 188.657 149.607 189.36 149.79 190.1C149.939 190.724 149.882 191.38 149.631 191.97C149.297 192.633 148.775 193.182 148.131 193.55ZM147.361 192.33C147.704 192.139 147.975 191.841 148.131 191.48C148.242 191.156 148.242 190.804 148.131 190.48C147.986 190.077 147.791 189.694 147.551 189.34L144.461 184.46C144.235 184.099 143.97 183.763 143.671 183.46C143.441 183.225 143.137 183.077 142.811 183.04C142.418 183.039 142.035 183.166 141.721 183.4C141.379 183.59 141.103 183.879 140.93 184.23C140.808 184.552 140.808 184.908 140.93 185.23C141.07 185.628 141.258 186.008 141.491 186.36L144.59 191.23C144.815 191.595 145.083 191.931 145.391 192.23C145.624 192.475 145.935 192.63 146.271 192.67C146.661 192.677 147.043 192.557 147.361 192.33Z" fill="white"/>
        <path d="M152.611 190.53L145.541 179.41L147.781 177.98C148.387 177.567 149.065 177.272 149.781 177.11C150.354 176.996 150.949 177.088 151.461 177.37C152.055 177.74 152.546 178.252 152.891 178.86C153.15 179.251 153.356 179.675 153.501 180.12C153.635 180.495 153.68 180.895 153.631 181.29C153.571 181.659 153.412 182.004 153.171 182.29L158.291 186.86L156.801 187.81L152.031 183.52L150.821 184.28L154.131 189.5L152.611 190.53ZM150.141 183.21L150.731 182.84C151.115 182.623 151.455 182.334 151.731 181.99C151.928 181.719 152.014 181.383 151.971 181.05C151.893 180.605 151.719 180.182 151.461 179.81C151.186 179.29 150.746 178.875 150.211 178.63C149.912 178.582 149.606 178.599 149.315 178.68C149.023 178.761 148.752 178.905 148.521 179.1L147.831 179.53L150.141 183.21Z" fill="white"/>
        <path d="M161 185.221L154.66 175.221L152.78 176.421L152 175.301L157.26 171.951L157.99 173.111L156.16 174.271L162.5 184.271L161 185.221Z" fill="white"/>
        <path d="M200.824 254.41C205.196 235.666 193.545 216.927 174.801 212.554C156.057 208.182 137.318 219.833 132.946 238.577C128.574 257.321 140.224 276.06 158.968 280.432C177.712 284.804 196.451 273.154 200.824 254.41Z" stroke="white" stroke-miterlimit="10"/>
        <path d="M185.569 275.913C192.533 271.487 189.808 254.731 179.484 238.487C169.159 222.243 155.145 212.663 148.181 217.089C141.217 221.515 143.942 238.272 154.266 254.515C164.591 270.759 178.606 280.339 185.569 275.913Z" stroke="white" stroke-miterlimit="10"/>
        <path d="M135.721 231.331L166.571 211.721" stroke="white" stroke-miterlimit="10"/>
        <path d="M132.25 251.21L186.04 217.01" stroke="white" stroke-miterlimit="10"/>
        <path d="M147.891 275.831L201.691 241.631" stroke="white" stroke-miterlimit="10"/>
        <path d="M137.4 265.221L196.55 227.631" stroke="white" stroke-miterlimit="10"/>
        <path d="M167.65 281.561L198.5 261.951" stroke="white" stroke-miterlimit="10"/>
        <path d="M329.29 438.216C372.904 394.602 372.904 323.89 329.29 280.276C285.676 236.663 214.964 236.663 171.351 280.276C127.737 323.89 127.737 394.602 171.351 438.216C214.964 481.83 285.676 481.83 329.29 438.216Z" fill="#2F27CE" stroke="#263238" stroke-linecap="round" stroke-linejoin="round"/>
        <path d="M227.889 462.57C233.876 463.873 239.966 464.65 246.089 464.89" stroke="#263238" stroke-linecap="round" stroke-linejoin="round"/>
        <path d="M214.199 458.602C217.233 459.702 220.313 460.668 223.439 461.502" stroke="#263238" stroke-linecap="round" stroke-linejoin="round"/>
        <path d="M148.63 330.32C141.524 355.351 143.894 382.122 155.286 405.515C166.678 428.907 186.293 447.28 210.38 457.12" stroke="#263238" stroke-linecap="round" stroke-linejoin="round"/>
        <path d="M162.84 299.91C159.021 305.54 155.752 311.524 153.08 317.78" stroke="#263238" stroke-linecap="round" stroke-linejoin="round"/>
        <path d="M235.189 309.641L246.569 312.001L250.449 316.031L255.509 316.811L257.119 321.611L255.939 324.861L252.489 326.441L244.039 325.061L243.809 324.021L247.809 321.231L245.049 316.141L237.489 315.111L233.459 311.661L235.189 309.641Z" fill="white"/>
        <path d="M326.939 414.702L317.939 413.182L306.999 411.802L298.999 413.582L291.149 413.692L283.279 417.342L278.679 418.642L275.829 419.272L271.089 423.582L266.369 426.802L258.369 423.952L258.569 416.302L253.769 415.472L248.599 416.622L247.299 414.462L246.789 409.692L244.399 407.512L240.889 408.832L240.429 411.652L236.089 412.882L231.169 409.092L228.239 403.222L230.519 395.112L238.129 393.962L240.609 395.322L243.709 394.632L247.079 391.442L250.669 391.722L257.109 398.722L258.859 398.062L257.019 392.222L254.779 389.462L254.209 384.462L262.859 378.202L262.029 368.342L265.419 364.052L267.419 357.352L269.899 356.262L274.979 351.062L274.779 348.932L270.699 350.112L269.469 348.212L266.619 348.842L262.449 350.842L263.769 347.012L272.249 342.412L273.809 339.632L278.689 344.512L281.539 346.332L284.929 344.492L282.629 341.492L276.339 338.812L268.579 333.212L261.129 330.212L254.689 330.562L250.999 328.132L246.599 328.002L246.309 329.152L247.459 336.772L249.069 339.122L248.579 347.922L242.479 344.922V341.122L236.479 339.742L233.479 337.412L233.329 330.662L239.629 323.562L238.769 317.232L235.979 318.122L233.649 316.202L231.999 312.522L230.129 312.662L229.999 317.002L227.269 318.152L223.999 309.412L221.649 308.582L217.649 307.832L213.969 310.832L220.239 314.602L222.239 318.772L211.369 313.852L203.369 308.302L201.299 301.432L194.109 300.852L189.689 305.362C188.601 306.4 187.459 307.382 186.269 308.302C184.329 309.248 182.324 310.053 180.269 310.712L180.209 315.342L174.309 316.922L175.459 319.652L185.379 319.082L191.499 323.422L193.499 332.482L192.429 341.132L194.839 349.552L190.409 363.842L193.059 383.072L197.799 393.422L202.999 400.962L206.999 400.612L204.779 396.762L202.029 394.112L199.469 388.712L201.679 387.712L207.369 396.222L211.799 403.932L213.289 410.662L219.529 415.522L229.819 420.002L244.079 420.632L249.079 423.632L253.079 427.082L258.369 428.892L264.369 429.182L269.999 427.652C269.999 427.652 270.319 430.302 270.599 431.592C270.879 432.882 268.239 438.092 268.239 438.092L266.549 443.902L269.879 449.132L276.089 450.192L285.949 456.692L289.949 457.442L290.809 461.322L291.659 463.032C311.069 455.312 327.912 442.281 340.259 425.432L339.979 423.522L344.149 409.292L340.269 407.712L326.939 414.702Z" fill="white"/>
        <path d="M331.149 306.521L327.209 302.241L322.319 297.351L319.569 289.821L324.399 289.561L324.079 286.921L320.659 287.411L323.219 285.481L325.919 282.981L325.349 280.391L321.349 276.941L319.449 271.521C300.326 256.461 276.807 248.058 252.469 247.591C228.132 247.123 204.308 254.617 184.619 268.931L191.519 271.831L188.939 277.301L184.249 279.421L185.249 286.521L183.359 287.761L181.359 291.181L182.649 295.781L187.169 295.321L186.329 300.121L190.729 299.121L196.109 287.881L195.969 283.561L203.099 281.441L204.219 277.931L211.549 275.491L211.349 270.921L216.719 269.451C216.719 269.451 220.149 266.521 220.919 266.351C222.488 266.337 224.056 266.441 225.609 266.661L230.179 268.911L235.609 267.701L239.609 263.821L245.669 263.021C246.649 263.399 247.705 263.537 248.749 263.421C250.039 263.131 253.519 260.421 253.519 260.421L262.059 263.421L265.679 265.061L266.539 268.941L270.539 268.591L271.319 265.981L275.029 266.781L275.229 268.911L267.919 272.711L273.589 277.421L284.049 280.531L289.049 284.841L294.859 284.091L295.579 281.221L297.529 280.221L289.659 276.541L285.399 276.941L288.529 275.161L284.449 271.451L288.789 270.221L295.179 272.061L297.849 277.981L301.439 280.711L305.439 287.711L312.049 290.581L313.939 299.121L320.759 301.681L321.129 304.581V308.121L323.719 312.431L324.719 314.651L329.289 314.451L330.389 309.591L331.149 306.521Z" fill="white"/>
        <path d="M328.72 279.711L329.05 281.201L328.68 285.621L330.26 289.071L333.34 289.481L334.43 294.391L331.04 293.791L333.36 307.931L331.52 314.321L335.2 321.101L339.25 323.461L342.36 337.461L348.13 347.581L353.59 355.061L359.89 355.291L360.81 349.651L361.51 348.811C361.071 344.167 360.346 339.555 359.34 335.001C354.697 313.997 344.061 294.79 328.72 279.711Z" fill="white"/>
        <path d="M268.6 291.37L249.85 287.65L242.41 289.58L241.69 294.9L237.83 292.22L232.43 294.78L233.81 303.44L239.21 305.76L241.48 300.1L246.23 303.12L255.8 308.32L259.02 315.48L267.64 322.53L278.11 318.3L276.99 314.48L273.68 310.6L270.86 300.36L272.48 295.39L268.6 291.37Z" fill="white"/>
        <path d="M283.828 293.951L279.718 293.781L276.988 297.381L280.468 304.481L283.828 303.731V293.951Z" fill="white"/>
        <path d="M308.99 293.531L299.15 290.821L296.65 288.121L294.76 289.361L297.72 294.131L300.76 300.511L304.99 301.201L305.54 300.001L302.34 296.631L309.65 297.731L308.99 293.531Z" fill="white"/>
        <path d="M254.179 403.711L253.369 404.981L261.649 405.581L265.559 408.511L270.589 407.941L271.769 404.691L265.589 404.981L254.179 403.711Z" fill="white"/>
        <path d="M278.299 403.512L273.209 406.272L274.439 408.172L281.169 406.682L281.999 404.322L279.729 405.102L278.299 403.512Z" fill="white"/>
        <path d="M235.189 309.641L246.569 312.001L250.449 316.031L255.509 316.811L257.119 321.611L255.939 324.861L252.489 326.441L244.039 325.061L243.809 324.021L247.809 321.231L245.049 316.141L237.489 315.111L233.459 311.661L235.189 309.641Z" stroke="#263238" stroke-linecap="round" stroke-linejoin="round"/>
        <path d="M326.939 414.702L317.939 413.182L306.999 411.802L298.999 413.582L291.149 413.692L283.279 417.342L278.679 418.642L275.829 419.272L271.089 423.582L266.369 426.802L258.369 423.952L258.569 416.302L253.769 415.472L248.599 416.622L247.299 414.462L246.789 409.692L244.399 407.512L240.889 408.832L240.429 411.652L236.089 412.882L231.169 409.092L228.239 403.222L230.519 395.112L238.129 393.962L240.609 395.322L243.709 394.632L247.079 391.442L250.669 391.722L257.109 398.722L258.859 398.062L257.019 392.222L254.779 389.462L254.209 384.462L262.859 378.202L262.029 368.342L265.419 364.052L267.419 357.352L269.899 356.262L274.979 351.062L274.779 348.932L270.699 350.112L269.469 348.212L266.619 348.842L262.449 350.842L263.769 347.012L272.249 342.412L273.809 339.632L278.689 344.512L281.539 346.332L284.929 344.492L282.629 341.492L276.339 338.812L268.579 333.212L261.129 330.212L254.689 330.562L250.999 328.132L246.599 328.002L246.309 329.152L247.459 336.772L249.069 339.122L248.579 347.922L242.479 344.922V341.122L236.479 339.742L233.479 337.412L233.329 330.662L239.629 323.562L238.769 317.232L235.979 318.122L233.649 316.202L231.999 312.522L230.129 312.662L229.999 317.002L227.269 318.152L223.999 309.412L221.649 308.582L217.649 307.832L213.969 310.832L220.239 314.602L222.239 318.772L211.369 313.852L203.369 308.302L201.299 301.432L194.109 300.852L189.689 305.362C188.601 306.4 187.459 307.382 186.269 308.302C184.329 309.248 182.324 310.053 180.269 310.712L180.209 315.342L174.309 316.922L175.459 319.652L185.379 319.082L191.499 323.422L193.499 332.482L192.429 341.132L194.839 349.552L190.409 363.842L193.059 383.072L197.799 393.422L202.999 400.962L206.999 400.612L204.779 396.762L202.029 394.112L199.469 388.712L201.679 387.712L207.369 396.222L211.799 403.932L213.289 410.662L219.529 415.522L229.819 420.002L244.079 420.632L249.079 423.632L253.079 427.082L258.369 428.892L264.369 429.182L269.999 427.652C269.999 427.652 270.319 430.302 270.599 431.592C270.879 432.882 268.239 438.092 268.239 438.092L266.549 443.902L269.879 449.132L276.089 450.192L285.949 456.692L289.949 457.442L290.809 461.322L291.659 463.032C311.069 455.312 327.912 442.281 340.259 425.432L339.979 423.522L344.149 409.292L340.269 407.712L326.939 414.702Z" stroke="#263238" stroke-linecap="round" stroke-linejoin="round"/>
        <path d="M331.149 306.521L327.209 302.241L322.319 297.351L319.569 289.821L324.399 289.561L324.079 286.921L320.659 287.411L323.219 285.481L325.919 282.981L325.349 280.391L321.349 276.941L319.449 271.521C300.326 256.461 276.807 248.058 252.469 247.591C228.132 247.123 204.308 254.617 184.619 268.931L191.519 271.831L188.939 277.301L184.249 279.421L185.249 286.521L183.359 287.761L181.359 291.181L182.649 295.781L187.169 295.321L186.329 300.121L190.729 299.121L196.109 287.881L195.969 283.561L203.099 281.441L204.219 277.931L211.549 275.491L211.349 270.921L216.719 269.451C216.719 269.451 220.149 266.521 220.919 266.351C222.488 266.337 224.056 266.441 225.609 266.661L230.179 268.911L235.609 267.701L239.609 263.821L245.669 263.021C246.649 263.399 247.705 263.537 248.749 263.421C250.039 263.131 253.519 260.421 253.519 260.421L262.059 263.421L265.679 265.061L266.539 268.941L270.539 268.591L271.319 265.981L275.029 266.781L275.229 268.911L267.919 272.711L273.589 277.421L284.049 280.531L289.049 284.841L294.859 284.091L295.579 281.221L297.529 280.221L289.659 276.541L285.399 276.941L288.529 275.161L284.449 271.451L288.789 270.221L295.179 272.061L297.849 277.981L301.439 280.711L305.439 287.711L312.049 290.581L313.939 299.121L320.759 301.681L321.129 304.581V308.121L323.719 312.431L324.719 314.651L329.289 314.451L330.389 309.591L331.149 306.521Z" stroke="#263238" stroke-linecap="round" stroke-linejoin="round"/>
        <path d="M328.72 279.711L329.05 281.201L328.68 285.621L330.26 289.071L333.34 289.481L334.43 294.391L331.04 293.791L333.36 307.931L331.52 314.321L335.2 321.101L339.25 323.461L342.36 337.461L348.13 347.581L353.59 355.061L359.89 355.291L360.81 349.651L361.51 348.811C361.071 344.167 360.346 339.555 359.34 335.001C354.697 313.997 344.061 294.79 328.72 279.711Z" stroke="#263238" stroke-linecap="round" stroke-linejoin="round"/>
        <path d="M268.6 291.37L249.85 287.65L242.41 289.58L241.69 294.9L237.83 292.22L232.43 294.78L233.81 303.44L239.21 305.76L241.48 300.1L246.23 303.12L255.8 308.32L259.02 315.48L267.64 322.53L278.11 318.3L276.99 314.48L273.68 310.6L270.86 300.36L272.48 295.39L268.6 291.37Z" stroke="#263238" stroke-linecap="round" stroke-linejoin="round"/>
        <path d="M283.828 293.951L279.718 293.781L276.988 297.381L280.468 304.481L283.828 303.731V293.951Z" stroke="#263238" stroke-linecap="round" stroke-linejoin="round"/>
        <path d="M308.99 293.531L299.15 290.821L296.65 288.121L294.76 289.361L297.72 294.131L300.76 300.511L304.99 301.201L305.54 300.001L302.34 296.631L309.65 297.731L308.99 293.531Z" stroke="#263238" stroke-linecap="round" stroke-linejoin="round"/>
        <path d="M254.179 403.711L253.369 404.981L261.649 405.581L265.559 408.511L270.589 407.941L271.769 404.691L265.589 404.981L254.179 403.711Z" stroke="#263238" stroke-linecap="round" stroke-linejoin="round"/>
        <path d="M278.299 403.512L273.209 406.272L274.439 408.172L281.169 406.682L281.999 404.322L279.729 405.102L278.299 403.512Z" stroke="#263238" stroke-linecap="round" stroke-linejoin="round"/>
        <path d="M354.22 283.51C352.187 283.51 350.174 283.911 348.297 284.689C346.419 285.468 344.713 286.61 343.277 288.048C341.841 289.487 340.703 291.195 339.928 293.074C339.153 294.953 338.756 296.967 338.76 299C338.76 307.54 354.22 324.77 354.22 324.77C354.22 324.77 369.69 307.54 369.69 299C369.692 296.967 369.294 294.953 368.518 293.073C367.742 291.194 366.603 289.487 365.166 288.048C363.729 286.609 362.023 285.468 360.145 284.689C358.266 283.911 356.253 283.51 354.22 283.51ZM354.22 305.78C352.87 305.786 351.55 305.391 350.425 304.645C349.301 303.899 348.423 302.835 347.904 301.59C347.385 300.344 347.247 298.972 347.509 297.649C347.771 296.325 348.42 295.109 349.374 294.154C350.329 293.2 351.545 292.551 352.869 292.289C354.192 292.027 355.564 292.165 356.81 292.684C358.055 293.203 359.119 294.081 359.865 295.205C360.611 296.33 361.006 297.65 361 299C360.995 300.796 360.279 302.518 359.008 303.788C357.738 305.058 356.016 305.774 354.22 305.78Z" fill="#263238" stroke="#263238" stroke-miterlimit="10"/>
        <path d="M234.25 323.201C230.672 323.201 227.241 324.622 224.711 327.152C222.181 329.682 220.76 333.113 220.76 336.691C220.76 344.141 234.25 359.171 234.25 359.171C234.25 359.171 247.74 344.171 247.74 336.691C247.74 333.113 246.319 329.682 243.789 327.152C241.259 324.622 237.828 323.201 234.25 323.201ZM234.25 342.631C233.075 342.631 231.927 342.283 230.95 341.63C229.973 340.977 229.212 340.05 228.762 338.964C228.312 337.879 228.195 336.685 228.424 335.532C228.653 334.38 229.219 333.322 230.05 332.491C230.88 331.66 231.939 331.094 233.091 330.865C234.243 330.636 235.438 330.754 236.523 331.203C237.608 331.653 238.536 332.414 239.189 333.391C239.841 334.368 240.19 335.516 240.19 336.691C240.19 338.267 239.564 339.777 238.45 340.891C237.336 342.005 235.825 342.631 234.25 342.631Z" fill="#263238" stroke="#263238" stroke-miterlimit="10"/>
        <path d="M285.261 428.4C283.462 428.4 281.736 429.114 280.463 430.386C279.19 431.657 278.473 433.381 278.471 435.18C278.471 438.93 285.261 446.49 285.261 446.49C285.261 446.49 292.041 438.93 292.041 435.18C292.038 433.383 291.323 431.66 290.052 430.389C288.781 429.118 287.058 428.403 285.261 428.4ZM285.261 438.17C284.667 438.17 284.087 437.994 283.594 437.665C283.101 437.335 282.716 436.867 282.489 436.318C282.262 435.77 282.203 435.167 282.318 434.585C282.434 434.003 282.72 433.469 283.139 433.049C283.559 432.63 284.094 432.344 284.675 432.228C285.257 432.112 285.861 432.172 286.409 432.399C286.957 432.626 287.425 433.01 287.755 433.504C288.085 433.997 288.261 434.577 288.261 435.17C288.261 435.564 288.183 435.954 288.032 436.318C287.882 436.682 287.661 437.013 287.382 437.292C287.103 437.57 286.773 437.791 286.409 437.942C286.045 438.093 285.655 438.17 285.261 438.17Z" fill="#263238" stroke="#263238" stroke-miterlimit="10"/>
        <path d="M200.882 365.75C199.082 365.753 197.358 366.469 196.087 367.742C194.816 369.015 194.102 370.741 194.102 372.54C194.102 376.29 200.882 383.85 200.882 383.85C200.882 383.85 207.672 376.29 207.672 372.54C207.672 370.739 206.956 369.012 205.683 367.739C204.409 366.465 202.682 365.75 200.882 365.75ZM200.882 375.53C200.288 375.53 199.708 375.354 199.215 375.024C198.721 374.695 198.337 374.226 198.11 373.678C197.883 373.13 197.823 372.527 197.939 371.945C198.055 371.363 198.341 370.828 198.76 370.409C199.18 369.989 199.714 369.703 200.296 369.588C200.878 369.472 201.481 369.531 202.03 369.758C202.578 369.985 203.046 370.37 203.376 370.863C203.706 371.357 203.882 371.937 203.882 372.53C203.882 373.326 203.565 374.089 203.003 374.651C202.44 375.214 201.677 375.53 200.882 375.53Z" fill="#263238" stroke="#263238" stroke-miterlimit="10"/>
        <path d="M224.882 394.311C223.99 394.311 223.108 394.486 222.285 394.828C221.461 395.169 220.714 395.669 220.084 396.3C219.454 396.931 218.955 397.679 218.615 398.503C218.275 399.327 218.1 400.209 218.102 401.101C218.102 404.851 224.882 412.411 224.882 412.411C224.882 412.411 231.672 404.851 231.672 401.101C231.672 399.3 230.956 397.573 229.683 396.299C228.409 395.026 226.682 394.311 224.882 394.311ZM224.882 404.091C224.288 404.091 223.708 403.915 223.215 403.585C222.722 403.255 222.337 402.787 222.11 402.239C221.883 401.69 221.823 401.087 221.939 400.505C222.055 399.923 222.341 399.389 222.76 398.969C223.18 398.55 223.714 398.264 224.296 398.148C224.878 398.032 225.481 398.092 226.03 398.319C226.578 398.546 227.046 398.93 227.376 399.424C227.706 399.917 227.882 400.497 227.882 401.091C227.882 401.886 227.566 402.649 227.003 403.212C226.44 403.774 225.677 404.091 224.882 404.091Z" fill="#263238" stroke="#263238" stroke-miterlimit="10"/>
        <path d="M309.171 407.131C308.114 407.131 307.067 407.339 306.09 407.744C305.114 408.148 304.226 408.741 303.479 409.489C302.731 410.236 302.138 411.124 301.734 412.1C301.329 413.077 301.121 414.124 301.121 415.181C301.121 419.621 309.171 428.581 309.171 428.581C309.171 428.581 317.171 419.581 317.171 415.181C317.178 414.126 316.976 413.08 316.577 412.104C316.177 411.128 315.589 410.24 314.846 409.492C314.102 408.743 313.218 408.15 312.244 407.745C311.27 407.339 310.226 407.131 309.171 407.131ZM309.171 418.721C308.468 418.723 307.78 418.516 307.195 418.127C306.61 417.737 306.153 417.183 305.883 416.534C305.613 415.885 305.542 415.17 305.679 414.481C305.815 413.791 306.154 413.158 306.651 412.661C307.148 412.164 307.781 411.825 308.471 411.689C309.161 411.552 309.875 411.623 310.524 411.893C311.173 412.163 311.728 412.62 312.117 413.205C312.506 413.79 312.713 414.478 312.711 415.181C312.711 415.646 312.62 416.106 312.442 416.536C312.264 416.965 312.003 417.355 311.674 417.684C311.346 418.013 310.955 418.273 310.526 418.451C310.096 418.629 309.636 418.721 309.171 418.721Z" fill="#263238" stroke="#263238" stroke-miterlimit="10"/>
        <path d="M308.581 253.32C306.688 253.32 304.872 254.073 303.533 255.412C302.194 256.751 301.441 258.567 301.441 260.46C301.441 264.46 308.581 272.37 308.581 272.37C308.581 272.37 315.731 264.37 315.731 260.46C315.729 258.566 314.974 256.75 313.634 255.411C312.293 254.072 310.476 253.32 308.581 253.32ZM308.581 263.61C307.958 263.61 307.349 263.426 306.831 263.079C306.313 262.733 305.91 262.241 305.671 261.666C305.433 261.09 305.37 260.457 305.492 259.846C305.613 259.235 305.913 258.673 306.354 258.233C306.795 257.792 307.356 257.492 307.967 257.371C308.578 257.249 309.211 257.312 309.787 257.55C310.362 257.788 310.854 258.192 311.201 258.71C311.547 259.228 311.731 259.837 311.731 260.46C311.731 261.296 311.4 262.097 310.809 262.688C310.218 263.278 309.417 263.61 308.581 263.61Z" fill="#263238" stroke="#263238" stroke-miterlimit="10"/>
        <path d="M186.291 298C185.352 297.999 184.423 298.182 183.555 298.541C182.688 298.899 181.899 299.425 181.235 300.088C180.571 300.751 180.045 301.538 179.685 302.405C179.326 303.272 179.141 304.202 179.141 305.14C179.141 309.09 186.291 317.05 186.291 317.05C186.291 317.05 193.431 309.05 193.431 305.14C193.431 303.246 192.678 301.43 191.339 300.091C190 298.752 188.184 298 186.291 298ZM186.291 308.29C185.667 308.292 185.057 308.109 184.538 307.764C184.019 307.419 183.613 306.928 183.373 306.352C183.133 305.777 183.07 305.143 183.19 304.532C183.31 303.92 183.61 303.358 184.05 302.916C184.49 302.475 185.051 302.174 185.662 302.051C186.274 301.929 186.908 301.991 187.484 302.229C188.06 302.467 188.552 302.871 188.899 303.389C189.246 303.907 189.431 304.517 189.431 305.14C189.431 305.974 189.1 306.773 188.512 307.364C187.923 307.954 187.124 308.287 186.291 308.29Z" fill="#263238" stroke="#263238" stroke-miterlimit="10"/>
        <path d="M271.059 144.13C271.059 144.13 270.439 200.43 270.439 209.73C270.439 219.03 269.669 228.03 269.669 228.03C269.669 228.03 272.459 230.03 271.989 232.37C271.468 234.354 270.74 236.277 269.819 238.11C268.752 237.869 267.652 237.818 266.569 237.96C265.479 238.27 258.969 241.21 257.879 241.21C256.789 241.21 256.329 242.14 256.019 239.21C255.681 236.588 255.577 233.94 255.709 231.3C255.903 228.943 256.267 226.604 256.799 224.3L250.279 153.12L248.729 222.44C248.729 222.44 249.039 226.63 249.509 227.44C250.125 228.549 250.544 229.757 250.749 231.01C250.749 231.78 249.349 239.07 248.749 239.38C248.149 239.69 246.269 240.78 246.269 240.78C246.269 240.78 245.029 240.47 243.319 238.3C241.609 236.13 237.589 236.3 236.809 236.59L236.029 236.9C236.029 236.9 233.709 234.11 233.239 232.09C232.769 230.07 235.879 229.92 235.719 224.49C235.559 219.06 230.899 173 230.899 173L229.809 142L271.369 140.76L271.059 144.13Z" fill="#263238" stroke="#263238" stroke-miterlimit="10"/>
        <path d="M254.778 72.1699L238.188 73.2599L237.568 144.13C237.568 144.13 238.808 145.22 249.038 145.37C259.268 145.52 261.448 144.29 261.448 144.29L254.778 72.1699Z" fill="white" stroke="#263238" stroke-miterlimit="10"/>
        <path d="M253.76 37.2695C253.76 37.2695 257.82 42.9995 257.76 43.8695C257.645 44.7256 257.478 45.5738 257.26 46.4095C257.26 46.4095 261.68 50.9695 261.26 51.3395L258.8 53.4395C258.8 53.4395 258.87 57.7095 258.87 58.3695C258.87 59.0295 259.81 60.6895 259.52 61.3695C259.185 62.1117 258.721 62.7887 258.15 63.3695C257.64 63.7995 253.94 63.7295 253.94 63.7295L253.87 69.5995C253.87 69.5995 254.52 73.2995 253.94 74.5995C253.36 75.8995 251.69 76.9195 247.49 77.1395C243.29 77.3595 241.24 75.9295 240.01 74.9095C238.78 73.8895 238.94 64.5295 238.86 63.0795C238.78 61.6295 238.72 58.8695 237.92 57.6395C237.12 56.4095 231.92 47.6395 231.04 45.4595C230.16 43.2795 230.09 41.0395 231.76 39.0895C233.43 37.1395 235.53 36.2595 235.76 35.1695C235.99 34.0795 235.76 32.9995 237.35 32.4895C238.507 32.1851 239.713 32.1104 240.9 32.2695C240.9 32.2695 243.95 28.5795 245.54 29.0095L247.14 29.4395C247.14 29.4395 251.56 28.2095 253.88 30.1695C256.2 32.1295 256.66 35.2395 253.76 37.2695Z" fill="white" stroke="#263238" stroke-miterlimit="10"/>
        <path d="M254.59 47.5198C254.59 48.4398 254.87 49.1898 255.23 49.1898C255.59 49.1898 255.87 48.4398 255.87 47.5198C255.87 46.5998 255.58 45.8398 255.23 45.8398C254.88 45.8398 254.59 46.5898 254.59 47.5198Z" fill="#263238" stroke="#263238" stroke-miterlimit="10"/>
        <path d="M235.709 35.1695C235.919 34.0795 235.709 32.9995 237.299 32.4895C238.456 32.1851 239.662 32.1104 240.849 32.2695C240.849 32.2695 243.899 28.5795 245.489 29.0095L247.089 29.4395C247.089 29.4395 251.509 28.2095 253.829 30.1695C256.149 32.1295 256.659 35.2395 253.759 37.2695C253.759 37.2695 245.759 38.1395 246.759 39.5895C247.759 41.0395 248.209 42.1995 247.419 42.5895C246.629 42.9795 242.999 44.8295 243.359 45.6995C243.719 46.5695 244.079 48.8895 243.579 49.0395C243.079 49.1895 243.139 48.8895 241.579 47.7295C240.019 46.5695 238.239 47.4395 238.029 49.7295C237.948 50.5628 238.146 51.3994 238.591 52.1085C239.036 52.8177 239.703 53.3595 240.489 53.6495C241.289 53.7895 240.849 56.6495 239.329 57.7095C238.98 57.9416 238.604 58.1297 238.209 58.2695C238.123 58.0223 238.012 57.7845 237.879 57.5595C237.079 56.3295 231.879 47.5595 230.999 45.3795C230.119 43.1995 230.049 40.9595 231.719 39.0095C233.389 37.0595 235.489 36.2595 235.709 35.1695Z" fill="#263238" stroke="#263238" stroke-miterlimit="10"/>
        <path d="M257.999 55.6792C257.999 55.6792 254.739 56.2592 252.859 53.9492" stroke="#263238" stroke-miterlimit="10"/>
        <path d="M253.899 63.7289L247.229 61.6289L253.759 68.2189L253.899 63.7289Z" fill="#263238" stroke="#263238" stroke-miterlimit="10"/>
        <path d="M256.15 43.8285C256.15 43.8285 253.79 42.5385 252.42 44.4785" stroke="#263238" stroke-miterlimit="10"/>
        <path d="M271.61 99.1695C271.61 99.1695 280.66 114.33 280.91 117.26C281.16 120.19 276.14 130.26 274.67 130.59C273.2 130.92 269.04 126.19 268.56 124.23C268.08 122.27 267.33 100.15 268.19 98.2295C269.05 96.3095 271.61 99.1695 271.61 99.1695Z" fill="#263238" stroke="#263238" stroke-miterlimit="10"/>
        <path d="M256.598 72L265.278 72.66C265.278 72.66 270.058 71.55 271.498 72C272.938 72.45 293.408 80.34 295.638 81.9C297.868 83.46 297.528 89.1199 296.968 91.4599C296.776 92.2763 296.326 93.009 295.685 93.5494C295.044 94.0898 294.246 94.4091 293.408 94.4599C292.408 94.5699 271.728 93.2399 271.728 93.2399L277.058 147.4L265.938 151L258.048 152L254.148 84.4899L256.598 72Z" fill="#2F27CE" stroke="#263238" stroke-miterlimit="10"/>
        <path d="M253.76 68.2285L256.6 71.9985C256.6 71.9985 256.93 77.6685 256.16 79.9985C255.616 81.5695 254.947 83.0944 254.16 84.5585L250.6 76.3285C252.127 73.8381 253.197 71.0951 253.76 68.2285Z" fill="#2F27CE" stroke="#263238" stroke-miterlimit="10"/>
        <path d="M239.999 86.6487L240.999 152.239C240.999 152.239 231.219 151.139 227.999 149.789C226.164 149.022 224.368 148.165 222.619 147.219C222.619 147.219 225.799 123.219 225.919 121.299C226.039 119.379 226.039 117.749 226.039 117.749C226.039 117.749 218.829 120.319 216.139 119.469C213.449 118.619 213.079 115.799 213.329 112.249C213.471 110.285 213.491 108.315 213.389 106.349C213.389 105.739 214.119 95.6087 217.059 88.0287C219.999 80.4487 218.219 80.2087 220.299 78.8687C222.379 77.5287 237.539 72.1387 237.539 72.1387L239.249 75.6887L239.999 86.6487Z" fill="#2F27CE" stroke="#263238" stroke-miterlimit="10"/>
        <path d="M228.449 75.8086C228.449 75.8086 230.649 101.729 228.079 110.289L224.079 110.419C224.329 113.419 226.149 108.089 226.639 91.8286C226.849 84.8286 223.709 77.3986 223.709 77.3986C225.247 76.7521 226.832 76.2206 228.449 75.8086Z" fill="#263238" stroke="#263238" stroke-miterlimit="10"/>
        <path d="M239.138 68.6286C239.138 68.6286 240.588 72.2987 241.468 74.1887C242.348 76.0787 242.998 77.3086 242.998 77.3086L239.998 86.6487C238.749 83.193 237.828 79.6272 237.248 75.9987C236.798 71.7687 236.398 72.4186 236.398 72.4186C236.398 72.4186 238.358 67.8486 239.138 68.6286Z" fill="#2F27CE" stroke="#263238" stroke-miterlimit="10"/>
        <path d="M269.279 56.3994C268.38 56.0922 267.521 55.6793 266.719 55.1694C266.049 54.6194 264.719 52.4994 264.269 52.0594C263.819 51.6194 261.619 52.3894 261.269 51.3394C260.919 50.2894 260.669 49.2094 261.989 49.5194C263.294 49.7537 264.614 49.894 265.939 49.9394L263.849 43.1094H273.439C273.439 43.1094 276.219 52.5694 276.219 53.3394C276.142 54.2031 275.994 55.0592 275.779 55.8994C275.779 55.8994 288.899 70.5794 291.679 74.2494C294.459 77.9194 297.909 82.9294 298.249 84.8194C298.589 86.7094 297.579 92.7094 295.249 93.4894C292.919 94.2694 290.799 93.3794 288.359 91.0494C285.919 88.7194 278.569 73.6994 278.239 73.1394C277.909 72.5794 272.239 58.5694 271.899 58.1394C271.078 57.4849 270.201 56.9027 269.279 56.3994Z" fill="white" stroke="#263238" stroke-miterlimit="10"/>
        <path d="M264.398 72.7495C264.398 72.7495 267.208 91.0995 270.268 100.149C273.328 109.199 275.888 114.939 275.888 114.939L274.548 122.939C270.933 116.398 267.866 109.568 265.378 102.519C261.218 90.7794 258.898 72.4395 258.898 72.4395L264.398 72.7495Z" fill="#263238" stroke="#263238" stroke-miterlimit="10"/>
        <path d="M239.918 90.3292L243.218 119.619L224.398 117.389L219.488 88.1992L239.918 90.3292Z" fill="white" stroke="#263238" stroke-miterlimit="10"/>
        <path d="M237.499 90.4802L243.489 119.34L224.529 118.85L216.949 90.2402L237.499 90.4802Z" fill="white" stroke="#263238" stroke-miterlimit="10"/>
        <path d="M219.15 107.119C221.214 108.233 223.337 109.234 225.51 110.119C226.49 110.509 227.541 110.69 228.595 110.648C229.649 110.607 230.683 110.345 231.63 109.879C232.7 109.388 233.657 108.68 234.44 107.799C234.44 107.799 235.05 104.499 235.78 104.009C236.51 103.519 238.23 103.149 238.96 102.009C239.69 100.869 240.06 101.009 240.31 102.129C240.56 103.249 240.8 104.459 240.06 104.949C239.63 105.231 239.326 105.668 239.21 106.169C239.21 106.169 239.33 107.029 240.31 106.659C241.29 106.289 241.9 105.069 242.88 105.439C243.095 105.474 243.299 105.56 243.475 105.69C243.65 105.819 243.793 105.988 243.89 106.184C243.988 106.379 244.038 106.594 244.036 106.813C244.034 107.031 243.981 107.246 243.88 107.439C243.6 108.039 243.265 108.611 242.88 109.149C242.88 109.149 244.1 111.969 243.49 113.799C242.88 115.629 239.82 116.739 238.35 116.859C236.88 116.979 232.73 117.099 232.73 117.099C232.73 117.099 226.73 119.099 223.07 120.159C219.41 121.219 218.3 121.019 216.22 119.429C215.149 118.602 214.363 117.463 213.969 116.17C213.574 114.876 213.592 113.492 214.02 112.209C214.87 109.319 215.85 107.729 219.15 107.119Z" fill="white" stroke="#263238" stroke-miterlimit="10"/>
        <path d="M268.888 235.79C268.888 235.79 270.888 240.59 271.368 241.52C272.401 243.189 273.843 244.566 275.558 245.52C277.888 246.91 280.678 247.84 280.058 249.08C279.438 250.32 276.648 250.63 274.318 250.94C271.988 251.25 266.568 250.32 264.388 250.32C262.208 250.32 257.388 249.55 256.948 248.46C256.508 247.37 257.108 239.62 257.108 239.62C257.108 239.62 260.668 235.63 268.888 235.79Z" fill="white" stroke="#263238" stroke-miterlimit="10"/>
        <path d="M257 248.499C256.827 247.664 256.77 246.809 256.83 245.959L262.42 247.619C265.839 248.476 269.325 249.044 272.84 249.319C275.267 249.443 277.694 249.065 279.97 248.209C280.084 248.328 280.158 248.479 280.184 248.642C280.209 248.805 280.183 248.971 280.11 249.119C279.49 250.359 276.7 250.669 274.37 250.979C272.04 251.289 266.62 250.359 264.44 250.359C262.26 250.359 257.42 249.589 257 248.499Z" fill="white" stroke="#263238" stroke-miterlimit="10"/>
        <path d="M246.729 240C246.729 240 246.269 248 246.159 248.58C246.049 249.16 245.479 249.58 243.899 249.77C242.319 249.96 241.629 249.88 240.729 250.32C239.829 250.76 237.899 251.73 232.469 251.73C227.039 251.73 225.339 250.73 226.019 248.8C226.699 246.87 231.899 243.04 233.149 241.52C234.19 240.023 235.071 238.421 235.779 236.74C235.779 236.74 237.329 235.44 240.389 236.09C243.449 236.74 244.239 237.94 244.579 238.48C245.217 239.09 245.941 239.603 246.729 240Z" fill="white" stroke="#263238" stroke-miterlimit="10"/>
        <path d="M225.998 248.84C226.044 248.712 226.101 248.588 226.168 248.47C226.696 249.032 227.328 249.487 228.028 249.81C230.028 250.81 238.108 250.25 239.918 249.27C241.987 248.359 244.119 247.6 246.298 247C246.238 247.86 246.188 248.5 246.158 248.64C246.048 249.18 245.478 249.64 243.898 249.83C242.318 250.02 241.628 249.94 240.728 250.38C239.828 250.82 237.898 251.79 232.468 251.79C227.038 251.79 225.338 250.79 225.998 248.84Z" fill="white" stroke="#263238" stroke-miterlimit="10"/>
        <path d="M261.298 44.6404L268.698 44.1504V49.9404L261.298 49.4504C260.948 49.4504 260.658 48.3804 260.658 47.0504C260.658 45.7204 260.998 44.6404 261.298 44.6404Z" fill="white" stroke="#263238" stroke-miterlimit="10"/>
        <path d="M259.269 44.0586H261.599C261.659 44.059 261.719 44.0742 261.772 44.103C261.825 44.1317 261.871 44.173 261.904 44.2233C261.938 44.2737 261.958 44.3315 261.964 44.3917C261.97 44.4518 261.962 44.5126 261.939 44.5686C261.684 45.3697 261.565 46.2081 261.589 47.0486C261.564 47.8858 261.683 48.7211 261.939 49.5186C261.962 49.5746 261.97 49.6353 261.964 49.6955C261.958 49.7557 261.938 49.8135 261.904 49.8638C261.871 49.9142 261.825 49.9555 261.772 49.9842C261.719 50.013 261.659 50.0282 261.599 50.0286H259.269C258.829 50.0286 258.469 48.6886 258.469 47.0286C258.469 45.3686 258.829 44.0586 259.269 44.0586Z" fill="white" stroke="#263238" stroke-miterlimit="10"/>
        <path d="M266.609 43.1086L282.679 42.3086V51.7886L266.609 50.9986C266.029 50.9986 265.609 49.2286 265.609 47.0586C265.609 44.8886 265.999 43.1086 266.609 43.1086Z" fill="white" stroke="#263238" stroke-miterlimit="10"/>
        <path d="M281.42 47.0486C281.42 49.6586 281.99 51.7886 282.68 51.7886C283.37 51.7886 283.94 49.6586 283.94 47.0486C283.94 44.4386 283.38 42.3086 282.68 42.3086C281.98 42.3086 281.42 44.4286 281.42 47.0486Z" fill="white" stroke="#263238" stroke-miterlimit="10"/>
        <path d="M258.49 44.6404L265.89 44.1504V49.9404L258.49 49.4504C258.14 49.4504 257.85 48.3804 257.85 47.0504C257.85 45.7204 258.14 44.6404 258.49 44.6404Z" fill="#263238" stroke="#263238" stroke-miterlimit="10"/>
        <path d="M256.458 44.0586H258.788C258.849 44.059 258.908 44.0742 258.961 44.103C259.015 44.1317 259.06 44.173 259.094 44.2233C259.127 44.2737 259.148 44.3315 259.154 44.3917C259.16 44.4518 259.151 44.5126 259.128 44.5686C258.877 45.3705 258.762 46.2087 258.788 47.0486C258.761 47.8852 258.876 48.7204 259.128 49.5186C259.151 49.5746 259.16 49.6353 259.154 49.6955C259.148 49.7557 259.127 49.8135 259.094 49.8638C259.06 49.9142 259.015 49.9555 258.961 49.9842C258.908 50.013 258.849 50.0282 258.788 50.0286H256.458C256.018 50.0286 255.658 48.6886 255.658 47.0286C255.658 45.3686 255.998 44.0586 256.458 44.0586Z" fill="white" stroke="#263238" stroke-miterlimit="10"/>
        <path d="M263.799 43.1086L279.869 42.3086V51.7886L263.799 50.9986C263.229 50.9986 262.799 49.2286 262.799 47.0586C262.799 44.8886 263.229 43.1086 263.799 43.1086Z" fill="#263238" stroke="#263238" stroke-miterlimit="10"/>
        <path d="M278.609 47.0486C278.609 49.6586 279.179 51.7886 279.869 51.7886C280.559 51.7886 281.129 49.6586 281.129 47.0486C281.129 44.4386 280.569 42.3086 279.869 42.3086C279.169 42.3086 278.609 44.4286 278.609 47.0486Z" fill="white" stroke="#263238" stroke-miterlimit="10"/>
        <path d="M273.12 42.5386C273.12 42.5386 271.05 40.3086 270.28 40.3086C269.51 40.3086 268.28 42.3086 268.06 42.5386C267.84 42.7686 267.98 43.1486 268.82 43.2286C269.459 43.2077 270.077 42.9913 270.59 42.6086L273.12 42.5386Z" fill="white" stroke="#263238" stroke-miterlimit="10"/>
        <path d="M270.278 40.3096C269.225 40.0384 268.145 39.8842 267.058 39.8496C266.438 39.9996 265.288 42.6096 265.518 42.9996C265.748 43.3896 268.058 42.5396 268.058 42.5396C268.058 42.5396 269.588 40.2296 270.278 40.3096Z" fill="white" stroke="#263238" stroke-miterlimit="10"/>
        <path d="M266.518 40.0803C266.518 40.0803 265.288 39.3103 264.678 39.8503C264.068 40.3903 262.758 42.2303 263.068 42.9203C263.378 43.6103 265.518 43.0003 265.518 43.0003C265.518 43.0003 265.998 40.3103 266.518 40.0803Z" fill="white" stroke="#263238" stroke-miterlimit="10"/>
        <path d="M264.07 40.3102C264.07 40.3102 262.53 39.7002 261.99 40.3102C261.45 40.9202 260.08 42.8402 260.99 43.3102C261.9 43.7802 262.83 42.3902 262.83 42.3902L264.07 40.3102Z" fill="white" stroke="#263238" stroke-miterlimit="10"/>
    </g>
    <defs>
        <clipPath id="clip0_2903_7094">
            <rect width="500" height="500" fill="white"/>
        </clipPath>
    </defs>
</svg>
