<svg width="500" height="500" viewBox="0 0 500 500" fill="none" xmlns="http://www.w3.org/2000/svg">
    <path d="M400.06 436.36C317.18 484.21 182.83 484.21 99.9496 436.36C44.1096 404.13 25.8996 358.36 45.3096 317.36C46.1196 315.63 47.0096 313.91 47.9596 312.21C50.6197 307.445 53.6666 302.907 57.0696 298.64C67.2996 285.76 81.5896 273.7 99.9996 263.1C182.88 215.25 317.23 215.25 400.11 263.1C427.54 278.93 445.89 298.03 455.16 318.24C457.288 322.861 458.962 327.676 460.16 332.62C460.65 334.62 461.05 336.62 461.36 338.62C466.82 373.56 446.39 409.61 400.06 436.36Z" fill="#F5F5F5"/>
    <path d="M461.331 338.61L271.731 448.07L45.3105 317.35C46.1205 315.62 47.0105 313.9 47.9605 312.2C50.6206 307.435 53.6675 302.897 57.0705 298.63C67.3005 285.76 81.5905 273.7 100.001 263.1C182.881 215.25 317.231 215.25 400.111 263.1C427.541 278.93 445.891 298.03 455.161 318.24C457.289 322.861 458.963 327.676 460.161 332.62C460.621 334.61 461.001 336.6 461.331 338.61Z" fill="#2F27CE"/>
    <path opacity="0.4" d="M461.331 338.61L271.731 448.07L45.3105 317.35C46.1205 315.62 47.0105 313.9 47.9605 312.2C50.6206 307.435 53.6675 302.897 57.0705 298.63C67.3005 285.76 81.5905 273.7 100.001 263.1C182.881 215.25 317.231 215.25 400.111 263.1C427.541 278.93 445.891 298.03 455.161 318.24C457.289 322.861 458.963 327.676 460.161 332.62C460.621 334.61 461.001 336.6 461.331 338.61Z" fill="black"/>
    <path d="M460.13 332.62L271.73 441.39L48 312.2C50.6601 307.435 53.707 302.897 57.11 298.63C67.3 285.76 81.59 273.7 100 263.1C182.88 215.25 317.23 215.25 400.11 263.1C427.54 278.93 445.89 298.03 455.16 318.24C457.278 322.862 458.942 327.678 460.13 332.62Z" fill="#2F27CE"/>
    <path d="M455.109 318.24L273.109 423.34L57.1094 298.63C67.2994 285.76 81.5894 273.7 99.9994 263.1C182.879 215.25 317.229 215.25 400.109 263.1C427.489 278.93 445.839 298 455.109 318.24Z" fill="#2F27CE"/>
    <path d="M455.109 318.24L273.109 423.34L57.1094 298.63C67.2994 285.76 81.5894 273.7 99.9994 263.1C182.879 215.25 317.229 215.25 400.109 263.1C427.489 278.93 445.839 298 455.109 318.24Z" fill="#2F27CE"/>
    <path opacity="0.4" d="M455.109 318.24L273.109 423.34L57.1094 298.63C67.2994 285.76 81.5894 273.7 99.9994 263.1C182.879 215.25 317.229 215.25 400.109 263.1C427.489 278.93 445.839 298 455.109 318.24Z" fill="white"/>
    <path opacity="0.2" d="M293.299 380.531C273.379 392.031 241.099 392.031 221.179 380.531C207.759 372.781 203.389 361.791 208.049 351.931C208.249 351.511 208.459 351.101 208.689 350.691C209.328 349.546 210.061 348.456 210.879 347.431C213.751 343.967 217.244 341.071 221.179 338.891C241.099 327.401 273.379 327.401 293.299 338.891C299.889 342.701 304.299 347.291 306.529 352.141C307.039 353.253 307.441 354.412 307.729 355.601C307.842 356.063 307.932 356.53 307.999 357.001C309.339 365.441 304.429 374.101 293.299 380.531Z" fill="black"/>
    <path opacity="0.2" d="M388.33 339.51C376.81 346.16 358.14 346.16 346.63 339.51C338.87 335 336.34 328.67 339 323C339.12 322.76 339.24 322.52 339.37 322.28C339.744 321.621 340.168 320.993 340.64 320.4C342.311 318.39 344.347 316.714 346.64 315.46C358.15 308.81 376.82 308.81 388.34 315.46C392.15 317.66 394.7 320.32 395.99 323.12C396.283 323.765 396.517 324.434 396.69 325.12C396.75 325.4 396.81 325.68 396.85 325.95C397.6 330.78 394.77 335.79 388.33 339.51Z" fill="black"/>
    <path opacity="0.2" d="M174.5 337.18L118.83 305C118.255 304.669 117.777 304.192 117.445 303.617C117.112 303.042 116.938 302.389 116.938 301.725C116.938 301.061 117.112 300.409 117.445 299.834C117.777 299.259 118.255 298.782 118.83 298.45L141.05 285.62C142.838 284.588 144.866 284.045 146.93 284.045C148.994 284.045 151.022 284.588 152.81 285.62L208.48 317.76C209.055 318.092 209.533 318.569 209.865 319.144C210.198 319.719 210.372 320.371 210.372 321.035C210.372 321.699 210.198 322.352 209.865 322.927C209.533 323.502 209.055 323.979 208.48 324.31L186.26 337.14C184.476 338.179 182.45 338.729 180.385 338.736C178.321 338.743 176.291 338.207 174.5 337.18Z" fill="black"/>
    <path d="M396.729 292.879L405.489 297.969C405.489 297.969 401.069 283.859 403.489 269.659C404.078 266.314 405.289 263.109 407.059 260.209C407.739 258.779 413.059 249.919 408.379 245.839C403.699 241.759 392.809 249.839 393.299 271.749C393.545 278.909 394.697 286.009 396.729 292.879Z" fill="#2F27CE"/>
    <path opacity="0.3" d="M396.729 292.879L405.489 297.969C405.489 297.969 401.069 283.859 403.489 269.659C404.078 266.314 405.289 263.109 407.059 260.209C407.739 258.779 413.059 249.919 408.379 245.839C403.699 241.759 392.809 249.839 393.299 271.749C393.545 278.909 394.697 286.009 396.729 292.879Z" fill="black"/>
    <path d="M400.799 295.659C400.715 295.658 400.634 295.632 400.567 295.584C400.499 295.535 400.447 295.468 400.419 295.389C400.419 295.299 397.069 286.099 397.239 271.339C397.409 256.579 405.239 248.569 405.299 248.489C405.337 248.451 405.382 248.421 405.432 248.4C405.481 248.38 405.535 248.369 405.589 248.369C405.643 248.369 405.696 248.38 405.746 248.4C405.795 248.421 405.841 248.451 405.879 248.489C405.917 248.527 405.947 248.573 405.968 248.622C405.988 248.672 405.999 248.725 405.999 248.779C405.999 248.833 405.988 248.886 405.968 248.936C405.947 248.986 405.917 249.031 405.879 249.069C405.799 249.149 398.229 256.849 398.059 271.349C397.889 285.849 401.149 295.019 401.189 295.109C401.221 295.211 401.214 295.322 401.167 295.419C401.121 295.516 401.039 295.591 400.939 295.629C400.895 295.65 400.847 295.66 400.799 295.659Z" fill="white"/>
    <path d="M403.519 296.858L417.999 305.368C417.999 305.368 424.629 304.368 424.119 298.158C423.609 291.948 420.929 290.448 424.279 287.708C427.629 284.968 428.499 284.778 428.339 282.098C428.179 279.418 426.339 278.238 425.519 277.168C424.699 276.098 422.299 273.868 423.969 270.628C425.639 267.388 427.899 264.258 424.539 262.778C422.539 261.888 419.169 262.998 416.939 265.368C414.709 267.738 412.859 269.448 410.739 269.998C408.619 270.548 404.219 270.588 404.359 274.238C404.499 277.888 405.459 279.138 404.579 280.758C402.909 283.808 395.789 285.448 403.519 296.858Z" fill="#2F27CE"/>
    <path d="M409.42 300.738C409.317 300.736 409.218 300.697 409.142 300.627C409.067 300.556 409.019 300.461 409.01 300.358C409.01 300.138 407.42 278.548 422.42 264.358C422.458 264.32 422.503 264.29 422.553 264.27C422.602 264.249 422.656 264.238 422.71 264.238C422.763 264.238 422.817 264.249 422.867 264.27C422.916 264.29 422.962 264.32 423 264.358C423.074 264.437 423.116 264.54 423.116 264.648C423.116 264.756 423.074 264.86 423 264.938C408.29 278.838 409.83 300.048 409.85 300.258C409.854 300.312 409.847 300.366 409.83 300.418C409.813 300.469 409.786 300.517 409.751 300.557C409.716 300.598 409.673 300.632 409.624 300.656C409.576 300.68 409.523 300.695 409.47 300.698L409.42 300.738Z" fill="white"/>
    <path d="M412 282.239C411.896 282.24 411.796 282.201 411.72 282.13C411.644 282.06 411.598 281.963 411.59 281.859C411.477 280.204 411.03 278.588 410.275 277.11C409.521 275.632 408.475 274.322 407.2 273.259C407.124 273.192 407.076 273.098 407.065 272.997C407.054 272.896 407.081 272.794 407.141 272.712C407.201 272.629 407.289 272.572 407.389 272.552C407.489 272.531 407.592 272.548 407.68 272.599C409.061 273.723 410.194 275.121 411.009 276.704C411.823 278.288 412.3 280.022 412.41 281.799C412.414 281.853 412.408 281.907 412.391 281.959C412.374 282.01 412.347 282.058 412.312 282.098C412.276 282.139 412.233 282.173 412.185 282.197C412.137 282.221 412.084 282.236 412.03 282.239H412Z" fill="white"/>
    <path d="M410.94 285.919C410.86 285.921 410.781 285.9 410.713 285.858C410.645 285.815 410.592 285.754 410.559 285.68C410.527 285.607 410.518 285.526 410.532 285.447C410.546 285.368 410.584 285.296 410.64 285.239C410.8 285.059 414.57 280.969 423.31 282.179C423.411 282.2 423.5 282.26 423.559 282.344C423.618 282.428 423.643 282.532 423.629 282.634C423.615 282.737 423.563 282.83 423.484 282.895C423.404 282.961 423.303 282.994 423.2 282.989C414.92 281.849 411.28 285.749 411.25 285.789C411.211 285.831 411.163 285.865 411.109 285.888C411.056 285.91 410.998 285.921 410.94 285.919Z" fill="white"/>
    <path d="M182.681 243.61L154.111 227.12V176C154.111 173.31 155.061 171.23 156.701 170.28C157.484 169.871 158.363 169.683 159.245 169.738C160.126 169.792 160.975 170.087 161.701 170.59L176.211 179C179.841 181.09 182.681 186.48 182.681 191.26V243.61ZM156.251 225.89L180.541 239.89V191.29C180.541 187.34 178.071 182.57 175.141 180.88L160.581 172.47C160.18 172.18 159.71 171.999 159.217 171.945C158.725 171.891 158.227 171.965 157.771 172.16C156.771 172.71 156.251 174.16 156.251 176.03V225.89Z" fill="#37474F"/>
    <path d="M176.001 177.091L163.491 169.871C163.092 169.641 162.64 169.519 162.18 169.52C161.72 169.52 161.268 169.641 160.87 169.871C160.472 170.101 160.141 170.432 159.911 170.83C159.681 171.229 159.56 171.681 159.561 172.141C159.563 172.6 159.686 173.051 159.915 173.449C160.145 173.847 160.474 174.178 160.871 174.411L173.381 181.631C173.779 181.861 174.231 181.982 174.691 181.982C175.151 181.982 175.603 181.86 176.001 181.63C176.399 181.4 176.73 181.069 176.96 180.671C177.19 180.272 177.311 179.821 177.311 179.361C177.308 178.901 177.185 178.45 176.956 178.052C176.726 177.654 176.397 177.323 176.001 177.091Z" fill="#2F27CE"/>
    <path d="M185.37 315.321C185.26 317.338 184.676 319.3 183.667 321.05C182.658 322.799 181.251 324.286 179.56 325.391C176.35 327.241 173.74 325.741 173.74 322.031C173.856 320.02 174.444 318.065 175.454 316.322C176.465 314.58 177.872 313.1 179.56 312.001C182.76 310.121 185.37 311.621 185.37 315.321Z" fill="#263238"/>
    <path d="M175.25 325.661L178.4 327.471V319.891L175.25 325.661Z" fill="#263238"/>
    <path d="M188.001 316.851C187.89 318.866 187.306 320.827 186.297 322.575C185.287 324.322 183.881 325.808 182.191 326.911C178.981 328.771 176.381 327.261 176.381 323.561C176.49 321.544 177.074 319.582 178.083 317.832C179.092 316.083 180.5 314.596 182.191 313.491C185.401 311.641 188.001 313.141 188.001 316.851Z" fill="#455A64"/>
    <path d="M194 232.071V308.751C194 310.901 193.25 312.381 192.07 312.951L168.4 326.741V242.001L193.16 227.861C193.696 229.201 193.981 230.628 194 232.071Z" fill="#2F27CE"/>
    <path opacity="0.4" d="M194 232.071V308.751C194 310.901 193.25 312.381 192.07 312.951L168.4 326.741V242.001L193.16 227.861C193.696 229.201 193.981 230.628 194 232.071Z" fill="black"/>
    <path d="M193.161 227.81L168.401 242L145.231 227.53L123.141 213.71L146.791 199.96L146.911 199.89C147.441 199.6 148.042 199.465 148.646 199.502C149.25 199.539 149.83 199.747 150.321 200.1L188.931 222.4C190.887 223.701 192.37 225.598 193.161 227.81Z" fill="#2F27CE"/>
    <path opacity="0.2" d="M193.161 227.81L181.731 234.34L179.861 235.41L168.401 242L145.231 227.53L123.141 213.71L134.801 206.93L136.931 205.69L146.791 199.96L146.911 199.89C147.441 199.6 148.042 199.465 148.646 199.502C149.25 199.539 149.83 199.747 150.321 200.1L188.931 222.4C190.887 223.701 192.37 225.598 193.161 227.81Z" fill="black"/>
    <path d="M165.1 326.46L126.49 304.17C123.68 302.54 121.4 298.17 121.4 294.44V217.76C121.4 214.01 123.68 212.29 126.49 213.91L165.1 236.21C167.91 237.83 170.19 242.21 170.19 245.93V322.61C170.19 326.36 167.91 328.08 165.1 326.46Z" fill="#2F27CE"/>
    <path d="M183.061 318.211V240.061C183.031 238.081 182.578 236.13 181.731 234.341C180.795 232.128 179.217 230.247 177.201 228.941L136.931 205.641L134.801 206.881L176.131 230.791C177.806 231.925 179.105 233.534 179.861 235.411C180.532 236.871 180.896 238.454 180.931 240.061V319.451L183.061 318.211Z" fill="#37474F"/>
    <path opacity="0.2" d="M136 303.78C135.387 303.332 134.887 302.747 134.54 302.072C134.193 301.396 134.008 300.649 134 299.89V228.31C134 226.81 134.91 226.12 136 226.77C136.614 227.217 137.115 227.802 137.462 228.477C137.81 229.153 137.994 229.9 138 230.66V302.24C138 303.74 137.09 304.43 136 303.78Z" fill="black"/>
    <path opacity="0.2" d="M145.801 308.2C145.187 307.753 144.686 307.168 144.338 306.492C143.991 305.817 143.807 305.069 143.801 304.31V232.74C143.801 231.24 144.711 230.55 145.801 231.2C146.414 231.648 146.914 232.233 147.261 232.908C147.608 233.583 147.793 234.33 147.801 235.09V306.66C147.831 308.16 146.921 308.85 145.801 308.2Z" fill="black"/>
    <path opacity="0.2" d="M155.631 313.6C155.018 313.152 154.518 312.567 154.171 311.892C153.823 311.217 153.639 310.47 153.631 309.71V238.13C153.631 236.64 154.541 235.95 155.631 236.6C156.244 237.046 156.744 237.629 157.091 238.303C157.438 238.977 157.623 239.722 157.631 240.48V312.06C157.671 313.56 156.761 314.25 155.631 313.6Z" fill="black"/>
    <path d="M275.309 345.63C275.309 345.63 274.059 345.94 274.409 348.79C274.759 351.64 275.199 355.29 275.199 355.29C275.199 355.29 275.609 361.2 275.579 365.06C275.549 368.92 275.329 374.06 276.109 376.85C276.889 379.64 278.529 382.54 281.039 382.44C283.549 382.34 289.47 378.66 288.89 368.89C288.74 366.23 285.989 357.24 285.989 357.24C285.989 357.24 286.429 348.5 286.369 346.35C286.384 346.003 286.297 345.66 286.119 345.361C285.942 345.063 285.681 344.823 285.369 344.67L275.309 345.63Z" fill="#37474F"/>
    <path d="M273.9 337.7L275.44 346.41C275.44 346.41 276.19 349.04 280.89 349.04C281.957 349.061 282.996 348.701 283.821 348.025C284.646 347.348 285.203 346.4 285.39 345.35L285.67 337.01L273.9 337.7Z" fill="#945959"/>
    <path d="M224.259 173.3L219.929 181.3L199.109 188.58C199.109 188.58 195.559 186.19 195.259 186.48C194.959 186.77 193.649 189.48 198.539 191.8L202.169 198.38C202.169 198.38 227.369 193.38 229.549 191.8C231.729 190.22 235.309 182.8 235.309 182.8C235.309 182.8 232.829 173.1 224.259 173.3Z" fill="#945959"/>
    <path d="M240.45 356.48L237.02 354.26V349.82L240.32 350.12L240.45 356.48Z" fill="#263238"/>
    <path d="M245.13 345.18L245 353.73L240.45 356.48L239.93 349.19C239.93 349.19 243.49 345.12 245.13 345.18Z" fill="#263238"/>
    <path d="M232.689 335.15C232.689 335.15 232.449 335.34 229.559 343.09C226.669 350.84 223.659 353.71 221.909 355.16C220.159 356.61 216.189 359.3 216.189 361.37C216.189 363.44 219.539 365.07 224.439 364.65C229.339 364.23 236.239 363.03 238.009 357.15C238.589 355.25 238.699 351.78 240.919 349.39C243.139 347 245.129 345.18 245.129 345.18C245.129 345.18 245.359 337.34 243.129 335.24L232.689 335.15Z" fill="#37474F"/>
    <path d="M232.469 325.62L232.709 335.94C232.709 335.94 233.079 339.08 237.919 338.45C242.759 337.82 243.079 335.59 243.079 335.59L245.269 325.59L232.469 325.62Z" fill="#945959"/>
    <path d="M251.88 275.51C251.608 276.775 251.471 278.065 251.47 279.36C251.47 280.559 251.591 281.755 251.83 282.93C252.61 286.696 252.61 290.583 251.83 294.35L245.3 325.62C243.326 326.659 241.13 327.202 238.9 327.202C236.669 327.202 234.473 326.659 232.5 325.62C232.5 325.62 232.1 294.78 232.1 271.83C232.1 228.75 237.04 206.1 237.04 206.1H259.74V239.55L252.2 274.19L251.88 275.51Z" fill="#945959"/>
    <path d="M262.69 230L254.81 272.82C253.996 273.391 253.108 273.848 252.17 274.18C243.92 277.18 232.07 271.82 232.07 271.82C232.07 228.74 237.01 206.09 237.01 206.09L261.5 206L262.69 230Z" fill="#37474F"/>
    <path d="M262.39 231.659L259.71 214.859H241.84C241.84 214.859 242.79 225.189 250.55 230.369L256.42 264.059L262.39 231.659Z" fill="#263238"/>
    <path d="M287.31 289.441L285.67 337.001C284.047 338.374 282.023 339.184 279.9 339.309C277.778 339.433 275.672 338.865 273.9 337.691L262.8 275.321V275.121L253 227.441C244.56 225.161 240 215.301 238.13 209.811C237.689 208.595 237.312 207.356 237 206.101L279.86 202.221C280.361 203.45 280.775 204.713 281.1 206.001C282.851 212.87 283.824 219.914 284 227.001C284 233.581 283.85 260.161 283.79 270.731V270.811C283.788 273.663 284.352 276.488 285.45 279.121C286.812 282.385 287.447 285.906 287.31 289.441Z" fill="#945959"/>
    <path d="M284 227.001C284 233.581 283.85 260.161 283.79 270.731C280.89 273.08 277.48 274.717 273.832 275.509C270.185 276.301 266.403 276.226 262.79 275.291C261.876 275.077 260.978 274.803 260.1 274.471L253 227.441C241.19 224.871 238 209.821 238 209.821H238.15L281.15 206.051C282.881 212.906 283.837 219.933 284 227.001Z" fill="#37474F"/>
    <path d="M248.199 105.571C248.199 105.571 252.619 98.0206 261.749 99.2706C270.879 100.521 281.629 111.201 280.339 118.471L248.199 105.571Z" fill="#2F27CE"/>
    <path opacity="0.4" d="M248.199 105.571C248.199 105.571 252.619 98.0206 261.749 99.2706C270.879 100.521 281.629 111.201 280.339 118.471L248.199 105.571Z" fill="white"/>
    <path d="M287.522 139.028C291.871 128.682 281.937 114.638 265.334 107.659C248.731 100.68 231.747 103.409 227.398 113.754C223.049 124.1 232.983 138.144 249.585 145.123C266.188 152.102 283.173 149.373 287.522 139.028Z" fill="#2F27CE"/>
    <path d="M276.139 154C264.509 158.25 245.629 159.75 245.629 146C245.629 145.52 245.629 145.07 245.629 144.61C245.629 139.38 245.429 135.75 245.219 133.29C245.219 133.29 245.219 133.22 245.219 133.18C245.138 131.676 244.934 130.181 244.609 128.71L244.369 125.89L244.159 123.54L244.039 122.02L243.479 115.51L243.199 112.21C244.471 111.412 245.929 110.96 247.429 110.9C248.134 110.833 248.842 110.813 249.549 110.84C252.489 110.95 256.549 111.84 261.769 114.43C264.327 115.705 266.75 117.236 268.999 119C269.749 119.58 270.429 120.16 271.049 120.74C276.269 125.52 277.579 129.74 277.579 129.74V138.18C277.579 140.62 281.149 144.92 283.199 140.45C283.149 140.43 287.779 149.79 276.139 154Z" fill="#263238"/>
    <path d="M247.9 148.729C247.9 148.729 242.44 147.909 237.38 153.729C232.32 159.549 224.26 173.329 224.26 173.329C224.26 173.329 232.36 176.089 235.31 182.829L246.31 163.609L247.9 148.729Z" fill="#2F27CE"/>
    <path opacity="0.6" d="M247.9 148.729C247.9 148.729 242.44 147.909 237.38 153.729C232.32 159.549 224.26 173.329 224.26 173.329C224.26 173.329 232.36 176.089 235.31 182.829L246.31 163.609L247.9 148.729Z" fill="black"/>
    <path d="M252.93 148.73L265.93 149.2C265.93 149.2 275.73 150.77 277.93 152.36L278.69 178.01L275.91 192.71C275.91 192.71 280.65 201.78 282.17 210.89C282.17 210.89 274.1 216.89 255.3 216.89C243.2 216.89 236.07 210.89 236.07 210.89C236.07 210.89 240.5 188.01 239.77 183.8C239.77 183.8 234.15 180.31 234.19 171.52C234.23 162.73 247.87 148.73 247.87 148.73H252.93Z" fill="#2F27CE"/>
    <path opacity="0.4" d="M252.93 148.73L265.93 149.2C265.93 149.2 275.73 150.77 277.93 152.36L278.69 178.01L275.91 192.71C275.91 192.71 280.65 201.78 282.17 210.89C282.17 210.89 274.1 216.89 255.3 216.89C243.2 216.89 236.07 210.89 236.07 210.89C236.07 210.89 240.5 188.01 239.77 183.8C239.77 183.8 234.15 180.31 234.19 171.52C234.23 162.73 247.87 148.73 247.87 148.73H252.93Z" fill="black"/>
    <path d="M258.449 121.15C258.453 123.178 257.856 125.161 256.732 126.849C255.609 128.537 254.01 129.854 252.138 130.633C250.266 131.412 248.205 131.619 246.215 131.226C244.226 130.834 242.398 129.86 240.962 128.428C239.526 126.997 238.547 125.171 238.149 123.183C237.751 121.195 237.951 119.133 238.725 117.259C239.498 115.385 240.811 113.782 242.495 112.654C244.18 111.525 246.162 110.922 248.189 110.92C250.905 110.92 253.51 111.997 255.434 113.914C257.357 115.832 258.441 118.434 258.449 121.15Z" fill="#263238"/>
    <path d="M265.97 149.99L252.95 149.89L252.93 131.92L265.95 131.91L265.97 149.99Z" fill="#945959"/>
    <path d="M252.999 147.68C255.656 146.686 258.083 145.165 260.135 143.207C262.187 141.249 263.821 138.897 264.939 136.29V131.91H252.939L252.999 147.68Z" fill="#703838"/>
    <path d="M269.72 126.51C269.68 127.337 269.596 128.161 269.47 128.98C269.035 132.117 267.84 135.1 265.99 137.67C264.63 139.512 262.934 141.08 260.99 142.29C258.551 143.815 255.831 144.835 252.99 145.29C252.233 145.42 251.468 145.503 250.7 145.54C248.979 145.699 247.248 145.377 245.7 144.61C242.35 142.78 241.08 138.36 240.58 131.61C239.99 123.54 241.5 118.61 243.58 115.49C244.278 114.431 245.134 113.487 246.12 112.69C247.164 111.854 248.359 111.226 249.64 110.84C252.58 110.95 256.64 111.84 261.86 114.43C264.387 115.71 266.779 117.241 269 119C269.463 120.433 269.726 121.924 269.78 123.43C269.814 124.457 269.794 125.485 269.72 126.51Z" fill="#945959"/>
    <path d="M270.94 126.641C270.94 126.901 270.85 127.161 270.8 127.421L269.47 129.001L267 131.901C266.67 131.967 266.33 131.967 266 131.901H265.89C264.96 131.691 263.82 130.901 263.82 128.101C263.82 128.101 249.31 127.101 246.1 112.741C246.408 112.036 246.89 111.42 247.5 110.951C248.204 110.883 248.912 110.863 249.62 110.891C252.56 111.001 256.62 111.891 261.84 114.481C264.371 115.744 266.77 117.258 269 119.001C269.75 119.581 270.43 120.161 271.05 120.741C271.349 122.699 271.312 124.695 270.94 126.641Z" fill="#263238"/>
    <path d="M249.219 127.561L249.229 134.561L245.129 133.301L249.219 127.561Z" fill="#703838"/>
    <path d="M255.389 128.299C255.389 128.582 255.305 128.858 255.148 129.094C254.991 129.329 254.768 129.512 254.507 129.62C254.245 129.729 253.958 129.757 253.68 129.702C253.403 129.646 253.148 129.51 252.948 129.31C252.748 129.11 252.612 128.856 252.557 128.578C252.502 128.301 252.53 128.013 252.638 127.752C252.746 127.491 252.93 127.267 253.165 127.11C253.4 126.953 253.676 126.869 253.959 126.869C254.339 126.869 254.702 127.02 254.97 127.288C255.239 127.556 255.389 127.92 255.389 128.299Z" fill="#263238"/>
    <path d="M245.999 127.311C246.001 127.594 245.918 127.871 245.763 128.108C245.607 128.344 245.384 128.529 245.123 128.639C244.862 128.749 244.574 128.778 244.296 128.724C244.018 128.67 243.762 128.535 243.561 128.335C243.36 128.136 243.223 127.881 243.167 127.603C243.111 127.326 243.139 127.038 243.247 126.776C243.354 126.514 243.538 126.29 243.773 126.132C244.009 125.975 244.285 125.891 244.569 125.891C244.946 125.891 245.308 126.04 245.576 126.306C245.844 126.572 245.996 126.933 245.999 127.311Z" fill="#263238"/>
    <path d="M242.839 124.35L245.629 122.69C245.629 122.69 244.559 121.58 243.489 122.25C243.187 122.498 242.965 122.83 242.849 123.203C242.734 123.576 242.73 123.975 242.839 124.35Z" fill="#263238"/>
    <path d="M249.59 136.871C251.215 136.987 252.831 136.554 254.18 135.641C254.18 135.641 254.49 138.061 252.47 138.521C251.873 138.62 251.26 138.511 250.735 138.21C250.21 137.909 249.806 137.436 249.59 136.871Z" fill="#703838"/>
    <path d="M265.83 132.44C265.785 131.257 266.004 130.079 266.47 128.99C266.695 128.311 267.114 127.713 267.676 127.27C268.238 126.828 268.917 126.56 269.63 126.5C273.29 126.4 273.79 129.92 273.74 131.17C273.61 134.46 270.95 138.02 265.99 138.17L265.83 132.44Z" fill="#945959"/>
    <path d="M253 149.891C253 149.891 249.12 158.101 255.76 158.451C262.4 158.801 266 150.001 266 150.001L253 149.891Z" fill="#945959"/>
    <path d="M188.27 158.09L208.93 214.69L229.11 230.1L252.19 219.73L273.51 238.72L252.74 181.6L232.59 164.61L207.51 172.51L188.27 158.09Z" fill="#EBEBEB"/>
    <path d="M232.59 164.609L252.19 219.729L229.11 230.099L207.51 172.509L232.59 164.609Z" fill="#E0E0E0"/>
    <path d="M196.81 194.5C196.549 193.49 196.677 192.419 197.17 191.5C198.17 189.5 200.17 186.04 201.26 186.58C202.72 187.33 207.61 196.06 205.08 201.12C202.85 205.59 198.05 199.06 196.81 194.5Z" fill="#945959"/>
    <path d="M279.33 187.611L282.69 194.401L270.1 206.661C268.774 206.056 267.297 205.861 265.86 206.101C263.821 206.408 261.748 206.408 259.71 206.101C258.48 205.891 256.53 207.251 259.26 208.811C260.542 209.662 262.01 210.193 263.54 210.361C260.747 211.349 257.846 212.004 254.9 212.311C251.19 212.511 248.9 213.481 251.77 216.781C254.64 220.081 258.83 223.331 262.69 222.391C266.55 221.451 272.04 219.021 274.55 216.881C274.55 216.881 298.2 203.271 296.98 196.751C295.76 190.231 293.24 181.221 293.24 181.221L279.33 187.611Z" fill="#945959"/>
    <path d="M276.709 151.721C276.709 151.721 269.279 157.551 271.609 166.601C273.939 175.651 279.329 187.601 279.329 187.601C279.329 187.601 290.579 188.841 293.239 181.211L285.859 160.211C285.204 158.349 284.147 156.654 282.765 155.246C281.383 153.838 279.708 152.75 277.859 152.061L276.709 151.721Z" fill="#2F27CE"/>
    <path opacity="0.6" d="M276.709 151.721C276.709 151.721 269.279 157.551 271.609 166.601C273.939 175.651 279.329 187.601 279.329 187.601C279.329 187.601 290.579 188.841 293.239 181.211L285.859 160.211C285.204 158.349 284.147 156.654 282.765 155.246C281.383 153.838 279.708 152.75 277.859 152.061L276.709 151.721Z" fill="black"/>
    <path d="M263.19 210.329L261.15 204.719L256.83 204.529L255.57 208.809L258.67 210.359L263.19 210.329Z" fill="#EBEBEB"/>
    <path d="M196.8 122.801C202.04 114.211 205.34 104.331 205.34 95.4606C205.428 91.636 204.627 87.8431 203 84.3806L204.8 82.5806L197.8 78.5806C193 75.6606 186.37 76.0006 179 80.2506C164.46 88.6506 152.67 109.071 152.67 125.861C152.67 134.441 155.75 140.401 160.67 143.071L167.87 147.211V144.631C171.806 144.356 175.615 143.127 178.97 141.051C183.036 138.629 186.702 135.593 189.84 132.051C194.99 136.461 204.32 126.401 204.32 126.401C199 129.501 197.27 126.431 196.8 122.801Z" fill="#2F27CE"/>
    <path opacity="0.2" d="M196.8 122.801C202.04 114.211 205.34 104.331 205.34 95.4606C205.428 91.636 204.627 87.8431 203 84.3806L204.8 82.5806L197.8 78.5806C193 75.6606 186.37 76.0006 179 80.2506C164.46 88.6506 152.67 109.071 152.67 125.861C152.67 134.441 155.75 140.401 160.67 143.071L167.87 147.211V144.631C171.806 144.356 175.615 143.127 178.97 141.051C183.036 138.629 186.702 135.593 189.84 132.051C194.99 136.461 204.32 126.401 204.32 126.401C199 129.501 197.27 126.431 196.8 122.801Z" fill="black"/>
    <g opacity="0.3">
        <path d="M197.001 115.67C197.001 115.67 194.131 132.32 204.331 126.43C204.331 126.43 192.381 139.33 188.051 129.54L197.001 115.67Z" fill="black"/>
    </g>
    <path d="M204.636 125.456C214.92 107.645 214.92 88.3925 204.637 82.4555C194.354 76.5184 177.681 86.1446 167.397 103.956C157.114 121.768 157.114 141.02 167.397 146.957C177.68 152.894 194.353 143.268 204.636 125.456Z" fill="#2F27CE"/>
    <path d="M204.001 119.721C204.001 119.721 201.141 136.361 211.341 130.481C211.341 130.481 199.341 143.371 195.061 133.591L204.001 119.721Z" fill="#2F27CE"/>
    <path d="M186.32 99.0905C180.76 102.29 176.26 110.09 176.26 116.5C176.26 122.91 186.32 133.69 186.32 133.69C186.32 133.69 196.37 111.3 196.37 104.89C196.37 98.4805 191.87 95.8805 186.32 99.0905ZM186.32 115.6C183.95 116.97 182.04 115.86 182.04 113.13C182.118 111.645 182.547 110.2 183.291 108.912C184.035 107.624 185.073 106.531 186.32 105.72C188.68 104.35 190.6 105.46 190.6 108.19C190.519 109.675 190.089 111.12 189.346 112.407C188.602 113.695 187.565 114.789 186.32 115.6Z" fill="#2F27CE"/>
    <path opacity="0.5" d="M186.32 99.0905C180.76 102.29 176.26 110.09 176.26 116.5C176.26 122.91 186.32 133.69 186.32 133.69C186.32 133.69 196.37 111.3 196.37 104.89C196.37 98.4805 191.87 95.8805 186.32 99.0905ZM186.32 115.6C183.95 116.97 182.04 115.86 182.04 113.13C182.118 111.645 182.547 110.2 183.291 108.912C184.035 107.624 185.073 106.531 186.32 105.72C188.68 104.35 190.6 105.46 190.6 108.19C190.519 109.675 190.089 111.12 189.346 112.407C188.602 113.695 187.565 114.789 186.32 115.6Z" fill="black"/>
    <path d="M382.001 328.36V291H352.891V328.66C352.891 330.82 354.321 332.97 357.161 334.66C362.861 337.95 372.091 337.95 377.791 334.66C380.781 332.92 382.191 330.63 382.001 328.36Z" fill="#263238"/>
    <path d="M377.79 285.081C383.48 288.361 383.48 293.701 377.79 296.981C372.1 300.261 362.86 300.271 357.16 296.981C351.46 293.691 351.47 288.361 357.16 285.081C362.85 281.801 372.09 281.791 377.79 285.081Z" fill="#37474F"/>
    <path d="M319.38 75.5892L364.28 101.519V75.3692L319.38 49.4492L307.1 55.4292L319.38 75.5892Z" fill="#2F27CE"/>
    <path opacity="0.3" d="M319.38 75.5892L364.28 101.519V75.3692L319.38 49.4492L307.1 55.4292L319.38 75.5892Z" fill="white"/>
    <path d="M317.61 76.4603L362.51 102.39V76.2403L317.61 50.3203L305.33 56.3003L317.61 76.4603Z" fill="#2F27CE"/>
    <path opacity="0.7" d="M317.61 76.4603L362.51 102.39V76.2403L317.61 50.3203L305.33 56.3003L317.61 76.4603Z" fill="white"/>
    <path d="M415.58 75.5892L370.68 101.519V75.3692L415.58 49.4492L427.86 55.4292L415.58 75.5892Z" fill="#2F27CE"/>
    <path opacity="0.3" d="M415.58 75.5892L370.68 101.519V75.3692L415.58 49.4492L427.86 55.4292L415.58 75.5892Z" fill="white"/>
    <path d="M417.349 76.4603L372.449 102.39V76.2403L417.349 50.3203L429.629 56.3003L417.349 76.4603Z" fill="#2F27CE"/>
    <path opacity="0.5" d="M417.349 76.4603L372.449 102.39V76.2403L417.349 50.3203L429.629 56.3003L417.349 76.4603Z" fill="white"/>
    <path d="M390.092 74.6157L391.929 73.5598V81.0515L390.092 82.1075V74.6157ZM387.586 83.5473L385.749 84.6033V77.1115L387.586 76.0556V83.5473ZM390.222 79.111L387.457 80.7002V78.945L390.222 77.3558V79.111ZM395.666 79.0005C395.115 79.3169 394.626 79.4693 394.199 79.4578C393.773 79.4463 393.435 79.2868 393.188 78.9795C392.947 78.6615 392.826 78.21 392.826 77.6249C392.826 77.0399 392.947 76.4533 393.188 75.8651C393.435 75.2734 393.773 74.73 394.199 74.235C394.626 73.7328 395.115 73.3235 395.666 73.0071C396.216 72.6906 396.705 72.5382 397.132 72.5498C397.565 72.5506 397.902 72.7065 398.143 73.0173C398.384 73.3282 398.505 73.7761 398.505 74.3612C398.505 74.9463 398.384 75.5365 398.143 76.1318C397.902 76.7199 397.565 77.2669 397.132 77.7726C396.705 78.2748 396.216 78.6841 395.666 79.0005ZM395.666 77.3844C395.87 77.2671 396.049 77.1105 396.204 76.9146C396.365 76.7151 396.491 76.4852 396.584 76.225C396.677 75.9576 396.723 75.6777 396.723 75.3851C396.723 75.0926 396.677 74.8731 396.584 74.7266C396.491 74.5731 396.365 74.489 396.204 74.4744C396.049 74.4562 395.87 74.5058 395.666 74.6231C395.468 74.7369 395.288 74.8935 395.127 75.093C394.973 75.2889 394.846 75.5188 394.747 75.7826C394.654 76.0357 394.608 76.3085 394.608 76.601C394.608 76.8936 394.654 77.1202 394.747 77.2809C394.846 77.4309 394.973 77.515 395.127 77.5332C395.288 77.5478 395.468 77.4982 395.666 77.3844ZM401.562 75.6113C400.92 75.9804 400.42 76.0863 400.062 75.9288C399.704 75.7643 399.525 75.3117 399.525 74.5709V69.6028L401.285 68.5912V73.538C401.285 73.7446 401.334 73.88 401.433 73.9443C401.532 74.0015 401.658 73.9857 401.813 73.897C402.023 73.7763 402.202 73.6128 402.35 73.4066L402.785 74.5773C402.637 74.7765 402.455 74.9631 402.239 75.1372C402.023 75.3184 401.797 75.4764 401.562 75.6113ZM398.793 73.0469V71.5298L402.433 69.4376V70.9547L398.793 73.0469ZM405.95 73.0897C405.357 73.4305 404.838 73.6004 404.394 73.5995C403.955 73.588 403.613 73.4288 403.366 73.122C403.125 72.8046 403.004 72.3574 403.004 71.7804C403.004 71.2035 403.122 70.6232 403.356 70.0396C403.597 69.4453 403.927 68.9029 404.347 68.4122C404.767 67.9145 405.24 67.5148 405.765 67.2131C406.259 66.9292 406.71 66.7876 407.117 66.7884C407.525 66.7821 407.849 66.9341 408.09 67.2444C408.331 67.5547 408.451 68.0304 408.451 68.6714C408.451 68.7427 408.448 68.8264 408.442 68.9225C408.436 69.0187 408.429 69.1077 408.423 69.1896L404.449 71.4735V70.405L407.488 68.6589L406.821 69.3413C406.827 69.0742 406.784 68.8711 406.691 68.7321C406.605 68.5894 406.481 68.5108 406.321 68.4963C406.166 68.4782 405.984 68.5295 405.774 68.6501C405.564 68.7708 405.379 68.9307 405.218 69.1298C405.064 69.3254 404.943 69.5477 404.857 69.7969C404.77 70.0389 404.727 70.2916 404.727 70.5552V70.865C404.727 71.1499 404.777 71.3673 404.875 71.517C404.98 71.6633 405.129 71.7384 405.32 71.7423C405.512 71.7391 405.74 71.6612 406.006 71.5086C406.253 71.3666 406.463 71.2068 406.635 71.0291C406.815 70.8407 406.991 70.6113 407.163 70.341L408.09 70.9198C407.849 71.3644 407.553 71.7699 407.201 72.136C406.849 72.495 406.432 72.8129 405.95 73.0897ZM409.263 71.0898V63.1622L411.023 62.1506V70.0783L409.263 71.0898Z" fill="#455A64"/>
    <path d="M328.922 66.2328L330.759 67.2887V74.7805L328.922 73.7246V66.2328ZM326.417 72.2847L324.579 71.2288V63.737L326.417 64.7929V72.2847ZM329.052 70.8774L326.287 69.2882V67.533L329.052 69.1222V70.8774ZM331.972 75.4773V69.6765L333.735 70.6898V76.4906L331.972 75.4773ZM332.853 69.541C332.532 69.3561 332.272 69.1033 332.074 68.7827C331.876 68.462 331.777 68.1482 331.777 67.8414C331.777 67.5346 331.876 67.3346 332.074 67.2415C332.272 67.1483 332.532 67.1942 332.853 67.3791C333.175 67.564 333.435 67.8132 333.633 68.1267C333.831 68.4331 333.93 68.7397 333.93 69.0466C333.93 69.3676 333.831 69.5783 333.633 69.6786C333.441 69.7753 333.181 69.7294 332.853 69.541ZM334.881 77.1491V69.2078L336.644 70.221V78.1623L334.881 77.1491ZM337.789 78.8208V70.8795L339.552 71.8928V79.834L337.789 78.8208ZM342.526 81.6394C342.099 81.3941 341.682 81.0971 341.273 80.7483C340.871 80.403 340.547 80.0737 340.299 79.7602L340.828 78.6728C341.063 78.9721 341.338 79.2623 341.654 79.5435C341.969 79.8175 342.279 80.0417 342.582 80.2159C342.879 80.3865 343.083 80.4682 343.194 80.4608C343.312 80.457 343.371 80.3945 343.371 80.2732C343.371 80.159 343.315 80.045 343.204 79.931C343.098 79.8135 342.956 79.6889 342.777 79.5573C342.604 79.4292 342.412 79.2869 342.201 79.1303C341.991 78.9738 341.778 78.8047 341.561 78.6232C341.351 78.4381 341.156 78.2334 340.977 78.009C340.803 77.781 340.664 77.5298 340.559 77.2553C340.454 76.9808 340.401 76.6794 340.401 76.3512C340.401 75.9802 340.494 75.7053 340.68 75.5266C340.871 75.3443 341.15 75.2759 341.515 75.3216C341.88 75.3601 342.325 75.5305 342.851 75.8327C343.204 76.0353 343.559 76.2826 343.918 76.5744C344.283 76.8626 344.589 77.1599 344.837 77.4662L344.308 78.5429C344.06 78.2366 343.813 77.9838 343.565 77.7845C343.318 77.578 343.083 77.4108 342.86 77.2828C342.563 77.1122 342.353 77.0306 342.229 77.0379C342.112 77.0489 342.053 77.1114 342.053 77.2256C342.053 77.3397 342.106 77.4591 342.211 77.5838C342.316 77.7013 342.455 77.8277 342.628 77.9629C342.808 78.0946 343.003 78.2387 343.213 78.3952C343.423 78.5446 343.634 78.7119 343.844 78.897C344.06 79.0856 344.255 79.2939 344.428 79.5219C344.608 79.7463 344.75 79.9958 344.855 80.2703C344.96 80.5376 345.013 80.8354 345.013 81.1636C345.013 81.5204 344.917 81.7863 344.725 81.9615C344.54 82.1403 344.261 82.2086 343.89 82.1665C343.525 82.128 343.071 81.9523 342.526 81.6394Z" fill="#455A64"/>
    <path d="M370.351 291.88C368.509 292.62 366.453 292.62 364.611 291.88C363.98 291.629 363.438 291.195 363.057 290.634C362.675 290.072 362.471 289.409 362.471 288.73V60.1797H372.471V288.73C372.473 289.407 372.273 290.069 371.895 290.631C371.517 291.192 370.979 291.627 370.351 291.88Z" fill="#455A64"/>
    <path d="M375.21 55.73C375.21 57.2588 374.757 58.7534 373.907 60.0246C373.058 61.2958 371.851 62.2865 370.438 62.8716C369.026 63.4567 367.471 63.6097 365.972 63.3115C364.472 63.0132 363.095 62.277 362.014 61.1959C360.933 60.1149 360.197 58.7375 359.899 57.238C359.6 55.7386 359.753 54.1843 360.338 52.7719C360.923 51.3594 361.914 50.1521 363.185 49.3027C364.457 48.4534 365.951 48 367.48 48C369.53 48 371.496 48.8144 372.946 50.2641C374.396 51.7137 375.21 53.6799 375.21 55.73Z" fill="#37474F"/>
    <path d="M417.35 132.349L370.68 81.1591L372.45 80.2891L417.35 106.209L429.63 126.369L417.35 132.349Z" fill="#2F27CE"/>
    <path opacity="0.3" d="M417.35 132.349L370.68 81.1591L372.45 80.2891L417.35 106.209L429.63 126.369L417.35 132.349Z" fill="white"/>
    <path d="M415.58 133.22L370.68 107.3V81.1602L415.58 107.08L427.86 127.24L415.58 133.22Z" fill="#2F27CE"/>
    <path opacity="0.7" d="M415.58 133.22L370.68 107.3V81.1602L415.58 107.08L427.86 127.24L415.58 133.22Z" fill="white"/>
    <path d="M317.61 132.349L364.28 81.1591L362.51 80.2891L317.61 106.209L305.33 126.369L317.61 132.349Z" fill="#2F27CE"/>
    <path opacity="0.3" d="M317.61 132.349L364.28 81.1591L362.51 80.2891L317.61 106.209L305.33 126.369L317.61 132.349Z" fill="white"/>
    <path d="M319.38 133.22L364.28 107.3V81.1602L319.38 107.08L307.1 127.24L319.38 133.22Z" fill="#2F27CE"/>
    <path opacity="0.5" d="M319.38 133.22L364.28 107.3V81.1602L319.38 107.08L307.1 127.24L319.38 133.22Z" fill="white"/>
    <path d="M324.62 119.293V111.801L327.942 109.892C328.796 109.401 329.433 109.217 329.854 109.339C330.274 109.454 330.485 109.804 330.485 110.389C330.485 110.774 330.395 111.165 330.216 111.56C330.042 111.945 329.795 112.316 329.473 112.672C329.158 113.018 328.78 113.316 328.341 113.569L328.527 112.948C328.985 112.685 329.384 112.538 329.724 112.507C330.064 112.468 330.327 112.549 330.513 112.749C330.704 112.939 330.8 113.251 330.8 113.686C330.8 114.335 330.571 114.974 330.114 115.601C329.662 116.217 329 116.776 328.128 117.277L324.62 119.293ZM326.439 116.717L327.979 115.832C328.295 115.65 328.533 115.453 328.694 115.239C328.861 115.015 328.944 114.774 328.944 114.517C328.944 114.26 328.861 114.119 328.694 114.094C328.533 114.058 328.295 114.131 327.979 114.312L326.309 115.272V113.806L327.701 113.006C328.01 112.828 328.242 112.634 328.397 112.424C328.552 112.214 328.629 111.987 328.629 111.745C328.629 111.502 328.552 111.368 328.397 111.343C328.242 111.31 328.01 111.383 327.701 111.561L326.439 112.286V116.717ZM334.304 113.824C333.71 114.165 333.19 114.335 332.745 114.334C332.306 114.323 331.962 114.163 331.715 113.856C331.473 113.538 331.353 113.09 331.353 112.512C331.353 111.934 331.47 111.353 331.705 110.768C331.947 110.173 332.278 109.63 332.698 109.138C333.119 108.64 333.592 108.239 334.118 107.937C334.613 107.653 335.065 107.511 335.473 107.512C335.881 107.505 336.206 107.658 336.447 107.968C336.688 108.279 336.809 108.756 336.809 109.398C336.809 109.469 336.806 109.553 336.8 109.649C336.794 109.746 336.787 109.835 336.781 109.917L332.8 112.205V111.135L335.844 109.385L335.176 110.069C335.182 109.801 335.139 109.598 335.046 109.459C334.959 109.316 334.836 109.237 334.675 109.222C334.52 109.204 334.338 109.256 334.127 109.377C333.917 109.497 333.731 109.658 333.571 109.857C333.416 110.053 333.295 110.276 333.209 110.525C333.122 110.768 333.079 111.021 333.079 111.285V111.595C333.079 111.881 333.128 112.098 333.227 112.248C333.332 112.395 333.481 112.47 333.673 112.474C333.864 112.471 334.093 112.393 334.359 112.24C334.607 112.098 334.817 111.938 334.99 111.76C335.17 111.571 335.346 111.341 335.519 111.07L336.447 111.65C336.206 112.096 335.909 112.502 335.556 112.868C335.204 113.228 334.786 113.547 334.304 113.824ZM340.557 110.133V109.052L340.437 108.854V106.864C340.437 106.542 340.35 106.346 340.177 106.274C340.01 106.192 339.741 106.257 339.37 106.471C339.128 106.609 338.884 106.796 338.637 107.031C338.389 107.259 338.179 107.501 338.006 107.758L337.412 106.718C337.696 106.341 338.037 105.981 338.433 105.639C338.835 105.287 339.234 104.997 339.63 104.77C340.446 104.3 341.077 104.155 341.523 104.335C341.974 104.503 342.2 105.048 342.2 105.968V109.189L340.557 110.133ZM339.073 111.083C338.671 111.314 338.33 111.431 338.052 111.434C337.774 111.437 337.56 111.346 337.412 111.16C337.27 110.971 337.198 110.708 337.198 110.373C337.198 110.016 337.276 109.665 337.43 109.319C337.591 108.963 337.836 108.623 338.163 108.299C338.491 107.967 338.915 107.653 339.435 107.354L340.622 106.671V107.731L339.676 108.275C339.391 108.438 339.19 108.607 339.073 108.782C338.961 108.953 338.906 109.128 338.906 109.306C338.906 109.484 338.965 109.593 339.082 109.633C339.2 109.672 339.36 109.633 339.565 109.516C339.756 109.406 339.93 109.253 340.084 109.057C340.245 108.85 340.363 108.611 340.437 108.34L340.678 108.951C340.585 109.404 340.403 109.812 340.131 110.175C339.865 110.528 339.512 110.831 339.073 111.083ZM345.947 107.133C345.39 107.453 344.892 107.61 344.453 107.606C344.02 107.598 343.679 107.44 343.432 107.133C343.184 106.818 343.061 106.369 343.061 105.784C343.061 105.199 343.184 104.61 343.432 104.018C343.679 103.427 344.02 102.882 344.453 102.383C344.892 101.874 345.39 101.459 345.947 101.139C346.516 100.812 347.007 100.669 347.422 100.709C347.836 100.749 348.13 100.972 348.303 101.379L346.939 102.966C346.822 102.762 346.677 102.65 346.503 102.628C346.33 102.599 346.141 102.643 345.937 102.761C345.733 102.878 345.548 103.038 345.38 103.241C345.213 103.444 345.08 103.677 344.981 103.941C344.889 104.194 344.842 104.467 344.842 104.76C344.842 105.059 344.889 105.286 344.981 105.44C345.08 105.59 345.213 105.67 345.38 105.681C345.548 105.692 345.733 105.639 345.937 105.522C346.141 105.404 346.33 105.235 346.503 105.015C346.677 104.787 346.822 104.503 346.939 104.165L348.303 104.183C348.13 104.789 347.836 105.351 347.422 105.867C347.007 106.384 346.516 106.805 345.947 107.133ZM352.225 97.5309C352.614 97.307 352.967 97.1971 353.283 97.2013C353.598 97.1983 353.846 97.3344 354.025 97.6094C354.211 97.8809 354.303 98.3164 354.303 98.9157V102.233L352.54 103.247V100.261C352.54 99.8469 352.466 99.5899 352.318 99.4897C352.175 99.3788 351.974 99.398 351.714 99.5474C351.529 99.654 351.359 99.8017 351.204 99.9905C351.049 100.172 350.929 100.388 350.842 100.637C350.756 100.887 350.712 101.172 350.712 101.493V104.297L348.949 105.311V97.3693L350.712 96.356V100.145L350.304 99.8978C350.496 99.3666 350.759 98.9015 351.093 98.5026C351.427 98.0966 351.804 97.7727 352.225 97.5309Z" fill="#455A64"/>
    <path d="M380.819 103.039V95.5475L383.789 97.2541C384.383 97.5954 384.893 97.9993 385.32 98.4658C385.753 98.9358 386.087 99.4489 386.322 100.005C386.557 100.554 386.675 101.114 386.675 101.685C386.675 102.248 386.557 102.669 386.322 102.948C386.087 103.227 385.753 103.356 385.32 103.335C384.893 103.311 384.383 103.129 383.789 102.787L381.84 101.667L382.657 101.216V104.095L380.819 103.039ZM382.657 101.441L381.84 99.9978L383.677 101.054C384.061 101.274 384.346 101.341 384.531 101.255C384.723 101.173 384.819 100.96 384.819 100.618C384.819 100.268 384.723 99.9421 384.531 99.6393C384.346 99.34 384.061 99.0801 383.677 98.8597L381.84 97.8038L382.657 97.2991V101.441ZM390.513 108.61V107.529L390.392 107.193V105.202C390.392 104.881 390.306 104.585 390.133 104.314C389.966 104.04 389.697 103.796 389.325 103.583C389.084 103.444 388.84 103.35 388.592 103.3C388.345 103.244 388.135 103.244 387.961 103.302L387.367 101.58C387.652 101.529 387.992 101.561 388.388 101.674C388.79 101.784 389.189 101.952 389.585 102.18C390.402 102.649 391.033 103.23 391.478 103.921C391.93 104.608 392.156 105.412 392.156 106.333V109.554L390.513 108.61ZM389.028 107.853C388.626 107.622 388.286 107.348 388.008 107.031C387.729 106.714 387.516 106.378 387.367 106.021C387.225 105.668 387.154 105.324 387.154 104.989C387.154 104.632 387.231 104.37 387.386 104.202C387.547 104.03 387.791 103.971 388.119 104.024C388.447 104.069 388.871 104.242 389.39 104.54L390.578 105.223V106.282L389.632 105.738C389.347 105.575 389.146 105.513 389.028 105.552C388.917 105.595 388.861 105.706 388.861 105.884C388.861 106.063 388.92 106.239 389.038 106.414C389.155 106.588 389.316 106.734 389.52 106.852C389.712 106.962 389.885 107.008 390.04 106.99C390.201 106.968 390.318 106.864 390.392 106.679L390.634 107.567C390.541 107.913 390.358 108.111 390.086 108.162C389.82 108.209 389.468 108.106 389.028 107.853ZM393.268 110.194V104.393L394.948 105.358V107.049L394.697 106.424C394.846 106.074 395.087 105.888 395.421 105.866C395.755 105.837 396.16 105.959 396.637 106.233V108.063C396.556 108.002 396.485 107.954 396.423 107.919C396.368 107.88 396.306 107.84 396.238 107.801C395.879 107.595 395.588 107.542 395.366 107.643C395.143 107.736 395.031 108.036 395.031 108.542V111.207L393.268 110.194ZM398.83 112.32L398.877 109.917L400.928 108.795L403.015 109.995L400.742 111.396L399.842 111.714L398.83 112.32ZM397.364 112.548V104.607L399.127 105.62V113.561L397.364 112.548ZM401.057 114.67L399.517 111.559L400.612 110.626L403.192 115.897L401.057 114.67Z" fill="#455A64"/>
    <path d="M117.16 44.4597L111.16 47.8897V45.7597C111.16 45.6097 111.16 45.4497 111.16 45.3097C111.16 45.1697 111.16 45.0197 111.16 44.8797V44.8297C110.94 41.9997 108.8 40.9197 106.16 42.4297C104.968 43.1503 103.945 44.1188 103.16 45.2697C102.57 41.4397 99.44 40.0497 95.66 42.2697C93.4582 43.7142 91.6269 45.656 90.3136 47.9385C89.0004 50.221 88.2421 52.7803 88.1 55.4097V59.9997C88.1012 60.3589 88.0097 60.7123 87.8346 61.0258C87.6594 61.3393 87.4064 61.6024 87.1 61.7897L83.56 63.8597C82.7881 64.3053 82.1459 64.9447 81.6969 65.7147C81.2479 66.4846 81.0077 67.3585 81 68.2497C80.9998 68.6185 81.0966 68.9808 81.2808 69.3002C81.4651 69.6196 81.7301 69.8849 82.0494 70.0694C82.3687 70.2539 82.7309 70.351 83.0997 70.3511C83.4684 70.3511 83.8307 70.2541 84.15 70.0697L117.06 51.0697C117.937 50.5635 118.664 49.8343 119.168 48.9562C119.672 48.0781 119.935 47.0822 119.93 46.0697C119.928 45.7462 119.841 45.4289 119.679 45.149C119.517 44.8691 119.284 44.6364 119.005 44.4738C118.725 44.3112 118.408 44.2244 118.084 44.222C117.761 44.2195 117.442 44.3014 117.16 44.4597Z" fill="#E0E0E0"/>
    <path d="M151.001 52.9997L146.861 55.3497V53.8897C146.861 53.7797 146.861 53.6797 146.861 53.5697C146.866 53.4731 146.866 53.3763 146.861 53.2797C146.711 51.3397 145.241 50.5897 143.451 51.6297C142.655 52.1327 141.974 52.797 141.451 53.5797C141.051 50.9497 138.901 49.9997 136.311 51.4997C134.776 52.4771 133.495 53.804 132.572 55.3719C131.649 56.9397 131.111 58.7038 131.001 60.5197V63.6497C131 63.8977 130.935 64.1412 130.812 64.3567C130.69 64.5722 130.514 64.7523 130.301 64.8797L127.861 66.2997C127.339 66.609 126.906 67.0475 126.603 67.573C126.3 68.0985 126.137 68.6932 126.131 69.2997C126.129 69.5542 126.195 69.8046 126.322 70.0253C126.449 70.246 126.632 70.4293 126.852 70.5563C127.073 70.6833 127.323 70.7496 127.577 70.7485C127.832 70.7473 128.082 70.6788 128.301 70.5497L150.891 57.5497C151.493 57.2024 151.993 56.7044 152.344 56.1047C152.695 55.5051 152.883 54.8244 152.891 54.1297C152.892 53.9076 152.835 53.689 152.725 53.4956C152.616 53.3021 152.458 53.1404 152.268 53.0264C152.077 52.9124 151.86 52.85 151.638 52.8453C151.416 52.8406 151.196 52.8939 151.001 52.9997Z" fill="#E0E0E0"/>
</svg>
